<svg width="320" height="320" viewBox="0 0 320 320" xmlns="http://www.w3.org/2000/svg" shape-rendering="crispEdges"><rect width="100%" height="100%" fill="none" /><rect width="140" height="10" x="90" y="210" fill="#807f7e" shape-rendering="crispEdges" /><rect width="140" height="10" x="90" y="220" fill="#807f7e" shape-rendering="crispEdges" /><rect width="140" height="10" x="90" y="230" fill="#807f7e" shape-rendering="crispEdges" /><rect width="140" height="10" x="90" y="240" fill="#807f7e" shape-rendering="crispEdges" /><rect width="20" height="10" x="90" y="250" fill="#807f7e" shape-rendering="crispEdges" /><rect width="110" height="10" x="120" y="250" fill="#807f7e" shape-rendering="crispEdges" /><rect width="20" height="10" x="90" y="260" fill="#807f7e" shape-rendering="crispEdges" /><rect width="110" height="10" x="120" y="260" fill="#807f7e" shape-rendering="crispEdges" /><rect width="20" height="10" x="90" y="270" fill="#807f7e" shape-rendering="crispEdges" /><rect width="110" height="10" x="120" y="270" fill="#807f7e" shape-rendering="crispEdges" /><rect width="20" height="10" x="90" y="280" fill="#807f7e" shape-rendering="crispEdges" /><rect width="110" height="10" x="120" y="280" fill="#807f7e" shape-rendering="crispEdges" /><rect width="20" height="10" x="90" y="290" fill="#807f7e" shape-rendering="crispEdges" /><rect width="110" height="10" x="120" y="290" fill="#807f7e" shape-rendering="crispEdges" /><rect width="20" height="10" x="90" y="300" fill="#807f7e" shape-rendering="crispEdges" /><rect width="110" height="10" x="120" y="300" fill="#807f7e" shape-rendering="crispEdges" /><rect width="20" height="10" x="90" y="310" fill="#807f7e" shape-rendering="crispEdges" /><rect width="110" height="10" x="120" y="310" fill="#807f7e" shape-rendering="crispEdges" /></svg>