<svg id="svg" version="1.1" xmlns="http://www.w3.org/2000/svg" xmlns:xlink="http://www.w3.org/1999/xlink" width="400" height="400" viewBox="0, 0, 400,400"><g id="svgg"><path id="path0" d="M225.000 331.250 L 225.000 337.500 231.250 337.500 L 237.500 337.500 237.500 331.250 L 237.500 325.000 231.250 325.000 L 225.000 325.000 225.000 331.250 " stroke="none" fill="#fcfcfc" fill-rule="evenodd"></path><path id="path1" d="M212.500 331.250 L 212.500 337.500 218.750 337.500 L 225.000 337.500 225.000 331.250 L 225.000 325.000 218.750 325.000 L 212.500 325.000 212.500 331.250 " stroke="none" fill="#fcf404" fill-rule="evenodd"></path><path id="path2" d="M200.000 331.250 L 200.000 337.500 206.250 337.500 L 212.500 337.500 212.500 331.250 L 212.500 325.000 206.250 325.000 L 200.000 325.000 200.000 331.250 " stroke="none" fill="#fc0404" fill-rule="evenodd"></path><path id="path3" d="M162.500 293.750 L 162.500 300.000 168.750 300.000 L 175.000 300.000 175.000 306.250 L 175.000 312.500 181.250 312.500 L 187.500 312.500 187.500 331.250 L 187.500 350.000 218.750 350.000 L 250.000 350.000 250.000 331.250 L 250.000 312.500 256.250 312.500 L 262.500 312.500 262.500 306.250 L 262.500 300.000 268.750 300.000 L 275.000 300.000 275.000 293.750 L 275.000 287.500 268.750 287.500 L 262.500 287.500 262.500 293.750 L 262.500 300.000 256.250 300.000 L 250.000 300.000 250.000 306.250 L 250.000 312.500 218.750 312.500 L 187.500 312.500 187.500 306.250 L 187.500 300.000 181.250 300.000 L 175.000 300.000 175.000 293.750 L 175.000 287.500 168.750 287.500 L 162.500 287.500 162.500 293.750 M237.500 331.250 L 237.500 337.500 218.750 337.500 L 200.000 337.500 200.000 331.250 L 200.000 325.000 218.750 325.000 L 237.500 325.000 237.500 331.250 " stroke="none" fill="#2c2c2c" fill-rule="evenodd"></path><path id="path4" d="" stroke="none" fill="#984c94" fill-rule="evenodd"></path></g></svg>