<svg id="svg" version="1.1" xmlns="http://www.w3.org/2000/svg" xmlns:xlink="http://www.w3.org/1999/xlink" width="400" height="400" viewBox="0, 0, 400,400"><g id="svgg"><path id="path0" d="M175.000 306.250 L 175.000 312.500 218.750 312.500 L 262.500 312.500 262.500 306.250 L 262.500 300.000 218.750 300.000 L 175.000 300.000 175.000 306.250 M200.000 343.750 L 200.000 350.000 218.750 350.000 L 237.500 350.000 237.500 343.750 L 237.500 337.500 218.750 337.500 L 200.000 337.500 200.000 343.750 M200.000 368.750 L 200.000 375.000 218.750 375.000 L 237.500 375.000 237.500 368.750 L 237.500 362.500 218.750 362.500 L 200.000 362.500 200.000 368.750 M200.000 393.750 L 200.000 400.000 218.750 400.000 L 237.500 400.000 237.500 393.750 L 237.500 387.500 218.750 387.500 L 200.000 387.500 200.000 393.750 " stroke="none" fill="#444444" fill-rule="evenodd"></path><path id="path1" d="M175.000 287.500 L 175.000 300.000 218.750 300.000 L 262.500 300.000 262.500 287.500 L 262.500 275.000 218.750 275.000 L 175.000 275.000 175.000 287.500 M187.500 331.250 L 187.500 337.500 218.750 337.500 L 250.000 337.500 250.000 331.250 L 250.000 325.000 218.750 325.000 L 187.500 325.000 187.500 331.250 M112.500 343.750 L 112.500 350.000 125.000 350.000 L 137.500 350.000 137.500 343.750 L 137.500 337.500 125.000 337.500 L 112.500 337.500 112.500 343.750 M187.500 356.250 L 187.500 362.500 218.750 362.500 L 250.000 362.500 250.000 356.250 L 250.000 350.000 218.750 350.000 L 187.500 350.000 187.500 356.250 M187.500 381.250 L 187.500 387.500 218.750 387.500 L 250.000 387.500 250.000 381.250 L 250.000 375.000 218.750 375.000 L 187.500 375.000 187.500 381.250 " stroke="none" fill="#040404" fill-rule="evenodd"></path><path id="path2" d="" stroke="none" fill="#384824" fill-rule="evenodd"></path><path id="path3" d="" stroke="none" fill="#142824" fill-rule="evenodd"></path><path id="path4" d="" stroke="none" fill="#140428" fill-rule="evenodd"></path></g></svg>