<svg id="svg" version="1.1" xmlns="http://www.w3.org/2000/svg" xmlns:xlink="http://www.w3.org/1999/xlink" width="400" height="400" viewBox="0, 0, 400,400"><g id="svgg"><path id="path0" d="M237.500 300.000 L 237.500 312.500 250.000 312.500 L 262.500 312.500 262.500 300.000 L 262.500 287.500 250.000 287.500 L 237.500 287.500 237.500 300.000 M175.000 306.250 L 175.000 312.500 168.750 312.500 L 162.500 312.500 162.500 318.750 L 162.500 325.000 168.750 325.000 L 175.000 325.000 175.000 331.250 L 175.000 337.500 181.250 337.500 L 187.500 337.500 187.500 331.250 L 187.500 325.000 181.250 325.000 L 175.000 325.000 175.000 318.750 L 175.000 312.500 181.250 312.500 L 187.500 312.500 187.500 306.250 L 187.500 300.000 181.250 300.000 L 175.000 300.000 175.000 306.250 M237.500 331.250 L 237.500 337.500 250.000 337.500 L 262.500 337.500 262.500 331.250 L 262.500 325.000 250.000 325.000 L 237.500 325.000 237.500 331.250 M175.000 356.250 L 175.000 362.500 193.750 362.500 L 212.500 362.500 212.500 356.250 L 212.500 350.000 193.750 350.000 L 175.000 350.000 175.000 356.250 M225.000 356.250 L 225.000 362.500 243.750 362.500 L 262.500 362.500 262.500 356.250 L 262.500 350.000 243.750 350.000 L 225.000 350.000 225.000 356.250 " stroke="none" fill="#b4b4b4" fill-rule="evenodd"></path><path id="path1" d="M175.000 368.750 L 175.000 375.000 193.750 375.000 L 212.500 375.000 212.500 368.750 L 212.500 362.500 193.750 362.500 L 175.000 362.500 175.000 368.750 M225.000 368.750 L 225.000 375.000 243.750 375.000 L 262.500 375.000 262.500 368.750 L 262.500 362.500 243.750 362.500 L 225.000 362.500 225.000 368.750 " stroke="none" fill="#fcfcfc" fill-rule="evenodd"></path><path id="path2" d="M212.500 293.750 L 212.500 300.000 218.750 300.000 L 225.000 300.000 225.000 293.750 L 225.000 287.500 218.750 287.500 L 212.500 287.500 212.500 293.750 M162.500 306.250 L 162.500 312.500 168.750 312.500 L 175.000 312.500 175.000 318.750 L 175.000 325.000 168.750 325.000 L 162.500 325.000 162.500 331.250 L 162.500 337.500 168.750 337.500 L 175.000 337.500 175.000 331.250 L 175.000 325.000 181.250 325.000 L 187.500 325.000 187.500 318.750 L 187.500 312.500 181.250 312.500 L 175.000 312.500 175.000 306.250 L 175.000 300.000 168.750 300.000 L 162.500 300.000 162.500 306.250 M162.500 368.750 L 162.500 387.500 218.750 387.500 L 275.000 387.500 275.000 368.750 L 275.000 350.000 268.750 350.000 L 262.500 350.000 262.500 362.500 L 262.500 375.000 243.750 375.000 L 225.000 375.000 225.000 362.500 L 225.000 350.000 218.750 350.000 L 212.500 350.000 212.500 362.500 L 212.500 375.000 193.750 375.000 L 175.000 375.000 175.000 362.500 L 175.000 350.000 168.750 350.000 L 162.500 350.000 162.500 368.750 " stroke="none" fill="#444444" fill-rule="evenodd"></path><path id="path3" d="M212.500 325.000 L 212.500 337.500 218.750 337.500 L 225.000 337.500 225.000 325.000 L 225.000 312.500 218.750 312.500 L 212.500 312.500 212.500 325.000 " stroke="none" fill="#04b4ec" fill-rule="evenodd"></path><path id="path4" d="M162.500 293.750 L 162.500 300.000 175.000 300.000 L 187.500 300.000 187.500 293.750 L 187.500 287.500 175.000 287.500 L 162.500 287.500 162.500 293.750 " stroke="none" fill="#ace41c" fill-rule="evenodd"></path></g></svg>