<svg id="svg" version="1.1" xmlns="http://www.w3.org/2000/svg" xmlns:xlink="http://www.w3.org/1999/xlink" width="400" height="400" viewBox="0, 0, 400,400"><g id="svgg"><path id="path0" d="M175.000 306.250 L 175.000 312.500 187.500 312.500 L 200.000 312.500 200.000 306.250 L 200.000 300.000 187.500 300.000 L 175.000 300.000 175.000 306.250 " stroke="none" fill="#a4e01d" fill-rule="evenodd"></path><path id="path1" d="M162.500 331.250 L 162.500 387.500 218.750 387.500 L 275.000 387.500 275.000 331.250 L 275.000 275.000 218.750 275.000 L 162.500 275.000 162.500 331.250 M262.500 300.000 L 262.500 312.500 250.000 312.500 L 237.500 312.500 237.500 300.000 L 237.500 287.500 250.000 287.500 L 262.500 287.500 262.500 300.000 M225.000 306.250 L 225.000 312.500 200.000 312.500 L 175.000 312.500 175.000 306.250 L 175.000 300.000 200.000 300.000 L 225.000 300.000 225.000 306.250 M200.000 337.500 L 200.000 350.000 206.250 350.000 L 212.500 350.000 212.500 356.250 L 212.500 362.500 206.250 362.500 L 200.000 362.500 200.000 368.750 L 200.000 375.000 193.750 375.000 L 187.500 375.000 187.500 368.750 L 187.500 362.500 181.250 362.500 L 175.000 362.500 175.000 356.250 L 175.000 350.000 181.250 350.000 L 187.500 350.000 187.500 337.500 L 187.500 325.000 193.750 325.000 L 200.000 325.000 200.000 337.500 M262.500 331.250 L 262.500 337.500 256.250 337.500 L 250.000 337.500 250.000 356.250 L 250.000 375.000 243.750 375.000 L 237.500 375.000 237.500 356.250 L 237.500 337.500 231.250 337.500 L 225.000 337.500 225.000 331.250 L 225.000 325.000 243.750 325.000 L 262.500 325.000 262.500 331.250 " stroke="none" fill="#2b2a2b" fill-rule="evenodd"></path><path id="path2" d="M212.500 306.250 L 212.500 312.500 218.750 312.500 L 225.000 312.500 225.000 306.250 L 225.000 300.000 218.750 300.000 L 212.500 300.000 212.500 306.250 M187.500 337.500 L 187.500 350.000 193.750 350.000 L 200.000 350.000 200.000 337.500 L 200.000 325.000 193.750 325.000 L 187.500 325.000 187.500 337.500 M237.500 356.250 L 237.500 375.000 243.750 375.000 L 250.000 375.000 250.000 356.250 L 250.000 337.500 243.750 337.500 L 237.500 337.500 237.500 356.250 M187.500 368.750 L 187.500 375.000 193.750 375.000 L 200.000 375.000 200.000 368.750 L 200.000 362.500 193.750 362.500 L 187.500 362.500 187.500 368.750 " stroke="none" fill="#000000" fill-rule="evenodd"></path><path id="path3" d="M200.000 306.250 L 200.000 312.500 206.250 312.500 L 212.500 312.500 212.500 306.250 L 212.500 300.000 206.250 300.000 L 200.000 300.000 200.000 306.250 " stroke="none" fill="#ff0000" fill-rule="evenodd"></path><path id="path4" d="M225.000 331.250 L 225.000 337.500 243.750 337.500 L 262.500 337.500 262.500 331.250 L 262.500 325.000 243.750 325.000 L 225.000 325.000 225.000 331.250 M175.000 356.250 L 175.000 362.500 193.750 362.500 L 212.500 362.500 212.500 356.250 L 212.500 350.000 193.750 350.000 L 175.000 350.000 175.000 356.250 " stroke="none" fill="#aeaeae" fill-rule="evenodd"></path><path id="path5" d="M237.500 300.000 L 237.500 312.500 250.000 312.500 L 262.500 312.500 262.500 300.000 L 262.500 287.500 250.000 287.500 L 237.500 287.500 237.500 300.000 " stroke="none" fill="#464646" fill-rule="evenodd"></path><path id="path6" d="" stroke="none" fill="#182074" fill-rule="evenodd"></path><path id="path7" d="" stroke="none" fill="#18382c" fill-rule="evenodd"></path><path id="path8" d="" stroke="none" fill="#30182c" fill-rule="evenodd"></path></g></svg>