<svg id="svg" version="1.1" xmlns="http://www.w3.org/2000/svg" xmlns:xlink="http://www.w3.org/1999/xlink" width="400" height="400" viewBox="0, 0, 400,400"><g id="svgg"><path id="path0" d="M200.000 300.000 L 200.000 312.500 187.500 312.500 L 175.000 312.500 175.000 318.750 L 175.000 325.000 218.750 325.000 L 262.500 325.000 262.500 306.250 L 262.500 287.500 231.250 287.500 L 200.000 287.500 200.000 300.000 M250.000 306.250 L 250.000 312.500 243.750 312.500 L 237.500 312.500 237.500 306.250 L 237.500 300.000 243.750 300.000 L 250.000 300.000 250.000 306.250 " stroke="none" fill="#b8b8a9" fill-rule="evenodd"></path><path id="path1" d="M162.500 356.250 L 162.500 375.000 168.750 375.000 L 175.000 375.000 175.000 381.250 L 175.000 387.500 181.250 387.500 L 187.500 387.500 187.500 381.250 L 187.500 375.000 181.250 375.000 L 175.000 375.000 175.000 356.250 L 175.000 337.500 168.750 337.500 L 162.500 337.500 162.500 356.250 M262.500 356.250 L 262.500 375.000 256.250 375.000 L 250.000 375.000 250.000 381.250 L 250.000 387.500 256.250 387.500 L 262.500 387.500 262.500 381.250 L 262.500 375.000 268.750 375.000 L 275.000 375.000 275.000 356.250 L 275.000 337.500 268.750 337.500 L 262.500 337.500 262.500 356.250 " stroke="none" fill="#fc0404" fill-rule="evenodd"></path><path id="path2" d="M175.000 300.000 L 175.000 312.500 187.500 312.500 L 200.000 312.500 200.000 300.000 L 200.000 287.500 187.500 287.500 L 175.000 287.500 175.000 300.000 " stroke="none" fill="#9c5c3c" fill-rule="evenodd"></path><path id="path3" d="M237.500 306.250 L 237.500 312.500 243.750 312.500 L 250.000 312.500 250.000 306.250 L 250.000 300.000 243.750 300.000 L 237.500 300.000 237.500 306.250 " stroke="none" fill="#34ac84" fill-rule="evenodd"></path><path id="path4" d="M162.500 306.250 L 162.500 337.500 218.750 337.500 L 275.000 337.500 275.000 306.250 L 275.000 275.000 218.750 275.000 L 162.500 275.000 162.500 306.250 M262.500 306.250 L 262.500 325.000 218.750 325.000 L 175.000 325.000 175.000 306.250 L 175.000 287.500 218.750 287.500 L 262.500 287.500 262.500 306.250 M187.500 381.250 L 187.500 400.000 218.750 400.000 L 250.000 400.000 250.000 381.250 L 250.000 362.500 218.750 362.500 L 187.500 362.500 187.500 381.250 " stroke="none" fill="#444444" fill-rule="evenodd"></path></g></svg>