<svg id="svg" version="1.1" xmlns="http://www.w3.org/2000/svg" xmlns:xlink="http://www.w3.org/1999/xlink" width="400" height="400" viewBox="0, 0, 400,400"><g id="svgg"><path id="path0" d="M175.000 293.750 L 175.000 300.000 218.750 300.000 L 262.500 300.000 262.500 293.750 L 262.500 287.500 218.750 287.500 L 175.000 287.500 175.000 293.750 M175.000 331.250 L 175.000 337.500 218.750 337.500 L 262.500 337.500 262.500 331.250 L 262.500 325.000 218.750 325.000 L 175.000 325.000 175.000 331.250 M175.000 368.750 L 175.000 375.000 218.750 375.000 L 262.500 375.000 262.500 368.750 L 262.500 362.500 218.750 362.500 L 175.000 362.500 175.000 368.750 " stroke="none" fill="#b4b4b4" fill-rule="evenodd"></path><path id="path1" d="M175.000 306.250 L 175.000 312.500 218.750 312.500 L 262.500 312.500 262.500 306.250 L 262.500 300.000 218.750 300.000 L 175.000 300.000 175.000 306.250 M175.000 343.750 L 175.000 350.000 218.750 350.000 L 262.500 350.000 262.500 343.750 L 262.500 337.500 218.750 337.500 L 175.000 337.500 175.000 343.750 M175.000 381.250 L 175.000 387.500 218.750 387.500 L 262.500 387.500 262.500 381.250 L 262.500 375.000 218.750 375.000 L 175.000 375.000 175.000 381.250 " stroke="none" fill="#fcfcfc" fill-rule="evenodd"></path><path id="path2" d="M162.500 337.500 L 162.500 400.000 218.750 400.000 L 275.000 400.000 275.000 337.500 L 275.000 275.000 218.750 275.000 L 162.500 275.000 162.500 337.500 M262.500 300.000 L 262.500 312.500 218.750 312.500 L 175.000 312.500 175.000 300.000 L 175.000 287.500 218.750 287.500 L 262.500 287.500 262.500 300.000 M262.500 337.500 L 262.500 350.000 218.750 350.000 L 175.000 350.000 175.000 337.500 L 175.000 325.000 218.750 325.000 L 262.500 325.000 262.500 337.500 M262.500 375.000 L 262.500 387.500 218.750 387.500 L 175.000 387.500 175.000 375.000 L 175.000 362.500 218.750 362.500 L 262.500 362.500 262.500 375.000 " stroke="none" fill="#040404" fill-rule="evenodd"></path><path id="path3" d="" stroke="none" fill="#408480" fill-rule="evenodd"></path><path id="path4" d="" stroke="none" fill="#400484" fill-rule="evenodd"></path></g></svg>