<svg id="svg" version="1.1" xmlns="http://www.w3.org/2000/svg" xmlns:xlink="http://www.w3.org/1999/xlink" width="400" height="400" viewBox="0, 0, 400,400"><g id="svgg"><path id="path0" d="M162.500 287.500 L 162.500 300.000 175.000 300.000 L 187.500 300.000 187.500 293.750 L 187.500 287.500 181.250 287.500 L 175.000 287.500 175.000 281.250 L 175.000 275.000 168.750 275.000 L 162.500 275.000 162.500 287.500 M262.500 281.250 L 262.500 287.500 256.250 287.500 L 250.000 287.500 250.000 293.750 L 250.000 300.000 262.500 300.000 L 275.000 300.000 275.000 287.500 L 275.000 275.000 268.750 275.000 L 262.500 275.000 262.500 281.250 M112.500 331.250 L 112.500 337.500 118.750 337.500 L 125.000 337.500 125.000 331.250 L 125.000 325.000 118.750 325.000 L 112.500 325.000 112.500 331.250 M175.000 331.250 L 175.000 337.500 218.750 337.500 L 262.500 337.500 262.500 331.250 L 262.500 325.000 218.750 325.000 L 175.000 325.000 175.000 331.250 M175.000 356.250 L 175.000 362.500 218.750 362.500 L 262.500 362.500 262.500 356.250 L 262.500 350.000 218.750 350.000 L 175.000 350.000 175.000 356.250 M112.500 381.250 L 112.500 387.500 118.750 387.500 L 125.000 387.500 125.000 381.250 L 125.000 375.000 118.750 375.000 L 112.500 375.000 112.500 381.250 M175.000 381.250 L 175.000 387.500 218.750 387.500 L 262.500 387.500 262.500 381.250 L 262.500 375.000 218.750 375.000 L 175.000 375.000 175.000 381.250 " stroke="none" fill="#444444" fill-rule="evenodd"></path><path id="path1" d="" stroke="none" fill="#484444" fill-rule="evenodd"></path><path id="path2" d="" stroke="none" fill="#484444" fill-rule="evenodd"></path><path id="path3" d="" stroke="none" fill="#484444" fill-rule="evenodd"></path><path id="path4" d="" stroke="none" fill="#484444" fill-rule="evenodd"></path></g></svg>