<svg id="svg" version="1.1" xmlns="http://www.w3.org/2000/svg" xmlns:xlink="http://www.w3.org/1999/xlink" width="400" height="400" viewBox="0, 0, 400,400"><g id="svgg"><path id="path0" d="M137.500 287.500 L 137.500 312.500 143.750 312.500 L 150.000 312.500 150.000 287.500 L 150.000 262.500 143.750 262.500 L 137.500 262.500 137.500 287.500 M187.500 287.500 L 187.500 300.000 175.000 300.000 L 162.500 300.000 162.500 306.250 L 162.500 312.500 181.250 312.500 L 200.000 312.500 200.000 293.750 L 200.000 275.000 193.750 275.000 L 187.500 275.000 187.500 287.500 M237.500 293.750 L 237.500 312.500 256.250 312.500 L 275.000 312.500 275.000 306.250 L 275.000 300.000 262.500 300.000 L 250.000 300.000 250.000 287.500 L 250.000 275.000 243.750 275.000 L 237.500 275.000 237.500 293.750 M200.000 343.750 L 200.000 362.500 218.750 362.500 L 237.500 362.500 237.500 343.750 L 237.500 325.000 231.250 325.000 L 225.000 325.000 225.000 337.500 L 225.000 350.000 218.750 350.000 L 212.500 350.000 212.500 337.500 L 212.500 325.000 206.250 325.000 L 200.000 325.000 200.000 343.750 M150.000 343.750 L 150.000 350.000 156.250 350.000 L 162.500 350.000 162.500 356.250 L 162.500 362.500 168.750 362.500 L 175.000 362.500 175.000 368.750 L 175.000 375.000 181.250 375.000 L 187.500 375.000 187.500 368.750 L 187.500 362.500 181.250 362.500 L 175.000 362.500 175.000 356.250 L 175.000 350.000 168.750 350.000 L 162.500 350.000 162.500 343.750 L 162.500 337.500 156.250 337.500 L 150.000 337.500 150.000 343.750 M275.000 343.750 L 275.000 350.000 268.750 350.000 L 262.500 350.000 262.500 356.250 L 262.500 362.500 256.250 362.500 L 250.000 362.500 250.000 368.750 L 250.000 375.000 256.250 375.000 L 262.500 375.000 262.500 368.750 L 262.500 362.500 268.750 362.500 L 275.000 362.500 275.000 356.250 L 275.000 350.000 281.250 350.000 L 287.500 350.000 287.500 343.750 L 287.500 337.500 281.250 337.500 L 275.000 337.500 275.000 343.750 M200.000 381.250 L 200.000 387.500 218.750 387.500 L 237.500 387.500 237.500 381.250 L 237.500 375.000 218.750 375.000 L 200.000 375.000 200.000 381.250 " stroke="none" fill="#444444" fill-rule="evenodd"></path><path id="path1" d="M212.500 287.500 L 212.500 300.000 218.750 300.000 L 225.000 300.000 225.000 287.500 L 225.000 275.000 218.750 275.000 L 212.500 275.000 212.500 287.500 " stroke="none" fill="#2cfc24" fill-rule="evenodd"></path><path id="path2" d="M200.000 293.750 L 200.000 312.500 218.750 312.500 L 237.500 312.500 237.500 293.750 L 237.500 275.000 231.250 275.000 L 225.000 275.000 225.000 287.500 L 225.000 300.000 218.750 300.000 L 212.500 300.000 212.500 287.500 L 212.500 275.000 206.250 275.000 L 200.000 275.000 200.000 293.750 M112.500 343.750 L 112.500 350.000 125.000 350.000 L 137.500 350.000 137.500 343.750 L 137.500 337.500 125.000 337.500 L 112.500 337.500 112.500 343.750 " stroke="none" fill="#040404" fill-rule="evenodd"></path><path id="path3" d="" stroke="none" fill="#282024" fill-rule="evenodd"></path><path id="path4" d="" stroke="none" fill="#247424" fill-rule="evenodd"></path></g></svg>