<svg id="svg" version="1.1" xmlns="http://www.w3.org/2000/svg" xmlns:xlink="http://www.w3.org/1999/xlink" width="400" height="400" viewBox="0, 0, 400,400"><g id="svgg"><path id="path0" d="M175.000 268.750 L 175.000 275.000 168.750 275.000 L 162.500 275.000 162.500 281.250 L 162.500 287.500 156.250 287.500 L 150.000 287.500 150.000 293.750 L 150.000 300.000 143.750 300.000 L 137.500 300.000 137.500 306.250 L 137.500 312.500 143.750 312.500 L 150.000 312.500 150.000 306.250 L 150.000 300.000 156.250 300.000 L 162.500 300.000 162.500 293.750 L 162.500 287.500 168.750 287.500 L 175.000 287.500 175.000 281.250 L 175.000 275.000 181.250 275.000 L 187.500 275.000 187.500 268.750 L 187.500 262.500 181.250 262.500 L 175.000 262.500 175.000 268.750 M237.500 268.750 L 237.500 275.000 243.750 275.000 L 250.000 275.000 250.000 281.250 L 250.000 287.500 256.250 287.500 L 262.500 287.500 262.500 293.750 L 262.500 300.000 268.750 300.000 L 275.000 300.000 275.000 306.250 L 275.000 312.500 281.250 312.500 L 287.500 312.500 287.500 306.250 L 287.500 300.000 281.250 300.000 L 275.000 300.000 275.000 293.750 L 275.000 287.500 268.750 287.500 L 262.500 287.500 262.500 281.250 L 262.500 275.000 256.250 275.000 L 250.000 275.000 250.000 268.750 L 250.000 262.500 243.750 262.500 L 237.500 262.500 237.500 268.750 M112.500 356.250 L 112.500 362.500 125.000 362.500 L 137.500 362.500 137.500 356.250 L 137.500 350.000 125.000 350.000 L 112.500 350.000 112.500 356.250 M150.000 381.250 L 150.000 387.500 218.750 387.500 L 287.500 387.500 287.500 381.250 L 287.500 375.000 218.750 375.000 L 150.000 375.000 150.000 381.250 " stroke="none" fill="#444444" fill-rule="evenodd"></path><path id="path1" d="" stroke="none" fill="#484444" fill-rule="evenodd"></path><path id="path2" d="" stroke="none" fill="#484444" fill-rule="evenodd"></path><path id="path3" d="" stroke="none" fill="#484444" fill-rule="evenodd"></path><path id="path4" d="" stroke="none" fill="#484444" fill-rule="evenodd"></path></g></svg>