<svg id="svg" version="1.1" xmlns="http://www.w3.org/2000/svg" xmlns:xlink="http://www.w3.org/1999/xlink" width="400" height="400" viewBox="0, 0, 400,400"><g id="svgg"><path id="path0" d="M200.000 331.250 L 200.000 350.000 218.750 350.000 L 237.500 350.000 237.500 331.250 L 237.500 312.500 218.750 312.500 L 200.000 312.500 200.000 331.250 " stroke="none" fill="#ff0000" fill-rule="evenodd"></path><path id="path1" d="M112.500 268.750 L 112.500 275.000 118.750 275.000 L 125.000 275.000 125.000 268.750 L 125.000 262.500 118.750 262.500 L 112.500 262.500 112.500 268.750 M200.000 281.250 L 200.000 287.500 187.500 287.500 L 175.000 287.500 175.000 300.000 L 175.000 312.500 168.750 312.500 L 162.500 312.500 162.500 331.250 L 162.500 350.000 168.750 350.000 L 175.000 350.000 175.000 362.500 L 175.000 375.000 187.500 375.000 L 200.000 375.000 200.000 381.250 L 200.000 387.500 218.750 387.500 L 237.500 387.500 237.500 381.250 L 237.500 375.000 250.000 375.000 L 262.500 375.000 262.500 362.500 L 262.500 350.000 268.750 350.000 L 275.000 350.000 275.000 331.250 L 275.000 312.500 268.750 312.500 L 262.500 312.500 262.500 300.000 L 262.500 287.500 250.000 287.500 L 237.500 287.500 237.500 281.250 L 237.500 275.000 218.750 275.000 L 200.000 275.000 200.000 281.250 M237.500 331.250 L 237.500 350.000 218.750 350.000 L 200.000 350.000 200.000 331.250 L 200.000 312.500 218.750 312.500 L 237.500 312.500 237.500 331.250 M112.500 343.750 L 112.500 350.000 118.750 350.000 L 125.000 350.000 125.000 343.750 L 125.000 337.500 118.750 337.500 L 112.500 337.500 112.500 343.750 " stroke="none" fill="#040404" fill-rule="evenodd"></path><path id="path2" d="" stroke="none" fill="#1000404" fill-rule="evenodd"></path><path id="path3" d="" stroke="none" fill="#440404" fill-rule="evenodd"></path><path id="path4" d="" stroke="none" fill="#080404" fill-rule="evenodd"></path></g></svg>