<svg id="svg" version="1.1" xmlns="http://www.w3.org/2000/svg" xmlns:xlink="http://www.w3.org/1999/xlink" width="400" height="400" viewBox="0, 0, 400,400"><g id="svgg"><path id="path0" d="M187.500 293.750 L 187.500 300.000 218.750 300.000 L 250.000 300.000 250.000 293.750 L 250.000 287.500 218.750 287.500 L 187.500 287.500 187.500 293.750 " stroke="none" fill="#b4b4b4" fill-rule="evenodd"></path><path id="path1" d="M187.500 281.250 L 187.500 287.500 181.250 287.500 L 175.000 287.500 175.000 293.750 L 175.000 300.000 181.250 300.000 L 187.500 300.000 187.500 306.250 L 187.500 312.500 218.750 312.500 L 250.000 312.500 250.000 306.250 L 250.000 300.000 256.250 300.000 L 262.500 300.000 262.500 293.750 L 262.500 287.500 256.250 287.500 L 250.000 287.500 250.000 281.250 L 250.000 275.000 218.750 275.000 L 187.500 275.000 187.500 281.250 M250.000 293.750 L 250.000 300.000 218.750 300.000 L 187.500 300.000 187.500 293.750 L 187.500 287.500 218.750 287.500 L 250.000 287.500 250.000 293.750 M137.500 306.250 L 137.500 312.500 143.750 312.500 L 150.000 312.500 150.000 306.250 L 150.000 300.000 143.750 300.000 L 137.500 300.000 137.500 306.250 M112.500 331.250 L 112.500 337.500 125.000 337.500 L 137.500 337.500 137.500 331.250 L 137.500 325.000 125.000 325.000 L 112.500 325.000 112.500 331.250 M162.500 331.250 L 162.500 337.500 181.250 337.500 L 200.000 337.500 200.000 331.250 L 200.000 325.000 181.250 325.000 L 162.500 325.000 162.500 331.250 M237.500 331.250 L 237.500 337.500 256.250 337.500 L 275.000 337.500 275.000 331.250 L 275.000 325.000 256.250 325.000 L 237.500 325.000 237.500 331.250 M112.500 356.250 L 112.500 362.500 125.000 362.500 L 137.500 362.500 137.500 356.250 L 137.500 350.000 125.000 350.000 L 112.500 350.000 112.500 356.250 M162.500 356.250 L 162.500 362.500 181.250 362.500 L 200.000 362.500 200.000 356.250 L 200.000 350.000 181.250 350.000 L 162.500 350.000 162.500 356.250 M237.500 356.250 L 237.500 362.500 256.250 362.500 L 275.000 362.500 275.000 356.250 L 275.000 350.000 256.250 350.000 L 237.500 350.000 237.500 356.250 M112.500 381.250 L 112.500 387.500 125.000 387.500 L 137.500 387.500 137.500 381.250 L 137.500 375.000 125.000 375.000 L 112.500 375.000 112.500 381.250 M162.500 381.250 L 162.500 387.500 181.250 387.500 L 200.000 387.500 200.000 381.250 L 200.000 375.000 181.250 375.000 L 162.500 375.000 162.500 381.250 M237.500 381.250 L 237.500 387.500 256.250 387.500 L 275.000 387.500 275.000 381.250 L 275.000 375.000 256.250 375.000 L 237.500 375.000 237.500 381.250 " stroke="none" fill="#444444" fill-rule="evenodd"></path><path id="path2" d="" stroke="none" fill="#9cb87c" fill-rule="evenodd"></path><path id="path3" d="" stroke="none" fill="#60807c" fill-rule="evenodd"></path><path id="path4" d="" stroke="none" fill="#604480" fill-rule="evenodd"></path></g></svg>