<svg id="svg" version="1.1" xmlns="http://www.w3.org/2000/svg" xmlns:xlink="http://www.w3.org/1999/xlink" width="400" height="400" viewBox="0, 0, 400,400"><g id="svgg"><path id="path0" d="M175.000 331.250 L 175.000 375.000 218.750 375.000 L 262.500 375.000 262.500 331.250 L 262.500 287.500 218.750 287.500 L 175.000 287.500 175.000 331.250 M250.000 331.250 L 250.000 362.500 218.750 362.500 L 187.500 362.500 187.500 331.250 L 187.500 300.000 218.750 300.000 L 250.000 300.000 250.000 331.250 " stroke="none" fill="#b4b4b4" fill-rule="evenodd"></path><path id="path1" d="M187.500 331.250 L 187.500 362.500 218.750 362.500 L 250.000 362.500 250.000 331.250 L 250.000 300.000 218.750 300.000 L 187.500 300.000 187.500 331.250 M237.500 318.750 L 237.500 325.000 218.750 325.000 L 200.000 325.000 200.000 318.750 L 200.000 312.500 218.750 312.500 L 237.500 312.500 237.500 318.750 M237.500 343.750 L 237.500 350.000 218.750 350.000 L 200.000 350.000 200.000 343.750 L 200.000 337.500 218.750 337.500 L 237.500 337.500 237.500 343.750 " stroke="none" fill="#040404" fill-rule="evenodd"></path><path id="path2" d="M200.000 343.750 L 200.000 350.000 218.750 350.000 L 237.500 350.000 237.500 343.750 L 237.500 337.500 218.750 337.500 L 200.000 337.500 200.000 343.750 " stroke="none" fill="#0404fc" fill-rule="evenodd"></path><path id="path3" d="M200.000 318.750 L 200.000 325.000 218.750 325.000 L 237.500 325.000 237.500 318.750 L 237.500 312.500 218.750 312.500 L 200.000 312.500 200.000 318.750 " stroke="none" fill="#fcf404" fill-rule="evenodd"></path><path id="path4" d="M162.500 331.250 L 162.500 387.500 218.750 387.500 L 275.000 387.500 275.000 331.250 L 275.000 275.000 218.750 275.000 L 162.500 275.000 162.500 331.250 M262.500 331.250 L 262.500 375.000 218.750 375.000 L 175.000 375.000 175.000 331.250 L 175.000 287.500 218.750 287.500 L 262.500 287.500 262.500 331.250 " stroke="none" fill="#444444" fill-rule="evenodd"></path></g></svg>