<svg id="svg" version="1.1" xmlns="http://www.w3.org/2000/svg" xmlns:xlink="http://www.w3.org/1999/xlink" width="400" height="400" viewBox="0, 0, 400,400"><g id="svgg"><path id="path0" d="M112.500 268.750 L 112.500 275.000 137.500 275.000 L 162.500 275.000 162.500 268.750 L 162.500 262.500 137.500 262.500 L 112.500 262.500 112.500 268.750 M250.000 268.750 L 250.000 275.000 268.750 275.000 L 287.500 275.000 287.500 268.750 L 287.500 262.500 268.750 262.500 L 250.000 262.500 250.000 268.750 M187.500 293.750 L 187.500 300.000 181.250 300.000 L 175.000 300.000 175.000 306.250 L 175.000 312.500 181.250 312.500 L 187.500 312.500 187.500 318.750 L 187.500 325.000 193.750 325.000 L 200.000 325.000 200.000 343.750 L 200.000 362.500 193.750 362.500 L 187.500 362.500 187.500 381.250 L 187.500 400.000 193.750 400.000 L 200.000 400.000 200.000 381.250 L 200.000 362.500 206.250 362.500 L 212.500 362.500 212.500 343.750 L 212.500 325.000 218.750 325.000 L 225.000 325.000 225.000 343.750 L 225.000 362.500 231.250 362.500 L 237.500 362.500 237.500 381.250 L 237.500 400.000 243.750 400.000 L 250.000 400.000 250.000 381.250 L 250.000 362.500 243.750 362.500 L 237.500 362.500 237.500 343.750 L 237.500 325.000 243.750 325.000 L 250.000 325.000 250.000 318.750 L 250.000 312.500 256.250 312.500 L 262.500 312.500 262.500 306.250 L 262.500 300.000 256.250 300.000 L 250.000 300.000 250.000 293.750 L 250.000 287.500 243.750 287.500 L 237.500 287.500 237.500 293.750 L 237.500 300.000 231.250 300.000 L 225.000 300.000 225.000 306.250 L 225.000 312.500 218.750 312.500 L 212.500 312.500 212.500 306.250 L 212.500 300.000 206.250 300.000 L 200.000 300.000 200.000 293.750 L 200.000 287.500 193.750 287.500 L 187.500 287.500 187.500 293.750 M112.500 318.750 L 112.500 337.500 118.750 337.500 L 125.000 337.500 125.000 318.750 L 125.000 300.000 118.750 300.000 L 112.500 300.000 112.500 318.750 M200.000 306.250 L 200.000 312.500 206.250 312.500 L 212.500 312.500 212.500 318.750 L 212.500 325.000 206.250 325.000 L 200.000 325.000 200.000 318.750 L 200.000 312.500 193.750 312.500 L 187.500 312.500 187.500 306.250 L 187.500 300.000 193.750 300.000 L 200.000 300.000 200.000 306.250 M250.000 306.250 L 250.000 312.500 243.750 312.500 L 237.500 312.500 237.500 318.750 L 237.500 325.000 231.250 325.000 L 225.000 325.000 225.000 318.750 L 225.000 312.500 231.250 312.500 L 237.500 312.500 237.500 306.250 L 237.500 300.000 243.750 300.000 L 250.000 300.000 250.000 306.250 " stroke="none" fill="#444444" fill-rule="evenodd"></path><path id="path1" d="M150.000 362.500 L 150.000 400.000 156.250 400.000 L 162.500 400.000 162.500 362.500 L 162.500 325.000 156.250 325.000 L 150.000 325.000 150.000 362.500 M275.000 362.500 L 275.000 400.000 281.250 400.000 L 287.500 400.000 287.500 362.500 L 287.500 325.000 281.250 325.000 L 275.000 325.000 275.000 362.500 " stroke="none" fill="#040404" fill-rule="evenodd"></path><path id="path2" d="" stroke="none" fill="#344824" fill-rule="evenodd"></path><path id="path3" d="" stroke="none" fill="#344824" fill-rule="evenodd"></path><path id="path4" d="" stroke="none" fill="#344824" fill-rule="evenodd"></path></g></svg>