<svg id="svg" version="1.1" xmlns="http://www.w3.org/2000/svg" xmlns:xlink="http://www.w3.org/1999/xlink" width="400" height="400" viewBox="0, 0, 400,400"><g id="svgg"><path id="path0" d="M212.500 343.750 L 212.500 350.000 218.750 350.000 L 225.000 350.000 225.000 343.750 L 225.000 337.500 218.750 337.500 L 212.500 337.500 212.500 343.750 " stroke="none" fill="#fcfc04" fill-rule="evenodd"></path><path id="path1" d="M212.500 318.750 L 212.500 325.000 218.750 325.000 L 225.000 325.000 225.000 318.750 L 225.000 312.500 218.750 312.500 L 212.500 312.500 212.500 318.750 " stroke="none" fill="#fc0404" fill-rule="evenodd"></path><path id="path2" d="M212.500 331.250 L 212.500 337.500 218.750 337.500 L 225.000 337.500 225.000 331.250 L 225.000 325.000 218.750 325.000 L 212.500 325.000 212.500 331.250 " stroke="none" fill="#0404fc" fill-rule="evenodd"></path><path id="path3" d="M175.000 306.250 L 175.000 312.500 168.750 312.500 L 162.500 312.500 162.500 318.750 L 162.500 325.000 168.750 325.000 L 175.000 325.000 175.000 331.250 L 175.000 337.500 168.750 337.500 L 162.500 337.500 162.500 343.750 L 162.500 350.000 168.750 350.000 L 175.000 350.000 175.000 356.250 L 175.000 362.500 181.250 362.500 L 187.500 362.500 187.500 356.250 L 187.500 350.000 181.250 350.000 L 175.000 350.000 175.000 343.750 L 175.000 337.500 181.250 337.500 L 187.500 337.500 187.500 331.250 L 187.500 325.000 181.250 325.000 L 175.000 325.000 175.000 318.750 L 175.000 312.500 181.250 312.500 L 187.500 312.500 187.500 306.250 L 187.500 300.000 181.250 300.000 L 175.000 300.000 175.000 306.250 M200.000 331.250 L 200.000 362.500 218.750 362.500 L 237.500 362.500 237.500 331.250 L 237.500 300.000 218.750 300.000 L 200.000 300.000 200.000 331.250 M250.000 306.250 L 250.000 312.500 256.250 312.500 L 262.500 312.500 262.500 318.750 L 262.500 325.000 256.250 325.000 L 250.000 325.000 250.000 331.250 L 250.000 337.500 256.250 337.500 L 262.500 337.500 262.500 343.750 L 262.500 350.000 256.250 350.000 L 250.000 350.000 250.000 356.250 L 250.000 362.500 256.250 362.500 L 262.500 362.500 262.500 356.250 L 262.500 350.000 268.750 350.000 L 275.000 350.000 275.000 343.750 L 275.000 337.500 268.750 337.500 L 262.500 337.500 262.500 331.250 L 262.500 325.000 268.750 325.000 L 275.000 325.000 275.000 318.750 L 275.000 312.500 268.750 312.500 L 262.500 312.500 262.500 306.250 L 262.500 300.000 256.250 300.000 L 250.000 300.000 250.000 306.250 M225.000 331.250 L 225.000 350.000 218.750 350.000 L 212.500 350.000 212.500 331.250 L 212.500 312.500 218.750 312.500 L 225.000 312.500 225.000 331.250 M112.500 356.250 L 112.500 362.500 125.000 362.500 L 137.500 362.500 137.500 356.250 L 137.500 350.000 125.000 350.000 L 112.500 350.000 112.500 356.250 " stroke="none" fill="#444444" fill-rule="evenodd"></path><path id="path4" d="" stroke="none" fill="#50a0a4" fill-rule="evenodd"></path></g></svg>