<svg id="svg" version="1.1" xmlns="http://www.w3.org/2000/svg" xmlns:xlink="http://www.w3.org/1999/xlink" width="400" height="400" viewBox="0, 0, 400,400"><g id="svgg"><path id="path0" d="M175.000 306.250 L 175.000 312.500 193.750 312.500 L 212.500 312.500 212.500 306.250 L 212.500 300.000 193.750 300.000 L 175.000 300.000 175.000 306.250 M225.000 306.250 L 225.000 312.500 243.750 312.500 L 262.500 312.500 262.500 306.250 L 262.500 300.000 243.750 300.000 L 225.000 300.000 225.000 306.250 M187.500 343.750 L 187.500 350.000 200.000 350.000 L 212.500 350.000 212.500 343.750 L 212.500 337.500 200.000 337.500 L 187.500 337.500 187.500 343.750 M225.000 343.750 L 225.000 350.000 237.500 350.000 L 250.000 350.000 250.000 343.750 L 250.000 337.500 237.500 337.500 L 225.000 337.500 225.000 343.750 " stroke="none" fill="#b4b4b4" fill-rule="evenodd"></path><path id="path1" d="M187.500 287.500 L 187.500 300.000 193.750 300.000 L 200.000 300.000 200.000 287.500 L 200.000 275.000 193.750 275.000 L 187.500 275.000 187.500 287.500 M237.500 287.500 L 237.500 300.000 243.750 300.000 L 250.000 300.000 250.000 287.500 L 250.000 275.000 243.750 275.000 L 237.500 275.000 237.500 287.500 M162.500 350.000 L 162.500 387.500 218.750 387.500 L 275.000 387.500 275.000 350.000 L 275.000 312.500 218.750 312.500 L 162.500 312.500 162.500 350.000 M262.500 350.000 L 262.500 375.000 218.750 375.000 L 175.000 375.000 175.000 350.000 L 175.000 325.000 218.750 325.000 L 262.500 325.000 262.500 350.000 " stroke="none" fill="#747474" fill-rule="evenodd"></path><path id="path2" d="M175.000 356.250 L 175.000 375.000 218.750 375.000 L 262.500 375.000 262.500 356.250 L 262.500 337.500 256.250 337.500 L 250.000 337.500 250.000 350.000 L 250.000 362.500 237.500 362.500 L 225.000 362.500 225.000 350.000 L 225.000 337.500 218.750 337.500 L 212.500 337.500 212.500 350.000 L 212.500 362.500 200.000 362.500 L 187.500 362.500 187.500 350.000 L 187.500 337.500 181.250 337.500 L 175.000 337.500 175.000 356.250 " stroke="none" fill="#040404" fill-rule="evenodd"></path><path id="path3" d="M112.500 318.750 L 112.500 325.000 118.750 325.000 L 125.000 325.000 125.000 318.750 L 125.000 312.500 118.750 312.500 L 112.500 312.500 112.500 318.750 M187.500 356.250 L 187.500 362.500 200.000 362.500 L 212.500 362.500 212.500 356.250 L 212.500 350.000 200.000 350.000 L 187.500 350.000 187.500 356.250 M225.000 356.250 L 225.000 362.500 237.500 362.500 L 250.000 362.500 250.000 356.250 L 250.000 350.000 237.500 350.000 L 225.000 350.000 225.000 356.250 " stroke="none" fill="#fcfcca" fill-rule="evenodd"></path><path id="path4" d="M112.500 343.750 L 112.500 350.000 118.750 350.000 L 125.000 350.000 125.000 343.750 L 125.000 337.500 118.750 337.500 L 112.500 337.500 112.500 343.750 " stroke="none" fill="#0404fc" fill-rule="evenodd"></path></g></svg>