<svg id="svg" version="1.1" xmlns="http://www.w3.org/2000/svg" xmlns:xlink="http://www.w3.org/1999/xlink" width="400" height="400" viewBox="0, 0, 400,400"><g id="svgg"><path id="path0" d="M175.000 306.250 L 175.000 312.500 181.250 312.500 L 187.500 312.500 187.500 318.750 L 187.500 325.000 193.750 325.000 L 200.000 325.000 200.000 318.750 L 200.000 312.500 206.250 312.500 L 212.500 312.500 212.500 318.750 L 212.500 325.000 218.750 325.000 L 225.000 325.000 225.000 318.750 L 225.000 312.500 231.250 312.500 L 237.500 312.500 237.500 318.750 L 237.500 325.000 243.750 325.000 L 250.000 325.000 250.000 318.750 L 250.000 312.500 256.250 312.500 L 262.500 312.500 262.500 306.250 L 262.500 300.000 256.250 300.000 L 250.000 300.000 250.000 306.250 L 250.000 312.500 243.750 312.500 L 237.500 312.500 237.500 306.250 L 237.500 300.000 231.250 300.000 L 225.000 300.000 225.000 306.250 L 225.000 312.500 218.750 312.500 L 212.500 312.500 212.500 306.250 L 212.500 300.000 206.250 300.000 L 200.000 300.000 200.000 306.250 L 200.000 312.500 193.750 312.500 L 187.500 312.500 187.500 306.250 L 187.500 300.000 181.250 300.000 L 175.000 300.000 175.000 306.250 " stroke="none" fill="#b4b4b4" fill-rule="evenodd"></path><path id="path1" d="M187.500 306.250 L 187.500 312.500 181.250 312.500 L 175.000 312.500 175.000 318.750 L 175.000 325.000 181.250 325.000 L 187.500 325.000 187.500 318.750 L 187.500 312.500 193.750 312.500 L 200.000 312.500 200.000 318.750 L 200.000 325.000 206.250 325.000 L 212.500 325.000 212.500 318.750 L 212.500 312.500 218.750 312.500 L 225.000 312.500 225.000 318.750 L 225.000 325.000 231.250 325.000 L 237.500 325.000 237.500 318.750 L 237.500 312.500 243.750 312.500 L 250.000 312.500 250.000 318.750 L 250.000 325.000 256.250 325.000 L 262.500 325.000 262.500 318.750 L 262.500 312.500 256.250 312.500 L 250.000 312.500 250.000 306.250 L 250.000 300.000 243.750 300.000 L 237.500 300.000 237.500 306.250 L 237.500 312.500 231.250 312.500 L 225.000 312.500 225.000 306.250 L 225.000 300.000 218.750 300.000 L 212.500 300.000 212.500 306.250 L 212.500 312.500 206.250 312.500 L 200.000 312.500 200.000 306.250 L 200.000 300.000 193.750 300.000 L 187.500 300.000 187.500 306.250 " stroke="none" fill="#fcfcfc" fill-rule="evenodd"></path><path id="path2" d="M100.000 331.250 L 100.000 337.500 106.250 337.500 L 112.500 337.500 112.500 331.250 L 112.500 325.000 106.250 325.000 L 100.000 325.000 100.000 331.250 " stroke="none" fill="#fc0404" fill-rule="evenodd"></path><path id="path3" d="M162.500 312.500 L 162.500 337.500 218.750 337.500 L 275.000 337.500 275.000 312.500 L 275.000 287.500 218.750 287.500 L 162.500 287.500 162.500 312.500 M262.500 312.500 L 262.500 325.000 218.750 325.000 L 175.000 325.000 175.000 312.500 L 175.000 300.000 218.750 300.000 L 262.500 300.000 262.500 312.500 " stroke="none" fill="#444444" fill-rule="evenodd"></path><path id="path4" d="" stroke="none" fill="#a450a0" fill-rule="evenodd"></path></g></svg>