<svg id="svg" version="1.1" xmlns="http://www.w3.org/2000/svg" xmlns:xlink="http://www.w3.org/1999/xlink" width="400" height="400" viewBox="0, 0, 400,400"><g id="svgg"><path id="path0" d="M187.500 281.250 L 187.500 287.500 193.750 287.500 L 200.000 287.500 200.000 281.250 L 200.000 275.000 193.750 275.000 L 187.500 275.000 187.500 281.250 M212.500 281.250 L 212.500 287.500 218.750 287.500 L 225.000 287.500 225.000 281.250 L 225.000 275.000 218.750 275.000 L 212.500 275.000 212.500 281.250 M237.500 281.250 L 237.500 287.500 243.750 287.500 L 250.000 287.500 250.000 281.250 L 250.000 275.000 243.750 275.000 L 237.500 275.000 237.500 281.250 M212.500 318.750 L 212.500 325.000 206.250 325.000 L 200.000 325.000 200.000 331.250 L 200.000 337.500 206.250 337.500 L 212.500 337.500 212.500 343.750 L 212.500 350.000 218.750 350.000 L 225.000 350.000 225.000 343.750 L 225.000 337.500 231.250 337.500 L 237.500 337.500 237.500 331.250 L 237.500 325.000 231.250 325.000 L 225.000 325.000 225.000 318.750 L 225.000 312.500 218.750 312.500 L 212.500 312.500 212.500 318.750 M225.000 331.250 L 225.000 337.500 218.750 337.500 L 212.500 337.500 212.500 331.250 L 212.500 325.000 218.750 325.000 L 225.000 325.000 225.000 331.250 " stroke="none" fill="#b4b4b4" fill-rule="evenodd"></path><path id="path1" d="M200.000 318.750 L 200.000 325.000 206.250 325.000 L 212.500 325.000 212.500 331.250 L 212.500 337.500 206.250 337.500 L 200.000 337.500 200.000 343.750 L 200.000 350.000 206.250 350.000 L 212.500 350.000 212.500 343.750 L 212.500 337.500 218.750 337.500 L 225.000 337.500 225.000 343.750 L 225.000 350.000 231.250 350.000 L 237.500 350.000 237.500 343.750 L 237.500 337.500 231.250 337.500 L 225.000 337.500 225.000 331.250 L 225.000 325.000 231.250 325.000 L 237.500 325.000 237.500 318.750 L 237.500 312.500 231.250 312.500 L 225.000 312.500 225.000 318.750 L 225.000 325.000 218.750 325.000 L 212.500 325.000 212.500 318.750 L 212.500 312.500 206.250 312.500 L 200.000 312.500 200.000 318.750 " stroke="none" fill="#0404fc" fill-rule="evenodd"></path><path id="path2" d="M187.500 331.250 L 187.500 362.500 218.750 362.500 L 250.000 362.500 250.000 331.250 L 250.000 300.000 218.750 300.000 L 187.500 300.000 187.500 331.250 M237.500 331.250 L 237.500 350.000 218.750 350.000 L 200.000 350.000 200.000 331.250 L 200.000 312.500 218.750 312.500 L 237.500 312.500 237.500 331.250 " stroke="none" fill="#444444" fill-rule="evenodd"></path><path id="path3" d="" stroke="none" fill="#805c70" fill-rule="evenodd"></path><path id="path4" d="" stroke="none" fill="#248070" fill-rule="evenodd"></path></g></svg>