<svg id="svg" version="1.1" xmlns="http://www.w3.org/2000/svg" xmlns:xlink="http://www.w3.org/1999/xlink" width="400" height="400" viewBox="0, 0, 400,400"><g id="svgg"><path id="path0" d="M175.000 343.750 L 175.000 350.000 218.750 350.000 L 262.500 350.000 262.500 343.750 L 262.500 337.500 218.750 337.500 L 175.000 337.500 175.000 343.750 " stroke="none" fill="#de4d4d" fill-rule="evenodd"></path><path id="path1" d="M212.500 293.750 L 212.500 300.000 206.250 300.000 L 200.000 300.000 200.000 312.500 L 200.000 325.000 231.250 325.000 L 262.500 325.000 262.500 312.500 L 262.500 300.000 256.250 300.000 L 250.000 300.000 250.000 293.750 L 250.000 287.500 231.250 287.500 L 212.500 287.500 212.500 293.750 M200.000 368.750 L 200.000 375.000 206.250 375.000 L 212.500 375.000 212.500 381.250 L 212.500 387.500 231.250 387.500 L 250.000 387.500 250.000 381.250 L 250.000 375.000 256.250 375.000 L 262.500 375.000 262.500 368.750 L 262.500 362.500 231.250 362.500 L 200.000 362.500 200.000 368.750 " stroke="none" fill="#8c8c8c" fill-rule="evenodd"></path><path id="path2" d="M187.500 293.750 L 187.500 300.000 181.250 300.000 L 175.000 300.000 175.000 312.500 L 175.000 325.000 187.500 325.000 L 200.000 325.000 200.000 312.500 L 200.000 300.000 206.250 300.000 L 212.500 300.000 212.500 293.750 L 212.500 287.500 200.000 287.500 L 187.500 287.500 187.500 293.750 M175.000 368.750 L 175.000 375.000 181.250 375.000 L 187.500 375.000 187.500 381.250 L 187.500 387.500 200.000 387.500 L 212.500 387.500 212.500 381.250 L 212.500 375.000 206.250 375.000 L 200.000 375.000 200.000 368.750 L 200.000 362.500 187.500 362.500 L 175.000 362.500 175.000 368.750 " stroke="none" fill="#444444" fill-rule="evenodd"></path><path id="path3" d="M187.500 281.250 L 187.500 287.500 181.250 287.500 L 175.000 287.500 175.000 293.750 L 175.000 300.000 168.750 300.000 L 162.500 300.000 162.500 318.750 L 162.500 337.500 218.750 337.500 L 275.000 337.500 275.000 318.750 L 275.000 300.000 268.750 300.000 L 262.500 300.000 262.500 293.750 L 262.500 287.500 256.250 287.500 L 250.000 287.500 250.000 281.250 L 250.000 275.000 218.750 275.000 L 187.500 275.000 187.500 281.250 M250.000 293.750 L 250.000 300.000 256.250 300.000 L 262.500 300.000 262.500 312.500 L 262.500 325.000 218.750 325.000 L 175.000 325.000 175.000 312.500 L 175.000 300.000 181.250 300.000 L 187.500 300.000 187.500 293.750 L 187.500 287.500 218.750 287.500 L 250.000 287.500 250.000 293.750 M162.500 362.500 L 162.500 375.000 168.750 375.000 L 175.000 375.000 175.000 381.250 L 175.000 387.500 181.250 387.500 L 187.500 387.500 187.500 393.750 L 187.500 400.000 218.750 400.000 L 250.000 400.000 250.000 393.750 L 250.000 387.500 256.250 387.500 L 262.500 387.500 262.500 381.250 L 262.500 375.000 268.750 375.000 L 275.000 375.000 275.000 362.500 L 275.000 350.000 218.750 350.000 L 162.500 350.000 162.500 362.500 M262.500 368.750 L 262.500 375.000 256.250 375.000 L 250.000 375.000 250.000 381.250 L 250.000 387.500 218.750 387.500 L 187.500 387.500 187.500 381.250 L 187.500 375.000 181.250 375.000 L 175.000 375.000 175.000 368.750 L 175.000 362.500 218.750 362.500 L 262.500 362.500 262.500 368.750 " stroke="none" fill="#040404" fill-rule="evenodd"></path><path id="path4" d="" stroke="none" fill="#508ca4" fill-rule="evenodd"></path></g></svg>