<svg id="svg" version="1.1" xmlns="http://www.w3.org/2000/svg" xmlns:xlink="http://www.w3.org/1999/xlink" width="400" height="400" viewBox="0, 0, 400,400"><g id="svgg"><path id="path0" d="M212.500 293.750 L 212.500 300.000 200.000 300.000 L 187.500 300.000 187.500 318.750 L 187.500 337.500 193.750 337.500 L 200.000 337.500 200.000 343.750 L 200.000 350.000 193.750 350.000 L 187.500 350.000 187.500 356.250 L 187.500 362.500 200.000 362.500 L 212.500 362.500 212.500 350.000 L 212.500 337.500 218.750 337.500 L 225.000 337.500 225.000 356.250 L 225.000 375.000 231.250 375.000 L 237.500 375.000 237.500 368.750 L 237.500 362.500 243.750 362.500 L 250.000 362.500 250.000 356.250 L 250.000 350.000 243.750 350.000 L 237.500 350.000 237.500 343.750 L 237.500 337.500 243.750 337.500 L 250.000 337.500 250.000 318.750 L 250.000 300.000 237.500 300.000 L 225.000 300.000 225.000 293.750 L 225.000 287.500 218.750 287.500 L 212.500 287.500 212.500 293.750 M212.500 318.750 L 212.500 325.000 206.250 325.000 L 200.000 325.000 200.000 318.750 L 200.000 312.500 206.250 312.500 L 212.500 312.500 212.500 318.750 M237.500 318.750 L 237.500 325.000 231.250 325.000 L 225.000 325.000 225.000 318.750 L 225.000 312.500 231.250 312.500 L 237.500 312.500 237.500 318.750 " stroke="none" fill="#acb4bc" fill-rule="evenodd"></path><path id="path1" d="M175.000 331.250 L 175.000 387.500 218.750 387.500 L 262.500 387.500 262.500 331.250 L 262.500 275.000 218.750 275.000 L 175.000 275.000 175.000 331.250 M250.000 331.250 L 250.000 375.000 218.750 375.000 L 187.500 375.000 187.500 331.250 L 187.500 287.500 218.750 287.500 L 250.000 287.500 250.000 331.250 " stroke="none" fill="#6c747c" fill-rule="evenodd"></path><path id="path2" d="M187.500 293.750 L 187.500 300.000 200.000 300.000 L 212.500 300.000 212.500 293.750 L 212.500 287.500 200.000 287.500 L 187.500 287.500 187.500 293.750 M225.000 293.750 L 225.000 300.000 237.500 300.000 L 250.000 300.000 250.000 293.750 L 250.000 287.500 237.500 287.500 L 225.000 287.500 225.000 293.750 M187.500 343.750 L 187.500 350.000 193.750 350.000 L 200.000 350.000 200.000 343.750 L 200.000 337.500 193.750 337.500 L 187.500 337.500 187.500 343.750 M212.500 350.000 L 212.500 362.500 200.000 362.500 L 187.500 362.500 187.500 368.750 L 187.500 375.000 206.250 375.000 L 225.000 375.000 225.000 356.250 L 225.000 337.500 218.750 337.500 L 212.500 337.500 212.500 350.000 M237.500 343.750 L 237.500 350.000 243.750 350.000 L 250.000 350.000 250.000 343.750 L 250.000 337.500 243.750 337.500 L 237.500 337.500 237.500 343.750 M237.500 368.750 L 237.500 375.000 243.750 375.000 L 250.000 375.000 250.000 368.750 L 250.000 362.500 243.750 362.500 L 237.500 362.500 237.500 368.750 " stroke="none" fill="#040404" fill-rule="evenodd"></path><path id="path3" d="M200.000 318.750 L 200.000 325.000 206.250 325.000 L 212.500 325.000 212.500 318.750 L 212.500 312.500 206.250 312.500 L 200.000 312.500 200.000 318.750 " stroke="none" fill="#ffff00" fill-rule="evenodd"></path><path id="path4" d="M225.000 318.750 L 225.000 325.000 231.250 325.000 L 237.500 325.000 237.500 318.750 L 237.500 312.500 231.250 312.500 L 225.000 312.500 225.000 318.750 " stroke="none" fill="#ff0000" fill-rule="evenodd"></path></g></svg>