<svg id="svg" version="1.1" xmlns="http://www.w3.org/2000/svg" xmlns:xlink="http://www.w3.org/1999/xlink" width="400" height="400" viewBox="0, 0, 400,400"><g id="svgg"><path id="path0" d="M187.500 281.250 L 187.500 287.500 193.750 287.500 L 200.000 287.500 200.000 281.250 L 200.000 275.000 193.750 275.000 L 187.500 275.000 187.500 281.250 M162.500 306.250 L 162.500 312.500 168.750 312.500 L 175.000 312.500 175.000 306.250 L 175.000 300.000 168.750 300.000 L 162.500 300.000 162.500 306.250 M212.500 331.250 L 212.500 337.500 218.750 337.500 L 225.000 337.500 225.000 331.250 L 225.000 325.000 218.750 325.000 L 212.500 325.000 212.500 331.250 " stroke="none" fill="#b01834" fill-rule="evenodd"></path><path id="path1" d="M262.500 281.250 L 262.500 287.500 268.750 287.500 L 275.000 287.500 275.000 281.250 L 275.000 275.000 268.750 275.000 L 262.500 275.000 262.500 281.250 M162.500 331.250 L 162.500 337.500 168.750 337.500 L 175.000 337.500 175.000 331.250 L 175.000 325.000 168.750 325.000 L 162.500 325.000 162.500 331.250 M212.500 356.250 L 212.500 362.500 218.750 362.500 L 225.000 362.500 225.000 356.250 L 225.000 350.000 218.750 350.000 L 212.500 350.000 212.500 356.250 " stroke="none" fill="#10b2d2" fill-rule="evenodd"></path><path id="path2" d="M237.500 356.250 L 237.500 362.500 243.750 362.500 L 250.000 362.500 250.000 356.250 L 250.000 350.000 243.750 350.000 L 237.500 350.000 237.500 356.250 M212.500 381.250 L 212.500 387.500 218.750 387.500 L 225.000 387.500 225.000 381.250 L 225.000 375.000 218.750 375.000 L 212.500 375.000 212.500 381.250 M237.500 381.250 L 237.500 387.500 243.750 387.500 L 250.000 387.500 250.000 381.250 L 250.000 375.000 243.750 375.000 L 237.500 375.000 237.500 381.250 M262.500 381.250 L 262.500 387.500 268.750 387.500 L 275.000 387.500 275.000 381.250 L 275.000 375.000 268.750 375.000 L 262.500 375.000 262.500 381.250 " stroke="none" fill="#f0e0b2" fill-rule="evenodd"></path><path id="path3" d="M212.500 306.250 L 212.500 312.500 218.750 312.500 L 225.000 312.500 225.000 306.250 L 225.000 300.000 218.750 300.000 L 212.500 300.000 212.500 306.250 M237.500 331.250 L 237.500 337.500 243.750 337.500 L 250.000 337.500 250.000 331.250 L 250.000 325.000 243.750 325.000 L 237.500 325.000 237.500 331.250 M187.500 356.250 L 187.500 362.500 193.750 362.500 L 200.000 362.500 200.000 356.250 L 200.000 350.000 193.750 350.000 L 187.500 350.000 187.500 356.250 " stroke="none" fill="#5996d4" fill-rule="evenodd"></path><path id="path4" d="M162.500 281.250 L 162.500 287.500 168.750 287.500 L 175.000 287.500 175.000 281.250 L 175.000 275.000 168.750 275.000 L 162.500 275.000 162.500 281.250 M237.500 281.250 L 237.500 287.500 243.750 287.500 L 250.000 287.500 250.000 281.250 L 250.000 275.000 243.750 275.000 L 237.500 275.000 237.500 281.250 M262.500 306.250 L 262.500 312.500 268.750 312.500 L 275.000 312.500 275.000 306.250 L 275.000 300.000 268.750 300.000 L 262.500 300.000 262.500 306.250 M187.500 331.250 L 187.500 337.500 193.750 337.500 L 200.000 337.500 200.000 331.250 L 200.000 325.000 193.750 325.000 L 187.500 325.000 187.500 331.250 M162.500 381.250 L 162.500 387.500 168.750 387.500 L 175.000 387.500 175.000 381.250 L 175.000 375.000 168.750 375.000 L 162.500 375.000 162.500 381.250 " stroke="none" fill="#ece80a" fill-rule="evenodd"></path><path id="path5" d="M187.500 306.250 L 187.500 312.500 193.750 312.500 L 200.000 312.500 200.000 306.250 L 200.000 300.000 193.750 300.000 L 187.500 300.000 187.500 306.250 M237.500 306.250 L 237.500 312.500 243.750 312.500 L 250.000 312.500 250.000 306.250 L 250.000 300.000 243.750 300.000 L 237.500 300.000 237.500 306.250 M262.500 331.250 L 262.500 337.500 268.750 337.500 L 275.000 337.500 275.000 331.250 L 275.000 325.000 268.750 325.000 L 262.500 325.000 262.500 331.250 " stroke="none" fill="#546c8c" fill-rule="evenodd"></path><path id="path6" d="M212.500 281.250 L 212.500 287.500 218.750 287.500 L 225.000 287.500 225.000 281.250 L 225.000 275.000 218.750 275.000 L 212.500 275.000 212.500 281.250 " stroke="none" fill="#0404fc" fill-rule="evenodd"></path><path id="path7" d="M162.500 356.250 L 162.500 362.500 168.750 362.500 L 175.000 362.500 175.000 356.250 L 175.000 350.000 168.750 350.000 L 162.500 350.000 162.500 356.250 M262.500 356.250 L 262.500 362.500 268.750 362.500 L 275.000 362.500 275.000 356.250 L 275.000 350.000 268.750 350.000 L 262.500 350.000 262.500 356.250 " stroke="none" fill="#9c5c3c" fill-rule="evenodd"></path><path id="path8" d="M187.500 381.250 L 187.500 387.500 193.750 387.500 L 200.000 387.500 200.000 381.250 L 200.000 375.000 193.750 375.000 L 187.500 375.000 187.500 381.250 " stroke="none" fill="#fc7c04" fill-rule="evenodd"></path></g></svg>