<svg id="svg" version="1.1" xmlns="http://www.w3.org/2000/svg" xmlns:xlink="http://www.w3.org/1999/xlink" width="400" height="400" viewBox="0, 0, 400,400"><g id="svgg"><path id="path1" d="M212.500 356.250 L 212.500 362.500 218.750 362.500 L 225.000 362.500 225.000 356.250 L 225.000 350.000 218.750 350.000 L 212.500 350.000 212.500 356.250 " stroke="none" fill="#0404fc" fill-rule="evenodd"></path><path id="path2" d="M212.500 331.250 L 212.500 337.500 218.750 337.500 L 225.000 337.500 225.000 331.250 L 225.000 325.000 218.750 325.000 L 212.500 325.000 212.500 331.250 M237.500 331.250 L 237.500 337.500 243.750 337.500 L 250.000 337.500 250.000 331.250 L 250.000 325.000 243.750 325.000 L 237.500 325.000 237.500 331.250 M187.500 356.250 L 187.500 362.500 193.750 362.500 L 200.000 362.500 200.000 356.250 L 200.000 350.000 193.750 350.000 L 187.500 350.000 187.500 356.250 " stroke="none" fill="#040404" fill-rule="evenodd"></path><path id="path3" d="M162.500 331.250 L 162.500 387.500 218.750 387.500 L 275.000 387.500 275.000 331.250 L 275.000 275.000 218.750 275.000 L 162.500 275.000 162.500 331.250 M250.000 306.250 L 250.000 312.500 218.750 312.500 L 187.500 312.500 187.500 306.250 L 187.500 300.000 218.750 300.000 L 250.000 300.000 250.000 306.250 M200.000 331.250 L 200.000 337.500 193.750 337.500 L 187.500 337.500 187.500 331.250 L 187.500 325.000 193.750 325.000 L 200.000 325.000 200.000 331.250 M225.000 331.250 L 225.000 337.500 218.750 337.500 L 212.500 337.500 212.500 331.250 L 212.500 325.000 218.750 325.000 L 225.000 325.000 225.000 331.250 M250.000 331.250 L 250.000 337.500 243.750 337.500 L 237.500 337.500 237.500 331.250 L 237.500 325.000 243.750 325.000 L 250.000 325.000 250.000 331.250 M200.000 356.250 L 200.000 362.500 193.750 362.500 L 187.500 362.500 187.500 356.250 L 187.500 350.000 193.750 350.000 L 200.000 350.000 200.000 356.250 M225.000 356.250 L 225.000 362.500 218.750 362.500 L 212.500 362.500 212.500 356.250 L 212.500 350.000 218.750 350.000 L 225.000 350.000 225.000 356.250 M250.000 356.250 L 250.000 362.500 243.750 362.500 L 237.500 362.500 237.500 356.250 L 237.500 350.000 243.750 350.000 L 250.000 350.000 250.000 356.250 " stroke="none" fill="#2c2c2c" fill-rule="evenodd"></path><path id="path4" d="M187.500 331.250 L 187.500 337.500 193.750 337.500 L 200.000 337.500 200.000 331.250 L 200.000 325.000 193.750 325.000 L 187.500 325.000 187.500 331.250 M237.500 356.250 L 237.500 362.500 243.750 362.500 L 250.000 362.500 250.000 356.250 L 250.000 350.000 243.750 350.000 L 237.500 350.000 237.500 356.250 " stroke="none" fill="#fc7c04" fill-rule="evenodd"></path><path id="path0" d="M187.500 306.250 L 187.500 312.500 218.750 312.500 L 250.000 312.500 250.000 306.250 L 250.000 300.000 218.750 300.000 L 187.500 300.000 187.500 306.250 " stroke="none" fill="#8c9c0c" fill-rule="evenodd"></path><path id="path1" d="M212.500 356.250 L 212.500 362.500 218.750 362.500 L 225.000 362.500 225.000 356.250 L 225.000 350.000 218.750 350.000 L 212.500 350.000 212.500 356.250 " stroke="none" fill="#0404fc" fill-rule="evenodd"></path><path id="path2" d="M212.500 331.250 L 212.500 337.500 218.750 337.500 L 225.000 337.500 225.000 331.250 L 225.000 325.000 218.750 325.000 L 212.500 325.000 212.500 331.250 M237.500 331.250 L 237.500 337.500 243.750 337.500 L 250.000 337.500 250.000 331.250 L 250.000 325.000 243.750 325.000 L 237.500 325.000 237.500 331.250 M187.500 356.250 L 187.500 362.500 193.750 362.500 L 200.000 362.500 200.000 356.250 L 200.000 350.000 193.750 350.000 L 187.500 350.000 187.500 356.250 " stroke="none" fill="#040404" fill-rule="evenodd"></path><path id="path3" d="M162.500 331.250 L 162.500 387.500 218.750 387.500 L 275.000 387.500 275.000 331.250 L 275.000 275.000 218.750 275.000 L 162.500 275.000 162.500 331.250 M250.000 306.250 L 250.000 312.500 218.750 312.500 L 187.500 312.500 187.500 306.250 L 187.500 300.000 218.750 300.000 L 250.000 300.000 250.000 306.250 M200.000 331.250 L 200.000 337.500 193.750 337.500 L 187.500 337.500 187.500 331.250 L 187.500 325.000 193.750 325.000 L 200.000 325.000 200.000 331.250 M225.000 331.250 L 225.000 337.500 218.750 337.500 L 212.500 337.500 212.500 331.250 L 212.500 325.000 218.750 325.000 L 225.000 325.000 225.000 331.250 M250.000 331.250 L 250.000 337.500 243.750 337.500 L 237.500 337.500 237.500 331.250 L 237.500 325.000 243.750 325.000 L 250.000 325.000 250.000 331.250 M200.000 356.250 L 200.000 362.500 193.750 362.500 L 187.500 362.500 187.500 356.250 L 187.500 350.000 193.750 350.000 L 200.000 350.000 200.000 356.250 M225.000 356.250 L 225.000 362.500 218.750 362.500 L 212.500 362.500 212.500 356.250 L 212.500 350.000 218.750 350.000 L 225.000 350.000 225.000 356.250 M250.000 356.250 L 250.000 362.500 243.750 362.500 L 237.500 362.500 237.500 356.250 L 237.500 350.000 243.750 350.000 L 250.000 350.000 250.000 356.250 " stroke="none" fill="#2c2c2c" fill-rule="evenodd"></path><path id="path4" d="M187.500 331.250 L 187.500 337.500 193.750 337.500 L 200.000 337.500 200.000 331.250 L 200.000 325.000 193.750 325.000 L 187.500 325.000 187.500 331.250 M237.500 356.250 L 237.500 362.500 243.750 362.500 L 250.000 362.500 250.000 356.250 L 250.000 350.000 243.750 350.000 L 237.500 350.000 237.500 356.250 " stroke="none" fill="#fc7c04" fill-rule="evenodd"></path></g></svg>