<svg id="svg" version="1.1" xmlns="http://www.w3.org/2000/svg" xmlns:xlink="http://www.w3.org/1999/xlink" width="400" height="400" viewBox="0, 0, 400,400"><g id="svgg"><path id="path0" d="M175.000 293.750 L 175.000 300.000 218.750 300.000 L 262.500 300.000 262.500 293.750 L 262.500 287.500 218.750 287.500 L 175.000 287.500 175.000 293.750 M175.000 343.750 L 175.000 350.000 218.750 350.000 L 262.500 350.000 262.500 343.750 L 262.500 337.500 218.750 337.500 L 175.000 337.500 175.000 343.750 " stroke="none" fill="#ace41c" fill-rule="evenodd"></path><path id="path1" d="M187.500 381.250 L 187.500 387.500 193.750 387.500 L 200.000 387.500 200.000 381.250 L 200.000 375.000 193.750 375.000 L 187.500 375.000 187.500 381.250 M212.500 381.250 L 212.500 387.500 218.750 387.500 L 225.000 387.500 225.000 381.250 L 225.000 375.000 218.750 375.000 L 212.500 375.000 212.500 381.250 M237.500 381.250 L 237.500 387.500 243.750 387.500 L 250.000 387.500 250.000 381.250 L 250.000 375.000 243.750 375.000 L 237.500 375.000 237.500 381.250 " stroke="none" fill="#b4b4b4" fill-rule="evenodd"></path><path id="path2" d="M162.500 293.750 L 162.500 312.500 218.750 312.500 L 275.000 312.500 275.000 293.750 L 275.000 275.000 218.750 275.000 L 162.500 275.000 162.500 293.750 M262.500 293.750 L 262.500 300.000 218.750 300.000 L 175.000 300.000 175.000 293.750 L 175.000 287.500 218.750 287.500 L 262.500 287.500 262.500 293.750 M162.500 343.750 L 162.500 362.500 218.750 362.500 L 275.000 362.500 275.000 343.750 L 275.000 325.000 218.750 325.000 L 162.500 325.000 162.500 343.750 M262.500 343.750 L 262.500 350.000 218.750 350.000 L 175.000 350.000 175.000 343.750 L 175.000 337.500 218.750 337.500 L 262.500 337.500 262.500 343.750 " stroke="none" fill="#444444" fill-rule="evenodd"></path><path id="path3" d="" stroke="none" fill="#7c6c80" fill-rule="evenodd"></path><path id="path4" d="" stroke="none" fill="#806c30" fill-rule="evenodd"></path></g></svg>