<svg id="svg" version="1.1" xmlns="http://www.w3.org/2000/svg" xmlns:xlink="http://www.w3.org/1999/xlink" width="400" height="400" viewBox="0, 0, 400,400"><g id="svgg"><path id="path0" d="M162.500 293.750 L 162.500 312.500 168.750 312.500 L 175.000 312.500 175.000 293.750 L 175.000 275.000 168.750 275.000 L 162.500 275.000 162.500 293.750 M262.500 293.750 L 262.500 312.500 268.750 312.500 L 275.000 312.500 275.000 293.750 L 275.000 275.000 268.750 275.000 L 262.500 275.000 262.500 293.750 M287.500 300.000 L 287.500 325.000 293.750 325.000 L 300.000 325.000 300.000 337.500 L 300.000 350.000 306.250 350.000 L 312.500 350.000 312.500 362.500 L 312.500 375.000 325.000 375.000 L 337.500 375.000 337.500 368.750 L 337.500 362.500 350.000 362.500 L 362.500 362.500 362.500 356.250 L 362.500 350.000 368.750 350.000 L 375.000 350.000 375.000 343.750 L 375.000 337.500 356.250 337.500 L 337.500 337.500 337.500 343.750 L 337.500 350.000 331.250 350.000 L 325.000 350.000 325.000 337.500 L 325.000 325.000 318.750 325.000 L 312.500 325.000 312.500 312.500 L 312.500 300.000 306.250 300.000 L 300.000 300.000 300.000 287.500 L 300.000 275.000 293.750 275.000 L 287.500 275.000 287.500 300.000 " stroke="none" fill="#847c7c" fill-rule="evenodd"></path><path id="path1" d="M337.500 300.000 L 337.500 312.500 343.750 312.500 L 350.000 312.500 350.000 318.750 L 350.000 325.000 362.500 325.000 L 375.000 325.000 375.000 318.750 L 375.000 312.500 381.250 312.500 L 387.500 312.500 387.500 300.000 L 387.500 287.500 381.250 287.500 L 375.000 287.500 375.000 300.000 L 375.000 312.500 362.500 312.500 L 350.000 312.500 350.000 300.000 L 350.000 287.500 343.750 287.500 L 337.500 287.500 337.500 300.000 M112.500 393.750 L 112.500 400.000 125.000 400.000 L 137.500 400.000 137.500 393.750 L 137.500 387.500 125.000 387.500 L 112.500 387.500 112.500 393.750 " stroke="none" fill="#a2a2a2" fill-rule="evenodd"></path><path id="path2" d="M350.000 331.250 L 350.000 337.500 362.500 337.500 L 375.000 337.500 375.000 331.250 L 375.000 325.000 362.500 325.000 L 350.000 325.000 350.000 331.250 M112.500 381.250 L 112.500 387.500 125.000 387.500 L 137.500 387.500 137.500 381.250 L 137.500 375.000 125.000 375.000 L 112.500 375.000 112.500 381.250 " stroke="none" fill="#040404" fill-rule="evenodd"></path><path id="path3" d="" stroke="none" fill="#7c8040" fill-rule="evenodd"></path><path id="path4" d="" stroke="none" fill="#7c409c" fill-rule="evenodd"></path></g></svg>