<svg id="svg" version="1.1" xmlns="http://www.w3.org/2000/svg" xmlns:xlink="http://www.w3.org/1999/xlink" width="400" height="400" viewBox="0, 0, 400,400"><g id="svgg"><path id="path0" d="M187.500 343.750 L 187.500 350.000 181.250 350.000 L 175.000 350.000 175.000 356.250 L 175.000 362.500 181.250 362.500 L 187.500 362.500 187.500 368.750 L 187.500 375.000 193.750 375.000 L 200.000 375.000 200.000 368.750 L 200.000 362.500 206.250 362.500 L 212.500 362.500 212.500 356.250 L 212.500 350.000 206.250 350.000 L 200.000 350.000 200.000 343.750 L 200.000 337.500 193.750 337.500 L 187.500 337.500 187.500 343.750 M225.000 343.750 L 225.000 350.000 231.250 350.000 L 237.500 350.000 237.500 343.750 L 237.500 337.500 231.250 337.500 L 225.000 337.500 225.000 343.750 M250.000 343.750 L 250.000 350.000 256.250 350.000 L 262.500 350.000 262.500 343.750 L 262.500 337.500 256.250 337.500 L 250.000 337.500 250.000 343.750 M225.000 368.750 L 225.000 375.000 231.250 375.000 L 237.500 375.000 237.500 368.750 L 237.500 362.500 231.250 362.500 L 225.000 362.500 225.000 368.750 M250.000 368.750 L 250.000 375.000 256.250 375.000 L 262.500 375.000 262.500 368.750 L 262.500 362.500 256.250 362.500 L 250.000 362.500 250.000 368.750 " stroke="none" fill="#b4b4b4" fill-rule="evenodd"></path><path id="path1" d="M175.000 318.750 L 175.000 325.000 218.750 325.000 L 262.500 325.000 262.500 318.750 L 262.500 312.500 218.750 312.500 L 175.000 312.500 175.000 318.750 " stroke="none" fill="#8c9c0c" fill-rule="evenodd"></path><path id="path2" d="M162.500 343.750 L 162.500 387.500 218.750 387.500 L 275.000 387.500 275.000 343.750 L 275.000 300.000 218.750 300.000 L 162.500 300.000 162.500 343.750 M262.500 318.750 L 262.500 325.000 218.750 325.000 L 175.000 325.000 175.000 318.750 L 175.000 312.500 218.750 312.500 L 262.500 312.500 262.500 318.750 M200.000 343.750 L 200.000 350.000 206.250 350.000 L 212.500 350.000 212.500 356.250 L 212.500 362.500 206.250 362.500 L 200.000 362.500 200.000 368.750 L 200.000 375.000 193.750 375.000 L 187.500 375.000 187.500 368.750 L 187.500 362.500 181.250 362.500 L 175.000 362.500 175.000 356.250 L 175.000 350.000 181.250 350.000 L 187.500 350.000 187.500 343.750 L 187.500 337.500 193.750 337.500 L 200.000 337.500 200.000 343.750 M237.500 343.750 L 237.500 350.000 231.250 350.000 L 225.000 350.000 225.000 343.750 L 225.000 337.500 231.250 337.500 L 237.500 337.500 237.500 343.750 M262.500 343.750 L 262.500 350.000 256.250 350.000 L 250.000 350.000 250.000 343.750 L 250.000 337.500 256.250 337.500 L 262.500 337.500 262.500 343.750 M237.500 368.750 L 237.500 375.000 231.250 375.000 L 225.000 375.000 225.000 368.750 L 225.000 362.500 231.250 362.500 L 237.500 362.500 237.500 368.750 M262.500 368.750 L 262.500 375.000 256.250 375.000 L 250.000 375.000 250.000 368.750 L 250.000 362.500 256.250 362.500 L 262.500 362.500 262.500 368.750 " stroke="none" fill="#444444" fill-rule="evenodd"></path><path id="path3" d="" stroke="none" fill="#b87c9c" fill-rule="evenodd"></path><path id="path4" d="" stroke="none" fill="#608044" fill-rule="evenodd"></path></g></svg>