<svg id="svg" version="1.1" xmlns="http://www.w3.org/2000/svg" xmlns:xlink="http://www.w3.org/1999/xlink" width="400" height="400" viewBox="0, 0, 400,400"><g id="svgg"><path id="path0" d="M100.000 275.000 L 100.000 287.500 200.000 287.500 L 300.000 287.500 300.000 275.000 L 300.000 262.500 200.000 262.500 L 100.000 262.500 100.000 275.000 M100.000 306.250 L 100.000 312.500 200.000 312.500 L 300.000 312.500 300.000 306.250 L 300.000 300.000 200.000 300.000 L 100.000 300.000 100.000 306.250 M100.000 331.250 L 100.000 337.500 118.750 337.500 L 137.500 337.500 137.500 331.250 L 137.500 325.000 118.750 325.000 L 100.000 325.000 100.000 331.250 M150.000 331.250 L 150.000 337.500 225.000 337.500 L 300.000 337.500 300.000 331.250 L 300.000 325.000 225.000 325.000 L 150.000 325.000 150.000 331.250 M100.000 356.250 L 100.000 362.500 118.750 362.500 L 137.500 362.500 137.500 356.250 L 137.500 350.000 118.750 350.000 L 100.000 350.000 100.000 356.250 M150.000 356.250 L 150.000 362.500 225.000 362.500 L 300.000 362.500 300.000 356.250 L 300.000 350.000 225.000 350.000 L 150.000 350.000 150.000 356.250 M100.000 381.250 L 100.000 387.500 118.750 387.500 L 137.500 387.500 137.500 381.250 L 137.500 375.000 118.750 375.000 L 100.000 375.000 100.000 381.250 M150.000 381.250 L 150.000 387.500 225.000 387.500 L 300.000 387.500 300.000 381.250 L 300.000 375.000 225.000 375.000 L 150.000 375.000 150.000 381.250 " stroke="none" fill="#847c7c" fill-rule="evenodd"></path><path id="path1" d="M112.500 293.750 L 112.500 300.000 200.000 300.000 L 287.500 300.000 287.500 293.750 L 287.500 287.500 200.000 287.500 L 112.500 287.500 112.500 293.750 M112.500 318.750 L 112.500 325.000 125.000 325.000 L 137.500 325.000 137.500 318.750 L 137.500 312.500 125.000 312.500 L 112.500 312.500 112.500 318.750 M150.000 318.750 L 150.000 325.000 218.750 325.000 L 287.500 325.000 287.500 318.750 L 287.500 312.500 218.750 312.500 L 150.000 312.500 150.000 318.750 M112.500 343.750 L 112.500 350.000 125.000 350.000 L 137.500 350.000 137.500 343.750 L 137.500 337.500 125.000 337.500 L 112.500 337.500 112.500 343.750 M150.000 343.750 L 150.000 350.000 218.750 350.000 L 287.500 350.000 287.500 343.750 L 287.500 337.500 218.750 337.500 L 150.000 337.500 150.000 343.750 M112.500 368.750 L 112.500 375.000 125.000 375.000 L 137.500 375.000 137.500 368.750 L 137.500 362.500 125.000 362.500 L 112.500 362.500 112.500 368.750 M150.000 368.750 L 150.000 375.000 218.750 375.000 L 287.500 375.000 287.500 368.750 L 287.500 362.500 218.750 362.500 L 150.000 362.500 150.000 368.750 M112.500 393.750 L 112.500 400.000 125.000 400.000 L 137.500 400.000 137.500 393.750 L 137.500 387.500 125.000 387.500 L 112.500 387.500 112.500 393.750 M150.000 393.750 L 150.000 400.000 218.750 400.000 L 287.500 400.000 287.500 393.750 L 287.500 387.500 218.750 387.500 L 150.000 387.500 150.000 393.750 " stroke="none" fill="#444444" fill-rule="evenodd"></path><path id="path2" d="" stroke="none" fill="#748060" fill-rule="evenodd"></path><path id="path3" d="" stroke="none" fill="#748060" fill-rule="evenodd"></path><path id="path4" d="" stroke="none" fill="#748060" fill-rule="evenodd"></path><path id="path5" d="" stroke="none" fill="#748060" fill-rule="evenodd"></path><path id="path6" d="" stroke="none" fill="#748060" fill-rule="evenodd"></path><path id="path7" d="" stroke="none" fill="#748060" fill-rule="evenodd"></path><path id="path8" d="" stroke="none" fill="#748060" fill-rule="evenodd"></path></g></svg>