<svg id="svg" version="1.1" xmlns="http://www.w3.org/2000/svg" xmlns:xlink="http://www.w3.org/1999/xlink" width="400" height="400" viewBox="0, 0, 400,400"><g id="svgg"><path id="path0" d="M250.000 343.750 L 250.000 362.500 243.750 362.500 L 237.500 362.500 237.500 368.750 L 237.500 375.000 218.750 375.000 L 200.000 375.000 200.000 381.250 L 200.000 387.500 218.750 387.500 L 237.500 387.500 237.500 381.250 L 237.500 375.000 243.750 375.000 L 250.000 375.000 250.000 368.750 L 250.000 362.500 256.250 362.500 L 262.500 362.500 262.500 343.750 L 262.500 325.000 256.250 325.000 L 250.000 325.000 250.000 343.750 " stroke="none" fill="#e6e438" fill-rule="evenodd"></path><path id="path1" d="M187.500 281.250 L 187.500 287.500 193.750 287.500 L 200.000 287.500 200.000 300.000 L 200.000 312.500 206.250 312.500 L 212.500 312.500 212.500 300.000 L 212.500 287.500 206.250 287.500 L 200.000 287.500 200.000 281.250 L 200.000 275.000 193.750 275.000 L 187.500 275.000 187.500 281.250 M187.500 331.250 L 187.500 337.500 181.250 337.500 L 175.000 337.500 175.000 350.000 L 175.000 362.500 181.250 362.500 L 187.500 362.500 187.500 350.000 L 187.500 337.500 193.750 337.500 L 200.000 337.500 200.000 331.250 L 200.000 325.000 193.750 325.000 L 187.500 325.000 187.500 331.250 " stroke="none" fill="#0404fc" fill-rule="evenodd"></path><path id="path2" d="M162.500 306.250 L 162.500 312.500 168.750 312.500 L 175.000 312.500 175.000 318.750 L 175.000 325.000 200.000 325.000 L 225.000 325.000 225.000 318.750 L 225.000 312.500 231.250 312.500 L 237.500 312.500 237.500 306.250 L 237.500 300.000 231.250 300.000 L 225.000 300.000 225.000 306.250 L 225.000 312.500 200.000 312.500 L 175.000 312.500 175.000 306.250 L 175.000 300.000 168.750 300.000 L 162.500 300.000 162.500 306.250 " stroke="none" fill="#ec1c24" fill-rule="evenodd"></path><path id="path3" d="M150.000 281.250 L 150.000 300.000 168.750 300.000 L 187.500 300.000 187.500 281.250 L 187.500 262.500 168.750 262.500 L 150.000 262.500 150.000 281.250 M175.000 281.250 L 175.000 287.500 168.750 287.500 L 162.500 287.500 162.500 281.250 L 162.500 275.000 168.750 275.000 L 175.000 275.000 175.000 281.250 M237.500 306.250 L 237.500 325.000 256.250 325.000 L 275.000 325.000 275.000 306.250 L 275.000 287.500 256.250 287.500 L 237.500 287.500 237.500 306.250 M262.500 306.250 L 262.500 312.500 256.250 312.500 L 250.000 312.500 250.000 306.250 L 250.000 300.000 256.250 300.000 L 262.500 300.000 262.500 306.250 M162.500 381.250 L 162.500 400.000 181.250 400.000 L 200.000 400.000 200.000 381.250 L 200.000 362.500 181.250 362.500 L 162.500 362.500 162.500 381.250 M187.500 381.250 L 187.500 387.500 181.250 387.500 L 175.000 387.500 175.000 381.250 L 175.000 375.000 181.250 375.000 L 187.500 375.000 187.500 381.250 " stroke="none" fill="#444444" fill-rule="evenodd"></path><path id="path4" d="M162.500 281.250 L 162.500 287.500 168.750 287.500 L 175.000 287.500 175.000 281.250 L 175.000 275.000 168.750 275.000 L 162.500 275.000 162.500 281.250 M250.000 306.250 L 250.000 312.500 256.250 312.500 L 262.500 312.500 262.500 306.250 L 262.500 300.000 256.250 300.000 L 250.000 300.000 250.000 306.250 M175.000 381.250 L 175.000 387.500 181.250 387.500 L 187.500 387.500 187.500 381.250 L 187.500 375.000 181.250 375.000 L 175.000 375.000 175.000 381.250 " stroke="none" fill="#50a0a4" fill-rule="evenodd"></path></g></svg>