<svg width="320" height="320" viewBox="0 0 320 320" xmlns="http://www.w3.org/2000/svg" shape-rendering="crispEdges"><rect width="100%" height="100%" fill="none" /><rect width="120" height="10" x="100" y="30" fill="#b2a8a5" shape-rendering="crispEdges" /><rect width="60" height="10" x="90" y="40" fill="#fe500c" shape-rendering="crispEdges" /><rect width="50" height="10" x="150" y="40" fill="#ffef16" shape-rendering="crispEdges" /><rect width="30" height="10" x="200" y="40" fill="#fe500c" shape-rendering="crispEdges" /><rect width="50" height="10" x="80" y="50" fill="#fe500c" shape-rendering="crispEdges" /><rect width="10" height="10" x="130" y="50" fill="#ffef16" shape-rendering="crispEdges" /><rect width="30" height="10" x="140" y="50" fill="#fe500c" shape-rendering="crispEdges" /><rect width="40" height="10" x="170" y="50" fill="#ffef16" shape-rendering="crispEdges" /><rect width="30" height="10" x="210" y="50" fill="#fe500c" shape-rendering="crispEdges" /><rect width="20" height="10" x="80" y="60" fill="#ffef16" shape-rendering="crispEdges" /><rect width="20" height="10" x="100" y="60" fill="#fe500c" shape-rendering="crispEdges" /><rect width="10" height="10" x="120" y="60" fill="#ffef16" shape-rendering="crispEdges" /><rect width="10" height="10" x="130" y="60" fill="#fe500c" shape-rendering="crispEdges" /><rect width="10" height="10" x="140" y="60" fill="#ffef16" shape-rendering="crispEdges" /><rect width="30" height="10" x="150" y="60" fill="#fe500c" shape-rendering="crispEdges" /><rect width="40" height="10" x="180" y="60" fill="#ffef16" shape-rendering="crispEdges" /><rect width="20" height="10" x="220" y="60" fill="#fe500c" shape-rendering="crispEdges" /><rect width="20" height="10" x="80" y="70" fill="#fe500c" shape-rendering="crispEdges" /><rect width="10" height="10" x="100" y="70" fill="#ffef16" shape-rendering="crispEdges" /><rect width="20" height="10" x="110" y="70" fill="#fe500c" shape-rendering="crispEdges" /><rect width="10" height="10" x="130" y="70" fill="#ffef16" shape-rendering="crispEdges" /><rect width="40" height="10" x="140" y="70" fill="#fe500c" shape-rendering="crispEdges" /><rect width="50" height="10" x="180" y="70" fill="#ffef16" shape-rendering="crispEdges" /><rect width="10" height="10" x="230" y="70" fill="#fe500c" shape-rendering="crispEdges" /><rect width="20" height="10" x="80" y="80" fill="#fe500c" shape-rendering="crispEdges" /><rect width="10" height="10" x="100" y="80" fill="#ffef16" shape-rendering="crispEdges" /><rect width="80" height="10" x="110" y="80" fill="#fe500c" shape-rendering="crispEdges" /><rect width="40" height="10" x="190" y="80" fill="#ffef16" shape-rendering="crispEdges" /><rect width="10" height="10" x="230" y="80" fill="#fe500c" shape-rendering="crispEdges" /><rect width="20" height="10" x="80" y="90" fill="#ffef16" shape-rendering="crispEdges" /><rect width="50" height="10" x="100" y="90" fill="#fe500c" shape-rendering="crispEdges" /><rect width="10" height="10" x="150" y="90" fill="#ffef16" shape-rendering="crispEdges" /><rect width="30" height="10" x="160" y="90" fill="#fe500c" shape-rendering="crispEdges" /><rect width="40" height="10" x="190" y="90" fill="#ffef16" shape-rendering="crispEdges" /><rect width="10" height="10" x="230" y="90" fill="#fe500c" shape-rendering="crispEdges" /><rect width="100" height="10" x="80" y="100" fill="#fe500c" shape-rendering="crispEdges" /><rect width="50" height="10" x="180" y="100" fill="#ffef16" shape-rendering="crispEdges" /><rect width="10" height="10" x="230" y="100" fill="#fe500c" shape-rendering="crispEdges" /><rect width="100" height="10" x="80" y="110" fill="#fe500c" shape-rendering="crispEdges" /><rect width="40" height="10" x="180" y="110" fill="#ffef16" shape-rendering="crispEdges" /><rect width="20" height="10" x="220" y="110" fill="#fe500c" shape-rendering="crispEdges" /><rect width="90" height="10" x="80" y="120" fill="#fe500c" shape-rendering="crispEdges" /><rect width="50" height="10" x="170" y="120" fill="#ffef16" shape-rendering="crispEdges" /><rect width="20" height="10" x="220" y="120" fill="#fe500c" shape-rendering="crispEdges" /><rect width="90" height="10" x="80" y="130" fill="#fe500c" shape-rendering="crispEdges" /><rect width="40" height="10" x="170" y="130" fill="#ffef16" shape-rendering="crispEdges" /><rect width="30" height="10" x="210" y="130" fill="#fe500c" shape-rendering="crispEdges" /><rect width="80" height="10" x="80" y="140" fill="#fe500c" shape-rendering="crispEdges" /><rect width="40" height="10" x="160" y="140" fill="#ffef16" shape-rendering="crispEdges" /><rect width="40" height="10" x="200" y="140" fill="#fe500c" shape-rendering="crispEdges" /><rect width="70" height="10" x="80" y="150" fill="#fe500c" shape-rendering="crispEdges" /><rect width="40" height="10" x="150" y="150" fill="#ffef16" shape-rendering="crispEdges" /><rect width="50" height="10" x="190" y="150" fill="#fe500c" shape-rendering="crispEdges" /><rect width="50" height="10" x="80" y="160" fill="#fe500c" shape-rendering="crispEdges" /><rect width="50" height="10" x="130" y="160" fill="#ffef16" shape-rendering="crispEdges" /><rect width="60" height="10" x="180" y="160" fill="#fe500c" shape-rendering="crispEdges" /><rect width="30" height="10" x="80" y="170" fill="#fe500c" shape-rendering="crispEdges" /><rect width="40" height="10" x="110" y="170" fill="#ffef16" shape-rendering="crispEdges" /><rect width="90" height="10" x="150" y="170" fill="#fe500c" shape-rendering="crispEdges" /><rect width="20" height="10" x="80" y="180" fill="#fe500c" shape-rendering="crispEdges" /><rect width="30" height="10" x="100" y="180" fill="#ffef16" shape-rendering="crispEdges" /><rect width="30" height="10" x="130" y="180" fill="#fe500c" shape-rendering="crispEdges" /><rect width="10" height="10" x="160" y="180" fill="#ffef16" shape-rendering="crispEdges" /><rect width="10" height="10" x="170" y="180" fill="#000000" shape-rendering="crispEdges" /><rect width="20" height="10" x="180" y="180" fill="#ffffff" shape-rendering="crispEdges" /><rect width="10" height="10" x="200" y="180" fill="#000000" shape-rendering="crispEdges" /><rect width="10" height="10" x="210" y="180" fill="#ffef16" shape-rendering="crispEdges" /><rect width="20" height="10" x="220" y="180" fill="#fe500c" shape-rendering="crispEdges" /><rect width="20" height="10" x="90" y="190" fill="#ffef16" shape-rendering="crispEdges" /><rect width="120" height="10" x="110" y="190" fill="#fe500c" shape-rendering="crispEdges" /><rect width="120" height="10" x="100" y="200" fill="#b2a8a5" shape-rendering="crispEdges" /></svg>