<svg width="320" height="320" viewBox="0 0 320 320" xmlns="http://www.w3.org/2000/svg" shape-rendering="crispEdges"><rect width="100%" height="100%" fill="none" /><rect width="20" height="10" x="150" y="10" fill="#ffc110" shape-rendering="crispEdges" /><rect width="20" height="10" x="150" y="20" fill="#ffc110" shape-rendering="crispEdges" /><rect width="80" height="10" x="120" y="30" fill="#ffc110" shape-rendering="crispEdges" /><rect width="20" height="10" x="110" y="40" fill="#ffc110" shape-rendering="crispEdges" /><rect width="10" height="10" x="130" y="40" fill="#ffffff" shape-rendering="crispEdges" /><rect width="70" height="10" x="140" y="40" fill="#ffc110" shape-rendering="crispEdges" /><rect width="20" height="10" x="100" y="50" fill="#ffc110" shape-rendering="crispEdges" /><rect width="10" height="10" x="120" y="50" fill="#ffffff" shape-rendering="crispEdges" /><rect width="90" height="10" x="130" y="50" fill="#ffc110" shape-rendering="crispEdges" /><rect width="20" height="10" x="90" y="60" fill="#ffc110" shape-rendering="crispEdges" /><rect width="10" height="10" x="110" y="60" fill="#ffffff" shape-rendering="crispEdges" /><rect width="110" height="10" x="120" y="60" fill="#ffc110" shape-rendering="crispEdges" /><rect width="140" height="10" x="90" y="70" fill="#ffc110" shape-rendering="crispEdges" /><rect width="140" height="10" x="90" y="80" fill="#ffc110" shape-rendering="crispEdges" /><rect width="160" height="10" x="80" y="90" fill="#ffc110" shape-rendering="crispEdges" /><rect width="160" height="10" x="80" y="100" fill="#ffc110" shape-rendering="crispEdges" /><rect width="160" height="10" x="80" y="110" fill="#ffc110" shape-rendering="crispEdges" /><rect width="160" height="10" x="80" y="120" fill="#ffc110" shape-rendering="crispEdges" /><rect width="160" height="10" x="80" y="130" fill="#ffc110" shape-rendering="crispEdges" /><rect width="160" height="10" x="80" y="140" fill="#d08b11" shape-rendering="crispEdges" /><rect width="160" height="10" x="80" y="150" fill="#d08b11" shape-rendering="crispEdges" /><rect width="200" height="10" x="60" y="160" fill="#ffc110" shape-rendering="crispEdges" /><rect width="10" height="10" x="60" y="170" fill="#ffc110" shape-rendering="crispEdges" /><rect width="10" height="10" x="70" y="170" fill="#ffffff" shape-rendering="crispEdges" /><rect width="180" height="10" x="80" y="170" fill="#ffc110" shape-rendering="crispEdges" /><rect width="120" height="10" x="40" y="180" fill="#ffc110" shape-rendering="crispEdges" /><rect width="30" height="10" x="160" y="180" fill="#e8705b" shape-rendering="crispEdges" /><rect width="90" height="10" x="190" y="180" fill="#ffc110" shape-rendering="crispEdges" /><rect width="240" height="10" x="40" y="190" fill="#ffc110" shape-rendering="crispEdges" /><rect width="220" height="10" x="50" y="200" fill="#ffc110" shape-rendering="crispEdges" /></svg>