<svg width="320" height="320" viewBox="0 0 320 320" xmlns="http://www.w3.org/2000/svg" shape-rendering="crispEdges"><rect width="100%" height="100%" fill="none" /><rect width="40" height="10" x="90" y="90" fill="#7d635e" shape-rendering="crispEdges" /><rect width="40" height="10" x="180" y="90" fill="#7d635e" shape-rendering="crispEdges" /><rect width="10" height="10" x="50" y="100" fill="#000000" shape-rendering="crispEdges" /><rect width="170" height="10" x="70" y="100" fill="#b2958d" shape-rendering="crispEdges" /><rect width="10" height="10" x="270" y="100" fill="#000000" shape-rendering="crispEdges" /><rect width="10" height="10" x="50" y="110" fill="#000000" shape-rendering="crispEdges" /><rect width="10" height="10" x="60" y="110" fill="#7d635e" shape-rendering="crispEdges" /><rect width="10" height="10" x="70" y="110" fill="#b2958d" shape-rendering="crispEdges" /><rect width="10" height="10" x="80" y="110" fill="#f3322c" shape-rendering="crispEdges" /><rect width="150" height="10" x="90" y="110" fill="#b2958d" shape-rendering="crispEdges" /><rect width="20" height="10" x="260" y="110" fill="#000000" shape-rendering="crispEdges" /><rect width="10" height="10" x="50" y="120" fill="#000000" shape-rendering="crispEdges" /><rect width="10" height="10" x="60" y="120" fill="#7d635e" shape-rendering="crispEdges" /><rect width="170" height="10" x="70" y="120" fill="#b2958d" shape-rendering="crispEdges" /><rect width="20" height="10" x="240" y="120" fill="#7d635e" shape-rendering="crispEdges" /><rect width="20" height="10" x="260" y="120" fill="#000000" shape-rendering="crispEdges" /><rect width="10" height="10" x="50" y="130" fill="#000000" shape-rendering="crispEdges" /><rect width="170" height="10" x="70" y="130" fill="#b2958d" shape-rendering="crispEdges" /><rect width="20" height="10" x="240" y="130" fill="#7d635e" shape-rendering="crispEdges" /><rect width="20" height="10" x="260" y="130" fill="#000000" shape-rendering="crispEdges" /><rect width="170" height="10" x="70" y="140" fill="#b2958d" shape-rendering="crispEdges" /><rect width="20" height="10" x="240" y="140" fill="#7d635e" shape-rendering="crispEdges" /><rect width="20" height="10" x="260" y="140" fill="#000000" shape-rendering="crispEdges" /><rect width="170" height="10" x="70" y="150" fill="#b2958d" shape-rendering="crispEdges" /><rect width="20" height="10" x="240" y="150" fill="#7d635e" shape-rendering="crispEdges" /><rect width="20" height="10" x="260" y="150" fill="#000000" shape-rendering="crispEdges" /><rect width="170" height="10" x="70" y="160" fill="#000000" shape-rendering="crispEdges" /><rect width="20" height="10" x="240" y="160" fill="#7d635e" shape-rendering="crispEdges" /><rect width="20" height="10" x="260" y="160" fill="#000000" shape-rendering="crispEdges" /><rect width="170" height="10" x="70" y="170" fill="#000000" shape-rendering="crispEdges" /><rect width="20" height="10" x="240" y="170" fill="#7d635e" shape-rendering="crispEdges" /><rect width="20" height="10" x="260" y="170" fill="#000000" shape-rendering="crispEdges" /><rect width="140" height="10" x="70" y="180" fill="#000000" shape-rendering="crispEdges" /><rect width="20" height="10" x="210" y="180" fill="#7d635e" shape-rendering="crispEdges" /><rect width="10" height="10" x="230" y="180" fill="#000000" shape-rendering="crispEdges" /><rect width="20" height="10" x="240" y="180" fill="#7d635e" shape-rendering="crispEdges" /><rect width="20" height="10" x="260" y="180" fill="#000000" shape-rendering="crispEdges" /><rect width="10" height="10" x="70" y="190" fill="#000000" shape-rendering="crispEdges" /><rect width="110" height="10" x="80" y="190" fill="#b2958d" shape-rendering="crispEdges" /><rect width="20" height="10" x="190" y="190" fill="#000000" shape-rendering="crispEdges" /><rect width="20" height="10" x="210" y="190" fill="#7d635e" shape-rendering="crispEdges" /><rect width="10" height="10" x="230" y="190" fill="#000000" shape-rendering="crispEdges" /><rect width="20" height="10" x="260" y="190" fill="#000000" shape-rendering="crispEdges" /><rect width="170" height="10" x="70" y="200" fill="#000000" shape-rendering="crispEdges" /><rect width="10" height="10" x="270" y="200" fill="#000000" shape-rendering="crispEdges" /></svg>