<svg width="320" height="320" viewBox="0 0 320 320" xmlns="http://www.w3.org/2000/svg" shape-rendering="crispEdges"><rect width="100%" height="100%" fill="none" /><rect width="80" height="10" x="120" y="20" fill="#e11833" shape-rendering="crispEdges" /><rect width="80" height="10" x="90" y="30" fill="#e11833" shape-rendering="crispEdges" /><rect width="20" height="10" x="170" y="30" fill="#fff0ee" shape-rendering="crispEdges" /><rect width="40" height="10" x="190" y="30" fill="#e11833" shape-rendering="crispEdges" /><rect width="30" height="10" x="70" y="40" fill="#e11833" shape-rendering="crispEdges" /><rect width="10" height="10" x="100" y="40" fill="#fff0ee" shape-rendering="crispEdges" /><rect width="40" height="10" x="110" y="40" fill="#e11833" shape-rendering="crispEdges" /><rect width="20" height="10" x="150" y="40" fill="#fff0ee" shape-rendering="crispEdges" /><rect width="40" height="10" x="170" y="40" fill="#e11833" shape-rendering="crispEdges" /><rect width="20" height="10" x="210" y="40" fill="#fff0ee" shape-rendering="crispEdges" /><rect width="20" height="10" x="230" y="40" fill="#e11833" shape-rendering="crispEdges" /><rect width="80" height="10" x="60" y="50" fill="#e11833" shape-rendering="crispEdges" /><rect width="40" height="10" x="140" y="50" fill="#fff0ee" shape-rendering="crispEdges" /><rect width="50" height="10" x="180" y="50" fill="#e11833" shape-rendering="crispEdges" /><rect width="10" height="10" x="230" y="50" fill="#fff0ee" shape-rendering="crispEdges" /><rect width="20" height="10" x="240" y="50" fill="#e11833" shape-rendering="crispEdges" /><rect width="100" height="10" x="50" y="60" fill="#e11833" shape-rendering="crispEdges" /><rect width="20" height="10" x="150" y="60" fill="#fff0ee" shape-rendering="crispEdges" /><rect width="100" height="10" x="170" y="60" fill="#e11833" shape-rendering="crispEdges" /><rect width="30" height="10" x="50" y="70" fill="#e11833" shape-rendering="crispEdges" /><rect width="20" height="10" x="80" y="70" fill="#fff0ee" shape-rendering="crispEdges" /><rect width="120" height="10" x="100" y="70" fill="#e11833" shape-rendering="crispEdges" /><rect width="30" height="10" x="220" y="70" fill="#fff0ee" shape-rendering="crispEdges" /><rect width="20" height="10" x="250" y="70" fill="#e11833" shape-rendering="crispEdges" /><rect width="30" height="10" x="40" y="80" fill="#e11833" shape-rendering="crispEdges" /><rect width="40" height="10" x="70" y="80" fill="#fff0ee" shape-rendering="crispEdges" /><rect width="60" height="10" x="110" y="80" fill="#e11833" shape-rendering="crispEdges" /><rect width="20" height="10" x="170" y="80" fill="#fff0ee" shape-rendering="crispEdges" /><rect width="20" height="10" x="190" y="80" fill="#e11833" shape-rendering="crispEdges" /><rect width="50" height="10" x="210" y="80" fill="#fff0ee" shape-rendering="crispEdges" /><rect width="20" height="10" x="260" y="80" fill="#e11833" shape-rendering="crispEdges" /><rect width="10" height="10" x="40" y="90" fill="#e11833" shape-rendering="crispEdges" /><rect width="10" height="10" x="50" y="90" fill="#fff0ee" shape-rendering="crispEdges" /><rect width="20" height="10" x="60" y="90" fill="#e11833" shape-rendering="crispEdges" /><rect width="20" height="10" x="80" y="90" fill="#fff0ee" shape-rendering="crispEdges" /><rect width="30" height="10" x="100" y="90" fill="#e11833" shape-rendering="crispEdges" /><rect width="10" height="10" x="130" y="90" fill="#fff0ee" shape-rendering="crispEdges" /><rect width="30" height="10" x="140" y="90" fill="#e11833" shape-rendering="crispEdges" /><rect width="20" height="10" x="170" y="90" fill="#fff0ee" shape-rendering="crispEdges" /><rect width="20" height="10" x="190" y="90" fill="#e11833" shape-rendering="crispEdges" /><rect width="50" height="10" x="210" y="90" fill="#fff0ee" shape-rendering="crispEdges" /><rect width="20" height="10" x="260" y="90" fill="#e11833" shape-rendering="crispEdges" /><rect width="10" height="10" x="40" y="100" fill="#e11833" shape-rendering="crispEdges" /><rect width="10" height="10" x="50" y="100" fill="#fff0ee" shape-rendering="crispEdges" /><rect width="160" height="10" x="60" y="100" fill="#e11833" shape-rendering="crispEdges" /><rect width="30" height="10" x="220" y="100" fill="#fff0ee" shape-rendering="crispEdges" /><rect width="30" height="10" x="250" y="100" fill="#e11833" shape-rendering="crispEdges" /><rect width="240" height="10" x="40" y="110" fill="#e11833" shape-rendering="crispEdges" /><rect width="220" height="10" x="50" y="120" fill="#e11833" shape-rendering="crispEdges" /><rect width="180" height="10" x="70" y="130" fill="#e11833" shape-rendering="crispEdges" /><rect width="140" height="10" x="90" y="140" fill="#f9e8dd" shape-rendering="crispEdges" /><rect width="140" height="10" x="90" y="150" fill="#f9e8dd" shape-rendering="crispEdges" /><rect width="140" height="10" x="90" y="160" fill="#f9e8dd" shape-rendering="crispEdges" /><rect width="140" height="10" x="90" y="170" fill="#f9e8dd" shape-rendering="crispEdges" /><rect width="140" height="10" x="90" y="180" fill="#f9e8dd" shape-rendering="crispEdges" /><rect width="20" height="10" x="90" y="190" fill="#f9e8dd" shape-rendering="crispEdges" /><rect width="40" height="10" x="110" y="190" fill="#e11833" shape-rendering="crispEdges" /><rect width="80" height="10" x="150" y="190" fill="#f9e8dd" shape-rendering="crispEdges" /><rect width="20" height="10" x="90" y="200" fill="#f9e8dd" shape-rendering="crispEdges" /><rect width="10" height="10" x="110" y="200" fill="#e11833" shape-rendering="crispEdges" /><rect width="20" height="10" x="120" y="200" fill="#000000" shape-rendering="crispEdges" /><rect width="10" height="10" x="140" y="200" fill="#e11833" shape-rendering="crispEdges" /><rect width="80" height="10" x="150" y="200" fill="#f9e8dd" shape-rendering="crispEdges" /><rect width="40" height="10" x="110" y="210" fill="#e11833" shape-rendering="crispEdges" /></svg>