<svg width="320" height="320" viewBox="0 0 320 320" xmlns="http://www.w3.org/2000/svg" shape-rendering="crispEdges"><rect width="100%" height="100%" fill="none" /><rect width="30" height="10" x="130" y="20" fill="#eed811" shape-rendering="crispEdges" /><rect width="80" height="10" x="120" y="30" fill="#eed811" shape-rendering="crispEdges" /><rect width="120" height="10" x="120" y="40" fill="#eed811" shape-rendering="crispEdges" /><rect width="120" height="10" x="110" y="50" fill="#eed811" shape-rendering="crispEdges" /><rect width="110" height="10" x="110" y="60" fill="#eed811" shape-rendering="crispEdges" /><rect width="110" height="10" x="100" y="70" fill="#eed811" shape-rendering="crispEdges" /><rect width="100" height="10" x="100" y="80" fill="#eed811" shape-rendering="crispEdges" /><rect width="100" height="10" x="90" y="90" fill="#eed811" shape-rendering="crispEdges" /><rect width="90" height="10" x="90" y="100" fill="#eed811" shape-rendering="crispEdges" /><rect width="90" height="10" x="80" y="110" fill="#eed811" shape-rendering="crispEdges" /><rect width="80" height="10" x="80" y="120" fill="#eed811" shape-rendering="crispEdges" /><rect width="230" height="10" x="70" y="130" fill="#eed811" shape-rendering="crispEdges" /><rect width="220" height="10" x="70" y="140" fill="#eed811" shape-rendering="crispEdges" /><rect width="210" height="10" x="60" y="150" fill="#eed811" shape-rendering="crispEdges" /><rect width="190" height="10" x="60" y="160" fill="#eed811" shape-rendering="crispEdges" /><rect width="180" height="10" x="50" y="170" fill="#eed811" shape-rendering="crispEdges" /><rect width="110" height="10" x="100" y="180" fill="#eed811" shape-rendering="crispEdges" /><rect width="100" height="10" x="90" y="190" fill="#eed811" shape-rendering="crispEdges" /><rect width="80" height="10" x="90" y="200" fill="#eed811" shape-rendering="crispEdges" /><rect width="70" height="10" x="80" y="210" fill="#eed811" shape-rendering="crispEdges" /><rect width="50" height="10" x="80" y="220" fill="#eed811" shape-rendering="crispEdges" /><rect width="40" height="10" x="70" y="230" fill="#eed811" shape-rendering="crispEdges" /><rect width="20" height="10" x="70" y="240" fill="#eed811" shape-rendering="crispEdges" /><rect width="10" height="10" x="60" y="250" fill="#eed811" shape-rendering="crispEdges" /></svg>