<svg width="320" height="320" viewBox="0 0 320 320" xmlns="http://www.w3.org/2000/svg" shape-rendering="crispEdges"><rect width="100%" height="100%" fill="none" /><rect width="140" height="10" x="90" y="40" fill="#ffffff" shape-rendering="crispEdges" /><rect width="180" height="10" x="70" y="50" fill="#ffffff" shape-rendering="crispEdges" /><rect width="200" height="10" x="60" y="60" fill="#ffffff" shape-rendering="crispEdges" /><rect width="200" height="10" x="60" y="70" fill="#ffffff" shape-rendering="crispEdges" /><rect width="220" height="10" x="50" y="80" fill="#ffffff" shape-rendering="crispEdges" /><rect width="220" height="10" x="50" y="90" fill="#ffffff" shape-rendering="crispEdges" /><rect width="220" height="10" x="50" y="100" fill="#ffffff" shape-rendering="crispEdges" /><rect width="220" height="10" x="50" y="110" fill="#ffffff" shape-rendering="crispEdges" /><rect width="220" height="10" x="50" y="120" fill="#ffffff" shape-rendering="crispEdges" /><rect width="220" height="10" x="50" y="130" fill="#ffffff" shape-rendering="crispEdges" /><rect width="220" height="10" x="50" y="140" fill="#ffffff" shape-rendering="crispEdges" /><rect width="200" height="10" x="60" y="150" fill="#ffffff" shape-rendering="crispEdges" /><rect width="200" height="10" x="60" y="160" fill="#ffffff" shape-rendering="crispEdges" /><rect width="180" height="10" x="70" y="170" fill="#ffffff" shape-rendering="crispEdges" /><rect width="150" height="10" x="90" y="180" fill="#ffffff" shape-rendering="crispEdges" /><rect width="30" height="10" x="200" y="190" fill="#ffffff" shape-rendering="crispEdges" /><rect width="20" height="10" x="200" y="200" fill="#ffffff" shape-rendering="crispEdges" /><rect width="20" height="10" x="190" y="210" fill="#ffffff" shape-rendering="crispEdges" /><rect width="10" height="10" x="190" y="220" fill="#ffffff" shape-rendering="crispEdges" /></svg>