<svg width="320" height="320" viewBox="0 0 320 320" xmlns="http://www.w3.org/2000/svg" shape-rendering="crispEdges"><rect width="100%" height="100%" fill="none" /><rect width="20" height="10" x="150" y="50" fill="#a3baed" shape-rendering="crispEdges" /><rect width="40" height="10" x="140" y="60" fill="#a3baed" shape-rendering="crispEdges" /><rect width="20" height="10" x="50" y="70" fill="#a3baed" shape-rendering="crispEdges" /><rect width="50" height="10" x="140" y="70" fill="#a3baed" shape-rendering="crispEdges" /><rect width="20" height="10" x="250" y="70" fill="#a3baed" shape-rendering="crispEdges" /><rect width="40" height="10" x="50" y="80" fill="#a3baed" shape-rendering="crispEdges" /><rect width="20" height="10" x="130" y="80" fill="#a3baed" shape-rendering="crispEdges" /><rect width="10" height="10" x="150" y="80" fill="#63a0f9" shape-rendering="crispEdges" /><rect width="10" height="10" x="160" y="80" fill="#a3baed" shape-rendering="crispEdges" /><rect width="10" height="10" x="170" y="80" fill="#63a0f9" shape-rendering="crispEdges" /><rect width="10" height="10" x="180" y="80" fill="#a3baed" shape-rendering="crispEdges" /><rect width="40" height="10" x="230" y="80" fill="#a3baed" shape-rendering="crispEdges" /><rect width="60" height="10" x="50" y="90" fill="#a3baed" shape-rendering="crispEdges" /><rect width="60" height="10" x="130" y="90" fill="#a3baed" shape-rendering="crispEdges" /><rect width="60" height="10" x="210" y="90" fill="#a3baed" shape-rendering="crispEdges" /><rect width="200" height="10" x="60" y="100" fill="#a3baed" shape-rendering="crispEdges" /><rect width="200" height="10" x="60" y="110" fill="#a3baed" shape-rendering="crispEdges" /><rect width="200" height="10" x="60" y="120" fill="#a3baed" shape-rendering="crispEdges" /><rect width="200" height="10" x="60" y="130" fill="#a3baed" shape-rendering="crispEdges" /><rect width="180" height="10" x="70" y="140" fill="#a3baed" shape-rendering="crispEdges" /><rect width="180" height="10" x="70" y="150" fill="#a3baed" shape-rendering="crispEdges" /><rect width="170" height="10" x="70" y="160" fill="#a3baed" shape-rendering="crispEdges" /><rect width="170" height="10" x="70" y="170" fill="#a3baed" shape-rendering="crispEdges" /><rect width="150" height="10" x="80" y="180" fill="#a3baed" shape-rendering="crispEdges" /><rect width="150" height="10" x="60" y="190" fill="#a3baed" shape-rendering="crispEdges" /><rect width="170" height="10" x="30" y="200" fill="#a3baed" shape-rendering="crispEdges" /><rect width="20" height="10" x="70" y="210" fill="#a3baed" shape-rendering="crispEdges" /><rect width="40" height="10" x="50" y="220" fill="#a3baed" shape-rendering="crispEdges" /></svg>