<svg width="320" height="320" viewBox="0 0 320 320" xmlns="http://www.w3.org/2000/svg" shape-rendering="crispEdges"><rect width="100%" height="100%" fill="none" /><rect width="90" height="10" x="40" y="100" fill="#cfc2ab" shape-rendering="crispEdges" /><rect width="130" height="10" x="130" y="100" fill="#9d8e6e" shape-rendering="crispEdges" /><rect width="30" height="10" x="260" y="100" fill="#cfc2ab" shape-rendering="crispEdges" /><rect width="50" height="10" x="40" y="110" fill="#cfc2ab" shape-rendering="crispEdges" /><rect width="30" height="10" x="90" y="110" fill="#b92b3c" shape-rendering="crispEdges" /><rect width="10" height="10" x="120" y="110" fill="#cfc2ab" shape-rendering="crispEdges" /><rect width="10" height="10" x="130" y="110" fill="#9d8e6e" shape-rendering="crispEdges" /><rect width="20" height="10" x="140" y="110" fill="#f8ddb0" shape-rendering="crispEdges" /><rect width="10" height="10" x="160" y="110" fill="#9d8e6e" shape-rendering="crispEdges" /><rect width="20" height="10" x="170" y="110" fill="#f8ddb0" shape-rendering="crispEdges" /><rect width="10" height="10" x="190" y="110" fill="#9d8e6e" shape-rendering="crispEdges" /><rect width="20" height="10" x="200" y="110" fill="#f8ddb0" shape-rendering="crispEdges" /><rect width="20" height="10" x="220" y="110" fill="#9d8e6e" shape-rendering="crispEdges" /><rect width="10" height="10" x="240" y="110" fill="#b92b3c" shape-rendering="crispEdges" /><rect width="10" height="10" x="250" y="110" fill="#9d8e6e" shape-rendering="crispEdges" /><rect width="30" height="10" x="260" y="110" fill="#cfc2ab" shape-rendering="crispEdges" /><rect width="20" height="10" x="40" y="120" fill="#cfc2ab" shape-rendering="crispEdges" /><rect width="10" height="10" x="60" y="120" fill="#9d8e6e" shape-rendering="crispEdges" /><rect width="20" height="10" x="70" y="120" fill="#cfc2ab" shape-rendering="crispEdges" /><rect width="30" height="10" x="90" y="120" fill="#b92b3c" shape-rendering="crispEdges" /><rect width="10" height="10" x="120" y="120" fill="#cfc2ab" shape-rendering="crispEdges" /><rect width="10" height="10" x="130" y="120" fill="#9d8e6e" shape-rendering="crispEdges" /><rect width="20" height="10" x="140" y="120" fill="#f8ddb0" shape-rendering="crispEdges" /><rect width="10" height="10" x="160" y="120" fill="#9d8e6e" shape-rendering="crispEdges" /><rect width="20" height="10" x="170" y="120" fill="#f8ddb0" shape-rendering="crispEdges" /><rect width="10" height="10" x="190" y="120" fill="#9d8e6e" shape-rendering="crispEdges" /><rect width="20" height="10" x="200" y="120" fill="#f8ddb0" shape-rendering="crispEdges" /><rect width="20" height="10" x="220" y="120" fill="#9d8e6e" shape-rendering="crispEdges" /><rect width="10" height="10" x="240" y="120" fill="#b92b3c" shape-rendering="crispEdges" /><rect width="10" height="10" x="250" y="120" fill="#9d8e6e" shape-rendering="crispEdges" /><rect width="30" height="10" x="260" y="120" fill="#cfc2ab" shape-rendering="crispEdges" /><rect width="50" height="10" x="40" y="130" fill="#cfc2ab" shape-rendering="crispEdges" /><rect width="30" height="10" x="90" y="130" fill="#b92b3c" shape-rendering="crispEdges" /><rect width="10" height="10" x="120" y="130" fill="#cfc2ab" shape-rendering="crispEdges" /><rect width="130" height="10" x="130" y="130" fill="#9d8e6e" shape-rendering="crispEdges" /><rect width="10" height="10" x="260" y="130" fill="#cfc2ab" shape-rendering="crispEdges" /><rect width="10" height="10" x="270" y="130" fill="#000000" shape-rendering="crispEdges" /><rect width="10" height="10" x="280" y="130" fill="#cfc2ab" shape-rendering="crispEdges" /><rect width="50" height="10" x="40" y="140" fill="#cfc2ab" shape-rendering="crispEdges" /><rect width="30" height="10" x="90" y="140" fill="#b92b3c" shape-rendering="crispEdges" /><rect width="10" height="10" x="120" y="140" fill="#cfc2ab" shape-rendering="crispEdges" /><rect width="10" height="10" x="130" y="140" fill="#9d8e6e" shape-rendering="crispEdges" /><rect width="20" height="10" x="140" y="140" fill="#f8ddb0" shape-rendering="crispEdges" /><rect width="10" height="10" x="160" y="140" fill="#9d8e6e" shape-rendering="crispEdges" /><rect width="20" height="10" x="170" y="140" fill="#f8ddb0" shape-rendering="crispEdges" /><rect width="10" height="10" x="190" y="140" fill="#9d8e6e" shape-rendering="crispEdges" /><rect width="20" height="10" x="200" y="140" fill="#f8ddb0" shape-rendering="crispEdges" /><rect width="40" height="10" x="220" y="140" fill="#9d8e6e" shape-rendering="crispEdges" /><rect width="10" height="10" x="260" y="140" fill="#cfc2ab" shape-rendering="crispEdges" /><rect width="10" height="10" x="270" y="140" fill="#000000" shape-rendering="crispEdges" /><rect width="10" height="10" x="280" y="140" fill="#cfc2ab" shape-rendering="crispEdges" /><rect width="10" height="10" x="40" y="150" fill="#cfc2ab" shape-rendering="crispEdges" /><rect width="10" height="10" x="50" y="150" fill="#9d8e6e" shape-rendering="crispEdges" /><rect width="10" height="10" x="60" y="150" fill="#cfc2ab" shape-rendering="crispEdges" /><rect width="10" height="10" x="70" y="150" fill="#9d8e6e" shape-rendering="crispEdges" /><rect width="10" height="10" x="80" y="150" fill="#cfc2ab" shape-rendering="crispEdges" /><rect width="30" height="10" x="90" y="150" fill="#b92b3c" shape-rendering="crispEdges" /><rect width="10" height="10" x="120" y="150" fill="#cfc2ab" shape-rendering="crispEdges" /><rect width="10" height="10" x="130" y="150" fill="#9d8e6e" shape-rendering="crispEdges" /><rect width="20" height="10" x="140" y="150" fill="#f8ddb0" shape-rendering="crispEdges" /><rect width="10" height="10" x="160" y="150" fill="#9d8e6e" shape-rendering="crispEdges" /><rect width="20" height="10" x="170" y="150" fill="#f8ddb0" shape-rendering="crispEdges" /><rect width="10" height="10" x="190" y="150" fill="#9d8e6e" shape-rendering="crispEdges" /><rect width="20" height="10" x="200" y="150" fill="#f8ddb0" shape-rendering="crispEdges" /><rect width="40" height="10" x="220" y="150" fill="#9d8e6e" shape-rendering="crispEdges" /><rect width="10" height="10" x="260" y="150" fill="#cfc2ab" shape-rendering="crispEdges" /><rect width="10" height="10" x="270" y="150" fill="#000000" shape-rendering="crispEdges" /><rect width="10" height="10" x="280" y="150" fill="#cfc2ab" shape-rendering="crispEdges" /><rect width="50" height="10" x="40" y="160" fill="#cfc2ab" shape-rendering="crispEdges" /><rect width="30" height="10" x="90" y="160" fill="#b92b3c" shape-rendering="crispEdges" /><rect width="10" height="10" x="120" y="160" fill="#cfc2ab" shape-rendering="crispEdges" /><rect width="10" height="10" x="130" y="160" fill="#9d8e6e" shape-rendering="crispEdges" /><rect width="20" height="10" x="140" y="160" fill="#f8ddb0" shape-rendering="crispEdges" /><rect width="10" height="10" x="160" y="160" fill="#9d8e6e" shape-rendering="crispEdges" /><rect width="20" height="10" x="170" y="160" fill="#f8ddb0" shape-rendering="crispEdges" /><rect width="10" height="10" x="190" y="160" fill="#9d8e6e" shape-rendering="crispEdges" /><rect width="20" height="10" x="200" y="160" fill="#f8ddb0" shape-rendering="crispEdges" /><rect width="40" height="10" x="220" y="160" fill="#9d8e6e" shape-rendering="crispEdges" /><rect width="10" height="10" x="260" y="160" fill="#cfc2ab" shape-rendering="crispEdges" /><rect width="10" height="10" x="270" y="160" fill="#000000" shape-rendering="crispEdges" /><rect width="10" height="10" x="280" y="160" fill="#cfc2ab" shape-rendering="crispEdges" /><rect width="20" height="10" x="20" y="170" fill="#000000" shape-rendering="crispEdges" /><rect width="50" height="10" x="40" y="170" fill="#cfc2ab" shape-rendering="crispEdges" /><rect width="30" height="10" x="90" y="170" fill="#b92b3c" shape-rendering="crispEdges" /><rect width="10" height="10" x="120" y="170" fill="#cfc2ab" shape-rendering="crispEdges" /><rect width="130" height="10" x="130" y="170" fill="#9d8e6e" shape-rendering="crispEdges" /><rect width="10" height="10" x="260" y="170" fill="#cfc2ab" shape-rendering="crispEdges" /><rect width="10" height="10" x="270" y="170" fill="#000000" shape-rendering="crispEdges" /><rect width="10" height="10" x="280" y="170" fill="#cfc2ab" shape-rendering="crispEdges" /><rect width="20" height="10" x="20" y="180" fill="#000000" shape-rendering="crispEdges" /><rect width="20" height="10" x="40" y="180" fill="#cfc2ab" shape-rendering="crispEdges" /><rect width="10" height="10" x="60" y="180" fill="#9d8e6e" shape-rendering="crispEdges" /><rect width="20" height="10" x="70" y="180" fill="#cfc2ab" shape-rendering="crispEdges" /><rect width="30" height="10" x="90" y="180" fill="#b92b3c" shape-rendering="crispEdges" /><rect width="10" height="10" x="120" y="180" fill="#cfc2ab" shape-rendering="crispEdges" /><rect width="10" height="10" x="130" y="180" fill="#9d8e6e" shape-rendering="crispEdges" /><rect width="20" height="10" x="140" y="180" fill="#f8ddb0" shape-rendering="crispEdges" /><rect width="10" height="10" x="160" y="180" fill="#9d8e6e" shape-rendering="crispEdges" /><rect width="20" height="10" x="170" y="180" fill="#f8ddb0" shape-rendering="crispEdges" /><rect width="10" height="10" x="190" y="180" fill="#9d8e6e" shape-rendering="crispEdges" /><rect width="20" height="10" x="200" y="180" fill="#f8ddb0" shape-rendering="crispEdges" /><rect width="20" height="10" x="220" y="180" fill="#9d8e6e" shape-rendering="crispEdges" /><rect width="10" height="10" x="240" y="180" fill="#f8ddb0" shape-rendering="crispEdges" /><rect width="10" height="10" x="250" y="180" fill="#9d8e6e" shape-rendering="crispEdges" /><rect width="10" height="10" x="260" y="180" fill="#cfc2ab" shape-rendering="crispEdges" /><rect width="10" height="10" x="270" y="180" fill="#000000" shape-rendering="crispEdges" /><rect width="10" height="10" x="280" y="180" fill="#cfc2ab" shape-rendering="crispEdges" /><rect width="50" height="10" x="40" y="190" fill="#cfc2ab" shape-rendering="crispEdges" /><rect width="30" height="10" x="90" y="190" fill="#b92b3c" shape-rendering="crispEdges" /><rect width="10" height="10" x="120" y="190" fill="#cfc2ab" shape-rendering="crispEdges" /><rect width="10" height="10" x="130" y="190" fill="#9d8e6e" shape-rendering="crispEdges" /><rect width="20" height="10" x="140" y="190" fill="#f8ddb0" shape-rendering="crispEdges" /><rect width="10" height="10" x="160" y="190" fill="#9d8e6e" shape-rendering="crispEdges" /><rect width="20" height="10" x="170" y="190" fill="#f8ddb0" shape-rendering="crispEdges" /><rect width="10" height="10" x="190" y="190" fill="#9d8e6e" shape-rendering="crispEdges" /><rect width="20" height="10" x="200" y="190" fill="#f8ddb0" shape-rendering="crispEdges" /><rect width="20" height="10" x="220" y="190" fill="#9d8e6e" shape-rendering="crispEdges" /><rect width="10" height="10" x="240" y="190" fill="#f8ddb0" shape-rendering="crispEdges" /><rect width="10" height="10" x="250" y="190" fill="#9d8e6e" shape-rendering="crispEdges" /><rect width="30" height="10" x="260" y="190" fill="#cfc2ab" shape-rendering="crispEdges" /><rect width="90" height="10" x="40" y="200" fill="#cfc2ab" shape-rendering="crispEdges" /><rect width="130" height="10" x="130" y="200" fill="#9d8e6e" shape-rendering="crispEdges" /><rect width="30" height="10" x="260" y="200" fill="#cfc2ab" shape-rendering="crispEdges" /></svg>