<svg width="320" height="320" viewBox="0 0 320 320" xmlns="http://www.w3.org/2000/svg" shape-rendering="crispEdges"><rect width="100%" height="100%" fill="none" /><rect width="220" height="10" x="50" y="50" fill="#2b2834" shape-rendering="crispEdges" /><rect width="20" height="10" x="60" y="60" fill="#2b2834" shape-rendering="crispEdges" /><rect width="20" height="10" x="90" y="60" fill="#2b2834" shape-rendering="crispEdges" /><rect width="20" height="10" x="120" y="60" fill="#2b2834" shape-rendering="crispEdges" /><rect width="20" height="10" x="150" y="60" fill="#2b2834" shape-rendering="crispEdges" /><rect width="20" height="10" x="180" y="60" fill="#2b2834" shape-rendering="crispEdges" /><rect width="20" height="10" x="210" y="60" fill="#2b2834" shape-rendering="crispEdges" /><rect width="20" height="10" x="240" y="60" fill="#2b2834" shape-rendering="crispEdges" /><rect width="220" height="10" x="50" y="70" fill="#2b2834" shape-rendering="crispEdges" /><rect width="20" height="10" x="50" y="80" fill="#0079fc" shape-rendering="crispEdges" /><rect width="10" height="10" x="70" y="80" fill="#2b2834" shape-rendering="crispEdges" /><rect width="160" height="10" x="80" y="80" fill="#0079fc" shape-rendering="crispEdges" /><rect width="10" height="10" x="240" y="80" fill="#2b2834" shape-rendering="crispEdges" /><rect width="20" height="10" x="250" y="80" fill="#0079fc" shape-rendering="crispEdges" /><rect width="20" height="10" x="50" y="90" fill="#0079fc" shape-rendering="crispEdges" /><rect width="10" height="10" x="70" y="90" fill="#2b2834" shape-rendering="crispEdges" /><rect width="160" height="10" x="80" y="90" fill="#0079fc" shape-rendering="crispEdges" /><rect width="10" height="10" x="240" y="90" fill="#2b2834" shape-rendering="crispEdges" /><rect width="20" height="10" x="250" y="90" fill="#0079fc" shape-rendering="crispEdges" /><rect width="20" height="10" x="50" y="100" fill="#0079fc" shape-rendering="crispEdges" /><rect width="10" height="10" x="70" y="100" fill="#2b2834" shape-rendering="crispEdges" /><rect width="160" height="10" x="80" y="100" fill="#0079fc" shape-rendering="crispEdges" /><rect width="10" height="10" x="240" y="100" fill="#2b2834" shape-rendering="crispEdges" /><rect width="20" height="10" x="250" y="100" fill="#0079fc" shape-rendering="crispEdges" /><rect width="20" height="10" x="50" y="110" fill="#0079fc" shape-rendering="crispEdges" /><rect width="10" height="10" x="70" y="110" fill="#2b2834" shape-rendering="crispEdges" /><rect width="160" height="10" x="80" y="110" fill="#0079fc" shape-rendering="crispEdges" /><rect width="10" height="10" x="240" y="110" fill="#2b2834" shape-rendering="crispEdges" /><rect width="20" height="10" x="250" y="110" fill="#0079fc" shape-rendering="crispEdges" /><rect width="10" height="10" x="50" y="120" fill="#0079fc" shape-rendering="crispEdges" /><rect width="10" height="10" x="60" y="120" fill="#027ee6" shape-rendering="crispEdges" /><rect width="10" height="10" x="70" y="120" fill="#2b2834" shape-rendering="crispEdges" /><rect width="160" height="10" x="80" y="120" fill="#0079fc" shape-rendering="crispEdges" /><rect width="10" height="10" x="240" y="120" fill="#2b2834" shape-rendering="crispEdges" /><rect width="20" height="10" x="250" y="120" fill="#0079fc" shape-rendering="crispEdges" /><rect width="20" height="10" x="50" y="130" fill="#0079fc" shape-rendering="crispEdges" /><rect width="10" height="10" x="70" y="130" fill="#2b2834" shape-rendering="crispEdges" /><rect width="160" height="10" x="80" y="130" fill="#0079fc" shape-rendering="crispEdges" /><rect width="10" height="10" x="240" y="130" fill="#2b2834" shape-rendering="crispEdges" /><rect width="20" height="10" x="250" y="130" fill="#0079fc" shape-rendering="crispEdges" /><rect width="20" height="10" x="50" y="140" fill="#0079fc" shape-rendering="crispEdges" /><rect width="10" height="10" x="70" y="140" fill="#2b2834" shape-rendering="crispEdges" /><rect width="160" height="10" x="80" y="140" fill="#0079fc" shape-rendering="crispEdges" /><rect width="10" height="10" x="240" y="140" fill="#2b2834" shape-rendering="crispEdges" /><rect width="20" height="10" x="250" y="140" fill="#0079fc" shape-rendering="crispEdges" /><rect width="20" height="10" x="50" y="150" fill="#0079fc" shape-rendering="crispEdges" /><rect width="10" height="10" x="70" y="150" fill="#2b2834" shape-rendering="crispEdges" /><rect width="160" height="10" x="80" y="150" fill="#0079fc" shape-rendering="crispEdges" /><rect width="10" height="10" x="240" y="150" fill="#2b2834" shape-rendering="crispEdges" /><rect width="20" height="10" x="250" y="150" fill="#0079fc" shape-rendering="crispEdges" /><rect width="20" height="10" x="50" y="160" fill="#0079fc" shape-rendering="crispEdges" /><rect width="10" height="10" x="70" y="160" fill="#2b2834" shape-rendering="crispEdges" /><rect width="160" height="10" x="80" y="160" fill="#0079fc" shape-rendering="crispEdges" /><rect width="10" height="10" x="240" y="160" fill="#2b2834" shape-rendering="crispEdges" /><rect width="20" height="10" x="250" y="160" fill="#0079fc" shape-rendering="crispEdges" /><rect width="20" height="10" x="50" y="170" fill="#0079fc" shape-rendering="crispEdges" /><rect width="10" height="10" x="70" y="170" fill="#2b2834" shape-rendering="crispEdges" /><rect width="160" height="10" x="80" y="170" fill="#0079fc" shape-rendering="crispEdges" /><rect width="10" height="10" x="240" y="170" fill="#2b2834" shape-rendering="crispEdges" /><rect width="20" height="10" x="250" y="170" fill="#0079fc" shape-rendering="crispEdges" /><rect width="220" height="10" x="50" y="180" fill="#2b2834" shape-rendering="crispEdges" /><rect width="20" height="10" x="60" y="190" fill="#2b2834" shape-rendering="crispEdges" /><rect width="20" height="10" x="90" y="190" fill="#2b2834" shape-rendering="crispEdges" /><rect width="20" height="10" x="120" y="190" fill="#2b2834" shape-rendering="crispEdges" /><rect width="20" height="10" x="150" y="190" fill="#2b2834" shape-rendering="crispEdges" /><rect width="20" height="10" x="180" y="190" fill="#2b2834" shape-rendering="crispEdges" /><rect width="20" height="10" x="210" y="190" fill="#2b2834" shape-rendering="crispEdges" /><rect width="20" height="10" x="240" y="190" fill="#2b2834" shape-rendering="crispEdges" /><rect width="220" height="10" x="50" y="200" fill="#2b2834" shape-rendering="crispEdges" /></svg>