<svg width="320" height="320" viewBox="0 0 320 320" xmlns="http://www.w3.org/2000/svg" shape-rendering="crispEdges"><rect width="100%" height="100%" fill="none" /><rect width="80" height="10" x="40" y="80" fill="#fff671" shape-rendering="crispEdges" /><rect width="80" height="10" x="200" y="80" fill="#fff671" shape-rendering="crispEdges" /><rect width="20" height="10" x="30" y="90" fill="#fff671" shape-rendering="crispEdges" /><rect width="60" height="10" x="50" y="90" fill="#b87b11" shape-rendering="crispEdges" /><rect width="20" height="10" x="110" y="90" fill="#fff671" shape-rendering="crispEdges" /><rect width="20" height="10" x="190" y="90" fill="#fff671" shape-rendering="crispEdges" /><rect width="60" height="10" x="210" y="90" fill="#b87b11" shape-rendering="crispEdges" /><rect width="20" height="10" x="270" y="90" fill="#fff671" shape-rendering="crispEdges" /><rect width="10" height="10" x="30" y="100" fill="#ffc110" shape-rendering="crispEdges" /><rect width="80" height="10" x="40" y="100" fill="#fff671" shape-rendering="crispEdges" /><rect width="10" height="10" x="120" y="100" fill="#ffc110" shape-rendering="crispEdges" /><rect width="10" height="10" x="190" y="100" fill="#ffc110" shape-rendering="crispEdges" /><rect width="80" height="10" x="200" y="100" fill="#fff671" shape-rendering="crispEdges" /><rect width="10" height="10" x="280" y="100" fill="#ffc110" shape-rendering="crispEdges" /><rect width="100" height="10" x="30" y="110" fill="#ffc110" shape-rendering="crispEdges" /><rect width="100" height="10" x="190" y="110" fill="#ffc110" shape-rendering="crispEdges" /><rect width="10" height="10" x="30" y="120" fill="#ffc110" shape-rendering="crispEdges" /><rect width="10" height="10" x="40" y="120" fill="#ffef16" shape-rendering="crispEdges" /><rect width="80" height="10" x="50" y="120" fill="#ffc110" shape-rendering="crispEdges" /><rect width="80" height="10" x="190" y="120" fill="#ffc110" shape-rendering="crispEdges" /><rect width="10" height="10" x="270" y="120" fill="#ffef16" shape-rendering="crispEdges" /><rect width="10" height="10" x="280" y="120" fill="#ffc110" shape-rendering="crispEdges" /><rect width="10" height="10" x="30" y="130" fill="#ffc110" shape-rendering="crispEdges" /><rect width="10" height="10" x="40" y="130" fill="#ffef16" shape-rendering="crispEdges" /><rect width="90" height="10" x="50" y="130" fill="#ffc110" shape-rendering="crispEdges" /><rect width="80" height="10" x="180" y="130" fill="#ffc110" shape-rendering="crispEdges" /><rect width="20" height="10" x="260" y="130" fill="#ffef16" shape-rendering="crispEdges" /><rect width="10" height="10" x="280" y="130" fill="#ffc110" shape-rendering="crispEdges" /><rect width="230" height="10" x="30" y="140" fill="#ffc110" shape-rendering="crispEdges" /><rect width="10" height="10" x="260" y="140" fill="#ffef16" shape-rendering="crispEdges" /><rect width="20" height="10" x="270" y="140" fill="#ffc110" shape-rendering="crispEdges" /><rect width="240" height="10" x="40" y="150" fill="#ffc110" shape-rendering="crispEdges" /><rect width="210" height="10" x="40" y="160" fill="#ffc110" shape-rendering="crispEdges" /><rect width="10" height="10" x="250" y="160" fill="#ffef16" shape-rendering="crispEdges" /><rect width="20" height="10" x="260" y="160" fill="#ffc110" shape-rendering="crispEdges" /><rect width="220" height="10" x="50" y="170" fill="#ffc110" shape-rendering="crispEdges" /><rect width="60" height="10" x="60" y="180" fill="#ffc110" shape-rendering="crispEdges" /><rect width="20" height="10" x="120" y="180" fill="#b87b11" shape-rendering="crispEdges" /><rect width="10" height="10" x="140" y="180" fill="#ffc110" shape-rendering="crispEdges" /><rect width="20" height="10" x="150" y="180" fill="#b87b11" shape-rendering="crispEdges" /><rect width="10" height="10" x="170" y="180" fill="#ffc110" shape-rendering="crispEdges" /><rect width="20" height="10" x="180" y="180" fill="#b87b11" shape-rendering="crispEdges" /><rect width="60" height="10" x="200" y="180" fill="#ffc110" shape-rendering="crispEdges" /><rect width="180" height="10" x="70" y="190" fill="#ffc110" shape-rendering="crispEdges" /><rect width="140" height="10" x="90" y="200" fill="#ffc110" shape-rendering="crispEdges" /></svg>