<svg width="320" height="320" viewBox="0 0 320 320" xmlns="http://www.w3.org/2000/svg" shape-rendering="crispEdges"><rect width="100%" height="100%" fill="none" /><rect width="10" height="10" x="160" y="60" fill="#ffffff" shape-rendering="crispEdges" /><rect width="10" height="10" x="170" y="60" fill="#000000" shape-rendering="crispEdges" /><rect width="20" height="10" x="70" y="70" fill="#000000" shape-rendering="crispEdges" /><rect width="30" height="10" x="90" y="70" fill="#cfc9b8" shape-rendering="crispEdges" /><rect width="10" height="10" x="120" y="70" fill="#ffffff" shape-rendering="crispEdges" /><rect width="10" height="10" x="130" y="70" fill="#000000" shape-rendering="crispEdges" /><rect width="10" height="10" x="140" y="70" fill="#ffffff" shape-rendering="crispEdges" /><rect width="10" height="10" x="150" y="70" fill="#000000" shape-rendering="crispEdges" /><rect width="10" height="10" x="160" y="70" fill="#ffffff" shape-rendering="crispEdges" /><rect width="20" height="10" x="170" y="70" fill="#000000" shape-rendering="crispEdges" /><rect width="30" height="10" x="200" y="70" fill="#cfc9b8" shape-rendering="crispEdges" /><rect width="20" height="10" x="70" y="80" fill="#ffffff" shape-rendering="crispEdges" /><rect width="30" height="10" x="90" y="80" fill="#cfc9b8" shape-rendering="crispEdges" /><rect width="10" height="10" x="120" y="80" fill="#ffffff" shape-rendering="crispEdges" /><rect width="10" height="10" x="130" y="80" fill="#000000" shape-rendering="crispEdges" /><rect width="10" height="10" x="140" y="80" fill="#ffffff" shape-rendering="crispEdges" /><rect width="10" height="10" x="150" y="80" fill="#000000" shape-rendering="crispEdges" /><rect width="10" height="10" x="160" y="80" fill="#ffffff" shape-rendering="crispEdges" /><rect width="10" height="10" x="170" y="80" fill="#000000" shape-rendering="crispEdges" /><rect width="30" height="10" x="200" y="80" fill="#cfc9b8" shape-rendering="crispEdges" /><rect width="20" height="10" x="70" y="90" fill="#000000" shape-rendering="crispEdges" /><rect width="50" height="10" x="90" y="90" fill="#cfc9b8" shape-rendering="crispEdges" /><rect width="10" height="10" x="140" y="90" fill="#000000" shape-rendering="crispEdges" /><rect width="30" height="10" x="150" y="90" fill="#cfc9b8" shape-rendering="crispEdges" /><rect width="10" height="10" x="180" y="90" fill="#000000" shape-rendering="crispEdges" /><rect width="40" height="10" x="190" y="90" fill="#cfc9b8" shape-rendering="crispEdges" /><rect width="20" height="10" x="70" y="100" fill="#ffffff" shape-rendering="crispEdges" /><rect width="60" height="10" x="90" y="100" fill="#cfc9b8" shape-rendering="crispEdges" /><rect width="30" height="10" x="150" y="100" fill="#000000" shape-rendering="crispEdges" /><rect width="50" height="10" x="180" y="100" fill="#cfc9b8" shape-rendering="crispEdges" /><rect width="20" height="10" x="70" y="110" fill="#000000" shape-rendering="crispEdges" /><rect width="60" height="10" x="90" y="110" fill="#cfc9b8" shape-rendering="crispEdges" /><rect width="30" height="10" x="150" y="110" fill="#000000" shape-rendering="crispEdges" /><rect width="50" height="10" x="180" y="110" fill="#cfc9b8" shape-rendering="crispEdges" /><rect width="20" height="10" x="70" y="120" fill="#ffffff" shape-rendering="crispEdges" /><rect width="70" height="10" x="90" y="120" fill="#cfc9b8" shape-rendering="crispEdges" /><rect width="10" height="10" x="160" y="120" fill="#000000" shape-rendering="crispEdges" /><rect width="60" height="10" x="170" y="120" fill="#cfc9b8" shape-rendering="crispEdges" /><rect width="20" height="10" x="70" y="130" fill="#000000" shape-rendering="crispEdges" /><rect width="70" height="10" x="90" y="130" fill="#cfc9b8" shape-rendering="crispEdges" /><rect width="10" height="10" x="160" y="130" fill="#000000" shape-rendering="crispEdges" /><rect width="60" height="10" x="170" y="130" fill="#cfc9b8" shape-rendering="crispEdges" /><rect width="20" height="10" x="70" y="140" fill="#ffffff" shape-rendering="crispEdges" /><rect width="70" height="10" x="90" y="140" fill="#cfc9b8" shape-rendering="crispEdges" /><rect width="10" height="10" x="160" y="140" fill="#000000" shape-rendering="crispEdges" /><rect width="60" height="10" x="170" y="140" fill="#cfc9b8" shape-rendering="crispEdges" /><rect width="20" height="10" x="70" y="150" fill="#000000" shape-rendering="crispEdges" /><rect width="140" height="10" x="90" y="150" fill="#cfc9b8" shape-rendering="crispEdges" /><rect width="20" height="10" x="70" y="160" fill="#ffffff" shape-rendering="crispEdges" /><rect width="120" height="10" x="90" y="160" fill="#cfc9b8" shape-rendering="crispEdges" /><rect width="60" height="10" x="210" y="160" fill="#000000" shape-rendering="crispEdges" /><rect width="20" height="10" x="70" y="170" fill="#000000" shape-rendering="crispEdges" /><rect width="130" height="10" x="90" y="170" fill="#cfc9b8" shape-rendering="crispEdges" /><rect width="10" height="10" x="220" y="170" fill="#000000" shape-rendering="crispEdges" /><rect width="10" height="10" x="230" y="170" fill="#ffffff" shape-rendering="crispEdges" /><rect width="10" height="10" x="240" y="170" fill="#000000" shape-rendering="crispEdges" /><rect width="10" height="10" x="250" y="170" fill="#ffffff" shape-rendering="crispEdges" /><rect width="10" height="10" x="260" y="170" fill="#000000" shape-rendering="crispEdges" /><rect width="30" height="10" x="60" y="180" fill="#ffffff" shape-rendering="crispEdges" /><rect width="20" height="10" x="90" y="180" fill="#cfc9b8" shape-rendering="crispEdges" /><rect width="10" height="10" x="110" y="180" fill="#ffffff" shape-rendering="crispEdges" /><rect width="10" height="10" x="120" y="180" fill="#000000" shape-rendering="crispEdges" /><rect width="10" height="10" x="130" y="180" fill="#ffffff" shape-rendering="crispEdges" /><rect width="10" height="10" x="140" y="180" fill="#000000" shape-rendering="crispEdges" /><rect width="10" height="10" x="150" y="180" fill="#ffffff" shape-rendering="crispEdges" /><rect width="10" height="10" x="160" y="180" fill="#000000" shape-rendering="crispEdges" /><rect width="10" height="10" x="170" y="180" fill="#ffffff" shape-rendering="crispEdges" /><rect width="30" height="10" x="180" y="180" fill="#cfc9b8" shape-rendering="crispEdges" /><rect width="60" height="10" x="210" y="180" fill="#000000" shape-rendering="crispEdges" /><rect width="30" height="10" x="60" y="190" fill="#000000" shape-rendering="crispEdges" /><rect width="130" height="10" x="90" y="190" fill="#cfc9b8" shape-rendering="crispEdges" /><rect width="50" height="10" x="220" y="190" fill="#000000" shape-rendering="crispEdges" /><rect width="30" height="10" x="60" y="200" fill="#ffffff" shape-rendering="crispEdges" /><rect width="130" height="10" x="90" y="200" fill="#cfc9b8" shape-rendering="crispEdges" /><rect width="50" height="10" x="220" y="200" fill="#000000" shape-rendering="crispEdges" /></svg>