<svg width="320" height="320" viewBox="0 0 320 320" xmlns="http://www.w3.org/2000/svg" shape-rendering="crispEdges"><rect width="100%" height="100%" fill="none" /><rect width="10" height="10" x="110" y="20" fill="#e8705b" shape-rendering="crispEdges" /><rect width="10" height="10" x="160" y="20" fill="#e8705b" shape-rendering="crispEdges" /><rect width="10" height="10" x="200" y="20" fill="#e8705b" shape-rendering="crispEdges" /><rect width="10" height="10" x="100" y="30" fill="#e8705b" shape-rendering="crispEdges" /><rect width="10" height="10" x="110" y="30" fill="#fff671" shape-rendering="crispEdges" /><rect width="10" height="10" x="120" y="30" fill="#e8705b" shape-rendering="crispEdges" /><rect width="10" height="10" x="150" y="30" fill="#e8705b" shape-rendering="crispEdges" /><rect width="10" height="10" x="160" y="30" fill="#fff671" shape-rendering="crispEdges" /><rect width="10" height="10" x="170" y="30" fill="#e8705b" shape-rendering="crispEdges" /><rect width="10" height="10" x="190" y="30" fill="#e8705b" shape-rendering="crispEdges" /><rect width="10" height="10" x="200" y="30" fill="#fff671" shape-rendering="crispEdges" /><rect width="10" height="10" x="210" y="30" fill="#e8705b" shape-rendering="crispEdges" /><rect width="10" height="10" x="100" y="40" fill="#e8705b" shape-rendering="crispEdges" /><rect width="10" height="10" x="110" y="40" fill="#fff671" shape-rendering="crispEdges" /><rect width="10" height="10" x="120" y="40" fill="#ffc110" shape-rendering="crispEdges" /><rect width="10" height="10" x="150" y="40" fill="#e8705b" shape-rendering="crispEdges" /><rect width="10" height="10" x="160" y="40" fill="#fff671" shape-rendering="crispEdges" /><rect width="10" height="10" x="170" y="40" fill="#ffc110" shape-rendering="crispEdges" /><rect width="10" height="10" x="190" y="40" fill="#e8705b" shape-rendering="crispEdges" /><rect width="10" height="10" x="200" y="40" fill="#fff671" shape-rendering="crispEdges" /><rect width="10" height="10" x="210" y="40" fill="#ffc110" shape-rendering="crispEdges" /><rect width="10" height="10" x="110" y="50" fill="#ffc110" shape-rendering="crispEdges" /><rect width="10" height="10" x="160" y="50" fill="#ffc110" shape-rendering="crispEdges" /><rect width="10" height="10" x="200" y="50" fill="#ffc110" shape-rendering="crispEdges" /><rect width="30" height="10" x="100" y="60" fill="#7cc4f2" shape-rendering="crispEdges" /><rect width="30" height="10" x="150" y="60" fill="#7cc4f2" shape-rendering="crispEdges" /><rect width="30" height="10" x="190" y="60" fill="#7cc4f2" shape-rendering="crispEdges" /><rect width="10" height="10" x="100" y="70" fill="#26b1f3" shape-rendering="crispEdges" /><rect width="20" height="10" x="110" y="70" fill="#7cc4f2" shape-rendering="crispEdges" /><rect width="10" height="10" x="150" y="70" fill="#26b1f3" shape-rendering="crispEdges" /><rect width="20" height="10" x="160" y="70" fill="#7cc4f2" shape-rendering="crispEdges" /><rect width="10" height="10" x="190" y="70" fill="#26b1f3" shape-rendering="crispEdges" /><rect width="20" height="10" x="200" y="70" fill="#7cc4f2" shape-rendering="crispEdges" /><rect width="160" height="10" x="80" y="80" fill="#ff638d" shape-rendering="crispEdges" /><rect width="50" height="10" x="70" y="90" fill="#ff638d" shape-rendering="crispEdges" /><rect width="60" height="10" x="120" y="90" fill="#ffffff" shape-rendering="crispEdges" /><rect width="70" height="10" x="180" y="90" fill="#ff638d" shape-rendering="crispEdges" /><rect width="40" height="10" x="70" y="100" fill="#ff638d" shape-rendering="crispEdges" /><rect width="80" height="10" x="110" y="100" fill="#ffffff" shape-rendering="crispEdges" /><rect width="60" height="10" x="190" y="100" fill="#ff638d" shape-rendering="crispEdges" /><rect width="40" height="10" x="70" y="110" fill="#ff638d" shape-rendering="crispEdges" /><rect width="80" height="10" x="110" y="110" fill="#ffffff" shape-rendering="crispEdges" /><rect width="50" height="10" x="190" y="110" fill="#ff638d" shape-rendering="crispEdges" /><rect width="10" height="10" x="240" y="110" fill="#ffffff" shape-rendering="crispEdges" /><rect width="10" height="10" x="70" y="120" fill="#ffffff" shape-rendering="crispEdges" /><rect width="30" height="10" x="80" y="120" fill="#ff638d" shape-rendering="crispEdges" /><rect width="90" height="10" x="110" y="120" fill="#ffffff" shape-rendering="crispEdges" /><rect width="30" height="10" x="200" y="120" fill="#ff638d" shape-rendering="crispEdges" /><rect width="20" height="10" x="230" y="120" fill="#ffffff" shape-rendering="crispEdges" /><rect width="20" height="10" x="70" y="130" fill="#ffffff" shape-rendering="crispEdges" /><rect width="20" height="10" x="90" y="130" fill="#ff638d" shape-rendering="crispEdges" /><rect width="140" height="10" x="110" y="130" fill="#ffffff" shape-rendering="crispEdges" /><rect width="20" height="10" x="70" y="140" fill="#ffffff" shape-rendering="crispEdges" /><rect width="20" height="10" x="90" y="140" fill="#ff638d" shape-rendering="crispEdges" /><rect width="140" height="10" x="110" y="140" fill="#ffffff" shape-rendering="crispEdges" /><rect width="20" height="10" x="70" y="150" fill="#ffffff" shape-rendering="crispEdges" /><rect width="10" height="10" x="90" y="150" fill="#ff638d" shape-rendering="crispEdges" /><rect width="150" height="10" x="100" y="150" fill="#ffffff" shape-rendering="crispEdges" /><rect width="180" height="10" x="70" y="160" fill="#ffffff" shape-rendering="crispEdges" /><rect width="180" height="10" x="70" y="170" fill="#ffffff" shape-rendering="crispEdges" /><rect width="10" height="10" x="70" y="180" fill="#ff638d" shape-rendering="crispEdges" /><rect width="10" height="10" x="80" y="180" fill="#ffffff" shape-rendering="crispEdges" /><rect width="20" height="10" x="90" y="180" fill="#ff638d" shape-rendering="crispEdges" /><rect width="20" height="10" x="110" y="180" fill="#ffffff" shape-rendering="crispEdges" /><rect width="50" height="10" x="130" y="180" fill="#ff638d" shape-rendering="crispEdges" /><rect width="20" height="10" x="180" y="180" fill="#ffffff" shape-rendering="crispEdges" /><rect width="20" height="10" x="200" y="180" fill="#ff638d" shape-rendering="crispEdges" /><rect width="20" height="10" x="220" y="180" fill="#ffffff" shape-rendering="crispEdges" /><rect width="10" height="10" x="240" y="180" fill="#ff638d" shape-rendering="crispEdges" /><rect width="10" height="10" x="60" y="190" fill="#ff638d" shape-rendering="crispEdges" /><rect width="10" height="10" x="70" y="190" fill="#ffffff" shape-rendering="crispEdges" /><rect width="10" height="10" x="80" y="190" fill="#ff638d" shape-rendering="crispEdges" /><rect width="20" height="10" x="90" y="190" fill="#ffffff" shape-rendering="crispEdges" /><rect width="20" height="10" x="110" y="190" fill="#ff638d" shape-rendering="crispEdges" /><rect width="50" height="10" x="130" y="190" fill="#ffffff" shape-rendering="crispEdges" /><rect width="20" height="10" x="180" y="190" fill="#ff638d" shape-rendering="crispEdges" /><rect width="20" height="10" x="200" y="190" fill="#ffffff" shape-rendering="crispEdges" /><rect width="20" height="10" x="220" y="190" fill="#ff638d" shape-rendering="crispEdges" /><rect width="10" height="10" x="240" y="190" fill="#ffffff" shape-rendering="crispEdges" /><rect width="10" height="10" x="250" y="190" fill="#ff638d" shape-rendering="crispEdges" /><rect width="200" height="10" x="60" y="200" fill="#ff638d" shape-rendering="crispEdges" /></svg>