<svg width="320" height="320" viewBox="0 0 320 320" xmlns="http://www.w3.org/2000/svg" shape-rendering="crispEdges"><rect width="100%" height="100%" fill="none" /><rect width="20" height="10" x="150" y="20" fill="#d31e14" shape-rendering="crispEdges" /><rect width="60" height="10" x="130" y="30" fill="#d31e14" shape-rendering="crispEdges" /><rect width="20" height="10" x="120" y="40" fill="#f83001" shape-rendering="crispEdges" /><rect width="10" height="10" x="140" y="40" fill="#d31e14" shape-rendering="crispEdges" /><rect width="20" height="10" x="150" y="40" fill="#f83001" shape-rendering="crispEdges" /><rect width="10" height="10" x="170" y="40" fill="#d31e14" shape-rendering="crispEdges" /><rect width="20" height="10" x="180" y="40" fill="#f83001" shape-rendering="crispEdges" /><rect width="30" height="10" x="110" y="50" fill="#f83001" shape-rendering="crispEdges" /><rect width="10" height="10" x="140" y="50" fill="#d31e14" shape-rendering="crispEdges" /><rect width="20" height="10" x="150" y="50" fill="#f83001" shape-rendering="crispEdges" /><rect width="10" height="10" x="170" y="50" fill="#d31e14" shape-rendering="crispEdges" /><rect width="30" height="10" x="180" y="50" fill="#f83001" shape-rendering="crispEdges" /><rect width="30" height="10" x="100" y="60" fill="#f83001" shape-rendering="crispEdges" /><rect width="10" height="10" x="130" y="60" fill="#d31e14" shape-rendering="crispEdges" /><rect width="40" height="10" x="140" y="60" fill="#f83001" shape-rendering="crispEdges" /><rect width="10" height="10" x="180" y="60" fill="#d31e14" shape-rendering="crispEdges" /><rect width="30" height="10" x="190" y="60" fill="#f83001" shape-rendering="crispEdges" /><rect width="30" height="10" x="100" y="70" fill="#f83001" shape-rendering="crispEdges" /><rect width="10" height="10" x="130" y="70" fill="#d31e14" shape-rendering="crispEdges" /><rect width="40" height="10" x="140" y="70" fill="#f83001" shape-rendering="crispEdges" /><rect width="10" height="10" x="180" y="70" fill="#d31e14" shape-rendering="crispEdges" /><rect width="30" height="10" x="190" y="70" fill="#f83001" shape-rendering="crispEdges" /><rect width="30" height="10" x="90" y="80" fill="#f83001" shape-rendering="crispEdges" /><rect width="10" height="10" x="120" y="80" fill="#d31e14" shape-rendering="crispEdges" /><rect width="60" height="10" x="130" y="80" fill="#f83001" shape-rendering="crispEdges" /><rect width="10" height="10" x="190" y="80" fill="#d31e14" shape-rendering="crispEdges" /><rect width="30" height="10" x="200" y="80" fill="#f83001" shape-rendering="crispEdges" /><rect width="30" height="10" x="90" y="90" fill="#f83001" shape-rendering="crispEdges" /><rect width="10" height="10" x="120" y="90" fill="#d31e14" shape-rendering="crispEdges" /><rect width="60" height="10" x="130" y="90" fill="#f83001" shape-rendering="crispEdges" /><rect width="10" height="10" x="190" y="90" fill="#d31e14" shape-rendering="crispEdges" /><rect width="30" height="10" x="200" y="90" fill="#f83001" shape-rendering="crispEdges" /><rect width="180" height="10" x="70" y="100" fill="#d31e14" shape-rendering="crispEdges" /><rect width="180" height="10" x="70" y="110" fill="#d31e14" shape-rendering="crispEdges" /><rect width="140" height="10" x="90" y="120" fill="#f83001" shape-rendering="crispEdges" /><rect width="140" height="10" x="90" y="130" fill="#f83001" shape-rendering="crispEdges" /><rect width="20" height="10" x="50" y="140" fill="#f83001" shape-rendering="crispEdges" /><rect width="10" height="10" x="70" y="140" fill="#000000" shape-rendering="crispEdges" /><rect width="160" height="10" x="80" y="140" fill="#d31e14" shape-rendering="crispEdges" /><rect width="10" height="10" x="240" y="140" fill="#000000" shape-rendering="crispEdges" /><rect width="20" height="10" x="250" y="140" fill="#f83001" shape-rendering="crispEdges" /><rect width="20" height="10" x="50" y="150" fill="#f83001" shape-rendering="crispEdges" /><rect width="10" height="10" x="70" y="150" fill="#000000" shape-rendering="crispEdges" /><rect width="160" height="10" x="80" y="150" fill="#d31e14" shape-rendering="crispEdges" /><rect width="10" height="10" x="240" y="150" fill="#000000" shape-rendering="crispEdges" /><rect width="20" height="10" x="250" y="150" fill="#f83001" shape-rendering="crispEdges" /><rect width="10" height="10" x="40" y="160" fill="#d31e14" shape-rendering="crispEdges" /><rect width="20" height="10" x="50" y="160" fill="#f83001" shape-rendering="crispEdges" /><rect width="10" height="10" x="70" y="160" fill="#000000" shape-rendering="crispEdges" /><rect width="160" height="10" x="80" y="160" fill="#d31e14" shape-rendering="crispEdges" /><rect width="10" height="10" x="240" y="160" fill="#000000" shape-rendering="crispEdges" /><rect width="20" height="10" x="250" y="160" fill="#f83001" shape-rendering="crispEdges" /><rect width="10" height="10" x="270" y="160" fill="#d31e14" shape-rendering="crispEdges" /><rect width="10" height="10" x="40" y="170" fill="#d31e14" shape-rendering="crispEdges" /><rect width="20" height="10" x="50" y="170" fill="#f83001" shape-rendering="crispEdges" /><rect width="10" height="10" x="70" y="170" fill="#000000" shape-rendering="crispEdges" /><rect width="160" height="10" x="80" y="170" fill="#d31e14" shape-rendering="crispEdges" /><rect width="10" height="10" x="240" y="170" fill="#000000" shape-rendering="crispEdges" /><rect width="20" height="10" x="250" y="170" fill="#f83001" shape-rendering="crispEdges" /><rect width="10" height="10" x="270" y="170" fill="#d31e14" shape-rendering="crispEdges" /><rect width="20" height="10" x="50" y="180" fill="#f83001" shape-rendering="crispEdges" /><rect width="10" height="10" x="70" y="180" fill="#000000" shape-rendering="crispEdges" /><rect width="30" height="10" x="80" y="180" fill="#d31e14" shape-rendering="crispEdges" /><rect width="110" height="10" x="110" y="180" fill="#000000" shape-rendering="crispEdges" /><rect width="20" height="10" x="220" y="180" fill="#d31e14" shape-rendering="crispEdges" /><rect width="10" height="10" x="240" y="180" fill="#000000" shape-rendering="crispEdges" /><rect width="20" height="10" x="250" y="180" fill="#f83001" shape-rendering="crispEdges" /><rect width="20" height="10" x="50" y="190" fill="#f83001" shape-rendering="crispEdges" /><rect width="10" height="10" x="70" y="190" fill="#000000" shape-rendering="crispEdges" /><rect width="160" height="10" x="80" y="190" fill="#d31e14" shape-rendering="crispEdges" /><rect width="10" height="10" x="240" y="190" fill="#000000" shape-rendering="crispEdges" /><rect width="20" height="10" x="250" y="190" fill="#f83001" shape-rendering="crispEdges" /><rect width="140" height="10" x="90" y="200" fill="#f83001" shape-rendering="crispEdges" /></svg>