<svg width="320" height="320" viewBox="0 0 320 320" xmlns="http://www.w3.org/2000/svg" shape-rendering="crispEdges"><rect width="100%" height="100%" fill="none" /><rect width="140" height="10" x="90" y="30" fill="#667af9" shape-rendering="crispEdges" /><rect width="140" height="10" x="90" y="40" fill="#667af9" shape-rendering="crispEdges" /><rect width="20" height="10" x="70" y="50" fill="#667af9" shape-rendering="crispEdges" /><rect width="20" height="10" x="230" y="50" fill="#667af9" shape-rendering="crispEdges" /><rect width="20" height="10" x="70" y="60" fill="#667af9" shape-rendering="crispEdges" /><rect width="20" height="10" x="230" y="60" fill="#667af9" shape-rendering="crispEdges" /><rect width="20" height="10" x="70" y="70" fill="#667af9" shape-rendering="crispEdges" /><rect width="20" height="10" x="230" y="70" fill="#667af9" shape-rendering="crispEdges" /><rect width="20" height="10" x="50" y="80" fill="#5648ed" shape-rendering="crispEdges" /><rect width="20" height="10" x="70" y="80" fill="#667af9" shape-rendering="crispEdges" /><rect width="140" height="10" x="90" y="80" fill="#5648ed" shape-rendering="crispEdges" /><rect width="20" height="10" x="230" y="80" fill="#667af9" shape-rendering="crispEdges" /><rect width="20" height="10" x="250" y="80" fill="#5648ed" shape-rendering="crispEdges" /><rect width="10" height="10" x="50" y="90" fill="#5648ed" shape-rendering="crispEdges" /><rect width="10" height="10" x="60" y="90" fill="#ffc110" shape-rendering="crispEdges" /><rect width="20" height="10" x="70" y="90" fill="#667af9" shape-rendering="crispEdges" /><rect width="40" height="10" x="90" y="90" fill="#5648ed" shape-rendering="crispEdges" /><rect width="60" height="10" x="130" y="90" fill="#ffc110" shape-rendering="crispEdges" /><rect width="40" height="10" x="190" y="90" fill="#5648ed" shape-rendering="crispEdges" /><rect width="20" height="10" x="230" y="90" fill="#667af9" shape-rendering="crispEdges" /><rect width="10" height="10" x="250" y="90" fill="#ffc110" shape-rendering="crispEdges" /><rect width="10" height="10" x="260" y="90" fill="#5648ed" shape-rendering="crispEdges" /><rect width="10" height="10" x="40" y="100" fill="#ffc110" shape-rendering="crispEdges" /><rect width="10" height="10" x="50" y="100" fill="#5648ed" shape-rendering="crispEdges" /><rect width="20" height="10" x="60" y="100" fill="#ffc110" shape-rendering="crispEdges" /><rect width="60" height="10" x="80" y="100" fill="#5648ed" shape-rendering="crispEdges" /><rect width="40" height="10" x="140" y="100" fill="#ffc110" shape-rendering="crispEdges" /><rect width="60" height="10" x="180" y="100" fill="#5648ed" shape-rendering="crispEdges" /><rect width="20" height="10" x="240" y="100" fill="#ffc110" shape-rendering="crispEdges" /><rect width="10" height="10" x="260" y="100" fill="#5648ed" shape-rendering="crispEdges" /><rect width="10" height="10" x="40" y="110" fill="#ffc110" shape-rendering="crispEdges" /><rect width="80" height="10" x="50" y="110" fill="#5648ed" shape-rendering="crispEdges" /><rect width="60" height="10" x="130" y="110" fill="#ffc110" shape-rendering="crispEdges" /><rect width="80" height="10" x="190" y="110" fill="#5648ed" shape-rendering="crispEdges" /><rect width="10" height="10" x="40" y="120" fill="#667af9" shape-rendering="crispEdges" /><rect width="220" height="10" x="50" y="120" fill="#5648ed" shape-rendering="crispEdges" /><rect width="10" height="10" x="30" y="130" fill="#667af9" shape-rendering="crispEdges" /><rect width="10" height="10" x="50" y="130" fill="#667af9" shape-rendering="crispEdges" /><rect width="210" height="10" x="60" y="130" fill="#5648ed" shape-rendering="crispEdges" /><rect width="10" height="10" x="30" y="140" fill="#667af9" shape-rendering="crispEdges" /><rect width="10" height="10" x="50" y="140" fill="#667af9" shape-rendering="crispEdges" /><rect width="210" height="10" x="60" y="140" fill="#5648ed" shape-rendering="crispEdges" /><rect width="10" height="10" x="30" y="150" fill="#667af9" shape-rendering="crispEdges" /><rect width="10" height="10" x="40" y="150" fill="#5648ed" shape-rendering="crispEdges" /><rect width="10" height="10" x="50" y="150" fill="#667af9" shape-rendering="crispEdges" /><rect width="220" height="10" x="60" y="150" fill="#5648ed" shape-rendering="crispEdges" /><rect width="10" height="10" x="30" y="160" fill="#667af9" shape-rendering="crispEdges" /><rect width="10" height="10" x="40" y="160" fill="#5648ed" shape-rendering="crispEdges" /><rect width="10" height="10" x="50" y="160" fill="#667af9" shape-rendering="crispEdges" /><rect width="220" height="10" x="60" y="160" fill="#5648ed" shape-rendering="crispEdges" /><rect width="240" height="10" x="40" y="170" fill="#5648ed" shape-rendering="crispEdges" /><rect width="70" height="10" x="40" y="180" fill="#5648ed" shape-rendering="crispEdges" /><rect width="30" height="10" x="110" y="180" fill="#da42cb" shape-rendering="crispEdges" /><rect width="140" height="10" x="140" y="180" fill="#5648ed" shape-rendering="crispEdges" /><rect width="240" height="10" x="40" y="190" fill="#5648ed" shape-rendering="crispEdges" /><rect width="220" height="10" x="50" y="200" fill="#5648ed" shape-rendering="crispEdges" /></svg>