<svg width="320" height="320" viewBox="0 0 320 320" xmlns="http://www.w3.org/2000/svg" shape-rendering="crispEdges"><rect width="100%" height="100%" fill="none" /><rect width="20" height="10" x="90" y="20" fill="#000000" shape-rendering="crispEdges" /><rect width="20" height="10" x="140" y="20" fill="#f3322c" shape-rendering="crispEdges" /><rect width="20" height="10" x="190" y="20" fill="#f3322c" shape-rendering="crispEdges" /><rect width="10" height="10" x="80" y="30" fill="#abaaa8" shape-rendering="crispEdges" /><rect width="10" height="10" x="120" y="30" fill="#000000" shape-rendering="crispEdges" /><rect width="10" height="10" x="130" y="30" fill="#abaaa8" shape-rendering="crispEdges" /><rect width="10" height="10" x="170" y="30" fill="#f3322c" shape-rendering="crispEdges" /><rect width="10" height="10" x="180" y="30" fill="#abaaa8" shape-rendering="crispEdges" /><rect width="10" height="10" x="220" y="30" fill="#f3322c" shape-rendering="crispEdges" /><rect width="200" height="10" x="60" y="40" fill="#4b4949" shape-rendering="crispEdges" /><rect width="10" height="10" x="60" y="50" fill="#4b4949" shape-rendering="crispEdges" /><rect width="30" height="10" x="70" y="50" fill="#068940" shape-rendering="crispEdges" /><rect width="20" height="10" x="100" y="50" fill="#4b4949" shape-rendering="crispEdges" /><rect width="30" height="10" x="120" y="50" fill="#068940" shape-rendering="crispEdges" /><rect width="20" height="10" x="150" y="50" fill="#4b4949" shape-rendering="crispEdges" /><rect width="30" height="10" x="170" y="50" fill="#068940" shape-rendering="crispEdges" /><rect width="20" height="10" x="200" y="50" fill="#4b4949" shape-rendering="crispEdges" /><rect width="10" height="10" x="220" y="50" fill="#000000" shape-rendering="crispEdges" /><rect width="10" height="10" x="230" y="50" fill="#4b4949" shape-rendering="crispEdges" /><rect width="10" height="10" x="240" y="50" fill="#000000" shape-rendering="crispEdges" /><rect width="10" height="10" x="250" y="50" fill="#4b4949" shape-rendering="crispEdges" /><rect width="10" height="10" x="60" y="60" fill="#4b4949" shape-rendering="crispEdges" /><rect width="10" height="10" x="70" y="60" fill="#068940" shape-rendering="crispEdges" /><rect width="10" height="10" x="80" y="60" fill="#0b5027" shape-rendering="crispEdges" /><rect width="10" height="10" x="90" y="60" fill="#068940" shape-rendering="crispEdges" /><rect width="20" height="10" x="100" y="60" fill="#4b4949" shape-rendering="crispEdges" /><rect width="10" height="10" x="120" y="60" fill="#068940" shape-rendering="crispEdges" /><rect width="10" height="10" x="130" y="60" fill="#0b5027" shape-rendering="crispEdges" /><rect width="10" height="10" x="140" y="60" fill="#068940" shape-rendering="crispEdges" /><rect width="20" height="10" x="150" y="60" fill="#4b4949" shape-rendering="crispEdges" /><rect width="10" height="10" x="170" y="60" fill="#068940" shape-rendering="crispEdges" /><rect width="10" height="10" x="180" y="60" fill="#0b5027" shape-rendering="crispEdges" /><rect width="10" height="10" x="190" y="60" fill="#068940" shape-rendering="crispEdges" /><rect width="20" height="10" x="200" y="60" fill="#4b4949" shape-rendering="crispEdges" /><rect width="10" height="10" x="220" y="60" fill="#f3322c" shape-rendering="crispEdges" /><rect width="10" height="10" x="230" y="60" fill="#4b4949" shape-rendering="crispEdges" /><rect width="10" height="10" x="240" y="60" fill="#000000" shape-rendering="crispEdges" /><rect width="10" height="10" x="250" y="60" fill="#4b4949" shape-rendering="crispEdges" /><rect width="160" height="10" x="60" y="70" fill="#4b4949" shape-rendering="crispEdges" /><rect width="10" height="10" x="220" y="70" fill="#abf131" shape-rendering="crispEdges" /><rect width="10" height="10" x="230" y="70" fill="#4b4949" shape-rendering="crispEdges" /><rect width="10" height="10" x="240" y="70" fill="#6b7212" shape-rendering="crispEdges" /><rect width="10" height="10" x="250" y="70" fill="#4b4949" shape-rendering="crispEdges" /><rect width="20" height="10" x="60" y="80" fill="#4b4949" shape-rendering="crispEdges" /><rect width="10" height="10" x="80" y="80" fill="#000000" shape-rendering="crispEdges" /><rect width="40" height="10" x="90" y="80" fill="#4b4949" shape-rendering="crispEdges" /><rect width="10" height="10" x="130" y="80" fill="#000000" shape-rendering="crispEdges" /><rect width="30" height="10" x="140" y="80" fill="#4b4949" shape-rendering="crispEdges" /><rect width="30" height="10" x="170" y="80" fill="#ffffff" shape-rendering="crispEdges" /><rect width="20" height="10" x="200" y="80" fill="#4b4949" shape-rendering="crispEdges" /><rect width="10" height="10" x="220" y="80" fill="#abf131" shape-rendering="crispEdges" /><rect width="10" height="10" x="230" y="80" fill="#4b4949" shape-rendering="crispEdges" /><rect width="10" height="10" x="240" y="80" fill="#abf131" shape-rendering="crispEdges" /><rect width="10" height="10" x="250" y="80" fill="#4b4949" shape-rendering="crispEdges" /><rect width="20" height="10" x="60" y="90" fill="#4b4949" shape-rendering="crispEdges" /><rect width="10" height="10" x="80" y="90" fill="#000000" shape-rendering="crispEdges" /><rect width="40" height="10" x="90" y="90" fill="#4b4949" shape-rendering="crispEdges" /><rect width="10" height="10" x="130" y="90" fill="#000000" shape-rendering="crispEdges" /><rect width="30" height="10" x="140" y="90" fill="#4b4949" shape-rendering="crispEdges" /><rect width="30" height="10" x="170" y="90" fill="#abaaa8" shape-rendering="crispEdges" /><rect width="20" height="10" x="200" y="90" fill="#4b4949" shape-rendering="crispEdges" /><rect width="10" height="10" x="220" y="90" fill="#abf131" shape-rendering="crispEdges" /><rect width="10" height="10" x="230" y="90" fill="#4b4949" shape-rendering="crispEdges" /><rect width="10" height="10" x="240" y="90" fill="#abf131" shape-rendering="crispEdges" /><rect width="10" height="10" x="250" y="90" fill="#4b4949" shape-rendering="crispEdges" /><rect width="20" height="10" x="60" y="100" fill="#4b4949" shape-rendering="crispEdges" /><rect width="10" height="10" x="80" y="100" fill="#000000" shape-rendering="crispEdges" /><rect width="40" height="10" x="90" y="100" fill="#4b4949" shape-rendering="crispEdges" /><rect width="10" height="10" x="130" y="100" fill="#000000" shape-rendering="crispEdges" /><rect width="40" height="10" x="140" y="100" fill="#4b4949" shape-rendering="crispEdges" /><rect width="10" height="10" x="180" y="100" fill="#000000" shape-rendering="crispEdges" /><rect width="70" height="10" x="190" y="100" fill="#4b4949" shape-rendering="crispEdges" /><rect width="20" height="10" x="60" y="110" fill="#4b4949" shape-rendering="crispEdges" /><rect width="10" height="10" x="80" y="110" fill="#000000" shape-rendering="crispEdges" /><rect width="40" height="10" x="90" y="110" fill="#4b4949" shape-rendering="crispEdges" /><rect width="10" height="10" x="130" y="110" fill="#000000" shape-rendering="crispEdges" /><rect width="40" height="10" x="140" y="110" fill="#4b4949" shape-rendering="crispEdges" /><rect width="10" height="10" x="180" y="110" fill="#000000" shape-rendering="crispEdges" /><rect width="70" height="10" x="190" y="110" fill="#4b4949" shape-rendering="crispEdges" /><rect width="20" height="10" x="60" y="120" fill="#4b4949" shape-rendering="crispEdges" /><rect width="10" height="10" x="80" y="120" fill="#000000" shape-rendering="crispEdges" /><rect width="40" height="10" x="90" y="120" fill="#4b4949" shape-rendering="crispEdges" /><rect width="10" height="10" x="130" y="120" fill="#000000" shape-rendering="crispEdges" /><rect width="40" height="10" x="140" y="120" fill="#4b4949" shape-rendering="crispEdges" /><rect width="10" height="10" x="180" y="120" fill="#000000" shape-rendering="crispEdges" /><rect width="50" height="10" x="190" y="120" fill="#4b4949" shape-rendering="crispEdges" /><rect width="10" height="10" x="240" y="120" fill="#62616d" shape-rendering="crispEdges" /><rect width="10" height="10" x="250" y="120" fill="#4b4949" shape-rendering="crispEdges" /><rect width="20" height="10" x="60" y="130" fill="#4b4949" shape-rendering="crispEdges" /><rect width="10" height="10" x="80" y="130" fill="#000000" shape-rendering="crispEdges" /><rect width="40" height="10" x="90" y="130" fill="#4b4949" shape-rendering="crispEdges" /><rect width="10" height="10" x="130" y="130" fill="#000000" shape-rendering="crispEdges" /><rect width="40" height="10" x="140" y="130" fill="#4b4949" shape-rendering="crispEdges" /><rect width="10" height="10" x="180" y="130" fill="#000000" shape-rendering="crispEdges" /><rect width="70" height="10" x="190" y="130" fill="#4b4949" shape-rendering="crispEdges" /><rect width="20" height="10" x="60" y="140" fill="#4b4949" shape-rendering="crispEdges" /><rect width="10" height="10" x="80" y="140" fill="#000000" shape-rendering="crispEdges" /><rect width="40" height="10" x="90" y="140" fill="#4b4949" shape-rendering="crispEdges" /><rect width="10" height="10" x="130" y="140" fill="#000000" shape-rendering="crispEdges" /><rect width="40" height="10" x="140" y="140" fill="#4b4949" shape-rendering="crispEdges" /><rect width="10" height="10" x="180" y="140" fill="#000000" shape-rendering="crispEdges" /><rect width="50" height="10" x="190" y="140" fill="#4b4949" shape-rendering="crispEdges" /><rect width="10" height="10" x="240" y="140" fill="#62616d" shape-rendering="crispEdges" /><rect width="10" height="10" x="250" y="140" fill="#4b4949" shape-rendering="crispEdges" /><rect width="20" height="10" x="60" y="150" fill="#4b4949" shape-rendering="crispEdges" /><rect width="10" height="10" x="80" y="150" fill="#000000" shape-rendering="crispEdges" /><rect width="40" height="10" x="90" y="150" fill="#4b4949" shape-rendering="crispEdges" /><rect width="10" height="10" x="130" y="150" fill="#000000" shape-rendering="crispEdges" /><rect width="40" height="10" x="140" y="150" fill="#4b4949" shape-rendering="crispEdges" /><rect width="10" height="10" x="180" y="150" fill="#000000" shape-rendering="crispEdges" /><rect width="70" height="10" x="190" y="150" fill="#4b4949" shape-rendering="crispEdges" /><rect width="20" height="10" x="60" y="160" fill="#4b4949" shape-rendering="crispEdges" /><rect width="10" height="10" x="80" y="160" fill="#000000" shape-rendering="crispEdges" /><rect width="40" height="10" x="90" y="160" fill="#4b4949" shape-rendering="crispEdges" /><rect width="10" height="10" x="130" y="160" fill="#000000" shape-rendering="crispEdges" /><rect width="40" height="10" x="140" y="160" fill="#4b4949" shape-rendering="crispEdges" /><rect width="10" height="10" x="180" y="160" fill="#000000" shape-rendering="crispEdges" /><rect width="50" height="10" x="190" y="160" fill="#4b4949" shape-rendering="crispEdges" /><rect width="10" height="10" x="240" y="160" fill="#62616d" shape-rendering="crispEdges" /><rect width="10" height="10" x="250" y="160" fill="#4b4949" shape-rendering="crispEdges" /><rect width="10" height="10" x="60" y="170" fill="#4b4949" shape-rendering="crispEdges" /><rect width="30" height="10" x="70" y="170" fill="#ffffff" shape-rendering="crispEdges" /><rect width="30" height="10" x="100" y="170" fill="#4b4949" shape-rendering="crispEdges" /><rect width="10" height="10" x="130" y="170" fill="#000000" shape-rendering="crispEdges" /><rect width="40" height="10" x="140" y="170" fill="#4b4949" shape-rendering="crispEdges" /><rect width="10" height="10" x="180" y="170" fill="#000000" shape-rendering="crispEdges" /><rect width="70" height="10" x="190" y="170" fill="#4b4949" shape-rendering="crispEdges" /><rect width="10" height="10" x="60" y="180" fill="#4b4949" shape-rendering="crispEdges" /><rect width="30" height="10" x="70" y="180" fill="#abaaa8" shape-rendering="crispEdges" /><rect width="20" height="10" x="100" y="180" fill="#4b4949" shape-rendering="crispEdges" /><rect width="30" height="10" x="120" y="180" fill="#ffffff" shape-rendering="crispEdges" /><rect width="30" height="10" x="150" y="180" fill="#4b4949" shape-rendering="crispEdges" /><rect width="10" height="10" x="180" y="180" fill="#000000" shape-rendering="crispEdges" /><rect width="40" height="10" x="190" y="180" fill="#4b4949" shape-rendering="crispEdges" /><rect width="20" height="10" x="230" y="180" fill="#62616d" shape-rendering="crispEdges" /><rect width="10" height="10" x="250" y="180" fill="#4b4949" shape-rendering="crispEdges" /><rect width="20" height="10" x="60" y="190" fill="#4b4949" shape-rendering="crispEdges" /><rect width="10" height="10" x="80" y="190" fill="#000000" shape-rendering="crispEdges" /><rect width="30" height="10" x="90" y="190" fill="#4b4949" shape-rendering="crispEdges" /><rect width="30" height="10" x="120" y="190" fill="#abaaa8" shape-rendering="crispEdges" /><rect width="30" height="10" x="150" y="190" fill="#4b4949" shape-rendering="crispEdges" /><rect width="10" height="10" x="180" y="190" fill="#000000" shape-rendering="crispEdges" /><rect width="40" height="10" x="190" y="190" fill="#4b4949" shape-rendering="crispEdges" /><rect width="20" height="10" x="230" y="190" fill="#62616d" shape-rendering="crispEdges" /><rect width="10" height="10" x="250" y="190" fill="#4b4949" shape-rendering="crispEdges" /><rect width="200" height="10" x="60" y="200" fill="#4b4949" shape-rendering="crispEdges" /></svg>