<svg width="320" height="320" viewBox="0 0 320 320" xmlns="http://www.w3.org/2000/svg" shape-rendering="crispEdges"><rect width="100%" height="100%" fill="none" /><rect width="50" height="10" x="110" y="30" fill="#b2958d" shape-rendering="crispEdges" /><rect width="10" height="10" x="90" y="40" fill="#1f1d29" shape-rendering="crispEdges" /><rect width="80" height="10" x="130" y="40" fill="#b2958d" shape-rendering="crispEdges" /><rect width="20" height="10" x="90" y="50" fill="#1f1d29" shape-rendering="crispEdges" /><rect width="40" height="10" x="220" y="50" fill="#b2958d" shape-rendering="crispEdges" /><rect width="20" height="10" x="90" y="60" fill="#f3322c" shape-rendering="crispEdges" /><rect width="20" height="10" x="90" y="70" fill="#1f1d29" shape-rendering="crispEdges" /><rect width="10" height="10" x="150" y="70" fill="#1f1d29" shape-rendering="crispEdges" /><rect width="10" height="10" x="190" y="70" fill="#1f1d29" shape-rendering="crispEdges" /><rect width="10" height="10" x="230" y="70" fill="#1f1d29" shape-rendering="crispEdges" /><rect width="20" height="10" x="90" y="80" fill="#1f1d29" shape-rendering="crispEdges" /><rect width="20" height="10" x="140" y="80" fill="#1f1d29" shape-rendering="crispEdges" /><rect width="20" height="10" x="180" y="80" fill="#1f1d29" shape-rendering="crispEdges" /><rect width="20" height="10" x="220" y="80" fill="#1f1d29" shape-rendering="crispEdges" /><rect width="40" height="10" x="80" y="90" fill="#1f1d29" shape-rendering="crispEdges" /><rect width="30" height="10" x="130" y="90" fill="#1f1d29" shape-rendering="crispEdges" /><rect width="30" height="10" x="170" y="90" fill="#1f1d29" shape-rendering="crispEdges" /><rect width="30" height="10" x="210" y="90" fill="#1f1d29" shape-rendering="crispEdges" /><rect width="160" height="10" x="80" y="100" fill="#1f1d29" shape-rendering="crispEdges" /><rect width="160" height="10" x="80" y="110" fill="#1f1d29" shape-rendering="crispEdges" /><rect width="160" height="10" x="80" y="120" fill="#1f1d29" shape-rendering="crispEdges" /><rect width="160" height="10" x="80" y="130" fill="#1f1d29" shape-rendering="crispEdges" /><rect width="160" height="10" x="80" y="140" fill="#1f1d29" shape-rendering="crispEdges" /><rect width="160" height="10" x="80" y="150" fill="#1f1d29" shape-rendering="crispEdges" /><rect width="160" height="10" x="80" y="160" fill="#1f1d29" shape-rendering="crispEdges" /><rect width="160" height="10" x="80" y="170" fill="#1f1d29" shape-rendering="crispEdges" /><rect width="20" height="10" x="80" y="180" fill="#1f1d29" shape-rendering="crispEdges" /><rect width="10" height="10" x="100" y="180" fill="#abaaa8" shape-rendering="crispEdges" /><rect width="10" height="10" x="110" y="180" fill="#1f1d29" shape-rendering="crispEdges" /><rect width="20" height="10" x="120" y="180" fill="#ffe939" shape-rendering="crispEdges" /><rect width="10" height="10" x="140" y="180" fill="#1f1d29" shape-rendering="crispEdges" /><rect width="20" height="10" x="150" y="180" fill="#ffe939" shape-rendering="crispEdges" /><rect width="10" height="10" x="170" y="180" fill="#1f1d29" shape-rendering="crispEdges" /><rect width="10" height="10" x="180" y="180" fill="#abaaa8" shape-rendering="crispEdges" /><rect width="50" height="10" x="190" y="180" fill="#1f1d29" shape-rendering="crispEdges" /><rect width="160" height="10" x="80" y="190" fill="#1f1d29" shape-rendering="crispEdges" /><rect width="160" height="10" x="80" y="200" fill="#1f1d29" shape-rendering="crispEdges" /></svg>