<svg id="svg" version="1.1" xmlns="http://www.w3.org/2000/svg" xmlns:xlink="http://www.w3.org/1999/xlink" width="400" height="400" viewBox="0, 0, 400,400"><g id="svgg"><path id="path0" d="M300.000 81.250 L 300.000 87.500 306.250 87.500 L 312.500 87.500 312.500 93.750 L 312.500 100.000 318.750 100.000 L 325.000 100.000 325.000 93.750 L 325.000 87.500 318.750 87.500 L 312.500 87.500 312.500 81.250 L 312.500 75.000 306.250 75.000 L 300.000 75.000 300.000 81.250 " stroke="none" fill="#ffffff" fill-rule="evenodd"></path><path id="path1" d="M100.000 56.250 L 100.000 62.500 87.500 62.500 L 75.000 62.500 75.000 68.750 L 75.000 75.000 68.750 75.000 L 62.500 75.000 62.500 81.250 L 62.500 87.500 56.250 87.500 L 50.000 87.500 50.000 100.000 L 50.000 112.500 43.750 112.500 L 37.500 112.500 37.500 143.750 L 37.500 175.000 43.750 175.000 L 50.000 175.000 50.000 187.500 L 50.000 200.000 56.250 200.000 L 62.500 200.000 62.500 206.250 L 62.500 212.500 68.750 212.500 L 75.000 212.500 75.000 218.750 L 75.000 225.000 87.500 225.000 L 100.000 225.000 100.000 231.250 L 100.000 237.500 200.000 237.500 L 300.000 237.500 300.000 231.250 L 300.000 225.000 312.500 225.000 L 325.000 225.000 325.000 218.750 L 325.000 212.500 331.250 212.500 L 337.500 212.500 337.500 206.250 L 337.500 200.000 343.750 200.000 L 350.000 200.000 350.000 187.500 L 350.000 175.000 356.250 175.000 L 362.500 175.000 362.500 143.750 L 362.500 112.500 356.250 112.500 L 350.000 112.500 350.000 100.000 L 350.000 87.500 343.750 87.500 L 337.500 87.500 337.500 81.250 L 337.500 75.000 331.250 75.000 L 325.000 75.000 325.000 68.750 L 325.000 62.500 312.500 62.500 L 300.000 62.500 300.000 56.250 L 300.000 50.000 200.000 50.000 L 100.000 50.000 100.000 56.250 M287.500 68.750 L 287.500 75.000 300.000 75.000 L 312.500 75.000 312.500 81.250 L 312.500 87.500 318.750 87.500 L 325.000 87.500 325.000 93.750 L 325.000 100.000 331.250 100.000 L 337.500 100.000 337.500 112.500 L 337.500 125.000 343.750 125.000 L 350.000 125.000 350.000 143.750 L 350.000 162.500 343.750 162.500 L 337.500 162.500 337.500 175.000 L 337.500 187.500 331.250 187.500 L 325.000 187.500 325.000 193.750 L 325.000 200.000 318.750 200.000 L 312.500 200.000 312.500 206.250 L 312.500 212.500 300.000 212.500 L 287.500 212.500 287.500 218.750 L 287.500 225.000 200.000 225.000 L 112.500 225.000 112.500 218.750 L 112.500 212.500 100.000 212.500 L 87.500 212.500 87.500 206.250 L 87.500 200.000 81.250 200.000 L 75.000 200.000 75.000 193.750 L 75.000 187.500 68.750 187.500 L 62.500 187.500 62.500 175.000 L 62.500 162.500 56.250 162.500 L 50.000 162.500 50.000 143.750 L 50.000 125.000 56.250 125.000 L 62.500 125.000 62.500 112.500 L 62.500 100.000 68.750 100.000 L 75.000 100.000 75.000 93.750 L 75.000 87.500 81.250 87.500 L 87.500 87.500 87.500 81.250 L 87.500 75.000 100.000 75.000 L 112.500 75.000 112.500 68.750 L 112.500 62.500 200.000 62.500 L 287.500 62.500 287.500 68.750 " stroke="none" fill="#9ee4dc" fill-rule="evenodd"></path><path id="path2" d="M112.500 68.750 L 112.500 75.000 100.000 75.000 L 87.500 75.000 87.500 81.250 L 87.500 87.500 81.250 87.500 L 75.000 87.500 75.000 93.750 L 75.000 100.000 68.750 100.000 L 62.500 100.000 62.500 112.500 L 62.500 125.000 56.250 125.000 L 50.000 125.000 50.000 143.750 L 50.000 162.500 56.250 162.500 L 62.500 162.500 62.500 175.000 L 62.500 187.500 68.750 187.500 L 75.000 187.500 75.000 193.750 L 75.000 200.000 81.250 200.000 L 87.500 200.000 87.500 206.250 L 87.500 212.500 100.000 212.500 L 112.500 212.500 112.500 218.750 L 112.500 225.000 200.000 225.000 L 287.500 225.000 287.500 218.750 L 287.500 212.500 300.000 212.500 L 312.500 212.500 312.500 206.250 L 312.500 200.000 318.750 200.000 L 325.000 200.000 325.000 193.750 L 325.000 187.500 331.250 187.500 L 337.500 187.500 337.500 175.000 L 337.500 162.500 343.750 162.500 L 350.000 162.500 350.000 143.750 L 350.000 125.000 343.750 125.000 L 337.500 125.000 337.500 112.500 L 337.500 100.000 325.000 100.000 L 312.500 100.000 312.500 93.750 L 312.500 87.500 306.250 87.500 L 300.000 87.500 300.000 81.250 L 300.000 75.000 293.750 75.000 L 287.500 75.000 287.500 68.750 L 287.500 62.500 200.000 62.500 L 112.500 62.500 112.500 68.750 " stroke="none" fill="#adc8cc" fill-rule="evenodd"></path><path id="path3" d="M100.000 250.000 L 100.000 262.500 200.000 262.500 L 300.000 262.500 300.000 250.000 L 300.000 237.500 200.000 237.500 L 100.000 237.500 100.000 250.000 " stroke="none" fill="#464646" fill-rule="evenodd"></path><path id="path4" d="" stroke="none" fill="#b888e8" fill-rule="evenodd"></path><path id="path5" d="" stroke="none" fill="#d88888" fill-rule="evenodd"></path><path id="path6" d="" stroke="none" fill="#90d088" fill-rule="evenodd"></path><path id="path7" d="" stroke="none" fill="#90d088" fill-rule="evenodd"></path><path id="path8" d="" stroke="none" fill="#90d088" fill-rule="evenodd"></path></g></svg>