<svg width="320" height="320" viewBox="0 0 320 320" xmlns="http://www.w3.org/2000/svg" shape-rendering="crispEdges"><rect width="100%" height="100%" fill="none" /><rect width="60" height="10" x="130" y="50" fill="#ffffff" shape-rendering="crispEdges" /><rect width="40" height="10" x="100" y="60" fill="#ffffff" shape-rendering="crispEdges" /><rect width="10" height="10" x="140" y="60" fill="#7cc4f2" shape-rendering="crispEdges" /><rect width="20" height="10" x="150" y="60" fill="#ffffff" shape-rendering="crispEdges" /><rect width="20" height="10" x="170" y="60" fill="#7cc4f2" shape-rendering="crispEdges" /><rect width="30" height="10" x="190" y="60" fill="#ffffff" shape-rendering="crispEdges" /><rect width="10" height="10" x="90" y="70" fill="#ffffff" shape-rendering="crispEdges" /><rect width="30" height="10" x="100" y="70" fill="#7cc4f2" shape-rendering="crispEdges" /><rect width="30" height="10" x="130" y="70" fill="#ffffff" shape-rendering="crispEdges" /><rect width="10" height="10" x="160" y="70" fill="#7cc4f2" shape-rendering="crispEdges" /><rect width="30" height="10" x="170" y="70" fill="#ffffff" shape-rendering="crispEdges" /><rect width="20" height="10" x="200" y="70" fill="#7cc4f2" shape-rendering="crispEdges" /><rect width="10" height="10" x="220" y="70" fill="#ffffff" shape-rendering="crispEdges" /><rect width="10" height="10" x="80" y="80" fill="#ffffff" shape-rendering="crispEdges" /><rect width="10" height="10" x="90" y="80" fill="#7cc4f2" shape-rendering="crispEdges" /><rect width="60" height="10" x="100" y="80" fill="#ffffff" shape-rendering="crispEdges" /><rect width="10" height="10" x="160" y="80" fill="#7cc4f2" shape-rendering="crispEdges" /><rect width="50" height="10" x="170" y="80" fill="#ffffff" shape-rendering="crispEdges" /><rect width="10" height="10" x="220" y="80" fill="#7cc4f2" shape-rendering="crispEdges" /><rect width="10" height="10" x="230" y="80" fill="#ffffff" shape-rendering="crispEdges" /><rect width="10" height="10" x="70" y="90" fill="#ffffff" shape-rendering="crispEdges" /><rect width="30" height="10" x="80" y="90" fill="#7cc4f2" shape-rendering="crispEdges" /><rect width="10" height="10" x="110" y="90" fill="#ffffff" shape-rendering="crispEdges" /><rect width="40" height="10" x="120" y="90" fill="#7cc4f2" shape-rendering="crispEdges" /><rect width="10" height="10" x="160" y="90" fill="#ffffff" shape-rendering="crispEdges" /><rect width="10" height="10" x="170" y="90" fill="#7cc4f2" shape-rendering="crispEdges" /><rect width="10" height="10" x="180" y="90" fill="#ffffff" shape-rendering="crispEdges" /><rect width="50" height="10" x="190" y="90" fill="#7cc4f2" shape-rendering="crispEdges" /><rect width="10" height="10" x="240" y="90" fill="#ffffff" shape-rendering="crispEdges" /><rect width="60" height="10" x="70" y="100" fill="#ffffff" shape-rendering="crispEdges" /><rect width="10" height="10" x="130" y="100" fill="#7cc4f2" shape-rendering="crispEdges" /><rect width="60" height="10" x="140" y="100" fill="#ffffff" shape-rendering="crispEdges" /><rect width="10" height="10" x="200" y="100" fill="#7cc4f2" shape-rendering="crispEdges" /><rect width="40" height="10" x="210" y="100" fill="#ffffff" shape-rendering="crispEdges" /><rect width="10" height="10" x="60" y="110" fill="#ffffff" shape-rendering="crispEdges" /><rect width="10" height="10" x="70" y="110" fill="#7cc4f2" shape-rendering="crispEdges" /><rect width="160" height="10" x="80" y="110" fill="#ffffff" shape-rendering="crispEdges" /><rect width="10" height="10" x="240" y="110" fill="#7cc4f2" shape-rendering="crispEdges" /><rect width="10" height="10" x="250" y="110" fill="#ffffff" shape-rendering="crispEdges" /><rect width="50" height="10" x="60" y="120" fill="#ffffff" shape-rendering="crispEdges" /><rect width="50" height="10" x="110" y="120" fill="#7cc4f2" shape-rendering="crispEdges" /><rect width="10" height="10" x="160" y="120" fill="#ffffff" shape-rendering="crispEdges" /><rect width="60" height="10" x="170" y="120" fill="#7cc4f2" shape-rendering="crispEdges" /><rect width="30" height="10" x="230" y="120" fill="#ffffff" shape-rendering="crispEdges" /><rect width="200" height="10" x="60" y="130" fill="#ffffff" shape-rendering="crispEdges" /><rect width="180" height="10" x="50" y="140" fill="#ffffff" shape-rendering="crispEdges" /><rect width="10" height="10" x="230" y="140" fill="#7cc4f2" shape-rendering="crispEdges" /><rect width="10" height="10" x="240" y="140" fill="#ffffff" shape-rendering="crispEdges" /><rect width="10" height="10" x="250" y="140" fill="#7cc4f2" shape-rendering="crispEdges" /><rect width="20" height="10" x="260" y="140" fill="#ffffff" shape-rendering="crispEdges" /><rect width="10" height="10" x="50" y="150" fill="#ffffff" shape-rendering="crispEdges" /><rect width="20" height="10" x="60" y="150" fill="#7cc4f2" shape-rendering="crispEdges" /><rect width="90" height="10" x="80" y="150" fill="#ffffff" shape-rendering="crispEdges" /><rect width="60" height="10" x="170" y="150" fill="#7cc4f2" shape-rendering="crispEdges" /><rect width="10" height="10" x="230" y="150" fill="#ffffff" shape-rendering="crispEdges" /><rect width="10" height="10" x="240" y="150" fill="#7cc4f2" shape-rendering="crispEdges" /><rect width="40" height="10" x="250" y="150" fill="#ffffff" shape-rendering="crispEdges" /><rect width="30" height="10" x="50" y="160" fill="#ffffff" shape-rendering="crispEdges" /><rect width="10" height="10" x="80" y="160" fill="#7cc4f2" shape-rendering="crispEdges" /><rect width="40" height="10" x="90" y="160" fill="#ffffff" shape-rendering="crispEdges" /><rect width="10" height="10" x="130" y="160" fill="#7cc4f2" shape-rendering="crispEdges" /><rect width="50" height="10" x="140" y="160" fill="#ffffff" shape-rendering="crispEdges" /><rect width="10" height="10" x="190" y="160" fill="#7cc4f2" shape-rendering="crispEdges" /><rect width="20" height="10" x="200" y="160" fill="#ffffff" shape-rendering="crispEdges" /><rect width="10" height="10" x="220" y="160" fill="#7cc4f2" shape-rendering="crispEdges" /><rect width="10" height="10" x="230" y="160" fill="#ffffff" shape-rendering="crispEdges" /><rect width="10" height="10" x="240" y="160" fill="#7cc4f2" shape-rendering="crispEdges" /><rect width="20" height="10" x="250" y="160" fill="#ffffff" shape-rendering="crispEdges" /><rect width="10" height="10" x="270" y="160" fill="#7cc4f2" shape-rendering="crispEdges" /><rect width="10" height="10" x="280" y="160" fill="#ffffff" shape-rendering="crispEdges" /><rect width="30" height="10" x="50" y="170" fill="#ffffff" shape-rendering="crispEdges" /><rect width="10" height="10" x="80" y="170" fill="#7cc4f2" shape-rendering="crispEdges" /><rect width="40" height="10" x="90" y="170" fill="#ffffff" shape-rendering="crispEdges" /><rect width="10" height="10" x="130" y="170" fill="#7cc4f2" shape-rendering="crispEdges" /><rect width="50" height="10" x="140" y="170" fill="#ffffff" shape-rendering="crispEdges" /><rect width="10" height="10" x="190" y="170" fill="#7cc4f2" shape-rendering="crispEdges" /><rect width="30" height="10" x="200" y="170" fill="#ffffff" shape-rendering="crispEdges" /><rect width="10" height="10" x="230" y="170" fill="#7cc4f2" shape-rendering="crispEdges" /><rect width="20" height="10" x="240" y="170" fill="#ffffff" shape-rendering="crispEdges" /><rect width="20" height="10" x="260" y="170" fill="#667af9" shape-rendering="crispEdges" /><rect width="10" height="10" x="280" y="170" fill="#7cc4f2" shape-rendering="crispEdges" /><rect width="10" height="10" x="290" y="170" fill="#ffffff" shape-rendering="crispEdges" /><rect width="10" height="10" x="50" y="180" fill="#ffffff" shape-rendering="crispEdges" /><rect width="20" height="10" x="60" y="180" fill="#7cc4f2" shape-rendering="crispEdges" /><rect width="10" height="10" x="80" y="180" fill="#ffffff" shape-rendering="crispEdges" /><rect width="50" height="10" x="90" y="180" fill="#7cc4f2" shape-rendering="crispEdges" /><rect width="10" height="10" x="140" y="180" fill="#ffffff" shape-rendering="crispEdges" /><rect width="30" height="10" x="150" y="180" fill="#7cc4f2" shape-rendering="crispEdges" /><rect width="20" height="10" x="180" y="180" fill="#ffffff" shape-rendering="crispEdges" /><rect width="40" height="10" x="200" y="180" fill="#7cc4f2" shape-rendering="crispEdges" /><rect width="20" height="10" x="240" y="180" fill="#ffffff" shape-rendering="crispEdges" /><rect width="20" height="10" x="260" y="180" fill="#667af9" shape-rendering="crispEdges" /><rect width="10" height="10" x="280" y="180" fill="#7cc4f2" shape-rendering="crispEdges" /><rect width="10" height="10" x="290" y="180" fill="#ffffff" shape-rendering="crispEdges" /><rect width="10" height="10" x="50" y="190" fill="#ffffff" shape-rendering="crispEdges" /><rect width="10" height="10" x="60" y="190" fill="#7cc4f2" shape-rendering="crispEdges" /><rect width="30" height="10" x="70" y="190" fill="#ffffff" shape-rendering="crispEdges" /><rect width="10" height="10" x="100" y="190" fill="#7cc4f2" shape-rendering="crispEdges" /><rect width="50" height="10" x="110" y="190" fill="#ffffff" shape-rendering="crispEdges" /><rect width="10" height="10" x="160" y="190" fill="#7cc4f2" shape-rendering="crispEdges" /><rect width="40" height="10" x="170" y="190" fill="#ffffff" shape-rendering="crispEdges" /><rect width="10" height="10" x="210" y="190" fill="#7cc4f2" shape-rendering="crispEdges" /><rect width="10" height="10" x="220" y="190" fill="#ffffff" shape-rendering="crispEdges" /><rect width="10" height="10" x="230" y="190" fill="#7cc4f2" shape-rendering="crispEdges" /><rect width="20" height="10" x="240" y="190" fill="#ffffff" shape-rendering="crispEdges" /><rect width="30" height="10" x="260" y="190" fill="#7cc4f2" shape-rendering="crispEdges" /><rect width="10" height="10" x="290" y="190" fill="#ffffff" shape-rendering="crispEdges" /><rect width="40" height="10" x="60" y="200" fill="#ffffff" shape-rendering="crispEdges" /><rect width="10" height="10" x="100" y="200" fill="#7cc4f2" shape-rendering="crispEdges" /><rect width="50" height="10" x="110" y="200" fill="#ffffff" shape-rendering="crispEdges" /><rect width="10" height="10" x="160" y="200" fill="#7cc4f2" shape-rendering="crispEdges" /><rect width="40" height="10" x="170" y="200" fill="#ffffff" shape-rendering="crispEdges" /><rect width="10" height="10" x="210" y="200" fill="#7cc4f2" shape-rendering="crispEdges" /><rect width="10" height="10" x="220" y="200" fill="#ffffff" shape-rendering="crispEdges" /><rect width="10" height="10" x="230" y="200" fill="#7cc4f2" shape-rendering="crispEdges" /><rect width="50" height="10" x="240" y="200" fill="#ffffff" shape-rendering="crispEdges" /></svg>