<svg width="320" height="320" viewBox="0 0 320 320" xmlns="http://www.w3.org/2000/svg" shape-rendering="crispEdges"><rect width="100%" height="100%" fill="none" /><rect width="220" height="10" x="50" y="90" fill="#8dd122" shape-rendering="crispEdges" /><rect width="30" height="10" x="30" y="100" fill="#8dd122" shape-rendering="crispEdges" /><rect width="10" height="10" x="60" y="100" fill="#ff82ad" shape-rendering="crispEdges" /><rect width="30" height="10" x="70" y="100" fill="#ff1ad2" shape-rendering="crispEdges" /><rect width="10" height="10" x="100" y="100" fill="#ff82ad" shape-rendering="crispEdges" /><rect width="100" height="10" x="110" y="100" fill="#8dd122" shape-rendering="crispEdges" /><rect width="10" height="10" x="210" y="100" fill="#ff82ad" shape-rendering="crispEdges" /><rect width="30" height="10" x="220" y="100" fill="#ff1ad2" shape-rendering="crispEdges" /><rect width="10" height="10" x="250" y="100" fill="#ff82ad" shape-rendering="crispEdges" /><rect width="30" height="10" x="260" y="100" fill="#8dd122" shape-rendering="crispEdges" /><rect width="10" height="10" x="30" y="110" fill="#8dd122" shape-rendering="crispEdges" /><rect width="10" height="10" x="40" y="110" fill="#80a72d" shape-rendering="crispEdges" /><rect width="10" height="10" x="50" y="110" fill="#8dd122" shape-rendering="crispEdges" /><rect width="10" height="10" x="60" y="110" fill="#ff82ad" shape-rendering="crispEdges" /><rect width="30" height="10" x="70" y="110" fill="#ff1ad2" shape-rendering="crispEdges" /><rect width="10" height="10" x="100" y="110" fill="#ff82ad" shape-rendering="crispEdges" /><rect width="100" height="10" x="110" y="110" fill="#8dd122" shape-rendering="crispEdges" /><rect width="10" height="10" x="210" y="110" fill="#ff82ad" shape-rendering="crispEdges" /><rect width="30" height="10" x="220" y="110" fill="#ff1ad2" shape-rendering="crispEdges" /><rect width="10" height="10" x="250" y="110" fill="#ff82ad" shape-rendering="crispEdges" /><rect width="10" height="10" x="260" y="110" fill="#8dd122" shape-rendering="crispEdges" /><rect width="10" height="10" x="270" y="110" fill="#80a72d" shape-rendering="crispEdges" /><rect width="10" height="10" x="280" y="110" fill="#8dd122" shape-rendering="crispEdges" /><rect width="20" height="10" x="20" y="120" fill="#8dd122" shape-rendering="crispEdges" /><rect width="10" height="10" x="40" y="120" fill="#80a72d" shape-rendering="crispEdges" /><rect width="10" height="10" x="50" y="120" fill="#8dd122" shape-rendering="crispEdges" /><rect width="10" height="10" x="60" y="120" fill="#ff82ad" shape-rendering="crispEdges" /><rect width="30" height="10" x="70" y="120" fill="#ff1ad2" shape-rendering="crispEdges" /><rect width="10" height="10" x="100" y="120" fill="#ff82ad" shape-rendering="crispEdges" /><rect width="100" height="10" x="110" y="120" fill="#8dd122" shape-rendering="crispEdges" /><rect width="10" height="10" x="210" y="120" fill="#ff82ad" shape-rendering="crispEdges" /><rect width="30" height="10" x="220" y="120" fill="#ff1ad2" shape-rendering="crispEdges" /><rect width="10" height="10" x="250" y="120" fill="#ff82ad" shape-rendering="crispEdges" /><rect width="10" height="10" x="260" y="120" fill="#8dd122" shape-rendering="crispEdges" /><rect width="10" height="10" x="270" y="120" fill="#80a72d" shape-rendering="crispEdges" /><rect width="20" height="10" x="280" y="120" fill="#8dd122" shape-rendering="crispEdges" /><rect width="20" height="10" x="20" y="130" fill="#8dd122" shape-rendering="crispEdges" /><rect width="10" height="10" x="40" y="130" fill="#80a72d" shape-rendering="crispEdges" /><rect width="30" height="10" x="50" y="130" fill="#8dd122" shape-rendering="crispEdges" /><rect width="10" height="10" x="80" y="130" fill="#b2958d" shape-rendering="crispEdges" /><rect width="140" height="10" x="90" y="130" fill="#8dd122" shape-rendering="crispEdges" /><rect width="10" height="10" x="230" y="130" fill="#b2958d" shape-rendering="crispEdges" /><rect width="30" height="10" x="240" y="130" fill="#8dd122" shape-rendering="crispEdges" /><rect width="10" height="10" x="270" y="130" fill="#80a72d" shape-rendering="crispEdges" /><rect width="20" height="10" x="280" y="130" fill="#8dd122" shape-rendering="crispEdges" /><rect width="20" height="10" x="20" y="140" fill="#8dd122" shape-rendering="crispEdges" /><rect width="10" height="10" x="40" y="140" fill="#80a72d" shape-rendering="crispEdges" /><rect width="30" height="10" x="50" y="140" fill="#8dd122" shape-rendering="crispEdges" /><rect width="10" height="10" x="80" y="140" fill="#b2958d" shape-rendering="crispEdges" /><rect width="140" height="10" x="90" y="140" fill="#8dd122" shape-rendering="crispEdges" /><rect width="10" height="10" x="230" y="140" fill="#b2958d" shape-rendering="crispEdges" /><rect width="30" height="10" x="240" y="140" fill="#8dd122" shape-rendering="crispEdges" /><rect width="10" height="10" x="270" y="140" fill="#80a72d" shape-rendering="crispEdges" /><rect width="20" height="10" x="280" y="140" fill="#8dd122" shape-rendering="crispEdges" /><rect width="20" height="10" x="20" y="150" fill="#8dd122" shape-rendering="crispEdges" /><rect width="10" height="10" x="40" y="150" fill="#80a72d" shape-rendering="crispEdges" /><rect width="30" height="10" x="50" y="150" fill="#8dd122" shape-rendering="crispEdges" /><rect width="10" height="10" x="80" y="150" fill="#b2958d" shape-rendering="crispEdges" /><rect width="140" height="10" x="90" y="150" fill="#8dd122" shape-rendering="crispEdges" /><rect width="10" height="10" x="230" y="150" fill="#b2958d" shape-rendering="crispEdges" /><rect width="30" height="10" x="240" y="150" fill="#8dd122" shape-rendering="crispEdges" /><rect width="10" height="10" x="270" y="150" fill="#80a72d" shape-rendering="crispEdges" /><rect width="20" height="10" x="280" y="150" fill="#8dd122" shape-rendering="crispEdges" /><rect width="20" height="10" x="20" y="160" fill="#8dd122" shape-rendering="crispEdges" /><rect width="10" height="10" x="40" y="160" fill="#80a72d" shape-rendering="crispEdges" /><rect width="30" height="10" x="50" y="160" fill="#8dd122" shape-rendering="crispEdges" /><rect width="10" height="10" x="80" y="160" fill="#b2958d" shape-rendering="crispEdges" /><rect width="140" height="10" x="90" y="160" fill="#8dd122" shape-rendering="crispEdges" /><rect width="10" height="10" x="230" y="160" fill="#b2958d" shape-rendering="crispEdges" /><rect width="30" height="10" x="240" y="160" fill="#8dd122" shape-rendering="crispEdges" /><rect width="10" height="10" x="270" y="160" fill="#80a72d" shape-rendering="crispEdges" /><rect width="20" height="10" x="280" y="160" fill="#8dd122" shape-rendering="crispEdges" /><rect width="20" height="10" x="20" y="170" fill="#8dd122" shape-rendering="crispEdges" /><rect width="10" height="10" x="40" y="170" fill="#80a72d" shape-rendering="crispEdges" /><rect width="10" height="10" x="50" y="170" fill="#8dd122" shape-rendering="crispEdges" /><rect width="10" height="10" x="60" y="170" fill="#ff82ad" shape-rendering="crispEdges" /><rect width="30" height="10" x="70" y="170" fill="#ff1ad2" shape-rendering="crispEdges" /><rect width="10" height="10" x="100" y="170" fill="#ff82ad" shape-rendering="crispEdges" /><rect width="100" height="10" x="110" y="170" fill="#8dd122" shape-rendering="crispEdges" /><rect width="10" height="10" x="210" y="170" fill="#ff82ad" shape-rendering="crispEdges" /><rect width="30" height="10" x="220" y="170" fill="#ff1ad2" shape-rendering="crispEdges" /><rect width="10" height="10" x="250" y="170" fill="#ff82ad" shape-rendering="crispEdges" /><rect width="10" height="10" x="260" y="170" fill="#8dd122" shape-rendering="crispEdges" /><rect width="10" height="10" x="270" y="170" fill="#80a72d" shape-rendering="crispEdges" /><rect width="20" height="10" x="280" y="170" fill="#8dd122" shape-rendering="crispEdges" /><rect width="10" height="10" x="30" y="180" fill="#8dd122" shape-rendering="crispEdges" /><rect width="10" height="10" x="40" y="180" fill="#80a72d" shape-rendering="crispEdges" /><rect width="10" height="10" x="50" y="180" fill="#8dd122" shape-rendering="crispEdges" /><rect width="10" height="10" x="60" y="180" fill="#ff82ad" shape-rendering="crispEdges" /><rect width="30" height="10" x="70" y="180" fill="#ff1ad2" shape-rendering="crispEdges" /><rect width="10" height="10" x="100" y="180" fill="#ff82ad" shape-rendering="crispEdges" /><rect width="50" height="10" x="110" y="180" fill="#8dd122" shape-rendering="crispEdges" /><rect width="30" height="10" x="160" y="180" fill="#1f1d29" shape-rendering="crispEdges" /><rect width="20" height="10" x="190" y="180" fill="#8dd122" shape-rendering="crispEdges" /><rect width="10" height="10" x="210" y="180" fill="#ff82ad" shape-rendering="crispEdges" /><rect width="30" height="10" x="220" y="180" fill="#ff1ad2" shape-rendering="crispEdges" /><rect width="10" height="10" x="250" y="180" fill="#ff82ad" shape-rendering="crispEdges" /><rect width="10" height="10" x="260" y="180" fill="#8dd122" shape-rendering="crispEdges" /><rect width="10" height="10" x="270" y="180" fill="#80a72d" shape-rendering="crispEdges" /><rect width="10" height="10" x="280" y="180" fill="#8dd122" shape-rendering="crispEdges" /><rect width="30" height="10" x="30" y="190" fill="#8dd122" shape-rendering="crispEdges" /><rect width="10" height="10" x="60" y="190" fill="#ff82ad" shape-rendering="crispEdges" /><rect width="30" height="10" x="70" y="190" fill="#ff1ad2" shape-rendering="crispEdges" /><rect width="10" height="10" x="100" y="190" fill="#ff82ad" shape-rendering="crispEdges" /><rect width="100" height="10" x="110" y="190" fill="#8dd122" shape-rendering="crispEdges" /><rect width="10" height="10" x="210" y="190" fill="#ff82ad" shape-rendering="crispEdges" /><rect width="30" height="10" x="220" y="190" fill="#ff1ad2" shape-rendering="crispEdges" /><rect width="10" height="10" x="250" y="190" fill="#ff82ad" shape-rendering="crispEdges" /><rect width="30" height="10" x="260" y="190" fill="#8dd122" shape-rendering="crispEdges" /><rect width="220" height="10" x="50" y="200" fill="#8dd122" shape-rendering="crispEdges" /></svg>