<svg width="320" height="320" viewBox="0 0 320 320" xmlns="http://www.w3.org/2000/svg" shape-rendering="crispEdges"><rect width="100%" height="100%" fill="none" /><rect width="80" height="10" x="120" y="50" fill="#ff82ad" shape-rendering="crispEdges" /><rect width="30" height="10" x="90" y="60" fill="#ff82ad" shape-rendering="crispEdges" /><rect width="30" height="10" x="120" y="60" fill="#ff638d" shape-rendering="crispEdges" /><rect width="10" height="10" x="150" y="60" fill="#ff82ad" shape-rendering="crispEdges" /><rect width="40" height="10" x="160" y="60" fill="#ff638d" shape-rendering="crispEdges" /><rect width="30" height="10" x="200" y="60" fill="#ff82ad" shape-rendering="crispEdges" /><rect width="10" height="10" x="80" y="70" fill="#ff82ad" shape-rendering="crispEdges" /><rect width="30" height="10" x="90" y="70" fill="#ff638d" shape-rendering="crispEdges" /><rect width="30" height="10" x="120" y="70" fill="#ff82ad" shape-rendering="crispEdges" /><rect width="10" height="10" x="150" y="70" fill="#ff638d" shape-rendering="crispEdges" /><rect width="40" height="10" x="160" y="70" fill="#ff82ad" shape-rendering="crispEdges" /><rect width="30" height="10" x="200" y="70" fill="#ff638d" shape-rendering="crispEdges" /><rect width="10" height="10" x="230" y="70" fill="#ff82ad" shape-rendering="crispEdges" /><rect width="10" height="10" x="70" y="80" fill="#ff82ad" shape-rendering="crispEdges" /><rect width="10" height="10" x="80" y="80" fill="#ff638d" shape-rendering="crispEdges" /><rect width="20" height="10" x="90" y="80" fill="#ff82ad" shape-rendering="crispEdges" /><rect width="10" height="10" x="110" y="80" fill="#ff638d" shape-rendering="crispEdges" /><rect width="10" height="10" x="120" y="80" fill="#ff82ad" shape-rendering="crispEdges" /><rect width="10" height="10" x="130" y="80" fill="#ff638d" shape-rendering="crispEdges" /><rect width="10" height="10" x="140" y="80" fill="#ff82ad" shape-rendering="crispEdges" /><rect width="10" height="10" x="150" y="80" fill="#ff638d" shape-rendering="crispEdges" /><rect width="10" height="10" x="160" y="80" fill="#ff82ad" shape-rendering="crispEdges" /><rect width="10" height="10" x="170" y="80" fill="#ff638d" shape-rendering="crispEdges" /><rect width="20" height="10" x="180" y="80" fill="#ff82ad" shape-rendering="crispEdges" /><rect width="10" height="10" x="200" y="80" fill="#ff638d" shape-rendering="crispEdges" /><rect width="20" height="10" x="210" y="80" fill="#ff82ad" shape-rendering="crispEdges" /><rect width="10" height="10" x="230" y="80" fill="#ff638d" shape-rendering="crispEdges" /><rect width="10" height="10" x="240" y="80" fill="#ff82ad" shape-rendering="crispEdges" /><rect width="10" height="10" x="70" y="90" fill="#ff82ad" shape-rendering="crispEdges" /><rect width="10" height="10" x="80" y="90" fill="#ff638d" shape-rendering="crispEdges" /><rect width="10" height="10" x="90" y="90" fill="#ff82ad" shape-rendering="crispEdges" /><rect width="10" height="10" x="100" y="90" fill="#ff638d" shape-rendering="crispEdges" /><rect width="20" height="10" x="110" y="90" fill="#ff82ad" shape-rendering="crispEdges" /><rect width="10" height="10" x="130" y="90" fill="#ff638d" shape-rendering="crispEdges" /><rect width="20" height="10" x="140" y="90" fill="#ff82ad" shape-rendering="crispEdges" /><rect width="10" height="10" x="160" y="90" fill="#ff638d" shape-rendering="crispEdges" /><rect width="20" height="10" x="170" y="90" fill="#ff82ad" shape-rendering="crispEdges" /><rect width="10" height="10" x="190" y="90" fill="#ff638d" shape-rendering="crispEdges" /><rect width="50" height="10" x="200" y="90" fill="#ff82ad" shape-rendering="crispEdges" /><rect width="60" height="10" x="60" y="100" fill="#ff82ad" shape-rendering="crispEdges" /><rect width="10" height="10" x="120" y="100" fill="#ff638d" shape-rendering="crispEdges" /><rect width="30" height="10" x="130" y="100" fill="#ff82ad" shape-rendering="crispEdges" /><rect width="10" height="10" x="160" y="100" fill="#ff638d" shape-rendering="crispEdges" /><rect width="20" height="10" x="170" y="100" fill="#ff82ad" shape-rendering="crispEdges" /><rect width="10" height="10" x="190" y="100" fill="#ff638d" shape-rendering="crispEdges" /><rect width="20" height="10" x="200" y="100" fill="#ff82ad" shape-rendering="crispEdges" /><rect width="10" height="10" x="220" y="100" fill="#ff638d" shape-rendering="crispEdges" /><rect width="10" height="10" x="230" y="100" fill="#ff82ad" shape-rendering="crispEdges" /><rect width="10" height="10" x="240" y="100" fill="#ff638d" shape-rendering="crispEdges" /><rect width="10" height="10" x="250" y="100" fill="#ff82ad" shape-rendering="crispEdges" /><rect width="10" height="10" x="60" y="110" fill="#ff82ad" shape-rendering="crispEdges" /><rect width="10" height="10" x="70" y="110" fill="#ff638d" shape-rendering="crispEdges" /><rect width="40" height="10" x="80" y="110" fill="#ff82ad" shape-rendering="crispEdges" /><rect width="10" height="10" x="120" y="110" fill="#ff638d" shape-rendering="crispEdges" /><rect width="60" height="10" x="130" y="110" fill="#ff82ad" shape-rendering="crispEdges" /><rect width="10" height="10" x="190" y="110" fill="#ff638d" shape-rendering="crispEdges" /><rect width="40" height="10" x="200" y="110" fill="#ff82ad" shape-rendering="crispEdges" /><rect width="10" height="10" x="240" y="110" fill="#ff638d" shape-rendering="crispEdges" /><rect width="10" height="10" x="250" y="110" fill="#ff82ad" shape-rendering="crispEdges" /><rect width="10" height="10" x="60" y="120" fill="#ff82ad" shape-rendering="crispEdges" /><rect width="10" height="10" x="70" y="120" fill="#ff638d" shape-rendering="crispEdges" /><rect width="20" height="10" x="80" y="120" fill="#ff82ad" shape-rendering="crispEdges" /><rect width="10" height="10" x="100" y="120" fill="#ff638d" shape-rendering="crispEdges" /><rect width="20" height="10" x="110" y="120" fill="#ff82ad" shape-rendering="crispEdges" /><rect width="10" height="10" x="130" y="120" fill="#ff638d" shape-rendering="crispEdges" /><rect width="30" height="10" x="140" y="120" fill="#ff82ad" shape-rendering="crispEdges" /><rect width="10" height="10" x="170" y="120" fill="#ff638d" shape-rendering="crispEdges" /><rect width="60" height="10" x="180" y="120" fill="#ff82ad" shape-rendering="crispEdges" /><rect width="10" height="10" x="240" y="120" fill="#ff638d" shape-rendering="crispEdges" /><rect width="10" height="10" x="250" y="120" fill="#ff82ad" shape-rendering="crispEdges" /><rect width="40" height="10" x="60" y="130" fill="#ff82ad" shape-rendering="crispEdges" /><rect width="10" height="10" x="100" y="130" fill="#ff638d" shape-rendering="crispEdges" /><rect width="20" height="10" x="110" y="130" fill="#ff82ad" shape-rendering="crispEdges" /><rect width="10" height="10" x="130" y="130" fill="#ff638d" shape-rendering="crispEdges" /><rect width="40" height="10" x="140" y="130" fill="#ff82ad" shape-rendering="crispEdges" /><rect width="10" height="10" x="180" y="130" fill="#ff638d" shape-rendering="crispEdges" /><rect width="10" height="10" x="190" y="130" fill="#ff82ad" shape-rendering="crispEdges" /><rect width="20" height="10" x="200" y="130" fill="#ff638d" shape-rendering="crispEdges" /><rect width="20" height="10" x="220" y="130" fill="#ff82ad" shape-rendering="crispEdges" /><rect width="10" height="10" x="240" y="130" fill="#ff638d" shape-rendering="crispEdges" /><rect width="10" height="10" x="250" y="130" fill="#ff82ad" shape-rendering="crispEdges" /><rect width="10" height="10" x="60" y="140" fill="#ff82ad" shape-rendering="crispEdges" /><rect width="10" height="10" x="70" y="140" fill="#ff638d" shape-rendering="crispEdges" /><rect width="20" height="10" x="80" y="140" fill="#ff82ad" shape-rendering="crispEdges" /><rect width="10" height="10" x="100" y="140" fill="#ff638d" shape-rendering="crispEdges" /><rect width="30" height="10" x="110" y="140" fill="#ff82ad" shape-rendering="crispEdges" /><rect width="10" height="10" x="140" y="140" fill="#ff638d" shape-rendering="crispEdges" /><rect width="90" height="10" x="150" y="140" fill="#ff82ad" shape-rendering="crispEdges" /><rect width="10" height="10" x="240" y="140" fill="#ff638d" shape-rendering="crispEdges" /><rect width="10" height="10" x="250" y="140" fill="#ff82ad" shape-rendering="crispEdges" /><rect width="10" height="10" x="60" y="150" fill="#ff82ad" shape-rendering="crispEdges" /><rect width="10" height="10" x="70" y="150" fill="#ff638d" shape-rendering="crispEdges" /><rect width="30" height="10" x="80" y="150" fill="#ff82ad" shape-rendering="crispEdges" /><rect width="10" height="10" x="110" y="150" fill="#ff638d" shape-rendering="crispEdges" /><rect width="50" height="10" x="120" y="150" fill="#ff82ad" shape-rendering="crispEdges" /><rect width="10" height="10" x="170" y="150" fill="#ff638d" shape-rendering="crispEdges" /><rect width="60" height="10" x="180" y="150" fill="#ff82ad" shape-rendering="crispEdges" /><rect width="10" height="10" x="240" y="150" fill="#ff638d" shape-rendering="crispEdges" /><rect width="10" height="10" x="250" y="150" fill="#ff82ad" shape-rendering="crispEdges" /><rect width="60" height="10" x="60" y="160" fill="#ff82ad" shape-rendering="crispEdges" /><rect width="10" height="10" x="120" y="160" fill="#ff638d" shape-rendering="crispEdges" /><rect width="50" height="10" x="130" y="160" fill="#ff82ad" shape-rendering="crispEdges" /><rect width="20" height="10" x="180" y="160" fill="#ff638d" shape-rendering="crispEdges" /><rect width="40" height="10" x="200" y="160" fill="#ff82ad" shape-rendering="crispEdges" /><rect width="10" height="10" x="240" y="160" fill="#ff638d" shape-rendering="crispEdges" /><rect width="10" height="10" x="250" y="160" fill="#ff82ad" shape-rendering="crispEdges" /><rect width="180" height="10" x="70" y="170" fill="#ff82ad" shape-rendering="crispEdges" /><rect width="10" height="10" x="70" y="180" fill="#ff82ad" shape-rendering="crispEdges" /><rect width="10" height="10" x="80" y="180" fill="#ff638d" shape-rendering="crispEdges" /><rect width="30" height="10" x="90" y="180" fill="#ff82ad" shape-rendering="crispEdges" /><rect width="20" height="10" x="120" y="180" fill="#ff638d" shape-rendering="crispEdges" /><rect width="20" height="10" x="140" y="180" fill="#ff82ad" shape-rendering="crispEdges" /><rect width="10" height="10" x="160" y="180" fill="#ff638d" shape-rendering="crispEdges" /><rect width="50" height="10" x="170" y="180" fill="#ff82ad" shape-rendering="crispEdges" /><rect width="20" height="10" x="220" y="180" fill="#ff638d" shape-rendering="crispEdges" /><rect width="10" height="10" x="240" y="180" fill="#ff82ad" shape-rendering="crispEdges" /><rect width="10" height="10" x="80" y="190" fill="#ff82ad" shape-rendering="crispEdges" /><rect width="10" height="10" x="90" y="190" fill="#ff638d" shape-rendering="crispEdges" /><rect width="10" height="10" x="100" y="190" fill="#ff82ad" shape-rendering="crispEdges" /><rect width="10" height="10" x="110" y="190" fill="#ff638d" shape-rendering="crispEdges" /><rect width="20" height="10" x="120" y="190" fill="#ff82ad" shape-rendering="crispEdges" /><rect width="20" height="10" x="140" y="190" fill="#ff638d" shape-rendering="crispEdges" /><rect width="40" height="10" x="160" y="190" fill="#ff82ad" shape-rendering="crispEdges" /><rect width="20" height="10" x="200" y="190" fill="#ff638d" shape-rendering="crispEdges" /><rect width="20" height="10" x="220" y="190" fill="#ff82ad" shape-rendering="crispEdges" /><rect width="140" height="10" x="90" y="200" fill="#ff82ad" shape-rendering="crispEdges" /></svg>