<svg width="320" height="320" viewBox="0 0 320 320" xmlns="http://www.w3.org/2000/svg" shape-rendering="crispEdges"><rect width="100%" height="100%" fill="none" /><rect width="20" height="10" x="70" y="30" fill="#1f1d29" shape-rendering="crispEdges" /><rect width="20" height="10" x="220" y="30" fill="#1f1d29" shape-rendering="crispEdges" /><rect width="40" height="10" x="70" y="40" fill="#1f1d29" shape-rendering="crispEdges" /><rect width="40" height="10" x="200" y="40" fill="#1f1d29" shape-rendering="crispEdges" /><rect width="10" height="10" x="70" y="50" fill="#1f1d29" shape-rendering="crispEdges" /><rect width="10" height="10" x="80" y="50" fill="#caeff9" shape-rendering="crispEdges" /><rect width="40" height="10" x="90" y="50" fill="#1f1d29" shape-rendering="crispEdges" /><rect width="40" height="10" x="180" y="50" fill="#1f1d29" shape-rendering="crispEdges" /><rect width="10" height="10" x="220" y="50" fill="#caeff9" shape-rendering="crispEdges" /><rect width="10" height="10" x="230" y="50" fill="#1f1d29" shape-rendering="crispEdges" /><rect width="10" height="10" x="70" y="60" fill="#1f1d29" shape-rendering="crispEdges" /><rect width="30" height="10" x="80" y="60" fill="#caeff9" shape-rendering="crispEdges" /><rect width="20" height="10" x="110" y="60" fill="#1f1d29" shape-rendering="crispEdges" /><rect width="20" height="10" x="180" y="60" fill="#1f1d29" shape-rendering="crispEdges" /><rect width="30" height="10" x="200" y="60" fill="#caeff9" shape-rendering="crispEdges" /><rect width="10" height="10" x="230" y="60" fill="#1f1d29" shape-rendering="crispEdges" /><rect width="10" height="10" x="70" y="70" fill="#1f1d29" shape-rendering="crispEdges" /><rect width="40" height="10" x="80" y="70" fill="#caeff9" shape-rendering="crispEdges" /><rect width="70" height="10" x="120" y="70" fill="#1f1d29" shape-rendering="crispEdges" /><rect width="40" height="10" x="190" y="70" fill="#caeff9" shape-rendering="crispEdges" /><rect width="10" height="10" x="230" y="70" fill="#1f1d29" shape-rendering="crispEdges" /><rect width="10" height="10" x="70" y="80" fill="#1f1d29" shape-rendering="crispEdges" /><rect width="30" height="10" x="80" y="80" fill="#caeff9" shape-rendering="crispEdges" /><rect width="90" height="10" x="110" y="80" fill="#1f1d29" shape-rendering="crispEdges" /><rect width="30" height="10" x="200" y="80" fill="#caeff9" shape-rendering="crispEdges" /><rect width="10" height="10" x="230" y="80" fill="#1f1d29" shape-rendering="crispEdges" /><rect width="10" height="10" x="70" y="90" fill="#1f1d29" shape-rendering="crispEdges" /><rect width="10" height="10" x="80" y="90" fill="#caeff9" shape-rendering="crispEdges" /><rect width="130" height="10" x="90" y="90" fill="#1f1d29" shape-rendering="crispEdges" /><rect width="10" height="10" x="220" y="90" fill="#caeff9" shape-rendering="crispEdges" /><rect width="10" height="10" x="230" y="90" fill="#1f1d29" shape-rendering="crispEdges" /><rect width="170" height="10" x="70" y="100" fill="#1f1d29" shape-rendering="crispEdges" /><rect width="160" height="10" x="80" y="110" fill="#1f1d29" shape-rendering="crispEdges" /><rect width="160" height="10" x="80" y="120" fill="#1f1d29" shape-rendering="crispEdges" /><rect width="160" height="10" x="80" y="130" fill="#1f1d29" shape-rendering="crispEdges" /><rect width="160" height="10" x="80" y="140" fill="#1f1d29" shape-rendering="crispEdges" /><rect width="160" height="10" x="80" y="150" fill="#1f1d29" shape-rendering="crispEdges" /><rect width="160" height="10" x="80" y="160" fill="#1f1d29" shape-rendering="crispEdges" /><rect width="50" height="10" x="60" y="170" fill="#7cc4f2" shape-rendering="crispEdges" /><rect width="50" height="10" x="110" y="170" fill="#caeff9" shape-rendering="crispEdges" /><rect width="20" height="10" x="160" y="170" fill="#fa6fe2" shape-rendering="crispEdges" /><rect width="40" height="10" x="180" y="170" fill="#caeff9" shape-rendering="crispEdges" /><rect width="40" height="10" x="220" y="170" fill="#7cc4f2" shape-rendering="crispEdges" /><rect width="80" height="10" x="80" y="180" fill="#caeff9" shape-rendering="crispEdges" /><rect width="10" height="10" x="160" y="180" fill="#5a6b7b" shape-rendering="crispEdges" /><rect width="70" height="10" x="170" y="180" fill="#caeff9" shape-rendering="crispEdges" /><rect width="50" height="10" x="60" y="190" fill="#7cc4f2" shape-rendering="crispEdges" /><rect width="30" height="10" x="110" y="190" fill="#caeff9" shape-rendering="crispEdges" /><rect width="40" height="10" x="140" y="190" fill="#5a6b7b" shape-rendering="crispEdges" /><rect width="40" height="10" x="180" y="190" fill="#caeff9" shape-rendering="crispEdges" /><rect width="40" height="10" x="220" y="190" fill="#7cc4f2" shape-rendering="crispEdges" /><rect width="160" height="10" x="80" y="200" fill="#caeff9" shape-rendering="crispEdges" /></svg>