<svg width="320" height="320" viewBox="0 0 320 320" xmlns="http://www.w3.org/2000/svg" shape-rendering="crispEdges"><rect width="100%" height="100%" fill="none" /><rect width="80" height="10" x="70" y="40" fill="#395ed1" shape-rendering="crispEdges" /><rect width="60" height="10" x="60" y="50" fill="#395ed1" shape-rendering="crispEdges" /><rect width="10" height="10" x="120" y="50" fill="#ffc925" shape-rendering="crispEdges" /><rect width="40" height="10" x="130" y="50" fill="#395ed1" shape-rendering="crispEdges" /><rect width="10" height="10" x="60" y="60" fill="#395ed1" shape-rendering="crispEdges" /><rect width="20" height="10" x="90" y="60" fill="#395ed1" shape-rendering="crispEdges" /><rect width="30" height="10" x="110" y="60" fill="#ffc925" shape-rendering="crispEdges" /><rect width="40" height="10" x="140" y="60" fill="#395ed1" shape-rendering="crispEdges" /><rect width="10" height="10" x="60" y="70" fill="#ffc925" shape-rendering="crispEdges" /><rect width="20" height="10" x="100" y="70" fill="#395ed1" shape-rendering="crispEdges" /><rect width="10" height="10" x="120" y="70" fill="#ffc925" shape-rendering="crispEdges" /><rect width="60" height="10" x="130" y="70" fill="#395ed1" shape-rendering="crispEdges" /><rect width="50" height="10" x="40" y="80" fill="#ffc925" shape-rendering="crispEdges" /><rect width="40" height="10" x="110" y="80" fill="#395ed1" shape-rendering="crispEdges" /><rect width="10" height="10" x="150" y="80" fill="#ffc925" shape-rendering="crispEdges" /><rect width="40" height="10" x="160" y="80" fill="#395ed1" shape-rendering="crispEdges" /><rect width="30" height="10" x="50" y="90" fill="#ffc925" shape-rendering="crispEdges" /><rect width="20" height="10" x="120" y="90" fill="#395ed1" shape-rendering="crispEdges" /><rect width="10" height="10" x="140" y="90" fill="#ffc925" shape-rendering="crispEdges" /><rect width="10" height="10" x="150" y="90" fill="#395ed1" shape-rendering="crispEdges" /><rect width="10" height="10" x="160" y="90" fill="#ffc925" shape-rendering="crispEdges" /><rect width="10" height="10" x="170" y="90" fill="#395ed1" shape-rendering="crispEdges" /><rect width="10" height="10" x="180" y="90" fill="#ffc925" shape-rendering="crispEdges" /><rect width="20" height="10" x="190" y="90" fill="#395ed1" shape-rendering="crispEdges" /><rect width="10" height="10" x="50" y="100" fill="#ffc925" shape-rendering="crispEdges" /><rect width="10" height="10" x="70" y="100" fill="#ffc925" shape-rendering="crispEdges" /><rect width="20" height="10" x="130" y="100" fill="#395ed1" shape-rendering="crispEdges" /><rect width="10" height="10" x="150" y="100" fill="#ffc925" shape-rendering="crispEdges" /><rect width="60" height="10" x="160" y="100" fill="#395ed1" shape-rendering="crispEdges" /><rect width="100" height="10" x="130" y="110" fill="#395ed1" shape-rendering="crispEdges" /><rect width="80" height="10" x="120" y="120" fill="#395ed1" shape-rendering="crispEdges" /><rect width="10" height="10" x="200" y="120" fill="#ffc925" shape-rendering="crispEdges" /><rect width="20" height="10" x="210" y="120" fill="#395ed1" shape-rendering="crispEdges" /><rect width="10" height="10" x="120" y="130" fill="#395ed1" shape-rendering="crispEdges" /><rect width="10" height="10" x="130" y="130" fill="#ffc925" shape-rendering="crispEdges" /><rect width="50" height="10" x="140" y="130" fill="#395ed1" shape-rendering="crispEdges" /><rect width="30" height="10" x="190" y="130" fill="#ffc925" shape-rendering="crispEdges" /><rect width="20" height="10" x="220" y="130" fill="#395ed1" shape-rendering="crispEdges" /><rect width="80" height="10" x="120" y="140" fill="#395ed1" shape-rendering="crispEdges" /><rect width="10" height="10" x="200" y="140" fill="#ffc925" shape-rendering="crispEdges" /><rect width="30" height="10" x="210" y="140" fill="#395ed1" shape-rendering="crispEdges" /><rect width="40" height="10" x="120" y="150" fill="#395ed1" shape-rendering="crispEdges" /><rect width="10" height="10" x="160" y="150" fill="#ffc925" shape-rendering="crispEdges" /><rect width="70" height="10" x="170" y="150" fill="#395ed1" shape-rendering="crispEdges" /><rect width="130" height="10" x="110" y="160" fill="#395ed1" shape-rendering="crispEdges" /><rect width="140" height="10" x="100" y="170" fill="#395ed1" shape-rendering="crispEdges" /><rect width="70" height="10" x="90" y="180" fill="#395ed1" shape-rendering="crispEdges" /><rect width="50" height="10" x="160" y="180" fill="#1f1d29" shape-rendering="crispEdges" /><rect width="20" height="10" x="210" y="180" fill="#395ed1" shape-rendering="crispEdges" /><rect width="180" height="10" x="70" y="190" fill="#00499c" shape-rendering="crispEdges" /><rect width="220" height="10" x="50" y="200" fill="#00499c" shape-rendering="crispEdges" /></svg>