<svg width="320" height="320" viewBox="0 0 320 320" xmlns="http://www.w3.org/2000/svg" shape-rendering="crispEdges"><rect width="100%" height="100%" fill="none" /><rect width="10" height="10" x="50" y="40" fill="#c16923" shape-rendering="crispEdges" /><rect width="10" height="10" x="120" y="40" fill="#c16923" shape-rendering="crispEdges" /><rect width="10" height="10" x="190" y="40" fill="#c16923" shape-rendering="crispEdges" /><rect width="10" height="10" x="260" y="40" fill="#903707" shape-rendering="crispEdges" /><rect width="30" height="10" x="40" y="50" fill="#c16923" shape-rendering="crispEdges" /><rect width="10" height="10" x="110" y="50" fill="#903707" shape-rendering="crispEdges" /><rect width="20" height="10" x="120" y="50" fill="#c16923" shape-rendering="crispEdges" /><rect width="30" height="10" x="180" y="50" fill="#c16923" shape-rendering="crispEdges" /><rect width="10" height="10" x="250" y="50" fill="#c16923" shape-rendering="crispEdges" /><rect width="10" height="10" x="260" y="50" fill="#903707" shape-rendering="crispEdges" /><rect width="10" height="10" x="270" y="50" fill="#c16923" shape-rendering="crispEdges" /><rect width="50" height="10" x="30" y="60" fill="#c16923" shape-rendering="crispEdges" /><rect width="10" height="10" x="100" y="60" fill="#c16923" shape-rendering="crispEdges" /><rect width="10" height="10" x="110" y="60" fill="#903707" shape-rendering="crispEdges" /><rect width="30" height="10" x="120" y="60" fill="#c16923" shape-rendering="crispEdges" /><rect width="50" height="10" x="170" y="60" fill="#c16923" shape-rendering="crispEdges" /><rect width="20" height="10" x="240" y="60" fill="#c16923" shape-rendering="crispEdges" /><rect width="10" height="10" x="260" y="60" fill="#903707" shape-rendering="crispEdges" /><rect width="20" height="10" x="270" y="60" fill="#c16923" shape-rendering="crispEdges" /><rect width="50" height="10" x="30" y="70" fill="#c16923" shape-rendering="crispEdges" /><rect width="10" height="10" x="100" y="70" fill="#c16923" shape-rendering="crispEdges" /><rect width="10" height="10" x="110" y="70" fill="#903707" shape-rendering="crispEdges" /><rect width="30" height="10" x="120" y="70" fill="#c16923" shape-rendering="crispEdges" /><rect width="30" height="10" x="170" y="70" fill="#c16923" shape-rendering="crispEdges" /><rect width="10" height="10" x="200" y="70" fill="#903707" shape-rendering="crispEdges" /><rect width="10" height="10" x="210" y="70" fill="#c16923" shape-rendering="crispEdges" /><rect width="20" height="10" x="240" y="70" fill="#c16923" shape-rendering="crispEdges" /><rect width="10" height="10" x="260" y="70" fill="#903707" shape-rendering="crispEdges" /><rect width="20" height="10" x="270" y="70" fill="#c16923" shape-rendering="crispEdges" /><rect width="30" height="10" x="30" y="80" fill="#c16923" shape-rendering="crispEdges" /><rect width="10" height="10" x="60" y="80" fill="#903707" shape-rendering="crispEdges" /><rect width="10" height="10" x="70" y="80" fill="#c16923" shape-rendering="crispEdges" /><rect width="10" height="10" x="100" y="80" fill="#c16923" shape-rendering="crispEdges" /><rect width="10" height="10" x="110" y="80" fill="#903707" shape-rendering="crispEdges" /><rect width="30" height="10" x="120" y="80" fill="#c16923" shape-rendering="crispEdges" /><rect width="30" height="10" x="170" y="80" fill="#c16923" shape-rendering="crispEdges" /><rect width="10" height="10" x="200" y="80" fill="#903707" shape-rendering="crispEdges" /><rect width="10" height="10" x="210" y="80" fill="#c16923" shape-rendering="crispEdges" /><rect width="50" height="10" x="240" y="80" fill="#c16923" shape-rendering="crispEdges" /><rect width="30" height="10" x="30" y="90" fill="#c16923" shape-rendering="crispEdges" /><rect width="10" height="10" x="60" y="90" fill="#903707" shape-rendering="crispEdges" /><rect width="10" height="10" x="70" y="90" fill="#c16923" shape-rendering="crispEdges" /><rect width="20" height="10" x="80" y="90" fill="#903707" shape-rendering="crispEdges" /><rect width="10" height="10" x="100" y="90" fill="#c16923" shape-rendering="crispEdges" /><rect width="10" height="10" x="110" y="90" fill="#903707" shape-rendering="crispEdges" /><rect width="30" height="10" x="120" y="90" fill="#c16923" shape-rendering="crispEdges" /><rect width="20" height="10" x="150" y="90" fill="#903707" shape-rendering="crispEdges" /><rect width="30" height="10" x="170" y="90" fill="#c16923" shape-rendering="crispEdges" /><rect width="10" height="10" x="200" y="90" fill="#903707" shape-rendering="crispEdges" /><rect width="10" height="10" x="210" y="90" fill="#c16923" shape-rendering="crispEdges" /><rect width="20" height="10" x="220" y="90" fill="#903707" shape-rendering="crispEdges" /><rect width="20" height="10" x="240" y="90" fill="#c16923" shape-rendering="crispEdges" /><rect width="10" height="10" x="260" y="90" fill="#903707" shape-rendering="crispEdges" /><rect width="20" height="10" x="270" y="90" fill="#c16923" shape-rendering="crispEdges" /><rect width="30" height="10" x="30" y="100" fill="#c16923" shape-rendering="crispEdges" /><rect width="10" height="10" x="60" y="100" fill="#903707" shape-rendering="crispEdges" /><rect width="10" height="10" x="70" y="100" fill="#c16923" shape-rendering="crispEdges" /><rect width="20" height="10" x="80" y="100" fill="#903707" shape-rendering="crispEdges" /><rect width="10" height="10" x="100" y="100" fill="#c16923" shape-rendering="crispEdges" /><rect width="10" height="10" x="110" y="100" fill="#903707" shape-rendering="crispEdges" /><rect width="30" height="10" x="120" y="100" fill="#c16923" shape-rendering="crispEdges" /><rect width="20" height="10" x="150" y="100" fill="#903707" shape-rendering="crispEdges" /><rect width="50" height="10" x="170" y="100" fill="#c16923" shape-rendering="crispEdges" /><rect width="20" height="10" x="220" y="100" fill="#903707" shape-rendering="crispEdges" /><rect width="50" height="10" x="240" y="100" fill="#c16923" shape-rendering="crispEdges" /><rect width="30" height="10" x="30" y="110" fill="#c16923" shape-rendering="crispEdges" /><rect width="10" height="10" x="60" y="110" fill="#903707" shape-rendering="crispEdges" /><rect width="10" height="10" x="70" y="110" fill="#c16923" shape-rendering="crispEdges" /><rect width="20" height="10" x="80" y="110" fill="#903707" shape-rendering="crispEdges" /><rect width="10" height="10" x="100" y="110" fill="#c16923" shape-rendering="crispEdges" /><rect width="10" height="10" x="110" y="110" fill="#903707" shape-rendering="crispEdges" /><rect width="30" height="10" x="120" y="110" fill="#c16923" shape-rendering="crispEdges" /><rect width="20" height="10" x="150" y="110" fill="#903707" shape-rendering="crispEdges" /><rect width="50" height="10" x="170" y="110" fill="#c16923" shape-rendering="crispEdges" /><rect width="20" height="10" x="220" y="110" fill="#903707" shape-rendering="crispEdges" /><rect width="50" height="10" x="240" y="110" fill="#c16923" shape-rendering="crispEdges" /><rect width="30" height="10" x="30" y="120" fill="#c16923" shape-rendering="crispEdges" /><rect width="10" height="10" x="60" y="120" fill="#903707" shape-rendering="crispEdges" /><rect width="10" height="10" x="70" y="120" fill="#c16923" shape-rendering="crispEdges" /><rect width="50" height="10" x="100" y="120" fill="#c16923" shape-rendering="crispEdges" /><rect width="50" height="10" x="170" y="120" fill="#c16923" shape-rendering="crispEdges" /><rect width="50" height="10" x="240" y="120" fill="#c16923" shape-rendering="crispEdges" /><rect width="10" height="10" x="30" y="130" fill="#903707" shape-rendering="crispEdges" /><rect width="40" height="10" x="40" y="130" fill="#c16923" shape-rendering="crispEdges" /><rect width="50" height="10" x="100" y="130" fill="#c16923" shape-rendering="crispEdges" /><rect width="10" height="10" x="170" y="130" fill="#c16923" shape-rendering="crispEdges" /><rect width="10" height="10" x="180" y="130" fill="#903707" shape-rendering="crispEdges" /><rect width="30" height="10" x="190" y="130" fill="#c16923" shape-rendering="crispEdges" /><rect width="30" height="10" x="240" y="130" fill="#c16923" shape-rendering="crispEdges" /><rect width="10" height="10" x="270" y="130" fill="#903707" shape-rendering="crispEdges" /><rect width="10" height="10" x="280" y="130" fill="#c16923" shape-rendering="crispEdges" /><rect width="10" height="10" x="30" y="140" fill="#903707" shape-rendering="crispEdges" /><rect width="40" height="10" x="40" y="140" fill="#c16923" shape-rendering="crispEdges" /><rect width="50" height="10" x="100" y="140" fill="#c16923" shape-rendering="crispEdges" /><rect width="10" height="10" x="170" y="140" fill="#c16923" shape-rendering="crispEdges" /><rect width="10" height="10" x="180" y="140" fill="#903707" shape-rendering="crispEdges" /><rect width="30" height="10" x="190" y="140" fill="#c16923" shape-rendering="crispEdges" /><rect width="30" height="10" x="240" y="140" fill="#c16923" shape-rendering="crispEdges" /><rect width="10" height="10" x="270" y="140" fill="#903707" shape-rendering="crispEdges" /><rect width="10" height="10" x="280" y="140" fill="#c16923" shape-rendering="crispEdges" /><rect width="10" height="10" x="30" y="150" fill="#903707" shape-rendering="crispEdges" /><rect width="20" height="10" x="40" y="150" fill="#c16923" shape-rendering="crispEdges" /><rect width="10" height="10" x="60" y="150" fill="#903707" shape-rendering="crispEdges" /><rect width="10" height="10" x="70" y="150" fill="#c16923" shape-rendering="crispEdges" /><rect width="20" height="10" x="80" y="150" fill="#903707" shape-rendering="crispEdges" /><rect width="50" height="10" x="100" y="150" fill="#c16923" shape-rendering="crispEdges" /><rect width="20" height="10" x="150" y="150" fill="#903707" shape-rendering="crispEdges" /><rect width="10" height="10" x="170" y="150" fill="#c16923" shape-rendering="crispEdges" /><rect width="10" height="10" x="180" y="150" fill="#903707" shape-rendering="crispEdges" /><rect width="30" height="10" x="190" y="150" fill="#c16923" shape-rendering="crispEdges" /><rect width="20" height="10" x="220" y="150" fill="#903707" shape-rendering="crispEdges" /><rect width="30" height="10" x="240" y="150" fill="#c16923" shape-rendering="crispEdges" /><rect width="10" height="10" x="270" y="150" fill="#903707" shape-rendering="crispEdges" /><rect width="10" height="10" x="280" y="150" fill="#c16923" shape-rendering="crispEdges" /><rect width="10" height="10" x="30" y="160" fill="#903707" shape-rendering="crispEdges" /><rect width="40" height="10" x="40" y="160" fill="#c16923" shape-rendering="crispEdges" /><rect width="20" height="10" x="80" y="160" fill="#903707" shape-rendering="crispEdges" /><rect width="50" height="10" x="100" y="160" fill="#c16923" shape-rendering="crispEdges" /><rect width="20" height="10" x="150" y="160" fill="#903707" shape-rendering="crispEdges" /><rect width="10" height="10" x="170" y="160" fill="#c16923" shape-rendering="crispEdges" /><rect width="10" height="10" x="180" y="160" fill="#903707" shape-rendering="crispEdges" /><rect width="30" height="10" x="190" y="160" fill="#c16923" shape-rendering="crispEdges" /><rect width="20" height="10" x="220" y="160" fill="#903707" shape-rendering="crispEdges" /><rect width="10" height="10" x="240" y="160" fill="#c16923" shape-rendering="crispEdges" /><rect width="10" height="10" x="250" y="160" fill="#903707" shape-rendering="crispEdges" /><rect width="10" height="10" x="260" y="160" fill="#c16923" shape-rendering="crispEdges" /><rect width="10" height="10" x="270" y="160" fill="#903707" shape-rendering="crispEdges" /><rect width="10" height="10" x="280" y="160" fill="#c16923" shape-rendering="crispEdges" /><rect width="10" height="10" x="30" y="170" fill="#903707" shape-rendering="crispEdges" /><rect width="40" height="10" x="40" y="170" fill="#c16923" shape-rendering="crispEdges" /><rect width="20" height="10" x="80" y="170" fill="#903707" shape-rendering="crispEdges" /><rect width="50" height="10" x="100" y="170" fill="#c16923" shape-rendering="crispEdges" /><rect width="20" height="10" x="150" y="170" fill="#903707" shape-rendering="crispEdges" /><rect width="10" height="10" x="170" y="170" fill="#c16923" shape-rendering="crispEdges" /><rect width="10" height="10" x="180" y="170" fill="#903707" shape-rendering="crispEdges" /><rect width="30" height="10" x="190" y="170" fill="#c16923" shape-rendering="crispEdges" /><rect width="20" height="10" x="220" y="170" fill="#903707" shape-rendering="crispEdges" /><rect width="30" height="10" x="240" y="170" fill="#c16923" shape-rendering="crispEdges" /><rect width="10" height="10" x="270" y="170" fill="#903707" shape-rendering="crispEdges" /><rect width="10" height="10" x="280" y="170" fill="#c16923" shape-rendering="crispEdges" /><rect width="10" height="10" x="30" y="180" fill="#903707" shape-rendering="crispEdges" /><rect width="40" height="10" x="40" y="180" fill="#c16923" shape-rendering="crispEdges" /><rect width="50" height="10" x="100" y="180" fill="#c16923" shape-rendering="crispEdges" /><rect width="50" height="10" x="170" y="180" fill="#4d271b" shape-rendering="crispEdges" /><rect width="30" height="10" x="240" y="180" fill="#c16923" shape-rendering="crispEdges" /><rect width="10" height="10" x="270" y="180" fill="#903707" shape-rendering="crispEdges" /><rect width="10" height="10" x="280" y="180" fill="#c16923" shape-rendering="crispEdges" /><rect width="50" height="10" x="30" y="190" fill="#c16923" shape-rendering="crispEdges" /><rect width="30" height="10" x="100" y="190" fill="#c16923" shape-rendering="crispEdges" /><rect width="10" height="10" x="130" y="190" fill="#903707" shape-rendering="crispEdges" /><rect width="10" height="10" x="140" y="190" fill="#c16923" shape-rendering="crispEdges" /><rect width="50" height="10" x="170" y="190" fill="#4d271b" shape-rendering="crispEdges" /><rect width="30" height="10" x="240" y="190" fill="#c16923" shape-rendering="crispEdges" /><rect width="10" height="10" x="270" y="190" fill="#903707" shape-rendering="crispEdges" /><rect width="10" height="10" x="280" y="190" fill="#c16923" shape-rendering="crispEdges" /><rect width="50" height="10" x="30" y="200" fill="#c16923" shape-rendering="crispEdges" /><rect width="30" height="10" x="100" y="200" fill="#c16923" shape-rendering="crispEdges" /><rect width="10" height="10" x="130" y="200" fill="#903707" shape-rendering="crispEdges" /><rect width="10" height="10" x="140" y="200" fill="#c16923" shape-rendering="crispEdges" /><rect width="10" height="10" x="170" y="200" fill="#c16923" shape-rendering="crispEdges" /><rect width="10" height="10" x="180" y="200" fill="#903707" shape-rendering="crispEdges" /><rect width="30" height="10" x="190" y="200" fill="#c16923" shape-rendering="crispEdges" /><rect width="50" height="10" x="240" y="200" fill="#c16923" shape-rendering="crispEdges" /></svg>