<svg width="320" height="320" viewBox="0 0 320 320" xmlns="http://www.w3.org/2000/svg" shape-rendering="crispEdges"><rect width="100%" height="100%" fill="none" /><rect width="180" height="10" x="80" y="50" fill="#cfc2ab" shape-rendering="crispEdges" /><rect width="180" height="10" x="80" y="60" fill="#cfc2ab" shape-rendering="crispEdges" /><rect width="10" height="10" x="80" y="70" fill="#cfc2ab" shape-rendering="crispEdges" /><rect width="40" height="10" x="90" y="70" fill="#f8ddb0" shape-rendering="crispEdges" /><rect width="10" height="10" x="130" y="70" fill="#cfc2ab" shape-rendering="crispEdges" /><rect width="30" height="10" x="140" y="70" fill="#f8ddb0" shape-rendering="crispEdges" /><rect width="10" height="10" x="170" y="70" fill="#cfc2ab" shape-rendering="crispEdges" /><rect width="70" height="10" x="180" y="70" fill="#5648ed" shape-rendering="crispEdges" /><rect width="10" height="10" x="250" y="70" fill="#cfc2ab" shape-rendering="crispEdges" /><rect width="60" height="10" x="80" y="80" fill="#cfc2ab" shape-rendering="crispEdges" /><rect width="30" height="10" x="140" y="80" fill="#f8ddb0" shape-rendering="crispEdges" /><rect width="10" height="10" x="170" y="80" fill="#cfc2ab" shape-rendering="crispEdges" /><rect width="70" height="10" x="180" y="80" fill="#5648ed" shape-rendering="crispEdges" /><rect width="10" height="10" x="250" y="80" fill="#cfc2ab" shape-rendering="crispEdges" /><rect width="10" height="10" x="80" y="90" fill="#cfc2ab" shape-rendering="crispEdges" /><rect width="40" height="10" x="90" y="90" fill="#f8ddb0" shape-rendering="crispEdges" /><rect width="130" height="10" x="130" y="90" fill="#cfc2ab" shape-rendering="crispEdges" /><rect width="60" height="10" x="80" y="100" fill="#cfc2ab" shape-rendering="crispEdges" /><rect width="30" height="10" x="140" y="100" fill="#f8ddb0" shape-rendering="crispEdges" /><rect width="10" height="10" x="170" y="100" fill="#cfc2ab" shape-rendering="crispEdges" /><rect width="30" height="10" x="180" y="100" fill="#f8ddb0" shape-rendering="crispEdges" /><rect width="10" height="10" x="210" y="100" fill="#cfc2ab" shape-rendering="crispEdges" /><rect width="30" height="10" x="220" y="100" fill="#f8ddb0" shape-rendering="crispEdges" /><rect width="10" height="10" x="250" y="100" fill="#cfc2ab" shape-rendering="crispEdges" /><rect width="10" height="10" x="80" y="110" fill="#cfc2ab" shape-rendering="crispEdges" /><rect width="40" height="10" x="90" y="110" fill="#f8ddb0" shape-rendering="crispEdges" /><rect width="130" height="10" x="130" y="110" fill="#cfc2ab" shape-rendering="crispEdges" /><rect width="60" height="10" x="80" y="120" fill="#cfc2ab" shape-rendering="crispEdges" /><rect width="30" height="10" x="140" y="120" fill="#f8ddb0" shape-rendering="crispEdges" /><rect width="10" height="10" x="170" y="120" fill="#cfc2ab" shape-rendering="crispEdges" /><rect width="30" height="10" x="180" y="120" fill="#f8ddb0" shape-rendering="crispEdges" /><rect width="10" height="10" x="210" y="120" fill="#cfc2ab" shape-rendering="crispEdges" /><rect width="30" height="10" x="220" y="120" fill="#f8ddb0" shape-rendering="crispEdges" /><rect width="10" height="10" x="250" y="120" fill="#cfc2ab" shape-rendering="crispEdges" /><rect width="10" height="10" x="80" y="130" fill="#cfc2ab" shape-rendering="crispEdges" /><rect width="40" height="10" x="90" y="130" fill="#d22209" shape-rendering="crispEdges" /><rect width="130" height="10" x="130" y="130" fill="#cfc2ab" shape-rendering="crispEdges" /><rect width="10" height="10" x="80" y="140" fill="#cfc2ab" shape-rendering="crispEdges" /><rect width="40" height="10" x="90" y="140" fill="#d22209" shape-rendering="crispEdges" /><rect width="10" height="10" x="130" y="140" fill="#cfc2ab" shape-rendering="crispEdges" /><rect width="30" height="10" x="140" y="140" fill="#f8ddb0" shape-rendering="crispEdges" /><rect width="10" height="10" x="170" y="140" fill="#cfc2ab" shape-rendering="crispEdges" /><rect width="30" height="10" x="180" y="140" fill="#f8ddb0" shape-rendering="crispEdges" /><rect width="10" height="10" x="210" y="140" fill="#cfc2ab" shape-rendering="crispEdges" /><rect width="30" height="10" x="220" y="140" fill="#f8ddb0" shape-rendering="crispEdges" /><rect width="10" height="10" x="250" y="140" fill="#cfc2ab" shape-rendering="crispEdges" /><rect width="180" height="10" x="80" y="150" fill="#cfc2ab" shape-rendering="crispEdges" /><rect width="10" height="10" x="80" y="160" fill="#cfc2ab" shape-rendering="crispEdges" /><rect width="160" height="10" x="90" y="160" fill="#0b5027" shape-rendering="crispEdges" /><rect width="10" height="10" x="250" y="160" fill="#cfc2ab" shape-rendering="crispEdges" /><rect width="20" height="10" x="60" y="170" fill="#5a423f" shape-rendering="crispEdges" /><rect width="10" height="10" x="80" y="170" fill="#cfc2ab" shape-rendering="crispEdges" /><rect width="10" height="10" x="90" y="170" fill="#0b5027" shape-rendering="crispEdges" /><rect width="10" height="10" x="100" y="170" fill="#42ffb0" shape-rendering="crispEdges" /><rect width="30" height="10" x="110" y="170" fill="#0b5027" shape-rendering="crispEdges" /><rect width="10" height="10" x="140" y="170" fill="#42ffb0" shape-rendering="crispEdges" /><rect width="30" height="10" x="150" y="170" fill="#0b5027" shape-rendering="crispEdges" /><rect width="10" height="10" x="180" y="170" fill="#42ffb0" shape-rendering="crispEdges" /><rect width="10" height="10" x="190" y="170" fill="#0b5027" shape-rendering="crispEdges" /><rect width="10" height="10" x="200" y="170" fill="#42ffb0" shape-rendering="crispEdges" /><rect width="10" height="10" x="210" y="170" fill="#0b5027" shape-rendering="crispEdges" /><rect width="20" height="10" x="220" y="170" fill="#42ffb0" shape-rendering="crispEdges" /><rect width="10" height="10" x="240" y="170" fill="#0b5027" shape-rendering="crispEdges" /><rect width="10" height="10" x="250" y="170" fill="#cfc2ab" shape-rendering="crispEdges" /><rect width="20" height="10" x="60" y="180" fill="#5a423f" shape-rendering="crispEdges" /><rect width="10" height="10" x="80" y="180" fill="#cfc2ab" shape-rendering="crispEdges" /><rect width="10" height="10" x="90" y="180" fill="#0b5027" shape-rendering="crispEdges" /><rect width="30" height="10" x="100" y="180" fill="#42ffb0" shape-rendering="crispEdges" /><rect width="10" height="10" x="130" y="180" fill="#0b5027" shape-rendering="crispEdges" /><rect width="20" height="10" x="140" y="180" fill="#42ffb0" shape-rendering="crispEdges" /><rect width="20" height="10" x="160" y="180" fill="#0b5027" shape-rendering="crispEdges" /><rect width="10" height="10" x="180" y="180" fill="#42ffb0" shape-rendering="crispEdges" /><rect width="10" height="10" x="190" y="180" fill="#0b5027" shape-rendering="crispEdges" /><rect width="10" height="10" x="200" y="180" fill="#42ffb0" shape-rendering="crispEdges" /><rect width="10" height="10" x="210" y="180" fill="#0b5027" shape-rendering="crispEdges" /><rect width="20" height="10" x="220" y="180" fill="#42ffb0" shape-rendering="crispEdges" /><rect width="10" height="10" x="240" y="180" fill="#0b5027" shape-rendering="crispEdges" /><rect width="10" height="10" x="250" y="180" fill="#cfc2ab" shape-rendering="crispEdges" /><rect width="20" height="10" x="60" y="190" fill="#5a423f" shape-rendering="crispEdges" /><rect width="10" height="10" x="80" y="190" fill="#cfc2ab" shape-rendering="crispEdges" /><rect width="10" height="10" x="90" y="190" fill="#0b5027" shape-rendering="crispEdges" /><rect width="10" height="10" x="100" y="190" fill="#42ffb0" shape-rendering="crispEdges" /><rect width="10" height="10" x="110" y="190" fill="#0b5027" shape-rendering="crispEdges" /><rect width="10" height="10" x="120" y="190" fill="#42ffb0" shape-rendering="crispEdges" /><rect width="10" height="10" x="130" y="190" fill="#0b5027" shape-rendering="crispEdges" /><rect width="30" height="10" x="140" y="190" fill="#42ffb0" shape-rendering="crispEdges" /><rect width="10" height="10" x="170" y="190" fill="#0b5027" shape-rendering="crispEdges" /><rect width="10" height="10" x="180" y="190" fill="#42ffb0" shape-rendering="crispEdges" /><rect width="10" height="10" x="190" y="190" fill="#0b5027" shape-rendering="crispEdges" /><rect width="10" height="10" x="200" y="190" fill="#42ffb0" shape-rendering="crispEdges" /><rect width="10" height="10" x="210" y="190" fill="#0b5027" shape-rendering="crispEdges" /><rect width="20" height="10" x="220" y="190" fill="#42ffb0" shape-rendering="crispEdges" /><rect width="10" height="10" x="240" y="190" fill="#0b5027" shape-rendering="crispEdges" /><rect width="10" height="10" x="250" y="190" fill="#cfc2ab" shape-rendering="crispEdges" /><rect width="20" height="10" x="60" y="200" fill="#5a423f" shape-rendering="crispEdges" /><rect width="10" height="10" x="80" y="200" fill="#cfc2ab" shape-rendering="crispEdges" /><rect width="160" height="10" x="90" y="200" fill="#0b5027" shape-rendering="crispEdges" /><rect width="10" height="10" x="250" y="200" fill="#cfc2ab" shape-rendering="crispEdges" /><rect width="10" height="10" x="80" y="210" fill="#cfc2ab" shape-rendering="crispEdges" /><rect width="160" height="10" x="90" y="210" fill="#d56333" shape-rendering="crispEdges" /><rect width="10" height="10" x="250" y="210" fill="#cfc2ab" shape-rendering="crispEdges" /><rect width="180" height="10" x="80" y="220" fill="#cfc2ab" shape-rendering="crispEdges" /></svg>