<svg width="320" height="320" viewBox="0 0 320 320" xmlns="http://www.w3.org/2000/svg" shape-rendering="crispEdges"><rect width="100%" height="100%" fill="none" /><rect width="30" height="10" x="140" y="10" fill="#f3322c" shape-rendering="crispEdges" /><rect width="70" height="10" x="120" y="20" fill="#f3322c" shape-rendering="crispEdges" /><rect width="10" height="10" x="110" y="30" fill="#e8705b" shape-rendering="crispEdges" /><rect width="90" height="10" x="120" y="30" fill="#f3322c" shape-rendering="crispEdges" /><rect width="10" height="10" x="100" y="40" fill="#f3322c" shape-rendering="crispEdges" /><rect width="10" height="10" x="110" y="40" fill="#e8705b" shape-rendering="crispEdges" /><rect width="100" height="10" x="120" y="40" fill="#f3322c" shape-rendering="crispEdges" /><rect width="20" height="10" x="100" y="50" fill="#f3322c" shape-rendering="crispEdges" /><rect width="10" height="10" x="120" y="50" fill="#e8705b" shape-rendering="crispEdges" /><rect width="60" height="10" x="130" y="50" fill="#f3322c" shape-rendering="crispEdges" /><rect width="10" height="10" x="190" y="50" fill="#e8705b" shape-rendering="crispEdges" /><rect width="20" height="10" x="200" y="50" fill="#f3322c" shape-rendering="crispEdges" /><rect width="30" height="10" x="100" y="60" fill="#f3322c" shape-rendering="crispEdges" /><rect width="40" height="10" x="130" y="60" fill="#e8705b" shape-rendering="crispEdges" /><rect width="20" height="10" x="170" y="60" fill="#ffffff" shape-rendering="crispEdges" /><rect width="30" height="10" x="190" y="60" fill="#f3322c" shape-rendering="crispEdges" /><rect width="70" height="10" x="100" y="70" fill="#f3322c" shape-rendering="crispEdges" /><rect width="20" height="10" x="170" y="70" fill="#e8705b" shape-rendering="crispEdges" /><rect width="30" height="10" x="190" y="70" fill="#f3322c" shape-rendering="crispEdges" /><rect width="70" height="10" x="100" y="80" fill="#f3322c" shape-rendering="crispEdges" /><rect width="20" height="10" x="170" y="80" fill="#e8705b" shape-rendering="crispEdges" /><rect width="30" height="10" x="190" y="80" fill="#f3322c" shape-rendering="crispEdges" /><rect width="110" height="10" x="80" y="90" fill="#fff449" shape-rendering="crispEdges" /><rect width="10" height="10" x="190" y="90" fill="#ffffff" shape-rendering="crispEdges" /><rect width="40" height="10" x="200" y="90" fill="#fff449" shape-rendering="crispEdges" /><rect width="110" height="10" x="80" y="100" fill="#fff449" shape-rendering="crispEdges" /><rect width="10" height="10" x="190" y="100" fill="#ffffff" shape-rendering="crispEdges" /><rect width="40" height="10" x="200" y="100" fill="#fff449" shape-rendering="crispEdges" /><rect width="110" height="10" x="80" y="110" fill="#fff449" shape-rendering="crispEdges" /><rect width="10" height="10" x="190" y="110" fill="#ffffff" shape-rendering="crispEdges" /><rect width="40" height="10" x="200" y="110" fill="#fff449" shape-rendering="crispEdges" /><rect width="110" height="10" x="80" y="120" fill="#343235" shape-rendering="crispEdges" /><rect width="10" height="10" x="190" y="120" fill="#807f7e" shape-rendering="crispEdges" /><rect width="40" height="10" x="200" y="120" fill="#343235" shape-rendering="crispEdges" /><rect width="110" height="10" x="80" y="130" fill="#343235" shape-rendering="crispEdges" /><rect width="10" height="10" x="190" y="130" fill="#807f7e" shape-rendering="crispEdges" /><rect width="40" height="10" x="200" y="130" fill="#343235" shape-rendering="crispEdges" /><rect width="110" height="10" x="80" y="140" fill="#343235" shape-rendering="crispEdges" /><rect width="10" height="10" x="190" y="140" fill="#807f7e" shape-rendering="crispEdges" /><rect width="40" height="10" x="200" y="140" fill="#343235" shape-rendering="crispEdges" /><rect width="110" height="10" x="80" y="150" fill="#343235" shape-rendering="crispEdges" /><rect width="10" height="10" x="190" y="150" fill="#807f7e" shape-rendering="crispEdges" /><rect width="40" height="10" x="200" y="150" fill="#343235" shape-rendering="crispEdges" /><rect width="110" height="10" x="80" y="160" fill="#343235" shape-rendering="crispEdges" /><rect width="10" height="10" x="190" y="160" fill="#807f7e" shape-rendering="crispEdges" /><rect width="40" height="10" x="200" y="160" fill="#343235" shape-rendering="crispEdges" /><rect width="110" height="10" x="80" y="170" fill="#343235" shape-rendering="crispEdges" /><rect width="10" height="10" x="190" y="170" fill="#807f7e" shape-rendering="crispEdges" /><rect width="40" height="10" x="200" y="170" fill="#343235" shape-rendering="crispEdges" /><rect width="60" height="10" x="80" y="180" fill="#343235" shape-rendering="crispEdges" /><rect width="20" height="10" x="140" y="180" fill="#000000" shape-rendering="crispEdges" /><rect width="30" height="10" x="160" y="180" fill="#343235" shape-rendering="crispEdges" /><rect width="10" height="10" x="190" y="180" fill="#807f7e" shape-rendering="crispEdges" /><rect width="40" height="10" x="200" y="180" fill="#343235" shape-rendering="crispEdges" /><rect width="110" height="10" x="80" y="190" fill="#343235" shape-rendering="crispEdges" /><rect width="10" height="10" x="190" y="190" fill="#807f7e" shape-rendering="crispEdges" /><rect width="40" height="10" x="200" y="190" fill="#343235" shape-rendering="crispEdges" /><rect width="110" height="10" x="80" y="200" fill="#807f7e" shape-rendering="crispEdges" /><rect width="10" height="10" x="190" y="200" fill="#ffffff" shape-rendering="crispEdges" /><rect width="40" height="10" x="200" y="200" fill="#807f7e" shape-rendering="crispEdges" /></svg>