<svg width="320" height="320" viewBox="0 0 320 320" xmlns="http://www.w3.org/2000/svg" shape-rendering="crispEdges"><rect width="100%" height="100%" fill="none" /><rect width="20" height="10" x="150" y="30" fill="#000000" shape-rendering="crispEdges" /><rect width="10" height="10" x="60" y="40" fill="#5d6061" shape-rendering="crispEdges" /><rect width="40" height="10" x="70" y="40" fill="#76858b" shape-rendering="crispEdges" /><rect width="20" height="10" x="110" y="40" fill="#5d6061" shape-rendering="crispEdges" /><rect width="60" height="10" x="130" y="40" fill="#000000" shape-rendering="crispEdges" /><rect width="20" height="10" x="190" y="40" fill="#5d6061" shape-rendering="crispEdges" /><rect width="40" height="10" x="210" y="40" fill="#76858b" shape-rendering="crispEdges" /><rect width="10" height="10" x="250" y="40" fill="#5d6061" shape-rendering="crispEdges" /><rect width="20" height="10" x="150" y="50" fill="#000000" shape-rendering="crispEdges" /><rect width="20" height="10" x="150" y="60" fill="#000000" shape-rendering="crispEdges" /><rect width="70" height="10" x="120" y="70" fill="#ff638d" shape-rendering="crispEdges" /><rect width="70" height="10" x="190" y="70" fill="#26b1f3" shape-rendering="crispEdges" /><rect width="20" height="10" x="30" y="80" fill="#ff638d" shape-rendering="crispEdges" /><rect width="20" height="10" x="110" y="80" fill="#ff638d" shape-rendering="crispEdges" /><rect width="10" height="10" x="130" y="80" fill="#cc0595" shape-rendering="crispEdges" /><rect width="10" height="10" x="140" y="80" fill="#ff638d" shape-rendering="crispEdges" /><rect width="10" height="10" x="150" y="80" fill="#cc0595" shape-rendering="crispEdges" /><rect width="10" height="10" x="160" y="80" fill="#ff638d" shape-rendering="crispEdges" /><rect width="10" height="10" x="170" y="80" fill="#cc0595" shape-rendering="crispEdges" /><rect width="10" height="10" x="180" y="80" fill="#ff638d" shape-rendering="crispEdges" /><rect width="80" height="10" x="190" y="80" fill="#26b1f3" shape-rendering="crispEdges" /><rect width="30" height="10" x="30" y="90" fill="#ff638d" shape-rendering="crispEdges" /><rect width="30" height="10" x="100" y="90" fill="#ff638d" shape-rendering="crispEdges" /><rect width="10" height="10" x="130" y="90" fill="#cc0595" shape-rendering="crispEdges" /><rect width="10" height="10" x="140" y="90" fill="#ff638d" shape-rendering="crispEdges" /><rect width="10" height="10" x="150" y="90" fill="#cc0595" shape-rendering="crispEdges" /><rect width="10" height="10" x="160" y="90" fill="#ff638d" shape-rendering="crispEdges" /><rect width="10" height="10" x="170" y="90" fill="#cc0595" shape-rendering="crispEdges" /><rect width="10" height="10" x="180" y="90" fill="#ff638d" shape-rendering="crispEdges" /><rect width="90" height="10" x="190" y="90" fill="#26b1f3" shape-rendering="crispEdges" /><rect width="20" height="10" x="30" y="100" fill="#76858b" shape-rendering="crispEdges" /><rect width="140" height="10" x="50" y="100" fill="#ff638d" shape-rendering="crispEdges" /><rect width="50" height="10" x="190" y="100" fill="#26b1f3" shape-rendering="crispEdges" /><rect width="30" height="10" x="240" y="100" fill="#ffffff" shape-rendering="crispEdges" /><rect width="20" height="10" x="270" y="100" fill="#26b1f3" shape-rendering="crispEdges" /><rect width="10" height="10" x="20" y="110" fill="#76858b" shape-rendering="crispEdges" /><rect width="20" height="10" x="30" y="110" fill="#000000" shape-rendering="crispEdges" /><rect width="10" height="10" x="50" y="110" fill="#76858b" shape-rendering="crispEdges" /><rect width="130" height="10" x="60" y="110" fill="#ff638d" shape-rendering="crispEdges" /><rect width="50" height="10" x="190" y="110" fill="#26b1f3" shape-rendering="crispEdges" /><rect width="30" height="10" x="240" y="110" fill="#ffffff" shape-rendering="crispEdges" /><rect width="20" height="10" x="270" y="110" fill="#26b1f3" shape-rendering="crispEdges" /><rect width="10" height="10" x="20" y="120" fill="#76858b" shape-rendering="crispEdges" /><rect width="20" height="10" x="30" y="120" fill="#000000" shape-rendering="crispEdges" /><rect width="10" height="10" x="50" y="120" fill="#76858b" shape-rendering="crispEdges" /><rect width="130" height="10" x="60" y="120" fill="#ff638d" shape-rendering="crispEdges" /><rect width="50" height="10" x="190" y="120" fill="#26b1f3" shape-rendering="crispEdges" /><rect width="30" height="10" x="240" y="120" fill="#ffffff" shape-rendering="crispEdges" /><rect width="20" height="10" x="270" y="120" fill="#26b1f3" shape-rendering="crispEdges" /><rect width="20" height="10" x="30" y="130" fill="#76858b" shape-rendering="crispEdges" /><rect width="120" height="10" x="70" y="130" fill="#ff638d" shape-rendering="crispEdges" /><rect width="100" height="10" x="190" y="130" fill="#26b1f3" shape-rendering="crispEdges" /><rect width="110" height="10" x="80" y="140" fill="#ff638d" shape-rendering="crispEdges" /><rect width="80" height="10" x="190" y="140" fill="#26b1f3" shape-rendering="crispEdges" /><rect width="10" height="10" x="270" y="140" fill="#ffffff" shape-rendering="crispEdges" /><rect width="10" height="10" x="280" y="140" fill="#26b1f3" shape-rendering="crispEdges" /><rect width="100" height="10" x="90" y="150" fill="#ff638d" shape-rendering="crispEdges" /><rect width="80" height="10" x="190" y="150" fill="#26b1f3" shape-rendering="crispEdges" /><rect width="10" height="10" x="270" y="150" fill="#ffffff" shape-rendering="crispEdges" /><rect width="10" height="10" x="280" y="150" fill="#26b1f3" shape-rendering="crispEdges" /><rect width="90" height="10" x="100" y="160" fill="#ff638d" shape-rendering="crispEdges" /><rect width="60" height="10" x="190" y="160" fill="#26b1f3" shape-rendering="crispEdges" /><rect width="20" height="10" x="250" y="160" fill="#ffffff" shape-rendering="crispEdges" /><rect width="10" height="10" x="270" y="160" fill="#26b1f3" shape-rendering="crispEdges" /><rect width="80" height="10" x="110" y="170" fill="#ff638d" shape-rendering="crispEdges" /><rect width="80" height="10" x="190" y="170" fill="#26b1f3" shape-rendering="crispEdges" /><rect width="140" height="10" x="120" y="180" fill="#ff638d" shape-rendering="crispEdges" /><rect width="10" height="10" x="140" y="190" fill="#000000" shape-rendering="crispEdges" /><rect width="10" height="10" x="170" y="190" fill="#000000" shape-rendering="crispEdges" /><rect width="140" height="10" x="90" y="200" fill="#000000" shape-rendering="crispEdges" /></svg>