<svg width="320" height="320" viewBox="0 0 320 320" xmlns="http://www.w3.org/2000/svg" shape-rendering="crispEdges"><rect width="100%" height="100%" fill="none" /><rect width="10" height="10" x="50" y="50" fill="#000000" shape-rendering="crispEdges" /><rect width="10" height="10" x="80" y="50" fill="#000000" shape-rendering="crispEdges" /><rect width="10" height="10" x="110" y="50" fill="#000000" shape-rendering="crispEdges" /><rect width="10" height="10" x="140" y="50" fill="#000000" shape-rendering="crispEdges" /><rect width="10" height="10" x="170" y="50" fill="#000000" shape-rendering="crispEdges" /><rect width="10" height="10" x="200" y="50" fill="#000000" shape-rendering="crispEdges" /><rect width="10" height="10" x="230" y="50" fill="#000000" shape-rendering="crispEdges" /><rect width="10" height="10" x="260" y="50" fill="#000000" shape-rendering="crispEdges" /><rect width="10" height="10" x="50" y="80" fill="#000000" shape-rendering="crispEdges" /><rect width="10" height="10" x="260" y="80" fill="#000000" shape-rendering="crispEdges" /><rect width="10" height="10" x="50" y="110" fill="#000000" shape-rendering="crispEdges" /><rect width="10" height="10" x="260" y="110" fill="#000000" shape-rendering="crispEdges" /><rect width="10" height="10" x="50" y="140" fill="#000000" shape-rendering="crispEdges" /><rect width="10" height="10" x="260" y="140" fill="#000000" shape-rendering="crispEdges" /><rect width="10" height="10" x="50" y="170" fill="#000000" shape-rendering="crispEdges" /><rect width="10" height="10" x="260" y="170" fill="#000000" shape-rendering="crispEdges" /><rect width="10" height="10" x="50" y="200" fill="#000000" shape-rendering="crispEdges" /><rect width="10" height="10" x="80" y="200" fill="#000000" shape-rendering="crispEdges" /><rect width="10" height="10" x="110" y="200" fill="#000000" shape-rendering="crispEdges" /><rect width="10" height="10" x="140" y="200" fill="#000000" shape-rendering="crispEdges" /><rect width="10" height="10" x="170" y="200" fill="#000000" shape-rendering="crispEdges" /><rect width="10" height="10" x="200" y="200" fill="#000000" shape-rendering="crispEdges" /><rect width="10" height="10" x="230" y="200" fill="#000000" shape-rendering="crispEdges" /><rect width="10" height="10" x="260" y="200" fill="#000000" shape-rendering="crispEdges" /></svg>