<svg width="320" height="320" viewBox="0 0 320 320" xmlns="http://www.w3.org/2000/svg" shape-rendering="crispEdges"><rect width="100%" height="100%" fill="none" /><rect width="100" height="10" x="110" y="50" fill="#2b83f6" shape-rendering="crispEdges" /><rect width="160" height="10" x="80" y="60" fill="#2b83f6" shape-rendering="crispEdges" /><rect width="160" height="10" x="80" y="70" fill="#2b83f6" shape-rendering="crispEdges" /><rect width="180" height="10" x="70" y="80" fill="#2b83f6" shape-rendering="crispEdges" /><rect width="180" height="10" x="70" y="90" fill="#2b83f6" shape-rendering="crispEdges" /><rect width="160" height="10" x="80" y="100" fill="#f9e8dd" shape-rendering="crispEdges" /><rect width="160" height="10" x="80" y="110" fill="#f9e8dd" shape-rendering="crispEdges" /><rect width="160" height="10" x="80" y="120" fill="#f9e8dd" shape-rendering="crispEdges" /><rect width="160" height="10" x="80" y="130" fill="#f9e8dd" shape-rendering="crispEdges" /><rect width="160" height="10" x="80" y="140" fill="#f9e8dd" shape-rendering="crispEdges" /><rect width="160" height="10" x="80" y="150" fill="#f9e8dd" shape-rendering="crispEdges" /><rect width="160" height="10" x="80" y="160" fill="#f9e8dd" shape-rendering="crispEdges" /><rect width="70" height="10" x="80" y="170" fill="#f9e8dd" shape-rendering="crispEdges" /><rect width="10" height="10" x="150" y="170" fill="#9d8e6e" shape-rendering="crispEdges" /><rect width="10" height="10" x="160" y="170" fill="#f9e8dd" shape-rendering="crispEdges" /><rect width="10" height="10" x="170" y="170" fill="#9d8e6e" shape-rendering="crispEdges" /><rect width="60" height="10" x="180" y="170" fill="#f9e8dd" shape-rendering="crispEdges" /><rect width="120" height="10" x="100" y="180" fill="#f9e8dd" shape-rendering="crispEdges" /><rect width="20" height="10" x="100" y="190" fill="#f9e8dd" shape-rendering="crispEdges" /><rect width="10" height="10" x="120" y="190" fill="#9d8e6e" shape-rendering="crispEdges" /><rect width="10" height="10" x="130" y="190" fill="#f9e8dd" shape-rendering="crispEdges" /><rect width="10" height="10" x="140" y="190" fill="#ffe939" shape-rendering="crispEdges" /><rect width="10" height="10" x="150" y="190" fill="#f9e8dd" shape-rendering="crispEdges" /><rect width="10" height="10" x="160" y="190" fill="#9d8e6e" shape-rendering="crispEdges" /><rect width="10" height="10" x="170" y="190" fill="#f9e8dd" shape-rendering="crispEdges" /><rect width="10" height="10" x="180" y="190" fill="#9d8e6e" shape-rendering="crispEdges" /><rect width="10" height="10" x="190" y="190" fill="#f9e8dd" shape-rendering="crispEdges" /><rect width="10" height="10" x="200" y="190" fill="#9d8e6e" shape-rendering="crispEdges" /><rect width="10" height="10" x="210" y="190" fill="#f9e8dd" shape-rendering="crispEdges" /><rect width="30" height="10" x="100" y="200" fill="#f9e8dd" shape-rendering="crispEdges" /><rect width="10" height="10" x="130" y="200" fill="#9d8e6e" shape-rendering="crispEdges" /><rect width="10" height="10" x="140" y="200" fill="#f9e8dd" shape-rendering="crispEdges" /><rect width="10" height="10" x="150" y="200" fill="#9d8e6e" shape-rendering="crispEdges" /><rect width="10" height="10" x="160" y="200" fill="#f9e8dd" shape-rendering="crispEdges" /><rect width="10" height="10" x="170" y="200" fill="#9d8e6e" shape-rendering="crispEdges" /><rect width="10" height="10" x="180" y="200" fill="#f9e8dd" shape-rendering="crispEdges" /><rect width="10" height="10" x="190" y="200" fill="#9d8e6e" shape-rendering="crispEdges" /><rect width="10" height="10" x="200" y="200" fill="#f9e8dd" shape-rendering="crispEdges" /><rect width="10" height="10" x="210" y="200" fill="#9d8e6e" shape-rendering="crispEdges" /><rect width="110" height="10" x="110" y="210" fill="#f9e8dd" shape-rendering="crispEdges" /></svg>