<svg width="320" height="320" viewBox="0 0 320 320" xmlns="http://www.w3.org/2000/svg" shape-rendering="crispEdges"><rect width="100%" height="100%" fill="none" /><rect width="20" height="10" x="150" y="30" fill="#000000" shape-rendering="crispEdges" /><rect width="20" height="10" x="150" y="40" fill="#000000" shape-rendering="crispEdges" /><rect width="40" height="10" x="140" y="50" fill="#000000" shape-rendering="crispEdges" /><rect width="40" height="10" x="140" y="60" fill="#000000" shape-rendering="crispEdges" /><rect width="60" height="10" x="130" y="70" fill="#000000" shape-rendering="crispEdges" /><rect width="20" height="10" x="130" y="80" fill="#000000" shape-rendering="crispEdges" /><rect width="10" height="10" x="150" y="80" fill="#fff0be" shape-rendering="crispEdges" /><rect width="30" height="10" x="160" y="80" fill="#000000" shape-rendering="crispEdges" /><rect width="20" height="10" x="120" y="90" fill="#000000" shape-rendering="crispEdges" /><rect width="30" height="10" x="140" y="90" fill="#fff0be" shape-rendering="crispEdges" /><rect width="30" height="10" x="170" y="90" fill="#000000" shape-rendering="crispEdges" /><rect width="70" height="10" x="120" y="100" fill="#fff0be" shape-rendering="crispEdges" /><rect width="10" height="10" x="190" y="100" fill="#000000" shape-rendering="crispEdges" /><rect width="100" height="10" x="110" y="110" fill="#fff0be" shape-rendering="crispEdges" /><rect width="100" height="10" x="110" y="120" fill="#fff0be" shape-rendering="crispEdges" /><rect width="120" height="10" x="100" y="130" fill="#fff0be" shape-rendering="crispEdges" /><rect width="120" height="10" x="100" y="140" fill="#fff0be" shape-rendering="crispEdges" /><rect width="140" height="10" x="90" y="150" fill="#fff0be" shape-rendering="crispEdges" /><rect width="140" height="10" x="90" y="160" fill="#fff0be" shape-rendering="crispEdges" /><rect width="20" height="10" x="90" y="170" fill="#fff0be" shape-rendering="crispEdges" /><rect width="40" height="10" x="110" y="170" fill="#ffc110" shape-rendering="crispEdges" /><rect width="50" height="10" x="150" y="170" fill="#fff0be" shape-rendering="crispEdges" /><rect width="30" height="10" x="200" y="170" fill="#ffc110" shape-rendering="crispEdges" /><rect width="10" height="10" x="90" y="180" fill="#fff0be" shape-rendering="crispEdges" /><rect width="60" height="10" x="100" y="180" fill="#ffc110" shape-rendering="crispEdges" /><rect width="30" height="10" x="160" y="180" fill="#fff0be" shape-rendering="crispEdges" /><rect width="40" height="10" x="190" y="180" fill="#ffc110" shape-rendering="crispEdges" /><rect width="30" height="10" x="90" y="190" fill="#ffc110" shape-rendering="crispEdges" /><rect width="80" height="10" x="120" y="190" fill="#e8705b" shape-rendering="crispEdges" /><rect width="30" height="10" x="200" y="190" fill="#ffc110" shape-rendering="crispEdges" /><rect width="140" height="10" x="90" y="200" fill="#ffc110" shape-rendering="crispEdges" /></svg>