<svg id="svg" version="1.1" xmlns="http://www.w3.org/2000/svg" xmlns:xlink="http://www.w3.org/1999/xlink" width="400" height="400" viewBox="0, 0, 400,400"><g id="svgg"><path id="path0" d="M50.000 93.750 L 50.000 100.000 75.000 100.000 L 100.000 100.000 100.000 93.750 L 100.000 87.500 75.000 87.500 L 50.000 87.500 50.000 93.750 M300.000 93.750 L 300.000 100.000 325.000 100.000 L 350.000 100.000 350.000 93.750 L 350.000 87.500 325.000 87.500 L 300.000 87.500 300.000 93.750 M162.500 106.250 L 162.500 112.500 168.750 112.500 L 175.000 112.500 175.000 106.250 L 175.000 100.000 168.750 100.000 L 162.500 100.000 162.500 106.250 M187.500 106.250 L 187.500 112.500 200.000 112.500 L 212.500 112.500 212.500 106.250 L 212.500 100.000 200.000 100.000 L 187.500 100.000 187.500 106.250 M225.000 106.250 L 225.000 112.500 231.250 112.500 L 237.500 112.500 237.500 106.250 L 237.500 100.000 231.250 100.000 L 225.000 100.000 225.000 106.250 M50.000 118.750 L 50.000 125.000 75.000 125.000 L 100.000 125.000 100.000 118.750 L 100.000 112.500 75.000 112.500 L 50.000 112.500 50.000 118.750 M300.000 118.750 L 300.000 125.000 325.000 125.000 L 350.000 125.000 350.000 118.750 L 350.000 112.500 325.000 112.500 L 300.000 112.500 300.000 118.750 " stroke="none" fill="#b4b4b4" fill-rule="evenodd"></path><path id="path1" d="M62.500 81.250 L 62.500 87.500 75.000 87.500 L 87.500 87.500 87.500 81.250 L 87.500 75.000 75.000 75.000 L 62.500 75.000 62.500 81.250 M312.500 81.250 L 312.500 87.500 325.000 87.500 L 337.500 87.500 337.500 81.250 L 337.500 75.000 325.000 75.000 L 312.500 75.000 312.500 81.250 M62.500 106.250 L 62.500 112.500 75.000 112.500 L 87.500 112.500 87.500 106.250 L 87.500 100.000 75.000 100.000 L 62.500 100.000 62.500 106.250 M312.500 106.250 L 312.500 112.500 325.000 112.500 L 337.500 112.500 337.500 106.250 L 337.500 100.000 325.000 100.000 L 312.500 100.000 312.500 106.250 M62.500 143.750 L 62.500 162.500 68.750 162.500 L 75.000 162.500 75.000 168.750 L 75.000 175.000 81.250 175.000 L 87.500 175.000 87.500 181.250 L 87.500 187.500 100.000 187.500 L 112.500 187.500 112.500 168.750 L 112.500 150.000 106.250 150.000 L 100.000 150.000 100.000 143.750 L 100.000 137.500 93.750 137.500 L 87.500 137.500 87.500 131.250 L 87.500 125.000 75.000 125.000 L 62.500 125.000 62.500 143.750 M312.500 131.250 L 312.500 137.500 306.250 137.500 L 300.000 137.500 300.000 143.750 L 300.000 150.000 293.750 150.000 L 287.500 150.000 287.500 168.750 L 287.500 187.500 300.000 187.500 L 312.500 187.500 312.500 181.250 L 312.500 175.000 318.750 175.000 L 325.000 175.000 325.000 168.750 L 325.000 162.500 331.250 162.500 L 337.500 162.500 337.500 143.750 L 337.500 125.000 325.000 125.000 L 312.500 125.000 312.500 131.250 " stroke="none" fill="#6c747c" fill-rule="evenodd"></path><path id="path2" d="M62.500 18.750 L 62.500 25.000 56.250 25.000 L 50.000 25.000 50.000 31.250 L 50.000 37.500 43.750 37.500 L 37.500 37.500 37.500 43.750 L 37.500 50.000 43.750 50.000 L 50.000 50.000 50.000 56.250 L 50.000 62.500 56.250 62.500 L 62.500 62.500 62.500 68.750 L 62.500 75.000 75.000 75.000 L 87.500 75.000 87.500 68.750 L 87.500 62.500 93.750 62.500 L 100.000 62.500 100.000 56.250 L 100.000 50.000 106.250 50.000 L 112.500 50.000 112.500 43.750 L 112.500 37.500 106.250 37.500 L 100.000 37.500 100.000 31.250 L 100.000 25.000 93.750 25.000 L 87.500 25.000 87.500 18.750 L 87.500 12.500 75.000 12.500 L 62.500 12.500 62.500 18.750 M312.500 18.750 L 312.500 25.000 306.250 25.000 L 300.000 25.000 300.000 31.250 L 300.000 37.500 293.750 37.500 L 287.500 37.500 287.500 43.750 L 287.500 50.000 293.750 50.000 L 300.000 50.000 300.000 56.250 L 300.000 62.500 306.250 62.500 L 312.500 62.500 312.500 68.750 L 312.500 75.000 325.000 75.000 L 337.500 75.000 337.500 68.750 L 337.500 62.500 343.750 62.500 L 350.000 62.500 350.000 56.250 L 350.000 50.000 356.250 50.000 L 362.500 50.000 362.500 43.750 L 362.500 37.500 356.250 37.500 L 350.000 37.500 350.000 31.250 L 350.000 25.000 343.750 25.000 L 337.500 25.000 337.500 18.750 L 337.500 12.500 325.000 12.500 L 312.500 12.500 312.500 18.750 " stroke="none" fill="#2c2c2c" fill-rule="evenodd"></path><path id="path3" d="M162.500 81.250 L 162.500 87.500 150.000 87.500 L 137.500 87.500 137.500 93.750 L 137.500 100.000 131.250 100.000 L 125.000 100.000 125.000 106.250 L 125.000 112.500 118.750 112.500 L 112.500 112.500 112.500 181.250 L 112.500 250.000 200.000 250.000 L 287.500 250.000 287.500 181.250 L 287.500 112.500 281.250 112.500 L 275.000 112.500 275.000 106.250 L 275.000 100.000 268.750 100.000 L 262.500 100.000 262.500 93.750 L 262.500 87.500 250.000 87.500 L 237.500 87.500 237.500 81.250 L 237.500 75.000 200.000 75.000 L 162.500 75.000 162.500 81.250 M175.000 106.250 L 175.000 112.500 168.750 112.500 L 162.500 112.500 162.500 106.250 L 162.500 100.000 168.750 100.000 L 175.000 100.000 175.000 106.250 M212.500 106.250 L 212.500 112.500 200.000 112.500 L 187.500 112.500 187.500 106.250 L 187.500 100.000 200.000 100.000 L 212.500 100.000 212.500 106.250 M237.500 106.250 L 237.500 112.500 231.250 112.500 L 225.000 112.500 225.000 106.250 L 225.000 100.000 231.250 100.000 L 237.500 100.000 237.500 106.250 M275.000 231.250 L 275.000 237.500 206.250 237.500 L 137.500 237.500 137.500 231.250 L 137.500 225.000 206.250 225.000 L 275.000 225.000 275.000 231.250 " stroke="none" fill="#847c7c" fill-rule="evenodd"></path><path id="path4" d="M112.500 31.250 L 112.500 37.500 118.750 37.500 L 125.000 37.500 125.000 43.750 L 125.000 50.000 131.250 50.000 L 137.500 50.000 137.500 56.250 L 137.500 62.500 143.750 62.500 L 150.000 62.500 150.000 56.250 L 150.000 50.000 156.250 50.000 L 162.500 50.000 162.500 43.750 L 162.500 37.500 168.750 37.500 L 175.000 37.500 175.000 43.750 L 175.000 50.000 181.250 50.000 L 187.500 50.000 187.500 56.250 L 187.500 62.500 193.750 62.500 L 200.000 62.500 200.000 56.250 L 200.000 50.000 206.250 50.000 L 212.500 50.000 212.500 43.750 L 212.500 37.500 218.750 37.500 L 225.000 37.500 225.000 43.750 L 225.000 50.000 231.250 50.000 L 237.500 50.000 237.500 56.250 L 237.500 62.500 243.750 62.500 L 250.000 62.500 250.000 56.250 L 250.000 50.000 256.250 50.000 L 262.500 50.000 262.500 43.750 L 262.500 37.500 268.750 37.500 L 275.000 37.500 275.000 43.750 L 275.000 50.000 281.250 50.000 L 287.500 50.000 287.500 43.750 L 287.500 37.500 281.250 37.500 L 275.000 37.500 275.000 31.250 L 275.000 25.000 268.750 25.000 L 262.500 25.000 262.500 31.250 L 262.500 37.500 256.250 37.500 L 250.000 37.500 250.000 43.750 L 250.000 50.000 243.750 50.000 L 237.500 50.000 237.500 43.750 L 237.500 37.500 231.250 37.500 L 225.000 37.500 225.000 31.250 L 225.000 25.000 218.750 25.000 L 212.500 25.000 212.500 31.250 L 212.500 37.500 206.250 37.500 L 200.000 37.500 200.000 43.750 L 200.000 50.000 193.750 50.000 L 187.500 50.000 187.500 43.750 L 187.500 37.500 181.250 37.500 L 175.000 37.500 175.000 31.250 L 175.000 25.000 168.750 25.000 L 162.500 25.000 162.500 31.250 L 162.500 37.500 156.250 37.500 L 150.000 37.500 150.000 43.750 L 150.000 50.000 143.750 50.000 L 137.500 50.000 137.500 43.750 L 137.500 37.500 131.250 37.500 L 125.000 37.500 125.000 31.250 L 125.000 25.000 118.750 25.000 L 112.500 25.000 112.500 31.250 " stroke="none" fill="#fcfc04" fill-rule="evenodd"></path><path id="path5" d="M137.500 231.250 L 137.500 237.500 143.750 237.500 L 150.000 237.500 150.000 231.250 L 150.000 225.000 143.750 225.000 L 137.500 225.000 137.500 231.250 M162.500 231.250 L 162.500 237.500 168.750 237.500 L 175.000 237.500 175.000 231.250 L 175.000 225.000 168.750 225.000 L 162.500 225.000 162.500 231.250 M187.500 231.250 L 187.500 237.500 193.750 237.500 L 200.000 237.500 200.000 231.250 L 200.000 225.000 193.750 225.000 L 187.500 225.000 187.500 231.250 M212.500 231.250 L 212.500 237.500 218.750 237.500 L 225.000 237.500 225.000 231.250 L 225.000 225.000 218.750 225.000 L 212.500 225.000 212.500 231.250 M237.500 231.250 L 237.500 237.500 243.750 237.500 L 250.000 237.500 250.000 231.250 L 250.000 225.000 243.750 225.000 L 237.500 225.000 237.500 231.250 M262.500 231.250 L 262.500 237.500 268.750 237.500 L 275.000 237.500 275.000 231.250 L 275.000 225.000 268.750 225.000 L 262.500 225.000 262.500 231.250 " stroke="none" fill="#fcfcfc" fill-rule="evenodd"></path><path id="path6" d="M150.000 231.250 L 150.000 237.500 156.250 237.500 L 162.500 237.500 162.500 231.250 L 162.500 225.000 156.250 225.000 L 150.000 225.000 150.000 231.250 M175.000 231.250 L 175.000 237.500 181.250 237.500 L 187.500 237.500 187.500 231.250 L 187.500 225.000 181.250 225.000 L 175.000 225.000 175.000 231.250 M200.000 231.250 L 200.000 237.500 206.250 237.500 L 212.500 237.500 212.500 231.250 L 212.500 225.000 206.250 225.000 L 200.000 225.000 200.000 231.250 M225.000 231.250 L 225.000 237.500 231.250 237.500 L 237.500 237.500 237.500 231.250 L 237.500 225.000 231.250 225.000 L 225.000 225.000 225.000 231.250 M250.000 231.250 L 250.000 237.500 256.250 237.500 L 262.500 237.500 262.500 231.250 L 262.500 225.000 256.250 225.000 L 250.000 225.000 250.000 231.250 M125.000 256.250 L 125.000 262.500 200.000 262.500 L 275.000 262.500 275.000 256.250 L 275.000 250.000 200.000 250.000 L 125.000 250.000 125.000 256.250 " stroke="none" fill="#444444" fill-rule="evenodd"></path><path id="path7" d="" stroke="none" fill="#a4945c" fill-rule="evenodd"></path><path id="path8" d="" stroke="none" fill="#8894a0" fill-rule="evenodd"></path></g></svg>