<svg width="320" height="320" viewBox="0 0 320 320" xmlns="http://www.w3.org/2000/svg" shape-rendering="crispEdges"><rect width="100%" height="100%" fill="none" /><rect width="10" height="10" x="90" y="30" fill="#254efb" shape-rendering="crispEdges" /><rect width="130" height="10" x="100" y="30" fill="#eff2fa" shape-rendering="crispEdges" /><rect width="10" height="10" x="90" y="40" fill="#254efb" shape-rendering="crispEdges" /><rect width="60" height="10" x="100" y="40" fill="#eff2fa" shape-rendering="crispEdges" /><rect width="50" height="10" x="160" y="40" fill="#f3322c" shape-rendering="crispEdges" /><rect width="20" height="10" x="210" y="40" fill="#eff2fa" shape-rendering="crispEdges" /><rect width="30" height="10" x="80" y="50" fill="#254efb" shape-rendering="crispEdges" /><rect width="50" height="10" x="110" y="50" fill="#eff2fa" shape-rendering="crispEdges" /><rect width="90" height="10" x="160" y="50" fill="#f3322c" shape-rendering="crispEdges" /><rect width="20" height="10" x="250" y="50" fill="#b92b3c" shape-rendering="crispEdges" /><rect width="30" height="10" x="80" y="60" fill="#254efb" shape-rendering="crispEdges" /><rect width="90" height="10" x="110" y="60" fill="#eff2fa" shape-rendering="crispEdges" /><rect width="50" height="10" x="200" y="60" fill="#f3322c" shape-rendering="crispEdges" /><rect width="20" height="10" x="250" y="60" fill="#b92b3c" shape-rendering="crispEdges" /><rect width="30" height="10" x="80" y="70" fill="#254efb" shape-rendering="crispEdges" /><rect width="130" height="10" x="110" y="70" fill="#2b83f6" shape-rendering="crispEdges" /><rect width="30" height="10" x="80" y="80" fill="#254efb" shape-rendering="crispEdges" /><rect width="10" height="10" x="110" y="80" fill="#2b83f6" shape-rendering="crispEdges" /><rect width="10" height="10" x="120" y="80" fill="#eff2fa" shape-rendering="crispEdges" /><rect width="10" height="10" x="130" y="80" fill="#2b83f6" shape-rendering="crispEdges" /><rect width="20" height="10" x="140" y="80" fill="#eff2fa" shape-rendering="crispEdges" /><rect width="10" height="10" x="160" y="80" fill="#2b83f6" shape-rendering="crispEdges" /><rect width="40" height="10" x="170" y="80" fill="#eff2fa" shape-rendering="crispEdges" /><rect width="10" height="10" x="210" y="80" fill="#2b83f6" shape-rendering="crispEdges" /><rect width="10" height="10" x="220" y="80" fill="#eff2fa" shape-rendering="crispEdges" /><rect width="10" height="10" x="230" y="80" fill="#2b83f6" shape-rendering="crispEdges" /><rect width="30" height="10" x="80" y="90" fill="#254efb" shape-rendering="crispEdges" /><rect width="130" height="10" x="110" y="90" fill="#2b83f6" shape-rendering="crispEdges" /><rect width="30" height="10" x="80" y="100" fill="#254efb" shape-rendering="crispEdges" /><rect width="130" height="10" x="110" y="100" fill="#2b83f6" shape-rendering="crispEdges" /><rect width="30" height="10" x="80" y="110" fill="#254efb" shape-rendering="crispEdges" /><rect width="130" height="10" x="110" y="110" fill="#2b83f6" shape-rendering="crispEdges" /><rect width="30" height="10" x="80" y="120" fill="#254efb" shape-rendering="crispEdges" /><rect width="130" height="10" x="110" y="120" fill="#2b83f6" shape-rendering="crispEdges" /><rect width="30" height="10" x="80" y="130" fill="#254efb" shape-rendering="crispEdges" /><rect width="130" height="10" x="110" y="130" fill="#2b83f6" shape-rendering="crispEdges" /><rect width="30" height="10" x="80" y="140" fill="#254efb" shape-rendering="crispEdges" /><rect width="130" height="10" x="110" y="140" fill="#2b83f6" shape-rendering="crispEdges" /><rect width="30" height="10" x="80" y="150" fill="#254efb" shape-rendering="crispEdges" /><rect width="130" height="10" x="110" y="150" fill="#2b83f6" shape-rendering="crispEdges" /><rect width="30" height="10" x="80" y="160" fill="#254efb" shape-rendering="crispEdges" /><rect width="130" height="10" x="110" y="160" fill="#2b83f6" shape-rendering="crispEdges" /><rect width="30" height="10" x="80" y="170" fill="#254efb" shape-rendering="crispEdges" /><rect width="130" height="10" x="110" y="170" fill="#2b83f6" shape-rendering="crispEdges" /><rect width="30" height="10" x="80" y="180" fill="#9cb4b8" shape-rendering="crispEdges" /><rect width="130" height="10" x="110" y="180" fill="#eff2fa" shape-rendering="crispEdges" /><rect width="30" height="10" x="80" y="190" fill="#254efb" shape-rendering="crispEdges" /><rect width="130" height="10" x="110" y="190" fill="#2b83f6" shape-rendering="crispEdges" /><rect width="30" height="10" x="80" y="200" fill="#254efb" shape-rendering="crispEdges" /><rect width="130" height="10" x="110" y="200" fill="#2b83f6" shape-rendering="crispEdges" /></svg>