<svg width="320" height="320" viewBox="0 0 320 320" xmlns="http://www.w3.org/2000/svg" shape-rendering="crispEdges"><rect width="100%" height="100%" fill="none" /><rect width="120" height="10" x="140" y="40" fill="#d22209" shape-rendering="crispEdges" /><rect width="130" height="10" x="130" y="50" fill="#d22209" shape-rendering="crispEdges" /><rect width="30" height="10" x="120" y="60" fill="#d22209" shape-rendering="crispEdges" /><rect width="110" height="10" x="150" y="60" fill="#fe500c" shape-rendering="crispEdges" /><rect width="40" height="10" x="110" y="70" fill="#d22209" shape-rendering="crispEdges" /><rect width="110" height="10" x="150" y="70" fill="#fe500c" shape-rendering="crispEdges" /><rect width="20" height="10" x="100" y="80" fill="#d22209" shape-rendering="crispEdges" /><rect width="30" height="10" x="120" y="80" fill="#fe500c" shape-rendering="crispEdges" /><rect width="110" height="10" x="150" y="80" fill="#ffc925" shape-rendering="crispEdges" /><rect width="30" height="10" x="90" y="90" fill="#d22209" shape-rendering="crispEdges" /><rect width="30" height="10" x="120" y="90" fill="#fe500c" shape-rendering="crispEdges" /><rect width="110" height="10" x="150" y="90" fill="#ffc925" shape-rendering="crispEdges" /><rect width="10" height="10" x="80" y="100" fill="#d22209" shape-rendering="crispEdges" /><rect width="30" height="10" x="90" y="100" fill="#fe500c" shape-rendering="crispEdges" /><rect width="30" height="10" x="120" y="100" fill="#ffc925" shape-rendering="crispEdges" /><rect width="110" height="10" x="150" y="100" fill="#068940" shape-rendering="crispEdges" /><rect width="20" height="10" x="70" y="110" fill="#d22209" shape-rendering="crispEdges" /><rect width="30" height="10" x="90" y="110" fill="#fe500c" shape-rendering="crispEdges" /><rect width="30" height="10" x="120" y="110" fill="#ffc925" shape-rendering="crispEdges" /><rect width="110" height="10" x="150" y="110" fill="#068940" shape-rendering="crispEdges" /><rect width="30" height="10" x="60" y="120" fill="#d22209" shape-rendering="crispEdges" /><rect width="30" height="10" x="90" y="120" fill="#fe500c" shape-rendering="crispEdges" /><rect width="30" height="10" x="120" y="120" fill="#ffc925" shape-rendering="crispEdges" /><rect width="30" height="10" x="150" y="120" fill="#068940" shape-rendering="crispEdges" /><rect width="80" height="10" x="180" y="120" fill="#00499c" shape-rendering="crispEdges" /><rect width="30" height="10" x="60" y="130" fill="#d22209" shape-rendering="crispEdges" /><rect width="30" height="10" x="90" y="130" fill="#fe500c" shape-rendering="crispEdges" /><rect width="30" height="10" x="120" y="130" fill="#ffc925" shape-rendering="crispEdges" /><rect width="30" height="10" x="150" y="130" fill="#068940" shape-rendering="crispEdges" /><rect width="80" height="10" x="180" y="130" fill="#00499c" shape-rendering="crispEdges" /><rect width="30" height="10" x="60" y="140" fill="#d22209" shape-rendering="crispEdges" /><rect width="30" height="10" x="90" y="140" fill="#fe500c" shape-rendering="crispEdges" /><rect width="30" height="10" x="120" y="140" fill="#ffc925" shape-rendering="crispEdges" /><rect width="30" height="10" x="150" y="140" fill="#068940" shape-rendering="crispEdges" /><rect width="30" height="10" x="180" y="140" fill="#00499c" shape-rendering="crispEdges" /><rect width="50" height="10" x="210" y="140" fill="#9f21a0" shape-rendering="crispEdges" /><rect width="30" height="10" x="60" y="150" fill="#d22209" shape-rendering="crispEdges" /><rect width="30" height="10" x="90" y="150" fill="#fe500c" shape-rendering="crispEdges" /><rect width="30" height="10" x="120" y="150" fill="#ffc925" shape-rendering="crispEdges" /><rect width="30" height="10" x="150" y="150" fill="#068940" shape-rendering="crispEdges" /><rect width="30" height="10" x="180" y="150" fill="#00499c" shape-rendering="crispEdges" /><rect width="50" height="10" x="210" y="150" fill="#9f21a0" shape-rendering="crispEdges" /><rect width="30" height="10" x="60" y="160" fill="#d22209" shape-rendering="crispEdges" /><rect width="30" height="10" x="90" y="160" fill="#fe500c" shape-rendering="crispEdges" /><rect width="30" height="10" x="120" y="160" fill="#ffc925" shape-rendering="crispEdges" /><rect width="30" height="10" x="150" y="160" fill="#068940" shape-rendering="crispEdges" /><rect width="30" height="10" x="180" y="160" fill="#00499c" shape-rendering="crispEdges" /><rect width="30" height="10" x="210" y="160" fill="#9f21a0" shape-rendering="crispEdges" /><rect width="30" height="10" x="60" y="170" fill="#d22209" shape-rendering="crispEdges" /><rect width="30" height="10" x="90" y="170" fill="#fe500c" shape-rendering="crispEdges" /><rect width="30" height="10" x="120" y="170" fill="#ffc925" shape-rendering="crispEdges" /><rect width="30" height="10" x="150" y="170" fill="#068940" shape-rendering="crispEdges" /><rect width="30" height="10" x="180" y="170" fill="#00499c" shape-rendering="crispEdges" /><rect width="30" height="10" x="210" y="170" fill="#9f21a0" shape-rendering="crispEdges" /><rect width="30" height="10" x="60" y="180" fill="#d22209" shape-rendering="crispEdges" /><rect width="30" height="10" x="90" y="180" fill="#fe500c" shape-rendering="crispEdges" /><rect width="30" height="10" x="120" y="180" fill="#ffc925" shape-rendering="crispEdges" /><rect width="30" height="10" x="150" y="180" fill="#068940" shape-rendering="crispEdges" /><rect width="30" height="10" x="180" y="180" fill="#000000" shape-rendering="crispEdges" /><rect width="30" height="10" x="210" y="180" fill="#9f21a0" shape-rendering="crispEdges" /><rect width="30" height="10" x="60" y="190" fill="#d22209" shape-rendering="crispEdges" /><rect width="30" height="10" x="90" y="190" fill="#fe500c" shape-rendering="crispEdges" /><rect width="30" height="10" x="120" y="190" fill="#ffc925" shape-rendering="crispEdges" /><rect width="30" height="10" x="150" y="190" fill="#068940" shape-rendering="crispEdges" /><rect width="30" height="10" x="180" y="190" fill="#00499c" shape-rendering="crispEdges" /><rect width="30" height="10" x="210" y="190" fill="#9f21a0" shape-rendering="crispEdges" /><rect width="30" height="10" x="60" y="200" fill="#d22209" shape-rendering="crispEdges" /><rect width="30" height="10" x="90" y="200" fill="#fe500c" shape-rendering="crispEdges" /><rect width="30" height="10" x="120" y="200" fill="#ffc925" shape-rendering="crispEdges" /><rect width="30" height="10" x="150" y="200" fill="#068940" shape-rendering="crispEdges" /><rect width="30" height="10" x="180" y="200" fill="#00499c" shape-rendering="crispEdges" /><rect width="30" height="10" x="210" y="200" fill="#9f21a0" shape-rendering="crispEdges" /></svg>