<svg width="320" height="320" viewBox="0 0 320 320" xmlns="http://www.w3.org/2000/svg" shape-rendering="crispEdges"><rect width="100%" height="100%" fill="none" /><rect width="20" height="10" x="60" y="70" fill="#cbc1bc" shape-rendering="crispEdges" /><rect width="170" height="10" x="80" y="70" fill="#ffffff" shape-rendering="crispEdges" /><rect width="20" height="10" x="60" y="80" fill="#cbc1bc" shape-rendering="crispEdges" /><rect width="170" height="10" x="80" y="80" fill="#ffffff" shape-rendering="crispEdges" /><rect width="40" height="10" x="50" y="90" fill="#cbc1bc" shape-rendering="crispEdges" /><rect width="170" height="10" x="90" y="90" fill="#ffffff" shape-rendering="crispEdges" /><rect width="40" height="10" x="50" y="100" fill="#cbc1bc" shape-rendering="crispEdges" /><rect width="170" height="10" x="90" y="100" fill="#ffffff" shape-rendering="crispEdges" /><rect width="40" height="10" x="50" y="110" fill="#cbc1bc" shape-rendering="crispEdges" /><rect width="170" height="10" x="90" y="110" fill="#ffffff" shape-rendering="crispEdges" /><rect width="10" height="10" x="50" y="120" fill="#cbc1bc" shape-rendering="crispEdges" /><rect width="10" height="10" x="60" y="120" fill="#b2958d" shape-rendering="crispEdges" /><rect width="10" height="10" x="70" y="120" fill="#343235" shape-rendering="crispEdges" /><rect width="10" height="10" x="80" y="120" fill="#cbc1bc" shape-rendering="crispEdges" /><rect width="170" height="10" x="90" y="120" fill="#ffffff" shape-rendering="crispEdges" /><rect width="10" height="10" x="50" y="130" fill="#cbc1bc" shape-rendering="crispEdges" /><rect width="10" height="10" x="60" y="130" fill="#b2958d" shape-rendering="crispEdges" /><rect width="10" height="10" x="70" y="130" fill="#343235" shape-rendering="crispEdges" /><rect width="10" height="10" x="80" y="130" fill="#cbc1bc" shape-rendering="crispEdges" /><rect width="170" height="10" x="90" y="130" fill="#ffffff" shape-rendering="crispEdges" /><rect width="10" height="10" x="50" y="140" fill="#cbc1bc" shape-rendering="crispEdges" /><rect width="10" height="10" x="60" y="140" fill="#b2958d" shape-rendering="crispEdges" /><rect width="10" height="10" x="70" y="140" fill="#343235" shape-rendering="crispEdges" /><rect width="10" height="10" x="80" y="140" fill="#cbc1bc" shape-rendering="crispEdges" /><rect width="170" height="10" x="90" y="140" fill="#ffffff" shape-rendering="crispEdges" /><rect width="10" height="10" x="50" y="150" fill="#cbc1bc" shape-rendering="crispEdges" /><rect width="10" height="10" x="60" y="150" fill="#b2958d" shape-rendering="crispEdges" /><rect width="10" height="10" x="70" y="150" fill="#343235" shape-rendering="crispEdges" /><rect width="10" height="10" x="80" y="150" fill="#cbc1bc" shape-rendering="crispEdges" /><rect width="170" height="10" x="90" y="150" fill="#ffffff" shape-rendering="crispEdges" /><rect width="40" height="10" x="50" y="160" fill="#cbc1bc" shape-rendering="crispEdges" /><rect width="170" height="10" x="90" y="160" fill="#ffffff" shape-rendering="crispEdges" /><rect width="40" height="10" x="50" y="170" fill="#cbc1bc" shape-rendering="crispEdges" /><rect width="170" height="10" x="90" y="170" fill="#ffffff" shape-rendering="crispEdges" /><rect width="40" height="10" x="50" y="180" fill="#cbc1bc" shape-rendering="crispEdges" /><rect width="170" height="10" x="90" y="180" fill="#ffffff" shape-rendering="crispEdges" /><rect width="20" height="10" x="60" y="190" fill="#cbc1bc" shape-rendering="crispEdges" /><rect width="20" height="10" x="80" y="190" fill="#b2958d" shape-rendering="crispEdges" /><rect width="10" height="10" x="100" y="190" fill="#cbc1bc" shape-rendering="crispEdges" /><rect width="10" height="10" x="110" y="190" fill="#ffffff" shape-rendering="crispEdges" /><rect width="10" height="10" x="120" y="190" fill="#cbc1bc" shape-rendering="crispEdges" /><rect width="10" height="10" x="130" y="190" fill="#ffffff" shape-rendering="crispEdges" /><rect width="10" height="10" x="140" y="190" fill="#cbc1bc" shape-rendering="crispEdges" /><rect width="10" height="10" x="150" y="190" fill="#ffffff" shape-rendering="crispEdges" /><rect width="10" height="10" x="160" y="190" fill="#cbc1bc" shape-rendering="crispEdges" /><rect width="10" height="10" x="170" y="190" fill="#ffffff" shape-rendering="crispEdges" /><rect width="10" height="10" x="180" y="190" fill="#cbc1bc" shape-rendering="crispEdges" /><rect width="10" height="10" x="190" y="190" fill="#ffffff" shape-rendering="crispEdges" /><rect width="10" height="10" x="200" y="190" fill="#cbc1bc" shape-rendering="crispEdges" /><rect width="10" height="10" x="210" y="190" fill="#ffffff" shape-rendering="crispEdges" /><rect width="10" height="10" x="220" y="190" fill="#cbc1bc" shape-rendering="crispEdges" /><rect width="10" height="10" x="230" y="190" fill="#ffffff" shape-rendering="crispEdges" /><rect width="20" height="10" x="60" y="200" fill="#cbc1bc" shape-rendering="crispEdges" /><rect width="10" height="10" x="80" y="200" fill="#b2958d" shape-rendering="crispEdges" /><rect width="160" height="10" x="90" y="200" fill="#ffffff" shape-rendering="crispEdges" /><rect width="120" height="10" x="90" y="210" fill="#ffffff" shape-rendering="crispEdges" /><rect width="80" height="10" x="100" y="220" fill="#ffffff" shape-rendering="crispEdges" /></svg>