<svg width="320" height="320" viewBox="0 0 320 320" xmlns="http://www.w3.org/2000/svg" shape-rendering="crispEdges"><rect width="100%" height="100%" fill="none" /><rect width="140" height="10" x="90" y="30" fill="#6b3f39" shape-rendering="crispEdges" /><rect width="20" height="10" x="80" y="40" fill="#6b3f39" shape-rendering="crispEdges" /><rect width="120" height="10" x="100" y="40" fill="#caa26a" shape-rendering="crispEdges" /><rect width="20" height="10" x="220" y="40" fill="#6b3f39" shape-rendering="crispEdges" /><rect width="10" height="10" x="80" y="50" fill="#6b3f39" shape-rendering="crispEdges" /><rect width="30" height="10" x="90" y="50" fill="#caa26a" shape-rendering="crispEdges" /><rect width="80" height="10" x="120" y="50" fill="#8f785e" shape-rendering="crispEdges" /><rect width="30" height="10" x="200" y="50" fill="#caa26a" shape-rendering="crispEdges" /><rect width="10" height="10" x="230" y="50" fill="#6b3f39" shape-rendering="crispEdges" /><rect width="10" height="10" x="90" y="60" fill="#6b3f39" shape-rendering="crispEdges" /><rect width="120" height="10" x="100" y="60" fill="#caa26a" shape-rendering="crispEdges" /><rect width="10" height="10" x="220" y="60" fill="#6b3f39" shape-rendering="crispEdges" /><rect width="10" height="10" x="90" y="70" fill="#6b3f39" shape-rendering="crispEdges" /><rect width="20" height="10" x="100" y="70" fill="#caa26a" shape-rendering="crispEdges" /><rect width="80" height="10" x="120" y="70" fill="#8f785e" shape-rendering="crispEdges" /><rect width="20" height="10" x="200" y="70" fill="#caa26a" shape-rendering="crispEdges" /><rect width="10" height="10" x="220" y="70" fill="#6b3f39" shape-rendering="crispEdges" /><rect width="10" height="10" x="80" y="80" fill="#fffdf2" shape-rendering="crispEdges" /><rect width="140" height="10" x="90" y="80" fill="#abaaa8" shape-rendering="crispEdges" /><rect width="10" height="10" x="230" y="80" fill="#fffdf2" shape-rendering="crispEdges" /><rect width="10" height="10" x="80" y="90" fill="#fffdf2" shape-rendering="crispEdges" /><rect width="140" height="10" x="90" y="90" fill="#abaaa8" shape-rendering="crispEdges" /><rect width="10" height="10" x="230" y="90" fill="#fffdf2" shape-rendering="crispEdges" /><rect width="10" height="10" x="80" y="100" fill="#fffdf2" shape-rendering="crispEdges" /><rect width="140" height="10" x="90" y="100" fill="#abaaa8" shape-rendering="crispEdges" /><rect width="10" height="10" x="230" y="100" fill="#fffdf2" shape-rendering="crispEdges" /><rect width="20" height="10" x="240" y="100" fill="#343235" shape-rendering="crispEdges" /><rect width="10" height="10" x="80" y="110" fill="#fffdf2" shape-rendering="crispEdges" /><rect width="140" height="10" x="90" y="110" fill="#abaaa8" shape-rendering="crispEdges" /><rect width="10" height="10" x="230" y="110" fill="#fffdf2" shape-rendering="crispEdges" /><rect width="20" height="10" x="240" y="110" fill="#343235" shape-rendering="crispEdges" /><rect width="10" height="10" x="80" y="120" fill="#fffdf2" shape-rendering="crispEdges" /><rect width="140" height="10" x="90" y="120" fill="#abaaa8" shape-rendering="crispEdges" /><rect width="10" height="10" x="230" y="120" fill="#fffdf2" shape-rendering="crispEdges" /><rect width="10" height="10" x="80" y="130" fill="#fffdf2" shape-rendering="crispEdges" /><rect width="140" height="10" x="90" y="130" fill="#abaaa8" shape-rendering="crispEdges" /><rect width="10" height="10" x="230" y="130" fill="#fffdf2" shape-rendering="crispEdges" /><rect width="10" height="10" x="80" y="140" fill="#fffdf2" shape-rendering="crispEdges" /><rect width="140" height="10" x="90" y="140" fill="#abaaa8" shape-rendering="crispEdges" /><rect width="10" height="10" x="230" y="140" fill="#fffdf2" shape-rendering="crispEdges" /><rect width="10" height="10" x="80" y="150" fill="#fffdf2" shape-rendering="crispEdges" /><rect width="140" height="10" x="90" y="150" fill="#abaaa8" shape-rendering="crispEdges" /><rect width="10" height="10" x="230" y="150" fill="#fffdf2" shape-rendering="crispEdges" /><rect width="10" height="10" x="80" y="160" fill="#fffdf2" shape-rendering="crispEdges" /><rect width="140" height="10" x="90" y="160" fill="#abaaa8" shape-rendering="crispEdges" /><rect width="10" height="10" x="230" y="160" fill="#fffdf2" shape-rendering="crispEdges" /><rect width="10" height="10" x="80" y="170" fill="#fffdf2" shape-rendering="crispEdges" /><rect width="140" height="10" x="90" y="170" fill="#abaaa8" shape-rendering="crispEdges" /><rect width="10" height="10" x="230" y="170" fill="#fffdf2" shape-rendering="crispEdges" /><rect width="180" height="10" x="70" y="180" fill="#343235" shape-rendering="crispEdges" /><rect width="20" height="10" x="50" y="190" fill="#62616d" shape-rendering="crispEdges" /><rect width="180" height="10" x="70" y="190" fill="#343235" shape-rendering="crispEdges" /><rect width="10" height="10" x="50" y="200" fill="#62616d" shape-rendering="crispEdges" /><rect width="180" height="10" x="70" y="200" fill="#343235" shape-rendering="crispEdges" /><rect width="10" height="10" x="50" y="210" fill="#62616d" shape-rendering="crispEdges" /><rect width="10" height="10" x="50" y="220" fill="#62616d" shape-rendering="crispEdges" /><rect width="10" height="10" x="50" y="230" fill="#62616d" shape-rendering="crispEdges" /><rect width="10" height="10" x="50" y="240" fill="#62616d" shape-rendering="crispEdges" /><rect width="10" height="10" x="50" y="250" fill="#62616d" shape-rendering="crispEdges" /><rect width="10" height="10" x="50" y="260" fill="#62616d" shape-rendering="crispEdges" /><rect width="10" height="10" x="50" y="270" fill="#62616d" shape-rendering="crispEdges" /><rect width="10" height="10" x="50" y="280" fill="#62616d" shape-rendering="crispEdges" /><rect width="10" height="10" x="50" y="290" fill="#62616d" shape-rendering="crispEdges" /><rect width="10" height="10" x="50" y="300" fill="#62616d" shape-rendering="crispEdges" /><rect width="10" height="10" x="50" y="310" fill="#62616d" shape-rendering="crispEdges" /></svg>