<svg width="320" height="320" viewBox="0 0 320 320" xmlns="http://www.w3.org/2000/svg" shape-rendering="crispEdges"><rect width="100%" height="100%" fill="none" /><rect width="60" height="10" x="70" y="70" fill="#4bea69" shape-rendering="crispEdges" /><rect width="80" height="10" x="130" y="70" fill="#ffd067" shape-rendering="crispEdges" /><rect width="50" height="10" x="210" y="70" fill="#e9265c" shape-rendering="crispEdges" /><rect width="20" height="10" x="60" y="80" fill="#4bea69" shape-rendering="crispEdges" /><rect width="50" height="10" x="80" y="80" fill="#42ffb0" shape-rendering="crispEdges" /><rect width="80" height="10" x="130" y="80" fill="#ffffff" shape-rendering="crispEdges" /><rect width="30" height="10" x="210" y="80" fill="#fd8b5b" shape-rendering="crispEdges" /><rect width="30" height="10" x="240" y="80" fill="#e9265c" shape-rendering="crispEdges" /><rect width="10" height="10" x="60" y="90" fill="#4bea69" shape-rendering="crispEdges" /><rect width="10" height="10" x="70" y="90" fill="#42ffb0" shape-rendering="crispEdges" /><rect width="50" height="10" x="80" y="90" fill="#4bea69" shape-rendering="crispEdges" /><rect width="80" height="10" x="130" y="90" fill="#ffd067" shape-rendering="crispEdges" /><rect width="30" height="10" x="210" y="90" fill="#e9265c" shape-rendering="crispEdges" /><rect width="20" height="10" x="240" y="90" fill="#ffffff" shape-rendering="crispEdges" /><rect width="20" height="10" x="260" y="90" fill="#e9265c" shape-rendering="crispEdges" /><rect width="10" height="10" x="60" y="100" fill="#4bea69" shape-rendering="crispEdges" /><rect width="10" height="10" x="70" y="100" fill="#42ffb0" shape-rendering="crispEdges" /><rect width="50" height="10" x="80" y="100" fill="#4bea69" shape-rendering="crispEdges" /><rect width="80" height="10" x="130" y="100" fill="#ffd067" shape-rendering="crispEdges" /><rect width="30" height="10" x="210" y="100" fill="#e9265c" shape-rendering="crispEdges" /><rect width="20" height="10" x="240" y="100" fill="#ffffff" shape-rendering="crispEdges" /><rect width="20" height="10" x="260" y="100" fill="#e9265c" shape-rendering="crispEdges" /><rect width="70" height="10" x="60" y="110" fill="#4bea69" shape-rendering="crispEdges" /><rect width="80" height="10" x="130" y="110" fill="#ffd067" shape-rendering="crispEdges" /><rect width="50" height="10" x="210" y="110" fill="#e9265c" shape-rendering="crispEdges" /><rect width="10" height="10" x="260" y="110" fill="#fd8b5b" shape-rendering="crispEdges" /><rect width="10" height="10" x="270" y="110" fill="#e9265c" shape-rendering="crispEdges" /><rect width="40" height="10" x="20" y="120" fill="#a38654" shape-rendering="crispEdges" /><rect width="70" height="10" x="60" y="120" fill="#4bea69" shape-rendering="crispEdges" /><rect width="80" height="10" x="130" y="120" fill="#ffd067" shape-rendering="crispEdges" /><rect width="50" height="10" x="210" y="120" fill="#e9265c" shape-rendering="crispEdges" /><rect width="10" height="10" x="260" y="120" fill="#fd8b5b" shape-rendering="crispEdges" /><rect width="10" height="10" x="270" y="120" fill="#e9265c" shape-rendering="crispEdges" /><rect width="40" height="10" x="20" y="130" fill="#a38654" shape-rendering="crispEdges" /><rect width="70" height="10" x="60" y="130" fill="#4bea69" shape-rendering="crispEdges" /><rect width="80" height="10" x="130" y="130" fill="#ffd067" shape-rendering="crispEdges" /><rect width="70" height="10" x="210" y="130" fill="#e9265c" shape-rendering="crispEdges" /><rect width="40" height="10" x="20" y="140" fill="#a38654" shape-rendering="crispEdges" /><rect width="70" height="10" x="60" y="140" fill="#4bea69" shape-rendering="crispEdges" /><rect width="80" height="10" x="130" y="140" fill="#ffd067" shape-rendering="crispEdges" /><rect width="50" height="10" x="210" y="140" fill="#e9265c" shape-rendering="crispEdges" /><rect width="10" height="10" x="260" y="140" fill="#fd8b5b" shape-rendering="crispEdges" /><rect width="10" height="10" x="270" y="140" fill="#e9265c" shape-rendering="crispEdges" /><rect width="40" height="10" x="20" y="150" fill="#a38654" shape-rendering="crispEdges" /><rect width="70" height="10" x="60" y="150" fill="#4bea69" shape-rendering="crispEdges" /><rect width="80" height="10" x="130" y="150" fill="#ffd067" shape-rendering="crispEdges" /><rect width="70" height="10" x="210" y="150" fill="#e9265c" shape-rendering="crispEdges" /><rect width="40" height="10" x="20" y="160" fill="#a38654" shape-rendering="crispEdges" /><rect width="70" height="10" x="60" y="160" fill="#4bea69" shape-rendering="crispEdges" /><rect width="80" height="10" x="130" y="160" fill="#ffd067" shape-rendering="crispEdges" /><rect width="70" height="10" x="210" y="160" fill="#e9265c" shape-rendering="crispEdges" /><rect width="70" height="10" x="60" y="170" fill="#4bea69" shape-rendering="crispEdges" /><rect width="80" height="10" x="130" y="170" fill="#ffd067" shape-rendering="crispEdges" /><rect width="70" height="10" x="210" y="170" fill="#e9265c" shape-rendering="crispEdges" /><rect width="10" height="10" x="60" y="180" fill="#4bea69" shape-rendering="crispEdges" /><rect width="20" height="10" x="70" y="180" fill="#42ffb0" shape-rendering="crispEdges" /><rect width="40" height="10" x="90" y="180" fill="#4bea69" shape-rendering="crispEdges" /><rect width="80" height="10" x="130" y="180" fill="#ffd067" shape-rendering="crispEdges" /><rect width="70" height="10" x="210" y="180" fill="#e9265c" shape-rendering="crispEdges" /><rect width="10" height="10" x="60" y="190" fill="#4bea69" shape-rendering="crispEdges" /><rect width="20" height="10" x="70" y="190" fill="#42ffb0" shape-rendering="crispEdges" /><rect width="40" height="10" x="90" y="190" fill="#4bea69" shape-rendering="crispEdges" /><rect width="10" height="10" x="130" y="190" fill="#ffd067" shape-rendering="crispEdges" /><rect width="20" height="10" x="140" y="190" fill="#ffffff" shape-rendering="crispEdges" /><rect width="10" height="10" x="160" y="190" fill="#ffd067" shape-rendering="crispEdges" /><rect width="10" height="10" x="170" y="190" fill="#ffffff" shape-rendering="crispEdges" /><rect width="30" height="10" x="180" y="190" fill="#ffd067" shape-rendering="crispEdges" /><rect width="60" height="10" x="210" y="190" fill="#e9265c" shape-rendering="crispEdges" /><rect width="60" height="10" x="70" y="200" fill="#4bea69" shape-rendering="crispEdges" /><rect width="80" height="10" x="130" y="200" fill="#ffd067" shape-rendering="crispEdges" /><rect width="50" height="10" x="210" y="200" fill="#e9265c" shape-rendering="crispEdges" /><rect width="20" height="10" x="100" y="210" fill="#4bea69" shape-rendering="crispEdges" /><rect width="20" height="10" x="240" y="210" fill="#e9265c" shape-rendering="crispEdges" /><rect width="10" height="10" x="100" y="220" fill="#4bea69" shape-rendering="crispEdges" /><rect width="10" height="10" x="240" y="220" fill="#e9265c" shape-rendering="crispEdges" /><rect width="10" height="10" x="240" y="230" fill="#e9265c" shape-rendering="crispEdges" /><rect width="10" height="10" x="240" y="250" fill="#e9265c" shape-rendering="crispEdges" /></svg>