<svg width="320" height="320" viewBox="0 0 320 320" xmlns="http://www.w3.org/2000/svg" shape-rendering="crispEdges"><rect width="100%" height="100%" fill="none" /><rect width="110" height="10" x="110" y="90" fill="#85634f" shape-rendering="crispEdges" /><rect width="140" height="10" x="90" y="100" fill="#85634f" shape-rendering="crispEdges" /><rect width="150" height="10" x="90" y="110" fill="#85634f" shape-rendering="crispEdges" /><rect width="150" height="10" x="90" y="120" fill="#85634f" shape-rendering="crispEdges" /><rect width="150" height="10" x="90" y="130" fill="#85634f" shape-rendering="crispEdges" /><rect width="160" height="10" x="80" y="140" fill="#85634f" shape-rendering="crispEdges" /><rect width="170" height="10" x="70" y="150" fill="#85634f" shape-rendering="crispEdges" /><rect width="170" height="10" x="70" y="160" fill="#85634f" shape-rendering="crispEdges" /><rect width="20" height="10" x="90" y="170" fill="#85634f" shape-rendering="crispEdges" /><rect width="40" height="10" x="110" y="170" fill="#eff2fa" shape-rendering="crispEdges" /><rect width="60" height="10" x="150" y="170" fill="#000000" shape-rendering="crispEdges" /><rect width="30" height="10" x="210" y="170" fill="#eff2fa" shape-rendering="crispEdges" /><rect width="10" height="10" x="90" y="180" fill="#d0aea9" shape-rendering="crispEdges" /><rect width="40" height="10" x="100" y="180" fill="#85634f" shape-rendering="crispEdges" /><rect width="10" height="10" x="140" y="180" fill="#eff2fa" shape-rendering="crispEdges" /><rect width="60" height="10" x="150" y="180" fill="#000000" shape-rendering="crispEdges" /><rect width="10" height="10" x="210" y="180" fill="#eff2fa" shape-rendering="crispEdges" /><rect width="20" height="10" x="220" y="180" fill="#85634f" shape-rendering="crispEdges" /><rect width="20" height="10" x="90" y="190" fill="#d0aea9" shape-rendering="crispEdges" /><rect width="30" height="10" x="110" y="190" fill="#eff2fa" shape-rendering="crispEdges" /><rect width="40" height="10" x="140" y="190" fill="#d0aea9" shape-rendering="crispEdges" /><rect width="10" height="10" x="180" y="190" fill="#000000" shape-rendering="crispEdges" /><rect width="30" height="10" x="190" y="190" fill="#d0aea9" shape-rendering="crispEdges" /><rect width="20" height="10" x="220" y="190" fill="#eff2fa" shape-rendering="crispEdges" /><rect width="80" height="10" x="90" y="200" fill="#d0aea9" shape-rendering="crispEdges" /><rect width="10" height="10" x="170" y="200" fill="#000000" shape-rendering="crispEdges" /><rect width="10" height="10" x="180" y="200" fill="#d0aea9" shape-rendering="crispEdges" /><rect width="10" height="10" x="190" y="200" fill="#000000" shape-rendering="crispEdges" /><rect width="40" height="10" x="200" y="200" fill="#d0aea9" shape-rendering="crispEdges" /></svg>