<svg width="320" height="320" viewBox="0 0 320 320" xmlns="http://www.w3.org/2000/svg" shape-rendering="crispEdges"><rect width="100%" height="100%" fill="none" /><rect width="40" height="10" x="170" y="30" fill="#ff638d" shape-rendering="crispEdges" /><rect width="30" height="10" x="210" y="30" fill="#fee3f3" shape-rendering="crispEdges" /><rect width="60" height="10" x="150" y="40" fill="#ff638d" shape-rendering="crispEdges" /><rect width="10" height="10" x="210" y="40" fill="#fee3f3" shape-rendering="crispEdges" /><rect width="10" height="10" x="220" y="40" fill="#000000" shape-rendering="crispEdges" /><rect width="10" height="10" x="230" y="40" fill="#fee3f3" shape-rendering="crispEdges" /><rect width="10" height="10" x="240" y="40" fill="#ff638d" shape-rendering="crispEdges" /><rect width="70" height="10" x="140" y="50" fill="#ff638d" shape-rendering="crispEdges" /><rect width="30" height="10" x="210" y="50" fill="#fee3f3" shape-rendering="crispEdges" /><rect width="20" height="10" x="240" y="50" fill="#ff638d" shape-rendering="crispEdges" /><rect width="40" height="10" x="130" y="60" fill="#ff638d" shape-rendering="crispEdges" /><rect width="30" height="10" x="220" y="60" fill="#ff638d" shape-rendering="crispEdges" /><rect width="20" height="10" x="250" y="60" fill="#feb9d5" shape-rendering="crispEdges" /><rect width="40" height="10" x="120" y="70" fill="#ff638d" shape-rendering="crispEdges" /><rect width="30" height="10" x="240" y="70" fill="#feb9d5" shape-rendering="crispEdges" /><rect width="40" height="10" x="120" y="80" fill="#ff638d" shape-rendering="crispEdges" /><rect width="20" height="10" x="240" y="80" fill="#feb9d5" shape-rendering="crispEdges" /><rect width="10" height="10" x="260" y="80" fill="#1f1d29" shape-rendering="crispEdges" /><rect width="50" height="10" x="120" y="90" fill="#ff638d" shape-rendering="crispEdges" /><rect width="20" height="10" x="250" y="90" fill="#1f1d29" shape-rendering="crispEdges" /><rect width="60" height="10" x="130" y="100" fill="#ff638d" shape-rendering="crispEdges" /><rect width="20" height="10" x="250" y="100" fill="#1f1d29" shape-rendering="crispEdges" /><rect width="80" height="10" x="140" y="110" fill="#ff638d" shape-rendering="crispEdges" /><rect width="10" height="10" x="250" y="110" fill="#1f1d29" shape-rendering="crispEdges" /><rect width="90" height="10" x="150" y="120" fill="#ff638d" shape-rendering="crispEdges" /><rect width="90" height="10" x="160" y="130" fill="#ff638d" shape-rendering="crispEdges" /><rect width="80" height="10" x="180" y="140" fill="#ff638d" shape-rendering="crispEdges" /><rect width="60" height="10" x="200" y="150" fill="#ff638d" shape-rendering="crispEdges" /><rect width="210" height="10" x="60" y="160" fill="#ff82ad" shape-rendering="crispEdges" /><rect width="220" height="10" x="50" y="170" fill="#ff82ad" shape-rendering="crispEdges" /><rect width="110" height="10" x="50" y="180" fill="#ff638d" shape-rendering="crispEdges" /><rect width="60" height="10" x="160" y="180" fill="#b9185c" shape-rendering="crispEdges" /><rect width="50" height="10" x="220" y="180" fill="#ff638d" shape-rendering="crispEdges" /><rect width="220" height="10" x="50" y="190" fill="#ff638d" shape-rendering="crispEdges" /><rect width="200" height="10" x="60" y="200" fill="#ff638d" shape-rendering="crispEdges" /></svg>