<svg width="320" height="320" viewBox="0 0 320 320" xmlns="http://www.w3.org/2000/svg" shape-rendering="crispEdges"><rect width="100%" height="100%" fill="none" /><rect width="150" height="10" x="60" y="30" fill="#cbc1bc" shape-rendering="crispEdges" /><rect width="20" height="10" x="60" y="40" fill="#cbc1bc" shape-rendering="crispEdges" /><rect width="10" height="10" x="80" y="40" fill="#abaaa8" shape-rendering="crispEdges" /><rect width="10" height="10" x="90" y="40" fill="#cbc1bc" shape-rendering="crispEdges" /><rect width="10" height="10" x="100" y="40" fill="#abaaa8" shape-rendering="crispEdges" /><rect width="10" height="10" x="110" y="40" fill="#cbc1bc" shape-rendering="crispEdges" /><rect width="10" height="10" x="120" y="40" fill="#a19c9a" shape-rendering="crispEdges" /><rect width="10" height="10" x="130" y="40" fill="#cbc1bc" shape-rendering="crispEdges" /><rect width="10" height="10" x="140" y="40" fill="#abaaa8" shape-rendering="crispEdges" /><rect width="10" height="10" x="150" y="40" fill="#cbc1bc" shape-rendering="crispEdges" /><rect width="10" height="10" x="160" y="40" fill="#fff0ee" shape-rendering="crispEdges" /><rect width="10" height="10" x="170" y="40" fill="#cbc1bc" shape-rendering="crispEdges" /><rect width="10" height="10" x="180" y="40" fill="#e11833" shape-rendering="crispEdges" /><rect width="10" height="10" x="190" y="40" fill="#a19c9a" shape-rendering="crispEdges" /><rect width="20" height="10" x="200" y="40" fill="#cbc1bc" shape-rendering="crispEdges" /><rect width="20" height="10" x="60" y="50" fill="#cbc1bc" shape-rendering="crispEdges" /><rect width="10" height="10" x="80" y="50" fill="#a19c9a" shape-rendering="crispEdges" /><rect width="10" height="10" x="90" y="50" fill="#cbc1bc" shape-rendering="crispEdges" /><rect width="10" height="10" x="100" y="50" fill="#a19c9a" shape-rendering="crispEdges" /><rect width="10" height="10" x="110" y="50" fill="#cbc1bc" shape-rendering="crispEdges" /><rect width="10" height="10" x="120" y="50" fill="#abaaa8" shape-rendering="crispEdges" /><rect width="10" height="10" x="130" y="50" fill="#cbc1bc" shape-rendering="crispEdges" /><rect width="10" height="10" x="140" y="50" fill="#a19c9a" shape-rendering="crispEdges" /><rect width="30" height="10" x="150" y="50" fill="#cbc1bc" shape-rendering="crispEdges" /><rect width="10" height="10" x="180" y="50" fill="#2b83f6" shape-rendering="crispEdges" /><rect width="10" height="10" x="190" y="50" fill="#a19c9a" shape-rendering="crispEdges" /><rect width="20" height="10" x="200" y="50" fill="#cbc1bc" shape-rendering="crispEdges" /><rect width="30" height="10" x="60" y="60" fill="#abaaa8" shape-rendering="crispEdges" /><rect width="160" height="10" x="90" y="60" fill="#fff0ee" shape-rendering="crispEdges" /><rect width="30" height="10" x="60" y="70" fill="#abaaa8" shape-rendering="crispEdges" /><rect width="60" height="10" x="90" y="70" fill="#fff0ee" shape-rendering="crispEdges" /><rect width="40" height="10" x="150" y="70" fill="#abaaa8" shape-rendering="crispEdges" /><rect width="60" height="10" x="190" y="70" fill="#fff0ee" shape-rendering="crispEdges" /><rect width="30" height="10" x="60" y="80" fill="#abaaa8" shape-rendering="crispEdges" /><rect width="40" height="10" x="90" y="80" fill="#fff0ee" shape-rendering="crispEdges" /><rect width="20" height="10" x="130" y="80" fill="#abaaa8" shape-rendering="crispEdges" /><rect width="40" height="10" x="150" y="80" fill="#58565c" shape-rendering="crispEdges" /><rect width="20" height="10" x="190" y="80" fill="#abaaa8" shape-rendering="crispEdges" /><rect width="40" height="10" x="210" y="80" fill="#fff0ee" shape-rendering="crispEdges" /><rect width="30" height="10" x="60" y="90" fill="#abaaa8" shape-rendering="crispEdges" /><rect width="30" height="10" x="90" y="90" fill="#fff0ee" shape-rendering="crispEdges" /><rect width="10" height="10" x="120" y="90" fill="#abaaa8" shape-rendering="crispEdges" /><rect width="80" height="10" x="130" y="90" fill="#58565c" shape-rendering="crispEdges" /><rect width="10" height="10" x="210" y="90" fill="#abaaa8" shape-rendering="crispEdges" /><rect width="30" height="10" x="220" y="90" fill="#fff0ee" shape-rendering="crispEdges" /><rect width="30" height="10" x="60" y="100" fill="#abaaa8" shape-rendering="crispEdges" /><rect width="30" height="10" x="90" y="100" fill="#fff0ee" shape-rendering="crispEdges" /><rect width="10" height="10" x="120" y="100" fill="#abaaa8" shape-rendering="crispEdges" /><rect width="80" height="10" x="130" y="100" fill="#58565c" shape-rendering="crispEdges" /><rect width="10" height="10" x="210" y="100" fill="#abaaa8" shape-rendering="crispEdges" /><rect width="30" height="10" x="220" y="100" fill="#fff0ee" shape-rendering="crispEdges" /><rect width="30" height="10" x="60" y="110" fill="#abaaa8" shape-rendering="crispEdges" /><rect width="20" height="10" x="90" y="110" fill="#fff0ee" shape-rendering="crispEdges" /><rect width="10" height="10" x="110" y="110" fill="#abaaa8" shape-rendering="crispEdges" /><rect width="100" height="10" x="120" y="110" fill="#58565c" shape-rendering="crispEdges" /><rect width="10" height="10" x="220" y="110" fill="#abaaa8" shape-rendering="crispEdges" /><rect width="20" height="10" x="230" y="110" fill="#fff0ee" shape-rendering="crispEdges" /><rect width="30" height="10" x="60" y="120" fill="#abaaa8" shape-rendering="crispEdges" /><rect width="20" height="10" x="90" y="120" fill="#fff0ee" shape-rendering="crispEdges" /><rect width="10" height="10" x="110" y="120" fill="#abaaa8" shape-rendering="crispEdges" /><rect width="100" height="10" x="120" y="120" fill="#58565c" shape-rendering="crispEdges" /><rect width="10" height="10" x="220" y="120" fill="#abaaa8" shape-rendering="crispEdges" /><rect width="20" height="10" x="230" y="120" fill="#fff0ee" shape-rendering="crispEdges" /><rect width="30" height="10" x="60" y="130" fill="#abaaa8" shape-rendering="crispEdges" /><rect width="20" height="10" x="90" y="130" fill="#fff0ee" shape-rendering="crispEdges" /><rect width="10" height="10" x="110" y="130" fill="#abaaa8" shape-rendering="crispEdges" /><rect width="100" height="10" x="120" y="130" fill="#58565c" shape-rendering="crispEdges" /><rect width="10" height="10" x="220" y="130" fill="#abaaa8" shape-rendering="crispEdges" /><rect width="20" height="10" x="230" y="130" fill="#fff0ee" shape-rendering="crispEdges" /><rect width="30" height="10" x="60" y="140" fill="#abaaa8" shape-rendering="crispEdges" /><rect width="20" height="10" x="90" y="140" fill="#fff0ee" shape-rendering="crispEdges" /><rect width="10" height="10" x="110" y="140" fill="#abaaa8" shape-rendering="crispEdges" /><rect width="100" height="10" x="120" y="140" fill="#58565c" shape-rendering="crispEdges" /><rect width="10" height="10" x="220" y="140" fill="#abaaa8" shape-rendering="crispEdges" /><rect width="20" height="10" x="230" y="140" fill="#fff0ee" shape-rendering="crispEdges" /><rect width="30" height="10" x="60" y="150" fill="#abaaa8" shape-rendering="crispEdges" /><rect width="30" height="10" x="90" y="150" fill="#fff0ee" shape-rendering="crispEdges" /><rect width="10" height="10" x="120" y="150" fill="#abaaa8" shape-rendering="crispEdges" /><rect width="80" height="10" x="130" y="150" fill="#58565c" shape-rendering="crispEdges" /><rect width="10" height="10" x="210" y="150" fill="#abaaa8" shape-rendering="crispEdges" /><rect width="30" height="10" x="220" y="150" fill="#fff0ee" shape-rendering="crispEdges" /><rect width="30" height="10" x="60" y="160" fill="#abaaa8" shape-rendering="crispEdges" /><rect width="30" height="10" x="90" y="160" fill="#fff0ee" shape-rendering="crispEdges" /><rect width="10" height="10" x="120" y="160" fill="#abaaa8" shape-rendering="crispEdges" /><rect width="80" height="10" x="130" y="160" fill="#58565c" shape-rendering="crispEdges" /><rect width="10" height="10" x="210" y="160" fill="#abaaa8" shape-rendering="crispEdges" /><rect width="30" height="10" x="220" y="160" fill="#fff0ee" shape-rendering="crispEdges" /><rect width="30" height="10" x="60" y="170" fill="#abaaa8" shape-rendering="crispEdges" /><rect width="40" height="10" x="90" y="170" fill="#fff0ee" shape-rendering="crispEdges" /><rect width="20" height="10" x="130" y="170" fill="#abaaa8" shape-rendering="crispEdges" /><rect width="40" height="10" x="150" y="170" fill="#58565c" shape-rendering="crispEdges" /><rect width="20" height="10" x="190" y="170" fill="#abaaa8" shape-rendering="crispEdges" /><rect width="40" height="10" x="210" y="170" fill="#fff0ee" shape-rendering="crispEdges" /><rect width="20" height="10" x="40" y="180" fill="#000000" shape-rendering="crispEdges" /><rect width="30" height="10" x="60" y="180" fill="#abaaa8" shape-rendering="crispEdges" /><rect width="10" height="10" x="90" y="180" fill="#fff0ee" shape-rendering="crispEdges" /><rect width="20" height="10" x="100" y="180" fill="#2b83f6" shape-rendering="crispEdges" /><rect width="30" height="10" x="120" y="180" fill="#fff0ee" shape-rendering="crispEdges" /><rect width="40" height="10" x="150" y="180" fill="#abaaa8" shape-rendering="crispEdges" /><rect width="60" height="10" x="190" y="180" fill="#fff0ee" shape-rendering="crispEdges" /><rect width="10" height="10" x="40" y="190" fill="#000000" shape-rendering="crispEdges" /><rect width="30" height="10" x="60" y="190" fill="#abaaa8" shape-rendering="crispEdges" /><rect width="160" height="10" x="90" y="190" fill="#fff0ee" shape-rendering="crispEdges" /><rect width="10" height="10" x="40" y="200" fill="#000000" shape-rendering="crispEdges" /><rect width="30" height="10" x="60" y="200" fill="#abaaa8" shape-rendering="crispEdges" /><rect width="160" height="10" x="90" y="200" fill="#fff0ee" shape-rendering="crispEdges" /><rect width="10" height="10" x="40" y="210" fill="#000000" shape-rendering="crispEdges" /><rect width="10" height="10" x="40" y="220" fill="#000000" shape-rendering="crispEdges" /><rect width="10" height="10" x="40" y="230" fill="#000000" shape-rendering="crispEdges" /><rect width="10" height="10" x="40" y="240" fill="#000000" shape-rendering="crispEdges" /><rect width="10" height="10" x="40" y="250" fill="#000000" shape-rendering="crispEdges" /><rect width="10" height="10" x="40" y="260" fill="#000000" shape-rendering="crispEdges" /><rect width="10" height="10" x="40" y="270" fill="#000000" shape-rendering="crispEdges" /><rect width="10" height="10" x="40" y="280" fill="#000000" shape-rendering="crispEdges" /><rect width="10" height="10" x="40" y="290" fill="#000000" shape-rendering="crispEdges" /><rect width="10" height="10" x="40" y="300" fill="#000000" shape-rendering="crispEdges" /><rect width="10" height="10" x="40" y="310" fill="#000000" shape-rendering="crispEdges" /></svg>