<svg width="320" height="320" viewBox="0 0 320 320" xmlns="http://www.w3.org/2000/svg" shape-rendering="crispEdges"><rect width="100%" height="100%" fill="none" /><rect width="80" height="10" x="160" y="30" fill="#ffc110" shape-rendering="crispEdges" /><rect width="50" height="10" x="140" y="40" fill="#ffc110" shape-rendering="crispEdges" /><rect width="40" height="10" x="190" y="40" fill="#fff0ee" shape-rendering="crispEdges" /><rect width="20" height="10" x="230" y="40" fill="#ffc110" shape-rendering="crispEdges" /><rect width="50" height="10" x="130" y="50" fill="#ffc110" shape-rendering="crispEdges" /><rect width="20" height="10" x="180" y="50" fill="#fff0ee" shape-rendering="crispEdges" /><rect width="20" height="10" x="200" y="50" fill="#000000" shape-rendering="crispEdges" /><rect width="20" height="10" x="220" y="50" fill="#fff0ee" shape-rendering="crispEdges" /><rect width="10" height="10" x="240" y="50" fill="#ffc110" shape-rendering="crispEdges" /><rect width="50" height="10" x="130" y="60" fill="#ffc110" shape-rendering="crispEdges" /><rect width="20" height="10" x="180" y="60" fill="#fff0ee" shape-rendering="crispEdges" /><rect width="20" height="10" x="200" y="60" fill="#000000" shape-rendering="crispEdges" /><rect width="20" height="10" x="220" y="60" fill="#fff0ee" shape-rendering="crispEdges" /><rect width="10" height="10" x="240" y="60" fill="#ffc110" shape-rendering="crispEdges" /><rect width="10" height="10" x="250" y="60" fill="#fe500c" shape-rendering="crispEdges" /><rect width="60" height="10" x="130" y="70" fill="#ffc110" shape-rendering="crispEdges" /><rect width="40" height="10" x="190" y="70" fill="#fff0ee" shape-rendering="crispEdges" /><rect width="20" height="10" x="230" y="70" fill="#ffc110" shape-rendering="crispEdges" /><rect width="30" height="10" x="250" y="70" fill="#fe500c" shape-rendering="crispEdges" /><rect width="20" height="10" x="50" y="80" fill="#ffc110" shape-rendering="crispEdges" /><rect width="100" height="10" x="140" y="80" fill="#ffc110" shape-rendering="crispEdges" /><rect width="30" height="10" x="240" y="80" fill="#fe500c" shape-rendering="crispEdges" /><rect width="50" height="10" x="50" y="90" fill="#ffc110" shape-rendering="crispEdges" /><rect width="100" height="10" x="150" y="90" fill="#ffc110" shape-rendering="crispEdges" /><rect width="220" height="10" x="40" y="100" fill="#ffc110" shape-rendering="crispEdges" /><rect width="230" height="10" x="40" y="110" fill="#ffc110" shape-rendering="crispEdges" /><rect width="240" height="10" x="40" y="120" fill="#ffc110" shape-rendering="crispEdges" /><rect width="240" height="10" x="40" y="130" fill="#ffc110" shape-rendering="crispEdges" /><rect width="240" height="10" x="40" y="140" fill="#ffc110" shape-rendering="crispEdges" /><rect width="230" height="10" x="50" y="150" fill="#ffc110" shape-rendering="crispEdges" /><rect width="230" height="10" x="50" y="160" fill="#ffc110" shape-rendering="crispEdges" /><rect width="220" height="10" x="60" y="170" fill="#ffc110" shape-rendering="crispEdges" /><rect width="110" height="10" x="60" y="180" fill="#ffc110" shape-rendering="crispEdges" /><rect width="10" height="10" x="170" y="180" fill="#d08b11" shape-rendering="crispEdges" /><rect width="90" height="10" x="180" y="180" fill="#ffc110" shape-rendering="crispEdges" /><rect width="70" height="10" x="70" y="190" fill="#ffc110" shape-rendering="crispEdges" /><rect width="30" height="10" x="140" y="190" fill="#d08b11" shape-rendering="crispEdges" /><rect width="90" height="10" x="170" y="190" fill="#ffc110" shape-rendering="crispEdges" /><rect width="160" height="10" x="90" y="200" fill="#ffc110" shape-rendering="crispEdges" /></svg>