<svg width="320" height="320" viewBox="0 0 320 320" xmlns="http://www.w3.org/2000/svg" shape-rendering="crispEdges"><rect width="100%" height="100%" fill="none" /><rect width="80" height="10" x="50" y="80" fill="#d6c3be" shape-rendering="crispEdges" /><rect width="140" height="10" x="130" y="80" fill="#a3baed" shape-rendering="crispEdges" /><rect width="20" height="10" x="30" y="90" fill="#7e5243" shape-rendering="crispEdges" /><rect width="10" height="10" x="50" y="90" fill="#d6c3be" shape-rendering="crispEdges" /><rect width="80" height="10" x="60" y="90" fill="#fff0ee" shape-rendering="crispEdges" /><rect width="140" height="10" x="140" y="90" fill="#9cb4b8" shape-rendering="crispEdges" /><rect width="10" height="10" x="280" y="90" fill="#7e5243" shape-rendering="crispEdges" /><rect width="10" height="10" x="30" y="100" fill="#7e5243" shape-rendering="crispEdges" /><rect width="10" height="10" x="40" y="100" fill="#000000" shape-rendering="crispEdges" /><rect width="10" height="10" x="50" y="100" fill="#d6c3be" shape-rendering="crispEdges" /><rect width="80" height="10" x="60" y="100" fill="#fff0ee" shape-rendering="crispEdges" /><rect width="140" height="10" x="140" y="100" fill="#9cb4b8" shape-rendering="crispEdges" /><rect width="10" height="10" x="280" y="100" fill="#7e5243" shape-rendering="crispEdges" /><rect width="130" height="10" x="30" y="110" fill="#7e5243" shape-rendering="crispEdges" /><rect width="10" height="10" x="160" y="110" fill="#5a423f" shape-rendering="crispEdges" /><rect width="120" height="10" x="170" y="110" fill="#7e5243" shape-rendering="crispEdges" /><rect width="10" height="10" x="30" y="120" fill="#7e5243" shape-rendering="crispEdges" /><rect width="110" height="10" x="40" y="120" fill="#d6c3be" shape-rendering="crispEdges" /><rect width="10" height="10" x="150" y="120" fill="#7e5243" shape-rendering="crispEdges" /><rect width="10" height="10" x="160" y="120" fill="#5a423f" shape-rendering="crispEdges" /><rect width="10" height="10" x="170" y="120" fill="#7e5243" shape-rendering="crispEdges" /><rect width="100" height="10" x="180" y="120" fill="#2b83f6" shape-rendering="crispEdges" /><rect width="10" height="10" x="280" y="120" fill="#7e5243" shape-rendering="crispEdges" /><rect width="10" height="10" x="30" y="130" fill="#7e5243" shape-rendering="crispEdges" /><rect width="10" height="10" x="40" y="130" fill="#d6c3be" shape-rendering="crispEdges" /><rect width="50" height="10" x="50" y="130" fill="#b2958d" shape-rendering="crispEdges" /><rect width="50" height="10" x="100" y="130" fill="#d6c3be" shape-rendering="crispEdges" /><rect width="10" height="10" x="150" y="130" fill="#7e5243" shape-rendering="crispEdges" /><rect width="10" height="10" x="160" y="130" fill="#5a423f" shape-rendering="crispEdges" /><rect width="120" height="10" x="170" y="130" fill="#7e5243" shape-rendering="crispEdges" /><rect width="10" height="10" x="30" y="140" fill="#7e5243" shape-rendering="crispEdges" /><rect width="10" height="10" x="40" y="140" fill="#d6c3be" shape-rendering="crispEdges" /><rect width="10" height="10" x="50" y="140" fill="#b2958d" shape-rendering="crispEdges" /><rect width="30" height="10" x="60" y="140" fill="#d6c3be" shape-rendering="crispEdges" /><rect width="10" height="10" x="90" y="140" fill="#b2958d" shape-rendering="crispEdges" /><rect width="50" height="10" x="100" y="140" fill="#d6c3be" shape-rendering="crispEdges" /><rect width="10" height="10" x="150" y="140" fill="#7e5243" shape-rendering="crispEdges" /><rect width="10" height="10" x="160" y="140" fill="#5a423f" shape-rendering="crispEdges" /><rect width="10" height="10" x="170" y="140" fill="#7e5243" shape-rendering="crispEdges" /><rect width="100" height="10" x="180" y="140" fill="#ffc110" shape-rendering="crispEdges" /><rect width="10" height="10" x="280" y="140" fill="#7e5243" shape-rendering="crispEdges" /><rect width="10" height="10" x="30" y="150" fill="#7e5243" shape-rendering="crispEdges" /><rect width="10" height="10" x="40" y="150" fill="#d6c3be" shape-rendering="crispEdges" /><rect width="10" height="10" x="50" y="150" fill="#b2958d" shape-rendering="crispEdges" /><rect width="30" height="10" x="60" y="150" fill="#d6c3be" shape-rendering="crispEdges" /><rect width="10" height="10" x="90" y="150" fill="#b2958d" shape-rendering="crispEdges" /><rect width="50" height="10" x="100" y="150" fill="#d6c3be" shape-rendering="crispEdges" /><rect width="10" height="10" x="150" y="150" fill="#7e5243" shape-rendering="crispEdges" /><rect width="10" height="10" x="160" y="150" fill="#5a423f" shape-rendering="crispEdges" /><rect width="120" height="10" x="170" y="150" fill="#7e5243" shape-rendering="crispEdges" /><rect width="10" height="10" x="30" y="160" fill="#7e5243" shape-rendering="crispEdges" /><rect width="10" height="10" x="40" y="160" fill="#d6c3be" shape-rendering="crispEdges" /><rect width="20" height="10" x="50" y="160" fill="#b2958d" shape-rendering="crispEdges" /><rect width="10" height="10" x="70" y="160" fill="#d6c3be" shape-rendering="crispEdges" /><rect width="20" height="10" x="80" y="160" fill="#b2958d" shape-rendering="crispEdges" /><rect width="50" height="10" x="100" y="160" fill="#d6c3be" shape-rendering="crispEdges" /><rect width="10" height="10" x="150" y="160" fill="#7e5243" shape-rendering="crispEdges" /><rect width="10" height="10" x="160" y="160" fill="#5a423f" shape-rendering="crispEdges" /><rect width="10" height="10" x="170" y="160" fill="#7e5243" shape-rendering="crispEdges" /><rect width="100" height="10" x="180" y="160" fill="#a86f60" shape-rendering="crispEdges" /><rect width="10" height="10" x="280" y="160" fill="#7e5243" shape-rendering="crispEdges" /><rect width="10" height="10" x="30" y="170" fill="#7e5243" shape-rendering="crispEdges" /><rect width="10" height="10" x="40" y="170" fill="#d6c3be" shape-rendering="crispEdges" /><rect width="10" height="10" x="50" y="170" fill="#b2958d" shape-rendering="crispEdges" /><rect width="30" height="10" x="60" y="170" fill="#d6c3be" shape-rendering="crispEdges" /><rect width="10" height="10" x="90" y="170" fill="#b2958d" shape-rendering="crispEdges" /><rect width="50" height="10" x="100" y="170" fill="#d6c3be" shape-rendering="crispEdges" /><rect width="10" height="10" x="150" y="170" fill="#7e5243" shape-rendering="crispEdges" /><rect width="10" height="10" x="160" y="170" fill="#5a423f" shape-rendering="crispEdges" /><rect width="10" height="10" x="170" y="170" fill="#7e5243" shape-rendering="crispEdges" /><rect width="100" height="10" x="180" y="170" fill="#a86f60" shape-rendering="crispEdges" /><rect width="10" height="10" x="280" y="170" fill="#7e5243" shape-rendering="crispEdges" /><rect width="10" height="10" x="30" y="180" fill="#7e5243" shape-rendering="crispEdges" /><rect width="10" height="10" x="40" y="180" fill="#d6c3be" shape-rendering="crispEdges" /><rect width="50" height="10" x="50" y="180" fill="#b2958d" shape-rendering="crispEdges" /><rect width="10" height="10" x="100" y="180" fill="#d6c3be" shape-rendering="crispEdges" /><rect width="30" height="10" x="110" y="180" fill="#d9391f" shape-rendering="crispEdges" /><rect width="10" height="10" x="140" y="180" fill="#d6c3be" shape-rendering="crispEdges" /><rect width="10" height="10" x="150" y="180" fill="#7e5243" shape-rendering="crispEdges" /><rect width="10" height="10" x="160" y="180" fill="#5a423f" shape-rendering="crispEdges" /><rect width="120" height="10" x="170" y="180" fill="#7e5243" shape-rendering="crispEdges" /><rect width="10" height="10" x="30" y="190" fill="#7e5243" shape-rendering="crispEdges" /><rect width="110" height="10" x="40" y="190" fill="#d6c3be" shape-rendering="crispEdges" /><rect width="10" height="10" x="150" y="190" fill="#7e5243" shape-rendering="crispEdges" /><rect width="10" height="10" x="160" y="190" fill="#5a423f" shape-rendering="crispEdges" /><rect width="120" height="10" x="170" y="190" fill="#7e5243" shape-rendering="crispEdges" /><rect width="130" height="10" x="30" y="200" fill="#7e5243" shape-rendering="crispEdges" /><rect width="10" height="10" x="160" y="200" fill="#5a423f" shape-rendering="crispEdges" /><rect width="120" height="10" x="170" y="200" fill="#7e5243" shape-rendering="crispEdges" /></svg>