<svg width="320" height="320" viewBox="0 0 320 320" xmlns="http://www.w3.org/2000/svg" shape-rendering="crispEdges"><rect width="100%" height="100%" fill="none" /><rect width="140" height="10" x="90" y="60" fill="#000000" shape-rendering="crispEdges" /><rect width="140" height="10" x="90" y="70" fill="#000000" shape-rendering="crispEdges" /><rect width="160" height="10" x="80" y="80" fill="#000000" shape-rendering="crispEdges" /><rect width="140" height="10" x="90" y="90" fill="#34ac80" shape-rendering="crispEdges" /><rect width="140" height="10" x="90" y="100" fill="#34ac80" shape-rendering="crispEdges" /><rect width="140" height="10" x="90" y="110" fill="#34ac80" shape-rendering="crispEdges" /><rect width="140" height="10" x="90" y="120" fill="#34ac80" shape-rendering="crispEdges" /><rect width="140" height="10" x="90" y="130" fill="#34ac80" shape-rendering="crispEdges" /><rect width="140" height="10" x="90" y="140" fill="#34ac80" shape-rendering="crispEdges" /><rect width="140" height="10" x="90" y="150" fill="#34ac80" shape-rendering="crispEdges" /><rect width="210" height="10" x="90" y="160" fill="#34ac80" shape-rendering="crispEdges" /><rect width="210" height="10" x="90" y="170" fill="#34ac80" shape-rendering="crispEdges" /><rect width="30" height="10" x="90" y="180" fill="#34ac80" shape-rendering="crispEdges" /><rect width="30" height="10" x="120" y="180" fill="#000000" shape-rendering="crispEdges" /><rect width="20" height="10" x="150" y="180" fill="#34ac80" shape-rendering="crispEdges" /><rect width="40" height="10" x="170" y="180" fill="#000000" shape-rendering="crispEdges" /><rect width="20" height="10" x="210" y="180" fill="#34ac80" shape-rendering="crispEdges" /><rect width="40" height="10" x="230" y="180" fill="#000000" shape-rendering="crispEdges" /><rect width="30" height="10" x="270" y="180" fill="#34ac80" shape-rendering="crispEdges" /><rect width="50" height="10" x="90" y="190" fill="#34ac80" shape-rendering="crispEdges" /><rect width="10" height="10" x="140" y="190" fill="#000000" shape-rendering="crispEdges" /><rect width="20" height="10" x="150" y="190" fill="#34ac80" shape-rendering="crispEdges" /><rect width="10" height="10" x="170" y="190" fill="#000000" shape-rendering="crispEdges" /><rect width="20" height="10" x="180" y="190" fill="#34ac80" shape-rendering="crispEdges" /><rect width="10" height="10" x="200" y="190" fill="#000000" shape-rendering="crispEdges" /><rect width="20" height="10" x="210" y="190" fill="#34ac80" shape-rendering="crispEdges" /><rect width="10" height="10" x="230" y="190" fill="#000000" shape-rendering="crispEdges" /><rect width="20" height="10" x="240" y="190" fill="#34ac80" shape-rendering="crispEdges" /><rect width="10" height="10" x="260" y="190" fill="#000000" shape-rendering="crispEdges" /><rect width="30" height="10" x="270" y="190" fill="#34ac80" shape-rendering="crispEdges" /><rect width="50" height="10" x="90" y="200" fill="#34ac80" shape-rendering="crispEdges" /><rect width="40" height="10" x="140" y="200" fill="#000000" shape-rendering="crispEdges" /><rect width="20" height="10" x="180" y="200" fill="#34ac80" shape-rendering="crispEdges" /><rect width="40" height="10" x="200" y="200" fill="#000000" shape-rendering="crispEdges" /><rect width="20" height="10" x="240" y="200" fill="#34ac80" shape-rendering="crispEdges" /><rect width="30" height="10" x="260" y="200" fill="#000000" shape-rendering="crispEdges" /><rect width="10" height="10" x="290" y="200" fill="#34ac80" shape-rendering="crispEdges" /><rect width="210" height="10" x="90" y="210" fill="#34ac80" shape-rendering="crispEdges" /></svg>