<svg width="320" height="320" viewBox="0 0 320 320" xmlns="http://www.w3.org/2000/svg" shape-rendering="crispEdges"><rect width="100%" height="100%" fill="none" /><rect width="10" height="10" x="40" y="10" fill="#000000" shape-rendering="crispEdges" /><rect width="200" height="10" x="60" y="10" fill="#000000" shape-rendering="crispEdges" /><rect width="10" height="10" x="270" y="10" fill="#000000" shape-rendering="crispEdges" /><rect width="10" height="10" x="290" y="10" fill="#000000" shape-rendering="crispEdges" /><rect width="10" height="10" x="110" y="20" fill="#000000" shape-rendering="crispEdges" /><rect width="10" height="10" x="130" y="20" fill="#000000" shape-rendering="crispEdges" /><rect width="10" height="10" x="30" y="30" fill="#000000" shape-rendering="crispEdges" /><rect width="210" height="10" x="60" y="30" fill="#000000" shape-rendering="crispEdges" /><rect width="10" height="10" x="280" y="30" fill="#000000" shape-rendering="crispEdges" /><rect width="10" height="10" x="90" y="40" fill="#000000" shape-rendering="crispEdges" /><rect width="10" height="10" x="90" y="50" fill="#000000" shape-rendering="crispEdges" /><rect width="20" height="10" x="90" y="60" fill="#000000" shape-rendering="crispEdges" /><rect width="40" height="10" x="90" y="70" fill="#000000" shape-rendering="crispEdges" /><rect width="110" height="10" x="100" y="80" fill="#000000" shape-rendering="crispEdges" /><rect width="200" height="10" x="60" y="90" fill="#f8ddb0" shape-rendering="crispEdges" /><rect width="10" height="10" x="50" y="100" fill="#f8ddb0" shape-rendering="crispEdges" /><rect width="100" height="10" x="60" y="100" fill="#027c92" shape-rendering="crispEdges" /><rect width="10" height="10" x="160" y="100" fill="#f8ddb0" shape-rendering="crispEdges" /><rect width="90" height="10" x="170" y="100" fill="#027c92" shape-rendering="crispEdges" /><rect width="10" height="10" x="260" y="100" fill="#f8ddb0" shape-rendering="crispEdges" /><rect width="10" height="10" x="50" y="110" fill="#f8ddb0" shape-rendering="crispEdges" /><rect width="100" height="10" x="60" y="110" fill="#027c92" shape-rendering="crispEdges" /><rect width="10" height="10" x="160" y="110" fill="#f8ddb0" shape-rendering="crispEdges" /><rect width="70" height="10" x="170" y="110" fill="#027c92" shape-rendering="crispEdges" /><rect width="10" height="10" x="240" y="110" fill="#fdf8ff" shape-rendering="crispEdges" /><rect width="10" height="10" x="250" y="110" fill="#027c92" shape-rendering="crispEdges" /><rect width="10" height="10" x="260" y="110" fill="#f8ddb0" shape-rendering="crispEdges" /><rect width="10" height="10" x="50" y="120" fill="#f8ddb0" shape-rendering="crispEdges" /><rect width="100" height="10" x="60" y="120" fill="#027c92" shape-rendering="crispEdges" /><rect width="10" height="10" x="160" y="120" fill="#f8ddb0" shape-rendering="crispEdges" /><rect width="70" height="10" x="170" y="120" fill="#027c92" shape-rendering="crispEdges" /><rect width="10" height="10" x="240" y="120" fill="#fdf8ff" shape-rendering="crispEdges" /><rect width="10" height="10" x="250" y="120" fill="#027c92" shape-rendering="crispEdges" /><rect width="10" height="10" x="260" y="120" fill="#f8ddb0" shape-rendering="crispEdges" /><rect width="10" height="10" x="50" y="130" fill="#f8ddb0" shape-rendering="crispEdges" /><rect width="100" height="10" x="60" y="130" fill="#027c92" shape-rendering="crispEdges" /><rect width="10" height="10" x="160" y="130" fill="#f8ddb0" shape-rendering="crispEdges" /><rect width="70" height="10" x="170" y="130" fill="#027c92" shape-rendering="crispEdges" /><rect width="10" height="10" x="240" y="130" fill="#fdf8ff" shape-rendering="crispEdges" /><rect width="10" height="10" x="250" y="130" fill="#027c92" shape-rendering="crispEdges" /><rect width="10" height="10" x="260" y="130" fill="#f8ddb0" shape-rendering="crispEdges" /><rect width="10" height="10" x="50" y="140" fill="#f8ddb0" shape-rendering="crispEdges" /><rect width="100" height="10" x="60" y="140" fill="#027c92" shape-rendering="crispEdges" /><rect width="10" height="10" x="160" y="140" fill="#f8ddb0" shape-rendering="crispEdges" /><rect width="90" height="10" x="170" y="140" fill="#027c92" shape-rendering="crispEdges" /><rect width="10" height="10" x="260" y="140" fill="#f8ddb0" shape-rendering="crispEdges" /><rect width="220" height="10" x="50" y="150" fill="#d32a09" shape-rendering="crispEdges" /><rect width="220" height="10" x="50" y="160" fill="#f8ddb0" shape-rendering="crispEdges" /><rect width="220" height="10" x="50" y="170" fill="#d32a09" shape-rendering="crispEdges" /><rect width="60" height="10" x="50" y="180" fill="#d32a09" shape-rendering="crispEdges" /><rect width="60" height="10" x="110" y="180" fill="#000000" shape-rendering="crispEdges" /><rect width="100" height="10" x="170" y="180" fill="#d32a09" shape-rendering="crispEdges" /><rect width="220" height="10" x="50" y="190" fill="#d32a09" shape-rendering="crispEdges" /><rect width="180" height="10" x="70" y="200" fill="#d32a09" shape-rendering="crispEdges" /></svg>