<svg width="320" height="320" viewBox="0 0 320 320" xmlns="http://www.w3.org/2000/svg" shape-rendering="crispEdges"><rect width="100%" height="100%" fill="none" /><rect width="90" height="10" x="50" y="60" fill="#fd8b5b" shape-rendering="crispEdges" /><rect width="90" height="10" x="50" y="70" fill="#a86f60" shape-rendering="crispEdges" /><rect width="90" height="10" x="50" y="80" fill="#a86f60" shape-rendering="crispEdges" /><rect width="30" height="10" x="60" y="90" fill="#5a423f" shape-rendering="crispEdges" /><rect width="40" height="10" x="90" y="90" fill="#a86f60" shape-rendering="crispEdges" /><rect width="30" height="10" x="60" y="100" fill="#5a423f" shape-rendering="crispEdges" /><rect width="40" height="10" x="90" y="100" fill="#a86f60" shape-rendering="crispEdges" /><rect width="30" height="10" x="60" y="110" fill="#5a423f" shape-rendering="crispEdges" /><rect width="40" height="10" x="90" y="110" fill="#a86f60" shape-rendering="crispEdges" /><rect width="30" height="10" x="60" y="120" fill="#5a423f" shape-rendering="crispEdges" /><rect width="40" height="10" x="90" y="120" fill="#a86f60" shape-rendering="crispEdges" /><rect width="30" height="10" x="60" y="130" fill="#5a423f" shape-rendering="crispEdges" /><rect width="40" height="10" x="90" y="130" fill="#a86f60" shape-rendering="crispEdges" /><rect width="30" height="10" x="250" y="130" fill="#fd8b5b" shape-rendering="crispEdges" /><rect width="30" height="10" x="60" y="140" fill="#5a423f" shape-rendering="crispEdges" /><rect width="40" height="10" x="90" y="140" fill="#a86f60" shape-rendering="crispEdges" /><rect width="120" height="10" x="130" y="140" fill="#fd8b5b" shape-rendering="crispEdges" /><rect width="30" height="10" x="250" y="140" fill="#a86f60" shape-rendering="crispEdges" /><rect width="30" height="10" x="60" y="150" fill="#5a423f" shape-rendering="crispEdges" /><rect width="190" height="10" x="90" y="150" fill="#a86f60" shape-rendering="crispEdges" /><rect width="30" height="10" x="60" y="160" fill="#5a423f" shape-rendering="crispEdges" /><rect width="190" height="10" x="90" y="160" fill="#a86f60" shape-rendering="crispEdges" /><rect width="40" height="10" x="60" y="170" fill="#5a423f" shape-rendering="crispEdges" /><rect width="180" height="10" x="100" y="170" fill="#a86f60" shape-rendering="crispEdges" /><rect width="60" height="10" x="60" y="180" fill="#5a423f" shape-rendering="crispEdges" /><rect width="10" height="10" x="120" y="180" fill="#000000" shape-rendering="crispEdges" /><rect width="10" height="10" x="130" y="180" fill="#ffffff" shape-rendering="crispEdges" /><rect width="10" height="10" x="140" y="180" fill="#000000" shape-rendering="crispEdges" /><rect width="10" height="10" x="150" y="180" fill="#ffffff" shape-rendering="crispEdges" /><rect width="10" height="10" x="160" y="180" fill="#000000" shape-rendering="crispEdges" /><rect width="80" height="10" x="170" y="180" fill="#5a423f" shape-rendering="crispEdges" /><rect width="30" height="10" x="250" y="180" fill="#a86f60" shape-rendering="crispEdges" /><rect width="210" height="10" x="70" y="190" fill="#5a423f" shape-rendering="crispEdges" /><rect width="200" height="10" x="80" y="200" fill="#5a423f" shape-rendering="crispEdges" /><rect width="30" height="10" x="250" y="210" fill="#5a423f" shape-rendering="crispEdges" /></svg>