<svg width="320" height="320" viewBox="0 0 320 320" xmlns="http://www.w3.org/2000/svg" shape-rendering="crispEdges"><rect width="100%" height="100%" fill="none" /><rect width="50" height="10" x="70" y="40" fill="#000000" shape-rendering="crispEdges" /><rect width="40" height="10" x="120" y="40" fill="#909b0e" shape-rendering="crispEdges" /><rect width="30" height="10" x="160" y="40" fill="#ffc110" shape-rendering="crispEdges" /><rect width="30" height="10" x="80" y="50" fill="#000000" shape-rendering="crispEdges" /><rect width="40" height="10" x="110" y="50" fill="#909b0e" shape-rendering="crispEdges" /><rect width="50" height="10" x="150" y="50" fill="#ffc110" shape-rendering="crispEdges" /><rect width="10" height="10" x="90" y="60" fill="#000000" shape-rendering="crispEdges" /><rect width="40" height="10" x="100" y="60" fill="#909b0e" shape-rendering="crispEdges" /><rect width="70" height="10" x="140" y="60" fill="#ffc110" shape-rendering="crispEdges" /><rect width="30" height="10" x="100" y="70" fill="#909b0e" shape-rendering="crispEdges" /><rect width="90" height="10" x="130" y="70" fill="#ffc110" shape-rendering="crispEdges" /><rect width="20" height="10" x="100" y="80" fill="#909b0e" shape-rendering="crispEdges" /><rect width="20" height="10" x="120" y="80" fill="#ffc110" shape-rendering="crispEdges" /><rect width="10" height="10" x="140" y="80" fill="#db8323" shape-rendering="crispEdges" /><rect width="70" height="10" x="150" y="80" fill="#ffc110" shape-rendering="crispEdges" /><rect width="10" height="10" x="100" y="90" fill="#909b0e" shape-rendering="crispEdges" /><rect width="30" height="10" x="110" y="90" fill="#ffc110" shape-rendering="crispEdges" /><rect width="10" height="10" x="140" y="90" fill="#db8323" shape-rendering="crispEdges" /><rect width="30" height="10" x="150" y="90" fill="#ffc110" shape-rendering="crispEdges" /><rect width="20" height="10" x="180" y="90" fill="#db8323" shape-rendering="crispEdges" /><rect width="20" height="10" x="200" y="90" fill="#ffc110" shape-rendering="crispEdges" /><rect width="20" height="10" x="100" y="100" fill="#ffc110" shape-rendering="crispEdges" /><rect width="10" height="10" x="120" y="100" fill="#db8323" shape-rendering="crispEdges" /><rect width="50" height="10" x="130" y="100" fill="#ffc110" shape-rendering="crispEdges" /><rect width="20" height="10" x="180" y="100" fill="#db8323" shape-rendering="crispEdges" /><rect width="20" height="10" x="200" y="100" fill="#ffc110" shape-rendering="crispEdges" /><rect width="10" height="10" x="30" y="110" fill="#ffc110" shape-rendering="crispEdges" /><rect width="80" height="10" x="100" y="110" fill="#ffc110" shape-rendering="crispEdges" /><rect width="20" height="10" x="180" y="110" fill="#db8323" shape-rendering="crispEdges" /><rect width="20" height="10" x="200" y="110" fill="#ffc110" shape-rendering="crispEdges" /><rect width="10" height="10" x="280" y="110" fill="#ffc110" shape-rendering="crispEdges" /><rect width="20" height="10" x="30" y="120" fill="#ffc110" shape-rendering="crispEdges" /><rect width="80" height="10" x="100" y="120" fill="#ffc110" shape-rendering="crispEdges" /><rect width="20" height="10" x="180" y="120" fill="#db8323" shape-rendering="crispEdges" /><rect width="20" height="10" x="200" y="120" fill="#ffc110" shape-rendering="crispEdges" /><rect width="20" height="10" x="270" y="120" fill="#ffc110" shape-rendering="crispEdges" /><rect width="30" height="10" x="30" y="130" fill="#ffc110" shape-rendering="crispEdges" /><rect width="120" height="10" x="100" y="130" fill="#ffc110" shape-rendering="crispEdges" /><rect width="30" height="10" x="260" y="130" fill="#ffc110" shape-rendering="crispEdges" /><rect width="10" height="10" x="30" y="140" fill="#ffc110" shape-rendering="crispEdges" /><rect width="10" height="10" x="40" y="140" fill="#db8323" shape-rendering="crispEdges" /><rect width="20" height="10" x="50" y="140" fill="#ffc110" shape-rendering="crispEdges" /><rect width="140" height="10" x="90" y="140" fill="#ffc110" shape-rendering="crispEdges" /><rect width="40" height="10" x="250" y="140" fill="#ffc110" shape-rendering="crispEdges" /><rect width="20" height="10" x="30" y="150" fill="#ffc110" shape-rendering="crispEdges" /><rect width="10" height="10" x="50" y="150" fill="#db8323" shape-rendering="crispEdges" /><rect width="20" height="10" x="60" y="150" fill="#ffc110" shape-rendering="crispEdges" /><rect width="140" height="10" x="90" y="150" fill="#ffc110" shape-rendering="crispEdges" /><rect width="50" height="10" x="240" y="150" fill="#ffc110" shape-rendering="crispEdges" /><rect width="30" height="10" x="30" y="160" fill="#ffc110" shape-rendering="crispEdges" /><rect width="10" height="10" x="60" y="160" fill="#db8323" shape-rendering="crispEdges" /><rect width="180" height="10" x="70" y="160" fill="#ffc110" shape-rendering="crispEdges" /><rect width="10" height="10" x="250" y="160" fill="#db8323" shape-rendering="crispEdges" /><rect width="30" height="10" x="260" y="160" fill="#ffc110" shape-rendering="crispEdges" /><rect width="200" height="10" x="40" y="170" fill="#ffc110" shape-rendering="crispEdges" /><rect width="10" height="10" x="240" y="170" fill="#db8323" shape-rendering="crispEdges" /><rect width="30" height="10" x="250" y="170" fill="#ffc110" shape-rendering="crispEdges" /><rect width="100" height="10" x="50" y="180" fill="#ffc110" shape-rendering="crispEdges" /><rect width="30" height="10" x="150" y="180" fill="#db8323" shape-rendering="crispEdges" /><rect width="90" height="10" x="180" y="180" fill="#ffc110" shape-rendering="crispEdges" /><rect width="60" height="10" x="60" y="190" fill="#ffc110" shape-rendering="crispEdges" /><rect width="10" height="10" x="120" y="190" fill="#fff0be" shape-rendering="crispEdges" /><rect width="60" height="10" x="130" y="190" fill="#ffc110" shape-rendering="crispEdges" /><rect width="10" height="10" x="190" y="190" fill="#fff0be" shape-rendering="crispEdges" /><rect width="60" height="10" x="200" y="190" fill="#ffc110" shape-rendering="crispEdges" /><rect width="40" height="10" x="70" y="200" fill="#ffc110" shape-rendering="crispEdges" /><rect width="30" height="10" x="110" y="200" fill="#fff0be" shape-rendering="crispEdges" /><rect width="50" height="10" x="140" y="200" fill="#ffc110" shape-rendering="crispEdges" /><rect width="20" height="10" x="190" y="200" fill="#fff0be" shape-rendering="crispEdges" /><rect width="40" height="10" x="210" y="200" fill="#ffc110" shape-rendering="crispEdges" /></svg>