<svg width="320" height="320" viewBox="0 0 320 320" xmlns="http://www.w3.org/2000/svg" shape-rendering="crispEdges"><rect width="100%" height="100%" fill="none" /><rect width="30" height="10" x="90" y="90" fill="#ffe939" shape-rendering="crispEdges" /><rect width="50" height="10" x="120" y="90" fill="#abaaa8" shape-rendering="crispEdges" /><rect width="90" height="10" x="170" y="90" fill="#58565c" shape-rendering="crispEdges" /><rect width="20" height="10" x="260" y="90" fill="#f3322c" shape-rendering="crispEdges" /><rect width="40" height="10" x="80" y="100" fill="#ffe939" shape-rendering="crispEdges" /><rect width="20" height="10" x="120" y="100" fill="#abaaa8" shape-rendering="crispEdges" /><rect width="10" height="10" x="140" y="100" fill="#9d8e6e" shape-rendering="crispEdges" /><rect width="20" height="10" x="150" y="100" fill="#abaaa8" shape-rendering="crispEdges" /><rect width="90" height="10" x="170" y="100" fill="#58565c" shape-rendering="crispEdges" /><rect width="20" height="10" x="260" y="100" fill="#f3322c" shape-rendering="crispEdges" /><rect width="40" height="10" x="80" y="110" fill="#ffe939" shape-rendering="crispEdges" /><rect width="50" height="10" x="120" y="110" fill="#abaaa8" shape-rendering="crispEdges" /><rect width="80" height="10" x="170" y="110" fill="#58565c" shape-rendering="crispEdges" /><rect width="30" height="10" x="250" y="110" fill="#f3322c" shape-rendering="crispEdges" /><rect width="90" height="10" x="30" y="120" fill="#ffe939" shape-rendering="crispEdges" /><rect width="50" height="10" x="120" y="120" fill="#abaaa8" shape-rendering="crispEdges" /><rect width="80" height="10" x="170" y="120" fill="#58565c" shape-rendering="crispEdges" /><rect width="30" height="10" x="250" y="120" fill="#f3322c" shape-rendering="crispEdges" /><rect width="100" height="10" x="20" y="130" fill="#ffe939" shape-rendering="crispEdges" /><rect width="50" height="10" x="120" y="130" fill="#abaaa8" shape-rendering="crispEdges" /><rect width="80" height="10" x="170" y="130" fill="#58565c" shape-rendering="crispEdges" /><rect width="30" height="10" x="250" y="130" fill="#f3322c" shape-rendering="crispEdges" /><rect width="100" height="10" x="20" y="140" fill="#ffe939" shape-rendering="crispEdges" /><rect width="50" height="10" x="120" y="140" fill="#abaaa8" shape-rendering="crispEdges" /><rect width="80" height="10" x="170" y="140" fill="#58565c" shape-rendering="crispEdges" /><rect width="30" height="10" x="250" y="140" fill="#f3322c" shape-rendering="crispEdges" /><rect width="100" height="10" x="20" y="150" fill="#ffe939" shape-rendering="crispEdges" /><rect width="50" height="10" x="120" y="150" fill="#abaaa8" shape-rendering="crispEdges" /><rect width="70" height="10" x="170" y="150" fill="#58565c" shape-rendering="crispEdges" /><rect width="40" height="10" x="240" y="150" fill="#f3322c" shape-rendering="crispEdges" /><rect width="100" height="10" x="20" y="160" fill="#ffe939" shape-rendering="crispEdges" /><rect width="50" height="10" x="120" y="160" fill="#abaaa8" shape-rendering="crispEdges" /><rect width="70" height="10" x="170" y="160" fill="#58565c" shape-rendering="crispEdges" /><rect width="40" height="10" x="240" y="160" fill="#f3322c" shape-rendering="crispEdges" /><rect width="90" height="10" x="30" y="170" fill="#ffe939" shape-rendering="crispEdges" /><rect width="50" height="10" x="120" y="170" fill="#abaaa8" shape-rendering="crispEdges" /><rect width="70" height="10" x="170" y="170" fill="#58565c" shape-rendering="crispEdges" /><rect width="40" height="10" x="240" y="170" fill="#f3322c" shape-rendering="crispEdges" /><rect width="40" height="10" x="80" y="180" fill="#ffe939" shape-rendering="crispEdges" /><rect width="50" height="10" x="120" y="180" fill="#abaaa8" shape-rendering="crispEdges" /><rect width="70" height="10" x="170" y="180" fill="#58565c" shape-rendering="crispEdges" /><rect width="40" height="10" x="240" y="180" fill="#f3322c" shape-rendering="crispEdges" /><rect width="30" height="10" x="80" y="190" fill="#ffe939" shape-rendering="crispEdges" /><rect width="20" height="10" x="110" y="190" fill="#f3322c" shape-rendering="crispEdges" /><rect width="10" height="10" x="130" y="190" fill="#abaaa8" shape-rendering="crispEdges" /><rect width="10" height="10" x="140" y="190" fill="#9d8e6e" shape-rendering="crispEdges" /><rect width="20" height="10" x="150" y="190" fill="#abaaa8" shape-rendering="crispEdges" /><rect width="60" height="10" x="170" y="190" fill="#58565c" shape-rendering="crispEdges" /><rect width="50" height="10" x="230" y="190" fill="#f3322c" shape-rendering="crispEdges" /><rect width="30" height="10" x="90" y="200" fill="#ffe939" shape-rendering="crispEdges" /><rect width="50" height="10" x="120" y="200" fill="#abaaa8" shape-rendering="crispEdges" /><rect width="60" height="10" x="170" y="200" fill="#58565c" shape-rendering="crispEdges" /><rect width="50" height="10" x="230" y="200" fill="#f3322c" shape-rendering="crispEdges" /><rect width="10" height="10" x="240" y="210" fill="#f3322c" shape-rendering="crispEdges" /><rect width="20" height="10" x="260" y="210" fill="#f3322c" shape-rendering="crispEdges" /><rect width="20" height="10" x="260" y="220" fill="#f3322c" shape-rendering="crispEdges" /><rect width="10" height="10" x="260" y="230" fill="#f3322c" shape-rendering="crispEdges" /><rect width="10" height="10" x="260" y="240" fill="#f3322c" shape-rendering="crispEdges" /></svg>