<svg width="320" height="320" viewBox="0 0 320 320" xmlns="http://www.w3.org/2000/svg" shape-rendering="crispEdges"><rect width="100%" height="100%" fill="none" /><rect width="70" height="10" x="70" y="30" fill="#1f1d29" shape-rendering="crispEdges" /><rect width="70" height="10" x="180" y="30" fill="#1f1d29" shape-rendering="crispEdges" /><rect width="70" height="10" x="70" y="40" fill="#1f1d29" shape-rendering="crispEdges" /><rect width="70" height="10" x="180" y="40" fill="#1f1d29" shape-rendering="crispEdges" /><rect width="70" height="10" x="70" y="50" fill="#1f1d29" shape-rendering="crispEdges" /><rect width="70" height="10" x="180" y="50" fill="#1f1d29" shape-rendering="crispEdges" /><rect width="70" height="10" x="70" y="60" fill="#1f1d29" shape-rendering="crispEdges" /><rect width="70" height="10" x="180" y="60" fill="#1f1d29" shape-rendering="crispEdges" /><rect width="70" height="10" x="70" y="70" fill="#1f1d29" shape-rendering="crispEdges" /><rect width="70" height="10" x="180" y="70" fill="#1f1d29" shape-rendering="crispEdges" /><rect width="70" height="10" x="70" y="80" fill="#1f1d29" shape-rendering="crispEdges" /><rect width="70" height="10" x="180" y="80" fill="#1f1d29" shape-rendering="crispEdges" /><rect width="70" height="10" x="70" y="90" fill="#1f1d29" shape-rendering="crispEdges" /><rect width="70" height="10" x="180" y="90" fill="#1f1d29" shape-rendering="crispEdges" /><rect width="140" height="10" x="90" y="100" fill="#807f7e" shape-rendering="crispEdges" /><rect width="140" height="10" x="90" y="110" fill="#807f7e" shape-rendering="crispEdges" /><rect width="140" height="10" x="90" y="120" fill="#807f7e" shape-rendering="crispEdges" /><rect width="140" height="10" x="90" y="130" fill="#807f7e" shape-rendering="crispEdges" /><rect width="140" height="10" x="90" y="140" fill="#807f7e" shape-rendering="crispEdges" /><rect width="30" height="10" x="270" y="140" fill="#1f1d29" shape-rendering="crispEdges" /><rect width="140" height="10" x="90" y="150" fill="#807f7e" shape-rendering="crispEdges" /><rect width="30" height="10" x="270" y="150" fill="#1f1d29" shape-rendering="crispEdges" /><rect width="140" height="10" x="90" y="160" fill="#807f7e" shape-rendering="crispEdges" /><rect width="30" height="10" x="270" y="160" fill="#1f1d29" shape-rendering="crispEdges" /><rect width="180" height="10" x="90" y="170" fill="#807f7e" shape-rendering="crispEdges" /><rect width="140" height="10" x="90" y="180" fill="#807f7e" shape-rendering="crispEdges" /><rect width="10" height="10" x="230" y="180" fill="#62616d" shape-rendering="crispEdges" /><rect width="10" height="10" x="240" y="180" fill="#807f7e" shape-rendering="crispEdges" /><rect width="10" height="10" x="250" y="180" fill="#62616d" shape-rendering="crispEdges" /><rect width="10" height="10" x="260" y="180" fill="#807f7e" shape-rendering="crispEdges" /><rect width="80" height="10" x="90" y="190" fill="#807f7e" shape-rendering="crispEdges" /><rect width="20" height="10" x="170" y="190" fill="#e5e5de" shape-rendering="crispEdges" /><rect width="10" height="10" x="190" y="190" fill="#807f7e" shape-rendering="crispEdges" /><rect width="20" height="10" x="200" y="190" fill="#e5e5de" shape-rendering="crispEdges" /><rect width="50" height="10" x="220" y="190" fill="#807f7e" shape-rendering="crispEdges" /><rect width="180" height="10" x="90" y="200" fill="#807f7e" shape-rendering="crispEdges" /></svg>