<svg width="320" height="320" viewBox="0 0 320 320" xmlns="http://www.w3.org/2000/svg" shape-rendering="crispEdges"><rect width="100%" height="100%" fill="none" /><rect width="10" height="10" x="140" y="20" fill="#ffffff" shape-rendering="crispEdges" /><rect width="30" height="10" x="130" y="30" fill="#ffffff" shape-rendering="crispEdges" /><rect width="10" height="10" x="160" y="30" fill="#e5e5de" shape-rendering="crispEdges" /><rect width="20" height="10" x="170" y="30" fill="#ffffff" shape-rendering="crispEdges" /><rect width="10" height="10" x="210" y="30" fill="#ffffff" shape-rendering="crispEdges" /><rect width="10" height="10" x="80" y="40" fill="#ffffff" shape-rendering="crispEdges" /><rect width="20" height="10" x="110" y="40" fill="#ffffff" shape-rendering="crispEdges" /><rect width="10" height="10" x="130" y="40" fill="#e5e5de" shape-rendering="crispEdges" /><rect width="70" height="10" x="140" y="40" fill="#ffffff" shape-rendering="crispEdges" /><rect width="50" height="10" x="90" y="50" fill="#ffffff" shape-rendering="crispEdges" /><rect width="10" height="10" x="140" y="50" fill="#e5e5de" shape-rendering="crispEdges" /><rect width="40" height="10" x="150" y="50" fill="#ffffff" shape-rendering="crispEdges" /><rect width="10" height="10" x="190" y="50" fill="#e5e5de" shape-rendering="crispEdges" /><rect width="30" height="10" x="200" y="50" fill="#ffffff" shape-rendering="crispEdges" /><rect width="10" height="10" x="250" y="50" fill="#ffffff" shape-rendering="crispEdges" /><rect width="10" height="10" x="80" y="60" fill="#ffffff" shape-rendering="crispEdges" /><rect width="10" height="10" x="90" y="60" fill="#e5e5de" shape-rendering="crispEdges" /><rect width="40" height="10" x="100" y="60" fill="#ffffff" shape-rendering="crispEdges" /><rect width="10" height="10" x="140" y="60" fill="#e5e5de" shape-rendering="crispEdges" /><rect width="50" height="10" x="150" y="60" fill="#ffffff" shape-rendering="crispEdges" /><rect width="10" height="10" x="200" y="60" fill="#e5e5de" shape-rendering="crispEdges" /><rect width="40" height="10" x="210" y="60" fill="#ffffff" shape-rendering="crispEdges" /><rect width="20" height="10" x="80" y="70" fill="#ffffff" shape-rendering="crispEdges" /><rect width="10" height="10" x="100" y="70" fill="#e5e5de" shape-rendering="crispEdges" /><rect width="100" height="10" x="110" y="70" fill="#ffffff" shape-rendering="crispEdges" /><rect width="10" height="10" x="210" y="70" fill="#e5e5de" shape-rendering="crispEdges" /><rect width="20" height="10" x="220" y="70" fill="#ffffff" shape-rendering="crispEdges" /><rect width="30" height="10" x="70" y="80" fill="#ffffff" shape-rendering="crispEdges" /><rect width="10" height="10" x="100" y="80" fill="#e5e5de" shape-rendering="crispEdges" /><rect width="60" height="10" x="110" y="80" fill="#ffffff" shape-rendering="crispEdges" /><rect width="10" height="10" x="170" y="80" fill="#e5e5de" shape-rendering="crispEdges" /><rect width="30" height="10" x="180" y="80" fill="#ffffff" shape-rendering="crispEdges" /><rect width="10" height="10" x="210" y="80" fill="#e5e5de" shape-rendering="crispEdges" /><rect width="30" height="10" x="220" y="80" fill="#ffffff" shape-rendering="crispEdges" /><rect width="10" height="10" x="70" y="90" fill="#ffffff" shape-rendering="crispEdges" /><rect width="10" height="10" x="80" y="90" fill="#e5e5de" shape-rendering="crispEdges" /><rect width="20" height="10" x="90" y="90" fill="#ffffff" shape-rendering="crispEdges" /><rect width="10" height="10" x="110" y="90" fill="#e5e5de" shape-rendering="crispEdges" /><rect width="60" height="10" x="120" y="90" fill="#ffffff" shape-rendering="crispEdges" /><rect width="10" height="10" x="180" y="90" fill="#e5e5de" shape-rendering="crispEdges" /><rect width="40" height="10" x="190" y="90" fill="#ffffff" shape-rendering="crispEdges" /><rect width="10" height="10" x="230" y="90" fill="#e5e5de" shape-rendering="crispEdges" /><rect width="10" height="10" x="240" y="90" fill="#ffffff" shape-rendering="crispEdges" /><rect width="20" height="10" x="50" y="100" fill="#ffffff" shape-rendering="crispEdges" /><rect width="10" height="10" x="70" y="100" fill="#e5e5de" shape-rendering="crispEdges" /><rect width="30" height="10" x="80" y="100" fill="#ffffff" shape-rendering="crispEdges" /><rect width="10" height="10" x="110" y="100" fill="#e5e5de" shape-rendering="crispEdges" /><rect width="60" height="10" x="120" y="100" fill="#ffffff" shape-rendering="crispEdges" /><rect width="10" height="10" x="180" y="100" fill="#e5e5de" shape-rendering="crispEdges" /><rect width="70" height="10" x="190" y="100" fill="#ffffff" shape-rendering="crispEdges" /><rect width="50" height="10" x="60" y="110" fill="#ffffff" shape-rendering="crispEdges" /><rect width="10" height="10" x="110" y="110" fill="#e5e5de" shape-rendering="crispEdges" /><rect width="130" height="10" x="120" y="110" fill="#ffffff" shape-rendering="crispEdges" /><rect width="10" height="10" x="250" y="110" fill="#e5e5de" shape-rendering="crispEdges" /><rect width="40" height="10" x="60" y="120" fill="#ffffff" shape-rendering="crispEdges" /><rect width="10" height="10" x="100" y="120" fill="#e5e5de" shape-rendering="crispEdges" /><rect width="150" height="10" x="110" y="120" fill="#ffffff" shape-rendering="crispEdges" /><rect width="170" height="10" x="60" y="130" fill="#ffffff" shape-rendering="crispEdges" /><rect width="10" height="10" x="230" y="130" fill="#e5e5de" shape-rendering="crispEdges" /><rect width="20" height="10" x="240" y="130" fill="#ffffff" shape-rendering="crispEdges" /><rect width="10" height="10" x="270" y="130" fill="#ffffff" shape-rendering="crispEdges" /><rect width="180" height="10" x="50" y="140" fill="#ffffff" shape-rendering="crispEdges" /><rect width="10" height="10" x="230" y="140" fill="#e5e5de" shape-rendering="crispEdges" /><rect width="30" height="10" x="240" y="140" fill="#ffffff" shape-rendering="crispEdges" /><rect width="10" height="10" x="40" y="150" fill="#ffffff" shape-rendering="crispEdges" /><rect width="30" height="10" x="60" y="150" fill="#ffffff" shape-rendering="crispEdges" /><rect width="10" height="10" x="90" y="150" fill="#e5e5de" shape-rendering="crispEdges" /><rect width="130" height="10" x="100" y="150" fill="#ffffff" shape-rendering="crispEdges" /><rect width="10" height="10" x="230" y="150" fill="#e5e5de" shape-rendering="crispEdges" /><rect width="20" height="10" x="240" y="150" fill="#ffffff" shape-rendering="crispEdges" /><rect width="10" height="10" x="70" y="160" fill="#ffffff" shape-rendering="crispEdges" /><rect width="10" height="10" x="80" y="160" fill="#e5e5de" shape-rendering="crispEdges" /><rect width="130" height="10" x="90" y="160" fill="#ffffff" shape-rendering="crispEdges" /><rect width="10" height="10" x="220" y="160" fill="#e5e5de" shape-rendering="crispEdges" /><rect width="20" height="10" x="230" y="160" fill="#ffffff" shape-rendering="crispEdges" /><rect width="40" height="10" x="70" y="170" fill="#ffffff" shape-rendering="crispEdges" /><rect width="10" height="10" x="110" y="170" fill="#e5e5de" shape-rendering="crispEdges" /><rect width="20" height="10" x="120" y="170" fill="#ffffff" shape-rendering="crispEdges" /><rect width="10" height="10" x="140" y="170" fill="#e5e5de" shape-rendering="crispEdges" /><rect width="20" height="10" x="150" y="170" fill="#ffffff" shape-rendering="crispEdges" /><rect width="10" height="10" x="170" y="170" fill="#e5e5de" shape-rendering="crispEdges" /><rect width="30" height="10" x="180" y="170" fill="#ffffff" shape-rendering="crispEdges" /><rect width="10" height="10" x="210" y="170" fill="#e5e5de" shape-rendering="crispEdges" /><rect width="30" height="10" x="220" y="170" fill="#ffffff" shape-rendering="crispEdges" /><rect width="30" height="10" x="80" y="180" fill="#ffffff" shape-rendering="crispEdges" /><rect width="10" height="10" x="110" y="180" fill="#e5e5de" shape-rendering="crispEdges" /><rect width="30" height="10" x="120" y="180" fill="#ffffff" shape-rendering="crispEdges" /><rect width="20" height="10" x="150" y="180" fill="#e5e5de" shape-rendering="crispEdges" /><rect width="70" height="10" x="170" y="180" fill="#ffffff" shape-rendering="crispEdges" /><rect width="10" height="10" x="250" y="180" fill="#ffffff" shape-rendering="crispEdges" /><rect width="30" height="10" x="70" y="190" fill="#ffffff" shape-rendering="crispEdges" /><rect width="10" height="10" x="100" y="190" fill="#e5e5de" shape-rendering="crispEdges" /><rect width="30" height="10" x="110" y="190" fill="#ffffff" shape-rendering="crispEdges" /><rect width="10" height="10" x="140" y="190" fill="#e5e5de" shape-rendering="crispEdges" /><rect width="20" height="10" x="150" y="190" fill="#ffffff" shape-rendering="crispEdges" /><rect width="10" height="10" x="170" y="190" fill="#e5e5de" shape-rendering="crispEdges" /><rect width="40" height="10" x="180" y="190" fill="#ffffff" shape-rendering="crispEdges" /><rect width="10" height="10" x="220" y="190" fill="#e5e5de" shape-rendering="crispEdges" /><rect width="10" height="10" x="230" y="190" fill="#ffffff" shape-rendering="crispEdges" /><rect width="10" height="10" x="90" y="200" fill="#e5e5de" shape-rendering="crispEdges" /><rect width="130" height="10" x="100" y="200" fill="#ffffff" shape-rendering="crispEdges" /><rect width="80" height="10" x="110" y="210" fill="#ffffff" shape-rendering="crispEdges" /><rect width="10" height="10" x="190" y="210" fill="#e5e5de" shape-rendering="crispEdges" /><rect width="10" height="10" x="200" y="210" fill="#ffffff" shape-rendering="crispEdges" /><rect width="10" height="10" x="130" y="220" fill="#ffffff" shape-rendering="crispEdges" /><rect width="10" height="10" x="140" y="220" fill="#e5e5de" shape-rendering="crispEdges" /><rect width="30" height="10" x="150" y="220" fill="#ffffff" shape-rendering="crispEdges" /><rect width="10" height="10" x="180" y="220" fill="#e5e5de" shape-rendering="crispEdges" /></svg>