<svg width="320" height="320" viewBox="0 0 320 320" xmlns="http://www.w3.org/2000/svg" shape-rendering="crispEdges"><rect width="100%" height="100%" fill="none" /><rect width="10" height="10" x="160" y="20" fill="#962236" shape-rendering="crispEdges" /><rect width="10" height="10" x="140" y="30" fill="#e9265c" shape-rendering="crispEdges" /><rect width="20" height="10" x="160" y="30" fill="#962236" shape-rendering="crispEdges" /><rect width="20" height="10" x="130" y="40" fill="#e9265c" shape-rendering="crispEdges" /><rect width="40" height="10" x="150" y="40" fill="#962236" shape-rendering="crispEdges" /><rect width="40" height="10" x="110" y="50" fill="#e9265c" shape-rendering="crispEdges" /><rect width="60" height="10" x="150" y="50" fill="#962236" shape-rendering="crispEdges" /><rect width="40" height="10" x="100" y="60" fill="#e9265c" shape-rendering="crispEdges" /><rect width="80" height="10" x="140" y="60" fill="#962236" shape-rendering="crispEdges" /><rect width="50" height="10" x="90" y="70" fill="#e9265c" shape-rendering="crispEdges" /><rect width="90" height="10" x="140" y="70" fill="#962236" shape-rendering="crispEdges" /><rect width="60" height="10" x="80" y="80" fill="#e9265c" shape-rendering="crispEdges" /><rect width="100" height="10" x="140" y="80" fill="#962236" shape-rendering="crispEdges" /><rect width="50" height="10" x="80" y="90" fill="#e9265c" shape-rendering="crispEdges" /><rect width="110" height="10" x="130" y="90" fill="#962236" shape-rendering="crispEdges" /><rect width="60" height="10" x="70" y="100" fill="#e9265c" shape-rendering="crispEdges" /><rect width="30" height="10" x="130" y="100" fill="#962236" shape-rendering="crispEdges" /><rect width="10" height="10" x="160" y="100" fill="#34ac80" shape-rendering="crispEdges" /><rect width="80" height="10" x="170" y="100" fill="#962236" shape-rendering="crispEdges" /><rect width="60" height="10" x="70" y="110" fill="#e9265c" shape-rendering="crispEdges" /><rect width="30" height="10" x="130" y="110" fill="#962236" shape-rendering="crispEdges" /><rect width="10" height="10" x="160" y="110" fill="#34ac80" shape-rendering="crispEdges" /><rect width="80" height="10" x="170" y="110" fill="#962236" shape-rendering="crispEdges" /><rect width="10" height="10" x="40" y="120" fill="#34ac80" shape-rendering="crispEdges" /><rect width="60" height="10" x="70" y="120" fill="#e9265c" shape-rendering="crispEdges" /><rect width="20" height="10" x="130" y="120" fill="#962236" shape-rendering="crispEdges" /><rect width="20" height="10" x="150" y="120" fill="#34ac80" shape-rendering="crispEdges" /><rect width="80" height="10" x="170" y="120" fill="#962236" shape-rendering="crispEdges" /><rect width="10" height="10" x="270" y="120" fill="#34ac80" shape-rendering="crispEdges" /><rect width="10" height="10" x="50" y="130" fill="#34ac80" shape-rendering="crispEdges" /><rect width="70" height="10" x="70" y="130" fill="#e9265c" shape-rendering="crispEdges" /><rect width="10" height="10" x="140" y="130" fill="#962236" shape-rendering="crispEdges" /><rect width="20" height="10" x="150" y="130" fill="#34ac80" shape-rendering="crispEdges" /><rect width="80" height="10" x="170" y="130" fill="#962236" shape-rendering="crispEdges" /><rect width="10" height="10" x="260" y="130" fill="#34ac80" shape-rendering="crispEdges" /><rect width="40" height="10" x="50" y="140" fill="#34ac80" shape-rendering="crispEdges" /><rect width="50" height="10" x="90" y="140" fill="#e9265c" shape-rendering="crispEdges" /><rect width="10" height="10" x="140" y="140" fill="#962236" shape-rendering="crispEdges" /><rect width="20" height="10" x="150" y="140" fill="#34ac80" shape-rendering="crispEdges" /><rect width="60" height="10" x="170" y="140" fill="#962236" shape-rendering="crispEdges" /><rect width="40" height="10" x="230" y="140" fill="#34ac80" shape-rendering="crispEdges" /><rect width="50" height="10" x="60" y="150" fill="#34ac80" shape-rendering="crispEdges" /><rect width="30" height="10" x="110" y="150" fill="#e9265c" shape-rendering="crispEdges" /><rect width="10" height="10" x="140" y="150" fill="#962236" shape-rendering="crispEdges" /><rect width="20" height="10" x="150" y="150" fill="#34ac80" shape-rendering="crispEdges" /><rect width="40" height="10" x="170" y="150" fill="#962236" shape-rendering="crispEdges" /><rect width="50" height="10" x="210" y="150" fill="#34ac80" shape-rendering="crispEdges" /><rect width="50" height="10" x="70" y="160" fill="#34ac80" shape-rendering="crispEdges" /><rect width="20" height="10" x="120" y="160" fill="#e9265c" shape-rendering="crispEdges" /><rect width="40" height="10" x="140" y="160" fill="#34ac80" shape-rendering="crispEdges" /><rect width="20" height="10" x="180" y="160" fill="#962236" shape-rendering="crispEdges" /><rect width="50" height="10" x="200" y="160" fill="#34ac80" shape-rendering="crispEdges" /><rect width="40" height="10" x="80" y="170" fill="#34ac80" shape-rendering="crispEdges" /><rect width="10" height="10" x="120" y="170" fill="#e9265c" shape-rendering="crispEdges" /><rect width="10" height="10" x="130" y="170" fill="#34ac80" shape-rendering="crispEdges" /><rect width="10" height="10" x="140" y="170" fill="#000000" shape-rendering="crispEdges" /><rect width="20" height="10" x="150" y="170" fill="#34ac80" shape-rendering="crispEdges" /><rect width="10" height="10" x="170" y="170" fill="#000000" shape-rendering="crispEdges" /><rect width="10" height="10" x="180" y="170" fill="#34ac80" shape-rendering="crispEdges" /><rect width="10" height="10" x="190" y="170" fill="#962236" shape-rendering="crispEdges" /><rect width="40" height="10" x="200" y="170" fill="#34ac80" shape-rendering="crispEdges" /><rect width="30" height="10" x="90" y="180" fill="#34ac80" shape-rendering="crispEdges" /><rect width="10" height="10" x="120" y="180" fill="#e9265c" shape-rendering="crispEdges" /><rect width="20" height="10" x="130" y="180" fill="#34ac80" shape-rendering="crispEdges" /><rect width="20" height="10" x="150" y="180" fill="#000000" shape-rendering="crispEdges" /><rect width="20" height="10" x="170" y="180" fill="#34ac80" shape-rendering="crispEdges" /><rect width="10" height="10" x="190" y="180" fill="#962236" shape-rendering="crispEdges" /><rect width="30" height="10" x="200" y="180" fill="#34ac80" shape-rendering="crispEdges" /><rect width="120" height="10" x="100" y="190" fill="#34ac80" shape-rendering="crispEdges" /><rect width="120" height="10" x="100" y="200" fill="#34ac80" shape-rendering="crispEdges" /></svg>