<svg width="320" height="320" viewBox="0 0 320 320" xmlns="http://www.w3.org/2000/svg" shape-rendering="crispEdges"><rect width="100%" height="100%" fill="none" /><rect width="30" height="10" x="70" y="60" fill="#d22209" shape-rendering="crispEdges" /><rect width="50" height="10" x="60" y="70" fill="#d22209" shape-rendering="crispEdges" /><rect width="60" height="10" x="60" y="80" fill="#d22209" shape-rendering="crispEdges" /><rect width="80" height="10" x="50" y="90" fill="#d22209" shape-rendering="crispEdges" /><rect width="80" height="10" x="50" y="100" fill="#d22209" shape-rendering="crispEdges" /><rect width="80" height="10" x="50" y="110" fill="#d22209" shape-rendering="crispEdges" /><rect width="80" height="10" x="50" y="120" fill="#d22209" shape-rendering="crispEdges" /><rect width="90" height="10" x="50" y="130" fill="#d22209" shape-rendering="crispEdges" /><rect width="110" height="10" x="50" y="140" fill="#d22209" shape-rendering="crispEdges" /><rect width="120" height="10" x="60" y="150" fill="#d22209" shape-rendering="crispEdges" /><rect width="40" height="10" x="70" y="160" fill="#d22209" shape-rendering="crispEdges" /><rect width="80" height="10" x="130" y="160" fill="#d22209" shape-rendering="crispEdges" /><rect width="20" height="10" x="80" y="170" fill="#d22209" shape-rendering="crispEdges" /><rect width="90" height="10" x="140" y="170" fill="#d22209" shape-rendering="crispEdges" /><rect width="20" height="10" x="80" y="180" fill="#d22209" shape-rendering="crispEdges" /><rect width="100" height="10" x="150" y="180" fill="#d22209" shape-rendering="crispEdges" /><rect width="20" height="10" x="80" y="190" fill="#d22209" shape-rendering="crispEdges" /><rect width="30" height="10" x="160" y="190" fill="#d22209" shape-rendering="crispEdges" /><rect width="40" height="10" x="190" y="190" fill="#000000" shape-rendering="crispEdges" /><rect width="40" height="10" x="230" y="190" fill="#d22209" shape-rendering="crispEdges" /><rect width="20" height="10" x="80" y="200" fill="#eab118" shape-rendering="crispEdges" /><rect width="100" height="10" x="170" y="200" fill="#eab118" shape-rendering="crispEdges" /></svg>