<svg width="320" height="320" viewBox="0 0 320 320" xmlns="http://www.w3.org/2000/svg" shape-rendering="crispEdges"><rect width="100%" height="100%" fill="none" /><rect width="10" height="10" x="180" y="20" fill="#552e05" shape-rendering="crispEdges" /><rect width="10" height="10" x="180" y="30" fill="#552e05" shape-rendering="crispEdges" /><rect width="10" height="10" x="240" y="30" fill="#552e05" shape-rendering="crispEdges" /><rect width="10" height="10" x="170" y="40" fill="#552e05" shape-rendering="crispEdges" /><rect width="20" height="10" x="220" y="40" fill="#552e05" shape-rendering="crispEdges" /><rect width="10" height="10" x="70" y="50" fill="#049d43" shape-rendering="crispEdges" /><rect width="10" height="10" x="90" y="50" fill="#049d43" shape-rendering="crispEdges" /><rect width="10" height="10" x="110" y="50" fill="#049d43" shape-rendering="crispEdges" /><rect width="10" height="10" x="170" y="50" fill="#552e05" shape-rendering="crispEdges" /><rect width="20" height="10" x="200" y="50" fill="#552e05" shape-rendering="crispEdges" /><rect width="10" height="10" x="60" y="60" fill="#049d43" shape-rendering="crispEdges" /><rect width="10" height="10" x="70" y="60" fill="#0b5027" shape-rendering="crispEdges" /><rect width="10" height="10" x="80" y="60" fill="#049d43" shape-rendering="crispEdges" /><rect width="10" height="10" x="90" y="60" fill="#0b5027" shape-rendering="crispEdges" /><rect width="10" height="10" x="100" y="60" fill="#049d43" shape-rendering="crispEdges" /><rect width="10" height="10" x="110" y="60" fill="#0b5027" shape-rendering="crispEdges" /><rect width="10" height="10" x="120" y="60" fill="#049d43" shape-rendering="crispEdges" /><rect width="20" height="10" x="150" y="60" fill="#a86f60" shape-rendering="crispEdges" /><rect width="30" height="10" x="170" y="60" fill="#f8ddb0" shape-rendering="crispEdges" /><rect width="30" height="10" x="200" y="60" fill="#fd8b5b" shape-rendering="crispEdges" /><rect width="10" height="10" x="50" y="70" fill="#049d43" shape-rendering="crispEdges" /><rect width="10" height="10" x="60" y="70" fill="#0b5027" shape-rendering="crispEdges" /><rect width="10" height="10" x="70" y="70" fill="#049d43" shape-rendering="crispEdges" /><rect width="20" height="10" x="80" y="70" fill="#0b5027" shape-rendering="crispEdges" /><rect width="30" height="10" x="100" y="70" fill="#fd8b5b" shape-rendering="crispEdges" /><rect width="30" height="10" x="130" y="70" fill="#a86f60" shape-rendering="crispEdges" /><rect width="60" height="10" x="160" y="70" fill="#f8ddb0" shape-rendering="crispEdges" /><rect width="20" height="10" x="220" y="70" fill="#fd8b5b" shape-rendering="crispEdges" /><rect width="10" height="10" x="40" y="80" fill="#049d43" shape-rendering="crispEdges" /><rect width="10" height="10" x="50" y="80" fill="#0b5027" shape-rendering="crispEdges" /><rect width="10" height="10" x="60" y="80" fill="#049d43" shape-rendering="crispEdges" /><rect width="20" height="10" x="70" y="80" fill="#0b5027" shape-rendering="crispEdges" /><rect width="20" height="10" x="90" y="80" fill="#fd8b5b" shape-rendering="crispEdges" /><rect width="40" height="10" x="110" y="80" fill="#e9265c" shape-rendering="crispEdges" /><rect width="30" height="10" x="150" y="80" fill="#f8ddb0" shape-rendering="crispEdges" /><rect width="30" height="10" x="180" y="80" fill="#ffa21e" shape-rendering="crispEdges" /><rect width="20" height="10" x="210" y="80" fill="#f8ddb0" shape-rendering="crispEdges" /><rect width="10" height="10" x="230" y="80" fill="#fd8b5b" shape-rendering="crispEdges" /><rect width="20" height="10" x="240" y="80" fill="#a86f60" shape-rendering="crispEdges" /><rect width="10" height="10" x="40" y="90" fill="#049d43" shape-rendering="crispEdges" /><rect width="10" height="10" x="50" y="90" fill="#0b5027" shape-rendering="crispEdges" /><rect width="10" height="10" x="60" y="90" fill="#049d43" shape-rendering="crispEdges" /><rect width="10" height="10" x="70" y="90" fill="#0b5027" shape-rendering="crispEdges" /><rect width="20" height="10" x="80" y="90" fill="#fd8b5b" shape-rendering="crispEdges" /><rect width="60" height="10" x="100" y="90" fill="#e9265c" shape-rendering="crispEdges" /><rect width="10" height="10" x="160" y="90" fill="#f8ddb0" shape-rendering="crispEdges" /><rect width="10" height="10" x="170" y="90" fill="#ffa21e" shape-rendering="crispEdges" /><rect width="30" height="10" x="180" y="90" fill="#ffc925" shape-rendering="crispEdges" /><rect width="10" height="10" x="210" y="90" fill="#ffa21e" shape-rendering="crispEdges" /><rect width="10" height="10" x="220" y="90" fill="#f8ddb0" shape-rendering="crispEdges" /><rect width="10" height="10" x="230" y="90" fill="#fd8b5b" shape-rendering="crispEdges" /><rect width="30" height="10" x="240" y="90" fill="#a86f60" shape-rendering="crispEdges" /><rect width="280" height="10" x="20" y="100" fill="#fffdf2" shape-rendering="crispEdges" /><rect width="260" height="10" x="30" y="110" fill="#fffdf2" shape-rendering="crispEdges" /><rect width="260" height="10" x="30" y="120" fill="#b92b3c" shape-rendering="crispEdges" /><rect width="240" height="10" x="40" y="130" fill="#b92b3c" shape-rendering="crispEdges" /><rect width="240" height="10" x="40" y="140" fill="#fffdf2" shape-rendering="crispEdges" /><rect width="220" height="10" x="50" y="150" fill="#b92b3c" shape-rendering="crispEdges" /><rect width="220" height="10" x="50" y="160" fill="#fffdf2" shape-rendering="crispEdges" /><rect width="200" height="10" x="60" y="170" fill="#fffdf2" shape-rendering="crispEdges" /><rect width="70" height="10" x="70" y="180" fill="#fffdf2" shape-rendering="crispEdges" /><rect width="70" height="10" x="140" y="180" fill="#b92b3c" shape-rendering="crispEdges" /><rect width="40" height="10" x="210" y="180" fill="#fffdf2" shape-rendering="crispEdges" /><rect width="160" height="10" x="80" y="190" fill="#fffdf2" shape-rendering="crispEdges" /><rect width="120" height="10" x="100" y="200" fill="#fffdf2" shape-rendering="crispEdges" /></svg>