<svg width="320" height="320" viewBox="0 0 320 320" xmlns="http://www.w3.org/2000/svg" shape-rendering="crispEdges"><rect width="100%" height="100%" fill="none" /><rect width="60" height="10" x="140" y="40" fill="#ffffff" shape-rendering="crispEdges" /><rect width="50" height="10" x="120" y="50" fill="#ffffff" shape-rendering="crispEdges" /><rect width="160" height="10" x="70" y="60" fill="#ffffff" shape-rendering="crispEdges" /><rect width="170" height="10" x="70" y="70" fill="#ffffff" shape-rendering="crispEdges" /><rect width="170" height="10" x="70" y="80" fill="#ffffff" shape-rendering="crispEdges" /><rect width="170" height="10" x="70" y="90" fill="#ffffff" shape-rendering="crispEdges" /><rect width="170" height="10" x="70" y="100" fill="#ffffff" shape-rendering="crispEdges" /><rect width="170" height="10" x="70" y="110" fill="#ffffff" shape-rendering="crispEdges" /><rect width="170" height="10" x="70" y="120" fill="#ffffff" shape-rendering="crispEdges" /><rect width="170" height="10" x="70" y="130" fill="#ffffff" shape-rendering="crispEdges" /><rect width="170" height="10" x="70" y="140" fill="#ffffff" shape-rendering="crispEdges" /><rect width="170" height="10" x="70" y="150" fill="#ffffff" shape-rendering="crispEdges" /><rect width="170" height="10" x="70" y="160" fill="#ffffff" shape-rendering="crispEdges" /><rect width="50" height="10" x="70" y="170" fill="#ffffff" shape-rendering="crispEdges" /><rect width="160" height="10" x="120" y="170" fill="#ffc925" shape-rendering="crispEdges" /><rect width="50" height="10" x="70" y="180" fill="#ffffff" shape-rendering="crispEdges" /><rect width="40" height="10" x="120" y="180" fill="#ffc925" shape-rendering="crispEdges" /><rect width="10" height="10" x="160" y="180" fill="#f78a18" shape-rendering="crispEdges" /><rect width="10" height="10" x="170" y="180" fill="#ffc925" shape-rendering="crispEdges" /><rect width="10" height="10" x="180" y="180" fill="#f78a18" shape-rendering="crispEdges" /><rect width="100" height="10" x="190" y="180" fill="#ffc925" shape-rendering="crispEdges" /><rect width="50" height="10" x="70" y="190" fill="#ffffff" shape-rendering="crispEdges" /><rect width="170" height="10" x="120" y="190" fill="#ffc925" shape-rendering="crispEdges" /><rect width="50" height="10" x="80" y="200" fill="#ffffff" shape-rendering="crispEdges" /><rect width="160" height="10" x="130" y="200" fill="#ffc925" shape-rendering="crispEdges" /></svg>