<svg width="320" height="320" viewBox="0 0 320 320" xmlns="http://www.w3.org/2000/svg" shape-rendering="crispEdges"><rect width="100%" height="100%" fill="none" /><rect width="80" height="10" x="90" y="40" fill="#1f1d29" shape-rendering="crispEdges" /><rect width="70" height="10" x="120" y="50" fill="#1f1d29" shape-rendering="crispEdges" /><rect width="120" height="10" x="90" y="60" fill="#1f1d29" shape-rendering="crispEdges" /><rect width="120" height="10" x="100" y="70" fill="#1f1d29" shape-rendering="crispEdges" /><rect width="140" height="10" x="90" y="80" fill="#1f1d29" shape-rendering="crispEdges" /><rect width="140" height="10" x="90" y="90" fill="#1f1d29" shape-rendering="crispEdges" /><rect width="150" height="10" x="90" y="100" fill="#1f1d29" shape-rendering="crispEdges" /><rect width="160" height="10" x="80" y="110" fill="#1f1d29" shape-rendering="crispEdges" /><rect width="160" height="10" x="80" y="120" fill="#1f1d29" shape-rendering="crispEdges" /><rect width="160" height="10" x="80" y="130" fill="#1f1d29" shape-rendering="crispEdges" /><rect width="160" height="10" x="80" y="140" fill="#1f1d29" shape-rendering="crispEdges" /><rect width="90" height="10" x="80" y="150" fill="#1f1d29" shape-rendering="crispEdges" /><rect width="70" height="10" x="170" y="150" fill="#343235" shape-rendering="crispEdges" /><rect width="80" height="10" x="80" y="160" fill="#1f1d29" shape-rendering="crispEdges" /><rect width="120" height="10" x="160" y="160" fill="#343235" shape-rendering="crispEdges" /><rect width="70" height="10" x="80" y="170" fill="#1f1d29" shape-rendering="crispEdges" /><rect width="150" height="10" x="150" y="170" fill="#343235" shape-rendering="crispEdges" /><rect width="70" height="10" x="80" y="180" fill="#1f1d29" shape-rendering="crispEdges" /><rect width="150" height="10" x="150" y="180" fill="#343235" shape-rendering="crispEdges" /><rect width="70" height="10" x="80" y="190" fill="#1f1d29" shape-rendering="crispEdges" /><rect width="130" height="10" x="150" y="190" fill="#343235" shape-rendering="crispEdges" /><rect width="80" height="10" x="80" y="200" fill="#1f1d29" shape-rendering="crispEdges" /><rect width="90" height="10" x="160" y="200" fill="#343235" shape-rendering="crispEdges" /></svg>