<svg width="320" height="320" viewBox="0 0 320 320" xmlns="http://www.w3.org/2000/svg" shape-rendering="crispEdges"><rect width="100%" height="100%" fill="none" /><rect width="250" height="10" x="40" y="90" fill="#5a423f" shape-rendering="crispEdges" /><rect width="10" height="10" x="40" y="100" fill="#5a423f" shape-rendering="crispEdges" /><rect width="170" height="10" x="50" y="100" fill="#7d635e" shape-rendering="crispEdges" /><rect width="10" height="10" x="220" y="100" fill="#5a423f" shape-rendering="crispEdges" /><rect width="50" height="10" x="230" y="100" fill="#f3322c" shape-rendering="crispEdges" /><rect width="10" height="10" x="280" y="100" fill="#5a423f" shape-rendering="crispEdges" /><rect width="10" height="10" x="40" y="110" fill="#5a423f" shape-rendering="crispEdges" /><rect width="10" height="10" x="50" y="110" fill="#7d635e" shape-rendering="crispEdges" /><rect width="150" height="10" x="60" y="110" fill="#5a423f" shape-rendering="crispEdges" /><rect width="10" height="10" x="210" y="110" fill="#7d635e" shape-rendering="crispEdges" /><rect width="10" height="10" x="220" y="110" fill="#5a423f" shape-rendering="crispEdges" /><rect width="50" height="10" x="230" y="110" fill="#f3322c" shape-rendering="crispEdges" /><rect width="10" height="10" x="280" y="110" fill="#5a423f" shape-rendering="crispEdges" /><rect width="10" height="10" x="40" y="120" fill="#5a423f" shape-rendering="crispEdges" /><rect width="10" height="10" x="50" y="120" fill="#7d635e" shape-rendering="crispEdges" /><rect width="150" height="10" x="60" y="120" fill="#5a423f" shape-rendering="crispEdges" /><rect width="10" height="10" x="210" y="120" fill="#7d635e" shape-rendering="crispEdges" /><rect width="70" height="10" x="220" y="120" fill="#5a423f" shape-rendering="crispEdges" /><rect width="10" height="10" x="40" y="130" fill="#5a423f" shape-rendering="crispEdges" /><rect width="10" height="10" x="50" y="130" fill="#7d635e" shape-rendering="crispEdges" /><rect width="150" height="10" x="60" y="130" fill="#5a423f" shape-rendering="crispEdges" /><rect width="10" height="10" x="210" y="130" fill="#7d635e" shape-rendering="crispEdges" /><rect width="10" height="10" x="220" y="130" fill="#5a423f" shape-rendering="crispEdges" /><rect width="10" height="10" x="230" y="130" fill="#f3322c" shape-rendering="crispEdges" /><rect width="10" height="10" x="240" y="130" fill="#5a423f" shape-rendering="crispEdges" /><rect width="10" height="10" x="250" y="130" fill="#f3322c" shape-rendering="crispEdges" /><rect width="10" height="10" x="260" y="130" fill="#5a423f" shape-rendering="crispEdges" /><rect width="10" height="10" x="270" y="130" fill="#f3322c" shape-rendering="crispEdges" /><rect width="10" height="10" x="280" y="130" fill="#5a423f" shape-rendering="crispEdges" /><rect width="10" height="10" x="40" y="140" fill="#5a423f" shape-rendering="crispEdges" /><rect width="10" height="10" x="50" y="140" fill="#7d635e" shape-rendering="crispEdges" /><rect width="150" height="10" x="60" y="140" fill="#5a423f" shape-rendering="crispEdges" /><rect width="10" height="10" x="210" y="140" fill="#7d635e" shape-rendering="crispEdges" /><rect width="70" height="10" x="220" y="140" fill="#5a423f" shape-rendering="crispEdges" /><rect width="10" height="10" x="40" y="150" fill="#5a423f" shape-rendering="crispEdges" /><rect width="10" height="10" x="50" y="150" fill="#7d635e" shape-rendering="crispEdges" /><rect width="150" height="10" x="60" y="150" fill="#5a423f" shape-rendering="crispEdges" /><rect width="10" height="10" x="210" y="150" fill="#7d635e" shape-rendering="crispEdges" /><rect width="10" height="10" x="220" y="150" fill="#5a423f" shape-rendering="crispEdges" /><rect width="10" height="10" x="230" y="150" fill="#f3322c" shape-rendering="crispEdges" /><rect width="10" height="10" x="240" y="150" fill="#5a423f" shape-rendering="crispEdges" /><rect width="10" height="10" x="250" y="150" fill="#f3322c" shape-rendering="crispEdges" /><rect width="10" height="10" x="260" y="150" fill="#5a423f" shape-rendering="crispEdges" /><rect width="10" height="10" x="270" y="150" fill="#f3322c" shape-rendering="crispEdges" /><rect width="10" height="10" x="280" y="150" fill="#5a423f" shape-rendering="crispEdges" /><rect width="10" height="10" x="40" y="160" fill="#5a423f" shape-rendering="crispEdges" /><rect width="10" height="10" x="50" y="160" fill="#7d635e" shape-rendering="crispEdges" /><rect width="10" height="10" x="60" y="160" fill="#5a423f" shape-rendering="crispEdges" /><rect width="10" height="10" x="70" y="160" fill="#d6c3be" shape-rendering="crispEdges" /><rect width="130" height="10" x="80" y="160" fill="#5a423f" shape-rendering="crispEdges" /><rect width="10" height="10" x="210" y="160" fill="#7d635e" shape-rendering="crispEdges" /><rect width="70" height="10" x="220" y="160" fill="#5a423f" shape-rendering="crispEdges" /><rect width="10" height="10" x="40" y="170" fill="#5a423f" shape-rendering="crispEdges" /><rect width="10" height="10" x="50" y="170" fill="#7d635e" shape-rendering="crispEdges" /><rect width="10" height="10" x="60" y="170" fill="#d6c3be" shape-rendering="crispEdges" /><rect width="10" height="10" x="70" y="170" fill="#5a423f" shape-rendering="crispEdges" /><rect width="10" height="10" x="80" y="170" fill="#d6c3be" shape-rendering="crispEdges" /><rect width="120" height="10" x="90" y="170" fill="#5a423f" shape-rendering="crispEdges" /><rect width="10" height="10" x="210" y="170" fill="#7d635e" shape-rendering="crispEdges" /><rect width="10" height="10" x="220" y="170" fill="#5a423f" shape-rendering="crispEdges" /><rect width="10" height="10" x="230" y="170" fill="#f3322c" shape-rendering="crispEdges" /><rect width="10" height="10" x="240" y="170" fill="#5a423f" shape-rendering="crispEdges" /><rect width="10" height="10" x="250" y="170" fill="#f3322c" shape-rendering="crispEdges" /><rect width="10" height="10" x="260" y="170" fill="#5a423f" shape-rendering="crispEdges" /><rect width="10" height="10" x="270" y="170" fill="#f3322c" shape-rendering="crispEdges" /><rect width="10" height="10" x="280" y="170" fill="#5a423f" shape-rendering="crispEdges" /><rect width="10" height="10" x="40" y="180" fill="#5a423f" shape-rendering="crispEdges" /><rect width="10" height="10" x="50" y="180" fill="#7d635e" shape-rendering="crispEdges" /><rect width="10" height="10" x="60" y="180" fill="#5a423f" shape-rendering="crispEdges" /><rect width="10" height="10" x="70" y="180" fill="#d6c3be" shape-rendering="crispEdges" /><rect width="20" height="10" x="80" y="180" fill="#5a423f" shape-rendering="crispEdges" /><rect width="10" height="10" x="100" y="180" fill="#ffffff" shape-rendering="crispEdges" /><rect width="10" height="10" x="110" y="180" fill="#000000" shape-rendering="crispEdges" /><rect width="10" height="10" x="120" y="180" fill="#ffffff" shape-rendering="crispEdges" /><rect width="10" height="10" x="130" y="180" fill="#000000" shape-rendering="crispEdges" /><rect width="10" height="10" x="140" y="180" fill="#ffffff" shape-rendering="crispEdges" /><rect width="10" height="10" x="150" y="180" fill="#000000" shape-rendering="crispEdges" /><rect width="10" height="10" x="160" y="180" fill="#ffffff" shape-rendering="crispEdges" /><rect width="10" height="10" x="170" y="180" fill="#000000" shape-rendering="crispEdges" /><rect width="30" height="10" x="180" y="180" fill="#5a423f" shape-rendering="crispEdges" /><rect width="10" height="10" x="210" y="180" fill="#7d635e" shape-rendering="crispEdges" /><rect width="70" height="10" x="220" y="180" fill="#5a423f" shape-rendering="crispEdges" /><rect width="10" height="10" x="40" y="190" fill="#5a423f" shape-rendering="crispEdges" /><rect width="170" height="10" x="50" y="190" fill="#7d635e" shape-rendering="crispEdges" /><rect width="10" height="10" x="220" y="190" fill="#5a423f" shape-rendering="crispEdges" /><rect width="10" height="10" x="230" y="190" fill="#d6c3be" shape-rendering="crispEdges" /><rect width="10" height="10" x="240" y="190" fill="#5a423f" shape-rendering="crispEdges" /><rect width="10" height="10" x="250" y="190" fill="#f3322c" shape-rendering="crispEdges" /><rect width="10" height="10" x="260" y="190" fill="#5a423f" shape-rendering="crispEdges" /><rect width="10" height="10" x="270" y="190" fill="#d6c3be" shape-rendering="crispEdges" /><rect width="10" height="10" x="280" y="190" fill="#5a423f" shape-rendering="crispEdges" /><rect width="250" height="10" x="40" y="200" fill="#5a423f" shape-rendering="crispEdges" /></svg>