<svg width="320" height="320" viewBox="0 0 320 320" xmlns="http://www.w3.org/2000/svg" shape-rendering="crispEdges"><rect width="100%" height="100%" fill="none" /><rect width="20" height="10" x="120" y="50" fill="#fff0be" shape-rendering="crispEdges" /><rect width="20" height="10" x="150" y="50" fill="#fff0be" shape-rendering="crispEdges" /><rect width="20" height="10" x="180" y="50" fill="#fff0be" shape-rendering="crispEdges" /><rect width="20" height="10" x="120" y="60" fill="#fff0be" shape-rendering="crispEdges" /><rect width="10" height="10" x="140" y="60" fill="#cd916d" shape-rendering="crispEdges" /><rect width="20" height="10" x="150" y="60" fill="#fff0be" shape-rendering="crispEdges" /><rect width="10" height="10" x="170" y="60" fill="#cd916d" shape-rendering="crispEdges" /><rect width="20" height="10" x="180" y="60" fill="#fff0be" shape-rendering="crispEdges" /><rect width="20" height="10" x="110" y="70" fill="#fff0be" shape-rendering="crispEdges" /><rect width="10" height="10" x="130" y="70" fill="#cd916d" shape-rendering="crispEdges" /><rect width="20" height="10" x="140" y="70" fill="#fff0be" shape-rendering="crispEdges" /><rect width="10" height="10" x="160" y="70" fill="#cd916d" shape-rendering="crispEdges" /><rect width="20" height="10" x="170" y="70" fill="#fff0be" shape-rendering="crispEdges" /><rect width="10" height="10" x="190" y="70" fill="#cd916d" shape-rendering="crispEdges" /><rect width="10" height="10" x="200" y="70" fill="#fff0be" shape-rendering="crispEdges" /><rect width="10" height="10" x="110" y="80" fill="#fff0be" shape-rendering="crispEdges" /><rect width="10" height="10" x="120" y="80" fill="#cd916d" shape-rendering="crispEdges" /><rect width="20" height="10" x="130" y="80" fill="#fff0be" shape-rendering="crispEdges" /><rect width="10" height="10" x="150" y="80" fill="#cd916d" shape-rendering="crispEdges" /><rect width="20" height="10" x="160" y="80" fill="#fff0be" shape-rendering="crispEdges" /><rect width="10" height="10" x="180" y="80" fill="#cd916d" shape-rendering="crispEdges" /><rect width="20" height="10" x="190" y="80" fill="#fff0be" shape-rendering="crispEdges" /><rect width="140" height="10" x="90" y="90" fill="#fff0be" shape-rendering="crispEdges" /><rect width="140" height="10" x="90" y="100" fill="#fff0be" shape-rendering="crispEdges" /><rect width="160" height="10" x="80" y="110" fill="#fff0be" shape-rendering="crispEdges" /><rect width="160" height="10" x="80" y="120" fill="#fff0be" shape-rendering="crispEdges" /><rect width="160" height="10" x="80" y="130" fill="#fff0be" shape-rendering="crispEdges" /><rect width="180" height="10" x="70" y="140" fill="#fff0be" shape-rendering="crispEdges" /><rect width="180" height="10" x="70" y="150" fill="#fff0be" shape-rendering="crispEdges" /><rect width="180" height="10" x="70" y="160" fill="#fff0be" shape-rendering="crispEdges" /><rect width="180" height="10" x="70" y="170" fill="#fff0be" shape-rendering="crispEdges" /><rect width="90" height="10" x="70" y="180" fill="#fff0be" shape-rendering="crispEdges" /><rect width="30" height="10" x="160" y="180" fill="#efad81" shape-rendering="crispEdges" /><rect width="60" height="10" x="190" y="180" fill="#fff0be" shape-rendering="crispEdges" /><rect width="180" height="10" x="70" y="190" fill="#fff0be" shape-rendering="crispEdges" /><rect width="160" height="10" x="80" y="200" fill="#fff0be" shape-rendering="crispEdges" /></svg>