<svg width="320" height="320" viewBox="0 0 320 320" xmlns="http://www.w3.org/2000/svg" shape-rendering="crispEdges"><rect width="100%" height="100%" fill="none" /><rect width="20" height="10" x="60" y="40" fill="#b8ced2" shape-rendering="crispEdges" /><rect width="20" height="10" x="100" y="40" fill="#b8ced2" shape-rendering="crispEdges" /><rect width="20" height="10" x="140" y="40" fill="#b8ced2" shape-rendering="crispEdges" /><rect width="20" height="10" x="180" y="40" fill="#b8ced2" shape-rendering="crispEdges" /><rect width="20" height="10" x="220" y="40" fill="#b8ced2" shape-rendering="crispEdges" /><rect width="20" height="10" x="50" y="50" fill="#ffffff" shape-rendering="crispEdges" /><rect width="10" height="10" x="70" y="50" fill="#b8ced2" shape-rendering="crispEdges" /><rect width="30" height="10" x="80" y="50" fill="#ffffff" shape-rendering="crispEdges" /><rect width="10" height="10" x="110" y="50" fill="#b8ced2" shape-rendering="crispEdges" /><rect width="30" height="10" x="120" y="50" fill="#ffffff" shape-rendering="crispEdges" /><rect width="10" height="10" x="150" y="50" fill="#b8ced2" shape-rendering="crispEdges" /><rect width="30" height="10" x="160" y="50" fill="#ffffff" shape-rendering="crispEdges" /><rect width="10" height="10" x="190" y="50" fill="#b8ced2" shape-rendering="crispEdges" /><rect width="30" height="10" x="200" y="50" fill="#ffffff" shape-rendering="crispEdges" /><rect width="10" height="10" x="230" y="50" fill="#b8ced2" shape-rendering="crispEdges" /><rect width="20" height="10" x="240" y="50" fill="#ffffff" shape-rendering="crispEdges" /><rect width="210" height="10" x="50" y="60" fill="#ffffff" shape-rendering="crispEdges" /><rect width="10" height="10" x="50" y="70" fill="#ffffff" shape-rendering="crispEdges" /><rect width="10" height="10" x="60" y="70" fill="#000000" shape-rendering="crispEdges" /><rect width="10" height="10" x="70" y="70" fill="#ffffff" shape-rendering="crispEdges" /><rect width="10" height="10" x="80" y="70" fill="#000000" shape-rendering="crispEdges" /><rect width="10" height="10" x="90" y="70" fill="#ffffff" shape-rendering="crispEdges" /><rect width="10" height="10" x="100" y="70" fill="#000000" shape-rendering="crispEdges" /><rect width="10" height="10" x="110" y="70" fill="#ffffff" shape-rendering="crispEdges" /><rect width="10" height="10" x="120" y="70" fill="#000000" shape-rendering="crispEdges" /><rect width="10" height="10" x="130" y="70" fill="#ffffff" shape-rendering="crispEdges" /><rect width="10" height="10" x="140" y="70" fill="#000000" shape-rendering="crispEdges" /><rect width="10" height="10" x="150" y="70" fill="#ffffff" shape-rendering="crispEdges" /><rect width="10" height="10" x="160" y="70" fill="#000000" shape-rendering="crispEdges" /><rect width="10" height="10" x="170" y="70" fill="#ffffff" shape-rendering="crispEdges" /><rect width="10" height="10" x="180" y="70" fill="#000000" shape-rendering="crispEdges" /><rect width="10" height="10" x="190" y="70" fill="#ffffff" shape-rendering="crispEdges" /><rect width="50" height="10" x="200" y="70" fill="#f39713" shape-rendering="crispEdges" /><rect width="10" height="10" x="250" y="70" fill="#ffffff" shape-rendering="crispEdges" /><rect width="150" height="10" x="50" y="80" fill="#ffffff" shape-rendering="crispEdges" /><rect width="20" height="10" x="200" y="80" fill="#f39713" shape-rendering="crispEdges" /><rect width="10" height="10" x="220" y="80" fill="#ffffff" shape-rendering="crispEdges" /><rect width="20" height="10" x="230" y="80" fill="#f39713" shape-rendering="crispEdges" /><rect width="10" height="10" x="250" y="80" fill="#ffffff" shape-rendering="crispEdges" /><rect width="10" height="10" x="50" y="90" fill="#ffffff" shape-rendering="crispEdges" /><rect width="130" height="10" x="60" y="90" fill="#e8e8e2" shape-rendering="crispEdges" /><rect width="10" height="10" x="190" y="90" fill="#ffffff" shape-rendering="crispEdges" /><rect width="10" height="10" x="200" y="90" fill="#f39713" shape-rendering="crispEdges" /><rect width="10" height="10" x="210" y="90" fill="#ffffff" shape-rendering="crispEdges" /><rect width="10" height="10" x="220" y="90" fill="#f39713" shape-rendering="crispEdges" /><rect width="10" height="10" x="230" y="90" fill="#ffffff" shape-rendering="crispEdges" /><rect width="10" height="10" x="240" y="90" fill="#f39713" shape-rendering="crispEdges" /><rect width="10" height="10" x="250" y="90" fill="#ffffff" shape-rendering="crispEdges" /><rect width="20" height="10" x="50" y="100" fill="#ffffff" shape-rendering="crispEdges" /><rect width="10" height="10" x="70" y="100" fill="#e8e8e2" shape-rendering="crispEdges" /><rect width="10" height="10" x="80" y="100" fill="#ffffff" shape-rendering="crispEdges" /><rect width="10" height="10" x="90" y="100" fill="#e8e8e2" shape-rendering="crispEdges" /><rect width="10" height="10" x="100" y="100" fill="#ffffff" shape-rendering="crispEdges" /><rect width="10" height="10" x="110" y="100" fill="#e8e8e2" shape-rendering="crispEdges" /><rect width="10" height="10" x="120" y="100" fill="#ffffff" shape-rendering="crispEdges" /><rect width="10" height="10" x="130" y="100" fill="#e8e8e2" shape-rendering="crispEdges" /><rect width="10" height="10" x="140" y="100" fill="#ffffff" shape-rendering="crispEdges" /><rect width="10" height="10" x="150" y="100" fill="#e8e8e2" shape-rendering="crispEdges" /><rect width="10" height="10" x="160" y="100" fill="#ffffff" shape-rendering="crispEdges" /><rect width="10" height="10" x="170" y="100" fill="#e8e8e2" shape-rendering="crispEdges" /><rect width="20" height="10" x="180" y="100" fill="#ffffff" shape-rendering="crispEdges" /><rect width="50" height="10" x="200" y="100" fill="#f39713" shape-rendering="crispEdges" /><rect width="10" height="10" x="250" y="100" fill="#ffffff" shape-rendering="crispEdges" /><rect width="10" height="10" x="50" y="110" fill="#ffffff" shape-rendering="crispEdges" /><rect width="130" height="10" x="60" y="110" fill="#e8e8e2" shape-rendering="crispEdges" /><rect width="10" height="10" x="190" y="110" fill="#ffffff" shape-rendering="crispEdges" /><rect width="50" height="10" x="200" y="110" fill="#f39713" shape-rendering="crispEdges" /><rect width="10" height="10" x="250" y="110" fill="#ffffff" shape-rendering="crispEdges" /><rect width="20" height="10" x="50" y="120" fill="#ffffff" shape-rendering="crispEdges" /><rect width="10" height="10" x="70" y="120" fill="#e8e8e2" shape-rendering="crispEdges" /><rect width="10" height="10" x="80" y="120" fill="#ffffff" shape-rendering="crispEdges" /><rect width="10" height="10" x="90" y="120" fill="#e8e8e2" shape-rendering="crispEdges" /><rect width="10" height="10" x="100" y="120" fill="#ffffff" shape-rendering="crispEdges" /><rect width="10" height="10" x="110" y="120" fill="#e8e8e2" shape-rendering="crispEdges" /><rect width="10" height="10" x="120" y="120" fill="#ffffff" shape-rendering="crispEdges" /><rect width="10" height="10" x="130" y="120" fill="#e8e8e2" shape-rendering="crispEdges" /><rect width="10" height="10" x="140" y="120" fill="#ffffff" shape-rendering="crispEdges" /><rect width="10" height="10" x="150" y="120" fill="#e8e8e2" shape-rendering="crispEdges" /><rect width="10" height="10" x="160" y="120" fill="#ffffff" shape-rendering="crispEdges" /><rect width="10" height="10" x="170" y="120" fill="#e8e8e2" shape-rendering="crispEdges" /><rect width="20" height="10" x="180" y="120" fill="#ffffff" shape-rendering="crispEdges" /><rect width="50" height="10" x="200" y="120" fill="#f39713" shape-rendering="crispEdges" /><rect width="10" height="10" x="250" y="120" fill="#ffffff" shape-rendering="crispEdges" /><rect width="10" height="10" x="50" y="130" fill="#ffffff" shape-rendering="crispEdges" /><rect width="130" height="10" x="60" y="130" fill="#e8e8e2" shape-rendering="crispEdges" /><rect width="10" height="10" x="190" y="130" fill="#ffffff" shape-rendering="crispEdges" /><rect width="50" height="10" x="200" y="130" fill="#f39713" shape-rendering="crispEdges" /><rect width="10" height="10" x="250" y="130" fill="#ffffff" shape-rendering="crispEdges" /><rect width="20" height="10" x="50" y="140" fill="#ffffff" shape-rendering="crispEdges" /><rect width="10" height="10" x="70" y="140" fill="#e8e8e2" shape-rendering="crispEdges" /><rect width="10" height="10" x="80" y="140" fill="#ffffff" shape-rendering="crispEdges" /><rect width="10" height="10" x="90" y="140" fill="#e8e8e2" shape-rendering="crispEdges" /><rect width="10" height="10" x="100" y="140" fill="#ffffff" shape-rendering="crispEdges" /><rect width="10" height="10" x="110" y="140" fill="#e8e8e2" shape-rendering="crispEdges" /><rect width="10" height="10" x="120" y="140" fill="#ffffff" shape-rendering="crispEdges" /><rect width="10" height="10" x="130" y="140" fill="#e8e8e2" shape-rendering="crispEdges" /><rect width="10" height="10" x="140" y="140" fill="#ffffff" shape-rendering="crispEdges" /><rect width="10" height="10" x="150" y="140" fill="#e8e8e2" shape-rendering="crispEdges" /><rect width="10" height="10" x="160" y="140" fill="#ffffff" shape-rendering="crispEdges" /><rect width="10" height="10" x="170" y="140" fill="#e8e8e2" shape-rendering="crispEdges" /><rect width="20" height="10" x="180" y="140" fill="#ffffff" shape-rendering="crispEdges" /><rect width="50" height="10" x="200" y="140" fill="#f39713" shape-rendering="crispEdges" /><rect width="10" height="10" x="250" y="140" fill="#ffffff" shape-rendering="crispEdges" /><rect width="10" height="10" x="50" y="150" fill="#ffffff" shape-rendering="crispEdges" /><rect width="130" height="10" x="60" y="150" fill="#e8e8e2" shape-rendering="crispEdges" /><rect width="10" height="10" x="190" y="150" fill="#ffffff" shape-rendering="crispEdges" /><rect width="50" height="10" x="200" y="150" fill="#f39713" shape-rendering="crispEdges" /><rect width="10" height="10" x="250" y="150" fill="#ffffff" shape-rendering="crispEdges" /><rect width="20" height="10" x="50" y="160" fill="#ffffff" shape-rendering="crispEdges" /><rect width="10" height="10" x="70" y="160" fill="#e8e8e2" shape-rendering="crispEdges" /><rect width="10" height="10" x="80" y="160" fill="#ffffff" shape-rendering="crispEdges" /><rect width="10" height="10" x="90" y="160" fill="#e8e8e2" shape-rendering="crispEdges" /><rect width="10" height="10" x="100" y="160" fill="#ffffff" shape-rendering="crispEdges" /><rect width="10" height="10" x="110" y="160" fill="#e8e8e2" shape-rendering="crispEdges" /><rect width="10" height="10" x="120" y="160" fill="#ffffff" shape-rendering="crispEdges" /><rect width="10" height="10" x="130" y="160" fill="#e8e8e2" shape-rendering="crispEdges" /><rect width="10" height="10" x="140" y="160" fill="#ffffff" shape-rendering="crispEdges" /><rect width="10" height="10" x="150" y="160" fill="#e8e8e2" shape-rendering="crispEdges" /><rect width="10" height="10" x="160" y="160" fill="#ffffff" shape-rendering="crispEdges" /><rect width="10" height="10" x="170" y="160" fill="#e8e8e2" shape-rendering="crispEdges" /><rect width="20" height="10" x="180" y="160" fill="#ffffff" shape-rendering="crispEdges" /><rect width="50" height="10" x="200" y="160" fill="#f39713" shape-rendering="crispEdges" /><rect width="10" height="10" x="250" y="160" fill="#ffffff" shape-rendering="crispEdges" /><rect width="10" height="10" x="50" y="170" fill="#ffffff" shape-rendering="crispEdges" /><rect width="130" height="10" x="60" y="170" fill="#e8e8e2" shape-rendering="crispEdges" /><rect width="10" height="10" x="190" y="170" fill="#ffffff" shape-rendering="crispEdges" /><rect width="50" height="10" x="200" y="170" fill="#f39713" shape-rendering="crispEdges" /><rect width="10" height="10" x="250" y="170" fill="#ffffff" shape-rendering="crispEdges" /><rect width="20" height="10" x="50" y="180" fill="#ffffff" shape-rendering="crispEdges" /><rect width="10" height="10" x="70" y="180" fill="#e8e8e2" shape-rendering="crispEdges" /><rect width="10" height="10" x="80" y="180" fill="#ffffff" shape-rendering="crispEdges" /><rect width="10" height="10" x="90" y="180" fill="#e8e8e2" shape-rendering="crispEdges" /><rect width="10" height="10" x="100" y="180" fill="#ffffff" shape-rendering="crispEdges" /><rect width="10" height="10" x="110" y="180" fill="#e8e8e2" shape-rendering="crispEdges" /><rect width="60" height="10" x="120" y="180" fill="#000000" shape-rendering="crispEdges" /><rect width="10" height="10" x="180" y="180" fill="#e8e8e2" shape-rendering="crispEdges" /><rect width="10" height="10" x="190" y="180" fill="#ffffff" shape-rendering="crispEdges" /><rect width="50" height="10" x="200" y="180" fill="#f39713" shape-rendering="crispEdges" /><rect width="10" height="10" x="250" y="180" fill="#ffffff" shape-rendering="crispEdges" /><rect width="10" height="10" x="50" y="190" fill="#ffffff" shape-rendering="crispEdges" /><rect width="130" height="10" x="60" y="190" fill="#e8e8e2" shape-rendering="crispEdges" /><rect width="10" height="10" x="190" y="190" fill="#ffffff" shape-rendering="crispEdges" /><rect width="50" height="10" x="200" y="190" fill="#f39713" shape-rendering="crispEdges" /><rect width="10" height="10" x="250" y="190" fill="#ffffff" shape-rendering="crispEdges" /><rect width="210" height="10" x="50" y="200" fill="#ffffff" shape-rendering="crispEdges" /></svg>