<svg width="320" height="320" viewBox="0 0 320 320" xmlns="http://www.w3.org/2000/svg" shape-rendering="crispEdges"><rect width="100%" height="100%" fill="none" /><rect width="30" height="10" x="100" y="20" fill="#34ac80" shape-rendering="crispEdges" /><rect width="20" height="10" x="150" y="20" fill="#6f597a" shape-rendering="crispEdges" /><rect width="10" height="10" x="100" y="30" fill="#34ac80" shape-rendering="crispEdges" /><rect width="10" height="10" x="110" y="30" fill="#e9265c" shape-rendering="crispEdges" /><rect width="20" height="10" x="120" y="30" fill="#34ac80" shape-rendering="crispEdges" /><rect width="20" height="10" x="140" y="30" fill="#6f597a" shape-rendering="crispEdges" /><rect width="10" height="10" x="160" y="30" fill="#4b4949" shape-rendering="crispEdges" /><rect width="10" height="10" x="170" y="30" fill="#6f597a" shape-rendering="crispEdges" /><rect width="20" height="10" x="100" y="40" fill="#34ac80" shape-rendering="crispEdges" /><rect width="10" height="10" x="120" y="40" fill="#e9265c" shape-rendering="crispEdges" /><rect width="10" height="10" x="130" y="40" fill="#34ac80" shape-rendering="crispEdges" /><rect width="10" height="10" x="140" y="40" fill="#6f597a" shape-rendering="crispEdges" /><rect width="10" height="10" x="150" y="40" fill="#4b4949" shape-rendering="crispEdges" /><rect width="20" height="10" x="160" y="40" fill="#6f597a" shape-rendering="crispEdges" /><rect width="20" height="10" x="110" y="50" fill="#34ac80" shape-rendering="crispEdges" /><rect width="10" height="10" x="130" y="50" fill="#e9265c" shape-rendering="crispEdges" /><rect width="10" height="10" x="140" y="50" fill="#4b4949" shape-rendering="crispEdges" /><rect width="20" height="10" x="150" y="50" fill="#6f597a" shape-rendering="crispEdges" /><rect width="10" height="10" x="120" y="60" fill="#34ac80" shape-rendering="crispEdges" /><rect width="10" height="10" x="130" y="60" fill="#e9265c" shape-rendering="crispEdges" /><rect width="10" height="10" x="140" y="60" fill="#4b4949" shape-rendering="crispEdges" /><rect width="10" height="10" x="150" y="60" fill="#6f597a" shape-rendering="crispEdges" /><rect width="20" height="10" x="130" y="70" fill="#4d271b" shape-rendering="crispEdges" /><rect width="160" height="10" x="80" y="80" fill="#b92b3c" shape-rendering="crispEdges" /><rect width="90" height="10" x="70" y="90" fill="#e9265c" shape-rendering="crispEdges" /><rect width="10" height="10" x="160" y="90" fill="#b92b3c" shape-rendering="crispEdges" /><rect width="10" height="10" x="170" y="90" fill="#e9265c" shape-rendering="crispEdges" /><rect width="10" height="10" x="180" y="90" fill="#b92b3c" shape-rendering="crispEdges" /><rect width="10" height="10" x="190" y="90" fill="#e9265c" shape-rendering="crispEdges" /><rect width="10" height="10" x="200" y="90" fill="#b92b3c" shape-rendering="crispEdges" /><rect width="10" height="10" x="210" y="90" fill="#e9265c" shape-rendering="crispEdges" /><rect width="30" height="10" x="220" y="90" fill="#b92b3c" shape-rendering="crispEdges" /><rect width="200" height="10" x="60" y="100" fill="#b92b3c" shape-rendering="crispEdges" /><rect width="30" height="10" x="60" y="110" fill="#e9265c" shape-rendering="crispEdges" /><rect width="160" height="10" x="90" y="110" fill="#b92b3c" shape-rendering="crispEdges" /><rect width="10" height="10" x="250" y="110" fill="#e9265c" shape-rendering="crispEdges" /><rect width="200" height="10" x="60" y="120" fill="#b92b3c" shape-rendering="crispEdges" /><rect width="200" height="10" x="60" y="130" fill="#b92b3c" shape-rendering="crispEdges" /><rect width="180" height="10" x="60" y="140" fill="#b92b3c" shape-rendering="crispEdges" /><rect width="20" height="10" x="240" y="140" fill="#e9265c" shape-rendering="crispEdges" /><rect width="200" height="10" x="60" y="150" fill="#b92b3c" shape-rendering="crispEdges" /><rect width="200" height="10" x="60" y="160" fill="#b92b3c" shape-rendering="crispEdges" /><rect width="20" height="10" x="60" y="170" fill="#e9265c" shape-rendering="crispEdges" /><rect width="150" height="10" x="80" y="170" fill="#b92b3c" shape-rendering="crispEdges" /><rect width="30" height="10" x="230" y="170" fill="#e9265c" shape-rendering="crispEdges" /><rect width="100" height="10" x="70" y="180" fill="#b92b3c" shape-rendering="crispEdges" /><rect width="20" height="10" x="170" y="180" fill="#ff638d" shape-rendering="crispEdges" /><rect width="60" height="10" x="190" y="180" fill="#b92b3c" shape-rendering="crispEdges" /><rect width="40" height="10" x="80" y="190" fill="#e9265c" shape-rendering="crispEdges" /><rect width="10" height="10" x="120" y="190" fill="#b92b3c" shape-rendering="crispEdges" /><rect width="10" height="10" x="130" y="190" fill="#e9265c" shape-rendering="crispEdges" /><rect width="70" height="10" x="140" y="190" fill="#b92b3c" shape-rendering="crispEdges" /><rect width="10" height="10" x="210" y="190" fill="#e9265c" shape-rendering="crispEdges" /><rect width="10" height="10" x="220" y="190" fill="#b92b3c" shape-rendering="crispEdges" /><rect width="10" height="10" x="230" y="190" fill="#e9265c" shape-rendering="crispEdges" /><rect width="140" height="10" x="90" y="200" fill="#b92b3c" shape-rendering="crispEdges" /></svg>