<svg width="320" height="320" viewBox="0 0 320 320" xmlns="http://www.w3.org/2000/svg" shape-rendering="crispEdges"><rect width="100%" height="100%" fill="none" /><rect width="40" height="10" x="140" y="30" fill="#b92b3c" shape-rendering="crispEdges" /><rect width="10" height="10" x="110" y="40" fill="#cd916d" shape-rendering="crispEdges" /><rect width="10" height="10" x="120" y="40" fill="#e4a499" shape-rendering="crispEdges" /><rect width="60" height="10" x="130" y="40" fill="#b92b3c" shape-rendering="crispEdges" /><rect width="10" height="10" x="190" y="40" fill="#e4a499" shape-rendering="crispEdges" /><rect width="10" height="10" x="200" y="40" fill="#cd916d" shape-rendering="crispEdges" /><rect width="20" height="10" x="100" y="50" fill="#cd916d" shape-rendering="crispEdges" /><rect width="10" height="10" x="120" y="50" fill="#e4a499" shape-rendering="crispEdges" /><rect width="60" height="10" x="130" y="50" fill="#b92b3c" shape-rendering="crispEdges" /><rect width="10" height="10" x="190" y="50" fill="#e4a499" shape-rendering="crispEdges" /><rect width="20" height="10" x="200" y="50" fill="#cd916d" shape-rendering="crispEdges" /><rect width="20" height="10" x="90" y="60" fill="#cd916d" shape-rendering="crispEdges" /><rect width="10" height="10" x="110" y="60" fill="#e4a499" shape-rendering="crispEdges" /><rect width="20" height="10" x="120" y="60" fill="#b92b3c" shape-rendering="crispEdges" /><rect width="10" height="10" x="140" y="60" fill="#ffe939" shape-rendering="crispEdges" /><rect width="20" height="10" x="150" y="60" fill="#e9265c" shape-rendering="crispEdges" /><rect width="30" height="10" x="170" y="60" fill="#b92b3c" shape-rendering="crispEdges" /><rect width="10" height="10" x="200" y="60" fill="#e4a499" shape-rendering="crispEdges" /><rect width="20" height="10" x="210" y="60" fill="#cd916d" shape-rendering="crispEdges" /><rect width="20" height="10" x="90" y="70" fill="#cd916d" shape-rendering="crispEdges" /><rect width="10" height="10" x="110" y="70" fill="#e4a499" shape-rendering="crispEdges" /><rect width="30" height="10" x="120" y="70" fill="#b92b3c" shape-rendering="crispEdges" /><rect width="20" height="10" x="150" y="70" fill="#ffe939" shape-rendering="crispEdges" /><rect width="10" height="10" x="170" y="70" fill="#e9265c" shape-rendering="crispEdges" /><rect width="20" height="10" x="180" y="70" fill="#b92b3c" shape-rendering="crispEdges" /><rect width="10" height="10" x="200" y="70" fill="#e4a499" shape-rendering="crispEdges" /><rect width="20" height="10" x="210" y="70" fill="#cd916d" shape-rendering="crispEdges" /><rect width="20" height="10" x="90" y="80" fill="#cd916d" shape-rendering="crispEdges" /><rect width="10" height="10" x="110" y="80" fill="#e4a499" shape-rendering="crispEdges" /><rect width="50" height="10" x="120" y="80" fill="#b92b3c" shape-rendering="crispEdges" /><rect width="10" height="10" x="170" y="80" fill="#ffe939" shape-rendering="crispEdges" /><rect width="10" height="10" x="180" y="80" fill="#e9265c" shape-rendering="crispEdges" /><rect width="10" height="10" x="190" y="80" fill="#b92b3c" shape-rendering="crispEdges" /><rect width="10" height="10" x="200" y="80" fill="#e4a499" shape-rendering="crispEdges" /><rect width="20" height="10" x="210" y="80" fill="#cd916d" shape-rendering="crispEdges" /><rect width="20" height="10" x="90" y="90" fill="#cd916d" shape-rendering="crispEdges" /><rect width="10" height="10" x="110" y="90" fill="#e4a499" shape-rendering="crispEdges" /><rect width="30" height="10" x="120" y="90" fill="#b92b3c" shape-rendering="crispEdges" /><rect width="20" height="10" x="150" y="90" fill="#ffe939" shape-rendering="crispEdges" /><rect width="10" height="10" x="170" y="90" fill="#e9265c" shape-rendering="crispEdges" /><rect width="20" height="10" x="180" y="90" fill="#b92b3c" shape-rendering="crispEdges" /><rect width="10" height="10" x="200" y="90" fill="#e4a499" shape-rendering="crispEdges" /><rect width="20" height="10" x="210" y="90" fill="#cd916d" shape-rendering="crispEdges" /><rect width="20" height="10" x="90" y="100" fill="#cd916d" shape-rendering="crispEdges" /><rect width="10" height="10" x="110" y="100" fill="#e4a499" shape-rendering="crispEdges" /><rect width="20" height="10" x="120" y="100" fill="#b92b3c" shape-rendering="crispEdges" /><rect width="10" height="10" x="140" y="100" fill="#ffe939" shape-rendering="crispEdges" /><rect width="20" height="10" x="150" y="100" fill="#e9265c" shape-rendering="crispEdges" /><rect width="30" height="10" x="170" y="100" fill="#b92b3c" shape-rendering="crispEdges" /><rect width="10" height="10" x="200" y="100" fill="#e4a499" shape-rendering="crispEdges" /><rect width="20" height="10" x="210" y="100" fill="#cd916d" shape-rendering="crispEdges" /><rect width="20" height="10" x="90" y="110" fill="#cd916d" shape-rendering="crispEdges" /><rect width="10" height="10" x="110" y="110" fill="#e4a499" shape-rendering="crispEdges" /><rect width="30" height="10" x="120" y="110" fill="#b92b3c" shape-rendering="crispEdges" /><rect width="20" height="10" x="150" y="110" fill="#ffe939" shape-rendering="crispEdges" /><rect width="10" height="10" x="170" y="110" fill="#e9265c" shape-rendering="crispEdges" /><rect width="20" height="10" x="180" y="110" fill="#b92b3c" shape-rendering="crispEdges" /><rect width="10" height="10" x="200" y="110" fill="#e4a499" shape-rendering="crispEdges" /><rect width="20" height="10" x="210" y="110" fill="#cd916d" shape-rendering="crispEdges" /><rect width="20" height="10" x="90" y="120" fill="#cd916d" shape-rendering="crispEdges" /><rect width="10" height="10" x="110" y="120" fill="#e4a499" shape-rendering="crispEdges" /><rect width="50" height="10" x="120" y="120" fill="#b92b3c" shape-rendering="crispEdges" /><rect width="10" height="10" x="170" y="120" fill="#ffe939" shape-rendering="crispEdges" /><rect width="10" height="10" x="180" y="120" fill="#e9265c" shape-rendering="crispEdges" /><rect width="10" height="10" x="190" y="120" fill="#b92b3c" shape-rendering="crispEdges" /><rect width="10" height="10" x="200" y="120" fill="#e4a499" shape-rendering="crispEdges" /><rect width="20" height="10" x="210" y="120" fill="#cd916d" shape-rendering="crispEdges" /><rect width="20" height="10" x="90" y="130" fill="#cd916d" shape-rendering="crispEdges" /><rect width="10" height="10" x="110" y="130" fill="#e4a499" shape-rendering="crispEdges" /><rect width="30" height="10" x="120" y="130" fill="#b92b3c" shape-rendering="crispEdges" /><rect width="20" height="10" x="150" y="130" fill="#ffe939" shape-rendering="crispEdges" /><rect width="10" height="10" x="170" y="130" fill="#e9265c" shape-rendering="crispEdges" /><rect width="20" height="10" x="180" y="130" fill="#b92b3c" shape-rendering="crispEdges" /><rect width="10" height="10" x="200" y="130" fill="#e4a499" shape-rendering="crispEdges" /><rect width="20" height="10" x="210" y="130" fill="#cd916d" shape-rendering="crispEdges" /><rect width="20" height="10" x="90" y="140" fill="#cd916d" shape-rendering="crispEdges" /><rect width="10" height="10" x="110" y="140" fill="#e4a499" shape-rendering="crispEdges" /><rect width="20" height="10" x="120" y="140" fill="#b92b3c" shape-rendering="crispEdges" /><rect width="10" height="10" x="140" y="140" fill="#ffe939" shape-rendering="crispEdges" /><rect width="20" height="10" x="150" y="140" fill="#e9265c" shape-rendering="crispEdges" /><rect width="30" height="10" x="170" y="140" fill="#b92b3c" shape-rendering="crispEdges" /><rect width="10" height="10" x="200" y="140" fill="#e4a499" shape-rendering="crispEdges" /><rect width="20" height="10" x="210" y="140" fill="#cd916d" shape-rendering="crispEdges" /><rect width="20" height="10" x="90" y="150" fill="#cd916d" shape-rendering="crispEdges" /><rect width="10" height="10" x="110" y="150" fill="#e4a499" shape-rendering="crispEdges" /><rect width="30" height="10" x="120" y="150" fill="#b92b3c" shape-rendering="crispEdges" /><rect width="20" height="10" x="150" y="150" fill="#ffe939" shape-rendering="crispEdges" /><rect width="10" height="10" x="170" y="150" fill="#e9265c" shape-rendering="crispEdges" /><rect width="20" height="10" x="180" y="150" fill="#b92b3c" shape-rendering="crispEdges" /><rect width="10" height="10" x="200" y="150" fill="#e4a499" shape-rendering="crispEdges" /><rect width="20" height="10" x="210" y="150" fill="#cd916d" shape-rendering="crispEdges" /><rect width="20" height="10" x="90" y="160" fill="#cd916d" shape-rendering="crispEdges" /><rect width="10" height="10" x="110" y="160" fill="#e4a499" shape-rendering="crispEdges" /><rect width="50" height="10" x="120" y="160" fill="#b92b3c" shape-rendering="crispEdges" /><rect width="10" height="10" x="170" y="160" fill="#ffe939" shape-rendering="crispEdges" /><rect width="10" height="10" x="180" y="160" fill="#e9265c" shape-rendering="crispEdges" /><rect width="10" height="10" x="190" y="160" fill="#b92b3c" shape-rendering="crispEdges" /><rect width="10" height="10" x="200" y="160" fill="#e4a499" shape-rendering="crispEdges" /><rect width="20" height="10" x="210" y="160" fill="#cd916d" shape-rendering="crispEdges" /><rect width="20" height="10" x="90" y="170" fill="#cd916d" shape-rendering="crispEdges" /><rect width="10" height="10" x="110" y="170" fill="#e4a499" shape-rendering="crispEdges" /><rect width="30" height="10" x="120" y="170" fill="#b92b3c" shape-rendering="crispEdges" /><rect width="20" height="10" x="150" y="170" fill="#ffe939" shape-rendering="crispEdges" /><rect width="10" height="10" x="170" y="170" fill="#e9265c" shape-rendering="crispEdges" /><rect width="20" height="10" x="180" y="170" fill="#b92b3c" shape-rendering="crispEdges" /><rect width="10" height="10" x="200" y="170" fill="#e4a499" shape-rendering="crispEdges" /><rect width="20" height="10" x="210" y="170" fill="#cd916d" shape-rendering="crispEdges" /><rect width="20" height="10" x="90" y="180" fill="#cd916d" shape-rendering="crispEdges" /><rect width="10" height="10" x="110" y="180" fill="#e4a499" shape-rendering="crispEdges" /><rect width="20" height="10" x="120" y="180" fill="#b92b3c" shape-rendering="crispEdges" /><rect width="10" height="10" x="140" y="180" fill="#ffe939" shape-rendering="crispEdges" /><rect width="20" height="10" x="150" y="180" fill="#e9265c" shape-rendering="crispEdges" /><rect width="30" height="10" x="170" y="180" fill="#b92b3c" shape-rendering="crispEdges" /><rect width="10" height="10" x="200" y="180" fill="#e4a499" shape-rendering="crispEdges" /><rect width="20" height="10" x="210" y="180" fill="#cd916d" shape-rendering="crispEdges" /><rect width="20" height="10" x="90" y="190" fill="#cd916d" shape-rendering="crispEdges" /><rect width="10" height="10" x="110" y="190" fill="#e4a499" shape-rendering="crispEdges" /><rect width="30" height="10" x="120" y="190" fill="#b92b3c" shape-rendering="crispEdges" /><rect width="20" height="10" x="150" y="190" fill="#ffe939" shape-rendering="crispEdges" /><rect width="10" height="10" x="170" y="190" fill="#e9265c" shape-rendering="crispEdges" /><rect width="20" height="10" x="180" y="190" fill="#b92b3c" shape-rendering="crispEdges" /><rect width="10" height="10" x="200" y="190" fill="#e4a499" shape-rendering="crispEdges" /><rect width="20" height="10" x="210" y="190" fill="#cd916d" shape-rendering="crispEdges" /><rect width="20" height="10" x="90" y="200" fill="#cd916d" shape-rendering="crispEdges" /><rect width="10" height="10" x="110" y="200" fill="#e4a499" shape-rendering="crispEdges" /><rect width="50" height="10" x="120" y="200" fill="#b92b3c" shape-rendering="crispEdges" /><rect width="10" height="10" x="170" y="200" fill="#ffe939" shape-rendering="crispEdges" /><rect width="10" height="10" x="180" y="200" fill="#e9265c" shape-rendering="crispEdges" /><rect width="10" height="10" x="190" y="200" fill="#b92b3c" shape-rendering="crispEdges" /><rect width="10" height="10" x="200" y="200" fill="#e4a499" shape-rendering="crispEdges" /><rect width="20" height="10" x="210" y="200" fill="#cd916d" shape-rendering="crispEdges" /></svg>