<svg width="320" height="320" viewBox="0 0 320 320" xmlns="http://www.w3.org/2000/svg" shape-rendering="crispEdges"><rect width="100%" height="100%" fill="none" /><rect width="80" height="10" x="110" y="90" fill="#e11833" shape-rendering="crispEdges" /><rect width="10" height="10" x="100" y="100" fill="#e11833" shape-rendering="crispEdges" /><rect width="80" height="10" x="110" y="100" fill="#63a0f9" shape-rendering="crispEdges" /><rect width="10" height="10" x="190" y="100" fill="#e11833" shape-rendering="crispEdges" /><rect width="30" height="10" x="90" y="110" fill="#e11833" shape-rendering="crispEdges" /><rect width="80" height="10" x="120" y="110" fill="#63a0f9" shape-rendering="crispEdges" /><rect width="10" height="10" x="200" y="110" fill="#e11833" shape-rendering="crispEdges" /><rect width="50" height="10" x="80" y="120" fill="#e11833" shape-rendering="crispEdges" /><rect width="80" height="10" x="130" y="120" fill="#63a0f9" shape-rendering="crispEdges" /><rect width="10" height="10" x="210" y="120" fill="#e11833" shape-rendering="crispEdges" /><rect width="70" height="10" x="70" y="130" fill="#e11833" shape-rendering="crispEdges" /><rect width="60" height="10" x="140" y="130" fill="#63a0f9" shape-rendering="crispEdges" /><rect width="10" height="10" x="200" y="130" fill="#b2a8a5" shape-rendering="crispEdges" /><rect width="10" height="10" x="210" y="130" fill="#63a0f9" shape-rendering="crispEdges" /><rect width="10" height="10" x="220" y="130" fill="#e11833" shape-rendering="crispEdges" /><rect width="140" height="10" x="60" y="140" fill="#e11833" shape-rendering="crispEdges" /><rect width="20" height="10" x="200" y="140" fill="#b2a8a5" shape-rendering="crispEdges" /><rect width="40" height="10" x="220" y="140" fill="#e11833" shape-rendering="crispEdges" /><rect width="200" height="10" x="60" y="150" fill="#e11833" shape-rendering="crispEdges" /><rect width="10" height="10" x="260" y="150" fill="#fff0be" shape-rendering="crispEdges" /><rect width="200" height="10" x="60" y="160" fill="#e11833" shape-rendering="crispEdges" /><rect width="10" height="10" x="260" y="160" fill="#fff0be" shape-rendering="crispEdges" /><rect width="10" height="10" x="270" y="160" fill="#e11833" shape-rendering="crispEdges" /><rect width="30" height="10" x="60" y="170" fill="#e11833" shape-rendering="crispEdges" /><rect width="10" height="10" x="90" y="170" fill="#000000" shape-rendering="crispEdges" /><rect width="20" height="10" x="100" y="170" fill="#505a5c" shape-rendering="crispEdges" /><rect width="90" height="10" x="120" y="170" fill="#e11833" shape-rendering="crispEdges" /><rect width="20" height="10" x="210" y="170" fill="#505a5c" shape-rendering="crispEdges" /><rect width="10" height="10" x="230" y="170" fill="#000000" shape-rendering="crispEdges" /><rect width="40" height="10" x="240" y="170" fill="#e11833" shape-rendering="crispEdges" /><rect width="20" height="10" x="60" y="180" fill="#b2a8a5" shape-rendering="crispEdges" /><rect width="10" height="10" x="80" y="180" fill="#e11833" shape-rendering="crispEdges" /><rect width="10" height="10" x="90" y="180" fill="#505a5c" shape-rendering="crispEdges" /><rect width="20" height="10" x="100" y="180" fill="#b2a8a5" shape-rendering="crispEdges" /><rect width="10" height="10" x="120" y="180" fill="#505a5c" shape-rendering="crispEdges" /><rect width="10" height="10" x="130" y="180" fill="#e11833" shape-rendering="crispEdges" /><rect width="20" height="10" x="140" y="180" fill="#000000" shape-rendering="crispEdges" /><rect width="40" height="10" x="160" y="180" fill="#e11833" shape-rendering="crispEdges" /><rect width="10" height="10" x="200" y="180" fill="#505a5c" shape-rendering="crispEdges" /><rect width="20" height="10" x="210" y="180" fill="#b2a8a5" shape-rendering="crispEdges" /><rect width="10" height="10" x="230" y="180" fill="#505a5c" shape-rendering="crispEdges" /><rect width="20" height="10" x="240" y="180" fill="#e11833" shape-rendering="crispEdges" /><rect width="20" height="10" x="260" y="180" fill="#b2a8a5" shape-rendering="crispEdges" /><rect width="20" height="10" x="60" y="190" fill="#b2a8a5" shape-rendering="crispEdges" /><rect width="10" height="10" x="90" y="190" fill="#505a5c" shape-rendering="crispEdges" /><rect width="20" height="10" x="100" y="190" fill="#b2a8a5" shape-rendering="crispEdges" /><rect width="10" height="10" x="120" y="190" fill="#505a5c" shape-rendering="crispEdges" /><rect width="70" height="10" x="130" y="190" fill="#b2a8a5" shape-rendering="crispEdges" /><rect width="10" height="10" x="200" y="190" fill="#505a5c" shape-rendering="crispEdges" /><rect width="20" height="10" x="210" y="190" fill="#b2a8a5" shape-rendering="crispEdges" /><rect width="10" height="10" x="230" y="190" fill="#505a5c" shape-rendering="crispEdges" /><rect width="20" height="10" x="250" y="190" fill="#b2a8a5" shape-rendering="crispEdges" /><rect width="20" height="10" x="100" y="200" fill="#505a5c" shape-rendering="crispEdges" /><rect width="20" height="10" x="210" y="200" fill="#505a5c" shape-rendering="crispEdges" /></svg>