<svg width="320" height="320" viewBox="0 0 320 320" xmlns="http://www.w3.org/2000/svg" shape-rendering="crispEdges"><rect width="100%" height="100%" fill="none" /><rect width="30" height="10" x="90" y="40" fill="#abaaa8" shape-rendering="crispEdges" /><rect width="30" height="10" x="200" y="40" fill="#abaaa8" shape-rendering="crispEdges" /><rect width="30" height="10" x="90" y="50" fill="#abaaa8" shape-rendering="crispEdges" /><rect width="30" height="10" x="200" y="50" fill="#abaaa8" shape-rendering="crispEdges" /><rect width="30" height="10" x="90" y="60" fill="#abaaa8" shape-rendering="crispEdges" /><rect width="30" height="10" x="200" y="60" fill="#abaaa8" shape-rendering="crispEdges" /><rect width="30" height="10" x="90" y="70" fill="#abaaa8" shape-rendering="crispEdges" /><rect width="30" height="10" x="200" y="70" fill="#abaaa8" shape-rendering="crispEdges" /><rect width="30" height="10" x="90" y="80" fill="#abaaa8" shape-rendering="crispEdges" /><rect width="30" height="10" x="200" y="80" fill="#abaaa8" shape-rendering="crispEdges" /><rect width="140" height="10" x="90" y="90" fill="#abaaa8" shape-rendering="crispEdges" /><rect width="140" height="10" x="90" y="100" fill="#abaaa8" shape-rendering="crispEdges" /><rect width="140" height="10" x="90" y="110" fill="#abaaa8" shape-rendering="crispEdges" /><rect width="140" height="10" x="90" y="120" fill="#abaaa8" shape-rendering="crispEdges" /><rect width="140" height="10" x="90" y="130" fill="#abaaa8" shape-rendering="crispEdges" /><rect width="140" height="10" x="90" y="140" fill="#abaaa8" shape-rendering="crispEdges" /><rect width="140" height="10" x="90" y="150" fill="#abaaa8" shape-rendering="crispEdges" /><rect width="140" height="10" x="90" y="160" fill="#807f7e" shape-rendering="crispEdges" /><rect width="140" height="10" x="90" y="170" fill="#807f7e" shape-rendering="crispEdges" /><rect width="20" height="10" x="90" y="180" fill="#807f7e" shape-rendering="crispEdges" /><rect width="110" height="10" x="110" y="180" fill="#000000" shape-rendering="crispEdges" /><rect width="10" height="10" x="220" y="180" fill="#807f7e" shape-rendering="crispEdges" /><rect width="30" height="10" x="90" y="190" fill="#807f7e" shape-rendering="crispEdges" /><rect width="20" height="10" x="120" y="190" fill="#ffffff" shape-rendering="crispEdges" /><rect width="40" height="10" x="140" y="190" fill="#807f7e" shape-rendering="crispEdges" /><rect width="20" height="10" x="180" y="190" fill="#ffffff" shape-rendering="crispEdges" /><rect width="30" height="10" x="200" y="190" fill="#807f7e" shape-rendering="crispEdges" /><rect width="140" height="10" x="90" y="200" fill="#807f7e" shape-rendering="crispEdges" /><rect width="140" height="10" x="90" y="210" fill="#807f7e" shape-rendering="crispEdges" /></svg>