<svg width="320" height="320" viewBox="0 0 320 320" xmlns="http://www.w3.org/2000/svg" shape-rendering="crispEdges"><rect width="100%" height="100%" fill="none" /><rect width="40" height="10" x="140" y="70" fill="#9f21a0" shape-rendering="crispEdges" /><rect width="90" height="10" x="50" y="80" fill="#da42cb" shape-rendering="crispEdges" /><rect width="40" height="10" x="140" y="80" fill="#9f21a0" shape-rendering="crispEdges" /><rect width="90" height="10" x="180" y="80" fill="#da42cb" shape-rendering="crispEdges" /><rect width="80" height="10" x="50" y="90" fill="#da42cb" shape-rendering="crispEdges" /><rect width="10" height="10" x="130" y="90" fill="#eab118" shape-rendering="crispEdges" /><rect width="40" height="10" x="140" y="90" fill="#9f21a0" shape-rendering="crispEdges" /><rect width="10" height="10" x="180" y="90" fill="#eab118" shape-rendering="crispEdges" /><rect width="80" height="10" x="190" y="90" fill="#da42cb" shape-rendering="crispEdges" /><rect width="80" height="10" x="50" y="100" fill="#da42cb" shape-rendering="crispEdges" /><rect width="60" height="10" x="130" y="100" fill="#eab118" shape-rendering="crispEdges" /><rect width="80" height="10" x="190" y="100" fill="#da42cb" shape-rendering="crispEdges" /><rect width="80" height="10" x="50" y="110" fill="#9f21a0" shape-rendering="crispEdges" /><rect width="10" height="10" x="130" y="110" fill="#eab118" shape-rendering="crispEdges" /><rect width="40" height="10" x="140" y="110" fill="#d4a015" shape-rendering="crispEdges" /><rect width="10" height="10" x="180" y="110" fill="#eab118" shape-rendering="crispEdges" /><rect width="80" height="10" x="190" y="110" fill="#9f21a0" shape-rendering="crispEdges" /><rect width="10" height="10" x="40" y="120" fill="#9f21a0" shape-rendering="crispEdges" /><rect width="80" height="10" x="50" y="120" fill="#da42cb" shape-rendering="crispEdges" /><rect width="10" height="10" x="130" y="120" fill="#eab118" shape-rendering="crispEdges" /><rect width="40" height="10" x="140" y="120" fill="#9f21a0" shape-rendering="crispEdges" /><rect width="10" height="10" x="180" y="120" fill="#eab118" shape-rendering="crispEdges" /><rect width="80" height="10" x="190" y="120" fill="#da42cb" shape-rendering="crispEdges" /><rect width="10" height="10" x="40" y="130" fill="#9f21a0" shape-rendering="crispEdges" /><rect width="90" height="10" x="50" y="130" fill="#da42cb" shape-rendering="crispEdges" /><rect width="40" height="10" x="140" y="130" fill="#9f21a0" shape-rendering="crispEdges" /><rect width="90" height="10" x="180" y="130" fill="#da42cb" shape-rendering="crispEdges" /><rect width="10" height="10" x="30" y="140" fill="#eab118" shape-rendering="crispEdges" /><rect width="90" height="10" x="50" y="140" fill="#da42cb" shape-rendering="crispEdges" /><rect width="40" height="10" x="140" y="140" fill="#9f21a0" shape-rendering="crispEdges" /><rect width="90" height="10" x="180" y="140" fill="#da42cb" shape-rendering="crispEdges" /><rect width="10" height="10" x="30" y="150" fill="#eab118" shape-rendering="crispEdges" /><rect width="90" height="10" x="50" y="150" fill="#da42cb" shape-rendering="crispEdges" /><rect width="40" height="10" x="140" y="150" fill="#9f21a0" shape-rendering="crispEdges" /><rect width="90" height="10" x="180" y="150" fill="#da42cb" shape-rendering="crispEdges" /><rect width="90" height="10" x="50" y="160" fill="#da42cb" shape-rendering="crispEdges" /><rect width="40" height="10" x="140" y="160" fill="#9f21a0" shape-rendering="crispEdges" /><rect width="90" height="10" x="180" y="160" fill="#da42cb" shape-rendering="crispEdges" /><rect width="90" height="10" x="50" y="170" fill="#da42cb" shape-rendering="crispEdges" /><rect width="40" height="10" x="140" y="170" fill="#9f21a0" shape-rendering="crispEdges" /><rect width="90" height="10" x="180" y="170" fill="#da42cb" shape-rendering="crispEdges" /><rect width="90" height="10" x="50" y="180" fill="#da42cb" shape-rendering="crispEdges" /><rect width="10" height="10" x="140" y="180" fill="#ffffff" shape-rendering="crispEdges" /><rect width="10" height="10" x="150" y="180" fill="#000000" shape-rendering="crispEdges" /><rect width="10" height="10" x="160" y="180" fill="#ffffff" shape-rendering="crispEdges" /><rect width="10" height="10" x="170" y="180" fill="#000000" shape-rendering="crispEdges" /><rect width="10" height="10" x="180" y="180" fill="#ffffff" shape-rendering="crispEdges" /><rect width="80" height="10" x="190" y="180" fill="#da42cb" shape-rendering="crispEdges" /><rect width="90" height="10" x="50" y="190" fill="#da42cb" shape-rendering="crispEdges" /><rect width="40" height="10" x="140" y="190" fill="#9f21a0" shape-rendering="crispEdges" /><rect width="90" height="10" x="180" y="190" fill="#da42cb" shape-rendering="crispEdges" /><rect width="90" height="10" x="50" y="200" fill="#da42cb" shape-rendering="crispEdges" /><rect width="40" height="10" x="140" y="200" fill="#9f21a0" shape-rendering="crispEdges" /><rect width="90" height="10" x="180" y="200" fill="#da42cb" shape-rendering="crispEdges" /></svg>