<svg width="320" height="320" viewBox="0 0 320 320" xmlns="http://www.w3.org/2000/svg" shape-rendering="crispEdges"><rect width="100%" height="100%" fill="none" /><rect width="60" height="10" x="130" y="30" fill="#f9f4e6" shape-rendering="crispEdges" /><rect width="30" height="10" x="110" y="40" fill="#f9f4e6" shape-rendering="crispEdges" /><rect width="30" height="10" x="140" y="40" fill="#cfc9b8" shape-rendering="crispEdges" /><rect width="40" height="10" x="170" y="40" fill="#f9f4e6" shape-rendering="crispEdges" /><rect width="40" height="10" x="90" y="50" fill="#f9f4e6" shape-rendering="crispEdges" /><rect width="30" height="10" x="130" y="50" fill="#cfc9b8" shape-rendering="crispEdges" /><rect width="70" height="10" x="160" y="50" fill="#f9f4e6" shape-rendering="crispEdges" /><rect width="40" height="10" x="80" y="60" fill="#f9f4e6" shape-rendering="crispEdges" /><rect width="20" height="10" x="120" y="60" fill="#cfc9b8" shape-rendering="crispEdges" /><rect width="60" height="10" x="140" y="60" fill="#f9f4e6" shape-rendering="crispEdges" /><rect width="10" height="10" x="200" y="60" fill="#cfc9b8" shape-rendering="crispEdges" /><rect width="30" height="10" x="210" y="60" fill="#f9f4e6" shape-rendering="crispEdges" /><rect width="140" height="10" x="80" y="70" fill="#f9f4e6" shape-rendering="crispEdges" /><rect width="10" height="10" x="220" y="70" fill="#cfc9b8" shape-rendering="crispEdges" /><rect width="10" height="10" x="230" y="70" fill="#f9f4e6" shape-rendering="crispEdges" /><rect width="180" height="10" x="70" y="80" fill="#f9f4e6" shape-rendering="crispEdges" /><rect width="50" height="10" x="70" y="90" fill="#f9f4e6" shape-rendering="crispEdges" /><rect width="10" height="10" x="120" y="90" fill="#cfc9b8" shape-rendering="crispEdges" /><rect width="80" height="10" x="130" y="90" fill="#f9f4e6" shape-rendering="crispEdges" /><rect width="10" height="10" x="210" y="90" fill="#cfc9b8" shape-rendering="crispEdges" /><rect width="30" height="10" x="220" y="90" fill="#f9f4e6" shape-rendering="crispEdges" /><rect width="20" height="10" x="60" y="100" fill="#f9f4e6" shape-rendering="crispEdges" /><rect width="10" height="10" x="80" y="100" fill="#cfc9b8" shape-rendering="crispEdges" /><rect width="170" height="10" x="90" y="100" fill="#f9f4e6" shape-rendering="crispEdges" /><rect width="10" height="10" x="60" y="110" fill="#f9f4e6" shape-rendering="crispEdges" /><rect width="20" height="10" x="70" y="110" fill="#cfc9b8" shape-rendering="crispEdges" /><rect width="170" height="10" x="90" y="110" fill="#f9f4e6" shape-rendering="crispEdges" /><rect width="10" height="10" x="60" y="120" fill="#f9f4e6" shape-rendering="crispEdges" /><rect width="10" height="10" x="70" y="120" fill="#cfc9b8" shape-rendering="crispEdges" /><rect width="180" height="10" x="80" y="120" fill="#f9f4e6" shape-rendering="crispEdges" /><rect width="200" height="10" x="60" y="130" fill="#f9f4e6" shape-rendering="crispEdges" /><rect width="200" height="10" x="60" y="140" fill="#f9f4e6" shape-rendering="crispEdges" /><rect width="200" height="10" x="60" y="150" fill="#f9f4e6" shape-rendering="crispEdges" /><rect width="180" height="10" x="70" y="160" fill="#f9f4e6" shape-rendering="crispEdges" /><rect width="150" height="10" x="70" y="170" fill="#f9f4e6" shape-rendering="crispEdges" /><rect width="10" height="10" x="220" y="170" fill="#cfc9b8" shape-rendering="crispEdges" /><rect width="20" height="10" x="230" y="170" fill="#f9f4e6" shape-rendering="crispEdges" /><rect width="50" height="10" x="80" y="180" fill="#f9f4e6" shape-rendering="crispEdges" /><rect width="20" height="10" x="130" y="180" fill="#000000" shape-rendering="crispEdges" /><rect width="60" height="10" x="150" y="180" fill="#f9f4e6" shape-rendering="crispEdges" /><rect width="20" height="10" x="210" y="180" fill="#cfc9b8" shape-rendering="crispEdges" /><rect width="10" height="10" x="230" y="180" fill="#f9f4e6" shape-rendering="crispEdges" /><rect width="110" height="10" x="80" y="190" fill="#f9f4e6" shape-rendering="crispEdges" /><rect width="30" height="10" x="190" y="190" fill="#cfc9b8" shape-rendering="crispEdges" /><rect width="20" height="10" x="220" y="190" fill="#f9f4e6" shape-rendering="crispEdges" /><rect width="60" height="10" x="90" y="200" fill="#f9f4e6" shape-rendering="crispEdges" /><rect width="10" height="10" x="150" y="200" fill="#cfc9b8" shape-rendering="crispEdges" /><rect width="30" height="10" x="160" y="200" fill="#f9f4e6" shape-rendering="crispEdges" /><rect width="10" height="10" x="190" y="200" fill="#cfc9b8" shape-rendering="crispEdges" /><rect width="30" height="10" x="200" y="200" fill="#f9f4e6" shape-rendering="crispEdges" /><rect width="100" height="10" x="110" y="210" fill="#f9f4e6" shape-rendering="crispEdges" /><rect width="60" height="10" x="130" y="220" fill="#f9f4e6" shape-rendering="crispEdges" /></svg>