<svg width="320" height="320" viewBox="0 0 320 320" xmlns="http://www.w3.org/2000/svg" shape-rendering="crispEdges"><rect width="100%" height="100%" fill="none" /><rect width="100" height="10" x="120" y="20" fill="#f39d44" shape-rendering="crispEdges" /><rect width="10" height="10" x="110" y="30" fill="#f39d44" shape-rendering="crispEdges" /><rect width="100" height="10" x="120" y="30" fill="#eeb78c" shape-rendering="crispEdges" /><rect width="10" height="10" x="220" y="30" fill="#f39d44" shape-rendering="crispEdges" /><rect width="10" height="10" x="100" y="40" fill="#f39d44" shape-rendering="crispEdges" /><rect width="10" height="10" x="110" y="40" fill="#eeb78c" shape-rendering="crispEdges" /><rect width="40" height="10" x="120" y="40" fill="#f9f5e9" shape-rendering="crispEdges" /><rect width="20" height="10" x="160" y="40" fill="#eeb78c" shape-rendering="crispEdges" /><rect width="40" height="10" x="180" y="40" fill="#f9f5e9" shape-rendering="crispEdges" /><rect width="10" height="10" x="220" y="40" fill="#eeb78c" shape-rendering="crispEdges" /><rect width="10" height="10" x="230" y="40" fill="#f39d44" shape-rendering="crispEdges" /><rect width="10" height="10" x="100" y="50" fill="#f39d44" shape-rendering="crispEdges" /><rect width="10" height="10" x="110" y="50" fill="#eeb78c" shape-rendering="crispEdges" /><rect width="100" height="10" x="120" y="50" fill="#f9f5e9" shape-rendering="crispEdges" /><rect width="10" height="10" x="220" y="50" fill="#eeb78c" shape-rendering="crispEdges" /><rect width="10" height="10" x="230" y="50" fill="#f39d44" shape-rendering="crispEdges" /><rect width="10" height="10" x="100" y="60" fill="#f39d44" shape-rendering="crispEdges" /><rect width="10" height="10" x="110" y="60" fill="#eeb78c" shape-rendering="crispEdges" /><rect width="10" height="10" x="120" y="60" fill="#f9f5e9" shape-rendering="crispEdges" /><rect width="20" height="10" x="130" y="60" fill="#5d3500" shape-rendering="crispEdges" /><rect width="10" height="10" x="150" y="60" fill="#eeb78c" shape-rendering="crispEdges" /><rect width="20" height="10" x="160" y="60" fill="#f9f5e9" shape-rendering="crispEdges" /><rect width="10" height="10" x="180" y="60" fill="#eeb78c" shape-rendering="crispEdges" /><rect width="20" height="10" x="190" y="60" fill="#5d3500" shape-rendering="crispEdges" /><rect width="10" height="10" x="210" y="60" fill="#f9f5e9" shape-rendering="crispEdges" /><rect width="10" height="10" x="220" y="60" fill="#eeb78c" shape-rendering="crispEdges" /><rect width="10" height="10" x="230" y="60" fill="#f39d44" shape-rendering="crispEdges" /><rect width="10" height="10" x="100" y="70" fill="#f39d44" shape-rendering="crispEdges" /><rect width="10" height="10" x="110" y="70" fill="#eeb78c" shape-rendering="crispEdges" /><rect width="30" height="10" x="120" y="70" fill="#f9f5e9" shape-rendering="crispEdges" /><rect width="10" height="10" x="150" y="70" fill="#eeb78c" shape-rendering="crispEdges" /><rect width="20" height="10" x="160" y="70" fill="#f9f5e9" shape-rendering="crispEdges" /><rect width="10" height="10" x="180" y="70" fill="#eeb78c" shape-rendering="crispEdges" /><rect width="30" height="10" x="190" y="70" fill="#f9f5e9" shape-rendering="crispEdges" /><rect width="10" height="10" x="220" y="70" fill="#eeb78c" shape-rendering="crispEdges" /><rect width="10" height="10" x="230" y="70" fill="#f39d44" shape-rendering="crispEdges" /><rect width="10" height="10" x="100" y="80" fill="#f39d44" shape-rendering="crispEdges" /><rect width="10" height="10" x="110" y="80" fill="#eeb78c" shape-rendering="crispEdges" /><rect width="40" height="10" x="120" y="80" fill="#f9f5e9" shape-rendering="crispEdges" /><rect width="20" height="10" x="160" y="80" fill="#eeb78c" shape-rendering="crispEdges" /><rect width="40" height="10" x="180" y="80" fill="#f9f5e9" shape-rendering="crispEdges" /><rect width="10" height="10" x="220" y="80" fill="#eeb78c" shape-rendering="crispEdges" /><rect width="10" height="10" x="230" y="80" fill="#f39d44" shape-rendering="crispEdges" /><rect width="20" height="10" x="100" y="90" fill="#f39d44" shape-rendering="crispEdges" /><rect width="10" height="10" x="120" y="90" fill="#eeb78c" shape-rendering="crispEdges" /><rect width="80" height="10" x="130" y="90" fill="#f9f5e9" shape-rendering="crispEdges" /><rect width="20" height="10" x="210" y="90" fill="#eeb78c" shape-rendering="crispEdges" /><rect width="10" height="10" x="230" y="90" fill="#f39d44" shape-rendering="crispEdges" /><rect width="40" height="10" x="90" y="100" fill="#db8323" shape-rendering="crispEdges" /><rect width="10" height="10" x="130" y="100" fill="#eeb78c" shape-rendering="crispEdges" /><rect width="80" height="10" x="140" y="100" fill="#f9f5e9" shape-rendering="crispEdges" /><rect width="10" height="10" x="220" y="100" fill="#eeb78c" shape-rendering="crispEdges" /><rect width="10" height="10" x="230" y="100" fill="#f39d44" shape-rendering="crispEdges" /><rect width="60" height="10" x="80" y="110" fill="#db8323" shape-rendering="crispEdges" /><rect width="80" height="10" x="140" y="110" fill="#f9f5e9" shape-rendering="crispEdges" /><rect width="10" height="10" x="220" y="110" fill="#eeb78c" shape-rendering="crispEdges" /><rect width="10" height="10" x="230" y="110" fill="#f39d44" shape-rendering="crispEdges" /><rect width="60" height="10" x="80" y="120" fill="#db8323" shape-rendering="crispEdges" /><rect width="10" height="10" x="140" y="120" fill="#f39d44" shape-rendering="crispEdges" /><rect width="70" height="10" x="150" y="120" fill="#f9f5e9" shape-rendering="crispEdges" /><rect width="10" height="10" x="220" y="120" fill="#eeb78c" shape-rendering="crispEdges" /><rect width="10" height="10" x="230" y="120" fill="#f39d44" shape-rendering="crispEdges" /><rect width="70" height="10" x="70" y="130" fill="#db8323" shape-rendering="crispEdges" /><rect width="10" height="10" x="140" y="130" fill="#f39d44" shape-rendering="crispEdges" /><rect width="70" height="10" x="150" y="130" fill="#f9f5e9" shape-rendering="crispEdges" /><rect width="10" height="10" x="220" y="130" fill="#eeb78c" shape-rendering="crispEdges" /><rect width="10" height="10" x="230" y="130" fill="#f39d44" shape-rendering="crispEdges" /><rect width="70" height="10" x="70" y="140" fill="#db8323" shape-rendering="crispEdges" /><rect width="10" height="10" x="140" y="140" fill="#f39d44" shape-rendering="crispEdges" /><rect width="70" height="10" x="150" y="140" fill="#f9f5e9" shape-rendering="crispEdges" /><rect width="10" height="10" x="220" y="140" fill="#eeb78c" shape-rendering="crispEdges" /><rect width="10" height="10" x="230" y="140" fill="#f39d44" shape-rendering="crispEdges" /><rect width="70" height="10" x="70" y="150" fill="#db8323" shape-rendering="crispEdges" /><rect width="10" height="10" x="140" y="150" fill="#f39d44" shape-rendering="crispEdges" /><rect width="70" height="10" x="150" y="150" fill="#f9f5e9" shape-rendering="crispEdges" /><rect width="10" height="10" x="220" y="150" fill="#eeb78c" shape-rendering="crispEdges" /><rect width="10" height="10" x="230" y="150" fill="#f39d44" shape-rendering="crispEdges" /><rect width="60" height="10" x="70" y="160" fill="#db8323" shape-rendering="crispEdges" /><rect width="20" height="10" x="130" y="160" fill="#f39d44" shape-rendering="crispEdges" /><rect width="70" height="10" x="150" y="160" fill="#f9f5e9" shape-rendering="crispEdges" /><rect width="10" height="10" x="220" y="160" fill="#f39d44" shape-rendering="crispEdges" /><rect width="50" height="10" x="70" y="170" fill="#db8323" shape-rendering="crispEdges" /><rect width="30" height="10" x="120" y="170" fill="#f39d44" shape-rendering="crispEdges" /><rect width="60" height="10" x="150" y="170" fill="#f9f5e9" shape-rendering="crispEdges" /><rect width="10" height="10" x="210" y="170" fill="#f39d44" shape-rendering="crispEdges" /><rect width="30" height="10" x="70" y="180" fill="#db8323" shape-rendering="crispEdges" /><rect width="40" height="10" x="100" y="180" fill="#f39d44" shape-rendering="crispEdges" /><rect width="60" height="10" x="140" y="180" fill="#f9f5e9" shape-rendering="crispEdges" /><rect width="10" height="10" x="200" y="180" fill="#f39d44" shape-rendering="crispEdges" /><rect width="10" height="10" x="60" y="190" fill="#f39d44" shape-rendering="crispEdges" /><rect width="10" height="10" x="70" y="190" fill="#db8323" shape-rendering="crispEdges" /><rect width="70" height="10" x="80" y="190" fill="#f39d44" shape-rendering="crispEdges" /><rect width="60" height="10" x="150" y="190" fill="#f9f5e9" shape-rendering="crispEdges" /><rect width="110" height="10" x="50" y="200" fill="#f39d44" shape-rendering="crispEdges" /><rect width="70" height="10" x="160" y="200" fill="#f9f5e9" shape-rendering="crispEdges" /></svg>