<svg width="320" height="320" viewBox="0 0 320 320" xmlns="http://www.w3.org/2000/svg" shape-rendering="crispEdges"><rect width="100%" height="100%" fill="none" /><rect width="30" height="10" x="140" y="50" fill="#6b7212" shape-rendering="crispEdges" /><rect width="10" height="10" x="170" y="50" fill="#aa940c" shape-rendering="crispEdges" /><rect width="10" height="10" x="180" y="50" fill="#6b7212" shape-rendering="crispEdges" /><rect width="30" height="10" x="140" y="60" fill="#6b7212" shape-rendering="crispEdges" /><rect width="10" height="10" x="170" y="60" fill="#aa940c" shape-rendering="crispEdges" /><rect width="10" height="10" x="180" y="60" fill="#6b7212" shape-rendering="crispEdges" /><rect width="30" height="10" x="140" y="70" fill="#6b7212" shape-rendering="crispEdges" /><rect width="10" height="10" x="170" y="70" fill="#aa940c" shape-rendering="crispEdges" /><rect width="10" height="10" x="180" y="70" fill="#6b7212" shape-rendering="crispEdges" /><rect width="70" height="10" x="90" y="80" fill="#f3322c" shape-rendering="crispEdges" /><rect width="10" height="10" x="160" y="80" fill="#6b7212" shape-rendering="crispEdges" /><rect width="70" height="10" x="170" y="80" fill="#f3322c" shape-rendering="crispEdges" /><rect width="70" height="10" x="90" y="90" fill="#f3322c" shape-rendering="crispEdges" /><rect width="10" height="10" x="160" y="90" fill="#bd2d24" shape-rendering="crispEdges" /><rect width="70" height="10" x="170" y="90" fill="#f3322c" shape-rendering="crispEdges" /><rect width="20" height="10" x="60" y="100" fill="#f3322c" shape-rendering="crispEdges" /><rect width="10" height="10" x="80" y="100" fill="#bd2d24" shape-rendering="crispEdges" /><rect width="70" height="10" x="90" y="100" fill="#f3322c" shape-rendering="crispEdges" /><rect width="10" height="10" x="160" y="100" fill="#bd2d24" shape-rendering="crispEdges" /><rect width="70" height="10" x="170" y="100" fill="#f3322c" shape-rendering="crispEdges" /><rect width="10" height="10" x="240" y="100" fill="#bd2d24" shape-rendering="crispEdges" /><rect width="20" height="10" x="250" y="100" fill="#f3322c" shape-rendering="crispEdges" /><rect width="20" height="10" x="60" y="110" fill="#f3322c" shape-rendering="crispEdges" /><rect width="10" height="10" x="80" y="110" fill="#bd2d24" shape-rendering="crispEdges" /><rect width="70" height="10" x="90" y="110" fill="#f3322c" shape-rendering="crispEdges" /><rect width="10" height="10" x="160" y="110" fill="#bd2d24" shape-rendering="crispEdges" /><rect width="70" height="10" x="170" y="110" fill="#f3322c" shape-rendering="crispEdges" /><rect width="10" height="10" x="240" y="110" fill="#bd2d24" shape-rendering="crispEdges" /><rect width="20" height="10" x="250" y="110" fill="#f3322c" shape-rendering="crispEdges" /><rect width="20" height="10" x="60" y="120" fill="#f3322c" shape-rendering="crispEdges" /><rect width="10" height="10" x="80" y="120" fill="#bd2d24" shape-rendering="crispEdges" /><rect width="70" height="10" x="90" y="120" fill="#f3322c" shape-rendering="crispEdges" /><rect width="10" height="10" x="160" y="120" fill="#bd2d24" shape-rendering="crispEdges" /><rect width="70" height="10" x="170" y="120" fill="#f3322c" shape-rendering="crispEdges" /><rect width="10" height="10" x="240" y="120" fill="#bd2d24" shape-rendering="crispEdges" /><rect width="20" height="10" x="250" y="120" fill="#f3322c" shape-rendering="crispEdges" /><rect width="20" height="10" x="60" y="130" fill="#f3322c" shape-rendering="crispEdges" /><rect width="10" height="10" x="80" y="130" fill="#bd2d24" shape-rendering="crispEdges" /><rect width="70" height="10" x="90" y="130" fill="#f3322c" shape-rendering="crispEdges" /><rect width="10" height="10" x="160" y="130" fill="#bd2d24" shape-rendering="crispEdges" /><rect width="70" height="10" x="170" y="130" fill="#f3322c" shape-rendering="crispEdges" /><rect width="10" height="10" x="240" y="130" fill="#bd2d24" shape-rendering="crispEdges" /><rect width="20" height="10" x="250" y="130" fill="#f3322c" shape-rendering="crispEdges" /><rect width="20" height="10" x="60" y="140" fill="#f3322c" shape-rendering="crispEdges" /><rect width="10" height="10" x="80" y="140" fill="#bd2d24" shape-rendering="crispEdges" /><rect width="70" height="10" x="90" y="140" fill="#f3322c" shape-rendering="crispEdges" /><rect width="10" height="10" x="160" y="140" fill="#bd2d24" shape-rendering="crispEdges" /><rect width="70" height="10" x="170" y="140" fill="#f3322c" shape-rendering="crispEdges" /><rect width="10" height="10" x="240" y="140" fill="#bd2d24" shape-rendering="crispEdges" /><rect width="20" height="10" x="250" y="140" fill="#f3322c" shape-rendering="crispEdges" /><rect width="20" height="10" x="60" y="150" fill="#f3322c" shape-rendering="crispEdges" /><rect width="10" height="10" x="80" y="150" fill="#bd2d24" shape-rendering="crispEdges" /><rect width="70" height="10" x="90" y="150" fill="#f3322c" shape-rendering="crispEdges" /><rect width="10" height="10" x="160" y="150" fill="#bd2d24" shape-rendering="crispEdges" /><rect width="70" height="10" x="170" y="150" fill="#f3322c" shape-rendering="crispEdges" /><rect width="10" height="10" x="240" y="150" fill="#bd2d24" shape-rendering="crispEdges" /><rect width="20" height="10" x="250" y="150" fill="#f3322c" shape-rendering="crispEdges" /><rect width="20" height="10" x="60" y="160" fill="#f3322c" shape-rendering="crispEdges" /><rect width="10" height="10" x="80" y="160" fill="#bd2d24" shape-rendering="crispEdges" /><rect width="70" height="10" x="90" y="160" fill="#f3322c" shape-rendering="crispEdges" /><rect width="10" height="10" x="160" y="160" fill="#bd2d24" shape-rendering="crispEdges" /><rect width="70" height="10" x="170" y="160" fill="#f3322c" shape-rendering="crispEdges" /><rect width="10" height="10" x="240" y="160" fill="#bd2d24" shape-rendering="crispEdges" /><rect width="20" height="10" x="250" y="160" fill="#f3322c" shape-rendering="crispEdges" /><rect width="20" height="10" x="60" y="170" fill="#f3322c" shape-rendering="crispEdges" /><rect width="10" height="10" x="80" y="170" fill="#bd2d24" shape-rendering="crispEdges" /><rect width="70" height="10" x="90" y="170" fill="#f3322c" shape-rendering="crispEdges" /><rect width="10" height="10" x="160" y="170" fill="#bd2d24" shape-rendering="crispEdges" /><rect width="70" height="10" x="170" y="170" fill="#f3322c" shape-rendering="crispEdges" /><rect width="10" height="10" x="240" y="170" fill="#bd2d24" shape-rendering="crispEdges" /><rect width="20" height="10" x="250" y="170" fill="#f3322c" shape-rendering="crispEdges" /><rect width="20" height="10" x="60" y="180" fill="#f3322c" shape-rendering="crispEdges" /><rect width="10" height="10" x="80" y="180" fill="#bd2d24" shape-rendering="crispEdges" /><rect width="50" height="10" x="90" y="180" fill="#4d271b" shape-rendering="crispEdges" /><rect width="10" height="10" x="140" y="180" fill="#ffe939" shape-rendering="crispEdges" /><rect width="30" height="10" x="150" y="180" fill="#4d271b" shape-rendering="crispEdges" /><rect width="10" height="10" x="180" y="180" fill="#ffe939" shape-rendering="crispEdges" /><rect width="50" height="10" x="190" y="180" fill="#4d271b" shape-rendering="crispEdges" /><rect width="10" height="10" x="240" y="180" fill="#bd2d24" shape-rendering="crispEdges" /><rect width="20" height="10" x="250" y="180" fill="#f3322c" shape-rendering="crispEdges" /><rect width="20" height="10" x="60" y="190" fill="#f3322c" shape-rendering="crispEdges" /><rect width="10" height="10" x="80" y="190" fill="#bd2d24" shape-rendering="crispEdges" /><rect width="70" height="10" x="90" y="190" fill="#f3322c" shape-rendering="crispEdges" /><rect width="10" height="10" x="160" y="190" fill="#bd2d24" shape-rendering="crispEdges" /><rect width="70" height="10" x="170" y="190" fill="#f3322c" shape-rendering="crispEdges" /><rect width="10" height="10" x="240" y="190" fill="#bd2d24" shape-rendering="crispEdges" /><rect width="20" height="10" x="250" y="190" fill="#f3322c" shape-rendering="crispEdges" /><rect width="20" height="10" x="60" y="200" fill="#f3322c" shape-rendering="crispEdges" /><rect width="10" height="10" x="80" y="200" fill="#bd2d24" shape-rendering="crispEdges" /><rect width="70" height="10" x="90" y="200" fill="#f3322c" shape-rendering="crispEdges" /><rect width="10" height="10" x="160" y="200" fill="#bd2d24" shape-rendering="crispEdges" /><rect width="70" height="10" x="170" y="200" fill="#f3322c" shape-rendering="crispEdges" /><rect width="10" height="10" x="240" y="200" fill="#bd2d24" shape-rendering="crispEdges" /><rect width="20" height="10" x="250" y="200" fill="#f3322c" shape-rendering="crispEdges" /></svg>