<svg width="320" height="320" viewBox="0 0 320 320" xmlns="http://www.w3.org/2000/svg" shape-rendering="crispEdges"><rect width="100%" height="100%" fill="none" /><rect width="20" height="10" x="150" y="20" fill="#f3322c" shape-rendering="crispEdges" /><rect width="20" height="10" x="150" y="30" fill="#f3322c" shape-rendering="crispEdges" /><rect width="40" height="10" x="140" y="40" fill="#f3322c" shape-rendering="crispEdges" /><rect width="40" height="10" x="140" y="50" fill="#f3322c" shape-rendering="crispEdges" /><rect width="60" height="10" x="130" y="60" fill="#b92b3c" shape-rendering="crispEdges" /><rect width="60" height="10" x="130" y="70" fill="#000000" shape-rendering="crispEdges" /><rect width="20" height="10" x="90" y="80" fill="#f3322c" shape-rendering="crispEdges" /><rect width="20" height="10" x="110" y="80" fill="#b92b3c" shape-rendering="crispEdges" /><rect width="20" height="10" x="130" y="80" fill="#f3322c" shape-rendering="crispEdges" /><rect width="20" height="10" x="150" y="80" fill="#b92b3c" shape-rendering="crispEdges" /><rect width="20" height="10" x="170" y="80" fill="#f3322c" shape-rendering="crispEdges" /><rect width="20" height="10" x="190" y="80" fill="#b92b3c" shape-rendering="crispEdges" /><rect width="20" height="10" x="210" y="80" fill="#f3322c" shape-rendering="crispEdges" /><rect width="140" height="10" x="90" y="90" fill="#000000" shape-rendering="crispEdges" /><rect width="160" height="10" x="80" y="100" fill="#f3322c" shape-rendering="crispEdges" /><rect width="160" height="10" x="80" y="110" fill="#f3322c" shape-rendering="crispEdges" /><rect width="160" height="10" x="80" y="120" fill="#f3322c" shape-rendering="crispEdges" /><rect width="160" height="10" x="80" y="130" fill="#f3322c" shape-rendering="crispEdges" /><rect width="160" height="10" x="80" y="140" fill="#f3322c" shape-rendering="crispEdges" /><rect width="160" height="10" x="80" y="150" fill="#f3322c" shape-rendering="crispEdges" /><rect width="160" height="10" x="80" y="160" fill="#f3322c" shape-rendering="crispEdges" /><rect width="160" height="10" x="80" y="170" fill="#f3322c" shape-rendering="crispEdges" /><rect width="20" height="10" x="80" y="180" fill="#f3322c" shape-rendering="crispEdges" /><rect width="30" height="10" x="100" y="180" fill="#b92b3c" shape-rendering="crispEdges" /><rect width="20" height="10" x="130" y="180" fill="#f3322c" shape-rendering="crispEdges" /><rect width="30" height="10" x="150" y="180" fill="#b92b3c" shape-rendering="crispEdges" /><rect width="60" height="10" x="180" y="180" fill="#f3322c" shape-rendering="crispEdges" /><rect width="40" height="10" x="80" y="190" fill="#f3322c" shape-rendering="crispEdges" /><rect width="40" height="10" x="120" y="190" fill="#b92b3c" shape-rendering="crispEdges" /><rect width="80" height="10" x="160" y="190" fill="#f3322c" shape-rendering="crispEdges" /><rect width="160" height="10" x="80" y="200" fill="#f3322c" shape-rendering="crispEdges" /></svg>