<svg width="320" height="320" viewBox="0 0 320 320" xmlns="http://www.w3.org/2000/svg" shape-rendering="crispEdges"><rect width="100%" height="100%" fill="none" /><rect width="20" height="10" x="150" y="10" fill="#ff1a0b" shape-rendering="crispEdges" /><rect width="20" height="10" x="150" y="20" fill="#ff1a0b" shape-rendering="crispEdges" /><rect width="40" height="10" x="140" y="30" fill="#ff1a0b" shape-rendering="crispEdges" /><rect width="60" height="10" x="130" y="40" fill="#ff1a0b" shape-rendering="crispEdges" /><rect width="60" height="10" x="130" y="50" fill="#ff1a0b" shape-rendering="crispEdges" /><rect width="80" height="10" x="120" y="60" fill="#ff1a0b" shape-rendering="crispEdges" /><rect width="80" height="10" x="120" y="70" fill="#ff1a0b" shape-rendering="crispEdges" /><rect width="100" height="10" x="110" y="80" fill="#ff1a0b" shape-rendering="crispEdges" /><rect width="140" height="10" x="90" y="90" fill="#fffdf4" shape-rendering="crispEdges" /><rect width="10" height="10" x="60" y="100" fill="#ffa21e" shape-rendering="crispEdges" /><rect width="10" height="10" x="80" y="100" fill="#fffdf4" shape-rendering="crispEdges" /><rect width="140" height="10" x="90" y="100" fill="#ffa21e" shape-rendering="crispEdges" /><rect width="10" height="10" x="230" y="100" fill="#fffdf4" shape-rendering="crispEdges" /><rect width="10" height="10" x="250" y="100" fill="#ffa21e" shape-rendering="crispEdges" /><rect width="20" height="10" x="60" y="110" fill="#ffa21e" shape-rendering="crispEdges" /><rect width="10" height="10" x="80" y="110" fill="#fffdf4" shape-rendering="crispEdges" /><rect width="140" height="10" x="90" y="110" fill="#ffa21e" shape-rendering="crispEdges" /><rect width="10" height="10" x="230" y="110" fill="#fffdf4" shape-rendering="crispEdges" /><rect width="20" height="10" x="240" y="110" fill="#ffa21e" shape-rendering="crispEdges" /><rect width="20" height="10" x="60" y="120" fill="#ffa21e" shape-rendering="crispEdges" /><rect width="10" height="10" x="80" y="120" fill="#fffdf4" shape-rendering="crispEdges" /><rect width="140" height="10" x="90" y="120" fill="#ffa21e" shape-rendering="crispEdges" /><rect width="10" height="10" x="230" y="120" fill="#fffdf4" shape-rendering="crispEdges" /><rect width="20" height="10" x="240" y="120" fill="#ffa21e" shape-rendering="crispEdges" /><rect width="20" height="10" x="60" y="130" fill="#ffa21e" shape-rendering="crispEdges" /><rect width="10" height="10" x="80" y="130" fill="#fffdf4" shape-rendering="crispEdges" /><rect width="140" height="10" x="90" y="130" fill="#ffa21e" shape-rendering="crispEdges" /><rect width="10" height="10" x="230" y="130" fill="#fffdf4" shape-rendering="crispEdges" /><rect width="20" height="10" x="240" y="130" fill="#ffa21e" shape-rendering="crispEdges" /><rect width="160" height="10" x="80" y="140" fill="#00a556" shape-rendering="crispEdges" /><rect width="160" height="10" x="80" y="150" fill="#00a556" shape-rendering="crispEdges" /><rect width="160" height="10" x="80" y="160" fill="#00a556" shape-rendering="crispEdges" /><rect width="160" height="10" x="80" y="170" fill="#00a556" shape-rendering="crispEdges" /><rect width="30" height="10" x="80" y="180" fill="#ffa21e" shape-rendering="crispEdges" /><rect width="10" height="10" x="110" y="180" fill="#000000" shape-rendering="crispEdges" /><rect width="10" height="10" x="120" y="180" fill="#ffffff" shape-rendering="crispEdges" /><rect width="10" height="10" x="130" y="180" fill="#000000" shape-rendering="crispEdges" /><rect width="10" height="10" x="140" y="180" fill="#ffffff" shape-rendering="crispEdges" /><rect width="10" height="10" x="150" y="180" fill="#000000" shape-rendering="crispEdges" /><rect width="10" height="10" x="160" y="180" fill="#ffffff" shape-rendering="crispEdges" /><rect width="10" height="10" x="170" y="180" fill="#000000" shape-rendering="crispEdges" /><rect width="10" height="10" x="180" y="180" fill="#ffffff" shape-rendering="crispEdges" /><rect width="10" height="10" x="190" y="180" fill="#000000" shape-rendering="crispEdges" /><rect width="10" height="10" x="200" y="180" fill="#ffffff" shape-rendering="crispEdges" /><rect width="10" height="10" x="210" y="180" fill="#000000" shape-rendering="crispEdges" /><rect width="20" height="10" x="220" y="180" fill="#ffa21e" shape-rendering="crispEdges" /><rect width="30" height="10" x="80" y="190" fill="#ffa21e" shape-rendering="crispEdges" /><rect width="110" height="10" x="110" y="190" fill="#ff1a0b" shape-rendering="crispEdges" /><rect width="20" height="10" x="220" y="190" fill="#ffa21e" shape-rendering="crispEdges" /><rect width="80" height="10" x="90" y="200" fill="#d08b11" shape-rendering="crispEdges" /><rect width="10" height="10" x="170" y="200" fill="#c16710" shape-rendering="crispEdges" /><rect width="70" height="10" x="180" y="200" fill="#d08b11" shape-rendering="crispEdges" /></svg>