<svg width="320" height="320" viewBox="0 0 320 320" xmlns="http://www.w3.org/2000/svg" shape-rendering="crispEdges"><rect width="100%" height="100%" fill="none" /><rect width="10" height="10" x="160" y="20" fill="#fb4694" shape-rendering="crispEdges" /><rect width="30" height="10" x="150" y="30" fill="#fb4694" shape-rendering="crispEdges" /><rect width="10" height="10" x="160" y="40" fill="#fb4694" shape-rendering="crispEdges" /><rect width="60" height="10" x="130" y="50" fill="#fb4694" shape-rendering="crispEdges" /><rect width="100" height="10" x="110" y="60" fill="#fb4694" shape-rendering="crispEdges" /><rect width="140" height="10" x="90" y="70" fill="#2b83f6" shape-rendering="crispEdges" /><rect width="100" height="10" x="80" y="80" fill="#2b83f6" shape-rendering="crispEdges" /><rect width="10" height="10" x="180" y="80" fill="#caeff9" shape-rendering="crispEdges" /><rect width="10" height="10" x="190" y="80" fill="#2b83f6" shape-rendering="crispEdges" /><rect width="20" height="10" x="200" y="80" fill="#caeff9" shape-rendering="crispEdges" /><rect width="20" height="10" x="220" y="80" fill="#2b83f6" shape-rendering="crispEdges" /><rect width="120" height="10" x="80" y="90" fill="#2b83f6" shape-rendering="crispEdges" /><rect width="20" height="10" x="200" y="90" fill="#caeff9" shape-rendering="crispEdges" /><rect width="20" height="10" x="220" y="90" fill="#2b83f6" shape-rendering="crispEdges" /><rect width="180" height="10" x="70" y="100" fill="#2b83f6" shape-rendering="crispEdges" /><rect width="180" height="10" x="70" y="110" fill="#2b83f6" shape-rendering="crispEdges" /><rect width="180" height="10" x="70" y="120" fill="#2b83f6" shape-rendering="crispEdges" /><rect width="200" height="10" x="60" y="130" fill="#2b83f6" shape-rendering="crispEdges" /><rect width="200" height="10" x="60" y="140" fill="#2b83f6" shape-rendering="crispEdges" /><rect width="200" height="10" x="60" y="150" fill="#2b83f6" shape-rendering="crispEdges" /><rect width="200" height="10" x="60" y="160" fill="#fb4694" shape-rendering="crispEdges" /><rect width="240" height="10" x="40" y="170" fill="#fb4694" shape-rendering="crispEdges" /><rect width="50" height="10" x="30" y="180" fill="#fb4694" shape-rendering="crispEdges" /><rect width="20" height="10" x="80" y="180" fill="#ffe939" shape-rendering="crispEdges" /><rect width="10" height="10" x="100" y="180" fill="#fb4694" shape-rendering="crispEdges" /><rect width="20" height="10" x="110" y="180" fill="#ffe939" shape-rendering="crispEdges" /><rect width="10" height="10" x="130" y="180" fill="#fb4694" shape-rendering="crispEdges" /><rect width="20" height="10" x="140" y="180" fill="#ffe939" shape-rendering="crispEdges" /><rect width="10" height="10" x="160" y="180" fill="#fb4694" shape-rendering="crispEdges" /><rect width="20" height="10" x="170" y="180" fill="#ffe939" shape-rendering="crispEdges" /><rect width="10" height="10" x="190" y="180" fill="#fb4694" shape-rendering="crispEdges" /><rect width="20" height="10" x="200" y="180" fill="#ffe939" shape-rendering="crispEdges" /><rect width="10" height="10" x="220" y="180" fill="#fb4694" shape-rendering="crispEdges" /><rect width="20" height="10" x="230" y="180" fill="#ffe939" shape-rendering="crispEdges" /><rect width="40" height="10" x="250" y="180" fill="#fb4694" shape-rendering="crispEdges" /><rect width="60" height="10" x="20" y="190" fill="#fb4694" shape-rendering="crispEdges" /><rect width="20" height="10" x="80" y="190" fill="#ffe939" shape-rendering="crispEdges" /><rect width="10" height="10" x="100" y="190" fill="#fb4694" shape-rendering="crispEdges" /><rect width="20" height="10" x="110" y="190" fill="#ffe939" shape-rendering="crispEdges" /><rect width="10" height="10" x="130" y="190" fill="#fb4694" shape-rendering="crispEdges" /><rect width="20" height="10" x="140" y="190" fill="#ffe939" shape-rendering="crispEdges" /><rect width="10" height="10" x="160" y="190" fill="#fb4694" shape-rendering="crispEdges" /><rect width="20" height="10" x="170" y="190" fill="#ffe939" shape-rendering="crispEdges" /><rect width="10" height="10" x="190" y="190" fill="#fb4694" shape-rendering="crispEdges" /><rect width="20" height="10" x="200" y="190" fill="#ffe939" shape-rendering="crispEdges" /><rect width="10" height="10" x="220" y="190" fill="#fb4694" shape-rendering="crispEdges" /><rect width="20" height="10" x="230" y="190" fill="#ffe939" shape-rendering="crispEdges" /><rect width="50" height="10" x="250" y="190" fill="#fb4694" shape-rendering="crispEdges" /><rect width="200" height="10" x="60" y="200" fill="#fb4694" shape-rendering="crispEdges" /><rect width="100" height="10" x="110" y="210" fill="#fb4694" shape-rendering="crispEdges" /></svg>