<svg id="svg" version="1.1" xmlns="http://www.w3.org/2000/svg" xmlns:xlink="http://www.w3.org/1999/xlink" width="400" height="400" viewBox="0, 0, 400,400"><g id="svgg"><path id="path0" d="M100.000 81.250 L 100.000 100.000 200.000 100.000 L 300.000 100.000 300.000 81.250 L 300.000 62.500 200.000 62.500 L 100.000 62.500 100.000 81.250 M100.000 131.250 L 100.000 150.000 200.000 150.000 L 300.000 150.000 300.000 131.250 L 300.000 112.500 200.000 112.500 L 100.000 112.500 100.000 131.250 M100.000 181.250 L 100.000 200.000 200.000 200.000 L 300.000 200.000 300.000 181.250 L 300.000 162.500 200.000 162.500 L 100.000 162.500 100.000 181.250 M100.000 231.250 L 100.000 250.000 200.000 250.000 L 300.000 250.000 300.000 231.250 L 300.000 212.500 200.000 212.500 L 100.000 212.500 100.000 231.250 M250.000 231.250 L 250.000 237.500 206.250 237.500 L 162.500 237.500 162.500 231.250 L 162.500 225.000 206.250 225.000 L 250.000 225.000 250.000 231.250 " stroke="none" fill="#847c7c" fill-rule="evenodd"></path><path id="path1" d="M125.000 106.250 L 125.000 112.500 200.000 112.500 L 275.000 112.500 275.000 106.250 L 275.000 100.000 200.000 100.000 L 125.000 100.000 125.000 106.250 M125.000 156.250 L 125.000 162.500 200.000 162.500 L 275.000 162.500 275.000 156.250 L 275.000 150.000 200.000 150.000 L 125.000 150.000 125.000 156.250 M125.000 206.250 L 125.000 212.500 200.000 212.500 L 275.000 212.500 275.000 206.250 L 275.000 200.000 200.000 200.000 L 125.000 200.000 125.000 206.250 M125.000 256.250 L 125.000 262.500 200.000 262.500 L 275.000 262.500 275.000 256.250 L 275.000 250.000 200.000 250.000 L 125.000 250.000 125.000 256.250 " stroke="none" fill="#444444" fill-rule="evenodd"></path><path id="path2" d="M162.500 231.250 L 162.500 237.500 206.250 237.500 L 250.000 237.500 250.000 231.250 L 250.000 225.000 206.250 225.000 L 162.500 225.000 162.500 231.250 " stroke="none" fill="#8c9c0c" fill-rule="evenodd"></path><path id="path3" d="" stroke="none" fill="#887c60" fill-rule="evenodd"></path><path id="path4" d="" stroke="none" fill="#8c7c60" fill-rule="evenodd"></path><path id="path5" d="" stroke="none" fill="#887c60" fill-rule="evenodd"></path><path id="path6" d="" stroke="none" fill="#887c60" fill-rule="evenodd"></path><path id="path7" d="" stroke="none" fill="#887c60" fill-rule="evenodd"></path><path id="path8" d="" stroke="none" fill="#887c60" fill-rule="evenodd"></path></g></svg>