<svg width="320" height="320" viewBox="0 0 320 320" xmlns="http://www.w3.org/2000/svg" shape-rendering="crispEdges"><rect width="100%" height="100%" fill="none" /><rect width="20" height="10" x="70" y="30" fill="#9eb5e1" shape-rendering="crispEdges" /><rect width="20" height="10" x="230" y="30" fill="#f5fcff" shape-rendering="crispEdges" /><rect width="130" height="10" x="70" y="40" fill="#9eb5e1" shape-rendering="crispEdges" /><rect width="50" height="10" x="200" y="40" fill="#f5fcff" shape-rendering="crispEdges" /><rect width="20" height="10" x="80" y="50" fill="#9eb5e1" shape-rendering="crispEdges" /><rect width="140" height="10" x="100" y="50" fill="#f5fcff" shape-rendering="crispEdges" /><rect width="30" height="10" x="80" y="60" fill="#9eb5e1" shape-rendering="crispEdges" /><rect width="130" height="10" x="110" y="60" fill="#f5fcff" shape-rendering="crispEdges" /><rect width="30" height="10" x="80" y="70" fill="#9eb5e1" shape-rendering="crispEdges" /><rect width="80" height="10" x="110" y="70" fill="#f5fcff" shape-rendering="crispEdges" /><rect width="30" height="10" x="190" y="70" fill="#9eb5e1" shape-rendering="crispEdges" /><rect width="20" height="10" x="220" y="70" fill="#f5fcff" shape-rendering="crispEdges" /><rect width="30" height="10" x="80" y="80" fill="#9eb5e1" shape-rendering="crispEdges" /><rect width="130" height="10" x="110" y="80" fill="#f5fcff" shape-rendering="crispEdges" /><rect width="30" height="10" x="80" y="90" fill="#9eb5e1" shape-rendering="crispEdges" /><rect width="20" height="10" x="110" y="90" fill="#f5fcff" shape-rendering="crispEdges" /><rect width="20" height="10" x="130" y="90" fill="#9eb5e1" shape-rendering="crispEdges" /><rect width="90" height="10" x="150" y="90" fill="#f5fcff" shape-rendering="crispEdges" /><rect width="30" height="10" x="80" y="100" fill="#9eb5e1" shape-rendering="crispEdges" /><rect width="130" height="10" x="110" y="100" fill="#f5fcff" shape-rendering="crispEdges" /><rect width="30" height="10" x="80" y="110" fill="#9eb5e1" shape-rendering="crispEdges" /><rect width="130" height="10" x="110" y="110" fill="#f5fcff" shape-rendering="crispEdges" /><rect width="30" height="10" x="80" y="120" fill="#9eb5e1" shape-rendering="crispEdges" /><rect width="130" height="10" x="110" y="120" fill="#f5fcff" shape-rendering="crispEdges" /><rect width="30" height="10" x="80" y="130" fill="#9eb5e1" shape-rendering="crispEdges" /><rect width="130" height="10" x="110" y="130" fill="#f5fcff" shape-rendering="crispEdges" /><rect width="30" height="10" x="80" y="140" fill="#9eb5e1" shape-rendering="crispEdges" /><rect width="130" height="10" x="110" y="140" fill="#f5fcff" shape-rendering="crispEdges" /><rect width="30" height="10" x="80" y="150" fill="#9eb5e1" shape-rendering="crispEdges" /><rect width="130" height="10" x="110" y="150" fill="#f5fcff" shape-rendering="crispEdges" /><rect width="30" height="10" x="80" y="160" fill="#9eb5e1" shape-rendering="crispEdges" /><rect width="130" height="10" x="110" y="160" fill="#f5fcff" shape-rendering="crispEdges" /><rect width="30" height="10" x="80" y="170" fill="#9eb5e1" shape-rendering="crispEdges" /><rect width="130" height="10" x="110" y="170" fill="#f5fcff" shape-rendering="crispEdges" /><rect width="30" height="10" x="80" y="180" fill="#9eb5e1" shape-rendering="crispEdges" /><rect width="50" height="10" x="110" y="180" fill="#f5fcff" shape-rendering="crispEdges" /><rect width="40" height="10" x="160" y="180" fill="#9eb5e1" shape-rendering="crispEdges" /><rect width="40" height="10" x="200" y="180" fill="#f5fcff" shape-rendering="crispEdges" /><rect width="30" height="10" x="80" y="190" fill="#9eb5e1" shape-rendering="crispEdges" /><rect width="130" height="10" x="110" y="190" fill="#f5fcff" shape-rendering="crispEdges" /><rect width="20" height="10" x="80" y="200" fill="#9eb5e1" shape-rendering="crispEdges" /><rect width="140" height="10" x="100" y="200" fill="#f5fcff" shape-rendering="crispEdges" /><rect width="130" height="10" x="70" y="210" fill="#9eb5e1" shape-rendering="crispEdges" /><rect width="50" height="10" x="200" y="210" fill="#f5fcff" shape-rendering="crispEdges" /><rect width="20" height="10" x="70" y="220" fill="#9eb5e1" shape-rendering="crispEdges" /><rect width="20" height="10" x="230" y="220" fill="#f5fcff" shape-rendering="crispEdges" /></svg>