<svg width="320" height="320" viewBox="0 0 320 320" xmlns="http://www.w3.org/2000/svg" shape-rendering="crispEdges"><rect width="100%" height="100%" fill="none" /><rect width="40" height="10" x="50" y="50" fill="#6b3f39" shape-rendering="crispEdges" /><rect width="60" height="10" x="100" y="50" fill="#6b3f39" shape-rendering="crispEdges" /><rect width="60" height="10" x="170" y="50" fill="#6b3f39" shape-rendering="crispEdges" /><rect width="30" height="10" x="240" y="50" fill="#6b3f39" shape-rendering="crispEdges" /><rect width="40" height="10" x="50" y="60" fill="#ffd067" shape-rendering="crispEdges" /><rect width="10" height="10" x="90" y="60" fill="#6b3f39" shape-rendering="crispEdges" /><rect width="60" height="10" x="100" y="60" fill="#ffd067" shape-rendering="crispEdges" /><rect width="10" height="10" x="160" y="60" fill="#6b3f39" shape-rendering="crispEdges" /><rect width="60" height="10" x="170" y="60" fill="#ffd067" shape-rendering="crispEdges" /><rect width="10" height="10" x="230" y="60" fill="#6b3f39" shape-rendering="crispEdges" /><rect width="30" height="10" x="240" y="60" fill="#ffd067" shape-rendering="crispEdges" /><rect width="40" height="10" x="50" y="70" fill="#6b3f39" shape-rendering="crispEdges" /><rect width="10" height="10" x="90" y="70" fill="#b87b11" shape-rendering="crispEdges" /><rect width="60" height="10" x="100" y="70" fill="#6b3f39" shape-rendering="crispEdges" /><rect width="10" height="10" x="160" y="70" fill="#b87b11" shape-rendering="crispEdges" /><rect width="60" height="10" x="170" y="70" fill="#6b3f39" shape-rendering="crispEdges" /><rect width="10" height="10" x="230" y="70" fill="#b87b11" shape-rendering="crispEdges" /><rect width="30" height="10" x="240" y="70" fill="#6b3f39" shape-rendering="crispEdges" /><rect width="10" height="10" x="60" y="80" fill="#6b3f39" shape-rendering="crispEdges" /><rect width="10" height="10" x="70" y="80" fill="#b87b11" shape-rendering="crispEdges" /><rect width="10" height="10" x="80" y="80" fill="#6b3f39" shape-rendering="crispEdges" /><rect width="10" height="10" x="90" y="80" fill="#b87b11" shape-rendering="crispEdges" /><rect width="10" height="10" x="100" y="80" fill="#6b3f39" shape-rendering="crispEdges" /><rect width="10" height="10" x="130" y="80" fill="#6b3f39" shape-rendering="crispEdges" /><rect width="10" height="10" x="140" y="80" fill="#b87b11" shape-rendering="crispEdges" /><rect width="10" height="10" x="150" y="80" fill="#6b3f39" shape-rendering="crispEdges" /><rect width="10" height="10" x="160" y="80" fill="#b87b11" shape-rendering="crispEdges" /><rect width="10" height="10" x="170" y="80" fill="#6b3f39" shape-rendering="crispEdges" /><rect width="10" height="10" x="200" y="80" fill="#6b3f39" shape-rendering="crispEdges" /><rect width="10" height="10" x="210" y="80" fill="#b87b11" shape-rendering="crispEdges" /><rect width="10" height="10" x="220" y="80" fill="#6b3f39" shape-rendering="crispEdges" /><rect width="10" height="10" x="230" y="80" fill="#b87b11" shape-rendering="crispEdges" /><rect width="10" height="10" x="240" y="80" fill="#6b3f39" shape-rendering="crispEdges" /><rect width="30" height="10" x="40" y="90" fill="#6b3f39" shape-rendering="crispEdges" /><rect width="10" height="10" x="70" y="90" fill="#ffd067" shape-rendering="crispEdges" /><rect width="60" height="10" x="80" y="90" fill="#6b3f39" shape-rendering="crispEdges" /><rect width="10" height="10" x="140" y="90" fill="#ffd067" shape-rendering="crispEdges" /><rect width="60" height="10" x="150" y="90" fill="#6b3f39" shape-rendering="crispEdges" /><rect width="10" height="10" x="210" y="90" fill="#ffd067" shape-rendering="crispEdges" /><rect width="60" height="10" x="220" y="90" fill="#6b3f39" shape-rendering="crispEdges" /><rect width="30" height="10" x="40" y="100" fill="#ffd067" shape-rendering="crispEdges" /><rect width="10" height="10" x="70" y="100" fill="#6b3f39" shape-rendering="crispEdges" /><rect width="10" height="10" x="80" y="100" fill="#ffffff" shape-rendering="crispEdges" /><rect width="50" height="10" x="90" y="100" fill="#ffd067" shape-rendering="crispEdges" /><rect width="10" height="10" x="140" y="100" fill="#6b3f39" shape-rendering="crispEdges" /><rect width="10" height="10" x="150" y="100" fill="#ffffff" shape-rendering="crispEdges" /><rect width="50" height="10" x="160" y="100" fill="#ffd067" shape-rendering="crispEdges" /><rect width="10" height="10" x="210" y="100" fill="#6b3f39" shape-rendering="crispEdges" /><rect width="10" height="10" x="220" y="100" fill="#ffffff" shape-rendering="crispEdges" /><rect width="50" height="10" x="230" y="100" fill="#ffd067" shape-rendering="crispEdges" /><rect width="30" height="10" x="40" y="110" fill="#6b3f39" shape-rendering="crispEdges" /><rect width="60" height="10" x="80" y="110" fill="#6b3f39" shape-rendering="crispEdges" /><rect width="60" height="10" x="150" y="110" fill="#6b3f39" shape-rendering="crispEdges" /><rect width="60" height="10" x="220" y="110" fill="#6b3f39" shape-rendering="crispEdges" /><rect width="60" height="10" x="50" y="160" fill="#6b3f39" shape-rendering="crispEdges" /><rect width="60" height="10" x="120" y="160" fill="#6b3f39" shape-rendering="crispEdges" /><rect width="60" height="10" x="190" y="160" fill="#6b3f39" shape-rendering="crispEdges" /><rect width="40" height="10" x="260" y="160" fill="#6b3f39" shape-rendering="crispEdges" /><rect width="10" height="10" x="40" y="170" fill="#6b3f39" shape-rendering="crispEdges" /><rect width="10" height="10" x="50" y="170" fill="#ffffff" shape-rendering="crispEdges" /><rect width="50" height="10" x="60" y="170" fill="#ffd067" shape-rendering="crispEdges" /><rect width="10" height="10" x="110" y="170" fill="#6b3f39" shape-rendering="crispEdges" /><rect width="10" height="10" x="120" y="170" fill="#ffffff" shape-rendering="crispEdges" /><rect width="50" height="10" x="130" y="170" fill="#ffd067" shape-rendering="crispEdges" /><rect width="10" height="10" x="180" y="170" fill="#6b3f39" shape-rendering="crispEdges" /><rect width="10" height="10" x="190" y="170" fill="#ffffff" shape-rendering="crispEdges" /><rect width="50" height="10" x="200" y="170" fill="#ffd067" shape-rendering="crispEdges" /><rect width="10" height="10" x="250" y="170" fill="#6b3f39" shape-rendering="crispEdges" /><rect width="10" height="10" x="260" y="170" fill="#ffffff" shape-rendering="crispEdges" /><rect width="30" height="10" x="270" y="170" fill="#ffd067" shape-rendering="crispEdges" /><rect width="10" height="10" x="30" y="180" fill="#6b3f39" shape-rendering="crispEdges" /><rect width="10" height="10" x="40" y="180" fill="#ffd067" shape-rendering="crispEdges" /><rect width="60" height="10" x="50" y="180" fill="#6b3f39" shape-rendering="crispEdges" /><rect width="10" height="10" x="110" y="180" fill="#b87b11" shape-rendering="crispEdges" /><rect width="60" height="10" x="120" y="180" fill="#6b3f39" shape-rendering="crispEdges" /><rect width="10" height="10" x="180" y="180" fill="#b87b11" shape-rendering="crispEdges" /><rect width="60" height="10" x="190" y="180" fill="#6b3f39" shape-rendering="crispEdges" /><rect width="10" height="10" x="250" y="180" fill="#ffd067" shape-rendering="crispEdges" /><rect width="40" height="10" x="260" y="180" fill="#6b3f39" shape-rendering="crispEdges" /><rect width="10" height="10" x="30" y="190" fill="#6b3f39" shape-rendering="crispEdges" /><rect width="10" height="10" x="40" y="190" fill="#b87b11" shape-rendering="crispEdges" /><rect width="10" height="10" x="50" y="190" fill="#6b3f39" shape-rendering="crispEdges" /><rect width="10" height="10" x="60" y="190" fill="#b87b11" shape-rendering="crispEdges" /><rect width="10" height="10" x="70" y="190" fill="#6b3f39" shape-rendering="crispEdges" /><rect width="10" height="10" x="100" y="190" fill="#6b3f39" shape-rendering="crispEdges" /><rect width="10" height="10" x="110" y="190" fill="#b87b11" shape-rendering="crispEdges" /><rect width="10" height="10" x="120" y="190" fill="#6b3f39" shape-rendering="crispEdges" /><rect width="10" height="10" x="130" y="190" fill="#b87b11" shape-rendering="crispEdges" /><rect width="10" height="10" x="140" y="190" fill="#6b3f39" shape-rendering="crispEdges" /><rect width="10" height="10" x="170" y="190" fill="#6b3f39" shape-rendering="crispEdges" /><rect width="10" height="10" x="180" y="190" fill="#b87b11" shape-rendering="crispEdges" /><rect width="10" height="10" x="190" y="190" fill="#6b3f39" shape-rendering="crispEdges" /><rect width="10" height="10" x="200" y="190" fill="#b87b11" shape-rendering="crispEdges" /><rect width="10" height="10" x="210" y="190" fill="#6b3f39" shape-rendering="crispEdges" /><rect width="10" height="10" x="240" y="190" fill="#6b3f39" shape-rendering="crispEdges" /><rect width="10" height="10" x="250" y="190" fill="#b87b11" shape-rendering="crispEdges" /><rect width="10" height="10" x="260" y="190" fill="#6b3f39" shape-rendering="crispEdges" /><rect width="10" height="10" x="270" y="190" fill="#b87b11" shape-rendering="crispEdges" /><rect width="10" height="10" x="280" y="190" fill="#6b3f39" shape-rendering="crispEdges" /><rect width="40" height="10" x="20" y="200" fill="#6b3f39" shape-rendering="crispEdges" /><rect width="10" height="10" x="60" y="200" fill="#ffd067" shape-rendering="crispEdges" /><rect width="60" height="10" x="70" y="200" fill="#6b3f39" shape-rendering="crispEdges" /><rect width="10" height="10" x="130" y="200" fill="#ffd067" shape-rendering="crispEdges" /><rect width="60" height="10" x="140" y="200" fill="#6b3f39" shape-rendering="crispEdges" /><rect width="10" height="10" x="200" y="200" fill="#ffd067" shape-rendering="crispEdges" /><rect width="60" height="10" x="210" y="200" fill="#6b3f39" shape-rendering="crispEdges" /><rect width="10" height="10" x="270" y="200" fill="#ffd067" shape-rendering="crispEdges" /><rect width="10" height="10" x="280" y="200" fill="#6b3f39" shape-rendering="crispEdges" /><rect width="40" height="10" x="20" y="210" fill="#ffd067" shape-rendering="crispEdges" /><rect width="10" height="10" x="60" y="210" fill="#6b3f39" shape-rendering="crispEdges" /><rect width="60" height="10" x="70" y="210" fill="#ffd067" shape-rendering="crispEdges" /><rect width="10" height="10" x="130" y="210" fill="#6b3f39" shape-rendering="crispEdges" /><rect width="60" height="10" x="140" y="210" fill="#ffd067" shape-rendering="crispEdges" /><rect width="10" height="10" x="200" y="210" fill="#6b3f39" shape-rendering="crispEdges" /><rect width="60" height="10" x="210" y="210" fill="#ffd067" shape-rendering="crispEdges" /><rect width="10" height="10" x="270" y="210" fill="#6b3f39" shape-rendering="crispEdges" /><rect width="40" height="10" x="20" y="220" fill="#6b3f39" shape-rendering="crispEdges" /><rect width="60" height="10" x="70" y="220" fill="#6b3f39" shape-rendering="crispEdges" /><rect width="60" height="10" x="140" y="220" fill="#6b3f39" shape-rendering="crispEdges" /><rect width="60" height="10" x="210" y="220" fill="#6b3f39" shape-rendering="crispEdges" /></svg>