<svg width="320" height="320" viewBox="0 0 320 320" xmlns="http://www.w3.org/2000/svg" shape-rendering="crispEdges"><rect width="100%" height="100%" fill="none" /><rect width="60" height="10" x="130" y="20" fill="#f938d8" shape-rendering="crispEdges" /><rect width="20" height="10" x="110" y="30" fill="#f938d8" shape-rendering="crispEdges" /><rect width="60" height="10" x="130" y="30" fill="#410d66" shape-rendering="crispEdges" /><rect width="20" height="10" x="190" y="30" fill="#f938d8" shape-rendering="crispEdges" /><rect width="10" height="10" x="100" y="40" fill="#f938d8" shape-rendering="crispEdges" /><rect width="100" height="10" x="110" y="40" fill="#410d66" shape-rendering="crispEdges" /><rect width="10" height="10" x="210" y="40" fill="#f938d8" shape-rendering="crispEdges" /><rect width="10" height="10" x="90" y="50" fill="#f938d8" shape-rendering="crispEdges" /><rect width="70" height="10" x="100" y="50" fill="#410d66" shape-rendering="crispEdges" /><rect width="10" height="10" x="170" y="50" fill="#f938d8" shape-rendering="crispEdges" /><rect width="40" height="10" x="180" y="50" fill="#410d66" shape-rendering="crispEdges" /><rect width="10" height="10" x="220" y="50" fill="#f938d8" shape-rendering="crispEdges" /><rect width="10" height="10" x="80" y="60" fill="#f938d8" shape-rendering="crispEdges" /><rect width="30" height="10" x="90" y="60" fill="#410d66" shape-rendering="crispEdges" /><rect width="10" height="10" x="120" y="60" fill="#f938d8" shape-rendering="crispEdges" /><rect width="100" height="10" x="130" y="60" fill="#410d66" shape-rendering="crispEdges" /><rect width="10" height="10" x="230" y="60" fill="#f938d8" shape-rendering="crispEdges" /><rect width="10" height="10" x="70" y="70" fill="#f938d8" shape-rendering="crispEdges" /><rect width="30" height="10" x="80" y="70" fill="#410d66" shape-rendering="crispEdges" /><rect width="10" height="10" x="110" y="70" fill="#f938d8" shape-rendering="crispEdges" /><rect width="10" height="10" x="120" y="70" fill="#410d66" shape-rendering="crispEdges" /><rect width="10" height="10" x="130" y="70" fill="#f938d8" shape-rendering="crispEdges" /><rect width="50" height="10" x="140" y="70" fill="#410d66" shape-rendering="crispEdges" /><rect width="10" height="10" x="190" y="70" fill="#f938d8" shape-rendering="crispEdges" /><rect width="40" height="10" x="200" y="70" fill="#410d66" shape-rendering="crispEdges" /><rect width="10" height="10" x="240" y="70" fill="#f938d8" shape-rendering="crispEdges" /><rect width="10" height="10" x="70" y="80" fill="#f938d8" shape-rendering="crispEdges" /><rect width="40" height="10" x="80" y="80" fill="#410d66" shape-rendering="crispEdges" /><rect width="10" height="10" x="120" y="80" fill="#f938d8" shape-rendering="crispEdges" /><rect width="50" height="10" x="130" y="80" fill="#410d66" shape-rendering="crispEdges" /><rect width="30" height="10" x="180" y="80" fill="#f938d8" shape-rendering="crispEdges" /><rect width="30" height="10" x="210" y="80" fill="#410d66" shape-rendering="crispEdges" /><rect width="10" height="10" x="240" y="80" fill="#f938d8" shape-rendering="crispEdges" /><rect width="10" height="10" x="60" y="90" fill="#f938d8" shape-rendering="crispEdges" /><rect width="120" height="10" x="70" y="90" fill="#410d66" shape-rendering="crispEdges" /><rect width="10" height="10" x="190" y="90" fill="#f938d8" shape-rendering="crispEdges" /><rect width="50" height="10" x="200" y="90" fill="#410d66" shape-rendering="crispEdges" /><rect width="10" height="10" x="250" y="90" fill="#f938d8" shape-rendering="crispEdges" /><rect width="10" height="10" x="60" y="100" fill="#f938d8" shape-rendering="crispEdges" /><rect width="70" height="10" x="70" y="100" fill="#410d66" shape-rendering="crispEdges" /><rect width="10" height="10" x="140" y="100" fill="#f938d8" shape-rendering="crispEdges" /><rect width="100" height="10" x="150" y="100" fill="#410d66" shape-rendering="crispEdges" /><rect width="10" height="10" x="250" y="100" fill="#f938d8" shape-rendering="crispEdges" /><rect width="10" height="10" x="60" y="110" fill="#f938d8" shape-rendering="crispEdges" /><rect width="180" height="10" x="70" y="110" fill="#410d66" shape-rendering="crispEdges" /><rect width="10" height="10" x="250" y="110" fill="#f938d8" shape-rendering="crispEdges" /><rect width="10" height="10" x="60" y="120" fill="#f938d8" shape-rendering="crispEdges" /><rect width="180" height="10" x="70" y="120" fill="#410d66" shape-rendering="crispEdges" /><rect width="10" height="10" x="250" y="120" fill="#f938d8" shape-rendering="crispEdges" /><rect width="10" height="10" x="60" y="130" fill="#f938d8" shape-rendering="crispEdges" /><rect width="180" height="10" x="70" y="130" fill="#410d66" shape-rendering="crispEdges" /><rect width="10" height="10" x="250" y="130" fill="#f938d8" shape-rendering="crispEdges" /><rect width="10" height="10" x="60" y="140" fill="#f938d8" shape-rendering="crispEdges" /><rect width="180" height="10" x="70" y="140" fill="#410d66" shape-rendering="crispEdges" /><rect width="10" height="10" x="250" y="140" fill="#f938d8" shape-rendering="crispEdges" /><rect width="10" height="10" x="70" y="150" fill="#f938d8" shape-rendering="crispEdges" /><rect width="160" height="10" x="80" y="150" fill="#410d66" shape-rendering="crispEdges" /><rect width="10" height="10" x="240" y="150" fill="#f938d8" shape-rendering="crispEdges" /><rect width="10" height="10" x="70" y="160" fill="#f938d8" shape-rendering="crispEdges" /><rect width="160" height="10" x="80" y="160" fill="#410d66" shape-rendering="crispEdges" /><rect width="10" height="10" x="240" y="160" fill="#f938d8" shape-rendering="crispEdges" /><rect width="10" height="10" x="80" y="170" fill="#f938d8" shape-rendering="crispEdges" /><rect width="140" height="10" x="90" y="170" fill="#410d66" shape-rendering="crispEdges" /><rect width="10" height="10" x="230" y="170" fill="#f938d8" shape-rendering="crispEdges" /><rect width="160" height="10" x="80" y="180" fill="#552d1d" shape-rendering="crispEdges" /><rect width="50" height="10" x="80" y="190" fill="#552d1d" shape-rendering="crispEdges" /><rect width="70" height="10" x="130" y="190" fill="#000000" shape-rendering="crispEdges" /><rect width="40" height="10" x="200" y="190" fill="#552d1d" shape-rendering="crispEdges" /><rect width="160" height="10" x="80" y="200" fill="#552d1d" shape-rendering="crispEdges" /></svg>