<svg width="320" height="320" viewBox="0 0 320 320" xmlns="http://www.w3.org/2000/svg" shape-rendering="crispEdges"><rect width="100%" height="100%" fill="none" /><rect width="200" height="10" x="60" y="70" fill="#1f1d29" shape-rendering="crispEdges" /><rect width="20" height="10" x="50" y="80" fill="#1f1d29" shape-rendering="crispEdges" /><rect width="180" height="10" x="70" y="80" fill="#ffffff" shape-rendering="crispEdges" /><rect width="20" height="10" x="250" y="80" fill="#1f1d29" shape-rendering="crispEdges" /><rect width="20" height="10" x="50" y="90" fill="#1f1d29" shape-rendering="crispEdges" /><rect width="10" height="10" x="70" y="90" fill="#ffffff" shape-rendering="crispEdges" /><rect width="10" height="10" x="80" y="90" fill="#1f1d29" shape-rendering="crispEdges" /><rect width="160" height="10" x="90" y="90" fill="#ffffff" shape-rendering="crispEdges" /><rect width="20" height="10" x="250" y="90" fill="#1f1d29" shape-rendering="crispEdges" /><rect width="10" height="10" x="50" y="100" fill="#1f1d29" shape-rendering="crispEdges" /><rect width="10" height="10" x="60" y="100" fill="#ffffff" shape-rendering="crispEdges" /><rect width="10" height="10" x="70" y="100" fill="#1f1d29" shape-rendering="crispEdges" /><rect width="10" height="10" x="80" y="100" fill="#ffffff" shape-rendering="crispEdges" /><rect width="10" height="10" x="90" y="100" fill="#1f1d29" shape-rendering="crispEdges" /><rect width="160" height="10" x="100" y="100" fill="#ffffff" shape-rendering="crispEdges" /><rect width="10" height="10" x="260" y="100" fill="#1f1d29" shape-rendering="crispEdges" /><rect width="10" height="10" x="50" y="110" fill="#1f1d29" shape-rendering="crispEdges" /><rect width="50" height="10" x="60" y="110" fill="#d6c3be" shape-rendering="crispEdges" /><rect width="10" height="10" x="110" y="110" fill="#ffffff" shape-rendering="crispEdges" /><rect width="30" height="10" x="120" y="110" fill="#d6c3be" shape-rendering="crispEdges" /><rect width="20" height="10" x="150" y="110" fill="#ffffff" shape-rendering="crispEdges" /><rect width="30" height="10" x="170" y="110" fill="#d6c3be" shape-rendering="crispEdges" /><rect width="10" height="10" x="200" y="110" fill="#ffffff" shape-rendering="crispEdges" /><rect width="50" height="10" x="210" y="110" fill="#d6c3be" shape-rendering="crispEdges" /><rect width="10" height="10" x="260" y="110" fill="#1f1d29" shape-rendering="crispEdges" /><rect width="10" height="10" x="50" y="120" fill="#1f1d29" shape-rendering="crispEdges" /><rect width="40" height="10" x="60" y="120" fill="#d6c3be" shape-rendering="crispEdges" /><rect width="30" height="10" x="100" y="120" fill="#ffffff" shape-rendering="crispEdges" /><rect width="30" height="10" x="130" y="120" fill="#d6c3be" shape-rendering="crispEdges" /><rect width="10" height="10" x="160" y="120" fill="#ffffff" shape-rendering="crispEdges" /><rect width="20" height="10" x="170" y="120" fill="#d6c3be" shape-rendering="crispEdges" /><rect width="30" height="10" x="190" y="120" fill="#ffffff" shape-rendering="crispEdges" /><rect width="40" height="10" x="220" y="120" fill="#d6c3be" shape-rendering="crispEdges" /><rect width="10" height="10" x="260" y="120" fill="#1f1d29" shape-rendering="crispEdges" /><rect width="10" height="10" x="50" y="130" fill="#1f1d29" shape-rendering="crispEdges" /><rect width="40" height="10" x="60" y="130" fill="#d6c3be" shape-rendering="crispEdges" /><rect width="30" height="10" x="100" y="130" fill="#ffffff" shape-rendering="crispEdges" /><rect width="30" height="10" x="130" y="130" fill="#d6c3be" shape-rendering="crispEdges" /><rect width="10" height="10" x="160" y="130" fill="#ffffff" shape-rendering="crispEdges" /><rect width="20" height="10" x="170" y="130" fill="#d6c3be" shape-rendering="crispEdges" /><rect width="30" height="10" x="190" y="130" fill="#ffffff" shape-rendering="crispEdges" /><rect width="40" height="10" x="220" y="130" fill="#d6c3be" shape-rendering="crispEdges" /><rect width="10" height="10" x="260" y="130" fill="#1f1d29" shape-rendering="crispEdges" /><rect width="10" height="10" x="50" y="140" fill="#1f1d29" shape-rendering="crispEdges" /><rect width="50" height="10" x="60" y="140" fill="#d6c3be" shape-rendering="crispEdges" /><rect width="10" height="10" x="110" y="140" fill="#ffffff" shape-rendering="crispEdges" /><rect width="30" height="10" x="120" y="140" fill="#d6c3be" shape-rendering="crispEdges" /><rect width="20" height="10" x="150" y="140" fill="#ffffff" shape-rendering="crispEdges" /><rect width="30" height="10" x="170" y="140" fill="#d6c3be" shape-rendering="crispEdges" /><rect width="10" height="10" x="200" y="140" fill="#ffffff" shape-rendering="crispEdges" /><rect width="50" height="10" x="210" y="140" fill="#d6c3be" shape-rendering="crispEdges" /><rect width="10" height="10" x="260" y="140" fill="#1f1d29" shape-rendering="crispEdges" /><rect width="10" height="10" x="50" y="150" fill="#1f1d29" shape-rendering="crispEdges" /><rect width="200" height="10" x="60" y="150" fill="#d6c3be" shape-rendering="crispEdges" /><rect width="10" height="10" x="260" y="150" fill="#1f1d29" shape-rendering="crispEdges" /><rect width="10" height="10" x="50" y="160" fill="#1f1d29" shape-rendering="crispEdges" /><rect width="200" height="10" x="60" y="160" fill="#ffc110" shape-rendering="crispEdges" /><rect width="10" height="10" x="260" y="160" fill="#1f1d29" shape-rendering="crispEdges" /><rect width="10" height="10" x="50" y="170" fill="#1f1d29" shape-rendering="crispEdges" /><rect width="200" height="10" x="60" y="170" fill="#ffc110" shape-rendering="crispEdges" /><rect width="10" height="10" x="260" y="170" fill="#1f1d29" shape-rendering="crispEdges" /><rect width="60" height="10" x="50" y="180" fill="#4b4949" shape-rendering="crispEdges" /><rect width="100" height="10" x="110" y="180" fill="#62616d" shape-rendering="crispEdges" /><rect width="60" height="10" x="210" y="180" fill="#4b4949" shape-rendering="crispEdges" /><rect width="50" height="10" x="50" y="190" fill="#4b4949" shape-rendering="crispEdges" /><rect width="20" height="10" x="100" y="190" fill="#62616d" shape-rendering="crispEdges" /><rect width="60" height="10" x="130" y="190" fill="#62616d" shape-rendering="crispEdges" /><rect width="20" height="10" x="200" y="190" fill="#62616d" shape-rendering="crispEdges" /><rect width="50" height="10" x="220" y="190" fill="#4b4949" shape-rendering="crispEdges" /><rect width="40" height="10" x="50" y="200" fill="#4b4949" shape-rendering="crispEdges" /><rect width="140" height="10" x="90" y="200" fill="#62616d" shape-rendering="crispEdges" /><rect width="40" height="10" x="230" y="200" fill="#4b4949" shape-rendering="crispEdges" /></svg>