<svg width="320" height="320" viewBox="0 0 320 320" xmlns="http://www.w3.org/2000/svg" shape-rendering="crispEdges"><rect width="100%" height="100%" fill="none" /><rect width="20" height="10" x="150" y="10" fill="#343235" shape-rendering="crispEdges" /><rect width="20" height="10" x="150" y="20" fill="#343235" shape-rendering="crispEdges" /><rect width="80" height="10" x="120" y="30" fill="#343235" shape-rendering="crispEdges" /><rect width="120" height="10" x="100" y="40" fill="#343235" shape-rendering="crispEdges" /><rect width="140" height="10" x="90" y="50" fill="#343235" shape-rendering="crispEdges" /><rect width="160" height="10" x="80" y="60" fill="#62616d" shape-rendering="crispEdges" /><rect width="80" height="10" x="80" y="70" fill="#62616d" shape-rendering="crispEdges" /><rect width="10" height="10" x="160" y="70" fill="#fffdf2" shape-rendering="crispEdges" /><rect width="10" height="10" x="170" y="70" fill="#62616d" shape-rendering="crispEdges" /><rect width="30" height="10" x="180" y="70" fill="#fffdf2" shape-rendering="crispEdges" /><rect width="30" height="10" x="210" y="70" fill="#62616d" shape-rendering="crispEdges" /><rect width="160" height="10" x="80" y="80" fill="#62616d" shape-rendering="crispEdges" /><rect width="140" height="10" x="90" y="90" fill="#2b83f6" shape-rendering="crispEdges" /><rect width="140" height="10" x="90" y="100" fill="#2b83f6" shape-rendering="crispEdges" /><rect width="160" height="10" x="80" y="110" fill="#2b83f6" shape-rendering="crispEdges" /><rect width="160" height="10" x="80" y="120" fill="#2b83f6" shape-rendering="crispEdges" /><rect width="160" height="10" x="80" y="130" fill="#2b83f6" shape-rendering="crispEdges" /><rect width="180" height="10" x="70" y="140" fill="#2b83f6" shape-rendering="crispEdges" /><rect width="180" height="10" x="70" y="150" fill="#2b83f6" shape-rendering="crispEdges" /><rect width="180" height="10" x="70" y="160" fill="#2b83f6" shape-rendering="crispEdges" /><rect width="200" height="10" x="60" y="170" fill="#2b83f6" shape-rendering="crispEdges" /><rect width="200" height="10" x="60" y="180" fill="#2b83f6" shape-rendering="crispEdges" /><rect width="200" height="10" x="60" y="190" fill="#2b83f6" shape-rendering="crispEdges" /><rect width="220" height="10" x="50" y="200" fill="#2b83f6" shape-rendering="crispEdges" /><rect width="10" height="10" x="50" y="210" fill="#2b83f6" shape-rendering="crispEdges" /><rect width="10" height="10" x="70" y="210" fill="#2b83f6" shape-rendering="crispEdges" /><rect width="10" height="10" x="240" y="210" fill="#2b83f6" shape-rendering="crispEdges" /><rect width="10" height="10" x="260" y="210" fill="#2b83f6" shape-rendering="crispEdges" /><rect width="40" height="10" x="50" y="220" fill="#2b83f6" shape-rendering="crispEdges" /><rect width="40" height="10" x="230" y="220" fill="#2b83f6" shape-rendering="crispEdges" /><rect width="10" height="10" x="40" y="230" fill="#2b83f6" shape-rendering="crispEdges" /><rect width="10" height="10" x="60" y="230" fill="#2b83f6" shape-rendering="crispEdges" /><rect width="10" height="10" x="80" y="230" fill="#2b83f6" shape-rendering="crispEdges" /><rect width="10" height="10" x="230" y="230" fill="#2b83f6" shape-rendering="crispEdges" /><rect width="10" height="10" x="250" y="230" fill="#2b83f6" shape-rendering="crispEdges" /><rect width="10" height="10" x="270" y="230" fill="#2b83f6" shape-rendering="crispEdges" /><rect width="10" height="10" x="50" y="250" fill="#2b83f6" shape-rendering="crispEdges" /><rect width="10" height="10" x="70" y="250" fill="#2b83f6" shape-rendering="crispEdges" /><rect width="10" height="10" x="240" y="250" fill="#2b83f6" shape-rendering="crispEdges" /><rect width="10" height="10" x="260" y="250" fill="#2b83f6" shape-rendering="crispEdges" /></svg>