<svg width="320" height="320" viewBox="0 0 320 320" xmlns="http://www.w3.org/2000/svg" shape-rendering="crispEdges"><rect width="100%" height="100%" fill="none" /><rect width="140" height="10" x="90" y="70" fill="#fff0ee" shape-rendering="crispEdges" /><rect width="20" height="10" x="70" y="80" fill="#fff0ee" shape-rendering="crispEdges" /><rect width="60" height="10" x="90" y="80" fill="#d22209" shape-rendering="crispEdges" /><rect width="30" height="10" x="150" y="80" fill="#f38b7c" shape-rendering="crispEdges" /><rect width="50" height="10" x="180" y="80" fill="#d22209" shape-rendering="crispEdges" /><rect width="20" height="10" x="230" y="80" fill="#fff0ee" shape-rendering="crispEdges" /><rect width="10" height="10" x="60" y="90" fill="#fff0ee" shape-rendering="crispEdges" /><rect width="90" height="10" x="70" y="90" fill="#d22209" shape-rendering="crispEdges" /><rect width="10" height="10" x="160" y="90" fill="#f38b7c" shape-rendering="crispEdges" /><rect width="80" height="10" x="170" y="90" fill="#d22209" shape-rendering="crispEdges" /><rect width="10" height="10" x="250" y="90" fill="#fff0ee" shape-rendering="crispEdges" /><rect width="10" height="10" x="60" y="100" fill="#fff0ee" shape-rendering="crispEdges" /><rect width="90" height="10" x="70" y="100" fill="#d22209" shape-rendering="crispEdges" /><rect width="10" height="10" x="160" y="100" fill="#f38b7c" shape-rendering="crispEdges" /><rect width="80" height="10" x="170" y="100" fill="#d22209" shape-rendering="crispEdges" /><rect width="10" height="10" x="250" y="100" fill="#fff0ee" shape-rendering="crispEdges" /><rect width="10" height="10" x="50" y="110" fill="#fff0ee" shape-rendering="crispEdges" /><rect width="100" height="10" x="60" y="110" fill="#d22209" shape-rendering="crispEdges" /><rect width="10" height="10" x="160" y="110" fill="#f38b7c" shape-rendering="crispEdges" /><rect width="90" height="10" x="170" y="110" fill="#d22209" shape-rendering="crispEdges" /><rect width="10" height="10" x="260" y="110" fill="#fff0ee" shape-rendering="crispEdges" /><rect width="10" height="10" x="50" y="120" fill="#fff0ee" shape-rendering="crispEdges" /><rect width="100" height="10" x="60" y="120" fill="#d22209" shape-rendering="crispEdges" /><rect width="10" height="10" x="160" y="120" fill="#f38b7c" shape-rendering="crispEdges" /><rect width="90" height="10" x="170" y="120" fill="#d22209" shape-rendering="crispEdges" /><rect width="10" height="10" x="260" y="120" fill="#fff0ee" shape-rendering="crispEdges" /><rect width="10" height="10" x="50" y="130" fill="#fff0ee" shape-rendering="crispEdges" /><rect width="100" height="10" x="60" y="130" fill="#d22209" shape-rendering="crispEdges" /><rect width="10" height="10" x="160" y="130" fill="#f38b7c" shape-rendering="crispEdges" /><rect width="90" height="10" x="170" y="130" fill="#d22209" shape-rendering="crispEdges" /><rect width="10" height="10" x="260" y="130" fill="#fff0ee" shape-rendering="crispEdges" /><rect width="10" height="10" x="50" y="140" fill="#fff0ee" shape-rendering="crispEdges" /><rect width="100" height="10" x="60" y="140" fill="#d22209" shape-rendering="crispEdges" /><rect width="10" height="10" x="160" y="140" fill="#f38b7c" shape-rendering="crispEdges" /><rect width="90" height="10" x="170" y="140" fill="#d22209" shape-rendering="crispEdges" /><rect width="10" height="10" x="260" y="140" fill="#fff0ee" shape-rendering="crispEdges" /><rect width="10" height="10" x="50" y="150" fill="#fff0ee" shape-rendering="crispEdges" /><rect width="100" height="10" x="60" y="150" fill="#d22209" shape-rendering="crispEdges" /><rect width="10" height="10" x="160" y="150" fill="#f38b7c" shape-rendering="crispEdges" /><rect width="90" height="10" x="170" y="150" fill="#d22209" shape-rendering="crispEdges" /><rect width="10" height="10" x="260" y="150" fill="#fff0ee" shape-rendering="crispEdges" /><rect width="10" height="10" x="50" y="160" fill="#fff0ee" shape-rendering="crispEdges" /><rect width="10" height="10" x="60" y="160" fill="#f38b7c" shape-rendering="crispEdges" /><rect width="90" height="10" x="70" y="160" fill="#d22209" shape-rendering="crispEdges" /><rect width="10" height="10" x="160" y="160" fill="#f38b7c" shape-rendering="crispEdges" /><rect width="90" height="10" x="170" y="160" fill="#d22209" shape-rendering="crispEdges" /><rect width="10" height="10" x="260" y="160" fill="#fff0ee" shape-rendering="crispEdges" /><rect width="20" height="10" x="50" y="170" fill="#fff0ee" shape-rendering="crispEdges" /><rect width="20" height="10" x="70" y="170" fill="#f38b7c" shape-rendering="crispEdges" /><rect width="50" height="10" x="90" y="170" fill="#d22209" shape-rendering="crispEdges" /><rect width="30" height="10" x="140" y="170" fill="#f38b7c" shape-rendering="crispEdges" /><rect width="10" height="10" x="170" y="170" fill="#d22209" shape-rendering="crispEdges" /><rect width="30" height="10" x="180" y="170" fill="#fff0ee" shape-rendering="crispEdges" /><rect width="50" height="10" x="210" y="170" fill="#d22209" shape-rendering="crispEdges" /><rect width="10" height="10" x="260" y="170" fill="#fff0ee" shape-rendering="crispEdges" /><rect width="30" height="10" x="60" y="180" fill="#fff0ee" shape-rendering="crispEdges" /><rect width="80" height="10" x="90" y="180" fill="#f38b7c" shape-rendering="crispEdges" /><rect width="10" height="10" x="170" y="180" fill="#d22209" shape-rendering="crispEdges" /><rect width="10" height="10" x="180" y="180" fill="#fff0ee" shape-rendering="crispEdges" /><rect width="10" height="10" x="190" y="180" fill="#f38b7c" shape-rendering="crispEdges" /><rect width="10" height="10" x="200" y="180" fill="#fff0ee" shape-rendering="crispEdges" /><rect width="40" height="10" x="210" y="180" fill="#d22209" shape-rendering="crispEdges" /><rect width="20" height="10" x="250" y="180" fill="#fff0ee" shape-rendering="crispEdges" /><rect width="80" height="10" x="70" y="190" fill="#fff0ee" shape-rendering="crispEdges" /><rect width="20" height="10" x="150" y="190" fill="#f38b7c" shape-rendering="crispEdges" /><rect width="10" height="10" x="170" y="190" fill="#d22209" shape-rendering="crispEdges" /><rect width="30" height="10" x="180" y="190" fill="#fff0ee" shape-rendering="crispEdges" /><rect width="40" height="10" x="210" y="190" fill="#d22209" shape-rendering="crispEdges" /><rect width="10" height="10" x="250" y="190" fill="#fff0ee" shape-rendering="crispEdges" /><rect width="70" height="10" x="90" y="200" fill="#fff0ee" shape-rendering="crispEdges" /><rect width="20" height="10" x="160" y="200" fill="#f38b7c" shape-rendering="crispEdges" /><rect width="50" height="10" x="180" y="200" fill="#d22209" shape-rendering="crispEdges" /><rect width="30" height="10" x="230" y="200" fill="#fff0ee" shape-rendering="crispEdges" /><rect width="100" height="10" x="150" y="210" fill="#fff0ee" shape-rendering="crispEdges" /><rect width="70" height="10" x="160" y="220" fill="#fff0ee" shape-rendering="crispEdges" /></svg>