<svg width="320" height="320" viewBox="0 0 320 320" xmlns="http://www.w3.org/2000/svg" shape-rendering="crispEdges"><rect width="100%" height="100%" fill="none" /><rect width="10" height="10" x="70" y="40" fill="#eab118" shape-rendering="crispEdges" /><rect width="20" height="10" x="150" y="40" fill="#eab118" shape-rendering="crispEdges" /><rect width="10" height="10" x="240" y="40" fill="#eab118" shape-rendering="crispEdges" /><rect width="10" height="10" x="70" y="50" fill="#eab118" shape-rendering="crispEdges" /><rect width="20" height="10" x="150" y="50" fill="#eab118" shape-rendering="crispEdges" /><rect width="10" height="10" x="240" y="50" fill="#eab118" shape-rendering="crispEdges" /><rect width="20" height="10" x="70" y="60" fill="#eab118" shape-rendering="crispEdges" /><rect width="40" height="10" x="140" y="60" fill="#eab118" shape-rendering="crispEdges" /><rect width="20" height="10" x="230" y="60" fill="#eab118" shape-rendering="crispEdges" /><rect width="20" height="10" x="60" y="70" fill="#257ced" shape-rendering="crispEdges" /><rect width="10" height="10" x="80" y="70" fill="#db8323" shape-rendering="crispEdges" /><rect width="10" height="10" x="90" y="70" fill="#eab118" shape-rendering="crispEdges" /><rect width="10" height="10" x="130" y="70" fill="#eab118" shape-rendering="crispEdges" /><rect width="40" height="10" x="140" y="70" fill="#34ac80" shape-rendering="crispEdges" /><rect width="10" height="10" x="180" y="70" fill="#eab118" shape-rendering="crispEdges" /><rect width="10" height="10" x="220" y="70" fill="#eab118" shape-rendering="crispEdges" /><rect width="10" height="10" x="230" y="70" fill="#db8323" shape-rendering="crispEdges" /><rect width="20" height="10" x="240" y="70" fill="#ff1a0b" shape-rendering="crispEdges" /><rect width="10" height="10" x="60" y="80" fill="#257ced" shape-rendering="crispEdges" /><rect width="10" height="10" x="70" y="80" fill="#00499c" shape-rendering="crispEdges" /><rect width="10" height="10" x="80" y="80" fill="#db8323" shape-rendering="crispEdges" /><rect width="20" height="10" x="90" y="80" fill="#eab118" shape-rendering="crispEdges" /><rect width="20" height="10" x="120" y="80" fill="#eab118" shape-rendering="crispEdges" /><rect width="10" height="10" x="140" y="80" fill="#34ac80" shape-rendering="crispEdges" /><rect width="20" height="10" x="150" y="80" fill="#42ffb0" shape-rendering="crispEdges" /><rect width="10" height="10" x="170" y="80" fill="#068940" shape-rendering="crispEdges" /><rect width="20" height="10" x="180" y="80" fill="#eab118" shape-rendering="crispEdges" /><rect width="20" height="10" x="210" y="80" fill="#eab118" shape-rendering="crispEdges" /><rect width="10" height="10" x="230" y="80" fill="#db8323" shape-rendering="crispEdges" /><rect width="10" height="10" x="240" y="80" fill="#d22209" shape-rendering="crispEdges" /><rect width="10" height="10" x="250" y="80" fill="#ff1a0b" shape-rendering="crispEdges" /><rect width="20" height="10" x="60" y="90" fill="#00499c" shape-rendering="crispEdges" /><rect width="10" height="10" x="80" y="90" fill="#db8323" shape-rendering="crispEdges" /><rect width="50" height="10" x="90" y="90" fill="#eab118" shape-rendering="crispEdges" /><rect width="20" height="10" x="140" y="90" fill="#34ac80" shape-rendering="crispEdges" /><rect width="20" height="10" x="160" y="90" fill="#068940" shape-rendering="crispEdges" /><rect width="50" height="10" x="180" y="90" fill="#eab118" shape-rendering="crispEdges" /><rect width="10" height="10" x="230" y="90" fill="#db8323" shape-rendering="crispEdges" /><rect width="20" height="10" x="240" y="90" fill="#d22209" shape-rendering="crispEdges" /><rect width="180" height="10" x="70" y="100" fill="#eab118" shape-rendering="crispEdges" /><rect width="180" height="10" x="70" y="110" fill="#eab118" shape-rendering="crispEdges" /><rect width="180" height="10" x="70" y="120" fill="#eab118" shape-rendering="crispEdges" /><rect width="180" height="10" x="70" y="130" fill="#eab118" shape-rendering="crispEdges" /><rect width="180" height="10" x="70" y="140" fill="#eab118" shape-rendering="crispEdges" /><rect width="180" height="10" x="70" y="150" fill="#eab118" shape-rendering="crispEdges" /><rect width="180" height="10" x="70" y="160" fill="#eab118" shape-rendering="crispEdges" /><rect width="180" height="10" x="70" y="170" fill="#eab118" shape-rendering="crispEdges" /><rect width="10" height="10" x="80" y="180" fill="#6e3206" shape-rendering="crispEdges" /><rect width="50" height="10" x="90" y="180" fill="#db8323" shape-rendering="crispEdges" /><rect width="40" height="10" x="140" y="180" fill="#6e3206" shape-rendering="crispEdges" /><rect width="50" height="10" x="180" y="180" fill="#db8323" shape-rendering="crispEdges" /><rect width="10" height="10" x="230" y="180" fill="#6e3206" shape-rendering="crispEdges" /><rect width="180" height="10" x="70" y="190" fill="#eab118" shape-rendering="crispEdges" /><rect width="180" height="10" x="70" y="200" fill="#eab118" shape-rendering="crispEdges" /></svg>