<svg width="320" height="320" viewBox="0 0 320 320" xmlns="http://www.w3.org/2000/svg" shape-rendering="crispEdges"><rect width="100%" height="100%" fill="none" /><rect width="50" height="10" x="100" y="60" fill="#4bea69" shape-rendering="crispEdges" /><rect width="40" height="10" x="180" y="60" fill="#4bea69" shape-rendering="crispEdges" /><rect width="70" height="10" x="90" y="70" fill="#4bea69" shape-rendering="crispEdges" /><rect width="60" height="10" x="170" y="70" fill="#4bea69" shape-rendering="crispEdges" /><rect width="40" height="10" x="80" y="80" fill="#4bea69" shape-rendering="crispEdges" /><rect width="20" height="10" x="120" y="80" fill="#068940" shape-rendering="crispEdges" /><rect width="100" height="10" x="140" y="80" fill="#4bea69" shape-rendering="crispEdges" /><rect width="40" height="10" x="80" y="90" fill="#4bea69" shape-rendering="crispEdges" /><rect width="20" height="10" x="120" y="90" fill="#068940" shape-rendering="crispEdges" /><rect width="100" height="10" x="140" y="90" fill="#4bea69" shape-rendering="crispEdges" /><rect width="130" height="10" x="80" y="100" fill="#4bea69" shape-rendering="crispEdges" /><rect width="20" height="10" x="210" y="100" fill="#068940" shape-rendering="crispEdges" /><rect width="10" height="10" x="230" y="100" fill="#4bea69" shape-rendering="crispEdges" /><rect width="130" height="10" x="80" y="110" fill="#4bea69" shape-rendering="crispEdges" /><rect width="20" height="10" x="210" y="110" fill="#068940" shape-rendering="crispEdges" /><rect width="10" height="10" x="230" y="110" fill="#4bea69" shape-rendering="crispEdges" /><rect width="160" height="10" x="80" y="120" fill="#4bea69" shape-rendering="crispEdges" /><rect width="160" height="10" x="80" y="130" fill="#4bea69" shape-rendering="crispEdges" /><rect width="20" height="10" x="80" y="140" fill="#068940" shape-rendering="crispEdges" /><rect width="140" height="10" x="100" y="140" fill="#4bea69" shape-rendering="crispEdges" /><rect width="10" height="10" x="70" y="150" fill="#4bea69" shape-rendering="crispEdges" /><rect width="20" height="10" x="80" y="150" fill="#068940" shape-rendering="crispEdges" /><rect width="150" height="10" x="100" y="150" fill="#4bea69" shape-rendering="crispEdges" /><rect width="180" height="10" x="70" y="160" fill="#4bea69" shape-rendering="crispEdges" /><rect width="180" height="10" x="70" y="170" fill="#4bea69" shape-rendering="crispEdges" /><rect width="180" height="10" x="70" y="180" fill="#70e890" shape-rendering="crispEdges" /><rect width="20" height="10" x="70" y="190" fill="#70e890" shape-rendering="crispEdges" /><rect width="140" height="10" x="90" y="190" fill="#0b5027" shape-rendering="crispEdges" /><rect width="20" height="10" x="230" y="190" fill="#70e890" shape-rendering="crispEdges" /><rect width="160" height="10" x="80" y="200" fill="#70e890" shape-rendering="crispEdges" /></svg>