<svg id="svg" version="1.1" xmlns="http://www.w3.org/2000/svg" xmlns:xlink="http://www.w3.org/1999/xlink" width="400" height="400" viewBox="0, 0, 400,400"><g id="svgg"><path id="path0" d="M100.000 93.750 L 100.000 112.500 200.000 112.500 L 300.000 112.500 300.000 93.750 L 300.000 75.000 200.000 75.000 L 100.000 75.000 100.000 93.750 M287.500 93.750 L 287.500 100.000 200.000 100.000 L 112.500 100.000 112.500 93.750 L 112.500 87.500 200.000 87.500 L 287.500 87.500 287.500 93.750 M100.000 193.750 L 100.000 262.500 118.750 262.500 L 137.500 262.500 137.500 237.500 L 137.500 212.500 200.000 212.500 L 262.500 212.500 262.500 237.500 L 262.500 262.500 281.250 262.500 L 300.000 262.500 300.000 193.750 L 300.000 125.000 200.000 125.000 L 100.000 125.000 100.000 193.750 M50.000 193.750 L 50.000 237.500 68.750 237.500 L 87.500 237.500 87.500 193.750 L 87.500 150.000 68.750 150.000 L 50.000 150.000 50.000 193.750 M312.500 193.750 L 312.500 237.500 331.250 237.500 L 350.000 237.500 350.000 193.750 L 350.000 150.000 331.250 150.000 L 312.500 150.000 312.500 193.750 M75.000 193.750 L 75.000 225.000 68.750 225.000 L 62.500 225.000 62.500 193.750 L 62.500 162.500 68.750 162.500 L 75.000 162.500 75.000 193.750 M337.500 193.750 L 337.500 225.000 331.250 225.000 L 325.000 225.000 325.000 193.750 L 325.000 162.500 331.250 162.500 L 337.500 162.500 337.500 193.750 M150.000 231.250 L 150.000 237.500 156.250 237.500 L 162.500 237.500 162.500 243.750 L 162.500 250.000 168.750 250.000 L 175.000 250.000 175.000 243.750 L 175.000 237.500 181.250 237.500 L 187.500 237.500 187.500 243.750 L 187.500 250.000 193.750 250.000 L 200.000 250.000 200.000 243.750 L 200.000 237.500 206.250 237.500 L 212.500 237.500 212.500 243.750 L 212.500 250.000 218.750 250.000 L 225.000 250.000 225.000 243.750 L 225.000 237.500 231.250 237.500 L 237.500 237.500 237.500 243.750 L 237.500 250.000 243.750 250.000 L 250.000 250.000 250.000 243.750 L 250.000 237.500 243.750 237.500 L 237.500 237.500 237.500 231.250 L 237.500 225.000 231.250 225.000 L 225.000 225.000 225.000 231.250 L 225.000 237.500 218.750 237.500 L 212.500 237.500 212.500 231.250 L 212.500 225.000 206.250 225.000 L 200.000 225.000 200.000 231.250 L 200.000 237.500 193.750 237.500 L 187.500 237.500 187.500 231.250 L 187.500 225.000 181.250 225.000 L 175.000 225.000 175.000 231.250 L 175.000 237.500 168.750 237.500 L 162.500 237.500 162.500 231.250 L 162.500 225.000 156.250 225.000 L 150.000 225.000 150.000 231.250 " stroke="none" fill="#847c7c" fill-rule="evenodd"></path><path id="path1" d="M137.500 118.750 L 137.500 125.000 143.750 125.000 L 150.000 125.000 150.000 118.750 L 150.000 112.500 143.750 112.500 L 137.500 112.500 137.500 118.750 M175.000 118.750 L 175.000 125.000 181.250 125.000 L 187.500 125.000 187.500 118.750 L 187.500 112.500 181.250 112.500 L 175.000 112.500 175.000 118.750 M212.500 118.750 L 212.500 125.000 218.750 125.000 L 225.000 125.000 225.000 118.750 L 225.000 112.500 218.750 112.500 L 212.500 112.500 212.500 118.750 M250.000 118.750 L 250.000 125.000 256.250 125.000 L 262.500 125.000 262.500 118.750 L 262.500 112.500 256.250 112.500 L 250.000 112.500 250.000 118.750 M87.500 168.750 L 87.500 175.000 93.750 175.000 L 100.000 175.000 100.000 168.750 L 100.000 162.500 93.750 162.500 L 87.500 162.500 87.500 168.750 M300.000 168.750 L 300.000 175.000 306.250 175.000 L 312.500 175.000 312.500 168.750 L 312.500 162.500 306.250 162.500 L 300.000 162.500 300.000 168.750 M87.500 193.750 L 87.500 200.000 93.750 200.000 L 100.000 200.000 100.000 193.750 L 100.000 187.500 93.750 187.500 L 87.500 187.500 87.500 193.750 M300.000 193.750 L 300.000 200.000 306.250 200.000 L 312.500 200.000 312.500 193.750 L 312.500 187.500 306.250 187.500 L 300.000 187.500 300.000 193.750 M87.500 218.750 L 87.500 225.000 93.750 225.000 L 100.000 225.000 100.000 218.750 L 100.000 212.500 93.750 212.500 L 87.500 212.500 87.500 218.750 M137.500 237.500 L 137.500 262.500 200.000 262.500 L 262.500 262.500 262.500 237.500 L 262.500 212.500 200.000 212.500 L 137.500 212.500 137.500 237.500 M300.000 218.750 L 300.000 225.000 306.250 225.000 L 312.500 225.000 312.500 218.750 L 312.500 212.500 306.250 212.500 L 300.000 212.500 300.000 218.750 M250.000 237.500 L 250.000 250.000 200.000 250.000 L 150.000 250.000 150.000 237.500 L 150.000 225.000 200.000 225.000 L 250.000 225.000 250.000 237.500 " stroke="none" fill="#231c37" fill-rule="evenodd"></path><path id="path2" d="M112.500 93.750 L 112.500 100.000 200.000 100.000 L 287.500 100.000 287.500 93.750 L 287.500 87.500 200.000 87.500 L 112.500 87.500 112.500 93.750 M62.500 193.750 L 62.500 225.000 68.750 225.000 L 75.000 225.000 75.000 193.750 L 75.000 162.500 68.750 162.500 L 62.500 162.500 62.500 193.750 M325.000 193.750 L 325.000 225.000 331.250 225.000 L 337.500 225.000 337.500 193.750 L 337.500 162.500 331.250 162.500 L 325.000 162.500 325.000 193.750 M162.500 231.250 L 162.500 237.500 156.250 237.500 L 150.000 237.500 150.000 243.750 L 150.000 250.000 156.250 250.000 L 162.500 250.000 162.500 243.750 L 162.500 237.500 168.750 237.500 L 175.000 237.500 175.000 243.750 L 175.000 250.000 181.250 250.000 L 187.500 250.000 187.500 243.750 L 187.500 237.500 193.750 237.500 L 200.000 237.500 200.000 243.750 L 200.000 250.000 206.250 250.000 L 212.500 250.000 212.500 243.750 L 212.500 237.500 218.750 237.500 L 225.000 237.500 225.000 243.750 L 225.000 250.000 231.250 250.000 L 237.500 250.000 237.500 243.750 L 237.500 237.500 243.750 237.500 L 250.000 237.500 250.000 231.250 L 250.000 225.000 243.750 225.000 L 237.500 225.000 237.500 231.250 L 237.500 237.500 231.250 237.500 L 225.000 237.500 225.000 231.250 L 225.000 225.000 218.750 225.000 L 212.500 225.000 212.500 231.250 L 212.500 237.500 206.250 237.500 L 200.000 237.500 200.000 231.250 L 200.000 225.000 193.750 225.000 L 187.500 225.000 187.500 231.250 L 187.500 237.500 181.250 237.500 L 175.000 237.500 175.000 231.250 L 175.000 225.000 168.750 225.000 L 162.500 225.000 162.500 231.250 " stroke="none" fill="#b4b4b4" fill-rule="evenodd"></path><path id="path3" d="M125.000 68.750 L 125.000 75.000 131.250 75.000 L 137.500 75.000 137.500 68.750 L 137.500 62.500 131.250 62.500 L 125.000 62.500 125.000 68.750 " stroke="none" fill="#fcf404" fill-rule="evenodd"></path><path id="path4" d="M262.500 68.750 L 262.500 75.000 268.750 75.000 L 275.000 75.000 275.000 68.750 L 275.000 62.500 268.750 62.500 L 262.500 62.500 262.500 68.750 " stroke="none" fill="#fc0c04" fill-rule="evenodd"></path><path id="path5" d="M62.500 143.750 L 62.500 150.000 68.750 150.000 L 75.000 150.000 75.000 143.750 L 75.000 137.500 68.750 137.500 L 62.500 137.500 62.500 143.750 M325.000 143.750 L 325.000 150.000 331.250 150.000 L 337.500 150.000 337.500 143.750 L 337.500 137.500 331.250 137.500 L 325.000 137.500 325.000 143.750 " stroke="none" fill="#0404fc" fill-rule="evenodd"></path><path id="path6" d="" stroke="none" fill="#809c58" fill-rule="evenodd"></path><path id="path7" d="" stroke="none" fill="#804098" fill-rule="evenodd"></path><path id="path8" d="" stroke="none" fill="#a44040" fill-rule="evenodd"></path></g></svg>