<svg width="320" height="320" viewBox="0 0 320 320" xmlns="http://www.w3.org/2000/svg" shape-rendering="crispEdges"><rect width="100%" height="100%" fill="none" /><rect width="140" height="10" x="90" y="30" fill="#62616d" shape-rendering="crispEdges" /><rect width="140" height="10" x="90" y="40" fill="#62616d" shape-rendering="crispEdges" /><rect width="180" height="10" x="70" y="50" fill="#807f7e" shape-rendering="crispEdges" /><rect width="10" height="10" x="70" y="60" fill="#807f7e" shape-rendering="crispEdges" /><rect width="10" height="10" x="80" y="60" fill="#62616d" shape-rendering="crispEdges" /><rect width="20" height="10" x="90" y="60" fill="#807f7e" shape-rendering="crispEdges" /><rect width="10" height="10" x="110" y="60" fill="#62616d" shape-rendering="crispEdges" /><rect width="20" height="10" x="120" y="60" fill="#807f7e" shape-rendering="crispEdges" /><rect width="10" height="10" x="140" y="60" fill="#62616d" shape-rendering="crispEdges" /><rect width="20" height="10" x="150" y="60" fill="#807f7e" shape-rendering="crispEdges" /><rect width="10" height="10" x="170" y="60" fill="#62616d" shape-rendering="crispEdges" /><rect width="20" height="10" x="180" y="60" fill="#807f7e" shape-rendering="crispEdges" /><rect width="10" height="10" x="200" y="60" fill="#62616d" shape-rendering="crispEdges" /><rect width="20" height="10" x="210" y="60" fill="#807f7e" shape-rendering="crispEdges" /><rect width="10" height="10" x="230" y="60" fill="#62616d" shape-rendering="crispEdges" /><rect width="10" height="10" x="240" y="60" fill="#807f7e" shape-rendering="crispEdges" /><rect width="180" height="10" x="70" y="70" fill="#807f7e" shape-rendering="crispEdges" /><rect width="180" height="10" x="70" y="80" fill="#807f7e" shape-rendering="crispEdges" /><rect width="10" height="10" x="70" y="90" fill="#807f7e" shape-rendering="crispEdges" /><rect width="160" height="10" x="80" y="90" fill="#62616d" shape-rendering="crispEdges" /><rect width="10" height="10" x="240" y="90" fill="#807f7e" shape-rendering="crispEdges" /><rect width="10" height="10" x="50" y="100" fill="#807f7e" shape-rendering="crispEdges" /><rect width="180" height="10" x="70" y="100" fill="#807f7e" shape-rendering="crispEdges" /><rect width="10" height="10" x="50" y="110" fill="#807f7e" shape-rendering="crispEdges" /><rect width="180" height="10" x="70" y="110" fill="#807f7e" shape-rendering="crispEdges" /><rect width="10" height="10" x="260" y="110" fill="#807f7e" shape-rendering="crispEdges" /><rect width="30" height="10" x="40" y="120" fill="#62616d" shape-rendering="crispEdges" /><rect width="180" height="10" x="70" y="120" fill="#807f7e" shape-rendering="crispEdges" /><rect width="10" height="10" x="260" y="120" fill="#807f7e" shape-rendering="crispEdges" /><rect width="10" height="10" x="40" y="130" fill="#1f1d29" shape-rendering="crispEdges" /><rect width="20" height="10" x="50" y="130" fill="#62616d" shape-rendering="crispEdges" /><rect width="180" height="10" x="70" y="130" fill="#807f7e" shape-rendering="crispEdges" /><rect width="30" height="10" x="250" y="130" fill="#62616d" shape-rendering="crispEdges" /><rect width="30" height="10" x="40" y="140" fill="#62616d" shape-rendering="crispEdges" /><rect width="180" height="10" x="70" y="140" fill="#807f7e" shape-rendering="crispEdges" /><rect width="20" height="10" x="250" y="140" fill="#62616d" shape-rendering="crispEdges" /><rect width="10" height="10" x="270" y="140" fill="#1f1d29" shape-rendering="crispEdges" /><rect width="10" height="10" x="40" y="150" fill="#1f1d29" shape-rendering="crispEdges" /><rect width="20" height="10" x="50" y="150" fill="#62616d" shape-rendering="crispEdges" /><rect width="180" height="10" x="70" y="150" fill="#807f7e" shape-rendering="crispEdges" /><rect width="30" height="10" x="250" y="150" fill="#62616d" shape-rendering="crispEdges" /><rect width="30" height="10" x="40" y="160" fill="#62616d" shape-rendering="crispEdges" /><rect width="180" height="10" x="70" y="160" fill="#807f7e" shape-rendering="crispEdges" /><rect width="20" height="10" x="250" y="160" fill="#62616d" shape-rendering="crispEdges" /><rect width="10" height="10" x="270" y="160" fill="#1f1d29" shape-rendering="crispEdges" /><rect width="10" height="10" x="70" y="170" fill="#807f7e" shape-rendering="crispEdges" /><rect width="10" height="10" x="80" y="170" fill="#1f1d29" shape-rendering="crispEdges" /><rect width="20" height="10" x="90" y="170" fill="#d7d3cd" shape-rendering="crispEdges" /><rect width="10" height="10" x="110" y="170" fill="#1f1d29" shape-rendering="crispEdges" /><rect width="20" height="10" x="120" y="170" fill="#d7d3cd" shape-rendering="crispEdges" /><rect width="10" height="10" x="140" y="170" fill="#1f1d29" shape-rendering="crispEdges" /><rect width="20" height="10" x="150" y="170" fill="#d7d3cd" shape-rendering="crispEdges" /><rect width="10" height="10" x="170" y="170" fill="#1f1d29" shape-rendering="crispEdges" /><rect width="20" height="10" x="180" y="170" fill="#d7d3cd" shape-rendering="crispEdges" /><rect width="10" height="10" x="200" y="170" fill="#1f1d29" shape-rendering="crispEdges" /><rect width="20" height="10" x="210" y="170" fill="#d7d3cd" shape-rendering="crispEdges" /><rect width="10" height="10" x="230" y="170" fill="#1f1d29" shape-rendering="crispEdges" /><rect width="10" height="10" x="240" y="170" fill="#807f7e" shape-rendering="crispEdges" /><rect width="30" height="10" x="250" y="170" fill="#62616d" shape-rendering="crispEdges" /><rect width="10" height="10" x="70" y="180" fill="#807f7e" shape-rendering="crispEdges" /><rect width="10" height="10" x="80" y="180" fill="#1f1d29" shape-rendering="crispEdges" /><rect width="20" height="10" x="90" y="180" fill="#fffdf2" shape-rendering="crispEdges" /><rect width="10" height="10" x="110" y="180" fill="#1f1d29" shape-rendering="crispEdges" /><rect width="20" height="10" x="120" y="180" fill="#fffdf2" shape-rendering="crispEdges" /><rect width="10" height="10" x="140" y="180" fill="#1f1d29" shape-rendering="crispEdges" /><rect width="20" height="10" x="150" y="180" fill="#fffdf2" shape-rendering="crispEdges" /><rect width="10" height="10" x="170" y="180" fill="#1f1d29" shape-rendering="crispEdges" /><rect width="20" height="10" x="180" y="180" fill="#fffdf2" shape-rendering="crispEdges" /><rect width="10" height="10" x="200" y="180" fill="#1f1d29" shape-rendering="crispEdges" /><rect width="20" height="10" x="210" y="180" fill="#fffdf2" shape-rendering="crispEdges" /><rect width="10" height="10" x="230" y="180" fill="#1f1d29" shape-rendering="crispEdges" /><rect width="10" height="10" x="240" y="180" fill="#807f7e" shape-rendering="crispEdges" /><rect width="10" height="10" x="70" y="190" fill="#807f7e" shape-rendering="crispEdges" /><rect width="160" height="10" x="80" y="190" fill="#1f1d29" shape-rendering="crispEdges" /><rect width="10" height="10" x="240" y="190" fill="#807f7e" shape-rendering="crispEdges" /><rect width="180" height="10" x="70" y="200" fill="#807f7e" shape-rendering="crispEdges" /></svg>