<svg width="320" height="320" viewBox="0 0 320 320" xmlns="http://www.w3.org/2000/svg" shape-rendering="crispEdges"><rect width="100%" height="100%" fill="none" /><rect width="10" height="10" x="130" y="30" fill="#068940" shape-rendering="crispEdges" /><rect width="20" height="10" x="150" y="30" fill="#3f9323" shape-rendering="crispEdges" /><rect width="10" height="10" x="180" y="30" fill="#068940" shape-rendering="crispEdges" /><rect width="10" height="10" x="110" y="40" fill="#3f9323" shape-rendering="crispEdges" /><rect width="20" height="10" x="130" y="40" fill="#068940" shape-rendering="crispEdges" /><rect width="20" height="10" x="150" y="40" fill="#3f9323" shape-rendering="crispEdges" /><rect width="20" height="10" x="170" y="40" fill="#068940" shape-rendering="crispEdges" /><rect width="10" height="10" x="200" y="40" fill="#3f9323" shape-rendering="crispEdges" /><rect width="30" height="10" x="110" y="50" fill="#3f9323" shape-rendering="crispEdges" /><rect width="10" height="10" x="140" y="50" fill="#068940" shape-rendering="crispEdges" /><rect width="20" height="10" x="150" y="50" fill="#3f9323" shape-rendering="crispEdges" /><rect width="10" height="10" x="170" y="50" fill="#068940" shape-rendering="crispEdges" /><rect width="30" height="10" x="180" y="50" fill="#3f9323" shape-rendering="crispEdges" /><rect width="60" height="10" x="130" y="60" fill="#3f9323" shape-rendering="crispEdges" /><rect width="20" height="10" x="110" y="70" fill="#ffef16" shape-rendering="crispEdges" /><rect width="20" height="10" x="130" y="70" fill="#ffc110" shape-rendering="crispEdges" /><rect width="20" height="10" x="150" y="70" fill="#ffef16" shape-rendering="crispEdges" /><rect width="20" height="10" x="170" y="70" fill="#ffc110" shape-rendering="crispEdges" /><rect width="20" height="10" x="190" y="70" fill="#ffef16" shape-rendering="crispEdges" /><rect width="20" height="10" x="90" y="80" fill="#ffef16" shape-rendering="crispEdges" /><rect width="20" height="10" x="110" y="80" fill="#ffc110" shape-rendering="crispEdges" /><rect width="20" height="10" x="130" y="80" fill="#ffef16" shape-rendering="crispEdges" /><rect width="20" height="10" x="150" y="80" fill="#ffc110" shape-rendering="crispEdges" /><rect width="20" height="10" x="170" y="80" fill="#ffef16" shape-rendering="crispEdges" /><rect width="20" height="10" x="190" y="80" fill="#ffc110" shape-rendering="crispEdges" /><rect width="20" height="10" x="210" y="80" fill="#ffef16" shape-rendering="crispEdges" /><rect width="20" height="10" x="90" y="90" fill="#ffef16" shape-rendering="crispEdges" /><rect width="20" height="10" x="110" y="90" fill="#ffc110" shape-rendering="crispEdges" /><rect width="20" height="10" x="130" y="90" fill="#ffef16" shape-rendering="crispEdges" /><rect width="20" height="10" x="150" y="90" fill="#ffc110" shape-rendering="crispEdges" /><rect width="20" height="10" x="170" y="90" fill="#ffef16" shape-rendering="crispEdges" /><rect width="20" height="10" x="190" y="90" fill="#ffc110" shape-rendering="crispEdges" /><rect width="20" height="10" x="210" y="90" fill="#ffef16" shape-rendering="crispEdges" /><rect width="10" height="10" x="80" y="100" fill="#ffef16" shape-rendering="crispEdges" /><rect width="20" height="10" x="90" y="100" fill="#ffc110" shape-rendering="crispEdges" /><rect width="20" height="10" x="110" y="100" fill="#ffef16" shape-rendering="crispEdges" /><rect width="20" height="10" x="130" y="100" fill="#ffc110" shape-rendering="crispEdges" /><rect width="20" height="10" x="150" y="100" fill="#ffef16" shape-rendering="crispEdges" /><rect width="20" height="10" x="170" y="100" fill="#ffc110" shape-rendering="crispEdges" /><rect width="20" height="10" x="190" y="100" fill="#ffef16" shape-rendering="crispEdges" /><rect width="20" height="10" x="210" y="100" fill="#ffc110" shape-rendering="crispEdges" /><rect width="10" height="10" x="230" y="100" fill="#ffef16" shape-rendering="crispEdges" /><rect width="10" height="10" x="80" y="110" fill="#ffef16" shape-rendering="crispEdges" /><rect width="20" height="10" x="90" y="110" fill="#ffc110" shape-rendering="crispEdges" /><rect width="20" height="10" x="110" y="110" fill="#ffef16" shape-rendering="crispEdges" /><rect width="20" height="10" x="130" y="110" fill="#ffc110" shape-rendering="crispEdges" /><rect width="20" height="10" x="150" y="110" fill="#ffef16" shape-rendering="crispEdges" /><rect width="20" height="10" x="170" y="110" fill="#ffc110" shape-rendering="crispEdges" /><rect width="20" height="10" x="190" y="110" fill="#ffef16" shape-rendering="crispEdges" /><rect width="20" height="10" x="210" y="110" fill="#ffc110" shape-rendering="crispEdges" /><rect width="10" height="10" x="230" y="110" fill="#ffef16" shape-rendering="crispEdges" /><rect width="10" height="10" x="80" y="120" fill="#ffc110" shape-rendering="crispEdges" /><rect width="20" height="10" x="90" y="120" fill="#ffef16" shape-rendering="crispEdges" /><rect width="20" height="10" x="110" y="120" fill="#ffc110" shape-rendering="crispEdges" /><rect width="20" height="10" x="130" y="120" fill="#ffef16" shape-rendering="crispEdges" /><rect width="20" height="10" x="150" y="120" fill="#ffc110" shape-rendering="crispEdges" /><rect width="20" height="10" x="170" y="120" fill="#ffef16" shape-rendering="crispEdges" /><rect width="20" height="10" x="190" y="120" fill="#ffc110" shape-rendering="crispEdges" /><rect width="20" height="10" x="210" y="120" fill="#ffef16" shape-rendering="crispEdges" /><rect width="10" height="10" x="230" y="120" fill="#ffc110" shape-rendering="crispEdges" /><rect width="10" height="10" x="80" y="130" fill="#ffc110" shape-rendering="crispEdges" /><rect width="20" height="10" x="90" y="130" fill="#ffef16" shape-rendering="crispEdges" /><rect width="20" height="10" x="110" y="130" fill="#ffc110" shape-rendering="crispEdges" /><rect width="20" height="10" x="130" y="130" fill="#ffef16" shape-rendering="crispEdges" /><rect width="20" height="10" x="150" y="130" fill="#ffc110" shape-rendering="crispEdges" /><rect width="20" height="10" x="170" y="130" fill="#ffef16" shape-rendering="crispEdges" /><rect width="20" height="10" x="190" y="130" fill="#ffc110" shape-rendering="crispEdges" /><rect width="20" height="10" x="210" y="130" fill="#ffef16" shape-rendering="crispEdges" /><rect width="10" height="10" x="230" y="130" fill="#ffc110" shape-rendering="crispEdges" /><rect width="170" height="10" x="80" y="140" fill="#ffc110" shape-rendering="crispEdges" /><rect width="160" height="10" x="80" y="150" fill="#ffc110" shape-rendering="crispEdges" /><rect width="160" height="10" x="80" y="160" fill="#ffc110" shape-rendering="crispEdges" /><rect width="180" height="10" x="70" y="170" fill="#ffc110" shape-rendering="crispEdges" /><rect width="20" height="10" x="80" y="180" fill="#ffc110" shape-rendering="crispEdges" /><rect width="30" height="10" x="100" y="180" fill="#f78a18" shape-rendering="crispEdges" /><rect width="10" height="10" x="130" y="180" fill="#ffc110" shape-rendering="crispEdges" /><rect width="40" height="10" x="140" y="180" fill="#f78a18" shape-rendering="crispEdges" /><rect width="10" height="10" x="180" y="180" fill="#ffc110" shape-rendering="crispEdges" /><rect width="30" height="10" x="190" y="180" fill="#f78a18" shape-rendering="crispEdges" /><rect width="20" height="10" x="220" y="180" fill="#ffc110" shape-rendering="crispEdges" /><rect width="20" height="10" x="80" y="190" fill="#ffc110" shape-rendering="crispEdges" /><rect width="30" height="10" x="100" y="190" fill="#f78a18" shape-rendering="crispEdges" /><rect width="10" height="10" x="130" y="190" fill="#ffc110" shape-rendering="crispEdges" /><rect width="40" height="10" x="140" y="190" fill="#f78a18" shape-rendering="crispEdges" /><rect width="10" height="10" x="180" y="190" fill="#ffc110" shape-rendering="crispEdges" /><rect width="30" height="10" x="190" y="190" fill="#f78a18" shape-rendering="crispEdges" /><rect width="20" height="10" x="220" y="190" fill="#ffc110" shape-rendering="crispEdges" /><rect width="140" height="10" x="90" y="200" fill="#ffc110" shape-rendering="crispEdges" /></svg>