<svg width="320" height="320" viewBox="0 0 320 320" xmlns="http://www.w3.org/2000/svg" shape-rendering="crispEdges"><rect width="100%" height="100%" fill="none" /><rect width="10" height="10" x="210" y="40" fill="#74580d" shape-rendering="crispEdges" /><rect width="30" height="10" x="180" y="50" fill="#cd916d" shape-rendering="crispEdges" /><rect width="10" height="10" x="210" y="50" fill="#74580d" shape-rendering="crispEdges" /><rect width="20" height="10" x="200" y="60" fill="#74580d" shape-rendering="crispEdges" /><rect width="40" height="10" x="170" y="70" fill="#74580d" shape-rendering="crispEdges" /><rect width="60" height="10" x="130" y="80" fill="#74580d" shape-rendering="crispEdges" /><rect width="20" height="10" x="220" y="80" fill="#e4a499" shape-rendering="crispEdges" /><rect width="90" height="10" x="60" y="90" fill="#74580d" shape-rendering="crispEdges" /><rect width="50" height="10" x="200" y="90" fill="#e4a499" shape-rendering="crispEdges" /><rect width="200" height="10" x="60" y="100" fill="#cd916d" shape-rendering="crispEdges" /><rect width="200" height="10" x="60" y="110" fill="#a3baed" shape-rendering="crispEdges" /><rect width="200" height="10" x="60" y="120" fill="#a3baed" shape-rendering="crispEdges" /><rect width="200" height="10" x="60" y="130" fill="#a3baed" shape-rendering="crispEdges" /><rect width="200" height="10" x="60" y="140" fill="#a3baed" shape-rendering="crispEdges" /><rect width="200" height="10" x="60" y="150" fill="#235476" shape-rendering="crispEdges" /><rect width="200" height="10" x="60" y="160" fill="#5648ed" shape-rendering="crispEdges" /><rect width="200" height="10" x="60" y="170" fill="#5648ed" shape-rendering="crispEdges" /><rect width="50" height="10" x="60" y="180" fill="#5648ed" shape-rendering="crispEdges" /><rect width="10" height="10" x="110" y="180" fill="#1f1d29" shape-rendering="crispEdges" /><rect width="10" height="10" x="120" y="180" fill="#fff0ee" shape-rendering="crispEdges" /><rect width="10" height="10" x="130" y="180" fill="#1f1d29" shape-rendering="crispEdges" /><rect width="10" height="10" x="140" y="180" fill="#fff0ee" shape-rendering="crispEdges" /><rect width="10" height="10" x="150" y="180" fill="#1f1d29" shape-rendering="crispEdges" /><rect width="10" height="10" x="160" y="180" fill="#fff0ee" shape-rendering="crispEdges" /><rect width="10" height="10" x="170" y="180" fill="#1f1d29" shape-rendering="crispEdges" /><rect width="10" height="10" x="180" y="180" fill="#fff0ee" shape-rendering="crispEdges" /><rect width="70" height="10" x="190" y="180" fill="#5648ed" shape-rendering="crispEdges" /><rect width="200" height="10" x="60" y="190" fill="#5648ed" shape-rendering="crispEdges" /><rect width="200" height="10" x="60" y="200" fill="#cd916d" shape-rendering="crispEdges" /></svg>