<svg width="320" height="320" viewBox="0 0 320 320" xmlns="http://www.w3.org/2000/svg" shape-rendering="crispEdges"><rect width="100%" height="100%" fill="none" /><rect width="20" height="10" x="160" y="40" fill="#ffffff" shape-rendering="crispEdges" /><rect width="50" height="10" x="150" y="50" fill="#ffffff" shape-rendering="crispEdges" /><rect width="90" height="10" x="120" y="60" fill="#ffffff" shape-rendering="crispEdges" /><rect width="110" height="10" x="100" y="70" fill="#ffffff" shape-rendering="crispEdges" /><rect width="120" height="10" x="80" y="80" fill="#ffffff" shape-rendering="crispEdges" /><rect width="110" height="10" x="90" y="110" fill="#9cb4b8" shape-rendering="crispEdges" /><rect width="110" height="10" x="90" y="120" fill="#9cb4b8" shape-rendering="crispEdges" /><rect width="110" height="10" x="90" y="130" fill="#9cb4b8" shape-rendering="crispEdges" /><rect width="120" height="10" x="90" y="140" fill="#9cb4b8" shape-rendering="crispEdges" /><rect width="120" height="10" x="90" y="150" fill="#9cb4b8" shape-rendering="crispEdges" /><rect width="20" height="10" x="30" y="160" fill="#9cb4b8" shape-rendering="crispEdges" /><rect width="180" height="10" x="90" y="160" fill="#9cb4b8" shape-rendering="crispEdges" /><rect width="10" height="10" x="290" y="160" fill="#ffffff" shape-rendering="crispEdges" /><rect width="20" height="10" x="30" y="170" fill="#9cb4b8" shape-rendering="crispEdges" /><rect width="50" height="10" x="90" y="170" fill="#9cb4b8" shape-rendering="crispEdges" /><rect width="60" height="10" x="140" y="170" fill="#ffffff" shape-rendering="crispEdges" /><rect width="70" height="10" x="200" y="170" fill="#9cb4b8" shape-rendering="crispEdges" /><rect width="10" height="10" x="290" y="170" fill="#ffffff" shape-rendering="crispEdges" /><rect width="100" height="10" x="30" y="180" fill="#9cb4b8" shape-rendering="crispEdges" /><rect width="90" height="10" x="130" y="180" fill="#ffffff" shape-rendering="crispEdges" /><rect width="50" height="10" x="220" y="180" fill="#9cb4b8" shape-rendering="crispEdges" /><rect width="10" height="10" x="280" y="180" fill="#9cb4b8" shape-rendering="crispEdges" /><rect width="10" height="10" x="290" y="180" fill="#ffffff" shape-rendering="crispEdges" /><rect width="90" height="10" x="30" y="190" fill="#f3322c" shape-rendering="crispEdges" /><rect width="20" height="10" x="120" y="190" fill="#ffffff" shape-rendering="crispEdges" /><rect width="60" height="10" x="140" y="190" fill="#000000" shape-rendering="crispEdges" /><rect width="20" height="10" x="200" y="190" fill="#ffffff" shape-rendering="crispEdges" /><rect width="50" height="10" x="220" y="190" fill="#f3322c" shape-rendering="crispEdges" /><rect width="10" height="10" x="290" y="190" fill="#ffffff" shape-rendering="crispEdges" /><rect width="70" height="10" x="40" y="200" fill="#9cb4b8" shape-rendering="crispEdges" /><rect width="110" height="10" x="110" y="200" fill="#ffffff" shape-rendering="crispEdges" /><rect width="50" height="10" x="220" y="200" fill="#9cb4b8" shape-rendering="crispEdges" /><rect width="10" height="10" x="290" y="200" fill="#ffffff" shape-rendering="crispEdges" /></svg>