<svg width="320" height="320" viewBox="0 0 320 320" xmlns="http://www.w3.org/2000/svg" shape-rendering="crispEdges"><rect width="100%" height="100%" fill="none" /><rect width="30" height="10" x="90" y="40" fill="#fff671" shape-rendering="crispEdges" /><rect width="20" height="10" x="140" y="40" fill="#fff671" shape-rendering="crispEdges" /><rect width="40" height="10" x="180" y="40" fill="#fff671" shape-rendering="crispEdges" /><rect width="10" height="10" x="80" y="50" fill="#fff671" shape-rendering="crispEdges" /><rect width="20" height="10" x="90" y="50" fill="#c4da53" shape-rendering="crispEdges" /><rect width="30" height="10" x="110" y="50" fill="#fff671" shape-rendering="crispEdges" /><rect width="10" height="10" x="140" y="50" fill="#c4da53" shape-rendering="crispEdges" /><rect width="90" height="10" x="150" y="50" fill="#fff671" shape-rendering="crispEdges" /><rect width="10" height="10" x="80" y="60" fill="#fff671" shape-rendering="crispEdges" /><rect width="20" height="10" x="90" y="60" fill="#c4da53" shape-rendering="crispEdges" /><rect width="90" height="10" x="110" y="60" fill="#fff671" shape-rendering="crispEdges" /><rect width="30" height="10" x="200" y="60" fill="#c4da53" shape-rendering="crispEdges" /><rect width="20" height="10" x="230" y="60" fill="#fff671" shape-rendering="crispEdges" /><rect width="70" height="10" x="90" y="70" fill="#fff671" shape-rendering="crispEdges" /><rect width="20" height="10" x="160" y="70" fill="#c4da53" shape-rendering="crispEdges" /><rect width="20" height="10" x="180" y="70" fill="#fff671" shape-rendering="crispEdges" /><rect width="30" height="10" x="200" y="70" fill="#c4da53" shape-rendering="crispEdges" /><rect width="20" height="10" x="230" y="70" fill="#fff671" shape-rendering="crispEdges" /><rect width="30" height="10" x="90" y="80" fill="#fff671" shape-rendering="crispEdges" /><rect width="20" height="10" x="120" y="80" fill="#c4da53" shape-rendering="crispEdges" /><rect width="20" height="10" x="140" y="80" fill="#fff671" shape-rendering="crispEdges" /><rect width="20" height="10" x="160" y="80" fill="#c4da53" shape-rendering="crispEdges" /><rect width="20" height="10" x="180" y="80" fill="#fff671" shape-rendering="crispEdges" /><rect width="30" height="10" x="200" y="80" fill="#c4da53" shape-rendering="crispEdges" /><rect width="20" height="10" x="230" y="80" fill="#fff671" shape-rendering="crispEdges" /><rect width="30" height="10" x="90" y="90" fill="#fff671" shape-rendering="crispEdges" /><rect width="20" height="10" x="120" y="90" fill="#c4da53" shape-rendering="crispEdges" /><rect width="100" height="10" x="140" y="90" fill="#fff671" shape-rendering="crispEdges" /><rect width="160" height="10" x="80" y="100" fill="#fff671" shape-rendering="crispEdges" /><rect width="160" height="10" x="80" y="110" fill="#fff671" shape-rendering="crispEdges" /><rect width="170" height="10" x="80" y="120" fill="#fff671" shape-rendering="crispEdges" /><rect width="170" height="10" x="80" y="130" fill="#fff671" shape-rendering="crispEdges" /><rect width="170" height="10" x="80" y="140" fill="#fff671" shape-rendering="crispEdges" /><rect width="170" height="10" x="80" y="150" fill="#fff671" shape-rendering="crispEdges" /><rect width="160" height="10" x="80" y="160" fill="#fff671" shape-rendering="crispEdges" /><rect width="10" height="10" x="80" y="170" fill="#fff671" shape-rendering="crispEdges" /><rect width="20" height="10" x="90" y="170" fill="#c4da53" shape-rendering="crispEdges" /><rect width="130" height="10" x="110" y="170" fill="#fff671" shape-rendering="crispEdges" /><rect width="10" height="10" x="80" y="180" fill="#fff671" shape-rendering="crispEdges" /><rect width="20" height="10" x="90" y="180" fill="#c4da53" shape-rendering="crispEdges" /><rect width="30" height="10" x="110" y="180" fill="#fff671" shape-rendering="crispEdges" /><rect width="50" height="10" x="140" y="180" fill="#000000" shape-rendering="crispEdges" /><rect width="40" height="10" x="190" y="180" fill="#fff671" shape-rendering="crispEdges" /><rect width="130" height="10" x="90" y="190" fill="#fff671" shape-rendering="crispEdges" /><rect width="10" height="10" x="220" y="190" fill="#c4da53" shape-rendering="crispEdges" /><rect width="10" height="10" x="230" y="190" fill="#fff671" shape-rendering="crispEdges" /><rect width="140" height="10" x="90" y="200" fill="#fff671" shape-rendering="crispEdges" /></svg>