<svg width="320" height="320" viewBox="0 0 320 320" xmlns="http://www.w3.org/2000/svg" shape-rendering="crispEdges"><rect width="100%" height="100%" fill="none" /><rect width="30" height="10" x="40" y="50" fill="#cd916d" shape-rendering="crispEdges" /><rect width="20" height="10" x="80" y="50" fill="#cd916d" shape-rendering="crispEdges" /><rect width="20" height="10" x="220" y="50" fill="#cd916d" shape-rendering="crispEdges" /><rect width="30" height="10" x="250" y="50" fill="#cd916d" shape-rendering="crispEdges" /><rect width="30" height="10" x="40" y="60" fill="#cd916d" shape-rendering="crispEdges" /><rect width="20" height="10" x="80" y="60" fill="#cd916d" shape-rendering="crispEdges" /><rect width="120" height="10" x="100" y="60" fill="#4d271b" shape-rendering="crispEdges" /><rect width="20" height="10" x="220" y="60" fill="#cd916d" shape-rendering="crispEdges" /><rect width="30" height="10" x="250" y="60" fill="#cd916d" shape-rendering="crispEdges" /><rect width="30" height="10" x="40" y="70" fill="#cd916d" shape-rendering="crispEdges" /><rect width="20" height="10" x="80" y="70" fill="#cd916d" shape-rendering="crispEdges" /><rect width="120" height="10" x="100" y="70" fill="#4d271b" shape-rendering="crispEdges" /><rect width="20" height="10" x="220" y="70" fill="#cd916d" shape-rendering="crispEdges" /><rect width="30" height="10" x="250" y="70" fill="#cd916d" shape-rendering="crispEdges" /><rect width="30" height="10" x="40" y="80" fill="#cd916d" shape-rendering="crispEdges" /><rect width="20" height="10" x="80" y="80" fill="#cd916d" shape-rendering="crispEdges" /><rect width="120" height="10" x="100" y="80" fill="#4d271b" shape-rendering="crispEdges" /><rect width="20" height="10" x="220" y="80" fill="#cd916d" shape-rendering="crispEdges" /><rect width="30" height="10" x="250" y="80" fill="#cd916d" shape-rendering="crispEdges" /><rect width="70" height="10" x="40" y="90" fill="#cd916d" shape-rendering="crispEdges" /><rect width="110" height="10" x="110" y="90" fill="#4d271b" shape-rendering="crispEdges" /><rect width="60" height="10" x="220" y="90" fill="#cd916d" shape-rendering="crispEdges" /><rect width="70" height="10" x="40" y="100" fill="#cd916d" shape-rendering="crispEdges" /><rect width="110" height="10" x="110" y="100" fill="#4d271b" shape-rendering="crispEdges" /><rect width="60" height="10" x="220" y="100" fill="#cd916d" shape-rendering="crispEdges" /><rect width="70" height="10" x="40" y="110" fill="#cd916d" shape-rendering="crispEdges" /><rect width="110" height="10" x="110" y="110" fill="#4d271b" shape-rendering="crispEdges" /><rect width="60" height="10" x="220" y="110" fill="#cd916d" shape-rendering="crispEdges" /><rect width="140" height="10" x="80" y="120" fill="#4d271b" shape-rendering="crispEdges" /><rect width="150" height="10" x="80" y="130" fill="#4d271b" shape-rendering="crispEdges" /><rect width="150" height="10" x="80" y="140" fill="#4d271b" shape-rendering="crispEdges" /><rect width="150" height="10" x="80" y="150" fill="#4d271b" shape-rendering="crispEdges" /><rect width="50" height="10" x="80" y="160" fill="#4d271b" shape-rendering="crispEdges" /><rect width="130" height="10" x="130" y="160" fill="#a86f60" shape-rendering="crispEdges" /><rect width="50" height="10" x="80" y="170" fill="#4d271b" shape-rendering="crispEdges" /><rect width="130" height="10" x="130" y="170" fill="#a86f60" shape-rendering="crispEdges" /><rect width="50" height="10" x="80" y="180" fill="#4d271b" shape-rendering="crispEdges" /><rect width="60" height="10" x="130" y="180" fill="#a86f60" shape-rendering="crispEdges" /><rect width="20" height="10" x="190" y="180" fill="#6b3f39" shape-rendering="crispEdges" /><rect width="20" height="10" x="210" y="180" fill="#a86f60" shape-rendering="crispEdges" /><rect width="20" height="10" x="230" y="180" fill="#6b3f39" shape-rendering="crispEdges" /><rect width="10" height="10" x="250" y="180" fill="#a86f60" shape-rendering="crispEdges" /><rect width="50" height="10" x="80" y="190" fill="#4d271b" shape-rendering="crispEdges" /><rect width="130" height="10" x="130" y="190" fill="#a86f60" shape-rendering="crispEdges" /><rect width="50" height="10" x="80" y="200" fill="#4d271b" shape-rendering="crispEdges" /><rect width="10" height="10" x="130" y="200" fill="#a86f60" shape-rendering="crispEdges" /><rect width="110" height="10" x="140" y="200" fill="#6b3f39" shape-rendering="crispEdges" /><rect width="10" height="10" x="250" y="200" fill="#a86f60" shape-rendering="crispEdges" /><rect width="130" height="10" x="130" y="210" fill="#a86f60" shape-rendering="crispEdges" /></svg>