<svg width="320" height="320" viewBox="0 0 320 320" xmlns="http://www.w3.org/2000/svg" shape-rendering="crispEdges"><rect width="100%" height="100%" fill="none" /><rect width="10" height="10" x="160" y="40" fill="#f8ddb0" shape-rendering="crispEdges" /><rect width="30" height="10" x="150" y="50" fill="#3f9323" shape-rendering="crispEdges" /><rect width="20" height="10" x="150" y="60" fill="#3f9323" shape-rendering="crispEdges" /><rect width="10" height="10" x="170" y="60" fill="#c54e38" shape-rendering="crispEdges" /><rect width="30" height="10" x="150" y="70" fill="#3f9323" shape-rendering="crispEdges" /><rect width="80" height="10" x="80" y="80" fill="#cd916d" shape-rendering="crispEdges" /><rect width="10" height="10" x="160" y="80" fill="#f8ddb0" shape-rendering="crispEdges" /><rect width="70" height="10" x="170" y="80" fill="#cd916d" shape-rendering="crispEdges" /><rect width="70" height="10" x="60" y="90" fill="#cd916d" shape-rendering="crispEdges" /><rect width="10" height="10" x="130" y="90" fill="#efad81" shape-rendering="crispEdges" /><rect width="20" height="10" x="140" y="90" fill="#cd916d" shape-rendering="crispEdges" /><rect width="10" height="10" x="160" y="90" fill="#f8ddb0" shape-rendering="crispEdges" /><rect width="40" height="10" x="170" y="90" fill="#cd916d" shape-rendering="crispEdges" /><rect width="10" height="10" x="210" y="90" fill="#efad81" shape-rendering="crispEdges" /><rect width="40" height="10" x="220" y="90" fill="#cd916d" shape-rendering="crispEdges" /><rect width="20" height="10" x="50" y="100" fill="#cd916d" shape-rendering="crispEdges" /><rect width="10" height="10" x="70" y="100" fill="#efad81" shape-rendering="crispEdges" /><rect width="80" height="10" x="80" y="100" fill="#cd916d" shape-rendering="crispEdges" /><rect width="10" height="10" x="160" y="100" fill="#f8ddb0" shape-rendering="crispEdges" /><rect width="10" height="10" x="170" y="100" fill="#cd916d" shape-rendering="crispEdges" /><rect width="10" height="10" x="180" y="100" fill="#efad81" shape-rendering="crispEdges" /><rect width="80" height="10" x="190" y="100" fill="#cd916d" shape-rendering="crispEdges" /><rect width="80" height="10" x="40" y="110" fill="#cd916d" shape-rendering="crispEdges" /><rect width="10" height="10" x="120" y="110" fill="#efad81" shape-rendering="crispEdges" /><rect width="100" height="10" x="130" y="110" fill="#cd916d" shape-rendering="crispEdges" /><rect width="10" height="10" x="230" y="110" fill="#efad81" shape-rendering="crispEdges" /><rect width="40" height="10" x="240" y="110" fill="#cd916d" shape-rendering="crispEdges" /><rect width="240" height="10" x="40" y="120" fill="#cd916d" shape-rendering="crispEdges" /><rect width="240" height="10" x="40" y="130" fill="#d596a6" shape-rendering="crispEdges" /><rect width="240" height="10" x="40" y="140" fill="#e11833" shape-rendering="crispEdges" /><rect width="10" height="10" x="40" y="150" fill="#ffe939" shape-rendering="crispEdges" /><rect width="60" height="10" x="50" y="150" fill="#e11833" shape-rendering="crispEdges" /><rect width="10" height="10" x="110" y="150" fill="#ffe939" shape-rendering="crispEdges" /><rect width="80" height="10" x="120" y="150" fill="#e11833" shape-rendering="crispEdges" /><rect width="10" height="10" x="200" y="150" fill="#ffe939" shape-rendering="crispEdges" /><rect width="70" height="10" x="210" y="150" fill="#e11833" shape-rendering="crispEdges" /><rect width="10" height="10" x="30" y="160" fill="#4bea69" shape-rendering="crispEdges" /><rect width="240" height="10" x="40" y="160" fill="#ffe939" shape-rendering="crispEdges" /><rect width="10" height="10" x="280" y="160" fill="#4bea69" shape-rendering="crispEdges" /><rect width="30" height="10" x="30" y="170" fill="#4bea69" shape-rendering="crispEdges" /><rect width="60" height="10" x="60" y="170" fill="#ffe939" shape-rendering="crispEdges" /><rect width="80" height="10" x="120" y="170" fill="#4bea69" shape-rendering="crispEdges" /><rect width="50" height="10" x="200" y="170" fill="#ffe939" shape-rendering="crispEdges" /><rect width="40" height="10" x="250" y="170" fill="#4bea69" shape-rendering="crispEdges" /><rect width="40" height="10" x="40" y="180" fill="#4bea69" shape-rendering="crispEdges" /><rect width="20" height="10" x="80" y="180" fill="#a86f60" shape-rendering="crispEdges" /><rect width="50" height="10" x="100" y="180" fill="#4bea69" shape-rendering="crispEdges" /><rect width="30" height="10" x="150" y="180" fill="#a86f60" shape-rendering="crispEdges" /><rect width="50" height="10" x="180" y="180" fill="#4bea69" shape-rendering="crispEdges" /><rect width="20" height="10" x="230" y="180" fill="#a86f60" shape-rendering="crispEdges" /><rect width="10" height="10" x="250" y="180" fill="#4bea69" shape-rendering="crispEdges" /><rect width="10" height="10" x="270" y="180" fill="#4bea69" shape-rendering="crispEdges" /><rect width="60" height="10" x="60" y="190" fill="#a86f60" shape-rendering="crispEdges" /><rect width="80" height="10" x="120" y="190" fill="#000000" shape-rendering="crispEdges" /><rect width="60" height="10" x="200" y="190" fill="#a86f60" shape-rendering="crispEdges" /><rect width="180" height="10" x="70" y="200" fill="#a86f60" shape-rendering="crispEdges" /></svg>