<svg width="320" height="320" viewBox="0 0 320 320" xmlns="http://www.w3.org/2000/svg" shape-rendering="crispEdges"><rect width="100%" height="100%" fill="none" /><rect width="20" height="10" x="150" y="30" fill="#62616d" shape-rendering="crispEdges" /><rect width="60" height="10" x="130" y="40" fill="#62616d" shape-rendering="crispEdges" /><rect width="30" height="10" x="110" y="50" fill="#62616d" shape-rendering="crispEdges" /><rect width="40" height="10" x="140" y="50" fill="#abaaa8" shape-rendering="crispEdges" /><rect width="30" height="10" x="180" y="50" fill="#62616d" shape-rendering="crispEdges" /><rect width="20" height="10" x="90" y="60" fill="#62616d" shape-rendering="crispEdges" /><rect width="20" height="10" x="110" y="60" fill="#4b4949" shape-rendering="crispEdges" /><rect width="10" height="10" x="130" y="60" fill="#62616d" shape-rendering="crispEdges" /><rect width="40" height="10" x="140" y="60" fill="#abaaa8" shape-rendering="crispEdges" /><rect width="10" height="10" x="180" y="60" fill="#62616d" shape-rendering="crispEdges" /><rect width="20" height="10" x="190" y="60" fill="#4b4949" shape-rendering="crispEdges" /><rect width="20" height="10" x="210" y="60" fill="#62616d" shape-rendering="crispEdges" /><rect width="20" height="10" x="70" y="70" fill="#62616d" shape-rendering="crispEdges" /><rect width="20" height="10" x="90" y="70" fill="#4b4949" shape-rendering="crispEdges" /><rect width="30" height="10" x="110" y="70" fill="#62616d" shape-rendering="crispEdges" /><rect width="40" height="10" x="140" y="70" fill="#abaaa8" shape-rendering="crispEdges" /><rect width="30" height="10" x="180" y="70" fill="#62616d" shape-rendering="crispEdges" /><rect width="20" height="10" x="210" y="70" fill="#4b4949" shape-rendering="crispEdges" /><rect width="20" height="10" x="230" y="70" fill="#62616d" shape-rendering="crispEdges" /><rect width="220" height="10" x="50" y="80" fill="#62616d" shape-rendering="crispEdges" /><rect width="220" height="10" x="50" y="90" fill="#abaaa8" shape-rendering="crispEdges" /><rect width="30" height="10" x="60" y="100" fill="#62616d" shape-rendering="crispEdges" /><rect width="20" height="10" x="90" y="100" fill="#abaaa8" shape-rendering="crispEdges" /><rect width="40" height="10" x="110" y="100" fill="#62616d" shape-rendering="crispEdges" /><rect width="20" height="10" x="150" y="100" fill="#abaaa8" shape-rendering="crispEdges" /><rect width="40" height="10" x="170" y="100" fill="#62616d" shape-rendering="crispEdges" /><rect width="20" height="10" x="210" y="100" fill="#abaaa8" shape-rendering="crispEdges" /><rect width="30" height="10" x="230" y="100" fill="#62616d" shape-rendering="crispEdges" /><rect width="10" height="10" x="60" y="110" fill="#62616d" shape-rendering="crispEdges" /><rect width="10" height="10" x="70" y="110" fill="#4b4949" shape-rendering="crispEdges" /><rect width="10" height="10" x="80" y="110" fill="#62616d" shape-rendering="crispEdges" /><rect width="20" height="10" x="90" y="110" fill="#abaaa8" shape-rendering="crispEdges" /><rect width="40" height="10" x="110" y="110" fill="#62616d" shape-rendering="crispEdges" /><rect width="20" height="10" x="150" y="110" fill="#abaaa8" shape-rendering="crispEdges" /><rect width="40" height="10" x="170" y="110" fill="#62616d" shape-rendering="crispEdges" /><rect width="20" height="10" x="210" y="110" fill="#abaaa8" shape-rendering="crispEdges" /><rect width="10" height="10" x="230" y="110" fill="#62616d" shape-rendering="crispEdges" /><rect width="10" height="10" x="240" y="110" fill="#4b4949" shape-rendering="crispEdges" /><rect width="10" height="10" x="250" y="110" fill="#62616d" shape-rendering="crispEdges" /><rect width="30" height="10" x="60" y="120" fill="#62616d" shape-rendering="crispEdges" /><rect width="20" height="10" x="90" y="120" fill="#abaaa8" shape-rendering="crispEdges" /><rect width="40" height="10" x="110" y="120" fill="#62616d" shape-rendering="crispEdges" /><rect width="20" height="10" x="150" y="120" fill="#abaaa8" shape-rendering="crispEdges" /><rect width="40" height="10" x="170" y="120" fill="#62616d" shape-rendering="crispEdges" /><rect width="20" height="10" x="210" y="120" fill="#abaaa8" shape-rendering="crispEdges" /><rect width="30" height="10" x="230" y="120" fill="#62616d" shape-rendering="crispEdges" /><rect width="30" height="10" x="60" y="130" fill="#62616d" shape-rendering="crispEdges" /><rect width="20" height="10" x="90" y="130" fill="#abaaa8" shape-rendering="crispEdges" /><rect width="40" height="10" x="110" y="130" fill="#62616d" shape-rendering="crispEdges" /><rect width="20" height="10" x="150" y="130" fill="#abaaa8" shape-rendering="crispEdges" /><rect width="40" height="10" x="170" y="130" fill="#62616d" shape-rendering="crispEdges" /><rect width="20" height="10" x="210" y="130" fill="#abaaa8" shape-rendering="crispEdges" /><rect width="30" height="10" x="230" y="130" fill="#62616d" shape-rendering="crispEdges" /><rect width="30" height="10" x="60" y="140" fill="#62616d" shape-rendering="crispEdges" /><rect width="20" height="10" x="90" y="140" fill="#abaaa8" shape-rendering="crispEdges" /><rect width="40" height="10" x="110" y="140" fill="#62616d" shape-rendering="crispEdges" /><rect width="20" height="10" x="150" y="140" fill="#abaaa8" shape-rendering="crispEdges" /><rect width="40" height="10" x="170" y="140" fill="#62616d" shape-rendering="crispEdges" /><rect width="20" height="10" x="210" y="140" fill="#abaaa8" shape-rendering="crispEdges" /><rect width="30" height="10" x="230" y="140" fill="#62616d" shape-rendering="crispEdges" /><rect width="30" height="10" x="60" y="150" fill="#62616d" shape-rendering="crispEdges" /><rect width="20" height="10" x="90" y="150" fill="#abaaa8" shape-rendering="crispEdges" /><rect width="40" height="10" x="110" y="150" fill="#62616d" shape-rendering="crispEdges" /><rect width="20" height="10" x="150" y="150" fill="#abaaa8" shape-rendering="crispEdges" /><rect width="40" height="10" x="170" y="150" fill="#62616d" shape-rendering="crispEdges" /><rect width="20" height="10" x="210" y="150" fill="#abaaa8" shape-rendering="crispEdges" /><rect width="30" height="10" x="230" y="150" fill="#62616d" shape-rendering="crispEdges" /><rect width="30" height="10" x="60" y="160" fill="#62616d" shape-rendering="crispEdges" /><rect width="20" height="10" x="90" y="160" fill="#abaaa8" shape-rendering="crispEdges" /><rect width="40" height="10" x="110" y="160" fill="#62616d" shape-rendering="crispEdges" /><rect width="20" height="10" x="150" y="160" fill="#abaaa8" shape-rendering="crispEdges" /><rect width="40" height="10" x="170" y="160" fill="#62616d" shape-rendering="crispEdges" /><rect width="20" height="10" x="210" y="160" fill="#abaaa8" shape-rendering="crispEdges" /><rect width="30" height="10" x="230" y="160" fill="#62616d" shape-rendering="crispEdges" /><rect width="30" height="10" x="60" y="170" fill="#62616d" shape-rendering="crispEdges" /><rect width="20" height="10" x="90" y="170" fill="#abaaa8" shape-rendering="crispEdges" /><rect width="40" height="10" x="110" y="170" fill="#62616d" shape-rendering="crispEdges" /><rect width="20" height="10" x="150" y="170" fill="#abaaa8" shape-rendering="crispEdges" /><rect width="40" height="10" x="170" y="170" fill="#62616d" shape-rendering="crispEdges" /><rect width="20" height="10" x="210" y="170" fill="#abaaa8" shape-rendering="crispEdges" /><rect width="30" height="10" x="230" y="170" fill="#62616d" shape-rendering="crispEdges" /><rect width="30" height="10" x="60" y="180" fill="#62616d" shape-rendering="crispEdges" /><rect width="20" height="10" x="90" y="180" fill="#abaaa8" shape-rendering="crispEdges" /><rect width="40" height="10" x="110" y="180" fill="#62616d" shape-rendering="crispEdges" /><rect width="20" height="10" x="150" y="180" fill="#abaaa8" shape-rendering="crispEdges" /><rect width="40" height="10" x="170" y="180" fill="#62616d" shape-rendering="crispEdges" /><rect width="20" height="10" x="210" y="180" fill="#abaaa8" shape-rendering="crispEdges" /><rect width="30" height="10" x="230" y="180" fill="#62616d" shape-rendering="crispEdges" /><rect width="10" height="10" x="60" y="190" fill="#62616d" shape-rendering="crispEdges" /><rect width="180" height="10" x="70" y="190" fill="#abaaa8" shape-rendering="crispEdges" /><rect width="10" height="10" x="250" y="190" fill="#62616d" shape-rendering="crispEdges" /><rect width="220" height="10" x="50" y="200" fill="#62616d" shape-rendering="crispEdges" /><rect width="20" height="10" x="40" y="210" fill="#62616d" shape-rendering="crispEdges" /><rect width="200" height="10" x="60" y="210" fill="#abaaa8" shape-rendering="crispEdges" /><rect width="20" height="10" x="260" y="210" fill="#62616d" shape-rendering="crispEdges" /></svg>