<svg width="320" height="320" viewBox="0 0 320 320" xmlns="http://www.w3.org/2000/svg" shape-rendering="crispEdges"><rect width="100%" height="100%" fill="none" /><rect width="160" height="10" x="80" y="40" fill="#fff0ee" shape-rendering="crispEdges" /><rect width="160" height="10" x="80" y="50" fill="#fff0ee" shape-rendering="crispEdges" /><rect width="40" height="10" x="80" y="60" fill="#fff0ee" shape-rendering="crispEdges" /><rect width="80" height="10" x="120" y="60" fill="#d6c3be" shape-rendering="crispEdges" /><rect width="40" height="10" x="200" y="60" fill="#fff0ee" shape-rendering="crispEdges" /><rect width="30" height="10" x="80" y="70" fill="#fff0ee" shape-rendering="crispEdges" /><rect width="20" height="10" x="110" y="70" fill="#d6c3be" shape-rendering="crispEdges" /><rect width="10" height="10" x="130" y="70" fill="#000000" shape-rendering="crispEdges" /><rect width="40" height="10" x="140" y="70" fill="#d6c3be" shape-rendering="crispEdges" /><rect width="10" height="10" x="180" y="70" fill="#000000" shape-rendering="crispEdges" /><rect width="20" height="10" x="190" y="70" fill="#d6c3be" shape-rendering="crispEdges" /><rect width="30" height="10" x="210" y="70" fill="#fff0ee" shape-rendering="crispEdges" /><rect width="30" height="10" x="80" y="80" fill="#fff0ee" shape-rendering="crispEdges" /><rect width="20" height="10" x="110" y="80" fill="#d6c3be" shape-rendering="crispEdges" /><rect width="10" height="10" x="130" y="80" fill="#000000" shape-rendering="crispEdges" /><rect width="40" height="10" x="140" y="80" fill="#d6c3be" shape-rendering="crispEdges" /><rect width="10" height="10" x="180" y="80" fill="#000000" shape-rendering="crispEdges" /><rect width="20" height="10" x="190" y="80" fill="#d6c3be" shape-rendering="crispEdges" /><rect width="30" height="10" x="210" y="80" fill="#fff0ee" shape-rendering="crispEdges" /><rect width="30" height="10" x="80" y="90" fill="#fff0ee" shape-rendering="crispEdges" /><rect width="10" height="10" x="110" y="90" fill="#d6c3be" shape-rendering="crispEdges" /><rect width="30" height="10" x="120" y="90" fill="#b2958d" shape-rendering="crispEdges" /><rect width="20" height="10" x="150" y="90" fill="#d6c3be" shape-rendering="crispEdges" /><rect width="30" height="10" x="170" y="90" fill="#b2958d" shape-rendering="crispEdges" /><rect width="10" height="10" x="200" y="90" fill="#d6c3be" shape-rendering="crispEdges" /><rect width="30" height="10" x="210" y="90" fill="#fff0ee" shape-rendering="crispEdges" /><rect width="30" height="10" x="80" y="100" fill="#fff0ee" shape-rendering="crispEdges" /><rect width="40" height="10" x="110" y="100" fill="#d6c3be" shape-rendering="crispEdges" /><rect width="20" height="10" x="150" y="100" fill="#000000" shape-rendering="crispEdges" /><rect width="40" height="10" x="170" y="100" fill="#d6c3be" shape-rendering="crispEdges" /><rect width="30" height="10" x="210" y="100" fill="#fff0ee" shape-rendering="crispEdges" /><rect width="30" height="10" x="80" y="110" fill="#fff0ee" shape-rendering="crispEdges" /><rect width="40" height="10" x="110" y="110" fill="#d6c3be" shape-rendering="crispEdges" /><rect width="20" height="10" x="150" y="110" fill="#000000" shape-rendering="crispEdges" /><rect width="40" height="10" x="170" y="110" fill="#d6c3be" shape-rendering="crispEdges" /><rect width="30" height="10" x="210" y="110" fill="#fff0ee" shape-rendering="crispEdges" /><rect width="40" height="10" x="80" y="120" fill="#fff0ee" shape-rendering="crispEdges" /><rect width="80" height="10" x="120" y="120" fill="#d6c3be" shape-rendering="crispEdges" /><rect width="40" height="10" x="200" y="120" fill="#fff0ee" shape-rendering="crispEdges" /><rect width="160" height="10" x="80" y="130" fill="#fff0ee" shape-rendering="crispEdges" /><rect width="40" height="10" x="80" y="140" fill="#fff0ee" shape-rendering="crispEdges" /><rect width="80" height="10" x="120" y="140" fill="#d6c3be" shape-rendering="crispEdges" /><rect width="40" height="10" x="200" y="140" fill="#fff0ee" shape-rendering="crispEdges" /><rect width="30" height="10" x="80" y="150" fill="#fff0ee" shape-rendering="crispEdges" /><rect width="20" height="10" x="110" y="150" fill="#d6c3be" shape-rendering="crispEdges" /><rect width="10" height="10" x="130" y="150" fill="#000000" shape-rendering="crispEdges" /><rect width="40" height="10" x="140" y="150" fill="#d6c3be" shape-rendering="crispEdges" /><rect width="10" height="10" x="180" y="150" fill="#000000" shape-rendering="crispEdges" /><rect width="20" height="10" x="190" y="150" fill="#d6c3be" shape-rendering="crispEdges" /><rect width="30" height="10" x="210" y="150" fill="#fff0ee" shape-rendering="crispEdges" /><rect width="30" height="10" x="80" y="160" fill="#fff0ee" shape-rendering="crispEdges" /><rect width="20" height="10" x="110" y="160" fill="#d6c3be" shape-rendering="crispEdges" /><rect width="10" height="10" x="130" y="160" fill="#000000" shape-rendering="crispEdges" /><rect width="40" height="10" x="140" y="160" fill="#d6c3be" shape-rendering="crispEdges" /><rect width="10" height="10" x="180" y="160" fill="#000000" shape-rendering="crispEdges" /><rect width="20" height="10" x="190" y="160" fill="#d6c3be" shape-rendering="crispEdges" /><rect width="30" height="10" x="210" y="160" fill="#fff0ee" shape-rendering="crispEdges" /><rect width="30" height="10" x="80" y="170" fill="#fff0ee" shape-rendering="crispEdges" /><rect width="10" height="10" x="110" y="170" fill="#d6c3be" shape-rendering="crispEdges" /><rect width="30" height="10" x="120" y="170" fill="#b2958d" shape-rendering="crispEdges" /><rect width="20" height="10" x="150" y="170" fill="#d6c3be" shape-rendering="crispEdges" /><rect width="30" height="10" x="170" y="170" fill="#b2958d" shape-rendering="crispEdges" /><rect width="10" height="10" x="200" y="170" fill="#d6c3be" shape-rendering="crispEdges" /><rect width="30" height="10" x="210" y="170" fill="#fff0ee" shape-rendering="crispEdges" /><rect width="30" height="10" x="80" y="180" fill="#fff0ee" shape-rendering="crispEdges" /><rect width="40" height="10" x="110" y="180" fill="#d6c3be" shape-rendering="crispEdges" /><rect width="20" height="10" x="150" y="180" fill="#000000" shape-rendering="crispEdges" /><rect width="40" height="10" x="170" y="180" fill="#d6c3be" shape-rendering="crispEdges" /><rect width="30" height="10" x="210" y="180" fill="#fff0ee" shape-rendering="crispEdges" /><rect width="30" height="10" x="80" y="190" fill="#fff0ee" shape-rendering="crispEdges" /><rect width="40" height="10" x="110" y="190" fill="#d6c3be" shape-rendering="crispEdges" /><rect width="20" height="10" x="150" y="190" fill="#000000" shape-rendering="crispEdges" /><rect width="40" height="10" x="170" y="190" fill="#d6c3be" shape-rendering="crispEdges" /><rect width="30" height="10" x="210" y="190" fill="#fff0ee" shape-rendering="crispEdges" /><rect width="40" height="10" x="80" y="200" fill="#fff0ee" shape-rendering="crispEdges" /><rect width="80" height="10" x="120" y="200" fill="#d6c3be" shape-rendering="crispEdges" /><rect width="40" height="10" x="200" y="200" fill="#fff0ee" shape-rendering="crispEdges" /><rect width="160" height="10" x="80" y="210" fill="#fff0ee" shape-rendering="crispEdges" /><rect width="160" height="10" x="80" y="220" fill="#fff0ee" shape-rendering="crispEdges" /></svg>