<svg width="320" height="320" viewBox="0 0 320 320" xmlns="http://www.w3.org/2000/svg" shape-rendering="crispEdges"><rect width="100%" height="100%" fill="none" /><rect width="60" height="10" x="110" y="70" fill="#34ac80" shape-rendering="crispEdges" /><rect width="60" height="10" x="110" y="80" fill="#34ac80" shape-rendering="crispEdges" /><rect width="210" height="10" x="80" y="90" fill="#34ac80" shape-rendering="crispEdges" /><rect width="210" height="10" x="80" y="100" fill="#34ac80" shape-rendering="crispEdges" /><rect width="210" height="10" x="80" y="110" fill="#34ac80" shape-rendering="crispEdges" /><rect width="210" height="10" x="80" y="120" fill="#34ac80" shape-rendering="crispEdges" /><rect width="210" height="10" x="80" y="130" fill="#34ac80" shape-rendering="crispEdges" /><rect width="210" height="10" x="80" y="140" fill="#34ac80" shape-rendering="crispEdges" /><rect width="210" height="10" x="80" y="150" fill="#34ac80" shape-rendering="crispEdges" /><rect width="210" height="10" x="80" y="160" fill="#34ac80" shape-rendering="crispEdges" /><rect width="210" height="10" x="80" y="170" fill="#34ac80" shape-rendering="crispEdges" /><rect width="50" height="10" x="90" y="180" fill="#34ac80" shape-rendering="crispEdges" /><rect width="30" height="10" x="140" y="180" fill="#ffffff" shape-rendering="crispEdges" /><rect width="10" height="10" x="170" y="180" fill="#34ac80" shape-rendering="crispEdges" /><rect width="30" height="10" x="180" y="180" fill="#ffffff" shape-rendering="crispEdges" /><rect width="10" height="10" x="210" y="180" fill="#34ac80" shape-rendering="crispEdges" /><rect width="30" height="10" x="220" y="180" fill="#ffffff" shape-rendering="crispEdges" /><rect width="10" height="10" x="250" y="180" fill="#34ac80" shape-rendering="crispEdges" /><rect width="30" height="10" x="260" y="180" fill="#ffffff" shape-rendering="crispEdges" /><rect width="50" height="10" x="90" y="190" fill="#34ac80" shape-rendering="crispEdges" /><rect width="30" height="10" x="140" y="190" fill="#ffffff" shape-rendering="crispEdges" /><rect width="10" height="10" x="170" y="190" fill="#34ac80" shape-rendering="crispEdges" /><rect width="30" height="10" x="180" y="190" fill="#ffffff" shape-rendering="crispEdges" /><rect width="10" height="10" x="210" y="190" fill="#34ac80" shape-rendering="crispEdges" /><rect width="30" height="10" x="220" y="190" fill="#ffffff" shape-rendering="crispEdges" /><rect width="10" height="10" x="250" y="190" fill="#34ac80" shape-rendering="crispEdges" /><rect width="30" height="10" x="260" y="190" fill="#ffffff" shape-rendering="crispEdges" /><rect width="200" height="10" x="90" y="200" fill="#34ac80" shape-rendering="crispEdges" /><rect width="200" height="10" x="90" y="210" fill="#34ac80" shape-rendering="crispEdges" /></svg>