<svg width="320" height="320" viewBox="0 0 320 320" xmlns="http://www.w3.org/2000/svg" shape-rendering="crispEdges"><rect width="100%" height="100%" fill="none" /><rect width="40" height="10" x="140" y="50" fill="#a3baed" shape-rendering="crispEdges" /><rect width="30" height="10" x="110" y="60" fill="#a3baed" shape-rendering="crispEdges" /><rect width="10" height="10" x="140" y="60" fill="#fff0ee" shape-rendering="crispEdges" /><rect width="30" height="10" x="150" y="60" fill="#a3baed" shape-rendering="crispEdges" /><rect width="10" height="10" x="180" y="60" fill="#fff0ee" shape-rendering="crispEdges" /><rect width="30" height="10" x="190" y="60" fill="#a3baed" shape-rendering="crispEdges" /><rect width="10" height="10" x="90" y="70" fill="#a3baed" shape-rendering="crispEdges" /><rect width="10" height="10" x="100" y="70" fill="#fff0ee" shape-rendering="crispEdges" /><rect width="50" height="10" x="110" y="70" fill="#a3baed" shape-rendering="crispEdges" /><rect width="10" height="10" x="160" y="70" fill="#fff0ee" shape-rendering="crispEdges" /><rect width="60" height="10" x="170" y="70" fill="#a3baed" shape-rendering="crispEdges" /><rect width="10" height="10" x="230" y="70" fill="#fff0ee" shape-rendering="crispEdges" /><rect width="40" height="10" x="90" y="80" fill="#a3baed" shape-rendering="crispEdges" /><rect width="10" height="10" x="130" y="80" fill="#fff0ee" shape-rendering="crispEdges" /><rect width="10" height="10" x="140" y="80" fill="#a3baed" shape-rendering="crispEdges" /><rect width="30" height="10" x="150" y="80" fill="#fff0ee" shape-rendering="crispEdges" /><rect width="20" height="10" x="180" y="80" fill="#a3baed" shape-rendering="crispEdges" /><rect width="10" height="10" x="200" y="80" fill="#fff0ee" shape-rendering="crispEdges" /><rect width="30" height="10" x="210" y="80" fill="#a3baed" shape-rendering="crispEdges" /><rect width="30" height="10" x="80" y="90" fill="#a3baed" shape-rendering="crispEdges" /><rect width="10" height="10" x="110" y="90" fill="#fff0ee" shape-rendering="crispEdges" /><rect width="10" height="10" x="120" y="90" fill="#a3baed" shape-rendering="crispEdges" /><rect width="10" height="10" x="130" y="90" fill="#7e5243" shape-rendering="crispEdges" /><rect width="20" height="10" x="140" y="90" fill="#fff0ee" shape-rendering="crispEdges" /><rect width="10" height="10" x="160" y="90" fill="#7e5243" shape-rendering="crispEdges" /><rect width="20" height="10" x="170" y="90" fill="#fff0ee" shape-rendering="crispEdges" /><rect width="30" height="10" x="190" y="90" fill="#a3baed" shape-rendering="crispEdges" /><rect width="10" height="10" x="220" y="90" fill="#fff0ee" shape-rendering="crispEdges" /><rect width="20" height="10" x="230" y="90" fill="#a3baed" shape-rendering="crispEdges" /><rect width="10" height="10" x="80" y="100" fill="#fff0ee" shape-rendering="crispEdges" /><rect width="40" height="10" x="90" y="100" fill="#a3baed" shape-rendering="crispEdges" /><rect width="20" height="10" x="130" y="100" fill="#fff0ee" shape-rendering="crispEdges" /><rect width="30" height="10" x="150" y="100" fill="#7e5243" shape-rendering="crispEdges" /><rect width="20" height="10" x="180" y="100" fill="#fff0ee" shape-rendering="crispEdges" /><rect width="50" height="10" x="200" y="100" fill="#a3baed" shape-rendering="crispEdges" /><rect width="40" height="10" x="80" y="110" fill="#a3baed" shape-rendering="crispEdges" /><rect width="20" height="10" x="120" y="110" fill="#fff0ee" shape-rendering="crispEdges" /><rect width="50" height="10" x="140" y="110" fill="#7e5243" shape-rendering="crispEdges" /><rect width="20" height="10" x="190" y="110" fill="#fff0ee" shape-rendering="crispEdges" /><rect width="30" height="10" x="210" y="110" fill="#a3baed" shape-rendering="crispEdges" /><rect width="10" height="10" x="240" y="110" fill="#fff0ee" shape-rendering="crispEdges" /><rect width="30" height="10" x="80" y="120" fill="#a3baed" shape-rendering="crispEdges" /><rect width="20" height="10" x="110" y="120" fill="#fff0ee" shape-rendering="crispEdges" /><rect width="30" height="10" x="130" y="120" fill="#7e5243" shape-rendering="crispEdges" /><rect width="10" height="10" x="160" y="120" fill="#ffc110" shape-rendering="crispEdges" /><rect width="10" height="10" x="170" y="120" fill="#7e5243" shape-rendering="crispEdges" /><rect width="10" height="10" x="180" y="120" fill="#ffc110" shape-rendering="crispEdges" /><rect width="10" height="10" x="190" y="120" fill="#7e5243" shape-rendering="crispEdges" /><rect width="20" height="10" x="200" y="120" fill="#fff0ee" shape-rendering="crispEdges" /><rect width="30" height="10" x="220" y="120" fill="#a3baed" shape-rendering="crispEdges" /><rect width="40" height="10" x="80" y="130" fill="#a3baed" shape-rendering="crispEdges" /><rect width="90" height="10" x="120" y="130" fill="#7e5243" shape-rendering="crispEdges" /><rect width="40" height="10" x="210" y="130" fill="#a3baed" shape-rendering="crispEdges" /><rect width="40" height="10" x="80" y="140" fill="#a3baed" shape-rendering="crispEdges" /><rect width="40" height="10" x="120" y="140" fill="#7e5243" shape-rendering="crispEdges" /><rect width="10" height="10" x="160" y="140" fill="#ffc110" shape-rendering="crispEdges" /><rect width="10" height="10" x="170" y="140" fill="#7e5243" shape-rendering="crispEdges" /><rect width="10" height="10" x="180" y="140" fill="#ffc110" shape-rendering="crispEdges" /><rect width="20" height="10" x="190" y="140" fill="#7e5243" shape-rendering="crispEdges" /><rect width="40" height="10" x="210" y="140" fill="#a3baed" shape-rendering="crispEdges" /><rect width="40" height="10" x="80" y="150" fill="#a3baed" shape-rendering="crispEdges" /><rect width="90" height="10" x="120" y="150" fill="#7e5243" shape-rendering="crispEdges" /><rect width="10" height="10" x="210" y="150" fill="#fff0ee" shape-rendering="crispEdges" /><rect width="30" height="10" x="220" y="150" fill="#a3baed" shape-rendering="crispEdges" /><rect width="30" height="10" x="80" y="160" fill="#a3baed" shape-rendering="crispEdges" /><rect width="10" height="10" x="110" y="160" fill="#fff0ee" shape-rendering="crispEdges" /><rect width="90" height="10" x="120" y="160" fill="#7e5243" shape-rendering="crispEdges" /><rect width="20" height="10" x="210" y="160" fill="#fff0ee" shape-rendering="crispEdges" /><rect width="20" height="10" x="230" y="160" fill="#a3baed" shape-rendering="crispEdges" /><rect width="170" height="10" x="80" y="170" fill="#fff0ee" shape-rendering="crispEdges" /><rect width="40" height="10" x="90" y="180" fill="#fff0ee" shape-rendering="crispEdges" /><rect width="40" height="10" x="130" y="180" fill="#ae3208" shape-rendering="crispEdges" /><rect width="70" height="10" x="170" y="180" fill="#fff0ee" shape-rendering="crispEdges" /><rect width="150" height="10" x="90" y="190" fill="#5a423f" shape-rendering="crispEdges" /><rect width="150" height="10" x="90" y="200" fill="#5a423f" shape-rendering="crispEdges" /></svg>