<svg width="320" height="320" viewBox="0 0 320 320" xmlns="http://www.w3.org/2000/svg" shape-rendering="crispEdges"><rect width="100%" height="100%" fill="none" /><rect width="10" height="10" x="90" y="60" fill="#eff2fa" shape-rendering="crispEdges" /><rect width="30" height="10" x="100" y="60" fill="#000000" shape-rendering="crispEdges" /><rect width="50" height="10" x="130" y="60" fill="#eff2fa" shape-rendering="crispEdges" /><rect width="50" height="10" x="180" y="60" fill="#000000" shape-rendering="crispEdges" /><rect width="10" height="10" x="90" y="70" fill="#eff2fa" shape-rendering="crispEdges" /><rect width="30" height="10" x="100" y="70" fill="#000000" shape-rendering="crispEdges" /><rect width="50" height="10" x="130" y="70" fill="#eff2fa" shape-rendering="crispEdges" /><rect width="50" height="10" x="180" y="70" fill="#000000" shape-rendering="crispEdges" /><rect width="30" height="10" x="70" y="80" fill="#eff2fa" shape-rendering="crispEdges" /><rect width="30" height="10" x="100" y="80" fill="#000000" shape-rendering="crispEdges" /><rect width="50" height="10" x="130" y="80" fill="#eff2fa" shape-rendering="crispEdges" /><rect width="50" height="10" x="180" y="80" fill="#000000" shape-rendering="crispEdges" /><rect width="10" height="10" x="230" y="80" fill="#eff2fa" shape-rendering="crispEdges" /><rect width="120" height="10" x="60" y="90" fill="#eff2fa" shape-rendering="crispEdges" /><rect width="50" height="10" x="180" y="90" fill="#000000" shape-rendering="crispEdges" /><rect width="20" height="10" x="230" y="90" fill="#eff2fa" shape-rendering="crispEdges" /><rect width="190" height="10" x="60" y="100" fill="#eff2fa" shape-rendering="crispEdges" /><rect width="40" height="10" x="60" y="110" fill="#eff2fa" shape-rendering="crispEdges" /><rect width="20" height="10" x="100" y="110" fill="#000000" shape-rendering="crispEdges" /><rect width="130" height="10" x="120" y="110" fill="#eff2fa" shape-rendering="crispEdges" /><rect width="30" height="10" x="90" y="120" fill="#000000" shape-rendering="crispEdges" /><rect width="110" height="10" x="120" y="120" fill="#eff2fa" shape-rendering="crispEdges" /><rect width="30" height="10" x="90" y="130" fill="#000000" shape-rendering="crispEdges" /><rect width="40" height="10" x="120" y="130" fill="#eff2fa" shape-rendering="crispEdges" /><rect width="30" height="10" x="160" y="130" fill="#000000" shape-rendering="crispEdges" /><rect width="40" height="10" x="190" y="130" fill="#eff2fa" shape-rendering="crispEdges" /><rect width="70" height="10" x="90" y="140" fill="#eff2fa" shape-rendering="crispEdges" /><rect width="30" height="10" x="160" y="140" fill="#000000" shape-rendering="crispEdges" /><rect width="40" height="10" x="190" y="140" fill="#eff2fa" shape-rendering="crispEdges" /><rect width="70" height="10" x="90" y="150" fill="#eff2fa" shape-rendering="crispEdges" /><rect width="30" height="10" x="160" y="150" fill="#000000" shape-rendering="crispEdges" /><rect width="40" height="10" x="190" y="150" fill="#eff2fa" shape-rendering="crispEdges" /><rect width="20" height="10" x="90" y="160" fill="#eff2fa" shape-rendering="crispEdges" /><rect width="140" height="10" x="110" y="160" fill="#feb9d5" shape-rendering="crispEdges" /><rect width="10" height="10" x="90" y="170" fill="#000000" shape-rendering="crispEdges" /><rect width="10" height="10" x="100" y="170" fill="#eff2fa" shape-rendering="crispEdges" /><rect width="40" height="10" x="110" y="170" fill="#feb9d5" shape-rendering="crispEdges" /><rect width="20" height="10" x="150" y="170" fill="#5a423f" shape-rendering="crispEdges" /><rect width="30" height="10" x="170" y="170" fill="#feb9d5" shape-rendering="crispEdges" /><rect width="20" height="10" x="200" y="170" fill="#5a423f" shape-rendering="crispEdges" /><rect width="30" height="10" x="220" y="170" fill="#feb9d5" shape-rendering="crispEdges" /><rect width="20" height="10" x="90" y="180" fill="#000000" shape-rendering="crispEdges" /><rect width="140" height="10" x="110" y="180" fill="#feb9d5" shape-rendering="crispEdges" /><rect width="20" height="10" x="90" y="190" fill="#000000" shape-rendering="crispEdges" /><rect width="30" height="10" x="110" y="190" fill="#feb9d5" shape-rendering="crispEdges" /><rect width="90" height="10" x="140" y="190" fill="#5a423f" shape-rendering="crispEdges" /><rect width="20" height="10" x="230" y="190" fill="#feb9d5" shape-rendering="crispEdges" /><rect width="20" height="10" x="90" y="200" fill="#000000" shape-rendering="crispEdges" /><rect width="140" height="10" x="110" y="200" fill="#feb9d5" shape-rendering="crispEdges" /></svg>