<svg width="320" height="320" viewBox="0 0 320 320" xmlns="http://www.w3.org/2000/svg" shape-rendering="crispEdges"><rect width="100%" height="100%" fill="none" /><rect width="30" height="10" x="140" y="10" fill="#ffc110" shape-rendering="crispEdges" /><rect width="10" height="10" x="110" y="20" fill="#ffc110" shape-rendering="crispEdges" /><rect width="20" height="10" x="120" y="20" fill="#5648ed" shape-rendering="crispEdges" /><rect width="10" height="10" x="140" y="20" fill="#ffc110" shape-rendering="crispEdges" /><rect width="10" height="10" x="150" y="20" fill="#5648ed" shape-rendering="crispEdges" /><rect width="10" height="10" x="160" y="20" fill="#ffc110" shape-rendering="crispEdges" /><rect width="20" height="10" x="170" y="20" fill="#5648ed" shape-rendering="crispEdges" /><rect width="10" height="10" x="190" y="20" fill="#ffc110" shape-rendering="crispEdges" /><rect width="20" height="10" x="110" y="30" fill="#5648ed" shape-rendering="crispEdges" /><rect width="10" height="10" x="130" y="30" fill="#ffc110" shape-rendering="crispEdges" /><rect width="30" height="10" x="140" y="30" fill="#5648ed" shape-rendering="crispEdges" /><rect width="10" height="10" x="170" y="30" fill="#ffc110" shape-rendering="crispEdges" /><rect width="20" height="10" x="180" y="30" fill="#5648ed" shape-rendering="crispEdges" /><rect width="10" height="10" x="100" y="40" fill="#068940" shape-rendering="crispEdges" /><rect width="40" height="10" x="110" y="40" fill="#5648ed" shape-rendering="crispEdges" /><rect width="10" height="10" x="150" y="40" fill="#068940" shape-rendering="crispEdges" /><rect width="40" height="10" x="160" y="40" fill="#5648ed" shape-rendering="crispEdges" /><rect width="10" height="10" x="200" y="40" fill="#068940" shape-rendering="crispEdges" /><rect width="130" height="10" x="90" y="50" fill="#5648ed" shape-rendering="crispEdges" /><rect width="10" height="10" x="90" y="60" fill="#5648ed" shape-rendering="crispEdges" /><rect width="10" height="10" x="100" y="60" fill="#ffc110" shape-rendering="crispEdges" /><rect width="40" height="10" x="110" y="60" fill="#5648ed" shape-rendering="crispEdges" /><rect width="10" height="10" x="150" y="60" fill="#ffc110" shape-rendering="crispEdges" /><rect width="40" height="10" x="160" y="60" fill="#5648ed" shape-rendering="crispEdges" /><rect width="10" height="10" x="200" y="60" fill="#ffc110" shape-rendering="crispEdges" /><rect width="10" height="10" x="210" y="60" fill="#5648ed" shape-rendering="crispEdges" /><rect width="10" height="10" x="80" y="70" fill="#5648ed" shape-rendering="crispEdges" /><rect width="10" height="10" x="90" y="70" fill="#ffc110" shape-rendering="crispEdges" /><rect width="10" height="10" x="100" y="70" fill="#b92b3c" shape-rendering="crispEdges" /><rect width="10" height="10" x="110" y="70" fill="#ffc110" shape-rendering="crispEdges" /><rect width="20" height="10" x="120" y="70" fill="#5648ed" shape-rendering="crispEdges" /><rect width="10" height="10" x="140" y="70" fill="#ffc110" shape-rendering="crispEdges" /><rect width="10" height="10" x="150" y="70" fill="#b92b3c" shape-rendering="crispEdges" /><rect width="10" height="10" x="160" y="70" fill="#ffc110" shape-rendering="crispEdges" /><rect width="20" height="10" x="170" y="70" fill="#5648ed" shape-rendering="crispEdges" /><rect width="10" height="10" x="190" y="70" fill="#ffc110" shape-rendering="crispEdges" /><rect width="10" height="10" x="200" y="70" fill="#b92b3c" shape-rendering="crispEdges" /><rect width="10" height="10" x="210" y="70" fill="#ffc110" shape-rendering="crispEdges" /><rect width="10" height="10" x="220" y="70" fill="#5648ed" shape-rendering="crispEdges" /><rect width="20" height="10" x="80" y="80" fill="#5648ed" shape-rendering="crispEdges" /><rect width="10" height="10" x="100" y="80" fill="#ffc110" shape-rendering="crispEdges" /><rect width="40" height="10" x="110" y="80" fill="#5648ed" shape-rendering="crispEdges" /><rect width="10" height="10" x="150" y="80" fill="#ffc110" shape-rendering="crispEdges" /><rect width="40" height="10" x="160" y="80" fill="#5648ed" shape-rendering="crispEdges" /><rect width="10" height="10" x="200" y="80" fill="#ffc110" shape-rendering="crispEdges" /><rect width="20" height="10" x="210" y="80" fill="#5648ed" shape-rendering="crispEdges" /><rect width="170" height="10" x="70" y="90" fill="#5648ed" shape-rendering="crispEdges" /><rect width="170" height="10" x="70" y="100" fill="#ffc110" shape-rendering="crispEdges" /><rect width="190" height="10" x="60" y="110" fill="#ffc110" shape-rendering="crispEdges" /><rect width="170" height="10" x="70" y="120" fill="#d08b11" shape-rendering="crispEdges" /><rect width="170" height="10" x="70" y="130" fill="#5648ed" shape-rendering="crispEdges" /><rect width="170" height="10" x="70" y="140" fill="#5648ed" shape-rendering="crispEdges" /><rect width="150" height="10" x="80" y="150" fill="#5648ed" shape-rendering="crispEdges" /><rect width="150" height="10" x="80" y="160" fill="#5648ed" shape-rendering="crispEdges" /><rect width="150" height="10" x="80" y="170" fill="#5648ed" shape-rendering="crispEdges" /><rect width="130" height="10" x="90" y="180" fill="#5648ed" shape-rendering="crispEdges" /><rect width="60" height="10" x="90" y="190" fill="#ffc110" shape-rendering="crispEdges" /><rect width="30" height="10" x="150" y="190" fill="#000000" shape-rendering="crispEdges" /><rect width="30" height="10" x="180" y="190" fill="#ffc110" shape-rendering="crispEdges" /><rect width="90" height="10" x="110" y="200" fill="#d08b11" shape-rendering="crispEdges" /></svg>