<svg width="320" height="320" viewBox="0 0 320 320" xmlns="http://www.w3.org/2000/svg" shape-rendering="crispEdges"><rect width="100%" height="100%" fill="none" /><rect width="40" height="10" x="90" y="20" fill="#f98f30" shape-rendering="crispEdges" /><rect width="40" height="10" x="190" y="20" fill="#f98f30" shape-rendering="crispEdges" /><rect width="70" height="10" x="70" y="30" fill="#f98f30" shape-rendering="crispEdges" /><rect width="70" height="10" x="180" y="30" fill="#f98f30" shape-rendering="crispEdges" /><rect width="90" height="10" x="60" y="40" fill="#f98f30" shape-rendering="crispEdges" /><rect width="90" height="10" x="170" y="40" fill="#f98f30" shape-rendering="crispEdges" /><rect width="30" height="10" x="50" y="50" fill="#f98f30" shape-rendering="crispEdges" /><rect width="20" height="10" x="80" y="50" fill="#fa5e20" shape-rendering="crispEdges" /><rect width="20" height="10" x="220" y="50" fill="#fa5e20" shape-rendering="crispEdges" /><rect width="30" height="10" x="240" y="50" fill="#f98f30" shape-rendering="crispEdges" /><rect width="100" height="10" x="50" y="60" fill="#f98f30" shape-rendering="crispEdges" /><rect width="100" height="10" x="170" y="60" fill="#f98f30" shape-rendering="crispEdges" /><rect width="90" height="10" x="50" y="70" fill="#f98f30" shape-rendering="crispEdges" /><rect width="90" height="10" x="180" y="70" fill="#f98f30" shape-rendering="crispEdges" /><rect width="20" height="10" x="50" y="80" fill="#f98f30" shape-rendering="crispEdges" /><rect width="50" height="10" x="80" y="80" fill="#f98f30" shape-rendering="crispEdges" /><rect width="50" height="10" x="190" y="80" fill="#f98f30" shape-rendering="crispEdges" /><rect width="20" height="10" x="250" y="80" fill="#f98f30" shape-rendering="crispEdges" /><rect width="20" height="10" x="50" y="90" fill="#f98f30" shape-rendering="crispEdges" /><rect width="10" height="10" x="140" y="90" fill="#000000" shape-rendering="crispEdges" /><rect width="10" height="10" x="170" y="90" fill="#000000" shape-rendering="crispEdges" /><rect width="20" height="10" x="250" y="90" fill="#f98f30" shape-rendering="crispEdges" /><rect width="20" height="10" x="50" y="100" fill="#f98f30" shape-rendering="crispEdges" /><rect width="160" height="10" x="80" y="100" fill="#f98f30" shape-rendering="crispEdges" /><rect width="20" height="10" x="250" y="100" fill="#f98f30" shape-rendering="crispEdges" /><rect width="20" height="10" x="50" y="110" fill="#f98f30" shape-rendering="crispEdges" /><rect width="160" height="10" x="80" y="110" fill="#f98f30" shape-rendering="crispEdges" /><rect width="20" height="10" x="250" y="110" fill="#f98f30" shape-rendering="crispEdges" /><rect width="220" height="10" x="50" y="120" fill="#f98f30" shape-rendering="crispEdges" /><rect width="220" height="10" x="50" y="130" fill="#f98f30" shape-rendering="crispEdges" /><rect width="220" height="10" x="50" y="140" fill="#f98f30" shape-rendering="crispEdges" /><rect width="160" height="10" x="80" y="150" fill="#f98f30" shape-rendering="crispEdges" /><rect width="160" height="10" x="80" y="160" fill="#f98f30" shape-rendering="crispEdges" /><rect width="160" height="10" x="80" y="170" fill="#f98f30" shape-rendering="crispEdges" /><rect width="60" height="10" x="80" y="180" fill="#f98f30" shape-rendering="crispEdges" /><rect width="40" height="10" x="140" y="180" fill="#fa5e20" shape-rendering="crispEdges" /><rect width="60" height="10" x="180" y="180" fill="#f98f30" shape-rendering="crispEdges" /><rect width="160" height="10" x="80" y="190" fill="#f98f30" shape-rendering="crispEdges" /><rect width="160" height="10" x="80" y="200" fill="#f98f30" shape-rendering="crispEdges" /></svg>