<svg width="320" height="320" viewBox="0 0 320 320" xmlns="http://www.w3.org/2000/svg" shape-rendering="crispEdges"><rect width="100%" height="100%" fill="none" /><rect width="260" height="10" x="30" y="90" fill="#aaa6a4" shape-rendering="crispEdges" /><rect width="10" height="10" x="30" y="100" fill="#aaa6a4" shape-rendering="crispEdges" /><rect width="10" height="10" x="280" y="100" fill="#aaa6a4" shape-rendering="crispEdges" /><rect width="10" height="10" x="30" y="110" fill="#aaa6a4" shape-rendering="crispEdges" /><rect width="10" height="10" x="280" y="110" fill="#aaa6a4" shape-rendering="crispEdges" /><rect width="10" height="10" x="30" y="120" fill="#aaa6a4" shape-rendering="crispEdges" /><rect width="10" height="10" x="280" y="120" fill="#aaa6a4" shape-rendering="crispEdges" /><rect width="10" height="10" x="30" y="130" fill="#aaa6a4" shape-rendering="crispEdges" /><rect width="160" height="10" x="70" y="130" fill="#aaa6a4" shape-rendering="crispEdges" /><rect width="10" height="10" x="280" y="130" fill="#aaa6a4" shape-rendering="crispEdges" /><rect width="10" height="10" x="30" y="140" fill="#aaa6a4" shape-rendering="crispEdges" /><rect width="10" height="10" x="70" y="140" fill="#aaa6a4" shape-rendering="crispEdges" /><rect width="10" height="10" x="280" y="140" fill="#aaa6a4" shape-rendering="crispEdges" /><rect width="10" height="10" x="30" y="150" fill="#aaa6a4" shape-rendering="crispEdges" /><rect width="10" height="10" x="70" y="150" fill="#aaa6a4" shape-rendering="crispEdges" /><rect width="10" height="10" x="280" y="150" fill="#aaa6a4" shape-rendering="crispEdges" /><rect width="10" height="10" x="30" y="160" fill="#aaa6a4" shape-rendering="crispEdges" /><rect width="10" height="10" x="70" y="160" fill="#aaa6a4" shape-rendering="crispEdges" /><rect width="10" height="10" x="280" y="160" fill="#aaa6a4" shape-rendering="crispEdges" /><rect width="10" height="10" x="30" y="170" fill="#aaa6a4" shape-rendering="crispEdges" /><rect width="10" height="10" x="70" y="170" fill="#aaa6a4" shape-rendering="crispEdges" /><rect width="10" height="10" x="280" y="170" fill="#aaa6a4" shape-rendering="crispEdges" /><rect width="10" height="10" x="30" y="180" fill="#aaa6a4" shape-rendering="crispEdges" /><rect width="220" height="10" x="70" y="180" fill="#aaa6a4" shape-rendering="crispEdges" /><rect width="10" height="10" x="30" y="190" fill="#aaa6a4" shape-rendering="crispEdges" /><rect width="200" height="10" x="30" y="200" fill="#aaa6a4" shape-rendering="crispEdges" /></svg>