<svg width="320" height="320" viewBox="0 0 320 320" xmlns="http://www.w3.org/2000/svg" shape-rendering="crispEdges"><rect width="100%" height="100%" fill="none" /><rect width="10" height="10" x="130" y="20" fill="#f3322c" shape-rendering="crispEdges" /><rect width="110" height="10" x="100" y="30" fill="#f3322c" shape-rendering="crispEdges" /><rect width="110" height="10" x="90" y="40" fill="#f3322c" shape-rendering="crispEdges" /><rect width="120" height="10" x="90" y="50" fill="#f3322c" shape-rendering="crispEdges" /><rect width="140" height="10" x="70" y="60" fill="#f3322c" shape-rendering="crispEdges" /><rect width="60" height="10" x="60" y="70" fill="#f3322c" shape-rendering="crispEdges" /><rect width="70" height="10" x="120" y="70" fill="#1f1d29" shape-rendering="crispEdges" /><rect width="40" height="10" x="190" y="70" fill="#f3322c" shape-rendering="crispEdges" /><rect width="40" height="10" x="80" y="80" fill="#f3322c" shape-rendering="crispEdges" /><rect width="70" height="10" x="120" y="80" fill="#1f1d29" shape-rendering="crispEdges" /><rect width="40" height="10" x="190" y="80" fill="#f3322c" shape-rendering="crispEdges" /><rect width="20" height="10" x="80" y="90" fill="#f3322c" shape-rendering="crispEdges" /><rect width="120" height="10" x="100" y="90" fill="#1f1d29" shape-rendering="crispEdges" /><rect width="10" height="10" x="220" y="90" fill="#f3322c" shape-rendering="crispEdges" /><rect width="20" height="10" x="80" y="100" fill="#f3322c" shape-rendering="crispEdges" /><rect width="120" height="10" x="100" y="100" fill="#1f1d29" shape-rendering="crispEdges" /><rect width="10" height="10" x="220" y="100" fill="#f3322c" shape-rendering="crispEdges" /><rect width="20" height="10" x="80" y="110" fill="#f3322c" shape-rendering="crispEdges" /><rect width="120" height="10" x="100" y="110" fill="#1f1d29" shape-rendering="crispEdges" /><rect width="10" height="10" x="220" y="110" fill="#f3322c" shape-rendering="crispEdges" /><rect width="20" height="10" x="80" y="120" fill="#f3322c" shape-rendering="crispEdges" /><rect width="120" height="10" x="100" y="120" fill="#1f1d29" shape-rendering="crispEdges" /><rect width="10" height="10" x="220" y="120" fill="#f3322c" shape-rendering="crispEdges" /><rect width="20" height="10" x="80" y="130" fill="#f3322c" shape-rendering="crispEdges" /><rect width="120" height="10" x="100" y="130" fill="#1f1d29" shape-rendering="crispEdges" /><rect width="10" height="10" x="220" y="130" fill="#f3322c" shape-rendering="crispEdges" /><rect width="160" height="10" x="80" y="140" fill="#1f1d29" shape-rendering="crispEdges" /><rect width="40" height="10" x="80" y="150" fill="#1f1d29" shape-rendering="crispEdges" /><rect width="100" height="10" x="120" y="150" fill="#5a423f" shape-rendering="crispEdges" /><rect width="20" height="10" x="220" y="150" fill="#1f1d29" shape-rendering="crispEdges" /><rect width="30" height="10" x="80" y="160" fill="#1f1d29" shape-rendering="crispEdges" /><rect width="120" height="10" x="110" y="160" fill="#5a423f" shape-rendering="crispEdges" /><rect width="10" height="10" x="230" y="160" fill="#1f1d29" shape-rendering="crispEdges" /><rect width="30" height="10" x="80" y="170" fill="#1f1d29" shape-rendering="crispEdges" /><rect width="10" height="10" x="110" y="170" fill="#5a423f" shape-rendering="crispEdges" /><rect width="10" height="10" x="120" y="170" fill="#f3322c" shape-rendering="crispEdges" /><rect width="20" height="10" x="130" y="170" fill="#5a423f" shape-rendering="crispEdges" /><rect width="10" height="10" x="150" y="170" fill="#1f1d29" shape-rendering="crispEdges" /><rect width="10" height="10" x="160" y="170" fill="#5a423f" shape-rendering="crispEdges" /><rect width="10" height="10" x="170" y="170" fill="#1f1d29" shape-rendering="crispEdges" /><rect width="30" height="10" x="180" y="170" fill="#5a423f" shape-rendering="crispEdges" /><rect width="10" height="10" x="210" y="170" fill="#f3322c" shape-rendering="crispEdges" /><rect width="10" height="10" x="220" y="170" fill="#5a423f" shape-rendering="crispEdges" /><rect width="10" height="10" x="230" y="170" fill="#1f1d29" shape-rendering="crispEdges" /><rect width="30" height="10" x="80" y="180" fill="#1f1d29" shape-rendering="crispEdges" /><rect width="10" height="10" x="110" y="180" fill="#f3322c" shape-rendering="crispEdges" /><rect width="100" height="10" x="120" y="180" fill="#5a423f" shape-rendering="crispEdges" /><rect width="10" height="10" x="220" y="180" fill="#f3322c" shape-rendering="crispEdges" /><rect width="10" height="10" x="230" y="180" fill="#1f1d29" shape-rendering="crispEdges" /><rect width="30" height="10" x="80" y="190" fill="#1f1d29" shape-rendering="crispEdges" /><rect width="10" height="10" x="110" y="190" fill="#f3322c" shape-rendering="crispEdges" /><rect width="100" height="10" x="120" y="190" fill="#000000" shape-rendering="crispEdges" /><rect width="10" height="10" x="220" y="190" fill="#f3322c" shape-rendering="crispEdges" /><rect width="10" height="10" x="230" y="190" fill="#1f1d29" shape-rendering="crispEdges" /><rect width="30" height="10" x="80" y="200" fill="#1f1d29" shape-rendering="crispEdges" /><rect width="120" height="10" x="110" y="200" fill="#f3322c" shape-rendering="crispEdges" /><rect width="10" height="10" x="230" y="200" fill="#1f1d29" shape-rendering="crispEdges" /></svg>