<svg width="320" height="320" viewBox="0 0 320 320" xmlns="http://www.w3.org/2000/svg" shape-rendering="crispEdges"><rect width="100%" height="100%" fill="none" /><rect width="50" height="10" x="120" y="70" fill="#b92b3c" shape-rendering="crispEdges" /><rect width="50" height="10" x="120" y="80" fill="#b92b3c" shape-rendering="crispEdges" /><rect width="20" height="10" x="150" y="90" fill="#b92b3c" shape-rendering="crispEdges" /><rect width="100" height="10" x="50" y="100" fill="#807f7e" shape-rendering="crispEdges" /><rect width="20" height="10" x="150" y="100" fill="#b92b3c" shape-rendering="crispEdges" /><rect width="30" height="10" x="170" y="100" fill="#807f7e" shape-rendering="crispEdges" /><rect width="100" height="10" x="50" y="110" fill="#807f7e" shape-rendering="crispEdges" /><rect width="20" height="10" x="150" y="110" fill="#b92b3c" shape-rendering="crispEdges" /><rect width="30" height="10" x="170" y="110" fill="#807f7e" shape-rendering="crispEdges" /><rect width="100" height="10" x="50" y="120" fill="#807f7e" shape-rendering="crispEdges" /><rect width="20" height="10" x="150" y="120" fill="#b92b3c" shape-rendering="crispEdges" /><rect width="30" height="10" x="170" y="120" fill="#807f7e" shape-rendering="crispEdges" /><rect width="100" height="10" x="50" y="130" fill="#807f7e" shape-rendering="crispEdges" /><rect width="20" height="10" x="150" y="130" fill="#b92b3c" shape-rendering="crispEdges" /><rect width="30" height="10" x="170" y="130" fill="#807f7e" shape-rendering="crispEdges" /><rect width="100" height="10" x="50" y="140" fill="#807f7e" shape-rendering="crispEdges" /><rect width="20" height="10" x="150" y="140" fill="#b92b3c" shape-rendering="crispEdges" /><rect width="30" height="10" x="170" y="140" fill="#807f7e" shape-rendering="crispEdges" /><rect width="60" height="10" x="200" y="140" fill="#ffffff" shape-rendering="crispEdges" /><rect width="100" height="10" x="50" y="150" fill="#807f7e" shape-rendering="crispEdges" /><rect width="20" height="10" x="150" y="150" fill="#b92b3c" shape-rendering="crispEdges" /><rect width="30" height="10" x="170" y="150" fill="#807f7e" shape-rendering="crispEdges" /><rect width="40" height="10" x="200" y="150" fill="#ffffff" shape-rendering="crispEdges" /><rect width="10" height="10" x="240" y="150" fill="#667af9" shape-rendering="crispEdges" /><rect width="10" height="10" x="250" y="150" fill="#ffffff" shape-rendering="crispEdges" /><rect width="100" height="10" x="50" y="160" fill="#807f7e" shape-rendering="crispEdges" /><rect width="20" height="10" x="150" y="160" fill="#b92b3c" shape-rendering="crispEdges" /><rect width="30" height="10" x="170" y="160" fill="#807f7e" shape-rendering="crispEdges" /><rect width="60" height="10" x="200" y="160" fill="#ffffff" shape-rendering="crispEdges" /><rect width="100" height="10" x="50" y="170" fill="#807f7e" shape-rendering="crispEdges" /><rect width="20" height="10" x="150" y="170" fill="#b92b3c" shape-rendering="crispEdges" /><rect width="30" height="10" x="170" y="170" fill="#807f7e" shape-rendering="crispEdges" /><rect width="60" height="10" x="200" y="170" fill="#ffffff" shape-rendering="crispEdges" /><rect width="100" height="10" x="50" y="180" fill="#807f7e" shape-rendering="crispEdges" /><rect width="20" height="10" x="150" y="180" fill="#b92b3c" shape-rendering="crispEdges" /><rect width="30" height="10" x="170" y="180" fill="#807f7e" shape-rendering="crispEdges" /><rect width="10" height="10" x="200" y="180" fill="#ffffff" shape-rendering="crispEdges" /><rect width="40" height="10" x="210" y="180" fill="#000000" shape-rendering="crispEdges" /><rect width="10" height="10" x="250" y="180" fill="#ffffff" shape-rendering="crispEdges" /><rect width="150" height="10" x="50" y="190" fill="#807f7e" shape-rendering="crispEdges" /><rect width="60" height="10" x="200" y="190" fill="#ffffff" shape-rendering="crispEdges" /><rect width="230" height="10" x="50" y="200" fill="#807f7e" shape-rendering="crispEdges" /></svg>