<svg width="320" height="320" viewBox="0 0 320 320" xmlns="http://www.w3.org/2000/svg" shape-rendering="crispEdges"><rect width="100%" height="100%" fill="none" /><rect width="30" height="10" x="60" y="50" fill="#7d635e" shape-rendering="crispEdges" /><rect width="30" height="10" x="190" y="50" fill="#7d635e" shape-rendering="crispEdges" /><rect width="10" height="10" x="60" y="60" fill="#7d635e" shape-rendering="crispEdges" /><rect width="20" height="10" x="70" y="60" fill="#f38b7c" shape-rendering="crispEdges" /><rect width="10" height="10" x="90" y="60" fill="#7d635e" shape-rendering="crispEdges" /><rect width="10" height="10" x="180" y="60" fill="#7d635e" shape-rendering="crispEdges" /><rect width="20" height="10" x="190" y="60" fill="#f38b7c" shape-rendering="crispEdges" /><rect width="10" height="10" x="210" y="60" fill="#7d635e" shape-rendering="crispEdges" /><rect width="10" height="10" x="60" y="70" fill="#7d635e" shape-rendering="crispEdges" /><rect width="30" height="10" x="70" y="70" fill="#f38b7c" shape-rendering="crispEdges" /><rect width="10" height="10" x="100" y="70" fill="#7d635e" shape-rendering="crispEdges" /><rect width="10" height="10" x="170" y="70" fill="#7d635e" shape-rendering="crispEdges" /><rect width="30" height="10" x="180" y="70" fill="#f38b7c" shape-rendering="crispEdges" /><rect width="10" height="10" x="210" y="70" fill="#7d635e" shape-rendering="crispEdges" /><rect width="10" height="10" x="70" y="80" fill="#7d635e" shape-rendering="crispEdges" /><rect width="30" height="10" x="80" y="80" fill="#f38b7c" shape-rendering="crispEdges" /><rect width="10" height="10" x="110" y="80" fill="#7d635e" shape-rendering="crispEdges" /><rect width="10" height="10" x="160" y="80" fill="#7d635e" shape-rendering="crispEdges" /><rect width="30" height="10" x="170" y="80" fill="#f38b7c" shape-rendering="crispEdges" /><rect width="10" height="10" x="200" y="80" fill="#7d635e" shape-rendering="crispEdges" /><rect width="10" height="10" x="80" y="90" fill="#7d635e" shape-rendering="crispEdges" /><rect width="20" height="10" x="90" y="90" fill="#f38b7c" shape-rendering="crispEdges" /><rect width="20" height="10" x="110" y="90" fill="#7d635e" shape-rendering="crispEdges" /><rect width="20" height="10" x="150" y="90" fill="#7d635e" shape-rendering="crispEdges" /><rect width="20" height="10" x="170" y="90" fill="#f38b7c" shape-rendering="crispEdges" /><rect width="10" height="10" x="190" y="90" fill="#7d635e" shape-rendering="crispEdges" /><rect width="100" height="10" x="90" y="100" fill="#7d635e" shape-rendering="crispEdges" /><rect width="80" height="10" x="90" y="110" fill="#7d635e" shape-rendering="crispEdges" /><rect width="80" height="10" x="90" y="120" fill="#7d635e" shape-rendering="crispEdges" /><rect width="80" height="10" x="90" y="130" fill="#7d635e" shape-rendering="crispEdges" /><rect width="80" height="10" x="90" y="140" fill="#7d635e" shape-rendering="crispEdges" /><rect width="60" height="10" x="90" y="150" fill="#7d635e" shape-rendering="crispEdges" /><rect width="80" height="10" x="150" y="150" fill="#d4b7b2" shape-rendering="crispEdges" /><rect width="30" height="10" x="230" y="150" fill="#000000" shape-rendering="crispEdges" /><rect width="60" height="10" x="90" y="160" fill="#7d635e" shape-rendering="crispEdges" /><rect width="80" height="10" x="150" y="160" fill="#d4b7b2" shape-rendering="crispEdges" /><rect width="30" height="10" x="230" y="160" fill="#000000" shape-rendering="crispEdges" /><rect width="60" height="10" x="90" y="170" fill="#7d635e" shape-rendering="crispEdges" /><rect width="110" height="10" x="150" y="170" fill="#d4b7b2" shape-rendering="crispEdges" /><rect width="60" height="10" x="90" y="180" fill="#7d635e" shape-rendering="crispEdges" /><rect width="20" height="10" x="150" y="180" fill="#000000" shape-rendering="crispEdges" /><rect width="90" height="10" x="170" y="180" fill="#d4b7b2" shape-rendering="crispEdges" /><rect width="60" height="10" x="90" y="190" fill="#7d635e" shape-rendering="crispEdges" /><rect width="110" height="10" x="150" y="190" fill="#d4b7b2" shape-rendering="crispEdges" /><rect width="60" height="10" x="90" y="200" fill="#7d635e" shape-rendering="crispEdges" /><rect width="110" height="10" x="150" y="200" fill="#d4b7b2" shape-rendering="crispEdges" /></svg>