<svg width="320" height="320" viewBox="0 0 320 320" xmlns="http://www.w3.org/2000/svg" shape-rendering="crispEdges"><rect width="100%" height="100%" fill="none" /><rect width="20" height="10" x="110" y="20" fill="#909b0e" shape-rendering="crispEdges" /><rect width="30" height="10" x="130" y="20" fill="#ffc110" shape-rendering="crispEdges" /><rect width="40" height="10" x="110" y="30" fill="#909b0e" shape-rendering="crispEdges" /><rect width="20" height="10" x="170" y="30" fill="#909b0e" shape-rendering="crispEdges" /><rect width="30" height="10" x="190" y="30" fill="#ffc110" shape-rendering="crispEdges" /><rect width="10" height="10" x="70" y="40" fill="#ffc110" shape-rendering="crispEdges" /><rect width="20" height="10" x="110" y="40" fill="#909b0e" shape-rendering="crispEdges" /><rect width="50" height="10" x="160" y="40" fill="#909b0e" shape-rendering="crispEdges" /><rect width="10" height="10" x="70" y="50" fill="#ffc110" shape-rendering="crispEdges" /><rect width="10" height="10" x="80" y="50" fill="#909b0e" shape-rendering="crispEdges" /><rect width="20" height="10" x="110" y="50" fill="#909b0e" shape-rendering="crispEdges" /><rect width="30" height="10" x="150" y="50" fill="#909b0e" shape-rendering="crispEdges" /><rect width="10" height="10" x="70" y="60" fill="#ffc110" shape-rendering="crispEdges" /><rect width="10" height="10" x="80" y="60" fill="#909b0e" shape-rendering="crispEdges" /><rect width="20" height="10" x="110" y="60" fill="#909b0e" shape-rendering="crispEdges" /><rect width="30" height="10" x="150" y="60" fill="#909b0e" shape-rendering="crispEdges" /><rect width="20" height="10" x="70" y="70" fill="#909b0e" shape-rendering="crispEdges" /><rect width="20" height="10" x="110" y="70" fill="#909b0e" shape-rendering="crispEdges" /><rect width="20" height="10" x="150" y="70" fill="#909b0e" shape-rendering="crispEdges" /><rect width="10" height="10" x="190" y="70" fill="#6f597a" shape-rendering="crispEdges" /><rect width="10" height="10" x="230" y="70" fill="#ffc110" shape-rendering="crispEdges" /><rect width="20" height="10" x="70" y="80" fill="#909b0e" shape-rendering="crispEdges" /><rect width="30" height="10" x="110" y="80" fill="#909b0e" shape-rendering="crispEdges" /><rect width="20" height="10" x="150" y="80" fill="#909b0e" shape-rendering="crispEdges" /><rect width="10" height="10" x="220" y="80" fill="#909b0e" shape-rendering="crispEdges" /><rect width="20" height="10" x="230" y="80" fill="#ffc110" shape-rendering="crispEdges" /><rect width="20" height="10" x="70" y="90" fill="#909b0e" shape-rendering="crispEdges" /><rect width="50" height="10" x="120" y="90" fill="#909b0e" shape-rendering="crispEdges" /><rect width="40" height="10" x="220" y="90" fill="#909b0e" shape-rendering="crispEdges" /><rect width="10" height="10" x="50" y="100" fill="#6f597a" shape-rendering="crispEdges" /><rect width="20" height="10" x="80" y="100" fill="#909b0e" shape-rendering="crispEdges" /><rect width="50" height="10" x="120" y="100" fill="#909b0e" shape-rendering="crispEdges" /><rect width="30" height="10" x="230" y="100" fill="#909b0e" shape-rendering="crispEdges" /><rect width="20" height="10" x="50" y="110" fill="#6f597a" shape-rendering="crispEdges" /><rect width="20" height="10" x="80" y="110" fill="#909b0e" shape-rendering="crispEdges" /><rect width="50" height="10" x="120" y="110" fill="#909b0e" shape-rendering="crispEdges" /><rect width="20" height="10" x="240" y="110" fill="#909b0e" shape-rendering="crispEdges" /><rect width="100" height="10" x="80" y="120" fill="#909b0e" shape-rendering="crispEdges" /><rect width="40" height="10" x="220" y="120" fill="#909b0e" shape-rendering="crispEdges" /><rect width="160" height="10" x="90" y="130" fill="#909b0e" shape-rendering="crispEdges" /><rect width="150" height="10" x="90" y="140" fill="#909b0e" shape-rendering="crispEdges" /><rect width="10" height="10" x="260" y="140" fill="#6f597a" shape-rendering="crispEdges" /><rect width="10" height="10" x="50" y="150" fill="#6f597a" shape-rendering="crispEdges" /><rect width="100" height="10" x="110" y="150" fill="#909b0e" shape-rendering="crispEdges" /><rect width="20" height="10" x="250" y="150" fill="#6f597a" shape-rendering="crispEdges" /><rect width="80" height="10" x="120" y="160" fill="#909b0e" shape-rendering="crispEdges" /><rect width="10" height="10" x="80" y="170" fill="#6f597a" shape-rendering="crispEdges" /><rect width="80" height="10" x="120" y="170" fill="#909b0e" shape-rendering="crispEdges" /><rect width="10" height="10" x="110" y="180" fill="#6f597a" shape-rendering="crispEdges" /><rect width="10" height="10" x="120" y="180" fill="#909b0e" shape-rendering="crispEdges" /><rect width="10" height="10" x="130" y="180" fill="#000000" shape-rendering="crispEdges" /><rect width="10" height="10" x="140" y="180" fill="#ffae1a" shape-rendering="crispEdges" /><rect width="10" height="10" x="150" y="180" fill="#000000" shape-rendering="crispEdges" /><rect width="10" height="10" x="160" y="180" fill="#ffae1a" shape-rendering="crispEdges" /><rect width="10" height="10" x="170" y="180" fill="#000000" shape-rendering="crispEdges" /><rect width="20" height="10" x="180" y="180" fill="#909b0e" shape-rendering="crispEdges" /><rect width="10" height="10" x="200" y="180" fill="#6f597a" shape-rendering="crispEdges" /><rect width="10" height="10" x="240" y="180" fill="#6f597a" shape-rendering="crispEdges" /><rect width="30" height="10" x="100" y="190" fill="#6f597a" shape-rendering="crispEdges" /><rect width="60" height="10" x="130" y="190" fill="#909b0e" shape-rendering="crispEdges" /><rect width="30" height="10" x="190" y="190" fill="#6f597a" shape-rendering="crispEdges" /><rect width="140" height="10" x="90" y="200" fill="#6f597a" shape-rendering="crispEdges" /><rect width="10" height="10" x="100" y="210" fill="#6f597a" shape-rendering="crispEdges" /><rect width="30" height="10" x="120" y="210" fill="#6f597a" shape-rendering="crispEdges" /><rect width="20" height="10" x="170" y="210" fill="#6f597a" shape-rendering="crispEdges" /><rect width="10" height="10" x="200" y="210" fill="#6f597a" shape-rendering="crispEdges" /><rect width="10" height="10" x="130" y="220" fill="#6f597a" shape-rendering="crispEdges" /><rect width="10" height="10" x="230" y="220" fill="#6f597a" shape-rendering="crispEdges" /></svg>