<svg width="320" height="320" viewBox="0 0 320 320" xmlns="http://www.w3.org/2000/svg" shape-rendering="crispEdges"><rect width="100%" height="100%" fill="none" /><rect width="30" height="10" x="70" y="60" fill="#7e5243" shape-rendering="crispEdges" /><rect width="150" height="10" x="100" y="60" fill="#8f785e" shape-rendering="crispEdges" /><rect width="10" height="10" x="250" y="60" fill="#5a423f" shape-rendering="crispEdges" /><rect width="40" height="10" x="60" y="70" fill="#7e5243" shape-rendering="crispEdges" /><rect width="150" height="10" x="100" y="70" fill="#8f785e" shape-rendering="crispEdges" /><rect width="10" height="10" x="250" y="70" fill="#5a423f" shape-rendering="crispEdges" /><rect width="40" height="10" x="50" y="80" fill="#7e5243" shape-rendering="crispEdges" /><rect width="10" height="10" x="90" y="80" fill="#5a423f" shape-rendering="crispEdges" /><rect width="150" height="10" x="100" y="80" fill="#8f785e" shape-rendering="crispEdges" /><rect width="20" height="10" x="250" y="80" fill="#5a423f" shape-rendering="crispEdges" /><rect width="40" height="10" x="50" y="90" fill="#7e5243" shape-rendering="crispEdges" /><rect width="10" height="10" x="90" y="90" fill="#5a423f" shape-rendering="crispEdges" /><rect width="150" height="10" x="100" y="90" fill="#8f785e" shape-rendering="crispEdges" /><rect width="20" height="10" x="250" y="90" fill="#5a423f" shape-rendering="crispEdges" /><rect width="40" height="10" x="40" y="100" fill="#7e5243" shape-rendering="crispEdges" /><rect width="20" height="10" x="80" y="100" fill="#5a423f" shape-rendering="crispEdges" /><rect width="150" height="10" x="100" y="100" fill="#8f785e" shape-rendering="crispEdges" /><rect width="20" height="10" x="250" y="100" fill="#5a423f" shape-rendering="crispEdges" /><rect width="50" height="10" x="30" y="110" fill="#7e5243" shape-rendering="crispEdges" /><rect width="20" height="10" x="80" y="110" fill="#5a423f" shape-rendering="crispEdges" /><rect width="150" height="10" x="100" y="110" fill="#8f785e" shape-rendering="crispEdges" /><rect width="30" height="10" x="250" y="110" fill="#5a423f" shape-rendering="crispEdges" /><rect width="30" height="10" x="70" y="120" fill="#5a423f" shape-rendering="crispEdges" /><rect width="150" height="10" x="100" y="120" fill="#8f785e" shape-rendering="crispEdges" /><rect width="30" height="10" x="250" y="120" fill="#5a423f" shape-rendering="crispEdges" /><rect width="30" height="10" x="70" y="130" fill="#5a423f" shape-rendering="crispEdges" /><rect width="150" height="10" x="100" y="130" fill="#8f785e" shape-rendering="crispEdges" /><rect width="30" height="10" x="70" y="140" fill="#5a423f" shape-rendering="crispEdges" /><rect width="150" height="10" x="100" y="140" fill="#8f785e" shape-rendering="crispEdges" /><rect width="20" height="10" x="70" y="150" fill="#8f785e" shape-rendering="crispEdges" /><rect width="10" height="10" x="90" y="150" fill="#5a423f" shape-rendering="crispEdges" /><rect width="150" height="10" x="100" y="150" fill="#8f785e" shape-rendering="crispEdges" /><rect width="20" height="10" x="70" y="160" fill="#8f785e" shape-rendering="crispEdges" /><rect width="10" height="10" x="90" y="160" fill="#5a423f" shape-rendering="crispEdges" /><rect width="150" height="10" x="100" y="160" fill="#8f785e" shape-rendering="crispEdges" /><rect width="20" height="10" x="70" y="170" fill="#8f785e" shape-rendering="crispEdges" /><rect width="10" height="10" x="90" y="170" fill="#5a423f" shape-rendering="crispEdges" /><rect width="50" height="10" x="100" y="170" fill="#8f785e" shape-rendering="crispEdges" /><rect width="100" height="10" x="150" y="170" fill="#c5b9a1" shape-rendering="crispEdges" /><rect width="30" height="10" x="70" y="180" fill="#5a423f" shape-rendering="crispEdges" /><rect width="50" height="10" x="100" y="180" fill="#8f785e" shape-rendering="crispEdges" /><rect width="100" height="10" x="150" y="180" fill="#c5b9a1" shape-rendering="crispEdges" /><rect width="30" height="10" x="70" y="190" fill="#5a423f" shape-rendering="crispEdges" /><rect width="50" height="10" x="100" y="190" fill="#8f785e" shape-rendering="crispEdges" /><rect width="100" height="10" x="150" y="190" fill="#c5b9a1" shape-rendering="crispEdges" /><rect width="30" height="10" x="70" y="200" fill="#5a423f" shape-rendering="crispEdges" /><rect width="150" height="10" x="100" y="200" fill="#8f785e" shape-rendering="crispEdges" /></svg>