<svg width="320" height="320" viewBox="0 0 320 320" xmlns="http://www.w3.org/2000/svg" shape-rendering="crispEdges"><rect width="100%" height="100%" fill="none" /><rect width="80" height="10" x="60" y="50" fill="#ffffff" shape-rendering="crispEdges" /><rect width="80" height="10" x="180" y="50" fill="#ffffff" shape-rendering="crispEdges" /><rect width="10" height="10" x="50" y="60" fill="#254efb" shape-rendering="crispEdges" /><rect width="10" height="10" x="60" y="60" fill="#ffffff" shape-rendering="crispEdges" /><rect width="30" height="10" x="70" y="60" fill="#abaaa8" shape-rendering="crispEdges" /><rect width="10" height="10" x="100" y="60" fill="#ffffff" shape-rendering="crispEdges" /><rect width="30" height="10" x="110" y="60" fill="#abaaa8" shape-rendering="crispEdges" /><rect width="10" height="10" x="140" y="60" fill="#ffffff" shape-rendering="crispEdges" /><rect width="10" height="10" x="170" y="60" fill="#ffffff" shape-rendering="crispEdges" /><rect width="30" height="10" x="180" y="60" fill="#abaaa8" shape-rendering="crispEdges" /><rect width="10" height="10" x="210" y="60" fill="#ffffff" shape-rendering="crispEdges" /><rect width="30" height="10" x="220" y="60" fill="#abaaa8" shape-rendering="crispEdges" /><rect width="10" height="10" x="250" y="60" fill="#ffffff" shape-rendering="crispEdges" /><rect width="10" height="10" x="260" y="60" fill="#254efb" shape-rendering="crispEdges" /><rect width="10" height="10" x="50" y="70" fill="#254efb" shape-rendering="crispEdges" /><rect width="200" height="10" x="60" y="70" fill="#ffffff" shape-rendering="crispEdges" /><rect width="10" height="10" x="260" y="70" fill="#254efb" shape-rendering="crispEdges" /><rect width="10" height="10" x="50" y="80" fill="#254efb" shape-rendering="crispEdges" /><rect width="10" height="10" x="60" y="80" fill="#ffffff" shape-rendering="crispEdges" /><rect width="30" height="10" x="70" y="80" fill="#abaaa8" shape-rendering="crispEdges" /><rect width="10" height="10" x="100" y="80" fill="#ffffff" shape-rendering="crispEdges" /><rect width="30" height="10" x="110" y="80" fill="#abaaa8" shape-rendering="crispEdges" /><rect width="40" height="10" x="140" y="80" fill="#ffffff" shape-rendering="crispEdges" /><rect width="30" height="10" x="180" y="80" fill="#abaaa8" shape-rendering="crispEdges" /><rect width="10" height="10" x="210" y="80" fill="#ffffff" shape-rendering="crispEdges" /><rect width="30" height="10" x="220" y="80" fill="#abaaa8" shape-rendering="crispEdges" /><rect width="10" height="10" x="250" y="80" fill="#ffffff" shape-rendering="crispEdges" /><rect width="10" height="10" x="260" y="80" fill="#254efb" shape-rendering="crispEdges" /><rect width="10" height="10" x="50" y="90" fill="#254efb" shape-rendering="crispEdges" /><rect width="200" height="10" x="60" y="90" fill="#ffffff" shape-rendering="crispEdges" /><rect width="10" height="10" x="260" y="90" fill="#254efb" shape-rendering="crispEdges" /><rect width="10" height="10" x="50" y="100" fill="#254efb" shape-rendering="crispEdges" /><rect width="10" height="10" x="60" y="100" fill="#ffffff" shape-rendering="crispEdges" /><rect width="30" height="10" x="70" y="100" fill="#abaaa8" shape-rendering="crispEdges" /><rect width="10" height="10" x="100" y="100" fill="#ffffff" shape-rendering="crispEdges" /><rect width="30" height="10" x="110" y="100" fill="#abaaa8" shape-rendering="crispEdges" /><rect width="40" height="10" x="140" y="100" fill="#ffffff" shape-rendering="crispEdges" /><rect width="30" height="10" x="180" y="100" fill="#abaaa8" shape-rendering="crispEdges" /><rect width="10" height="10" x="210" y="100" fill="#ffffff" shape-rendering="crispEdges" /><rect width="30" height="10" x="220" y="100" fill="#abaaa8" shape-rendering="crispEdges" /><rect width="10" height="10" x="250" y="100" fill="#ffffff" shape-rendering="crispEdges" /><rect width="10" height="10" x="260" y="100" fill="#254efb" shape-rendering="crispEdges" /><rect width="10" height="10" x="50" y="110" fill="#254efb" shape-rendering="crispEdges" /><rect width="200" height="10" x="60" y="110" fill="#ffffff" shape-rendering="crispEdges" /><rect width="10" height="10" x="260" y="110" fill="#254efb" shape-rendering="crispEdges" /><rect width="10" height="10" x="50" y="120" fill="#254efb" shape-rendering="crispEdges" /><rect width="10" height="10" x="60" y="120" fill="#ffffff" shape-rendering="crispEdges" /><rect width="30" height="10" x="70" y="120" fill="#abaaa8" shape-rendering="crispEdges" /><rect width="130" height="10" x="100" y="120" fill="#ffffff" shape-rendering="crispEdges" /><rect width="20" height="10" x="230" y="120" fill="#abaaa8" shape-rendering="crispEdges" /><rect width="10" height="10" x="250" y="120" fill="#ffffff" shape-rendering="crispEdges" /><rect width="10" height="10" x="260" y="120" fill="#254efb" shape-rendering="crispEdges" /><rect width="10" height="10" x="50" y="130" fill="#254efb" shape-rendering="crispEdges" /><rect width="200" height="10" x="60" y="130" fill="#ffffff" shape-rendering="crispEdges" /><rect width="10" height="10" x="260" y="130" fill="#254efb" shape-rendering="crispEdges" /><rect width="10" height="10" x="50" y="140" fill="#254efb" shape-rendering="crispEdges" /><rect width="10" height="10" x="60" y="140" fill="#ffffff" shape-rendering="crispEdges" /><rect width="30" height="10" x="70" y="140" fill="#abaaa8" shape-rendering="crispEdges" /><rect width="130" height="10" x="100" y="140" fill="#ffffff" shape-rendering="crispEdges" /><rect width="20" height="10" x="230" y="140" fill="#abaaa8" shape-rendering="crispEdges" /><rect width="10" height="10" x="250" y="140" fill="#ffffff" shape-rendering="crispEdges" /><rect width="10" height="10" x="260" y="140" fill="#254efb" shape-rendering="crispEdges" /><rect width="10" height="10" x="50" y="150" fill="#254efb" shape-rendering="crispEdges" /><rect width="200" height="10" x="60" y="150" fill="#ffffff" shape-rendering="crispEdges" /><rect width="10" height="10" x="260" y="150" fill="#254efb" shape-rendering="crispEdges" /><rect width="10" height="10" x="50" y="160" fill="#254efb" shape-rendering="crispEdges" /><rect width="10" height="10" x="60" y="160" fill="#ffffff" shape-rendering="crispEdges" /><rect width="30" height="10" x="70" y="160" fill="#abaaa8" shape-rendering="crispEdges" /><rect width="130" height="10" x="100" y="160" fill="#ffffff" shape-rendering="crispEdges" /><rect width="20" height="10" x="230" y="160" fill="#abaaa8" shape-rendering="crispEdges" /><rect width="10" height="10" x="250" y="160" fill="#ffffff" shape-rendering="crispEdges" /><rect width="10" height="10" x="260" y="160" fill="#254efb" shape-rendering="crispEdges" /><rect width="10" height="10" x="50" y="170" fill="#254efb" shape-rendering="crispEdges" /><rect width="70" height="10" x="60" y="170" fill="#ffffff" shape-rendering="crispEdges" /><rect width="60" height="10" x="130" y="170" fill="#ff1a0b" shape-rendering="crispEdges" /><rect width="70" height="10" x="190" y="170" fill="#ffffff" shape-rendering="crispEdges" /><rect width="10" height="10" x="260" y="170" fill="#254efb" shape-rendering="crispEdges" /><rect width="10" height="10" x="50" y="180" fill="#254efb" shape-rendering="crispEdges" /><rect width="200" height="10" x="60" y="180" fill="#ffffff" shape-rendering="crispEdges" /><rect width="10" height="10" x="260" y="180" fill="#254efb" shape-rendering="crispEdges" /><rect width="10" height="10" x="50" y="190" fill="#254efb" shape-rendering="crispEdges" /><rect width="200" height="10" x="60" y="190" fill="#ffffff" shape-rendering="crispEdges" /><rect width="10" height="10" x="260" y="190" fill="#254efb" shape-rendering="crispEdges" /><rect width="100" height="10" x="50" y="200" fill="#254efb" shape-rendering="crispEdges" /><rect width="20" height="10" x="150" y="200" fill="#ffffff" shape-rendering="crispEdges" /><rect width="100" height="10" x="170" y="200" fill="#254efb" shape-rendering="crispEdges" /><rect width="40" height="10" x="140" y="210" fill="#254efb" shape-rendering="crispEdges" /></svg>