<svg width="320" height="320" viewBox="0 0 320 320" xmlns="http://www.w3.org/2000/svg" shape-rendering="crispEdges"><rect width="100%" height="100%" fill="none" /><rect width="100" height="10" x="60" y="90" fill="#6f597a" shape-rendering="crispEdges" /><rect width="100" height="10" x="180" y="90" fill="#6f597a" shape-rendering="crispEdges" /><rect width="10" height="10" x="60" y="100" fill="#6f597a" shape-rendering="crispEdges" /><rect width="50" height="10" x="70" y="100" fill="#ffffff" shape-rendering="crispEdges" /><rect width="40" height="10" x="120" y="100" fill="#6f597a" shape-rendering="crispEdges" /><rect width="10" height="10" x="180" y="100" fill="#6f597a" shape-rendering="crispEdges" /><rect width="50" height="10" x="190" y="100" fill="#ffffff" shape-rendering="crispEdges" /><rect width="40" height="10" x="240" y="100" fill="#6f597a" shape-rendering="crispEdges" /><rect width="10" height="10" x="60" y="110" fill="#6f597a" shape-rendering="crispEdges" /><rect width="50" height="10" x="70" y="110" fill="#ffffff" shape-rendering="crispEdges" /><rect width="40" height="10" x="120" y="110" fill="#6f597a" shape-rendering="crispEdges" /><rect width="10" height="10" x="180" y="110" fill="#6f597a" shape-rendering="crispEdges" /><rect width="50" height="10" x="190" y="110" fill="#ffffff" shape-rendering="crispEdges" /><rect width="40" height="10" x="240" y="110" fill="#6f597a" shape-rendering="crispEdges" /><rect width="50" height="10" x="20" y="120" fill="#6f597a" shape-rendering="crispEdges" /><rect width="50" height="10" x="70" y="120" fill="#ffffff" shape-rendering="crispEdges" /><rect width="70" height="10" x="120" y="120" fill="#6f597a" shape-rendering="crispEdges" /><rect width="50" height="10" x="190" y="120" fill="#ffffff" shape-rendering="crispEdges" /><rect width="40" height="10" x="240" y="120" fill="#6f597a" shape-rendering="crispEdges" /><rect width="50" height="10" x="20" y="130" fill="#6f597a" shape-rendering="crispEdges" /><rect width="50" height="10" x="70" y="130" fill="#ffffff" shape-rendering="crispEdges" /><rect width="70" height="10" x="120" y="130" fill="#6f597a" shape-rendering="crispEdges" /><rect width="50" height="10" x="190" y="130" fill="#ffffff" shape-rendering="crispEdges" /><rect width="40" height="10" x="240" y="130" fill="#6f597a" shape-rendering="crispEdges" /><rect width="10" height="10" x="20" y="140" fill="#6f597a" shape-rendering="crispEdges" /><rect width="10" height="10" x="60" y="140" fill="#6f597a" shape-rendering="crispEdges" /><rect width="50" height="10" x="70" y="140" fill="#ffffff" shape-rendering="crispEdges" /><rect width="40" height="10" x="120" y="140" fill="#6f597a" shape-rendering="crispEdges" /><rect width="10" height="10" x="180" y="140" fill="#6f597a" shape-rendering="crispEdges" /><rect width="50" height="10" x="190" y="140" fill="#ffffff" shape-rendering="crispEdges" /><rect width="40" height="10" x="240" y="140" fill="#6f597a" shape-rendering="crispEdges" /><rect width="10" height="10" x="20" y="150" fill="#6f597a" shape-rendering="crispEdges" /><rect width="10" height="10" x="60" y="150" fill="#6f597a" shape-rendering="crispEdges" /><rect width="50" height="10" x="70" y="150" fill="#ffffff" shape-rendering="crispEdges" /><rect width="40" height="10" x="120" y="150" fill="#6f597a" shape-rendering="crispEdges" /><rect width="10" height="10" x="180" y="150" fill="#6f597a" shape-rendering="crispEdges" /><rect width="50" height="10" x="190" y="150" fill="#ffffff" shape-rendering="crispEdges" /><rect width="40" height="10" x="240" y="150" fill="#6f597a" shape-rendering="crispEdges" /><rect width="10" height="10" x="20" y="160" fill="#6f597a" shape-rendering="crispEdges" /><rect width="10" height="10" x="60" y="160" fill="#6f597a" shape-rendering="crispEdges" /><rect width="50" height="10" x="70" y="160" fill="#ffffff" shape-rendering="crispEdges" /><rect width="40" height="10" x="120" y="160" fill="#6f597a" shape-rendering="crispEdges" /><rect width="10" height="10" x="180" y="160" fill="#6f597a" shape-rendering="crispEdges" /><rect width="50" height="10" x="190" y="160" fill="#ffffff" shape-rendering="crispEdges" /><rect width="40" height="10" x="240" y="160" fill="#6f597a" shape-rendering="crispEdges" /><rect width="10" height="10" x="60" y="170" fill="#6f597a" shape-rendering="crispEdges" /><rect width="50" height="10" x="70" y="170" fill="#ffffff" shape-rendering="crispEdges" /><rect width="40" height="10" x="120" y="170" fill="#6f597a" shape-rendering="crispEdges" /><rect width="10" height="10" x="180" y="170" fill="#6f597a" shape-rendering="crispEdges" /><rect width="50" height="10" x="190" y="170" fill="#ffffff" shape-rendering="crispEdges" /><rect width="40" height="10" x="240" y="170" fill="#6f597a" shape-rendering="crispEdges" /><rect width="100" height="10" x="60" y="180" fill="#6f597a" shape-rendering="crispEdges" /><rect width="100" height="10" x="180" y="180" fill="#6f597a" shape-rendering="crispEdges" /></svg>