<svg width="320" height="320" viewBox="0 0 320 320" xmlns="http://www.w3.org/2000/svg" shape-rendering="crispEdges"><rect width="100%" height="100%" fill="none" /><rect width="80" height="10" x="120" y="20" fill="#fb4694" shape-rendering="crispEdges" /><rect width="20" height="10" x="120" y="30" fill="#fb4694" shape-rendering="crispEdges" /><rect width="10" height="10" x="140" y="30" fill="#ffffff" shape-rendering="crispEdges" /><rect width="20" height="10" x="150" y="30" fill="#fb4694" shape-rendering="crispEdges" /><rect width="10" height="10" x="170" y="30" fill="#fa6fe2" shape-rendering="crispEdges" /><rect width="20" height="10" x="180" y="30" fill="#fb4694" shape-rendering="crispEdges" /><rect width="30" height="10" x="130" y="40" fill="#fb4694" shape-rendering="crispEdges" /><rect width="10" height="10" x="160" y="40" fill="#fa6fe2" shape-rendering="crispEdges" /><rect width="20" height="10" x="170" y="40" fill="#fb4694" shape-rendering="crispEdges" /><rect width="30" height="10" x="110" y="50" fill="#fff449" shape-rendering="crispEdges" /><rect width="40" height="10" x="140" y="50" fill="#fb4694" shape-rendering="crispEdges" /><rect width="30" height="10" x="180" y="50" fill="#fff449" shape-rendering="crispEdges" /><rect width="20" height="10" x="90" y="60" fill="#fff449" shape-rendering="crispEdges" /><rect width="20" height="10" x="110" y="60" fill="#eed811" shape-rendering="crispEdges" /><rect width="20" height="10" x="130" y="60" fill="#fff449" shape-rendering="crispEdges" /><rect width="20" height="10" x="150" y="60" fill="#fb4694" shape-rendering="crispEdges" /><rect width="20" height="10" x="170" y="60" fill="#fff449" shape-rendering="crispEdges" /><rect width="20" height="10" x="190" y="60" fill="#eed811" shape-rendering="crispEdges" /><rect width="20" height="10" x="210" y="60" fill="#fff449" shape-rendering="crispEdges" /><rect width="10" height="10" x="80" y="70" fill="#fff449" shape-rendering="crispEdges" /><rect width="20" height="10" x="90" y="70" fill="#eed811" shape-rendering="crispEdges" /><rect width="100" height="10" x="110" y="70" fill="#fff449" shape-rendering="crispEdges" /><rect width="20" height="10" x="210" y="70" fill="#eed811" shape-rendering="crispEdges" /><rect width="10" height="10" x="230" y="70" fill="#fff449" shape-rendering="crispEdges" /><rect width="50" height="10" x="70" y="80" fill="#fff449" shape-rendering="crispEdges" /><rect width="10" height="10" x="120" y="80" fill="#eed811" shape-rendering="crispEdges" /><rect width="50" height="10" x="200" y="80" fill="#fff449" shape-rendering="crispEdges" /><rect width="30" height="10" x="70" y="90" fill="#fff449" shape-rendering="crispEdges" /><rect width="10" height="10" x="100" y="90" fill="#eed811" shape-rendering="crispEdges" /><rect width="30" height="10" x="220" y="90" fill="#fff449" shape-rendering="crispEdges" /><rect width="30" height="10" x="60" y="100" fill="#fff449" shape-rendering="crispEdges" /><rect width="20" height="10" x="90" y="100" fill="#eed811" shape-rendering="crispEdges" /><rect width="30" height="10" x="230" y="100" fill="#fff449" shape-rendering="crispEdges" /><rect width="10" height="10" x="60" y="110" fill="#fff449" shape-rendering="crispEdges" /><rect width="10" height="10" x="70" y="110" fill="#ffffff" shape-rendering="crispEdges" /><rect width="10" height="10" x="80" y="110" fill="#fff449" shape-rendering="crispEdges" /><rect width="10" height="10" x="90" y="110" fill="#eed811" shape-rendering="crispEdges" /><rect width="30" height="10" x="230" y="110" fill="#fff449" shape-rendering="crispEdges" /><rect width="30" height="10" x="60" y="120" fill="#fff449" shape-rendering="crispEdges" /><rect width="10" height="10" x="90" y="120" fill="#eed811" shape-rendering="crispEdges" /><rect width="30" height="10" x="230" y="120" fill="#fff449" shape-rendering="crispEdges" /><rect width="30" height="10" x="60" y="130" fill="#fff449" shape-rendering="crispEdges" /><rect width="10" height="10" x="90" y="130" fill="#eed811" shape-rendering="crispEdges" /><rect width="30" height="10" x="230" y="130" fill="#fff449" shape-rendering="crispEdges" /><rect width="30" height="10" x="60" y="140" fill="#fff449" shape-rendering="crispEdges" /><rect width="10" height="10" x="90" y="140" fill="#eed811" shape-rendering="crispEdges" /><rect width="10" height="10" x="230" y="140" fill="#fff449" shape-rendering="crispEdges" /><rect width="10" height="10" x="240" y="140" fill="#ffffff" shape-rendering="crispEdges" /><rect width="10" height="10" x="250" y="140" fill="#fff449" shape-rendering="crispEdges" /><rect width="30" height="10" x="60" y="150" fill="#fff449" shape-rendering="crispEdges" /><rect width="10" height="10" x="90" y="150" fill="#eed811" shape-rendering="crispEdges" /><rect width="10" height="10" x="230" y="150" fill="#fff449" shape-rendering="crispEdges" /><rect width="10" height="10" x="240" y="150" fill="#ffffff" shape-rendering="crispEdges" /><rect width="10" height="10" x="250" y="150" fill="#fff449" shape-rendering="crispEdges" /><rect width="30" height="10" x="60" y="160" fill="#fff449" shape-rendering="crispEdges" /><rect width="10" height="10" x="90" y="160" fill="#eed811" shape-rendering="crispEdges" /><rect width="30" height="10" x="230" y="160" fill="#fff449" shape-rendering="crispEdges" /><rect width="30" height="10" x="70" y="170" fill="#fff449" shape-rendering="crispEdges" /><rect width="20" height="10" x="100" y="170" fill="#eed811" shape-rendering="crispEdges" /><rect width="30" height="10" x="220" y="170" fill="#fff449" shape-rendering="crispEdges" /><rect width="50" height="10" x="70" y="180" fill="#fff449" shape-rendering="crispEdges" /><rect width="80" height="10" x="120" y="180" fill="#eed811" shape-rendering="crispEdges" /><rect width="50" height="10" x="200" y="180" fill="#fff449" shape-rendering="crispEdges" /><rect width="160" height="10" x="80" y="190" fill="#fff449" shape-rendering="crispEdges" /><rect width="140" height="10" x="90" y="200" fill="#fff449" shape-rendering="crispEdges" /><rect width="100" height="10" x="110" y="210" fill="#fff449" shape-rendering="crispEdges" /></svg>