<svg width="320" height="320" viewBox="0 0 320 320" xmlns="http://www.w3.org/2000/svg" shape-rendering="crispEdges"><rect width="100%" height="100%" fill="none" /><rect width="10" height="10" x="80" y="20" fill="#cc0595" shape-rendering="crispEdges" /><rect width="10" height="10" x="80" y="30" fill="#cc0595" shape-rendering="crispEdges" /><rect width="10" height="10" x="90" y="30" fill="#fb4694" shape-rendering="crispEdges" /><rect width="20" height="10" x="80" y="40" fill="#cc0595" shape-rendering="crispEdges" /><rect width="10" height="10" x="100" y="40" fill="#fb4694" shape-rendering="crispEdges" /><rect width="10" height="10" x="80" y="50" fill="#cc0595" shape-rendering="crispEdges" /><rect width="30" height="10" x="90" y="50" fill="#fb4694" shape-rendering="crispEdges" /><rect width="10" height="10" x="80" y="60" fill="#cc0595" shape-rendering="crispEdges" /><rect width="40" height="10" x="90" y="60" fill="#fb4694" shape-rendering="crispEdges" /><rect width="20" height="10" x="80" y="70" fill="#cc0595" shape-rendering="crispEdges" /><rect width="40" height="10" x="100" y="70" fill="#fb4694" shape-rendering="crispEdges" /><rect width="10" height="10" x="80" y="80" fill="#cc0595" shape-rendering="crispEdges" /><rect width="60" height="10" x="90" y="80" fill="#fb4694" shape-rendering="crispEdges" /><rect width="10" height="10" x="80" y="90" fill="#cc0595" shape-rendering="crispEdges" /><rect width="70" height="10" x="90" y="90" fill="#fb4694" shape-rendering="crispEdges" /><rect width="20" height="10" x="80" y="100" fill="#cc0595" shape-rendering="crispEdges" /><rect width="70" height="10" x="100" y="100" fill="#fb4694" shape-rendering="crispEdges" /><rect width="10" height="10" x="80" y="110" fill="#cc0595" shape-rendering="crispEdges" /><rect width="90" height="10" x="90" y="110" fill="#fb4694" shape-rendering="crispEdges" /><rect width="10" height="10" x="80" y="120" fill="#cc0595" shape-rendering="crispEdges" /><rect width="30" height="10" x="90" y="120" fill="#fb4694" shape-rendering="crispEdges" /><rect width="60" height="10" x="130" y="120" fill="#fb4694" shape-rendering="crispEdges" /><rect width="20" height="10" x="80" y="130" fill="#cc0595" shape-rendering="crispEdges" /><rect width="20" height="10" x="100" y="130" fill="#fb4694" shape-rendering="crispEdges" /><rect width="60" height="10" x="140" y="130" fill="#fb4694" shape-rendering="crispEdges" /><rect width="10" height="10" x="80" y="140" fill="#cc0595" shape-rendering="crispEdges" /><rect width="30" height="10" x="90" y="140" fill="#fb4694" shape-rendering="crispEdges" /><rect width="60" height="10" x="150" y="140" fill="#fb4694" shape-rendering="crispEdges" /><rect width="10" height="10" x="80" y="150" fill="#cc0595" shape-rendering="crispEdges" /><rect width="30" height="10" x="90" y="150" fill="#fb4694" shape-rendering="crispEdges" /><rect width="60" height="10" x="160" y="150" fill="#fb4694" shape-rendering="crispEdges" /><rect width="20" height="10" x="80" y="160" fill="#cc0595" shape-rendering="crispEdges" /><rect width="20" height="10" x="100" y="160" fill="#fb4694" shape-rendering="crispEdges" /><rect width="60" height="10" x="170" y="160" fill="#fb4694" shape-rendering="crispEdges" /><rect width="10" height="10" x="80" y="170" fill="#cc0595" shape-rendering="crispEdges" /><rect width="30" height="10" x="90" y="170" fill="#fb4694" shape-rendering="crispEdges" /><rect width="60" height="10" x="180" y="170" fill="#fb4694" shape-rendering="crispEdges" /><rect width="10" height="10" x="80" y="180" fill="#cc0595" shape-rendering="crispEdges" /><rect width="160" height="10" x="90" y="180" fill="#fb4694" shape-rendering="crispEdges" /><rect width="20" height="10" x="80" y="190" fill="#cc0595" shape-rendering="crispEdges" /><rect width="90" height="10" x="100" y="190" fill="#fb4694" shape-rendering="crispEdges" /><rect width="40" height="10" x="190" y="190" fill="#cc0595" shape-rendering="crispEdges" /><rect width="30" height="10" x="230" y="190" fill="#fb4694" shape-rendering="crispEdges" /><rect width="10" height="10" x="80" y="200" fill="#cc0595" shape-rendering="crispEdges" /><rect width="100" height="10" x="90" y="200" fill="#fb4694" shape-rendering="crispEdges" /><rect width="40" height="10" x="190" y="200" fill="#cc0595" shape-rendering="crispEdges" /><rect width="40" height="10" x="230" y="200" fill="#fb4694" shape-rendering="crispEdges" /><rect width="10" height="10" x="80" y="210" fill="#cc0595" shape-rendering="crispEdges" /><rect width="190" height="10" x="90" y="210" fill="#fb4694" shape-rendering="crispEdges" /></svg>