<svg width="320" height="320" viewBox="0 0 320 320" xmlns="http://www.w3.org/2000/svg" shape-rendering="crispEdges"><rect width="100%" height="100%" fill="none" /><rect width="50" height="10" x="80" y="50" fill="#85634f" shape-rendering="crispEdges" /><rect width="50" height="10" x="190" y="50" fill="#85634f" shape-rendering="crispEdges" /><rect width="10" height="10" x="80" y="60" fill="#85634f" shape-rendering="crispEdges" /><rect width="20" height="10" x="90" y="60" fill="#e8705b" shape-rendering="crispEdges" /><rect width="20" height="10" x="110" y="60" fill="#85634f" shape-rendering="crispEdges" /><rect width="20" height="10" x="190" y="60" fill="#85634f" shape-rendering="crispEdges" /><rect width="20" height="10" x="210" y="60" fill="#e8705b" shape-rendering="crispEdges" /><rect width="10" height="10" x="230" y="60" fill="#85634f" shape-rendering="crispEdges" /><rect width="160" height="10" x="80" y="70" fill="#85634f" shape-rendering="crispEdges" /><rect width="160" height="10" x="80" y="80" fill="#85634f" shape-rendering="crispEdges" /><rect width="160" height="10" x="80" y="90" fill="#85634f" shape-rendering="crispEdges" /><rect width="160" height="10" x="80" y="100" fill="#85634f" shape-rendering="crispEdges" /><rect width="160" height="10" x="80" y="110" fill="#85634f" shape-rendering="crispEdges" /><rect width="160" height="10" x="80" y="120" fill="#85634f" shape-rendering="crispEdges" /><rect width="160" height="10" x="80" y="130" fill="#85634f" shape-rendering="crispEdges" /><rect width="160" height="10" x="80" y="140" fill="#85634f" shape-rendering="crispEdges" /><rect width="160" height="10" x="80" y="150" fill="#85634f" shape-rendering="crispEdges" /><rect width="160" height="10" x="80" y="160" fill="#85634f" shape-rendering="crispEdges" /><rect width="20" height="10" x="80" y="170" fill="#5a423f" shape-rendering="crispEdges" /><rect width="20" height="10" x="100" y="170" fill="#85634f" shape-rendering="crispEdges" /><rect width="20" height="10" x="120" y="170" fill="#5a423f" shape-rendering="crispEdges" /><rect width="20" height="10" x="140" y="170" fill="#000000" shape-rendering="crispEdges" /><rect width="10" height="10" x="160" y="170" fill="#f9f4e6" shape-rendering="crispEdges" /><rect width="10" height="10" x="170" y="170" fill="#000000" shape-rendering="crispEdges" /><rect width="10" height="10" x="180" y="170" fill="#f9f4e6" shape-rendering="crispEdges" /><rect width="20" height="10" x="190" y="170" fill="#000000" shape-rendering="crispEdges" /><rect width="10" height="10" x="210" y="170" fill="#5a423f" shape-rendering="crispEdges" /><rect width="20" height="10" x="220" y="170" fill="#85634f" shape-rendering="crispEdges" /><rect width="20" height="10" x="80" y="180" fill="#5a423f" shape-rendering="crispEdges" /><rect width="20" height="10" x="100" y="180" fill="#85634f" shape-rendering="crispEdges" /><rect width="20" height="10" x="120" y="180" fill="#5a423f" shape-rendering="crispEdges" /><rect width="70" height="10" x="140" y="180" fill="#000000" shape-rendering="crispEdges" /><rect width="10" height="10" x="210" y="180" fill="#5a423f" shape-rendering="crispEdges" /><rect width="20" height="10" x="220" y="180" fill="#85634f" shape-rendering="crispEdges" /><rect width="20" height="10" x="80" y="190" fill="#5a423f" shape-rendering="crispEdges" /><rect width="20" height="10" x="100" y="190" fill="#85634f" shape-rendering="crispEdges" /><rect width="20" height="10" x="120" y="190" fill="#5a423f" shape-rendering="crispEdges" /><rect width="20" height="10" x="140" y="190" fill="#85634f" shape-rendering="crispEdges" /><rect width="20" height="10" x="160" y="190" fill="#5a423f" shape-rendering="crispEdges" /><rect width="20" height="10" x="180" y="190" fill="#85634f" shape-rendering="crispEdges" /><rect width="20" height="10" x="200" y="190" fill="#5a423f" shape-rendering="crispEdges" /><rect width="20" height="10" x="220" y="190" fill="#85634f" shape-rendering="crispEdges" /><rect width="20" height="10" x="80" y="200" fill="#5a423f" shape-rendering="crispEdges" /><rect width="20" height="10" x="100" y="200" fill="#85634f" shape-rendering="crispEdges" /><rect width="20" height="10" x="120" y="200" fill="#5a423f" shape-rendering="crispEdges" /><rect width="20" height="10" x="140" y="200" fill="#85634f" shape-rendering="crispEdges" /><rect width="20" height="10" x="160" y="200" fill="#5a423f" shape-rendering="crispEdges" /><rect width="20" height="10" x="180" y="200" fill="#85634f" shape-rendering="crispEdges" /><rect width="20" height="10" x="200" y="200" fill="#5a423f" shape-rendering="crispEdges" /><rect width="20" height="10" x="220" y="200" fill="#85634f" shape-rendering="crispEdges" /><rect width="140" height="10" x="90" y="210" fill="#5a423f" shape-rendering="crispEdges" /></svg>