<svg id="svg" version="1.1" xmlns="http://www.w3.org/2000/svg" xmlns:xlink="http://www.w3.org/1999/xlink" width="400" height="400" viewBox="0, 0, 400,400"><g id="svgg"><path id="path0" d="M75.000 106.250 L 75.000 112.500 87.500 112.500 L 100.000 112.500 100.000 106.250 L 100.000 100.000 87.500 100.000 L 75.000 100.000 75.000 106.250 M300.000 106.250 L 300.000 112.500 312.500 112.500 L 325.000 112.500 325.000 106.250 L 325.000 100.000 312.500 100.000 L 300.000 100.000 300.000 106.250 M75.000 131.250 L 75.000 137.500 87.500 137.500 L 100.000 137.500 100.000 131.250 L 100.000 125.000 87.500 125.000 L 75.000 125.000 75.000 131.250 M300.000 131.250 L 300.000 137.500 312.500 137.500 L 325.000 137.500 325.000 131.250 L 325.000 125.000 312.500 125.000 L 300.000 125.000 300.000 131.250 M100.000 231.250 L 100.000 250.000 200.000 250.000 L 300.000 250.000 300.000 231.250 L 300.000 212.500 200.000 212.500 L 100.000 212.500 100.000 231.250 M162.500 231.250 L 162.500 237.500 137.500 237.500 L 112.500 237.500 112.500 231.250 L 112.500 225.000 137.500 225.000 L 162.500 225.000 162.500 231.250 M225.000 231.250 L 225.000 237.500 200.000 237.500 L 175.000 237.500 175.000 231.250 L 175.000 225.000 200.000 225.000 L 225.000 225.000 225.000 231.250 M287.500 231.250 L 287.500 237.500 262.500 237.500 L 237.500 237.500 237.500 231.250 L 237.500 225.000 262.500 225.000 L 287.500 225.000 287.500 231.250 " stroke="none" fill="#363636" fill-rule="evenodd"></path><path id="path1" d="M50.000 118.750 L 50.000 162.500 68.750 162.500 L 87.500 162.500 87.500 168.750 L 87.500 175.000 68.750 175.000 L 50.000 175.000 50.000 181.250 L 50.000 187.500 68.750 187.500 L 87.500 187.500 87.500 193.750 L 87.500 200.000 68.750 200.000 L 50.000 200.000 50.000 206.250 L 50.000 212.500 68.750 212.500 L 87.500 212.500 87.500 218.750 L 87.500 225.000 68.750 225.000 L 50.000 225.000 50.000 231.250 L 50.000 237.500 68.750 237.500 L 87.500 237.500 87.500 243.750 L 87.500 250.000 68.750 250.000 L 50.000 250.000 50.000 256.250 L 50.000 262.500 200.000 262.500 L 350.000 262.500 350.000 256.250 L 350.000 250.000 331.250 250.000 L 312.500 250.000 312.500 243.750 L 312.500 237.500 331.250 237.500 L 350.000 237.500 350.000 231.250 L 350.000 225.000 331.250 225.000 L 312.500 225.000 312.500 218.750 L 312.500 212.500 331.250 212.500 L 350.000 212.500 350.000 206.250 L 350.000 200.000 331.250 200.000 L 312.500 200.000 312.500 193.750 L 312.500 187.500 331.250 187.500 L 350.000 187.500 350.000 181.250 L 350.000 175.000 331.250 175.000 L 312.500 175.000 312.500 168.750 L 312.500 162.500 331.250 162.500 L 350.000 162.500 350.000 118.750 L 350.000 75.000 200.000 75.000 L 50.000 75.000 50.000 118.750 M112.500 118.750 L 112.500 150.000 87.500 150.000 L 62.500 150.000 62.500 118.750 L 62.500 87.500 87.500 87.500 L 112.500 87.500 112.500 118.750 M175.000 106.250 L 175.000 125.000 156.250 125.000 L 137.500 125.000 137.500 106.250 L 137.500 87.500 156.250 87.500 L 175.000 87.500 175.000 106.250 M237.500 93.750 L 237.500 100.000 231.250 100.000 L 225.000 100.000 225.000 93.750 L 225.000 87.500 231.250 87.500 L 237.500 87.500 237.500 93.750 M262.500 93.750 L 262.500 100.000 256.250 100.000 L 250.000 100.000 250.000 93.750 L 250.000 87.500 256.250 87.500 L 262.500 87.500 262.500 93.750 M337.500 118.750 L 337.500 150.000 312.500 150.000 L 287.500 150.000 287.500 118.750 L 287.500 87.500 312.500 87.500 L 337.500 87.500 337.500 118.750 M237.500 118.750 L 237.500 125.000 231.250 125.000 L 225.000 125.000 225.000 118.750 L 225.000 112.500 231.250 112.500 L 237.500 112.500 237.500 118.750 M262.500 118.750 L 262.500 125.000 256.250 125.000 L 250.000 125.000 250.000 118.750 L 250.000 112.500 256.250 112.500 L 262.500 112.500 262.500 118.750 M300.000 231.250 L 300.000 250.000 200.000 250.000 L 100.000 250.000 100.000 231.250 L 100.000 212.500 200.000 212.500 L 300.000 212.500 300.000 231.250 " stroke="none" fill="#807f7e" fill-rule="evenodd"></path><path id="path2" d="M62.500 118.750 L 62.500 150.000 87.500 150.000 L 112.500 150.000 112.500 118.750 L 112.500 87.500 87.500 87.500 L 62.500 87.500 62.500 118.750 M287.500 118.750 L 287.500 150.000 312.500 150.000 L 337.500 150.000 337.500 118.750 L 337.500 87.500 312.500 87.500 L 287.500 87.500 287.500 118.750 M100.000 106.250 L 100.000 112.500 87.500 112.500 L 75.000 112.500 75.000 106.250 L 75.000 100.000 87.500 100.000 L 100.000 100.000 100.000 106.250 M325.000 106.250 L 325.000 112.500 312.500 112.500 L 300.000 112.500 300.000 106.250 L 300.000 100.000 312.500 100.000 L 325.000 100.000 325.000 106.250 M100.000 131.250 L 100.000 137.500 87.500 137.500 L 75.000 137.500 75.000 131.250 L 75.000 125.000 87.500 125.000 L 100.000 125.000 100.000 131.250 M325.000 131.250 L 325.000 137.500 312.500 137.500 L 300.000 137.500 300.000 131.250 L 300.000 125.000 312.500 125.000 L 325.000 125.000 325.000 131.250 " stroke="none" fill="#464646" fill-rule="evenodd"></path><path id="path3" d="M225.000 93.750 L 225.000 100.000 231.250 100.000 L 237.500 100.000 237.500 93.750 L 237.500 87.500 231.250 87.500 L 225.000 87.500 225.000 93.750 M250.000 118.750 L 250.000 125.000 256.250 125.000 L 262.500 125.000 262.500 118.750 L 262.500 112.500 256.250 112.500 L 250.000 112.500 250.000 118.750 M50.000 168.750 L 50.000 175.000 68.750 175.000 L 87.500 175.000 87.500 168.750 L 87.500 162.500 68.750 162.500 L 50.000 162.500 50.000 168.750 M312.500 168.750 L 312.500 175.000 331.250 175.000 L 350.000 175.000 350.000 168.750 L 350.000 162.500 331.250 162.500 L 312.500 162.500 312.500 168.750 M50.000 193.750 L 50.000 200.000 68.750 200.000 L 87.500 200.000 87.500 193.750 L 87.500 187.500 68.750 187.500 L 50.000 187.500 50.000 193.750 M312.500 193.750 L 312.500 200.000 331.250 200.000 L 350.000 200.000 350.000 193.750 L 350.000 187.500 331.250 187.500 L 312.500 187.500 312.500 193.750 M50.000 218.750 L 50.000 225.000 68.750 225.000 L 87.500 225.000 87.500 218.750 L 87.500 212.500 68.750 212.500 L 50.000 212.500 50.000 218.750 M312.500 218.750 L 312.500 225.000 331.250 225.000 L 350.000 225.000 350.000 218.750 L 350.000 212.500 331.250 212.500 L 312.500 212.500 312.500 218.750 M112.500 231.250 L 112.500 237.500 137.500 237.500 L 162.500 237.500 162.500 231.250 L 162.500 225.000 137.500 225.000 L 112.500 225.000 112.500 231.250 M175.000 231.250 L 175.000 237.500 200.000 237.500 L 225.000 237.500 225.000 231.250 L 225.000 225.000 200.000 225.000 L 175.000 225.000 175.000 231.250 M237.500 231.250 L 237.500 237.500 262.500 237.500 L 287.500 237.500 287.500 231.250 L 287.500 225.000 262.500 225.000 L 237.500 225.000 237.500 231.250 M50.000 243.750 L 50.000 250.000 68.750 250.000 L 87.500 250.000 87.500 243.750 L 87.500 237.500 68.750 237.500 L 50.000 237.500 50.000 243.750 M312.500 243.750 L 312.500 250.000 331.250 250.000 L 350.000 250.000 350.000 243.750 L 350.000 237.500 331.250 237.500 L 312.500 237.500 312.500 243.750 " stroke="none" fill="#a8a8a8" fill-rule="evenodd"></path><path id="path4" d="M137.500 106.250 L 137.500 125.000 156.250 125.000 L 175.000 125.000 175.000 106.250 L 175.000 87.500 156.250 87.500 L 137.500 87.500 137.500 106.250 " stroke="none" fill="#8f9b0c" fill-rule="evenodd"></path><path id="path5" d="M225.000 118.750 L 225.000 125.000 231.250 125.000 L 237.500 125.000 237.500 118.750 L 237.500 112.500 231.250 112.500 L 225.000 112.500 225.000 118.750 " stroke="none" fill="#ffc20e" fill-rule="evenodd"></path><path id="path6" d="M250.000 93.750 L 250.000 100.000 256.250 100.000 L 262.500 100.000 262.500 93.750 L 262.500 87.500 256.250 87.500 L 250.000 87.500 250.000 93.750 " stroke="none" fill="#ff0900" fill-rule="evenodd"></path><path id="path7" d="" stroke="none" fill="#88709c" fill-rule="evenodd"></path><path id="path8" d="" stroke="none" fill="#a4705c" fill-rule="evenodd"></path></g></svg>