<svg width="320" height="320" viewBox="0 0 320 320" xmlns="http://www.w3.org/2000/svg" shape-rendering="crispEdges"><rect width="100%" height="100%" fill="none" /><rect width="20" height="10" x="70" y="60" fill="#807f7e" shape-rendering="crispEdges" /><rect width="20" height="10" x="100" y="60" fill="#807f7e" shape-rendering="crispEdges" /><rect width="130" height="10" x="130" y="60" fill="#abaaa8" shape-rendering="crispEdges" /><rect width="10" height="10" x="260" y="60" fill="#807f7e" shape-rendering="crispEdges" /><rect width="10" height="10" x="50" y="70" fill="#807f7e" shape-rendering="crispEdges" /><rect width="110" height="10" x="60" y="70" fill="#abaaa8" shape-rendering="crispEdges" /><rect width="30" height="10" x="170" y="70" fill="#807f7e" shape-rendering="crispEdges" /><rect width="10" height="10" x="200" y="70" fill="#abaaa8" shape-rendering="crispEdges" /><rect width="20" height="10" x="210" y="70" fill="#1f1d29" shape-rendering="crispEdges" /><rect width="10" height="10" x="230" y="70" fill="#ffffff" shape-rendering="crispEdges" /><rect width="10" height="10" x="240" y="70" fill="#1f1d29" shape-rendering="crispEdges" /><rect width="10" height="10" x="250" y="70" fill="#abaaa8" shape-rendering="crispEdges" /><rect width="10" height="10" x="260" y="70" fill="#807f7e" shape-rendering="crispEdges" /><rect width="10" height="10" x="50" y="80" fill="#807f7e" shape-rendering="crispEdges" /><rect width="20" height="10" x="60" y="80" fill="#abaaa8" shape-rendering="crispEdges" /><rect width="10" height="10" x="80" y="80" fill="#807f7e" shape-rendering="crispEdges" /><rect width="30" height="10" x="90" y="80" fill="#abaaa8" shape-rendering="crispEdges" /><rect width="20" height="10" x="120" y="80" fill="#4b4949" shape-rendering="crispEdges" /><rect width="30" height="10" x="140" y="80" fill="#abaaa8" shape-rendering="crispEdges" /><rect width="30" height="10" x="170" y="80" fill="#807f7e" shape-rendering="crispEdges" /><rect width="10" height="10" x="200" y="80" fill="#abaaa8" shape-rendering="crispEdges" /><rect width="40" height="10" x="210" y="80" fill="#1f1d29" shape-rendering="crispEdges" /><rect width="10" height="10" x="250" y="80" fill="#abaaa8" shape-rendering="crispEdges" /><rect width="10" height="10" x="260" y="80" fill="#807f7e" shape-rendering="crispEdges" /><rect width="10" height="10" x="50" y="90" fill="#807f7e" shape-rendering="crispEdges" /><rect width="10" height="10" x="60" y="90" fill="#abaaa8" shape-rendering="crispEdges" /><rect width="20" height="10" x="70" y="90" fill="#807f7e" shape-rendering="crispEdges" /><rect width="170" height="10" x="90" y="90" fill="#abaaa8" shape-rendering="crispEdges" /><rect width="10" height="10" x="260" y="90" fill="#807f7e" shape-rendering="crispEdges" /><rect width="10" height="10" x="50" y="100" fill="#1f1d29" shape-rendering="crispEdges" /><rect width="10" height="10" x="60" y="100" fill="#4b4949" shape-rendering="crispEdges" /><rect width="20" height="10" x="70" y="100" fill="#807f7e" shape-rendering="crispEdges" /><rect width="170" height="10" x="90" y="100" fill="#4b4949" shape-rendering="crispEdges" /><rect width="10" height="10" x="260" y="100" fill="#1f1d29" shape-rendering="crispEdges" /><rect width="10" height="10" x="50" y="110" fill="#1f1d29" shape-rendering="crispEdges" /><rect width="200" height="10" x="60" y="110" fill="#4b4949" shape-rendering="crispEdges" /><rect width="10" height="10" x="260" y="110" fill="#1f1d29" shape-rendering="crispEdges" /><rect width="10" height="10" x="50" y="120" fill="#1f1d29" shape-rendering="crispEdges" /><rect width="200" height="10" x="60" y="120" fill="#4b4949" shape-rendering="crispEdges" /><rect width="10" height="10" x="260" y="120" fill="#1f1d29" shape-rendering="crispEdges" /><rect width="10" height="10" x="50" y="130" fill="#1f1d29" shape-rendering="crispEdges" /><rect width="200" height="10" x="60" y="130" fill="#4b4949" shape-rendering="crispEdges" /><rect width="10" height="10" x="260" y="130" fill="#1f1d29" shape-rendering="crispEdges" /><rect width="10" height="10" x="50" y="140" fill="#1f1d29" shape-rendering="crispEdges" /><rect width="200" height="10" x="60" y="140" fill="#4b4949" shape-rendering="crispEdges" /><rect width="10" height="10" x="260" y="140" fill="#1f1d29" shape-rendering="crispEdges" /><rect width="10" height="10" x="50" y="150" fill="#1f1d29" shape-rendering="crispEdges" /><rect width="200" height="10" x="60" y="150" fill="#4b4949" shape-rendering="crispEdges" /><rect width="10" height="10" x="260" y="150" fill="#1f1d29" shape-rendering="crispEdges" /><rect width="10" height="10" x="50" y="160" fill="#1f1d29" shape-rendering="crispEdges" /><rect width="200" height="10" x="60" y="160" fill="#4b4949" shape-rendering="crispEdges" /><rect width="10" height="10" x="260" y="160" fill="#1f1d29" shape-rendering="crispEdges" /><rect width="10" height="10" x="50" y="170" fill="#1f1d29" shape-rendering="crispEdges" /><rect width="180" height="10" x="60" y="170" fill="#4b4949" shape-rendering="crispEdges" /><rect width="20" height="10" x="240" y="170" fill="#807f7e" shape-rendering="crispEdges" /><rect width="10" height="10" x="260" y="170" fill="#1f1d29" shape-rendering="crispEdges" /><rect width="10" height="10" x="50" y="180" fill="#1f1d29" shape-rendering="crispEdges" /><rect width="80" height="10" x="60" y="180" fill="#4b4949" shape-rendering="crispEdges" /><rect width="50" height="10" x="140" y="180" fill="#807f7e" shape-rendering="crispEdges" /><rect width="50" height="10" x="190" y="180" fill="#4b4949" shape-rendering="crispEdges" /><rect width="20" height="10" x="240" y="180" fill="#807f7e" shape-rendering="crispEdges" /><rect width="10" height="10" x="260" y="180" fill="#1f1d29" shape-rendering="crispEdges" /><rect width="10" height="10" x="50" y="190" fill="#1f1d29" shape-rendering="crispEdges" /><rect width="200" height="10" x="60" y="190" fill="#4b4949" shape-rendering="crispEdges" /><rect width="10" height="10" x="260" y="190" fill="#1f1d29" shape-rendering="crispEdges" /><rect width="10" height="10" x="50" y="200" fill="#807f7e" shape-rendering="crispEdges" /><rect width="200" height="10" x="60" y="200" fill="#abaaa8" shape-rendering="crispEdges" /><rect width="10" height="10" x="260" y="200" fill="#807f7e" shape-rendering="crispEdges" /></svg>