<svg width="320" height="320" viewBox="0 0 320 320" xmlns="http://www.w3.org/2000/svg" shape-rendering="crispEdges"><rect width="100%" height="100%" fill="none" /><rect width="50" height="10" x="70" y="60" fill="#7e5243" shape-rendering="crispEdges" /><rect width="50" height="10" x="190" y="60" fill="#7e5243" shape-rendering="crispEdges" /><rect width="50" height="10" x="70" y="70" fill="#7e5243" shape-rendering="crispEdges" /><rect width="50" height="10" x="190" y="70" fill="#7e5243" shape-rendering="crispEdges" /><rect width="50" height="10" x="70" y="80" fill="#7e5243" shape-rendering="crispEdges" /><rect width="50" height="10" x="190" y="80" fill="#7e5243" shape-rendering="crispEdges" /><rect width="170" height="10" x="70" y="90" fill="#ffc110" shape-rendering="crispEdges" /><rect width="170" height="10" x="70" y="100" fill="#5648ed" shape-rendering="crispEdges" /><rect width="170" height="10" x="70" y="110" fill="#ffc110" shape-rendering="crispEdges" /><rect width="20" height="10" x="70" y="120" fill="#7e5243" shape-rendering="crispEdges" /><rect width="140" height="10" x="90" y="120" fill="#d4b7b2" shape-rendering="crispEdges" /><rect width="10" height="10" x="230" y="120" fill="#7e5243" shape-rendering="crispEdges" /><rect width="20" height="10" x="70" y="130" fill="#7e5243" shape-rendering="crispEdges" /><rect width="140" height="10" x="90" y="130" fill="#d4b7b2" shape-rendering="crispEdges" /><rect width="10" height="10" x="230" y="130" fill="#7e5243" shape-rendering="crispEdges" /><rect width="30" height="10" x="60" y="140" fill="#7e5243" shape-rendering="crispEdges" /><rect width="140" height="10" x="90" y="140" fill="#d4b7b2" shape-rendering="crispEdges" /><rect width="10" height="10" x="230" y="140" fill="#7e5243" shape-rendering="crispEdges" /><rect width="40" height="10" x="50" y="150" fill="#7e5243" shape-rendering="crispEdges" /><rect width="140" height="10" x="90" y="150" fill="#d4b7b2" shape-rendering="crispEdges" /><rect width="10" height="10" x="230" y="150" fill="#7e5243" shape-rendering="crispEdges" /><rect width="50" height="10" x="40" y="160" fill="#7e5243" shape-rendering="crispEdges" /><rect width="170" height="10" x="90" y="160" fill="#d4b7b2" shape-rendering="crispEdges" /><rect width="20" height="10" x="260" y="160" fill="#7e5243" shape-rendering="crispEdges" /><rect width="20" height="10" x="70" y="170" fill="#7e5243" shape-rendering="crispEdges" /><rect width="10" height="10" x="90" y="170" fill="#d4b7b2" shape-rendering="crispEdges" /><rect width="10" height="10" x="100" y="170" fill="#c3a199" shape-rendering="crispEdges" /><rect width="10" height="10" x="110" y="170" fill="#d4b7b2" shape-rendering="crispEdges" /><rect width="10" height="10" x="120" y="170" fill="#c3a199" shape-rendering="crispEdges" /><rect width="150" height="10" x="130" y="170" fill="#d4b7b2" shape-rendering="crispEdges" /><rect width="30" height="10" x="60" y="180" fill="#7e5243" shape-rendering="crispEdges" /><rect width="10" height="10" x="90" y="180" fill="#d4b7b2" shape-rendering="crispEdges" /><rect width="10" height="10" x="100" y="180" fill="#c3a199" shape-rendering="crispEdges" /><rect width="10" height="10" x="110" y="180" fill="#d4b7b2" shape-rendering="crispEdges" /><rect width="10" height="10" x="120" y="180" fill="#c3a199" shape-rendering="crispEdges" /><rect width="10" height="10" x="130" y="180" fill="#d4b7b2" shape-rendering="crispEdges" /><rect width="40" height="10" x="140" y="180" fill="#000000" shape-rendering="crispEdges" /><rect width="10" height="10" x="180" y="180" fill="#ffffff" shape-rendering="crispEdges" /><rect width="10" height="10" x="190" y="180" fill="#000000" shape-rendering="crispEdges" /><rect width="10" height="10" x="200" y="180" fill="#ffffff" shape-rendering="crispEdges" /><rect width="30" height="10" x="210" y="180" fill="#000000" shape-rendering="crispEdges" /><rect width="30" height="10" x="240" y="180" fill="#d4b7b2" shape-rendering="crispEdges" /><rect width="40" height="10" x="50" y="190" fill="#7e5243" shape-rendering="crispEdges" /><rect width="10" height="10" x="90" y="190" fill="#d4b7b2" shape-rendering="crispEdges" /><rect width="10" height="10" x="100" y="190" fill="#c3a199" shape-rendering="crispEdges" /><rect width="10" height="10" x="110" y="190" fill="#d4b7b2" shape-rendering="crispEdges" /><rect width="10" height="10" x="120" y="190" fill="#c3a199" shape-rendering="crispEdges" /><rect width="20" height="10" x="130" y="190" fill="#000000" shape-rendering="crispEdges" /><rect width="10" height="10" x="150" y="190" fill="#ffffff" shape-rendering="crispEdges" /><rect width="60" height="10" x="160" y="190" fill="#000000" shape-rendering="crispEdges" /><rect width="10" height="10" x="220" y="190" fill="#ffffff" shape-rendering="crispEdges" /><rect width="20" height="10" x="230" y="190" fill="#000000" shape-rendering="crispEdges" /><rect width="10" height="10" x="250" y="190" fill="#d4b7b2" shape-rendering="crispEdges" /><rect width="50" height="10" x="40" y="200" fill="#7e5243" shape-rendering="crispEdges" /><rect width="10" height="10" x="90" y="200" fill="#d4b7b2" shape-rendering="crispEdges" /><rect width="10" height="10" x="100" y="200" fill="#c3a199" shape-rendering="crispEdges" /><rect width="10" height="10" x="110" y="200" fill="#d4b7b2" shape-rendering="crispEdges" /><rect width="10" height="10" x="120" y="200" fill="#c3a199" shape-rendering="crispEdges" /><rect width="120" height="10" x="130" y="200" fill="#d18687" shape-rendering="crispEdges" /></svg>