<svg width="320" height="320" viewBox="0 0 320 320" xmlns="http://www.w3.org/2000/svg" shape-rendering="crispEdges"><rect width="100%" height="100%" fill="none" /><rect width="130" height="10" x="110" y="80" fill="#f3322c" shape-rendering="crispEdges" /><rect width="180" height="10" x="80" y="90" fill="#f3322c" shape-rendering="crispEdges" /><rect width="220" height="10" x="60" y="100" fill="#f3322c" shape-rendering="crispEdges" /><rect width="230" height="10" x="50" y="110" fill="#f3322c" shape-rendering="crispEdges" /><rect width="230" height="10" x="50" y="120" fill="#f3322c" shape-rendering="crispEdges" /><rect width="230" height="10" x="50" y="130" fill="#f3322c" shape-rendering="crispEdges" /><rect width="230" height="10" x="50" y="140" fill="#f3322c" shape-rendering="crispEdges" /><rect width="50" height="10" x="40" y="150" fill="#d22209" shape-rendering="crispEdges" /><rect width="180" height="10" x="90" y="150" fill="#abaaa8" shape-rendering="crispEdges" /><rect width="60" height="10" x="40" y="160" fill="#d22209" shape-rendering="crispEdges" /><rect width="170" height="10" x="100" y="160" fill="#abaaa8" shape-rendering="crispEdges" /><rect width="40" height="10" x="40" y="170" fill="#d22209" shape-rendering="crispEdges" /><rect width="10" height="10" x="80" y="170" fill="#f3322c" shape-rendering="crispEdges" /><rect width="20" height="10" x="90" y="170" fill="#d22209" shape-rendering="crispEdges" /><rect width="50" height="10" x="40" y="180" fill="#d22209" shape-rendering="crispEdges" /><rect width="180" height="10" x="90" y="180" fill="#f3322c" shape-rendering="crispEdges" /><rect width="240" height="10" x="40" y="190" fill="#d22209" shape-rendering="crispEdges" /><rect width="240" height="10" x="40" y="200" fill="#d22209" shape-rendering="crispEdges" /></svg>