<svg width="320" height="320" viewBox="0 0 320 320" xmlns="http://www.w3.org/2000/svg" shape-rendering="crispEdges"><rect width="100%" height="100%" fill="none" /><rect width="20" height="10" x="150" y="10" fill="#e2c8c0" shape-rendering="crispEdges" /><rect width="20" height="10" x="90" y="20" fill="#e2c8c0" shape-rendering="crispEdges" /><rect width="20" height="10" x="140" y="20" fill="#e2c8c0" shape-rendering="crispEdges" /><rect width="20" height="10" x="210" y="20" fill="#e2c8c0" shape-rendering="crispEdges" /><rect width="20" height="10" x="100" y="30" fill="#e2c8c0" shape-rendering="crispEdges" /><rect width="20" height="10" x="150" y="30" fill="#e2c8c0" shape-rendering="crispEdges" /><rect width="20" height="10" x="200" y="30" fill="#e2c8c0" shape-rendering="crispEdges" /><rect width="20" height="10" x="90" y="40" fill="#e2c8c0" shape-rendering="crispEdges" /><rect width="20" height="10" x="140" y="40" fill="#e2c8c0" shape-rendering="crispEdges" /><rect width="20" height="10" x="210" y="40" fill="#e2c8c0" shape-rendering="crispEdges" /><rect width="20" height="10" x="100" y="50" fill="#e2c8c0" shape-rendering="crispEdges" /><rect width="20" height="10" x="200" y="50" fill="#e2c8c0" shape-rendering="crispEdges" /><rect width="20" height="10" x="90" y="60" fill="#e2c8c0" shape-rendering="crispEdges" /><rect width="20" height="10" x="150" y="60" fill="#b9185c" shape-rendering="crispEdges" /><rect width="20" height="10" x="210" y="60" fill="#e2c8c0" shape-rendering="crispEdges" /><rect width="20" height="10" x="100" y="70" fill="#e2c8c0" shape-rendering="crispEdges" /><rect width="20" height="10" x="140" y="70" fill="#b9185c" shape-rendering="crispEdges" /><rect width="10" height="10" x="160" y="70" fill="#e9265c" shape-rendering="crispEdges" /><rect width="10" height="10" x="170" y="70" fill="#b9185c" shape-rendering="crispEdges" /><rect width="20" height="10" x="200" y="70" fill="#e2c8c0" shape-rendering="crispEdges" /><rect width="10" height="10" x="130" y="80" fill="#d19a54" shape-rendering="crispEdges" /><rect width="40" height="10" x="140" y="80" fill="#b9185c" shape-rendering="crispEdges" /><rect width="10" height="10" x="180" y="80" fill="#d19a54" shape-rendering="crispEdges" /><rect width="20" height="10" x="90" y="90" fill="#d19a54" shape-rendering="crispEdges" /><rect width="10" height="10" x="110" y="90" fill="#b9185c" shape-rendering="crispEdges" /><rect width="30" height="10" x="120" y="90" fill="#d19a54" shape-rendering="crispEdges" /><rect width="20" height="10" x="150" y="90" fill="#b9185c" shape-rendering="crispEdges" /><rect width="30" height="10" x="170" y="90" fill="#d19a54" shape-rendering="crispEdges" /><rect width="10" height="10" x="200" y="90" fill="#b9185c" shape-rendering="crispEdges" /><rect width="20" height="10" x="210" y="90" fill="#d19a54" shape-rendering="crispEdges" /><rect width="180" height="10" x="70" y="100" fill="#d19a54" shape-rendering="crispEdges" /><rect width="10" height="10" x="60" y="110" fill="#d19a54" shape-rendering="crispEdges" /><rect width="10" height="10" x="70" y="110" fill="#b9185c" shape-rendering="crispEdges" /><rect width="160" height="10" x="80" y="110" fill="#d19a54" shape-rendering="crispEdges" /><rect width="10" height="10" x="240" y="110" fill="#b9185c" shape-rendering="crispEdges" /><rect width="10" height="10" x="250" y="110" fill="#d19a54" shape-rendering="crispEdges" /><rect width="220" height="10" x="50" y="120" fill="#d19a54" shape-rendering="crispEdges" /><rect width="10" height="10" x="50" y="130" fill="#d19a54" shape-rendering="crispEdges" /><rect width="40" height="10" x="60" y="130" fill="#c16923" shape-rendering="crispEdges" /><rect width="10" height="10" x="100" y="130" fill="#d19a54" shape-rendering="crispEdges" /><rect width="40" height="10" x="110" y="130" fill="#c16923" shape-rendering="crispEdges" /><rect width="10" height="10" x="150" y="130" fill="#d19a54" shape-rendering="crispEdges" /><rect width="40" height="10" x="160" y="130" fill="#c16923" shape-rendering="crispEdges" /><rect width="10" height="10" x="200" y="130" fill="#d19a54" shape-rendering="crispEdges" /><rect width="40" height="10" x="210" y="130" fill="#c16923" shape-rendering="crispEdges" /><rect width="10" height="10" x="250" y="130" fill="#d19a54" shape-rendering="crispEdges" /><rect width="10" height="10" x="260" y="130" fill="#c16923" shape-rendering="crispEdges" /><rect width="240" height="10" x="40" y="140" fill="#c16923" shape-rendering="crispEdges" /><rect width="240" height="10" x="40" y="150" fill="#c16923" shape-rendering="crispEdges" /><rect width="30" height="10" x="40" y="160" fill="#c16923" shape-rendering="crispEdges" /><rect width="20" height="10" x="70" y="160" fill="#769ca9" shape-rendering="crispEdges" /><rect width="30" height="10" x="90" y="160" fill="#c16923" shape-rendering="crispEdges" /><rect width="10" height="10" x="120" y="160" fill="#5a6b7b" shape-rendering="crispEdges" /><rect width="10" height="10" x="130" y="160" fill="#769ca9" shape-rendering="crispEdges" /><rect width="30" height="10" x="140" y="160" fill="#c16923" shape-rendering="crispEdges" /><rect width="10" height="10" x="170" y="160" fill="#769ca9" shape-rendering="crispEdges" /><rect width="10" height="10" x="180" y="160" fill="#5a6b7b" shape-rendering="crispEdges" /><rect width="30" height="10" x="190" y="160" fill="#c16923" shape-rendering="crispEdges" /><rect width="20" height="10" x="220" y="160" fill="#769ca9" shape-rendering="crispEdges" /><rect width="40" height="10" x="240" y="160" fill="#c16923" shape-rendering="crispEdges" /><rect width="10" height="10" x="40" y="170" fill="#c16923" shape-rendering="crispEdges" /><rect width="10" height="10" x="50" y="170" fill="#769ca9" shape-rendering="crispEdges" /><rect width="10" height="10" x="60" y="170" fill="#5a6b7b" shape-rendering="crispEdges" /><rect width="20" height="10" x="70" y="170" fill="#769ca9" shape-rendering="crispEdges" /><rect width="10" height="10" x="90" y="170" fill="#5a6b7b" shape-rendering="crispEdges" /><rect width="20" height="10" x="100" y="170" fill="#769ca9" shape-rendering="crispEdges" /><rect width="10" height="10" x="120" y="170" fill="#1e3445" shape-rendering="crispEdges" /><rect width="20" height="10" x="130" y="170" fill="#769ca9" shape-rendering="crispEdges" /><rect width="10" height="10" x="150" y="170" fill="#5a6b7b" shape-rendering="crispEdges" /><rect width="20" height="10" x="160" y="170" fill="#769ca9" shape-rendering="crispEdges" /><rect width="10" height="10" x="180" y="170" fill="#5a6b7b" shape-rendering="crispEdges" /><rect width="20" height="10" x="190" y="170" fill="#769ca9" shape-rendering="crispEdges" /><rect width="10" height="10" x="210" y="170" fill="#5a6b7b" shape-rendering="crispEdges" /><rect width="20" height="10" x="220" y="170" fill="#769ca9" shape-rendering="crispEdges" /><rect width="10" height="10" x="240" y="170" fill="#5a6b7b" shape-rendering="crispEdges" /><rect width="20" height="10" x="250" y="170" fill="#769ca9" shape-rendering="crispEdges" /><rect width="10" height="10" x="270" y="170" fill="#c16923" shape-rendering="crispEdges" /><rect width="10" height="10" x="50" y="180" fill="#769ca9" shape-rendering="crispEdges" /><rect width="10" height="10" x="60" y="180" fill="#5a6b7b" shape-rendering="crispEdges" /><rect width="20" height="10" x="70" y="180" fill="#769ca9" shape-rendering="crispEdges" /><rect width="10" height="10" x="90" y="180" fill="#5a6b7b" shape-rendering="crispEdges" /><rect width="20" height="10" x="100" y="180" fill="#769ca9" shape-rendering="crispEdges" /><rect width="90" height="10" x="120" y="180" fill="#1e3445" shape-rendering="crispEdges" /><rect width="10" height="10" x="210" y="180" fill="#5a6b7b" shape-rendering="crispEdges" /><rect width="20" height="10" x="220" y="180" fill="#769ca9" shape-rendering="crispEdges" /><rect width="10" height="10" x="240" y="180" fill="#5a6b7b" shape-rendering="crispEdges" /><rect width="20" height="10" x="250" y="180" fill="#769ca9" shape-rendering="crispEdges" /><rect width="10" height="10" x="60" y="190" fill="#5a6b7b" shape-rendering="crispEdges" /><rect width="20" height="10" x="70" y="190" fill="#769ca9" shape-rendering="crispEdges" /><rect width="10" height="10" x="90" y="190" fill="#5a6b7b" shape-rendering="crispEdges" /><rect width="20" height="10" x="100" y="190" fill="#769ca9" shape-rendering="crispEdges" /><rect width="10" height="10" x="120" y="190" fill="#1e3445" shape-rendering="crispEdges" /><rect width="20" height="10" x="130" y="190" fill="#769ca9" shape-rendering="crispEdges" /><rect width="10" height="10" x="150" y="190" fill="#5a6b7b" shape-rendering="crispEdges" /><rect width="20" height="10" x="160" y="190" fill="#769ca9" shape-rendering="crispEdges" /><rect width="10" height="10" x="180" y="190" fill="#5a6b7b" shape-rendering="crispEdges" /><rect width="20" height="10" x="190" y="190" fill="#769ca9" shape-rendering="crispEdges" /><rect width="10" height="10" x="210" y="190" fill="#5a6b7b" shape-rendering="crispEdges" /><rect width="20" height="10" x="220" y="190" fill="#769ca9" shape-rendering="crispEdges" /><rect width="10" height="10" x="240" y="190" fill="#5a6b7b" shape-rendering="crispEdges" /><rect width="10" height="10" x="250" y="190" fill="#769ca9" shape-rendering="crispEdges" /><rect width="10" height="10" x="60" y="200" fill="#5a6b7b" shape-rendering="crispEdges" /><rect width="20" height="10" x="70" y="200" fill="#769ca9" shape-rendering="crispEdges" /><rect width="10" height="10" x="90" y="200" fill="#5a6b7b" shape-rendering="crispEdges" /><rect width="20" height="10" x="100" y="200" fill="#769ca9" shape-rendering="crispEdges" /><rect width="10" height="10" x="120" y="200" fill="#5a6b7b" shape-rendering="crispEdges" /><rect width="20" height="10" x="130" y="200" fill="#769ca9" shape-rendering="crispEdges" /><rect width="10" height="10" x="150" y="200" fill="#5a6b7b" shape-rendering="crispEdges" /><rect width="20" height="10" x="160" y="200" fill="#769ca9" shape-rendering="crispEdges" /><rect width="10" height="10" x="180" y="200" fill="#5a6b7b" shape-rendering="crispEdges" /><rect width="20" height="10" x="190" y="200" fill="#769ca9" shape-rendering="crispEdges" /><rect width="10" height="10" x="210" y="200" fill="#5a6b7b" shape-rendering="crispEdges" /><rect width="20" height="10" x="220" y="200" fill="#769ca9" shape-rendering="crispEdges" /><rect width="10" height="10" x="240" y="200" fill="#5a6b7b" shape-rendering="crispEdges" /><rect width="10" height="10" x="250" y="200" fill="#769ca9" shape-rendering="crispEdges" /></svg>