<svg width="320" height="320" viewBox="0 0 320 320" xmlns="http://www.w3.org/2000/svg" shape-rendering="crispEdges"><rect width="100%" height="100%" fill="none" /><rect width="40" height="10" x="70" y="50" fill="#000000" shape-rendering="crispEdges" /><rect width="40" height="10" x="200" y="50" fill="#000000" shape-rendering="crispEdges" /><rect width="60" height="10" x="60" y="60" fill="#000000" shape-rendering="crispEdges" /><rect width="60" height="10" x="190" y="60" fill="#000000" shape-rendering="crispEdges" /><rect width="60" height="10" x="60" y="70" fill="#000000" shape-rendering="crispEdges" /><rect width="90" height="10" x="120" y="70" fill="#ffffff" shape-rendering="crispEdges" /><rect width="40" height="10" x="210" y="70" fill="#000000" shape-rendering="crispEdges" /><rect width="50" height="10" x="60" y="80" fill="#000000" shape-rendering="crispEdges" /><rect width="110" height="10" x="110" y="80" fill="#ffffff" shape-rendering="crispEdges" /><rect width="30" height="10" x="220" y="80" fill="#000000" shape-rendering="crispEdges" /><rect width="40" height="10" x="60" y="90" fill="#000000" shape-rendering="crispEdges" /><rect width="130" height="10" x="100" y="90" fill="#ffffff" shape-rendering="crispEdges" /><rect width="20" height="10" x="230" y="90" fill="#000000" shape-rendering="crispEdges" /><rect width="20" height="10" x="70" y="100" fill="#000000" shape-rendering="crispEdges" /><rect width="140" height="10" x="90" y="100" fill="#ffffff" shape-rendering="crispEdges" /><rect width="10" height="10" x="230" y="100" fill="#000000" shape-rendering="crispEdges" /><rect width="160" height="10" x="80" y="110" fill="#ffffff" shape-rendering="crispEdges" /><rect width="160" height="10" x="80" y="120" fill="#ffffff" shape-rendering="crispEdges" /><rect width="160" height="10" x="80" y="130" fill="#ffffff" shape-rendering="crispEdges" /><rect width="160" height="10" x="80" y="140" fill="#ffffff" shape-rendering="crispEdges" /><rect width="160" height="10" x="80" y="150" fill="#ffffff" shape-rendering="crispEdges" /><rect width="160" height="10" x="80" y="160" fill="#ffffff" shape-rendering="crispEdges" /><rect width="100" height="10" x="80" y="170" fill="#ffffff" shape-rendering="crispEdges" /><rect width="40" height="10" x="180" y="170" fill="#000000" shape-rendering="crispEdges" /><rect width="20" height="10" x="220" y="170" fill="#ffffff" shape-rendering="crispEdges" /><rect width="100" height="10" x="80" y="180" fill="#ffffff" shape-rendering="crispEdges" /><rect width="40" height="10" x="180" y="180" fill="#000000" shape-rendering="crispEdges" /><rect width="20" height="10" x="220" y="180" fill="#ffffff" shape-rendering="crispEdges" /><rect width="70" height="10" x="80" y="190" fill="#ffffff" shape-rendering="crispEdges" /><rect width="60" height="10" x="150" y="190" fill="#000000" shape-rendering="crispEdges" /><rect width="30" height="10" x="210" y="190" fill="#ffffff" shape-rendering="crispEdges" /><rect width="160" height="10" x="80" y="200" fill="#ffffff" shape-rendering="crispEdges" /></svg>