<svg width="320" height="320" viewBox="0 0 320 320" xmlns="http://www.w3.org/2000/svg" shape-rendering="crispEdges"><rect width="100%" height="100%" fill="none" /><rect width="10" height="10" x="130" y="30" fill="#e11833" shape-rendering="crispEdges" /><rect width="30" height="10" x="150" y="30" fill="#e11833" shape-rendering="crispEdges" /><rect width="70" height="10" x="120" y="40" fill="#e11833" shape-rendering="crispEdges" /><rect width="80" height="10" x="110" y="50" fill="#e11833" shape-rendering="crispEdges" /><rect width="20" height="10" x="100" y="60" fill="#f9f4e6" shape-rendering="crispEdges" /><rect width="70" height="10" x="120" y="60" fill="#e11833" shape-rendering="crispEdges" /><rect width="30" height="10" x="190" y="60" fill="#f9f4e6" shape-rendering="crispEdges" /><rect width="60" height="10" x="90" y="70" fill="#f9f4e6" shape-rendering="crispEdges" /><rect width="40" height="10" x="150" y="70" fill="#e11833" shape-rendering="crispEdges" /><rect width="40" height="10" x="190" y="70" fill="#f9f4e6" shape-rendering="crispEdges" /><rect width="90" height="10" x="90" y="80" fill="#f9f4e6" shape-rendering="crispEdges" /><rect width="10" height="10" x="180" y="80" fill="#e11833" shape-rendering="crispEdges" /><rect width="40" height="10" x="190" y="80" fill="#f9f4e6" shape-rendering="crispEdges" /><rect width="160" height="10" x="80" y="90" fill="#f9f4e6" shape-rendering="crispEdges" /><rect width="160" height="10" x="80" y="100" fill="#f9f4e6" shape-rendering="crispEdges" /><rect width="160" height="10" x="80" y="110" fill="#f9f4e6" shape-rendering="crispEdges" /><rect width="160" height="10" x="80" y="120" fill="#f9f4e6" shape-rendering="crispEdges" /><rect width="160" height="10" x="80" y="130" fill="#f9f4e6" shape-rendering="crispEdges" /><rect width="160" height="10" x="80" y="140" fill="#f9f4e6" shape-rendering="crispEdges" /><rect width="160" height="10" x="80" y="150" fill="#f9f4e6" shape-rendering="crispEdges" /><rect width="160" height="10" x="80" y="160" fill="#f9f4e6" shape-rendering="crispEdges" /><rect width="80" height="10" x="80" y="170" fill="#f9f4e6" shape-rendering="crispEdges" /><rect width="40" height="10" x="160" y="170" fill="#f98f30" shape-rendering="crispEdges" /><rect width="40" height="10" x="200" y="170" fill="#f9f4e6" shape-rendering="crispEdges" /><rect width="80" height="10" x="80" y="180" fill="#f9f4e6" shape-rendering="crispEdges" /><rect width="60" height="10" x="160" y="180" fill="#f98f30" shape-rendering="crispEdges" /><rect width="20" height="10" x="220" y="180" fill="#f9f4e6" shape-rendering="crispEdges" /><rect width="80" height="10" x="80" y="190" fill="#f9f4e6" shape-rendering="crispEdges" /><rect width="40" height="10" x="160" y="190" fill="#e11833" shape-rendering="crispEdges" /><rect width="40" height="10" x="200" y="190" fill="#f9f4e6" shape-rendering="crispEdges" /><rect width="80" height="10" x="80" y="200" fill="#f9f4e6" shape-rendering="crispEdges" /><rect width="40" height="10" x="160" y="200" fill="#e11833" shape-rendering="crispEdges" /><rect width="40" height="10" x="200" y="200" fill="#f9f4e6" shape-rendering="crispEdges" /></svg>