<svg width="320" height="320" viewBox="0 0 320 320" xmlns="http://www.w3.org/2000/svg" shape-rendering="crispEdges"><rect width="100%" height="100%" fill="none" /><rect width="40" height="10" x="150" y="20" fill="#903707" shape-rendering="crispEdges" /><rect width="60" height="10" x="150" y="30" fill="#903707" shape-rendering="crispEdges" /><rect width="30" height="10" x="140" y="40" fill="#903707" shape-rendering="crispEdges" /><rect width="10" height="10" x="170" y="40" fill="#db8323" shape-rendering="crispEdges" /><rect width="10" height="10" x="180" y="40" fill="#903707" shape-rendering="crispEdges" /><rect width="10" height="10" x="190" y="40" fill="#db8323" shape-rendering="crispEdges" /><rect width="10" height="10" x="200" y="40" fill="#903707" shape-rendering="crispEdges" /><rect width="20" height="10" x="140" y="50" fill="#903707" shape-rendering="crispEdges" /><rect width="10" height="10" x="160" y="50" fill="#db8323" shape-rendering="crispEdges" /><rect width="10" height="10" x="170" y="50" fill="#552e05" shape-rendering="crispEdges" /><rect width="10" height="10" x="180" y="50" fill="#db8323" shape-rendering="crispEdges" /><rect width="10" height="10" x="190" y="50" fill="#552e05" shape-rendering="crispEdges" /><rect width="10" height="10" x="200" y="50" fill="#903707" shape-rendering="crispEdges" /><rect width="20" height="10" x="140" y="60" fill="#903707" shape-rendering="crispEdges" /><rect width="20" height="10" x="160" y="60" fill="#c16710" shape-rendering="crispEdges" /><rect width="10" height="10" x="180" y="60" fill="#db8323" shape-rendering="crispEdges" /><rect width="10" height="10" x="190" y="60" fill="#c16710" shape-rendering="crispEdges" /><rect width="10" height="10" x="200" y="60" fill="#903707" shape-rendering="crispEdges" /><rect width="50" height="10" x="110" y="70" fill="#903707" shape-rendering="crispEdges" /><rect width="10" height="10" x="160" y="70" fill="#c16710" shape-rendering="crispEdges" /><rect width="10" height="10" x="170" y="70" fill="#db8323" shape-rendering="crispEdges" /><rect width="10" height="10" x="180" y="70" fill="#552e05" shape-rendering="crispEdges" /><rect width="10" height="10" x="190" y="70" fill="#db8323" shape-rendering="crispEdges" /><rect width="10" height="10" x="200" y="70" fill="#903707" shape-rendering="crispEdges" /><rect width="110" height="10" x="100" y="80" fill="#903707" shape-rendering="crispEdges" /><rect width="110" height="10" x="90" y="90" fill="#903707" shape-rendering="crispEdges" /><rect width="130" height="10" x="80" y="100" fill="#903707" shape-rendering="crispEdges" /><rect width="140" height="10" x="70" y="110" fill="#903707" shape-rendering="crispEdges" /><rect width="10" height="10" x="210" y="110" fill="#552e05" shape-rendering="crispEdges" /><rect width="40" height="10" x="60" y="120" fill="#903707" shape-rendering="crispEdges" /><rect width="100" height="10" x="110" y="120" fill="#903707" shape-rendering="crispEdges" /><rect width="30" height="10" x="210" y="120" fill="#552e05" shape-rendering="crispEdges" /><rect width="40" height="10" x="50" y="130" fill="#903707" shape-rendering="crispEdges" /><rect width="100" height="10" x="110" y="130" fill="#903707" shape-rendering="crispEdges" /><rect width="50" height="10" x="210" y="130" fill="#552e05" shape-rendering="crispEdges" /><rect width="40" height="10" x="40" y="140" fill="#903707" shape-rendering="crispEdges" /><rect width="110" height="10" x="100" y="140" fill="#903707" shape-rendering="crispEdges" /><rect width="70" height="10" x="210" y="140" fill="#552e05" shape-rendering="crispEdges" /><rect width="40" height="10" x="20" y="150" fill="#903707" shape-rendering="crispEdges" /><rect width="120" height="10" x="90" y="150" fill="#903707" shape-rendering="crispEdges" /><rect width="50" height="10" x="240" y="150" fill="#552e05" shape-rendering="crispEdges" /><rect width="30" height="10" x="20" y="160" fill="#903707" shape-rendering="crispEdges" /><rect width="120" height="10" x="90" y="160" fill="#903707" shape-rendering="crispEdges" /><rect width="10" height="10" x="250" y="160" fill="#552e05" shape-rendering="crispEdges" /><rect width="10" height="10" x="270" y="160" fill="#552e05" shape-rendering="crispEdges" /><rect width="110" height="10" x="90" y="170" fill="#903707" shape-rendering="crispEdges" /><rect width="80" height="10" x="90" y="180" fill="#903707" shape-rendering="crispEdges" /><rect width="20" height="10" x="170" y="180" fill="#fd8b5b" shape-rendering="crispEdges" /><rect width="20" height="10" x="190" y="180" fill="#903707" shape-rendering="crispEdges" /><rect width="20" height="10" x="100" y="190" fill="#552e05" shape-rendering="crispEdges" /><rect width="100" height="10" x="120" y="190" fill="#903707" shape-rendering="crispEdges" /><rect width="60" height="10" x="90" y="200" fill="#552e05" shape-rendering="crispEdges" /><rect width="80" height="10" x="150" y="200" fill="#903707" shape-rendering="crispEdges" /></svg>