<svg width="320" height="320" viewBox="0 0 320 320" xmlns="http://www.w3.org/2000/svg" shape-rendering="crispEdges"><rect width="100%" height="100%" fill="none" /><rect width="80" height="10" x="90" y="30" fill="#e9ba12" shape-rendering="crispEdges" /><rect width="80" height="10" x="90" y="40" fill="#e9ba12" shape-rendering="crispEdges" /><rect width="80" height="10" x="90" y="50" fill="#e9ba12" shape-rendering="crispEdges" /><rect width="40" height="10" x="60" y="60" fill="#e9ba12" shape-rendering="crispEdges" /><rect width="30" height="10" x="150" y="60" fill="#e9ba12" shape-rendering="crispEdges" /><rect width="40" height="10" x="60" y="70" fill="#e9ba12" shape-rendering="crispEdges" /><rect width="30" height="10" x="120" y="70" fill="#767c0e" shape-rendering="crispEdges" /><rect width="30" height="10" x="150" y="70" fill="#e9ba12" shape-rendering="crispEdges" /><rect width="40" height="10" x="60" y="80" fill="#e9ba12" shape-rendering="crispEdges" /><rect width="10" height="10" x="120" y="80" fill="#767c0e" shape-rendering="crispEdges" /><rect width="20" height="10" x="140" y="80" fill="#767c0e" shape-rendering="crispEdges" /><rect width="20" height="10" x="160" y="80" fill="#e9ba12" shape-rendering="crispEdges" /><rect width="30" height="10" x="40" y="90" fill="#e9ba12" shape-rendering="crispEdges" /><rect width="30" height="10" x="140" y="90" fill="#767c0e" shape-rendering="crispEdges" /><rect width="30" height="10" x="40" y="100" fill="#e9ba12" shape-rendering="crispEdges" /><rect width="30" height="10" x="40" y="110" fill="#e9ba12" shape-rendering="crispEdges" /><rect width="30" height="10" x="30" y="120" fill="#e9ba12" shape-rendering="crispEdges" /><rect width="30" height="10" x="30" y="130" fill="#e9ba12" shape-rendering="crispEdges" /><rect width="30" height="10" x="30" y="140" fill="#e9ba12" shape-rendering="crispEdges" /><rect width="30" height="10" x="30" y="150" fill="#e9ba12" shape-rendering="crispEdges" /><rect width="130" height="10" x="90" y="150" fill="#767c0e" shape-rendering="crispEdges" /><rect width="30" height="10" x="30" y="160" fill="#e9ba12" shape-rendering="crispEdges" /><rect width="160" height="10" x="80" y="160" fill="#767c0e" shape-rendering="crispEdges" /><rect width="30" height="10" x="270" y="160" fill="#f39713" shape-rendering="crispEdges" /><rect width="50" height="10" x="30" y="170" fill="#e9ba12" shape-rendering="crispEdges" /><rect width="160" height="10" x="80" y="170" fill="#767c0e" shape-rendering="crispEdges" /><rect width="30" height="10" x="240" y="170" fill="#e9ba12" shape-rendering="crispEdges" /><rect width="10" height="10" x="270" y="170" fill="#f39713" shape-rendering="crispEdges" /><rect width="40" height="10" x="40" y="180" fill="#e9ba12" shape-rendering="crispEdges" /><rect width="20" height="10" x="80" y="180" fill="#767c0e" shape-rendering="crispEdges" /><rect width="20" height="10" x="100" y="180" fill="#f9f6d1" shape-rendering="crispEdges" /><rect width="20" height="10" x="120" y="180" fill="#767c0e" shape-rendering="crispEdges" /><rect width="20" height="10" x="140" y="180" fill="#f9f6d1" shape-rendering="crispEdges" /><rect width="20" height="10" x="160" y="180" fill="#767c0e" shape-rendering="crispEdges" /><rect width="20" height="10" x="180" y="180" fill="#f9f6d1" shape-rendering="crispEdges" /><rect width="10" height="10" x="200" y="180" fill="#767c0e" shape-rendering="crispEdges" /><rect width="70" height="10" x="210" y="180" fill="#e9ba12" shape-rendering="crispEdges" /><rect width="40" height="10" x="40" y="190" fill="#e9ba12" shape-rendering="crispEdges" /><rect width="40" height="10" x="80" y="190" fill="#767c0e" shape-rendering="crispEdges" /><rect width="20" height="10" x="120" y="190" fill="#f9f6d1" shape-rendering="crispEdges" /><rect width="20" height="10" x="140" y="190" fill="#767c0e" shape-rendering="crispEdges" /><rect width="20" height="10" x="160" y="190" fill="#f9f6d1" shape-rendering="crispEdges" /><rect width="40" height="10" x="180" y="190" fill="#767c0e" shape-rendering="crispEdges" /><rect width="60" height="10" x="220" y="190" fill="#e9ba12" shape-rendering="crispEdges" /><rect width="140" height="10" x="90" y="200" fill="#767c0e" shape-rendering="crispEdges" /><rect width="30" height="10" x="240" y="200" fill="#e9ba12" shape-rendering="crispEdges" /><rect width="30" height="10" x="270" y="200" fill="#f39713" shape-rendering="crispEdges" /></svg>