<svg width="320" height="320" viewBox="0 0 320 320" xmlns="http://www.w3.org/2000/svg" shape-rendering="crispEdges"><rect width="100%" height="100%" fill="none" /><rect width="30" height="10" x="140" y="40" fill="#f78a18" shape-rendering="crispEdges" /><rect width="10" height="10" x="130" y="50" fill="#f78a18" shape-rendering="crispEdges" /><rect width="30" height="10" x="140" y="50" fill="#ffd067" shape-rendering="crispEdges" /><rect width="10" height="10" x="170" y="50" fill="#f78a18" shape-rendering="crispEdges" /><rect width="20" height="10" x="230" y="50" fill="#da42cb" shape-rendering="crispEdges" /><rect width="30" height="10" x="100" y="60" fill="#fa6fe2" shape-rendering="crispEdges" /><rect width="10" height="10" x="130" y="60" fill="#ffae1a" shape-rendering="crispEdges" /><rect width="30" height="10" x="140" y="60" fill="#ffd067" shape-rendering="crispEdges" /><rect width="10" height="10" x="170" y="60" fill="#ffae1a" shape-rendering="crispEdges" /><rect width="20" height="10" x="180" y="60" fill="#fa6fe2" shape-rendering="crispEdges" /><rect width="10" height="10" x="220" y="60" fill="#da42cb" shape-rendering="crispEdges" /><rect width="10" height="10" x="230" y="60" fill="#fa6fe2" shape-rendering="crispEdges" /><rect width="10" height="10" x="240" y="60" fill="#da42cb" shape-rendering="crispEdges" /><rect width="20" height="10" x="80" y="70" fill="#da42cb" shape-rendering="crispEdges" /><rect width="20" height="10" x="100" y="70" fill="#fa6fe2" shape-rendering="crispEdges" /><rect width="10" height="10" x="120" y="70" fill="#da42cb" shape-rendering="crispEdges" /><rect width="50" height="10" x="130" y="70" fill="#9f21a0" shape-rendering="crispEdges" /><rect width="10" height="10" x="180" y="70" fill="#da42cb" shape-rendering="crispEdges" /><rect width="20" height="10" x="190" y="70" fill="#fa6fe2" shape-rendering="crispEdges" /><rect width="10" height="10" x="210" y="70" fill="#da42cb" shape-rendering="crispEdges" /><rect width="20" height="10" x="220" y="70" fill="#fa6fe2" shape-rendering="crispEdges" /><rect width="10" height="10" x="240" y="70" fill="#da42cb" shape-rendering="crispEdges" /><rect width="10" height="10" x="70" y="80" fill="#da42cb" shape-rendering="crispEdges" /><rect width="160" height="10" x="80" y="80" fill="#fa6fe2" shape-rendering="crispEdges" /><rect width="10" height="10" x="240" y="80" fill="#da42cb" shape-rendering="crispEdges" /><rect width="10" height="10" x="40" y="90" fill="#da42cb" shape-rendering="crispEdges" /><rect width="30" height="10" x="60" y="90" fill="#fa6fe2" shape-rendering="crispEdges" /><rect width="10" height="10" x="90" y="90" fill="#ffffff" shape-rendering="crispEdges" /><rect width="150" height="10" x="100" y="90" fill="#fa6fe2" shape-rendering="crispEdges" /><rect width="10" height="10" x="250" y="90" fill="#da42cb" shape-rendering="crispEdges" /><rect width="10" height="10" x="30" y="100" fill="#da42cb" shape-rendering="crispEdges" /><rect width="20" height="10" x="40" y="100" fill="#d7d3cd" shape-rendering="crispEdges" /><rect width="200" height="10" x="60" y="100" fill="#fa6fe2" shape-rendering="crispEdges" /><rect width="10" height="10" x="260" y="100" fill="#da42cb" shape-rendering="crispEdges" /><rect width="10" height="10" x="30" y="110" fill="#da42cb" shape-rendering="crispEdges" /><rect width="10" height="10" x="40" y="110" fill="#d7d3cd" shape-rendering="crispEdges" /><rect width="190" height="10" x="50" y="110" fill="#fa6fe2" shape-rendering="crispEdges" /><rect width="10" height="10" x="240" y="110" fill="#9f21a0" shape-rendering="crispEdges" /><rect width="10" height="10" x="250" y="110" fill="#fa6fe2" shape-rendering="crispEdges" /><rect width="30" height="10" x="260" y="110" fill="#da42cb" shape-rendering="crispEdges" /><rect width="10" height="10" x="30" y="120" fill="#da42cb" shape-rendering="crispEdges" /><rect width="10" height="10" x="40" y="120" fill="#d7d3cd" shape-rendering="crispEdges" /><rect width="10" height="10" x="50" y="120" fill="#da42cb" shape-rendering="crispEdges" /><rect width="220" height="10" x="60" y="120" fill="#fa6fe2" shape-rendering="crispEdges" /><rect width="10" height="10" x="280" y="120" fill="#da42cb" shape-rendering="crispEdges" /><rect width="10" height="10" x="20" y="130" fill="#d7d3cd" shape-rendering="crispEdges" /><rect width="20" height="10" x="40" y="130" fill="#da42cb" shape-rendering="crispEdges" /><rect width="220" height="10" x="60" y="130" fill="#fa6fe2" shape-rendering="crispEdges" /><rect width="10" height="10" x="280" y="130" fill="#da42cb" shape-rendering="crispEdges" /><rect width="10" height="10" x="50" y="140" fill="#da42cb" shape-rendering="crispEdges" /><rect width="200" height="10" x="60" y="140" fill="#fa6fe2" shape-rendering="crispEdges" /><rect width="30" height="10" x="260" y="140" fill="#da42cb" shape-rendering="crispEdges" /><rect width="20" height="10" x="50" y="150" fill="#da42cb" shape-rendering="crispEdges" /><rect width="210" height="10" x="70" y="150" fill="#fa6fe2" shape-rendering="crispEdges" /><rect width="10" height="10" x="280" y="150" fill="#da42cb" shape-rendering="crispEdges" /><rect width="10" height="10" x="50" y="160" fill="#d7d3cd" shape-rendering="crispEdges" /><rect width="10" height="10" x="60" y="160" fill="#da42cb" shape-rendering="crispEdges" /><rect width="200" height="10" x="70" y="160" fill="#fa6fe2" shape-rendering="crispEdges" /><rect width="10" height="10" x="270" y="160" fill="#da42cb" shape-rendering="crispEdges" /><rect width="30" height="10" x="60" y="170" fill="#da42cb" shape-rendering="crispEdges" /><rect width="160" height="10" x="90" y="170" fill="#fa6fe2" shape-rendering="crispEdges" /><rect width="20" height="10" x="250" y="170" fill="#da42cb" shape-rendering="crispEdges" /><rect width="190" height="10" x="70" y="180" fill="#da42cb" shape-rendering="crispEdges" /><rect width="60" height="10" x="80" y="190" fill="#da42cb" shape-rendering="crispEdges" /><rect width="10" height="10" x="140" y="190" fill="#9f21a0" shape-rendering="crispEdges" /><rect width="20" height="10" x="150" y="190" fill="#ffffff" shape-rendering="crispEdges" /><rect width="10" height="10" x="170" y="190" fill="#9f21a0" shape-rendering="crispEdges" /><rect width="60" height="10" x="180" y="190" fill="#da42cb" shape-rendering="crispEdges" /><rect width="120" height="10" x="100" y="200" fill="#da42cb" shape-rendering="crispEdges" /></svg>