<svg width="320" height="320" viewBox="0 0 320 320" xmlns="http://www.w3.org/2000/svg" shape-rendering="crispEdges"><rect width="100%" height="100%" fill="none" /><rect width="230" height="10" x="50" y="60" fill="#4a5358" shape-rendering="crispEdges" /><rect width="230" height="10" x="50" y="70" fill="#4a5358" shape-rendering="crispEdges" /><rect width="230" height="10" x="50" y="80" fill="#f9f5e9" shape-rendering="crispEdges" /><rect width="230" height="10" x="50" y="90" fill="#4a5358" shape-rendering="crispEdges" /><rect width="230" height="10" x="50" y="100" fill="#4a5358" shape-rendering="crispEdges" /><rect width="230" height="10" x="40" y="110" fill="#4a5358" shape-rendering="crispEdges" /><rect width="230" height="10" x="40" y="120" fill="#4a5358" shape-rendering="crispEdges" /><rect width="230" height="10" x="40" y="130" fill="#4a5358" shape-rendering="crispEdges" /><rect width="230" height="10" x="40" y="140" fill="#4a5358" shape-rendering="crispEdges" /><rect width="230" height="10" x="40" y="150" fill="#4a5358" shape-rendering="crispEdges" /><rect width="240" height="10" x="30" y="160" fill="#4a5358" shape-rendering="crispEdges" /><rect width="230" height="10" x="30" y="170" fill="#fbc800" shape-rendering="crispEdges" /><rect width="230" height="10" x="30" y="180" fill="#4a5358" shape-rendering="crispEdges" /><rect width="10" height="10" x="30" y="190" fill="#4a5358" shape-rendering="crispEdges" /><rect width="30" height="10" x="40" y="190" fill="#fbc800" shape-rendering="crispEdges" /><rect width="30" height="10" x="70" y="190" fill="#4a5358" shape-rendering="crispEdges" /><rect width="30" height="10" x="100" y="190" fill="#fbc800" shape-rendering="crispEdges" /><rect width="30" height="10" x="130" y="190" fill="#4a5358" shape-rendering="crispEdges" /><rect width="30" height="10" x="160" y="190" fill="#fbc800" shape-rendering="crispEdges" /><rect width="30" height="10" x="190" y="190" fill="#4a5358" shape-rendering="crispEdges" /><rect width="30" height="10" x="220" y="190" fill="#fbc800" shape-rendering="crispEdges" /><rect width="10" height="10" x="250" y="190" fill="#4a5358" shape-rendering="crispEdges" /><rect width="230" height="10" x="30" y="200" fill="#4a5358" shape-rendering="crispEdges" /></svg>