<svg width="320" height="320" viewBox="0 0 320 320" xmlns="http://www.w3.org/2000/svg" shape-rendering="crispEdges"><rect width="100%" height="100%" fill="none" /><rect width="50" height="10" x="150" y="40" fill="#ffffff" shape-rendering="crispEdges" /><rect width="90" height="10" x="130" y="50" fill="#ffffff" shape-rendering="crispEdges" /><rect width="110" height="10" x="120" y="60" fill="#ffffff" shape-rendering="crispEdges" /><rect width="130" height="10" x="110" y="70" fill="#ffffff" shape-rendering="crispEdges" /><rect width="150" height="10" x="100" y="80" fill="#ffffff" shape-rendering="crispEdges" /><rect width="170" height="10" x="80" y="90" fill="#ffffff" shape-rendering="crispEdges" /><rect width="200" height="10" x="60" y="100" fill="#ffffff" shape-rendering="crispEdges" /><rect width="210" height="10" x="50" y="110" fill="#ffffff" shape-rendering="crispEdges" /><rect width="210" height="10" x="50" y="120" fill="#ffffff" shape-rendering="crispEdges" /><rect width="220" height="10" x="40" y="130" fill="#ffffff" shape-rendering="crispEdges" /><rect width="230" height="10" x="40" y="140" fill="#ffffff" shape-rendering="crispEdges" /><rect width="240" height="10" x="40" y="150" fill="#ffffff" shape-rendering="crispEdges" /><rect width="240" height="10" x="40" y="160" fill="#ffffff" shape-rendering="crispEdges" /><rect width="230" height="10" x="50" y="170" fill="#ffffff" shape-rendering="crispEdges" /><rect width="230" height="10" x="50" y="180" fill="#ffffff" shape-rendering="crispEdges" /><rect width="210" height="10" x="60" y="190" fill="#ffffff" shape-rendering="crispEdges" /><rect width="180" height="10" x="80" y="200" fill="#ffffff" shape-rendering="crispEdges" /></svg>