<svg width="320" height="320" viewBox="0 0 320 320" xmlns="http://www.w3.org/2000/svg" shape-rendering="crispEdges"><rect width="100%" height="100%" fill="none" /><rect width="30" height="10" x="180" y="40" fill="#6b3f39" shape-rendering="crispEdges" /><rect width="30" height="10" x="110" y="50" fill="#6b3f39" shape-rendering="crispEdges" /><rect width="10" height="10" x="170" y="50" fill="#6b3f39" shape-rendering="crispEdges" /><rect width="30" height="10" x="180" y="50" fill="#4d271b" shape-rendering="crispEdges" /><rect width="10" height="10" x="210" y="50" fill="#6b3f39" shape-rendering="crispEdges" /><rect width="30" height="10" x="100" y="60" fill="#6b3f39" shape-rendering="crispEdges" /><rect width="10" height="10" x="130" y="60" fill="#4d271b" shape-rendering="crispEdges" /><rect width="40" height="10" x="140" y="60" fill="#6b3f39" shape-rendering="crispEdges" /><rect width="20" height="10" x="180" y="60" fill="#4d271b" shape-rendering="crispEdges" /><rect width="10" height="10" x="200" y="60" fill="#049d43" shape-rendering="crispEdges" /><rect width="20" height="10" x="210" y="60" fill="#6b3f39" shape-rendering="crispEdges" /><rect width="10" height="10" x="90" y="70" fill="#6b3f39" shape-rendering="crispEdges" /><rect width="20" height="10" x="100" y="70" fill="#4d271b" shape-rendering="crispEdges" /><rect width="10" height="10" x="120" y="70" fill="#049d43" shape-rendering="crispEdges" /><rect width="10" height="10" x="130" y="70" fill="#6b3f39" shape-rendering="crispEdges" /><rect width="40" height="10" x="140" y="70" fill="#4d271b" shape-rendering="crispEdges" /><rect width="20" height="10" x="180" y="70" fill="#6b3f39" shape-rendering="crispEdges" /><rect width="40" height="10" x="200" y="70" fill="#4d271b" shape-rendering="crispEdges" /><rect width="40" height="10" x="90" y="80" fill="#4d271b" shape-rendering="crispEdges" /><rect width="10" height="10" x="130" y="80" fill="#6b3f39" shape-rendering="crispEdges" /><rect width="40" height="10" x="140" y="80" fill="#4d271b" shape-rendering="crispEdges" /><rect width="10" height="10" x="180" y="80" fill="#6b3f39" shape-rendering="crispEdges" /><rect width="50" height="10" x="190" y="80" fill="#4d271b" shape-rendering="crispEdges" /><rect width="150" height="10" x="90" y="90" fill="#4d271b" shape-rendering="crispEdges" /><rect width="10" height="10" x="90" y="100" fill="#e11833" shape-rendering="crispEdges" /><rect width="30" height="10" x="100" y="100" fill="#4d271b" shape-rendering="crispEdges" /><rect width="20" height="10" x="130" y="100" fill="#e11833" shape-rendering="crispEdges" /><rect width="20" height="10" x="150" y="100" fill="#4d271b" shape-rendering="crispEdges" /><rect width="10" height="10" x="170" y="100" fill="#049d43" shape-rendering="crispEdges" /><rect width="20" height="10" x="180" y="100" fill="#e11833" shape-rendering="crispEdges" /><rect width="30" height="10" x="200" y="100" fill="#4d271b" shape-rendering="crispEdges" /><rect width="10" height="10" x="230" y="100" fill="#e11833" shape-rendering="crispEdges" /><rect width="160" height="10" x="80" y="110" fill="#e11833" shape-rendering="crispEdges" /><rect width="160" height="10" x="80" y="120" fill="#e11833" shape-rendering="crispEdges" /><rect width="30" height="10" x="70" y="130" fill="#efad81" shape-rendering="crispEdges" /><rect width="120" height="10" x="100" y="130" fill="#e11833" shape-rendering="crispEdges" /><rect width="20" height="10" x="220" y="130" fill="#efad81" shape-rendering="crispEdges" /><rect width="180" height="10" x="70" y="140" fill="#efad81" shape-rendering="crispEdges" /><rect width="200" height="10" x="60" y="150" fill="#efad81" shape-rendering="crispEdges" /><rect width="200" height="10" x="60" y="160" fill="#efad81" shape-rendering="crispEdges" /><rect width="10" height="10" x="60" y="170" fill="#efad81" shape-rendering="crispEdges" /><rect width="20" height="10" x="70" y="170" fill="#ffffff" shape-rendering="crispEdges" /><rect width="10" height="10" x="90" y="170" fill="#efad81" shape-rendering="crispEdges" /><rect width="10" height="10" x="100" y="170" fill="#ffffff" shape-rendering="crispEdges" /><rect width="10" height="10" x="110" y="170" fill="#efad81" shape-rendering="crispEdges" /><rect width="70" height="10" x="120" y="170" fill="#ffffff" shape-rendering="crispEdges" /><rect width="10" height="10" x="190" y="170" fill="#efad81" shape-rendering="crispEdges" /><rect width="30" height="10" x="200" y="170" fill="#ffffff" shape-rendering="crispEdges" /><rect width="10" height="10" x="230" y="170" fill="#efad81" shape-rendering="crispEdges" /><rect width="10" height="10" x="240" y="170" fill="#ffffff" shape-rendering="crispEdges" /><rect width="10" height="10" x="250" y="170" fill="#efad81" shape-rendering="crispEdges" /><rect width="10" height="10" x="60" y="180" fill="#efad81" shape-rendering="crispEdges" /><rect width="40" height="10" x="70" y="180" fill="#ffffff" shape-rendering="crispEdges" /><rect width="10" height="10" x="110" y="180" fill="#efad81" shape-rendering="crispEdges" /><rect width="70" height="10" x="120" y="180" fill="#ffffff" shape-rendering="crispEdges" /><rect width="10" height="10" x="190" y="180" fill="#efad81" shape-rendering="crispEdges" /><rect width="30" height="10" x="200" y="180" fill="#ffffff" shape-rendering="crispEdges" /><rect width="10" height="10" x="230" y="180" fill="#efad81" shape-rendering="crispEdges" /><rect width="10" height="10" x="240" y="180" fill="#ffffff" shape-rendering="crispEdges" /><rect width="10" height="10" x="250" y="180" fill="#efad81" shape-rendering="crispEdges" /><rect width="10" height="10" x="60" y="190" fill="#efad81" shape-rendering="crispEdges" /><rect width="120" height="10" x="70" y="190" fill="#ffffff" shape-rendering="crispEdges" /><rect width="10" height="10" x="190" y="190" fill="#efad81" shape-rendering="crispEdges" /><rect width="50" height="10" x="200" y="190" fill="#ffffff" shape-rendering="crispEdges" /><rect width="10" height="10" x="250" y="190" fill="#efad81" shape-rendering="crispEdges" /><rect width="10" height="10" x="60" y="200" fill="#efad81" shape-rendering="crispEdges" /><rect width="160" height="10" x="80" y="200" fill="#ffffff" shape-rendering="crispEdges" /><rect width="10" height="10" x="250" y="200" fill="#efad81" shape-rendering="crispEdges" /><rect width="10" height="10" x="60" y="210" fill="#efad81" shape-rendering="crispEdges" /><rect width="10" height="10" x="80" y="210" fill="#efad81" shape-rendering="crispEdges" /><rect width="10" height="10" x="230" y="210" fill="#efad81" shape-rendering="crispEdges" /><rect width="10" height="10" x="250" y="210" fill="#efad81" shape-rendering="crispEdges" /><rect width="10" height="10" x="60" y="220" fill="#efad81" shape-rendering="crispEdges" /><rect width="10" height="10" x="80" y="220" fill="#efad81" shape-rendering="crispEdges" /><rect width="10" height="10" x="230" y="220" fill="#efad81" shape-rendering="crispEdges" /><rect width="10" height="10" x="250" y="220" fill="#efad81" shape-rendering="crispEdges" /><rect width="10" height="10" x="60" y="230" fill="#efad81" shape-rendering="crispEdges" /><rect width="10" height="10" x="80" y="230" fill="#efad81" shape-rendering="crispEdges" /><rect width="10" height="10" x="230" y="230" fill="#efad81" shape-rendering="crispEdges" /><rect width="10" height="10" x="250" y="230" fill="#efad81" shape-rendering="crispEdges" /><rect width="10" height="10" x="60" y="240" fill="#efad81" shape-rendering="crispEdges" /><rect width="10" height="10" x="80" y="240" fill="#efad81" shape-rendering="crispEdges" /><rect width="10" height="10" x="230" y="240" fill="#efad81" shape-rendering="crispEdges" /><rect width="10" height="10" x="250" y="240" fill="#efad81" shape-rendering="crispEdges" /><rect width="10" height="10" x="60" y="250" fill="#efad81" shape-rendering="crispEdges" /><rect width="10" height="10" x="80" y="250" fill="#efad81" shape-rendering="crispEdges" /><rect width="10" height="10" x="230" y="250" fill="#efad81" shape-rendering="crispEdges" /><rect width="10" height="10" x="250" y="250" fill="#efad81" shape-rendering="crispEdges" /><rect width="10" height="10" x="80" y="260" fill="#efad81" shape-rendering="crispEdges" /><rect width="10" height="10" x="230" y="260" fill="#efad81" shape-rendering="crispEdges" /><rect width="10" height="10" x="80" y="270" fill="#efad81" shape-rendering="crispEdges" /><rect width="10" height="10" x="230" y="270" fill="#efad81" shape-rendering="crispEdges" /><rect width="10" height="10" x="80" y="280" fill="#efad81" shape-rendering="crispEdges" /><rect width="10" height="10" x="230" y="280" fill="#efad81" shape-rendering="crispEdges" /></svg>