<svg width="320" height="320" viewBox="0 0 320 320" xmlns="http://www.w3.org/2000/svg" shape-rendering="crispEdges"><rect width="100%" height="100%" fill="none" /><rect width="60" height="10" x="130" y="20" fill="#ff1ad2" shape-rendering="crispEdges" /><rect width="30" height="10" x="110" y="30" fill="#ff1ad2" shape-rendering="crispEdges" /><rect width="20" height="10" x="140" y="30" fill="#cc0595" shape-rendering="crispEdges" /><rect width="50" height="10" x="160" y="30" fill="#ff1ad2" shape-rendering="crispEdges" /><rect width="20" height="10" x="90" y="40" fill="#ff1ad2" shape-rendering="crispEdges" /><rect width="20" height="10" x="110" y="40" fill="#cc0595" shape-rendering="crispEdges" /><rect width="40" height="10" x="130" y="40" fill="#ff1ad2" shape-rendering="crispEdges" /><rect width="20" height="10" x="170" y="40" fill="#ffffff" shape-rendering="crispEdges" /><rect width="40" height="10" x="190" y="40" fill="#ff1ad2" shape-rendering="crispEdges" /><rect width="20" height="10" x="80" y="50" fill="#ff1ad2" shape-rendering="crispEdges" /><rect width="10" height="10" x="100" y="50" fill="#cc0595" shape-rendering="crispEdges" /><rect width="50" height="10" x="110" y="50" fill="#ff1ad2" shape-rendering="crispEdges" /><rect width="40" height="10" x="160" y="50" fill="#ffffff" shape-rendering="crispEdges" /><rect width="40" height="10" x="200" y="50" fill="#ff1ad2" shape-rendering="crispEdges" /><rect width="20" height="10" x="70" y="60" fill="#ff1ad2" shape-rendering="crispEdges" /><rect width="10" height="10" x="90" y="60" fill="#cc0595" shape-rendering="crispEdges" /><rect width="60" height="10" x="100" y="60" fill="#ff1ad2" shape-rendering="crispEdges" /><rect width="40" height="10" x="160" y="60" fill="#ffffff" shape-rendering="crispEdges" /><rect width="50" height="10" x="200" y="60" fill="#ff1ad2" shape-rendering="crispEdges" /><rect width="100" height="10" x="70" y="70" fill="#ff1ad2" shape-rendering="crispEdges" /><rect width="20" height="10" x="170" y="70" fill="#ffffff" shape-rendering="crispEdges" /><rect width="20" height="10" x="190" y="70" fill="#ff1ad2" shape-rendering="crispEdges" /><rect width="20" height="10" x="210" y="70" fill="#ffffff" shape-rendering="crispEdges" /><rect width="20" height="10" x="230" y="70" fill="#ff1ad2" shape-rendering="crispEdges" /><rect width="150" height="10" x="60" y="80" fill="#ff1ad2" shape-rendering="crispEdges" /><rect width="20" height="10" x="210" y="80" fill="#ffffff" shape-rendering="crispEdges" /><rect width="30" height="10" x="230" y="80" fill="#ff1ad2" shape-rendering="crispEdges" /><rect width="20" height="10" x="60" y="90" fill="#ff1ad2" shape-rendering="crispEdges" /><rect width="10" height="10" x="80" y="90" fill="#ffffff" shape-rendering="crispEdges" /><rect width="170" height="10" x="90" y="90" fill="#ff1ad2" shape-rendering="crispEdges" /><rect width="220" height="10" x="50" y="100" fill="#ff1ad2" shape-rendering="crispEdges" /><rect width="220" height="10" x="50" y="110" fill="#ff1ad2" shape-rendering="crispEdges" /><rect width="220" height="10" x="50" y="120" fill="#ff1ad2" shape-rendering="crispEdges" /><rect width="220" height="10" x="50" y="130" fill="#ff1ad2" shape-rendering="crispEdges" /><rect width="220" height="10" x="50" y="140" fill="#ff1ad2" shape-rendering="crispEdges" /><rect width="220" height="10" x="50" y="150" fill="#ff1ad2" shape-rendering="crispEdges" /><rect width="200" height="10" x="60" y="160" fill="#ff1ad2" shape-rendering="crispEdges" /><rect width="200" height="10" x="60" y="170" fill="#ff1ad2" shape-rendering="crispEdges" /><rect width="100" height="10" x="70" y="180" fill="#ff1ad2" shape-rendering="crispEdges" /><rect width="10" height="10" x="170" y="180" fill="#cc0595" shape-rendering="crispEdges" /><rect width="70" height="10" x="180" y="180" fill="#ff1ad2" shape-rendering="crispEdges" /><rect width="110" height="10" x="70" y="190" fill="#ff1ad2" shape-rendering="crispEdges" /><rect width="10" height="10" x="180" y="190" fill="#cc0595" shape-rendering="crispEdges" /><rect width="60" height="10" x="190" y="190" fill="#ff1ad2" shape-rendering="crispEdges" /><rect width="10" height="10" x="80" y="200" fill="#ff1ad2" shape-rendering="crispEdges" /><rect width="10" height="10" x="90" y="200" fill="#cc0595" shape-rendering="crispEdges" /><rect width="70" height="10" x="100" y="200" fill="#ff1ad2" shape-rendering="crispEdges" /><rect width="10" height="10" x="170" y="200" fill="#cc0595" shape-rendering="crispEdges" /><rect width="40" height="10" x="180" y="200" fill="#ff1ad2" shape-rendering="crispEdges" /><rect width="10" height="10" x="220" y="200" fill="#cc0595" shape-rendering="crispEdges" /><rect width="10" height="10" x="230" y="200" fill="#ff1ad2" shape-rendering="crispEdges" /><rect width="10" height="10" x="90" y="210" fill="#ff1ad2" shape-rendering="crispEdges" /><rect width="30" height="10" x="100" y="210" fill="#cc0595" shape-rendering="crispEdges" /><rect width="60" height="10" x="130" y="210" fill="#ff1ad2" shape-rendering="crispEdges" /><rect width="30" height="10" x="190" y="210" fill="#cc0595" shape-rendering="crispEdges" /><rect width="10" height="10" x="220" y="210" fill="#ff1ad2" shape-rendering="crispEdges" /><rect width="100" height="10" x="110" y="220" fill="#cc0595" shape-rendering="crispEdges" /><rect width="60" height="10" x="130" y="230" fill="#cc0595" shape-rendering="crispEdges" /></svg>