<svg width="320" height="320" viewBox="0 0 320 320" xmlns="http://www.w3.org/2000/svg" shape-rendering="crispEdges"><rect width="100%" height="100%" fill="none" /><rect width="10" height="10" x="140" y="50" fill="#fffdf2" shape-rendering="crispEdges" /><rect width="10" height="10" x="160" y="50" fill="#fffdf2" shape-rendering="crispEdges" /><rect width="10" height="10" x="180" y="50" fill="#fffdf2" shape-rendering="crispEdges" /><rect width="30" height="10" x="150" y="60" fill="#fffdf2" shape-rendering="crispEdges" /><rect width="30" height="10" x="150" y="70" fill="#fffdf2" shape-rendering="crispEdges" /><rect width="10" height="10" x="140" y="80" fill="#fff0be" shape-rendering="crispEdges" /><rect width="30" height="10" x="150" y="80" fill="#fffdf2" shape-rendering="crispEdges" /><rect width="10" height="10" x="180" y="80" fill="#fff0be" shape-rendering="crispEdges" /><rect width="10" height="10" x="100" y="90" fill="#fff0be" shape-rendering="crispEdges" /><rect width="30" height="10" x="110" y="90" fill="#fffdf2" shape-rendering="crispEdges" /><rect width="10" height="10" x="140" y="90" fill="#fff0be" shape-rendering="crispEdges" /><rect width="30" height="10" x="150" y="90" fill="#fffdf2" shape-rendering="crispEdges" /><rect width="10" height="10" x="180" y="90" fill="#fff0be" shape-rendering="crispEdges" /><rect width="30" height="10" x="190" y="90" fill="#fffdf2" shape-rendering="crispEdges" /><rect width="10" height="10" x="90" y="100" fill="#fffdf2" shape-rendering="crispEdges" /><rect width="10" height="10" x="100" y="100" fill="#fff0be" shape-rendering="crispEdges" /><rect width="30" height="10" x="110" y="100" fill="#fffdf2" shape-rendering="crispEdges" /><rect width="10" height="10" x="140" y="100" fill="#fff0be" shape-rendering="crispEdges" /><rect width="30" height="10" x="150" y="100" fill="#fffdf2" shape-rendering="crispEdges" /><rect width="10" height="10" x="180" y="100" fill="#fff0be" shape-rendering="crispEdges" /><rect width="30" height="10" x="190" y="100" fill="#fffdf2" shape-rendering="crispEdges" /><rect width="10" height="10" x="220" y="100" fill="#fff0be" shape-rendering="crispEdges" /><rect width="20" height="10" x="80" y="110" fill="#fffdf2" shape-rendering="crispEdges" /><rect width="10" height="10" x="100" y="110" fill="#fff0be" shape-rendering="crispEdges" /><rect width="30" height="10" x="110" y="110" fill="#fffdf2" shape-rendering="crispEdges" /><rect width="10" height="10" x="140" y="110" fill="#fff0be" shape-rendering="crispEdges" /><rect width="30" height="10" x="150" y="110" fill="#fffdf2" shape-rendering="crispEdges" /><rect width="10" height="10" x="180" y="110" fill="#fff0be" shape-rendering="crispEdges" /><rect width="30" height="10" x="190" y="110" fill="#fffdf2" shape-rendering="crispEdges" /><rect width="10" height="10" x="220" y="110" fill="#fff0be" shape-rendering="crispEdges" /><rect width="10" height="10" x="230" y="110" fill="#fffdf2" shape-rendering="crispEdges" /><rect width="30" height="10" x="70" y="120" fill="#fffdf2" shape-rendering="crispEdges" /><rect width="10" height="10" x="100" y="120" fill="#fff0be" shape-rendering="crispEdges" /><rect width="30" height="10" x="110" y="120" fill="#fffdf2" shape-rendering="crispEdges" /><rect width="10" height="10" x="140" y="120" fill="#fff0be" shape-rendering="crispEdges" /><rect width="30" height="10" x="150" y="120" fill="#fffdf2" shape-rendering="crispEdges" /><rect width="10" height="10" x="180" y="120" fill="#fff0be" shape-rendering="crispEdges" /><rect width="30" height="10" x="190" y="120" fill="#fffdf2" shape-rendering="crispEdges" /><rect width="10" height="10" x="220" y="120" fill="#fff0be" shape-rendering="crispEdges" /><rect width="20" height="10" x="230" y="120" fill="#fffdf2" shape-rendering="crispEdges" /><rect width="30" height="10" x="70" y="130" fill="#fffdf2" shape-rendering="crispEdges" /><rect width="10" height="10" x="100" y="130" fill="#fff0be" shape-rendering="crispEdges" /><rect width="30" height="10" x="110" y="130" fill="#fffdf2" shape-rendering="crispEdges" /><rect width="10" height="10" x="140" y="130" fill="#fff0be" shape-rendering="crispEdges" /><rect width="30" height="10" x="150" y="130" fill="#fffdf2" shape-rendering="crispEdges" /><rect width="10" height="10" x="180" y="130" fill="#fff0be" shape-rendering="crispEdges" /><rect width="30" height="10" x="190" y="130" fill="#fffdf2" shape-rendering="crispEdges" /><rect width="10" height="10" x="220" y="130" fill="#fff0be" shape-rendering="crispEdges" /><rect width="20" height="10" x="230" y="130" fill="#fffdf2" shape-rendering="crispEdges" /><rect width="30" height="10" x="70" y="140" fill="#fffdf2" shape-rendering="crispEdges" /><rect width="10" height="10" x="100" y="140" fill="#fff0be" shape-rendering="crispEdges" /><rect width="30" height="10" x="110" y="140" fill="#fffdf2" shape-rendering="crispEdges" /><rect width="10" height="10" x="140" y="140" fill="#fff0be" shape-rendering="crispEdges" /><rect width="30" height="10" x="150" y="140" fill="#fffdf2" shape-rendering="crispEdges" /><rect width="10" height="10" x="180" y="140" fill="#fff0be" shape-rendering="crispEdges" /><rect width="30" height="10" x="190" y="140" fill="#fffdf2" shape-rendering="crispEdges" /><rect width="10" height="10" x="220" y="140" fill="#fff0be" shape-rendering="crispEdges" /><rect width="20" height="10" x="230" y="140" fill="#fffdf2" shape-rendering="crispEdges" /><rect width="30" height="10" x="70" y="150" fill="#fffdf2" shape-rendering="crispEdges" /><rect width="10" height="10" x="100" y="150" fill="#fff0be" shape-rendering="crispEdges" /><rect width="30" height="10" x="110" y="150" fill="#fffdf2" shape-rendering="crispEdges" /><rect width="10" height="10" x="140" y="150" fill="#fff0be" shape-rendering="crispEdges" /><rect width="30" height="10" x="150" y="150" fill="#fffdf2" shape-rendering="crispEdges" /><rect width="10" height="10" x="180" y="150" fill="#fff0be" shape-rendering="crispEdges" /><rect width="30" height="10" x="190" y="150" fill="#fffdf2" shape-rendering="crispEdges" /><rect width="10" height="10" x="220" y="150" fill="#fff0be" shape-rendering="crispEdges" /><rect width="20" height="10" x="230" y="150" fill="#fffdf2" shape-rendering="crispEdges" /><rect width="30" height="10" x="70" y="160" fill="#fffdf2" shape-rendering="crispEdges" /><rect width="10" height="10" x="100" y="160" fill="#fff0be" shape-rendering="crispEdges" /><rect width="30" height="10" x="110" y="160" fill="#fffdf2" shape-rendering="crispEdges" /><rect width="10" height="10" x="140" y="160" fill="#fff0be" shape-rendering="crispEdges" /><rect width="30" height="10" x="150" y="160" fill="#fffdf2" shape-rendering="crispEdges" /><rect width="10" height="10" x="180" y="160" fill="#fff0be" shape-rendering="crispEdges" /><rect width="30" height="10" x="190" y="160" fill="#fffdf2" shape-rendering="crispEdges" /><rect width="10" height="10" x="220" y="160" fill="#fff0be" shape-rendering="crispEdges" /><rect width="20" height="10" x="230" y="160" fill="#fffdf2" shape-rendering="crispEdges" /><rect width="30" height="10" x="70" y="170" fill="#fffdf2" shape-rendering="crispEdges" /><rect width="10" height="10" x="100" y="170" fill="#fff0be" shape-rendering="crispEdges" /><rect width="10" height="10" x="110" y="170" fill="#fffdf2" shape-rendering="crispEdges" /><rect width="10" height="10" x="120" y="170" fill="#8dd122" shape-rendering="crispEdges" /><rect width="10" height="10" x="130" y="170" fill="#fffdf2" shape-rendering="crispEdges" /><rect width="10" height="10" x="140" y="170" fill="#fff0be" shape-rendering="crispEdges" /><rect width="30" height="10" x="150" y="170" fill="#fffdf2" shape-rendering="crispEdges" /><rect width="10" height="10" x="180" y="170" fill="#fff0be" shape-rendering="crispEdges" /><rect width="30" height="10" x="190" y="170" fill="#fffdf2" shape-rendering="crispEdges" /><rect width="10" height="10" x="220" y="170" fill="#fff0be" shape-rendering="crispEdges" /><rect width="20" height="10" x="230" y="170" fill="#fffdf2" shape-rendering="crispEdges" /><rect width="30" height="10" x="70" y="180" fill="#fffdf2" shape-rendering="crispEdges" /><rect width="10" height="10" x="100" y="180" fill="#fff0be" shape-rendering="crispEdges" /><rect width="20" height="10" x="110" y="180" fill="#fffdf2" shape-rendering="crispEdges" /><rect width="40" height="10" x="130" y="180" fill="#8dd122" shape-rendering="crispEdges" /><rect width="10" height="10" x="170" y="180" fill="#fffdf2" shape-rendering="crispEdges" /><rect width="10" height="10" x="180" y="180" fill="#fff0be" shape-rendering="crispEdges" /><rect width="30" height="10" x="190" y="180" fill="#fffdf2" shape-rendering="crispEdges" /><rect width="10" height="10" x="220" y="180" fill="#fff0be" shape-rendering="crispEdges" /><rect width="20" height="10" x="230" y="180" fill="#fffdf2" shape-rendering="crispEdges" /><rect width="20" height="10" x="80" y="190" fill="#fffdf2" shape-rendering="crispEdges" /><rect width="10" height="10" x="100" y="190" fill="#fff0be" shape-rendering="crispEdges" /><rect width="30" height="10" x="110" y="190" fill="#fffdf2" shape-rendering="crispEdges" /><rect width="10" height="10" x="140" y="190" fill="#fff0be" shape-rendering="crispEdges" /><rect width="30" height="10" x="150" y="190" fill="#fffdf2" shape-rendering="crispEdges" /><rect width="10" height="10" x="180" y="190" fill="#fff0be" shape-rendering="crispEdges" /><rect width="30" height="10" x="190" y="190" fill="#fffdf2" shape-rendering="crispEdges" /><rect width="10" height="10" x="220" y="190" fill="#fff0be" shape-rendering="crispEdges" /><rect width="10" height="10" x="230" y="190" fill="#fffdf2" shape-rendering="crispEdges" /><rect width="10" height="10" x="90" y="200" fill="#fffdf2" shape-rendering="crispEdges" /><rect width="10" height="10" x="100" y="200" fill="#fff0be" shape-rendering="crispEdges" /><rect width="30" height="10" x="110" y="200" fill="#fffdf2" shape-rendering="crispEdges" /><rect width="10" height="10" x="140" y="200" fill="#fff0be" shape-rendering="crispEdges" /><rect width="30" height="10" x="150" y="200" fill="#fffdf2" shape-rendering="crispEdges" /><rect width="10" height="10" x="180" y="200" fill="#fff0be" shape-rendering="crispEdges" /><rect width="30" height="10" x="190" y="200" fill="#fffdf2" shape-rendering="crispEdges" /><rect width="10" height="10" x="220" y="200" fill="#fff0be" shape-rendering="crispEdges" /></svg>