<svg width="320" height="320" viewBox="0 0 320 320" xmlns="http://www.w3.org/2000/svg" shape-rendering="crispEdges"><rect width="100%" height="100%" fill="none" /><rect width="240" height="10" x="40" y="80" fill="#ffffff" shape-rendering="crispEdges" /><rect width="240" height="10" x="40" y="90" fill="#ffffff" shape-rendering="crispEdges" /><rect width="30" height="10" x="40" y="100" fill="#ffffff" shape-rendering="crispEdges" /><rect width="10" height="10" x="70" y="100" fill="#000000" shape-rendering="crispEdges" /><rect width="10" height="10" x="80" y="100" fill="#ffffff" shape-rendering="crispEdges" /><rect width="10" height="10" x="90" y="100" fill="#000000" shape-rendering="crispEdges" /><rect width="10" height="10" x="100" y="100" fill="#ffffff" shape-rendering="crispEdges" /><rect width="10" height="10" x="110" y="100" fill="#000000" shape-rendering="crispEdges" /><rect width="10" height="10" x="120" y="100" fill="#ffffff" shape-rendering="crispEdges" /><rect width="10" height="10" x="130" y="100" fill="#000000" shape-rendering="crispEdges" /><rect width="20" height="10" x="140" y="100" fill="#ffffff" shape-rendering="crispEdges" /><rect width="10" height="10" x="160" y="100" fill="#000000" shape-rendering="crispEdges" /><rect width="10" height="10" x="170" y="100" fill="#ffffff" shape-rendering="crispEdges" /><rect width="10" height="10" x="180" y="100" fill="#000000" shape-rendering="crispEdges" /><rect width="10" height="10" x="190" y="100" fill="#ffffff" shape-rendering="crispEdges" /><rect width="10" height="10" x="200" y="100" fill="#000000" shape-rendering="crispEdges" /><rect width="10" height="10" x="210" y="100" fill="#ffffff" shape-rendering="crispEdges" /><rect width="10" height="10" x="220" y="100" fill="#000000" shape-rendering="crispEdges" /><rect width="50" height="10" x="230" y="100" fill="#ffffff" shape-rendering="crispEdges" /><rect width="30" height="10" x="40" y="110" fill="#ffffff" shape-rendering="crispEdges" /><rect width="10" height="10" x="70" y="110" fill="#62616d" shape-rendering="crispEdges" /><rect width="10" height="10" x="80" y="110" fill="#ffffff" shape-rendering="crispEdges" /><rect width="10" height="10" x="90" y="110" fill="#62616d" shape-rendering="crispEdges" /><rect width="10" height="10" x="100" y="110" fill="#ffffff" shape-rendering="crispEdges" /><rect width="10" height="10" x="110" y="110" fill="#62616d" shape-rendering="crispEdges" /><rect width="10" height="10" x="120" y="110" fill="#ffffff" shape-rendering="crispEdges" /><rect width="10" height="10" x="130" y="110" fill="#62616d" shape-rendering="crispEdges" /><rect width="20" height="10" x="140" y="110" fill="#ffffff" shape-rendering="crispEdges" /><rect width="10" height="10" x="160" y="110" fill="#62616d" shape-rendering="crispEdges" /><rect width="10" height="10" x="170" y="110" fill="#ffffff" shape-rendering="crispEdges" /><rect width="10" height="10" x="180" y="110" fill="#62616d" shape-rendering="crispEdges" /><rect width="10" height="10" x="190" y="110" fill="#ffffff" shape-rendering="crispEdges" /><rect width="10" height="10" x="200" y="110" fill="#62616d" shape-rendering="crispEdges" /><rect width="10" height="10" x="210" y="110" fill="#ffffff" shape-rendering="crispEdges" /><rect width="10" height="10" x="220" y="110" fill="#62616d" shape-rendering="crispEdges" /><rect width="50" height="10" x="230" y="110" fill="#ffffff" shape-rendering="crispEdges" /><rect width="30" height="10" x="40" y="120" fill="#ffffff" shape-rendering="crispEdges" /><rect width="10" height="10" x="70" y="120" fill="#62616d" shape-rendering="crispEdges" /><rect width="10" height="10" x="80" y="120" fill="#ffffff" shape-rendering="crispEdges" /><rect width="10" height="10" x="90" y="120" fill="#62616d" shape-rendering="crispEdges" /><rect width="10" height="10" x="100" y="120" fill="#ffffff" shape-rendering="crispEdges" /><rect width="10" height="10" x="110" y="120" fill="#62616d" shape-rendering="crispEdges" /><rect width="10" height="10" x="120" y="120" fill="#ffffff" shape-rendering="crispEdges" /><rect width="10" height="10" x="130" y="120" fill="#62616d" shape-rendering="crispEdges" /><rect width="20" height="10" x="140" y="120" fill="#ffffff" shape-rendering="crispEdges" /><rect width="10" height="10" x="160" y="120" fill="#62616d" shape-rendering="crispEdges" /><rect width="10" height="10" x="170" y="120" fill="#ffffff" shape-rendering="crispEdges" /><rect width="10" height="10" x="180" y="120" fill="#62616d" shape-rendering="crispEdges" /><rect width="10" height="10" x="190" y="120" fill="#ffffff" shape-rendering="crispEdges" /><rect width="10" height="10" x="200" y="120" fill="#62616d" shape-rendering="crispEdges" /><rect width="10" height="10" x="210" y="120" fill="#ffffff" shape-rendering="crispEdges" /><rect width="10" height="10" x="220" y="120" fill="#62616d" shape-rendering="crispEdges" /><rect width="10" height="10" x="230" y="120" fill="#ffffff" shape-rendering="crispEdges" /><rect width="10" height="10" x="240" y="120" fill="#000000" shape-rendering="crispEdges" /><rect width="30" height="10" x="250" y="120" fill="#ffffff" shape-rendering="crispEdges" /><rect width="30" height="10" x="40" y="130" fill="#ffffff" shape-rendering="crispEdges" /><rect width="10" height="10" x="70" y="130" fill="#62616d" shape-rendering="crispEdges" /><rect width="10" height="10" x="80" y="130" fill="#ffffff" shape-rendering="crispEdges" /><rect width="10" height="10" x="90" y="130" fill="#62616d" shape-rendering="crispEdges" /><rect width="10" height="10" x="100" y="130" fill="#ffffff" shape-rendering="crispEdges" /><rect width="10" height="10" x="110" y="130" fill="#62616d" shape-rendering="crispEdges" /><rect width="10" height="10" x="120" y="130" fill="#ffffff" shape-rendering="crispEdges" /><rect width="10" height="10" x="130" y="130" fill="#62616d" shape-rendering="crispEdges" /><rect width="20" height="10" x="140" y="130" fill="#ffffff" shape-rendering="crispEdges" /><rect width="10" height="10" x="160" y="130" fill="#62616d" shape-rendering="crispEdges" /><rect width="10" height="10" x="170" y="130" fill="#ffffff" shape-rendering="crispEdges" /><rect width="10" height="10" x="180" y="130" fill="#62616d" shape-rendering="crispEdges" /><rect width="10" height="10" x="190" y="130" fill="#ffffff" shape-rendering="crispEdges" /><rect width="10" height="10" x="200" y="130" fill="#62616d" shape-rendering="crispEdges" /><rect width="10" height="10" x="210" y="130" fill="#ffffff" shape-rendering="crispEdges" /><rect width="10" height="10" x="220" y="130" fill="#62616d" shape-rendering="crispEdges" /><rect width="10" height="10" x="230" y="130" fill="#ffffff" shape-rendering="crispEdges" /><rect width="10" height="10" x="240" y="130" fill="#000000" shape-rendering="crispEdges" /><rect width="30" height="10" x="250" y="130" fill="#ffffff" shape-rendering="crispEdges" /><rect width="10" height="10" x="40" y="140" fill="#ffffff" shape-rendering="crispEdges" /><rect width="10" height="10" x="50" y="140" fill="#62616d" shape-rendering="crispEdges" /><rect width="10" height="10" x="60" y="140" fill="#ffffff" shape-rendering="crispEdges" /><rect width="10" height="10" x="70" y="140" fill="#62616d" shape-rendering="crispEdges" /><rect width="10" height="10" x="80" y="140" fill="#ffffff" shape-rendering="crispEdges" /><rect width="10" height="10" x="90" y="140" fill="#62616d" shape-rendering="crispEdges" /><rect width="10" height="10" x="100" y="140" fill="#ffffff" shape-rendering="crispEdges" /><rect width="10" height="10" x="110" y="140" fill="#62616d" shape-rendering="crispEdges" /><rect width="10" height="10" x="120" y="140" fill="#ffffff" shape-rendering="crispEdges" /><rect width="10" height="10" x="130" y="140" fill="#62616d" shape-rendering="crispEdges" /><rect width="20" height="10" x="140" y="140" fill="#ffffff" shape-rendering="crispEdges" /><rect width="10" height="10" x="160" y="140" fill="#62616d" shape-rendering="crispEdges" /><rect width="10" height="10" x="170" y="140" fill="#ffffff" shape-rendering="crispEdges" /><rect width="10" height="10" x="180" y="140" fill="#62616d" shape-rendering="crispEdges" /><rect width="10" height="10" x="190" y="140" fill="#ffffff" shape-rendering="crispEdges" /><rect width="10" height="10" x="200" y="140" fill="#62616d" shape-rendering="crispEdges" /><rect width="10" height="10" x="210" y="140" fill="#ffffff" shape-rendering="crispEdges" /><rect width="10" height="10" x="220" y="140" fill="#62616d" shape-rendering="crispEdges" /><rect width="10" height="10" x="230" y="140" fill="#ffffff" shape-rendering="crispEdges" /><rect width="10" height="10" x="240" y="140" fill="#000000" shape-rendering="crispEdges" /><rect width="10" height="10" x="250" y="140" fill="#ffffff" shape-rendering="crispEdges" /><rect width="10" height="10" x="260" y="140" fill="#62616d" shape-rendering="crispEdges" /><rect width="10" height="10" x="270" y="140" fill="#ffffff" shape-rendering="crispEdges" /><rect width="30" height="10" x="40" y="150" fill="#ffffff" shape-rendering="crispEdges" /><rect width="10" height="10" x="70" y="150" fill="#62616d" shape-rendering="crispEdges" /><rect width="10" height="10" x="80" y="150" fill="#ffffff" shape-rendering="crispEdges" /><rect width="10" height="10" x="90" y="150" fill="#62616d" shape-rendering="crispEdges" /><rect width="10" height="10" x="100" y="150" fill="#ffffff" shape-rendering="crispEdges" /><rect width="10" height="10" x="110" y="150" fill="#62616d" shape-rendering="crispEdges" /><rect width="10" height="10" x="120" y="150" fill="#ffffff" shape-rendering="crispEdges" /><rect width="10" height="10" x="130" y="150" fill="#62616d" shape-rendering="crispEdges" /><rect width="20" height="10" x="140" y="150" fill="#ffffff" shape-rendering="crispEdges" /><rect width="10" height="10" x="160" y="150" fill="#62616d" shape-rendering="crispEdges" /><rect width="10" height="10" x="170" y="150" fill="#ffffff" shape-rendering="crispEdges" /><rect width="10" height="10" x="180" y="150" fill="#62616d" shape-rendering="crispEdges" /><rect width="10" height="10" x="190" y="150" fill="#ffffff" shape-rendering="crispEdges" /><rect width="10" height="10" x="200" y="150" fill="#62616d" shape-rendering="crispEdges" /><rect width="10" height="10" x="210" y="150" fill="#ffffff" shape-rendering="crispEdges" /><rect width="10" height="10" x="220" y="150" fill="#62616d" shape-rendering="crispEdges" /><rect width="10" height="10" x="230" y="150" fill="#ffffff" shape-rendering="crispEdges" /><rect width="10" height="10" x="240" y="150" fill="#000000" shape-rendering="crispEdges" /><rect width="30" height="10" x="250" y="150" fill="#ffffff" shape-rendering="crispEdges" /><rect width="30" height="10" x="40" y="160" fill="#ffffff" shape-rendering="crispEdges" /><rect width="10" height="10" x="70" y="160" fill="#62616d" shape-rendering="crispEdges" /><rect width="10" height="10" x="80" y="160" fill="#ffffff" shape-rendering="crispEdges" /><rect width="10" height="10" x="90" y="160" fill="#62616d" shape-rendering="crispEdges" /><rect width="10" height="10" x="100" y="160" fill="#ffffff" shape-rendering="crispEdges" /><rect width="10" height="10" x="110" y="160" fill="#62616d" shape-rendering="crispEdges" /><rect width="10" height="10" x="120" y="160" fill="#ffffff" shape-rendering="crispEdges" /><rect width="10" height="10" x="130" y="160" fill="#62616d" shape-rendering="crispEdges" /><rect width="20" height="10" x="140" y="160" fill="#ffffff" shape-rendering="crispEdges" /><rect width="10" height="10" x="160" y="160" fill="#62616d" shape-rendering="crispEdges" /><rect width="10" height="10" x="170" y="160" fill="#ffffff" shape-rendering="crispEdges" /><rect width="10" height="10" x="180" y="160" fill="#62616d" shape-rendering="crispEdges" /><rect width="10" height="10" x="190" y="160" fill="#ffffff" shape-rendering="crispEdges" /><rect width="10" height="10" x="200" y="160" fill="#62616d" shape-rendering="crispEdges" /><rect width="10" height="10" x="210" y="160" fill="#ffffff" shape-rendering="crispEdges" /><rect width="10" height="10" x="220" y="160" fill="#62616d" shape-rendering="crispEdges" /><rect width="10" height="10" x="230" y="160" fill="#ffffff" shape-rendering="crispEdges" /><rect width="20" height="10" x="240" y="160" fill="#c5b9a1" shape-rendering="crispEdges" /><rect width="20" height="10" x="260" y="160" fill="#ffffff" shape-rendering="crispEdges" /><rect width="30" height="10" x="40" y="170" fill="#ffffff" shape-rendering="crispEdges" /><rect width="10" height="10" x="70" y="170" fill="#62616d" shape-rendering="crispEdges" /><rect width="10" height="10" x="80" y="170" fill="#ffffff" shape-rendering="crispEdges" /><rect width="10" height="10" x="90" y="170" fill="#62616d" shape-rendering="crispEdges" /><rect width="10" height="10" x="100" y="170" fill="#ffffff" shape-rendering="crispEdges" /><rect width="10" height="10" x="110" y="170" fill="#62616d" shape-rendering="crispEdges" /><rect width="10" height="10" x="120" y="170" fill="#ffffff" shape-rendering="crispEdges" /><rect width="10" height="10" x="130" y="170" fill="#62616d" shape-rendering="crispEdges" /><rect width="20" height="10" x="140" y="170" fill="#ffffff" shape-rendering="crispEdges" /><rect width="10" height="10" x="160" y="170" fill="#62616d" shape-rendering="crispEdges" /><rect width="10" height="10" x="170" y="170" fill="#ffffff" shape-rendering="crispEdges" /><rect width="10" height="10" x="180" y="170" fill="#62616d" shape-rendering="crispEdges" /><rect width="10" height="10" x="190" y="170" fill="#ffffff" shape-rendering="crispEdges" /><rect width="10" height="10" x="200" y="170" fill="#62616d" shape-rendering="crispEdges" /><rect width="10" height="10" x="210" y="170" fill="#ffffff" shape-rendering="crispEdges" /><rect width="10" height="10" x="220" y="170" fill="#62616d" shape-rendering="crispEdges" /><rect width="50" height="10" x="230" y="170" fill="#ffffff" shape-rendering="crispEdges" /><rect width="30" height="10" x="40" y="180" fill="#ffffff" shape-rendering="crispEdges" /><rect width="10" height="10" x="70" y="180" fill="#c5b9a1" shape-rendering="crispEdges" /><rect width="10" height="10" x="80" y="180" fill="#ffffff" shape-rendering="crispEdges" /><rect width="10" height="10" x="90" y="180" fill="#c5b9a1" shape-rendering="crispEdges" /><rect width="10" height="10" x="100" y="180" fill="#ffffff" shape-rendering="crispEdges" /><rect width="10" height="10" x="110" y="180" fill="#c5b9a1" shape-rendering="crispEdges" /><rect width="10" height="10" x="120" y="180" fill="#ffffff" shape-rendering="crispEdges" /><rect width="10" height="10" x="130" y="180" fill="#c5b9a1" shape-rendering="crispEdges" /><rect width="20" height="10" x="140" y="180" fill="#ffffff" shape-rendering="crispEdges" /><rect width="10" height="10" x="160" y="180" fill="#c5b9a1" shape-rendering="crispEdges" /><rect width="10" height="10" x="170" y="180" fill="#ffffff" shape-rendering="crispEdges" /><rect width="10" height="10" x="180" y="180" fill="#c5b9a1" shape-rendering="crispEdges" /><rect width="10" height="10" x="190" y="180" fill="#ffffff" shape-rendering="crispEdges" /><rect width="10" height="10" x="200" y="180" fill="#c5b9a1" shape-rendering="crispEdges" /><rect width="10" height="10" x="210" y="180" fill="#ffffff" shape-rendering="crispEdges" /><rect width="10" height="10" x="220" y="180" fill="#c5b9a1" shape-rendering="crispEdges" /><rect width="50" height="10" x="230" y="180" fill="#ffffff" shape-rendering="crispEdges" /><rect width="240" height="10" x="40" y="190" fill="#ffffff" shape-rendering="crispEdges" /><rect width="240" height="10" x="40" y="200" fill="#ffffff" shape-rendering="crispEdges" /></svg>