<svg width="320" height="320" viewBox="0 0 320 320" xmlns="http://www.w3.org/2000/svg" shape-rendering="crispEdges"><rect width="100%" height="100%" fill="none" /><rect width="10" height="10" x="80" y="30" fill="#4d271b" shape-rendering="crispEdges" /><rect width="10" height="10" x="90" y="30" fill="#1f1d29" shape-rendering="crispEdges" /><rect width="30" height="10" x="100" y="30" fill="#7e5243" shape-rendering="crispEdges" /><rect width="10" height="10" x="130" y="30" fill="#4d271b" shape-rendering="crispEdges" /><rect width="30" height="10" x="140" y="30" fill="#7e5243" shape-rendering="crispEdges" /><rect width="10" height="10" x="80" y="40" fill="#4d271b" shape-rendering="crispEdges" /><rect width="10" height="10" x="90" y="40" fill="#1f1d29" shape-rendering="crispEdges" /><rect width="20" height="10" x="100" y="40" fill="#4d271b" shape-rendering="crispEdges" /><rect width="10" height="10" x="120" y="40" fill="#7e5243" shape-rendering="crispEdges" /><rect width="30" height="10" x="130" y="40" fill="#4d271b" shape-rendering="crispEdges" /><rect width="10" height="10" x="160" y="40" fill="#7e5243" shape-rendering="crispEdges" /><rect width="20" height="10" x="80" y="50" fill="#1f1d29" shape-rendering="crispEdges" /><rect width="90" height="10" x="100" y="50" fill="#4d271b" shape-rendering="crispEdges" /><rect width="10" height="10" x="80" y="60" fill="#4d271b" shape-rendering="crispEdges" /><rect width="10" height="10" x="90" y="60" fill="#1f1d29" shape-rendering="crispEdges" /><rect width="30" height="10" x="100" y="60" fill="#7e5243" shape-rendering="crispEdges" /><rect width="10" height="10" x="130" y="60" fill="#4d271b" shape-rendering="crispEdges" /><rect width="30" height="10" x="140" y="60" fill="#7e5243" shape-rendering="crispEdges" /><rect width="10" height="10" x="170" y="60" fill="#4d271b" shape-rendering="crispEdges" /><rect width="10" height="10" x="180" y="60" fill="#7e5243" shape-rendering="crispEdges" /><rect width="10" height="10" x="80" y="70" fill="#4d271b" shape-rendering="crispEdges" /><rect width="10" height="10" x="90" y="70" fill="#1f1d29" shape-rendering="crispEdges" /><rect width="20" height="10" x="100" y="70" fill="#4d271b" shape-rendering="crispEdges" /><rect width="10" height="10" x="120" y="70" fill="#7e5243" shape-rendering="crispEdges" /><rect width="30" height="10" x="130" y="70" fill="#4d271b" shape-rendering="crispEdges" /><rect width="10" height="10" x="160" y="70" fill="#7e5243" shape-rendering="crispEdges" /><rect width="30" height="10" x="170" y="70" fill="#4d271b" shape-rendering="crispEdges" /><rect width="10" height="10" x="200" y="70" fill="#7e5243" shape-rendering="crispEdges" /><rect width="10" height="10" x="210" y="70" fill="#4d271b" shape-rendering="crispEdges" /><rect width="20" height="10" x="80" y="80" fill="#1f1d29" shape-rendering="crispEdges" /><rect width="120" height="10" x="100" y="80" fill="#4d271b" shape-rendering="crispEdges" /><rect width="10" height="10" x="80" y="90" fill="#4d271b" shape-rendering="crispEdges" /><rect width="10" height="10" x="90" y="90" fill="#1f1d29" shape-rendering="crispEdges" /><rect width="30" height="10" x="100" y="90" fill="#7e5243" shape-rendering="crispEdges" /><rect width="10" height="10" x="130" y="90" fill="#4d271b" shape-rendering="crispEdges" /><rect width="30" height="10" x="140" y="90" fill="#7e5243" shape-rendering="crispEdges" /><rect width="10" height="10" x="170" y="90" fill="#4d271b" shape-rendering="crispEdges" /><rect width="30" height="10" x="180" y="90" fill="#7e5243" shape-rendering="crispEdges" /><rect width="10" height="10" x="210" y="90" fill="#4d271b" shape-rendering="crispEdges" /><rect width="20" height="10" x="220" y="90" fill="#7e5243" shape-rendering="crispEdges" /><rect width="30" height="10" x="70" y="100" fill="#a3baed" shape-rendering="crispEdges" /><rect width="150" height="10" x="100" y="100" fill="#caeff9" shape-rendering="crispEdges" /><rect width="180" height="10" x="70" y="110" fill="#a3baed" shape-rendering="crispEdges" /><rect width="180" height="10" x="70" y="120" fill="#a3baed" shape-rendering="crispEdges" /><rect width="180" height="10" x="70" y="130" fill="#a3baed" shape-rendering="crispEdges" /><rect width="180" height="10" x="70" y="140" fill="#a3baed" shape-rendering="crispEdges" /><rect width="180" height="10" x="70" y="150" fill="#a3baed" shape-rendering="crispEdges" /><rect width="20" height="10" x="80" y="160" fill="#b92b3c" shape-rendering="crispEdges" /><rect width="140" height="10" x="100" y="160" fill="#e9265c" shape-rendering="crispEdges" /><rect width="160" height="10" x="80" y="170" fill="#e9265c" shape-rendering="crispEdges" /><rect width="160" height="10" x="80" y="180" fill="#e9265c" shape-rendering="crispEdges" /><rect width="30" height="10" x="80" y="190" fill="#e9265c" shape-rendering="crispEdges" /><rect width="120" height="10" x="110" y="190" fill="#b92b3c" shape-rendering="crispEdges" /><rect width="10" height="10" x="230" y="190" fill="#e9265c" shape-rendering="crispEdges" /><rect width="160" height="10" x="80" y="200" fill="#e9265c" shape-rendering="crispEdges" /></svg>