<svg width="320" height="320" viewBox="0 0 320 320" xmlns="http://www.w3.org/2000/svg" shape-rendering="crispEdges"><rect width="100%" height="100%" fill="none" /><rect width="80" height="10" x="120" y="30" fill="#62616d" shape-rendering="crispEdges" /><rect width="100" height="10" x="110" y="40" fill="#62616d" shape-rendering="crispEdges" /><rect width="30" height="10" x="100" y="50" fill="#62616d" shape-rendering="crispEdges" /><rect width="30" height="10" x="190" y="50" fill="#62616d" shape-rendering="crispEdges" /><rect width="20" height="10" x="100" y="60" fill="#62616d" shape-rendering="crispEdges" /><rect width="20" height="10" x="200" y="60" fill="#62616d" shape-rendering="crispEdges" /><rect width="10" height="10" x="100" y="70" fill="#62616d" shape-rendering="crispEdges" /><rect width="10" height="10" x="110" y="70" fill="#343235" shape-rendering="crispEdges" /><rect width="10" height="10" x="200" y="70" fill="#62616d" shape-rendering="crispEdges" /><rect width="10" height="10" x="210" y="70" fill="#343235" shape-rendering="crispEdges" /><rect width="20" height="10" x="100" y="80" fill="#343235" shape-rendering="crispEdges" /><rect width="20" height="10" x="200" y="80" fill="#343235" shape-rendering="crispEdges" /><rect width="160" height="10" x="80" y="90" fill="#74580d" shape-rendering="crispEdges" /><rect width="160" height="10" x="80" y="100" fill="#d08b11" shape-rendering="crispEdges" /><rect width="160" height="10" x="80" y="110" fill="#d08b11" shape-rendering="crispEdges" /><rect width="160" height="10" x="80" y="120" fill="#d08b11" shape-rendering="crispEdges" /><rect width="160" height="10" x="80" y="130" fill="#d08b11" shape-rendering="crispEdges" /><rect width="160" height="10" x="80" y="140" fill="#d08b11" shape-rendering="crispEdges" /><rect width="160" height="10" x="80" y="150" fill="#d08b11" shape-rendering="crispEdges" /><rect width="160" height="10" x="80" y="160" fill="#d08b11" shape-rendering="crispEdges" /><rect width="10" height="10" x="80" y="170" fill="#d08b11" shape-rendering="crispEdges" /><rect width="20" height="10" x="90" y="170" fill="#ffe939" shape-rendering="crispEdges" /><rect width="100" height="10" x="110" y="170" fill="#d08b11" shape-rendering="crispEdges" /><rect width="20" height="10" x="210" y="170" fill="#ffe939" shape-rendering="crispEdges" /><rect width="10" height="10" x="230" y="170" fill="#d08b11" shape-rendering="crispEdges" /><rect width="10" height="10" x="80" y="180" fill="#d08b11" shape-rendering="crispEdges" /><rect width="20" height="10" x="90" y="180" fill="#ffe939" shape-rendering="crispEdges" /><rect width="40" height="10" x="110" y="180" fill="#d08b11" shape-rendering="crispEdges" /><rect width="20" height="10" x="150" y="180" fill="#000000" shape-rendering="crispEdges" /><rect width="40" height="10" x="170" y="180" fill="#d08b11" shape-rendering="crispEdges" /><rect width="20" height="10" x="210" y="180" fill="#ffe939" shape-rendering="crispEdges" /><rect width="10" height="10" x="230" y="180" fill="#d08b11" shape-rendering="crispEdges" /><rect width="70" height="10" x="80" y="190" fill="#d08b11" shape-rendering="crispEdges" /><rect width="20" height="10" x="150" y="190" fill="#000000" shape-rendering="crispEdges" /><rect width="70" height="10" x="170" y="190" fill="#d08b11" shape-rendering="crispEdges" /><rect width="160" height="10" x="80" y="200" fill="#d08b11" shape-rendering="crispEdges" /></svg>