<svg width="320" height="320" viewBox="0 0 320 320" xmlns="http://www.w3.org/2000/svg" shape-rendering="crispEdges"><rect width="100%" height="100%" fill="none" /><rect width="50" height="10" x="110" y="60" fill="#f82905" shape-rendering="crispEdges" /><rect width="100" height="10" x="90" y="70" fill="#f82905" shape-rendering="crispEdges" /><rect width="120" height="10" x="80" y="80" fill="#f82905" shape-rendering="crispEdges" /><rect width="30" height="10" x="70" y="90" fill="#f82905" shape-rendering="crispEdges" /><rect width="50" height="10" x="100" y="90" fill="#ffffff" shape-rendering="crispEdges" /><rect width="60" height="10" x="150" y="90" fill="#000000" shape-rendering="crispEdges" /><rect width="20" height="10" x="60" y="100" fill="#f82905" shape-rendering="crispEdges" /><rect width="60" height="10" x="80" y="100" fill="#ffffff" shape-rendering="crispEdges" /><rect width="80" height="10" x="140" y="100" fill="#000000" shape-rendering="crispEdges" /><rect width="10" height="10" x="50" y="110" fill="#f82905" shape-rendering="crispEdges" /><rect width="80" height="10" x="60" y="110" fill="#ffffff" shape-rendering="crispEdges" /><rect width="90" height="10" x="140" y="110" fill="#000000" shape-rendering="crispEdges" /><rect width="90" height="10" x="50" y="120" fill="#ffffff" shape-rendering="crispEdges" /><rect width="70" height="10" x="140" y="120" fill="#000000" shape-rendering="crispEdges" /><rect width="40" height="10" x="210" y="120" fill="#876f69" shape-rendering="crispEdges" /><rect width="100" height="10" x="50" y="130" fill="#ffffff" shape-rendering="crispEdges" /><rect width="50" height="10" x="150" y="130" fill="#000000" shape-rendering="crispEdges" /><rect width="80" height="10" x="200" y="130" fill="#876f69" shape-rendering="crispEdges" /><rect width="60" height="10" x="50" y="140" fill="#ffffff" shape-rendering="crispEdges" /><rect width="90" height="10" x="110" y="140" fill="#000000" shape-rendering="crispEdges" /><rect width="110" height="10" x="200" y="140" fill="#876f69" shape-rendering="crispEdges" /><rect width="50" height="10" x="50" y="150" fill="#ffffff" shape-rendering="crispEdges" /><rect width="70" height="10" x="100" y="150" fill="#000000" shape-rendering="crispEdges" /><rect width="40" height="10" x="50" y="160" fill="#ffffff" shape-rendering="crispEdges" /><rect width="80" height="10" x="90" y="160" fill="#000000" shape-rendering="crispEdges" /><rect width="20" height="10" x="60" y="170" fill="#ffffff" shape-rendering="crispEdges" /><rect width="100" height="10" x="80" y="170" fill="#000000" shape-rendering="crispEdges" /><rect width="20" height="10" x="70" y="180" fill="#ffffff" shape-rendering="crispEdges" /><rect width="30" height="10" x="90" y="180" fill="#000000" shape-rendering="crispEdges" /><rect width="40" height="10" x="120" y="180" fill="#ffffff" shape-rendering="crispEdges" /><rect width="50" height="10" x="160" y="180" fill="#000000" shape-rendering="crispEdges" /><rect width="20" height="10" x="80" y="190" fill="#ffffff" shape-rendering="crispEdges" /><rect width="130" height="10" x="100" y="190" fill="#000000" shape-rendering="crispEdges" /><rect width="20" height="10" x="90" y="200" fill="#ffffff" shape-rendering="crispEdges" /><rect width="120" height="10" x="110" y="200" fill="#000000" shape-rendering="crispEdges" /></svg>