<svg width="320" height="320" viewBox="0 0 320 320" xmlns="http://www.w3.org/2000/svg" shape-rendering="crispEdges"><rect width="100%" height="100%" fill="none" /><rect width="150" height="10" x="90" y="40" fill="#903707" shape-rendering="crispEdges" /><rect width="150" height="10" x="90" y="50" fill="#903707" shape-rendering="crispEdges" /><rect width="130" height="10" x="100" y="60" fill="#000000" shape-rendering="crispEdges" /><rect width="130" height="10" x="100" y="70" fill="#ffc110" shape-rendering="crispEdges" /><rect width="10" height="10" x="100" y="80" fill="#ffc110" shape-rendering="crispEdges" /><rect width="10" height="10" x="110" y="80" fill="#f9f5cb" shape-rendering="crispEdges" /><rect width="110" height="10" x="120" y="80" fill="#ffc110" shape-rendering="crispEdges" /><rect width="10" height="10" x="100" y="90" fill="#ffc110" shape-rendering="crispEdges" /><rect width="10" height="10" x="110" y="90" fill="#f9f5cb" shape-rendering="crispEdges" /><rect width="110" height="10" x="120" y="90" fill="#ffc110" shape-rendering="crispEdges" /><rect width="10" height="10" x="10" y="100" fill="#903707" shape-rendering="crispEdges" /><rect width="20" height="10" x="30" y="100" fill="#903707" shape-rendering="crispEdges" /><rect width="40" height="10" x="60" y="100" fill="#903707" shape-rendering="crispEdges" /><rect width="130" height="10" x="100" y="100" fill="#ffc110" shape-rendering="crispEdges" /><rect width="10" height="10" x="30" y="110" fill="#903707" shape-rendering="crispEdges" /><rect width="40" height="10" x="60" y="110" fill="#903707" shape-rendering="crispEdges" /><rect width="130" height="10" x="100" y="110" fill="#ffc110" shape-rendering="crispEdges" /><rect width="20" height="10" x="20" y="120" fill="#903707" shape-rendering="crispEdges" /><rect width="50" height="10" x="50" y="120" fill="#903707" shape-rendering="crispEdges" /><rect width="130" height="10" x="100" y="120" fill="#ffc110" shape-rendering="crispEdges" /><rect width="130" height="10" x="100" y="130" fill="#ffc110" shape-rendering="crispEdges" /><rect width="130" height="10" x="100" y="140" fill="#ffc110" shape-rendering="crispEdges" /><rect width="130" height="10" x="100" y="150" fill="#ffc110" shape-rendering="crispEdges" /><rect width="150" height="10" x="90" y="160" fill="#903707" shape-rendering="crispEdges" /><rect width="150" height="10" x="90" y="170" fill="#000000" shape-rendering="crispEdges" /><rect width="170" height="10" x="80" y="180" fill="#c16710" shape-rendering="crispEdges" /><rect width="170" height="10" x="80" y="190" fill="#c16710" shape-rendering="crispEdges" /><rect width="170" height="10" x="80" y="200" fill="#000000" shape-rendering="crispEdges" /></svg>