<svg width="320" height="320" viewBox="0 0 320 320" xmlns="http://www.w3.org/2000/svg" shape-rendering="crispEdges"><rect width="100%" height="100%" fill="none" /><rect width="20" height="10" x="60" y="30" fill="#e8705b" shape-rendering="crispEdges" /><rect width="40" height="10" x="80" y="30" fill="#c54e38" shape-rendering="crispEdges" /><rect width="10" height="10" x="120" y="30" fill="#cd916d" shape-rendering="crispEdges" /><rect width="20" height="10" x="130" y="30" fill="#e8705b" shape-rendering="crispEdges" /><rect width="10" height="10" x="150" y="30" fill="#c54e38" shape-rendering="crispEdges" /><rect width="10" height="10" x="160" y="30" fill="#e8705b" shape-rendering="crispEdges" /><rect width="90" height="10" x="170" y="30" fill="#c54e38" shape-rendering="crispEdges" /><rect width="60" height="10" x="60" y="40" fill="#c54e38" shape-rendering="crispEdges" /><rect width="10" height="10" x="120" y="40" fill="#cd916d" shape-rendering="crispEdges" /><rect width="130" height="10" x="130" y="40" fill="#c54e38" shape-rendering="crispEdges" /><rect width="60" height="10" x="60" y="50" fill="#c54e38" shape-rendering="crispEdges" /><rect width="10" height="10" x="120" y="50" fill="#cd916d" shape-rendering="crispEdges" /><rect width="130" height="10" x="130" y="50" fill="#c54e38" shape-rendering="crispEdges" /><rect width="60" height="10" x="60" y="60" fill="#c54e38" shape-rendering="crispEdges" /><rect width="10" height="10" x="120" y="60" fill="#cd916d" shape-rendering="crispEdges" /><rect width="130" height="10" x="130" y="60" fill="#c54e38" shape-rendering="crispEdges" /><rect width="180" height="10" x="70" y="70" fill="#cd916d" shape-rendering="crispEdges" /><rect width="20" height="10" x="60" y="80" fill="#e8705b" shape-rendering="crispEdges" /><rect width="10" height="10" x="80" y="80" fill="#c54e38" shape-rendering="crispEdges" /><rect width="10" height="10" x="90" y="80" fill="#e8705b" shape-rendering="crispEdges" /><rect width="90" height="10" x="100" y="80" fill="#c54e38" shape-rendering="crispEdges" /><rect width="10" height="10" x="190" y="80" fill="#cd916d" shape-rendering="crispEdges" /><rect width="20" height="10" x="200" y="80" fill="#e8705b" shape-rendering="crispEdges" /><rect width="40" height="10" x="220" y="80" fill="#c54e38" shape-rendering="crispEdges" /><rect width="130" height="10" x="60" y="90" fill="#c54e38" shape-rendering="crispEdges" /><rect width="10" height="10" x="190" y="90" fill="#cd916d" shape-rendering="crispEdges" /><rect width="60" height="10" x="200" y="90" fill="#c54e38" shape-rendering="crispEdges" /><rect width="130" height="10" x="60" y="100" fill="#c54e38" shape-rendering="crispEdges" /><rect width="10" height="10" x="190" y="100" fill="#cd916d" shape-rendering="crispEdges" /><rect width="60" height="10" x="200" y="100" fill="#c54e38" shape-rendering="crispEdges" /><rect width="130" height="10" x="60" y="110" fill="#c54e38" shape-rendering="crispEdges" /><rect width="10" height="10" x="190" y="110" fill="#cd916d" shape-rendering="crispEdges" /><rect width="60" height="10" x="200" y="110" fill="#c54e38" shape-rendering="crispEdges" /><rect width="180" height="10" x="70" y="120" fill="#cd916d" shape-rendering="crispEdges" /><rect width="20" height="10" x="60" y="130" fill="#e8705b" shape-rendering="crispEdges" /><rect width="40" height="10" x="80" y="130" fill="#c54e38" shape-rendering="crispEdges" /><rect width="10" height="10" x="120" y="130" fill="#cd916d" shape-rendering="crispEdges" /><rect width="10" height="10" x="130" y="130" fill="#e8705b" shape-rendering="crispEdges" /><rect width="120" height="10" x="140" y="130" fill="#c54e38" shape-rendering="crispEdges" /><rect width="60" height="10" x="60" y="140" fill="#c54e38" shape-rendering="crispEdges" /><rect width="10" height="10" x="120" y="140" fill="#cd916d" shape-rendering="crispEdges" /><rect width="130" height="10" x="130" y="140" fill="#c54e38" shape-rendering="crispEdges" /><rect width="60" height="10" x="60" y="150" fill="#c54e38" shape-rendering="crispEdges" /><rect width="10" height="10" x="120" y="150" fill="#cd916d" shape-rendering="crispEdges" /><rect width="130" height="10" x="130" y="150" fill="#c54e38" shape-rendering="crispEdges" /><rect width="60" height="10" x="60" y="160" fill="#c54e38" shape-rendering="crispEdges" /><rect width="10" height="10" x="120" y="160" fill="#cd916d" shape-rendering="crispEdges" /><rect width="130" height="10" x="130" y="160" fill="#c54e38" shape-rendering="crispEdges" /><rect width="180" height="10" x="70" y="170" fill="#cd916d" shape-rendering="crispEdges" /><rect width="20" height="10" x="60" y="180" fill="#e8705b" shape-rendering="crispEdges" /><rect width="10" height="10" x="80" y="180" fill="#c54e38" shape-rendering="crispEdges" /><rect width="10" height="10" x="90" y="180" fill="#e8705b" shape-rendering="crispEdges" /><rect width="90" height="10" x="100" y="180" fill="#c54e38" shape-rendering="crispEdges" /><rect width="10" height="10" x="190" y="180" fill="#cd916d" shape-rendering="crispEdges" /><rect width="20" height="10" x="200" y="180" fill="#e8705b" shape-rendering="crispEdges" /><rect width="40" height="10" x="220" y="180" fill="#c54e38" shape-rendering="crispEdges" /><rect width="70" height="10" x="60" y="190" fill="#c54e38" shape-rendering="crispEdges" /><rect width="30" height="10" x="130" y="190" fill="#e8705b" shape-rendering="crispEdges" /><rect width="30" height="10" x="160" y="190" fill="#c54e38" shape-rendering="crispEdges" /><rect width="10" height="10" x="190" y="190" fill="#cd916d" shape-rendering="crispEdges" /><rect width="60" height="10" x="200" y="190" fill="#c54e38" shape-rendering="crispEdges" /><rect width="130" height="10" x="60" y="200" fill="#c54e38" shape-rendering="crispEdges" /><rect width="10" height="10" x="190" y="200" fill="#cd916d" shape-rendering="crispEdges" /><rect width="60" height="10" x="200" y="200" fill="#c54e38" shape-rendering="crispEdges" /><rect width="130" height="10" x="60" y="210" fill="#c54e38" shape-rendering="crispEdges" /><rect width="10" height="10" x="190" y="210" fill="#cd916d" shape-rendering="crispEdges" /><rect width="60" height="10" x="200" y="210" fill="#c54e38" shape-rendering="crispEdges" /></svg>