<svg width="320" height="320" viewBox="0 0 320 320" xmlns="http://www.w3.org/2000/svg" shape-rendering="crispEdges"><rect width="100%" height="100%" fill="none" /><rect width="20" height="10" x="150" y="10" fill="#6e3206" shape-rendering="crispEdges" /><rect width="20" height="10" x="130" y="20" fill="#6e3206" shape-rendering="crispEdges" /><rect width="20" height="10" x="180" y="20" fill="#6e3206" shape-rendering="crispEdges" /><rect width="10" height="10" x="120" y="30" fill="#6e3206" shape-rendering="crispEdges" /><rect width="20" height="10" x="160" y="30" fill="#6e3206" shape-rendering="crispEdges" /><rect width="10" height="10" x="110" y="40" fill="#6e3206" shape-rendering="crispEdges" /><rect width="10" height="10" x="150" y="40" fill="#6e3206" shape-rendering="crispEdges" /><rect width="10" height="10" x="110" y="50" fill="#6e3206" shape-rendering="crispEdges" /><rect width="10" height="10" x="140" y="50" fill="#6e3206" shape-rendering="crispEdges" /><rect width="10" height="10" x="110" y="60" fill="#6e3206" shape-rendering="crispEdges" /><rect width="10" height="10" x="140" y="60" fill="#6e3206" shape-rendering="crispEdges" /><rect width="10" height="10" x="110" y="70" fill="#6e3206" shape-rendering="crispEdges" /><rect width="10" height="10" x="140" y="70" fill="#6e3206" shape-rendering="crispEdges" /><rect width="90" height="10" x="70" y="80" fill="#ae3208" shape-rendering="crispEdges" /><rect width="20" height="10" x="60" y="90" fill="#ae3208" shape-rendering="crispEdges" /><rect width="10" height="10" x="80" y="90" fill="#ff7216" shape-rendering="crispEdges" /><rect width="90" height="10" x="90" y="90" fill="#ae3208" shape-rendering="crispEdges" /><rect width="20" height="10" x="50" y="100" fill="#ae3208" shape-rendering="crispEdges" /><rect width="10" height="10" x="70" y="100" fill="#ff7216" shape-rendering="crispEdges" /><rect width="110" height="10" x="80" y="100" fill="#ae3208" shape-rendering="crispEdges" /><rect width="20" height="10" x="40" y="110" fill="#ae3208" shape-rendering="crispEdges" /><rect width="10" height="10" x="60" y="110" fill="#ff7216" shape-rendering="crispEdges" /><rect width="130" height="10" x="70" y="110" fill="#ae3208" shape-rendering="crispEdges" /><rect width="170" height="10" x="40" y="120" fill="#ae3208" shape-rendering="crispEdges" /><rect width="190" height="10" x="30" y="130" fill="#ae3208" shape-rendering="crispEdges" /><rect width="20" height="10" x="30" y="140" fill="#ae3208" shape-rendering="crispEdges" /><rect width="10" height="10" x="50" y="140" fill="#ff7216" shape-rendering="crispEdges" /><rect width="160" height="10" x="60" y="140" fill="#ae3208" shape-rendering="crispEdges" /><rect width="200" height="10" x="30" y="150" fill="#ae3208" shape-rendering="crispEdges" /><rect width="270" height="10" x="40" y="160" fill="#ae3208" shape-rendering="crispEdges" /><rect width="210" height="10" x="50" y="170" fill="#ae3208" shape-rendering="crispEdges" /><rect width="100" height="10" x="60" y="180" fill="#ae3208" shape-rendering="crispEdges" /><rect width="70" height="10" x="160" y="180" fill="#4d271b" shape-rendering="crispEdges" /><rect width="20" height="10" x="70" y="190" fill="#ae3208" shape-rendering="crispEdges" /><rect width="70" height="10" x="90" y="190" fill="#4d271b" shape-rendering="crispEdges" /><rect width="70" height="10" x="160" y="190" fill="#ae3208" shape-rendering="crispEdges" /><rect width="150" height="10" x="80" y="200" fill="#ae3208" shape-rendering="crispEdges" /></svg>