<svg width="320" height="320" viewBox="0 0 320 320" xmlns="http://www.w3.org/2000/svg" shape-rendering="crispEdges"><rect width="100%" height="100%" fill="none" /><rect width="10" height="10" x="170" y="20" fill="#70e890" shape-rendering="crispEdges" /><rect width="10" height="10" x="160" y="30" fill="#70e890" shape-rendering="crispEdges" /><rect width="10" height="10" x="170" y="30" fill="#4bea69" shape-rendering="crispEdges" /><rect width="10" height="10" x="180" y="30" fill="#70e890" shape-rendering="crispEdges" /><rect width="10" height="10" x="160" y="40" fill="#70e890" shape-rendering="crispEdges" /><rect width="20" height="10" x="170" y="40" fill="#4bea69" shape-rendering="crispEdges" /><rect width="40" height="10" x="190" y="40" fill="#70e890" shape-rendering="crispEdges" /><rect width="10" height="10" x="160" y="50" fill="#70e890" shape-rendering="crispEdges" /><rect width="60" height="10" x="170" y="50" fill="#4bea69" shape-rendering="crispEdges" /><rect width="10" height="10" x="230" y="50" fill="#70e890" shape-rendering="crispEdges" /><rect width="60" height="10" x="130" y="60" fill="#70e890" shape-rendering="crispEdges" /><rect width="20" height="10" x="190" y="60" fill="#4bea69" shape-rendering="crispEdges" /><rect width="10" height="10" x="210" y="60" fill="#ffffff" shape-rendering="crispEdges" /><rect width="10" height="10" x="220" y="60" fill="#4bea69" shape-rendering="crispEdges" /><rect width="10" height="10" x="230" y="60" fill="#70e890" shape-rendering="crispEdges" /><rect width="30" height="10" x="100" y="70" fill="#70e890" shape-rendering="crispEdges" /><rect width="80" height="10" x="130" y="70" fill="#4bea69" shape-rendering="crispEdges" /><rect width="10" height="10" x="210" y="70" fill="#ffffff" shape-rendering="crispEdges" /><rect width="10" height="10" x="220" y="70" fill="#4bea69" shape-rendering="crispEdges" /><rect width="10" height="10" x="230" y="70" fill="#70e890" shape-rendering="crispEdges" /><rect width="10" height="10" x="90" y="80" fill="#70e890" shape-rendering="crispEdges" /><rect width="130" height="10" x="100" y="80" fill="#4bea69" shape-rendering="crispEdges" /><rect width="10" height="10" x="230" y="80" fill="#70e890" shape-rendering="crispEdges" /><rect width="10" height="10" x="90" y="90" fill="#70e890" shape-rendering="crispEdges" /><rect width="130" height="10" x="100" y="90" fill="#4bea69" shape-rendering="crispEdges" /><rect width="10" height="10" x="230" y="90" fill="#70e890" shape-rendering="crispEdges" /><rect width="10" height="10" x="90" y="100" fill="#ffffff" shape-rendering="crispEdges" /><rect width="10" height="10" x="100" y="100" fill="#4bea69" shape-rendering="crispEdges" /><rect width="10" height="10" x="110" y="100" fill="#ffffff" shape-rendering="crispEdges" /><rect width="10" height="10" x="120" y="100" fill="#4bea69" shape-rendering="crispEdges" /><rect width="10" height="10" x="130" y="100" fill="#ffffff" shape-rendering="crispEdges" /><rect width="10" height="10" x="140" y="100" fill="#4bea69" shape-rendering="crispEdges" /><rect width="10" height="10" x="150" y="100" fill="#ffffff" shape-rendering="crispEdges" /><rect width="10" height="10" x="160" y="100" fill="#4bea69" shape-rendering="crispEdges" /><rect width="10" height="10" x="170" y="100" fill="#ffffff" shape-rendering="crispEdges" /><rect width="10" height="10" x="180" y="100" fill="#4bea69" shape-rendering="crispEdges" /><rect width="10" height="10" x="190" y="100" fill="#ffffff" shape-rendering="crispEdges" /><rect width="10" height="10" x="200" y="100" fill="#4bea69" shape-rendering="crispEdges" /><rect width="10" height="10" x="210" y="100" fill="#ffffff" shape-rendering="crispEdges" /><rect width="10" height="10" x="220" y="100" fill="#4bea69" shape-rendering="crispEdges" /><rect width="10" height="10" x="230" y="100" fill="#ffffff" shape-rendering="crispEdges" /><rect width="150" height="10" x="90" y="110" fill="#ffffff" shape-rendering="crispEdges" /><rect width="150" height="10" x="90" y="120" fill="#ffffff" shape-rendering="crispEdges" /><rect width="150" height="10" x="90" y="130" fill="#ffffff" shape-rendering="crispEdges" /><rect width="150" height="10" x="90" y="140" fill="#ffffff" shape-rendering="crispEdges" /><rect width="150" height="10" x="90" y="150" fill="#ffffff" shape-rendering="crispEdges" /><rect width="10" height="10" x="10" y="160" fill="#2b83f6" shape-rendering="crispEdges" /><rect width="20" height="10" x="30" y="160" fill="#2b83f6" shape-rendering="crispEdges" /><rect width="190" height="10" x="60" y="160" fill="#2b83f6" shape-rendering="crispEdges" /><rect width="10" height="10" x="30" y="170" fill="#2b83f6" shape-rendering="crispEdges" /><rect width="190" height="10" x="60" y="170" fill="#2b83f6" shape-rendering="crispEdges" /><rect width="20" height="10" x="20" y="180" fill="#2b83f6" shape-rendering="crispEdges" /><rect width="50" height="10" x="50" y="180" fill="#2b83f6" shape-rendering="crispEdges" /><rect width="10" height="10" x="100" y="180" fill="#000000" shape-rendering="crispEdges" /><rect width="10" height="10" x="110" y="180" fill="#ffc925" shape-rendering="crispEdges" /><rect width="10" height="10" x="120" y="180" fill="#000000" shape-rendering="crispEdges" /><rect width="10" height="10" x="130" y="180" fill="#ffc925" shape-rendering="crispEdges" /><rect width="10" height="10" x="140" y="180" fill="#000000" shape-rendering="crispEdges" /><rect width="100" height="10" x="150" y="180" fill="#2b83f6" shape-rendering="crispEdges" /><rect width="170" height="10" x="80" y="190" fill="#2b83f6" shape-rendering="crispEdges" /><rect width="170" height="10" x="80" y="200" fill="#2b83f6" shape-rendering="crispEdges" /></svg>