<svg width="320" height="320" viewBox="0 0 320 320" xmlns="http://www.w3.org/2000/svg" shape-rendering="crispEdges"><rect width="100%" height="100%" fill="none" /><rect width="120" height="10" x="100" y="30" fill="#d4b7b2" shape-rendering="crispEdges" /><rect width="20" height="10" x="70" y="40" fill="#d4b7b2" shape-rendering="crispEdges" /><rect width="10" height="10" x="90" y="40" fill="#b2958d" shape-rendering="crispEdges" /><rect width="20" height="10" x="100" y="40" fill="#d4b7b2" shape-rendering="crispEdges" /><rect width="40" height="10" x="120" y="40" fill="#7d635e" shape-rendering="crispEdges" /><rect width="50" height="10" x="160" y="40" fill="#b2958d" shape-rendering="crispEdges" /><rect width="30" height="10" x="210" y="40" fill="#d4b7b2" shape-rendering="crispEdges" /><rect width="20" height="10" x="60" y="50" fill="#d4b7b2" shape-rendering="crispEdges" /><rect width="20" height="10" x="80" y="50" fill="#b2958d" shape-rendering="crispEdges" /><rect width="110" height="10" x="100" y="50" fill="#d4b7b2" shape-rendering="crispEdges" /><rect width="10" height="10" x="210" y="50" fill="#b2958d" shape-rendering="crispEdges" /><rect width="30" height="10" x="220" y="50" fill="#d4b7b2" shape-rendering="crispEdges" /><rect width="30" height="10" x="60" y="60" fill="#d4b7b2" shape-rendering="crispEdges" /><rect width="150" height="10" x="90" y="60" fill="#b2958d" shape-rendering="crispEdges" /><rect width="30" height="10" x="240" y="60" fill="#d4b7b2" shape-rendering="crispEdges" /><rect width="220" height="10" x="60" y="70" fill="#d4b7b2" shape-rendering="crispEdges" /><rect width="110" height="10" x="70" y="80" fill="#b2958d" shape-rendering="crispEdges" /><rect width="10" height="10" x="180" y="80" fill="#d4b7b2" shape-rendering="crispEdges" /><rect width="10" height="10" x="190" y="80" fill="#b2958d" shape-rendering="crispEdges" /><rect width="70" height="10" x="200" y="80" fill="#d4b7b2" shape-rendering="crispEdges" /><rect width="170" height="10" x="90" y="90" fill="#d4b7b2" shape-rendering="crispEdges" /><rect width="40" height="10" x="110" y="100" fill="#b2958d" shape-rendering="crispEdges" /><rect width="10" height="10" x="150" y="100" fill="#d4b7b2" shape-rendering="crispEdges" /><rect width="10" height="10" x="160" y="100" fill="#b2958d" shape-rendering="crispEdges" /><rect width="10" height="10" x="170" y="100" fill="#d4b7b2" shape-rendering="crispEdges" /><rect width="10" height="10" x="180" y="100" fill="#b2958d" shape-rendering="crispEdges" /><rect width="50" height="10" x="190" y="100" fill="#d4b7b2" shape-rendering="crispEdges" /><rect width="120" height="10" x="100" y="110" fill="#d4b7b2" shape-rendering="crispEdges" /><rect width="130" height="10" x="90" y="120" fill="#d4b7b2" shape-rendering="crispEdges" /><rect width="110" height="10" x="80" y="130" fill="#d4b7b2" shape-rendering="crispEdges" /><rect width="110" height="10" x="60" y="140" fill="#d4b7b2" shape-rendering="crispEdges" /><rect width="90" height="10" x="50" y="150" fill="#d4b7b2" shape-rendering="crispEdges" /><rect width="100" height="10" x="60" y="160" fill="#d4b7b2" shape-rendering="crispEdges" /><rect width="10" height="10" x="240" y="160" fill="#d4b7b2" shape-rendering="crispEdges" /><rect width="80" height="10" x="90" y="170" fill="#d4b7b2" shape-rendering="crispEdges" /><rect width="10" height="10" x="230" y="170" fill="#d4b7b2" shape-rendering="crispEdges" /><rect width="10" height="10" x="50" y="180" fill="#d4b7b2" shape-rendering="crispEdges" /><rect width="10" height="10" x="70" y="180" fill="#d4b7b2" shape-rendering="crispEdges" /><rect width="10" height="10" x="90" y="180" fill="#b2958d" shape-rendering="crispEdges" /><rect width="40" height="10" x="100" y="180" fill="#d56333" shape-rendering="crispEdges" /><rect width="20" height="10" x="140" y="180" fill="#d4b7b2" shape-rendering="crispEdges" /><rect width="10" height="10" x="160" y="180" fill="#b2958d" shape-rendering="crispEdges" /><rect width="60" height="10" x="170" y="180" fill="#d4b7b2" shape-rendering="crispEdges" /><rect width="10" height="10" x="240" y="180" fill="#d4b7b2" shape-rendering="crispEdges" /><rect width="10" height="10" x="40" y="190" fill="#d4b7b2" shape-rendering="crispEdges" /><rect width="40" height="10" x="60" y="190" fill="#d4b7b2" shape-rendering="crispEdges" /><rect width="60" height="10" x="100" y="190" fill="#b2958d" shape-rendering="crispEdges" /><rect width="80" height="10" x="160" y="190" fill="#d4b7b2" shape-rendering="crispEdges" /><rect width="180" height="10" x="70" y="200" fill="#d4b7b2" shape-rendering="crispEdges" /><rect width="40" height="10" x="70" y="210" fill="#d4b7b2" shape-rendering="crispEdges" /><rect width="40" height="10" x="190" y="210" fill="#d4b7b2" shape-rendering="crispEdges" /></svg>