<svg width="320" height="320" viewBox="0 0 320 320" xmlns="http://www.w3.org/2000/svg" shape-rendering="crispEdges"><rect width="100%" height="100%" fill="none" /><rect width="60" height="10" x="130" y="30" fill="#000000" shape-rendering="crispEdges" /><rect width="60" height="10" x="130" y="40" fill="#000000" shape-rendering="crispEdges" /><rect width="160" height="10" x="80" y="50" fill="#000000" shape-rendering="crispEdges" /><rect width="30" height="10" x="50" y="60" fill="#f78a18" shape-rendering="crispEdges" /><rect width="70" height="10" x="80" y="60" fill="#ffc110" shape-rendering="crispEdges" /><rect width="70" height="10" x="150" y="60" fill="#f9f4e6" shape-rendering="crispEdges" /><rect width="20" height="10" x="220" y="60" fill="#ffc110" shape-rendering="crispEdges" /><rect width="10" height="10" x="60" y="70" fill="#f78a18" shape-rendering="crispEdges" /><rect width="70" height="10" x="80" y="70" fill="#ffc110" shape-rendering="crispEdges" /><rect width="70" height="10" x="150" y="70" fill="#f9f4e6" shape-rendering="crispEdges" /><rect width="20" height="10" x="220" y="70" fill="#ffc110" shape-rendering="crispEdges" /><rect width="30" height="10" x="50" y="80" fill="#f78a18" shape-rendering="crispEdges" /><rect width="70" height="10" x="80" y="80" fill="#ffc110" shape-rendering="crispEdges" /><rect width="70" height="10" x="150" y="80" fill="#f9f4e6" shape-rendering="crispEdges" /><rect width="20" height="10" x="220" y="80" fill="#ffc110" shape-rendering="crispEdges" /><rect width="30" height="10" x="50" y="90" fill="#f78a18" shape-rendering="crispEdges" /><rect width="70" height="10" x="80" y="90" fill="#ffc110" shape-rendering="crispEdges" /><rect width="70" height="10" x="150" y="90" fill="#f9f4e6" shape-rendering="crispEdges" /><rect width="20" height="10" x="220" y="90" fill="#ffc110" shape-rendering="crispEdges" /><rect width="30" height="10" x="50" y="100" fill="#f78a18" shape-rendering="crispEdges" /><rect width="70" height="10" x="80" y="100" fill="#ffc110" shape-rendering="crispEdges" /><rect width="70" height="10" x="150" y="100" fill="#f9f4e6" shape-rendering="crispEdges" /><rect width="20" height="10" x="220" y="100" fill="#ffc110" shape-rendering="crispEdges" /><rect width="30" height="10" x="50" y="110" fill="#f78a18" shape-rendering="crispEdges" /><rect width="70" height="10" x="80" y="110" fill="#ffc110" shape-rendering="crispEdges" /><rect width="70" height="10" x="150" y="110" fill="#f9f4e6" shape-rendering="crispEdges" /><rect width="20" height="10" x="220" y="110" fill="#ffc110" shape-rendering="crispEdges" /><rect width="30" height="10" x="50" y="120" fill="#f78a18" shape-rendering="crispEdges" /><rect width="70" height="10" x="80" y="120" fill="#ffc110" shape-rendering="crispEdges" /><rect width="70" height="10" x="150" y="120" fill="#f9f4e6" shape-rendering="crispEdges" /><rect width="20" height="10" x="220" y="120" fill="#ffc110" shape-rendering="crispEdges" /><rect width="30" height="10" x="50" y="130" fill="#f78a18" shape-rendering="crispEdges" /><rect width="70" height="10" x="80" y="130" fill="#ffc110" shape-rendering="crispEdges" /><rect width="70" height="10" x="150" y="130" fill="#f9f4e6" shape-rendering="crispEdges" /><rect width="20" height="10" x="220" y="130" fill="#ffc110" shape-rendering="crispEdges" /><rect width="30" height="10" x="50" y="140" fill="#f78a18" shape-rendering="crispEdges" /><rect width="70" height="10" x="80" y="140" fill="#ffc110" shape-rendering="crispEdges" /><rect width="70" height="10" x="150" y="140" fill="#f9f4e6" shape-rendering="crispEdges" /><rect width="20" height="10" x="220" y="140" fill="#ffc110" shape-rendering="crispEdges" /><rect width="30" height="10" x="50" y="150" fill="#f78a18" shape-rendering="crispEdges" /><rect width="70" height="10" x="80" y="150" fill="#ffc110" shape-rendering="crispEdges" /><rect width="70" height="10" x="150" y="150" fill="#f9f4e6" shape-rendering="crispEdges" /><rect width="20" height="10" x="220" y="150" fill="#ffc110" shape-rendering="crispEdges" /><rect width="30" height="10" x="50" y="160" fill="#f78a18" shape-rendering="crispEdges" /><rect width="70" height="10" x="80" y="160" fill="#ffc110" shape-rendering="crispEdges" /><rect width="70" height="10" x="150" y="160" fill="#f9f4e6" shape-rendering="crispEdges" /><rect width="20" height="10" x="220" y="160" fill="#ffc110" shape-rendering="crispEdges" /><rect width="30" height="10" x="50" y="170" fill="#f78a18" shape-rendering="crispEdges" /><rect width="70" height="10" x="80" y="170" fill="#ffc110" shape-rendering="crispEdges" /><rect width="70" height="10" x="150" y="170" fill="#f9f4e6" shape-rendering="crispEdges" /><rect width="20" height="10" x="220" y="170" fill="#ffc110" shape-rendering="crispEdges" /><rect width="10" height="10" x="60" y="180" fill="#f78a18" shape-rendering="crispEdges" /><rect width="20" height="10" x="80" y="180" fill="#ffc110" shape-rendering="crispEdges" /><rect width="30" height="10" x="100" y="180" fill="#9f4b27" shape-rendering="crispEdges" /><rect width="20" height="10" x="130" y="180" fill="#ffc110" shape-rendering="crispEdges" /><rect width="70" height="10" x="150" y="180" fill="#f9f4e6" shape-rendering="crispEdges" /><rect width="20" height="10" x="220" y="180" fill="#ffc110" shape-rendering="crispEdges" /><rect width="30" height="10" x="50" y="190" fill="#f78a18" shape-rendering="crispEdges" /><rect width="70" height="10" x="80" y="190" fill="#ffc110" shape-rendering="crispEdges" /><rect width="70" height="10" x="150" y="190" fill="#f9f4e6" shape-rendering="crispEdges" /><rect width="20" height="10" x="220" y="190" fill="#ffc110" shape-rendering="crispEdges" /><rect width="160" height="10" x="80" y="200" fill="#000000" shape-rendering="crispEdges" /></svg>