<svg width="320" height="320" viewBox="0 0 320 320" xmlns="http://www.w3.org/2000/svg" shape-rendering="crispEdges"><rect width="100%" height="100%" fill="none" /><rect width="40" height="10" x="140" y="40" fill="#fffdf2" shape-rendering="crispEdges" /><rect width="80" height="10" x="120" y="50" fill="#fffdf2" shape-rendering="crispEdges" /><rect width="10" height="10" x="100" y="60" fill="#f3322c" shape-rendering="crispEdges" /><rect width="110" height="10" x="110" y="60" fill="#fffdf2" shape-rendering="crispEdges" /><rect width="20" height="10" x="90" y="70" fill="#fffdf2" shape-rendering="crispEdges" /><rect width="10" height="10" x="110" y="70" fill="#f3322c" shape-rendering="crispEdges" /><rect width="100" height="10" x="120" y="70" fill="#fffdf2" shape-rendering="crispEdges" /><rect width="10" height="10" x="220" y="70" fill="#f3322c" shape-rendering="crispEdges" /><rect width="10" height="10" x="230" y="70" fill="#fffdf2" shape-rendering="crispEdges" /><rect width="30" height="10" x="80" y="80" fill="#fffdf2" shape-rendering="crispEdges" /><rect width="10" height="10" x="110" y="80" fill="#f3322c" shape-rendering="crispEdges" /><rect width="100" height="10" x="120" y="80" fill="#fffdf2" shape-rendering="crispEdges" /><rect width="10" height="10" x="220" y="80" fill="#f3322c" shape-rendering="crispEdges" /><rect width="10" height="10" x="230" y="80" fill="#fffdf2" shape-rendering="crispEdges" /><rect width="30" height="10" x="80" y="90" fill="#fffdf2" shape-rendering="crispEdges" /><rect width="10" height="10" x="110" y="90" fill="#f3322c" shape-rendering="crispEdges" /><rect width="100" height="10" x="120" y="90" fill="#fffdf2" shape-rendering="crispEdges" /><rect width="10" height="10" x="220" y="90" fill="#f3322c" shape-rendering="crispEdges" /><rect width="10" height="10" x="230" y="90" fill="#fffdf2" shape-rendering="crispEdges" /><rect width="40" height="10" x="70" y="100" fill="#fffdf2" shape-rendering="crispEdges" /><rect width="10" height="10" x="110" y="100" fill="#f3322c" shape-rendering="crispEdges" /><rect width="100" height="10" x="120" y="100" fill="#fffdf2" shape-rendering="crispEdges" /><rect width="10" height="10" x="220" y="100" fill="#f3322c" shape-rendering="crispEdges" /><rect width="20" height="10" x="230" y="100" fill="#fffdf2" shape-rendering="crispEdges" /><rect width="30" height="10" x="70" y="110" fill="#fffdf2" shape-rendering="crispEdges" /><rect width="10" height="10" x="100" y="110" fill="#f3322c" shape-rendering="crispEdges" /><rect width="120" height="10" x="110" y="110" fill="#fffdf2" shape-rendering="crispEdges" /><rect width="10" height="10" x="230" y="110" fill="#f3322c" shape-rendering="crispEdges" /><rect width="10" height="10" x="240" y="110" fill="#fffdf2" shape-rendering="crispEdges" /><rect width="40" height="10" x="60" y="120" fill="#fffdf2" shape-rendering="crispEdges" /><rect width="10" height="10" x="100" y="120" fill="#f3322c" shape-rendering="crispEdges" /><rect width="120" height="10" x="110" y="120" fill="#fffdf2" shape-rendering="crispEdges" /><rect width="10" height="10" x="230" y="120" fill="#f3322c" shape-rendering="crispEdges" /><rect width="20" height="10" x="240" y="120" fill="#fffdf2" shape-rendering="crispEdges" /><rect width="30" height="10" x="60" y="130" fill="#fffdf2" shape-rendering="crispEdges" /><rect width="10" height="10" x="90" y="130" fill="#f3322c" shape-rendering="crispEdges" /><rect width="140" height="10" x="100" y="130" fill="#fffdf2" shape-rendering="crispEdges" /><rect width="10" height="10" x="240" y="130" fill="#f3322c" shape-rendering="crispEdges" /><rect width="10" height="10" x="250" y="130" fill="#fffdf2" shape-rendering="crispEdges" /><rect width="30" height="10" x="60" y="140" fill="#fffdf2" shape-rendering="crispEdges" /><rect width="10" height="10" x="90" y="140" fill="#f3322c" shape-rendering="crispEdges" /><rect width="140" height="10" x="100" y="140" fill="#fffdf2" shape-rendering="crispEdges" /><rect width="10" height="10" x="240" y="140" fill="#f3322c" shape-rendering="crispEdges" /><rect width="10" height="10" x="250" y="140" fill="#fffdf2" shape-rendering="crispEdges" /><rect width="30" height="10" x="60" y="150" fill="#fffdf2" shape-rendering="crispEdges" /><rect width="10" height="10" x="90" y="150" fill="#f3322c" shape-rendering="crispEdges" /><rect width="140" height="10" x="100" y="150" fill="#fffdf2" shape-rendering="crispEdges" /><rect width="10" height="10" x="240" y="150" fill="#f3322c" shape-rendering="crispEdges" /><rect width="10" height="10" x="250" y="150" fill="#fffdf2" shape-rendering="crispEdges" /><rect width="30" height="10" x="70" y="160" fill="#fffdf2" shape-rendering="crispEdges" /><rect width="10" height="10" x="100" y="160" fill="#f3322c" shape-rendering="crispEdges" /><rect width="120" height="10" x="110" y="160" fill="#fffdf2" shape-rendering="crispEdges" /><rect width="10" height="10" x="230" y="160" fill="#f3322c" shape-rendering="crispEdges" /><rect width="10" height="10" x="240" y="160" fill="#fffdf2" shape-rendering="crispEdges" /><rect width="30" height="10" x="70" y="170" fill="#fffdf2" shape-rendering="crispEdges" /><rect width="10" height="10" x="100" y="170" fill="#f3322c" shape-rendering="crispEdges" /><rect width="120" height="10" x="110" y="170" fill="#fffdf2" shape-rendering="crispEdges" /><rect width="10" height="10" x="230" y="170" fill="#f3322c" shape-rendering="crispEdges" /><rect width="10" height="10" x="240" y="170" fill="#fffdf2" shape-rendering="crispEdges" /><rect width="30" height="10" x="80" y="180" fill="#fffdf2" shape-rendering="crispEdges" /><rect width="10" height="10" x="110" y="180" fill="#f3322c" shape-rendering="crispEdges" /><rect width="100" height="10" x="120" y="180" fill="#fffdf2" shape-rendering="crispEdges" /><rect width="10" height="10" x="220" y="180" fill="#f3322c" shape-rendering="crispEdges" /><rect width="10" height="10" x="230" y="180" fill="#fffdf2" shape-rendering="crispEdges" /><rect width="40" height="10" x="80" y="190" fill="#fffdf2" shape-rendering="crispEdges" /><rect width="20" height="10" x="120" y="190" fill="#f3322c" shape-rendering="crispEdges" /><rect width="60" height="10" x="140" y="190" fill="#fffdf2" shape-rendering="crispEdges" /><rect width="20" height="10" x="200" y="190" fill="#f3322c" shape-rendering="crispEdges" /><rect width="20" height="10" x="220" y="190" fill="#fffdf2" shape-rendering="crispEdges" /><rect width="50" height="10" x="90" y="200" fill="#fffdf2" shape-rendering="crispEdges" /><rect width="60" height="10" x="140" y="200" fill="#f3322c" shape-rendering="crispEdges" /><rect width="30" height="10" x="200" y="200" fill="#fffdf2" shape-rendering="crispEdges" /><rect width="120" height="10" x="100" y="210" fill="#fffdf2" shape-rendering="crispEdges" /><rect width="80" height="10" x="120" y="220" fill="#fffdf2" shape-rendering="crispEdges" /><rect width="40" height="10" x="140" y="230" fill="#fffdf2" shape-rendering="crispEdges" /></svg>