<svg width="320" height="320" viewBox="0 0 320 320" xmlns="http://www.w3.org/2000/svg" shape-rendering="crispEdges"><rect width="100%" height="100%" fill="none" /><rect width="20" height="10" x="150" y="40" fill="#4bea69" shape-rendering="crispEdges" /><rect width="10" height="10" x="120" y="50" fill="#4bea69" shape-rendering="crispEdges" /><rect width="20" height="10" x="160" y="50" fill="#4bea69" shape-rendering="crispEdges" /><rect width="10" height="10" x="240" y="50" fill="#ffc110" shape-rendering="crispEdges" /><rect width="20" height="10" x="130" y="60" fill="#4bea69" shape-rendering="crispEdges" /><rect width="20" height="10" x="160" y="60" fill="#4bea69" shape-rendering="crispEdges" /><rect width="20" height="10" x="220" y="60" fill="#ffc110" shape-rendering="crispEdges" /><rect width="30" height="10" x="90" y="70" fill="#fdf8ff" shape-rendering="crispEdges" /><rect width="50" height="10" x="130" y="70" fill="#4bea69" shape-rendering="crispEdges" /><rect width="30" height="10" x="200" y="70" fill="#ffc110" shape-rendering="crispEdges" /><rect width="30" height="10" x="60" y="80" fill="#4bea69" shape-rendering="crispEdges" /><rect width="30" height="10" x="90" y="80" fill="#fdf8ff" shape-rendering="crispEdges" /><rect width="70" height="10" x="120" y="80" fill="#4bea69" shape-rendering="crispEdges" /><rect width="30" height="10" x="190" y="80" fill="#ffc110" shape-rendering="crispEdges" /><rect width="10" height="10" x="220" y="80" fill="#fdf8ff" shape-rendering="crispEdges" /><rect width="10" height="10" x="40" y="90" fill="#4bea69" shape-rendering="crispEdges" /><rect width="30" height="10" x="60" y="90" fill="#4bea69" shape-rendering="crispEdges" /><rect width="70" height="10" x="90" y="90" fill="#fdf8ff" shape-rendering="crispEdges" /><rect width="10" height="10" x="160" y="90" fill="#4bea69" shape-rendering="crispEdges" /><rect width="40" height="10" x="170" y="90" fill="#ffc110" shape-rendering="crispEdges" /><rect width="20" height="10" x="210" y="90" fill="#fdf8ff" shape-rendering="crispEdges" /><rect width="30" height="10" x="50" y="100" fill="#4bea69" shape-rendering="crispEdges" /><rect width="10" height="10" x="80" y="100" fill="#ff638d" shape-rendering="crispEdges" /><rect width="70" height="10" x="90" y="100" fill="#fdf8ff" shape-rendering="crispEdges" /><rect width="40" height="10" x="160" y="100" fill="#ffc110" shape-rendering="crispEdges" /><rect width="30" height="10" x="200" y="100" fill="#fdf8ff" shape-rendering="crispEdges" /><rect width="10" height="10" x="60" y="110" fill="#4bea69" shape-rendering="crispEdges" /><rect width="20" height="10" x="70" y="110" fill="#ff638d" shape-rendering="crispEdges" /><rect width="70" height="10" x="90" y="110" fill="#fdf8ff" shape-rendering="crispEdges" /><rect width="30" height="10" x="160" y="110" fill="#ffc110" shape-rendering="crispEdges" /><rect width="40" height="10" x="190" y="110" fill="#fdf8ff" shape-rendering="crispEdges" /><rect width="30" height="10" x="60" y="120" fill="#ff638d" shape-rendering="crispEdges" /><rect width="70" height="10" x="90" y="120" fill="#fdf8ff" shape-rendering="crispEdges" /><rect width="20" height="10" x="160" y="120" fill="#ffc110" shape-rendering="crispEdges" /><rect width="50" height="10" x="180" y="120" fill="#fdf8ff" shape-rendering="crispEdges" /><rect width="40" height="10" x="50" y="130" fill="#ff638d" shape-rendering="crispEdges" /><rect width="70" height="10" x="90" y="130" fill="#fdf8ff" shape-rendering="crispEdges" /><rect width="10" height="10" x="160" y="130" fill="#ffc110" shape-rendering="crispEdges" /><rect width="60" height="10" x="170" y="130" fill="#fdf8ff" shape-rendering="crispEdges" /><rect width="30" height="10" x="60" y="140" fill="#ff638d" shape-rendering="crispEdges" /><rect width="140" height="10" x="90" y="140" fill="#fdf8ff" shape-rendering="crispEdges" /><rect width="30" height="10" x="60" y="150" fill="#ff638d" shape-rendering="crispEdges" /><rect width="140" height="10" x="90" y="150" fill="#fdf8ff" shape-rendering="crispEdges" /><rect width="30" height="10" x="60" y="160" fill="#ff638d" shape-rendering="crispEdges" /><rect width="180" height="10" x="90" y="160" fill="#feb9d5" shape-rendering="crispEdges" /><rect width="20" height="10" x="50" y="170" fill="#ff638d" shape-rendering="crispEdges" /><rect width="20" height="10" x="70" y="170" fill="#667af9" shape-rendering="crispEdges" /><rect width="140" height="10" x="90" y="170" fill="#feb9d5" shape-rendering="crispEdges" /><rect width="10" height="10" x="230" y="170" fill="#ff638d" shape-rendering="crispEdges" /><rect width="10" height="10" x="240" y="170" fill="#feb9d5" shape-rendering="crispEdges" /><rect width="10" height="10" x="250" y="170" fill="#ff638d" shape-rendering="crispEdges" /><rect width="10" height="10" x="260" y="170" fill="#feb9d5" shape-rendering="crispEdges" /><rect width="40" height="10" x="50" y="180" fill="#667af9" shape-rendering="crispEdges" /><rect width="30" height="10" x="90" y="180" fill="#feb9d5" shape-rendering="crispEdges" /><rect width="10" height="10" x="120" y="180" fill="#ff638d" shape-rendering="crispEdges" /><rect width="10" height="10" x="130" y="180" fill="#fdf8ff" shape-rendering="crispEdges" /><rect width="10" height="10" x="140" y="180" fill="#000000" shape-rendering="crispEdges" /><rect width="10" height="10" x="150" y="180" fill="#fdf8ff" shape-rendering="crispEdges" /><rect width="10" height="10" x="160" y="180" fill="#000000" shape-rendering="crispEdges" /><rect width="10" height="10" x="170" y="180" fill="#fdf8ff" shape-rendering="crispEdges" /><rect width="10" height="10" x="180" y="180" fill="#000000" shape-rendering="crispEdges" /><rect width="10" height="10" x="190" y="180" fill="#fdf8ff" shape-rendering="crispEdges" /><rect width="10" height="10" x="200" y="180" fill="#ff638d" shape-rendering="crispEdges" /><rect width="60" height="10" x="210" y="180" fill="#feb9d5" shape-rendering="crispEdges" /><rect width="30" height="10" x="60" y="190" fill="#667af9" shape-rendering="crispEdges" /><rect width="180" height="10" x="90" y="190" fill="#feb9d5" shape-rendering="crispEdges" /><rect width="30" height="10" x="60" y="200" fill="#667af9" shape-rendering="crispEdges" /><rect width="180" height="10" x="90" y="200" fill="#feb9d5" shape-rendering="crispEdges" /><rect width="20" height="10" x="70" y="210" fill="#667af9" shape-rendering="crispEdges" /><rect width="10" height="10" x="80" y="220" fill="#667af9" shape-rendering="crispEdges" /></svg>