<svg width="320" height="320" viewBox="0 0 320 320" xmlns="http://www.w3.org/2000/svg" shape-rendering="crispEdges"><rect width="100%" height="100%" fill="none" /><rect width="20" height="10" x="150" y="30" fill="#fb4694" shape-rendering="crispEdges" /><rect width="40" height="10" x="140" y="40" fill="#fb4694" shape-rendering="crispEdges" /><rect width="20" height="10" x="90" y="50" fill="#fee3f3" shape-rendering="crispEdges" /><rect width="10" height="10" x="130" y="50" fill="#cc0595" shape-rendering="crispEdges" /><rect width="40" height="10" x="140" y="50" fill="#fb4694" shape-rendering="crispEdges" /><rect width="10" height="10" x="180" y="50" fill="#cc0595" shape-rendering="crispEdges" /><rect width="20" height="10" x="210" y="50" fill="#fee3f3" shape-rendering="crispEdges" /><rect width="50" height="10" x="80" y="60" fill="#fee3f3" shape-rendering="crispEdges" /><rect width="10" height="10" x="130" y="60" fill="#cc0595" shape-rendering="crispEdges" /><rect width="40" height="10" x="140" y="60" fill="#fb4694" shape-rendering="crispEdges" /><rect width="10" height="10" x="180" y="60" fill="#cc0595" shape-rendering="crispEdges" /><rect width="50" height="10" x="190" y="60" fill="#fee3f3" shape-rendering="crispEdges" /><rect width="70" height="10" x="70" y="70" fill="#fee3f3" shape-rendering="crispEdges" /><rect width="10" height="10" x="140" y="70" fill="#cc0595" shape-rendering="crispEdges" /><rect width="20" height="10" x="150" y="70" fill="#fb4694" shape-rendering="crispEdges" /><rect width="10" height="10" x="170" y="70" fill="#cc0595" shape-rendering="crispEdges" /><rect width="70" height="10" x="180" y="70" fill="#fee3f3" shape-rendering="crispEdges" /><rect width="70" height="10" x="70" y="80" fill="#fee3f3" shape-rendering="crispEdges" /><rect width="40" height="10" x="140" y="80" fill="#f98f30" shape-rendering="crispEdges" /><rect width="70" height="10" x="180" y="80" fill="#fee3f3" shape-rendering="crispEdges" /><rect width="40" height="10" x="80" y="90" fill="#fee3f3" shape-rendering="crispEdges" /><rect width="20" height="10" x="120" y="90" fill="#f98f30" shape-rendering="crispEdges" /><rect width="40" height="10" x="140" y="90" fill="#ffe939" shape-rendering="crispEdges" /><rect width="20" height="10" x="180" y="90" fill="#f98f30" shape-rendering="crispEdges" /><rect width="40" height="10" x="200" y="90" fill="#fee3f3" shape-rendering="crispEdges" /><rect width="30" height="10" x="80" y="100" fill="#fee3f3" shape-rendering="crispEdges" /><rect width="10" height="10" x="110" y="100" fill="#f98f30" shape-rendering="crispEdges" /><rect width="80" height="10" x="120" y="100" fill="#ffe939" shape-rendering="crispEdges" /><rect width="10" height="10" x="200" y="100" fill="#f98f30" shape-rendering="crispEdges" /><rect width="30" height="10" x="210" y="100" fill="#fee3f3" shape-rendering="crispEdges" /><rect width="20" height="10" x="70" y="110" fill="#cc0595" shape-rendering="crispEdges" /><rect width="20" height="10" x="90" y="110" fill="#fee3f3" shape-rendering="crispEdges" /><rect width="10" height="10" x="110" y="110" fill="#f98f30" shape-rendering="crispEdges" /><rect width="80" height="10" x="120" y="110" fill="#ffe939" shape-rendering="crispEdges" /><rect width="10" height="10" x="200" y="110" fill="#f98f30" shape-rendering="crispEdges" /><rect width="20" height="10" x="210" y="110" fill="#fee3f3" shape-rendering="crispEdges" /><rect width="20" height="10" x="230" y="110" fill="#cc0595" shape-rendering="crispEdges" /><rect width="30" height="10" x="60" y="120" fill="#fb4694" shape-rendering="crispEdges" /><rect width="10" height="10" x="90" y="120" fill="#cc0595" shape-rendering="crispEdges" /><rect width="10" height="10" x="100" y="120" fill="#f98f30" shape-rendering="crispEdges" /><rect width="100" height="10" x="110" y="120" fill="#ffe939" shape-rendering="crispEdges" /><rect width="10" height="10" x="210" y="120" fill="#f98f30" shape-rendering="crispEdges" /><rect width="10" height="10" x="220" y="120" fill="#cc0595" shape-rendering="crispEdges" /><rect width="30" height="10" x="230" y="120" fill="#fb4694" shape-rendering="crispEdges" /><rect width="50" height="10" x="50" y="130" fill="#fb4694" shape-rendering="crispEdges" /><rect width="10" height="10" x="100" y="130" fill="#f98f30" shape-rendering="crispEdges" /><rect width="100" height="10" x="110" y="130" fill="#ffe939" shape-rendering="crispEdges" /><rect width="10" height="10" x="210" y="130" fill="#f98f30" shape-rendering="crispEdges" /><rect width="50" height="10" x="220" y="130" fill="#fb4694" shape-rendering="crispEdges" /><rect width="50" height="10" x="50" y="140" fill="#fb4694" shape-rendering="crispEdges" /><rect width="10" height="10" x="100" y="140" fill="#f98f30" shape-rendering="crispEdges" /><rect width="100" height="10" x="110" y="140" fill="#ffe939" shape-rendering="crispEdges" /><rect width="10" height="10" x="210" y="140" fill="#f98f30" shape-rendering="crispEdges" /><rect width="50" height="10" x="220" y="140" fill="#fb4694" shape-rendering="crispEdges" /><rect width="30" height="10" x="60" y="150" fill="#fb4694" shape-rendering="crispEdges" /><rect width="10" height="10" x="90" y="150" fill="#cc0595" shape-rendering="crispEdges" /><rect width="10" height="10" x="100" y="150" fill="#f98f30" shape-rendering="crispEdges" /><rect width="100" height="10" x="110" y="150" fill="#ffe939" shape-rendering="crispEdges" /><rect width="10" height="10" x="210" y="150" fill="#f98f30" shape-rendering="crispEdges" /><rect width="10" height="10" x="220" y="150" fill="#cc0595" shape-rendering="crispEdges" /><rect width="30" height="10" x="230" y="150" fill="#fb4694" shape-rendering="crispEdges" /><rect width="20" height="10" x="70" y="160" fill="#cc0595" shape-rendering="crispEdges" /><rect width="20" height="10" x="90" y="160" fill="#fee3f3" shape-rendering="crispEdges" /><rect width="10" height="10" x="110" y="160" fill="#f98f30" shape-rendering="crispEdges" /><rect width="80" height="10" x="120" y="160" fill="#ffe939" shape-rendering="crispEdges" /><rect width="10" height="10" x="200" y="160" fill="#f98f30" shape-rendering="crispEdges" /><rect width="20" height="10" x="210" y="160" fill="#fee3f3" shape-rendering="crispEdges" /><rect width="20" height="10" x="230" y="160" fill="#cc0595" shape-rendering="crispEdges" /><rect width="30" height="10" x="80" y="170" fill="#fee3f3" shape-rendering="crispEdges" /><rect width="10" height="10" x="110" y="170" fill="#f98f30" shape-rendering="crispEdges" /><rect width="80" height="10" x="120" y="170" fill="#ffe939" shape-rendering="crispEdges" /><rect width="10" height="10" x="200" y="170" fill="#f98f30" shape-rendering="crispEdges" /><rect width="30" height="10" x="210" y="170" fill="#fee3f3" shape-rendering="crispEdges" /><rect width="40" height="10" x="80" y="180" fill="#fee3f3" shape-rendering="crispEdges" /><rect width="20" height="10" x="120" y="180" fill="#f98f30" shape-rendering="crispEdges" /><rect width="10" height="10" x="140" y="180" fill="#ffe939" shape-rendering="crispEdges" /><rect width="30" height="10" x="150" y="180" fill="#4d271b" shape-rendering="crispEdges" /><rect width="20" height="10" x="180" y="180" fill="#f98f30" shape-rendering="crispEdges" /><rect width="40" height="10" x="200" y="180" fill="#fee3f3" shape-rendering="crispEdges" /><rect width="70" height="10" x="70" y="190" fill="#fee3f3" shape-rendering="crispEdges" /><rect width="40" height="10" x="140" y="190" fill="#f98f30" shape-rendering="crispEdges" /><rect width="70" height="10" x="180" y="190" fill="#fee3f3" shape-rendering="crispEdges" /><rect width="70" height="10" x="70" y="200" fill="#fee3f3" shape-rendering="crispEdges" /><rect width="10" height="10" x="140" y="200" fill="#cc0595" shape-rendering="crispEdges" /><rect width="20" height="10" x="150" y="200" fill="#fb4694" shape-rendering="crispEdges" /><rect width="10" height="10" x="170" y="200" fill="#cc0595" shape-rendering="crispEdges" /><rect width="70" height="10" x="180" y="200" fill="#fee3f3" shape-rendering="crispEdges" /><rect width="50" height="10" x="80" y="210" fill="#fee3f3" shape-rendering="crispEdges" /><rect width="10" height="10" x="130" y="210" fill="#cc0595" shape-rendering="crispEdges" /><rect width="40" height="10" x="140" y="210" fill="#fb4694" shape-rendering="crispEdges" /><rect width="10" height="10" x="180" y="210" fill="#cc0595" shape-rendering="crispEdges" /><rect width="50" height="10" x="190" y="210" fill="#fee3f3" shape-rendering="crispEdges" /><rect width="20" height="10" x="90" y="220" fill="#fee3f3" shape-rendering="crispEdges" /><rect width="10" height="10" x="130" y="220" fill="#cc0595" shape-rendering="crispEdges" /><rect width="40" height="10" x="140" y="220" fill="#fb4694" shape-rendering="crispEdges" /><rect width="10" height="10" x="180" y="220" fill="#cc0595" shape-rendering="crispEdges" /><rect width="20" height="10" x="210" y="220" fill="#fee3f3" shape-rendering="crispEdges" /><rect width="40" height="10" x="140" y="230" fill="#fb4694" shape-rendering="crispEdges" /><rect width="20" height="10" x="150" y="240" fill="#fb4694" shape-rendering="crispEdges" /></svg>