<svg width="320" height="320" viewBox="0 0 320 320" xmlns="http://www.w3.org/2000/svg" shape-rendering="crispEdges"><rect width="100%" height="100%" fill="none" /><rect width="10" height="10" x="170" y="10" fill="#ffffff" shape-rendering="crispEdges" /><rect width="20" height="10" x="160" y="20" fill="#ffffff" shape-rendering="crispEdges" /><rect width="10" height="10" x="190" y="20" fill="#ffffff" shape-rendering="crispEdges" /><rect width="30" height="10" x="150" y="30" fill="#ffffff" shape-rendering="crispEdges" /><rect width="10" height="10" x="190" y="30" fill="#ffffff" shape-rendering="crispEdges" /><rect width="40" height="10" x="140" y="40" fill="#ffffff" shape-rendering="crispEdges" /><rect width="20" height="10" x="190" y="40" fill="#ffffff" shape-rendering="crispEdges" /><rect width="20" height="10" x="130" y="50" fill="#ffffff" shape-rendering="crispEdges" /><rect width="20" height="10" x="150" y="50" fill="#9eb5e1" shape-rendering="crispEdges" /><rect width="10" height="10" x="170" y="50" fill="#ffffff" shape-rendering="crispEdges" /><rect width="20" height="10" x="190" y="50" fill="#ffffff" shape-rendering="crispEdges" /><rect width="30" height="10" x="120" y="60" fill="#ffffff" shape-rendering="crispEdges" /><rect width="20" height="10" x="150" y="60" fill="#9eb5e1" shape-rendering="crispEdges" /><rect width="10" height="10" x="170" y="60" fill="#ffffff" shape-rendering="crispEdges" /><rect width="30" height="10" x="190" y="60" fill="#ffffff" shape-rendering="crispEdges" /><rect width="70" height="10" x="110" y="70" fill="#ffffff" shape-rendering="crispEdges" /><rect width="30" height="10" x="190" y="70" fill="#ffffff" shape-rendering="crispEdges" /><rect width="80" height="10" x="100" y="80" fill="#ffffff" shape-rendering="crispEdges" /><rect width="40" height="10" x="190" y="80" fill="#ffffff" shape-rendering="crispEdges" /><rect width="90" height="10" x="90" y="90" fill="#ffffff" shape-rendering="crispEdges" /><rect width="40" height="10" x="190" y="90" fill="#ffffff" shape-rendering="crispEdges" /><rect width="100" height="10" x="80" y="100" fill="#ffffff" shape-rendering="crispEdges" /><rect width="50" height="10" x="190" y="100" fill="#ffffff" shape-rendering="crispEdges" /><rect width="110" height="10" x="70" y="110" fill="#ffffff" shape-rendering="crispEdges" /><rect width="50" height="10" x="190" y="110" fill="#ffffff" shape-rendering="crispEdges" /><rect width="120" height="10" x="60" y="120" fill="#ffffff" shape-rendering="crispEdges" /><rect width="60" height="10" x="190" y="120" fill="#ffffff" shape-rendering="crispEdges" /><rect width="130" height="10" x="50" y="130" fill="#ffffff" shape-rendering="crispEdges" /><rect width="60" height="10" x="190" y="130" fill="#ffffff" shape-rendering="crispEdges" /><rect width="140" height="10" x="40" y="140" fill="#ffffff" shape-rendering="crispEdges" /><rect width="70" height="10" x="190" y="140" fill="#ffffff" shape-rendering="crispEdges" /><rect width="240" height="10" x="40" y="160" fill="#cd916d" shape-rendering="crispEdges" /><rect width="10" height="10" x="50" y="170" fill="#cd916d" shape-rendering="crispEdges" /><rect width="200" height="10" x="60" y="170" fill="#a86f60" shape-rendering="crispEdges" /><rect width="10" height="10" x="260" y="170" fill="#cd916d" shape-rendering="crispEdges" /><rect width="10" height="10" x="60" y="180" fill="#cd916d" shape-rendering="crispEdges" /><rect width="10" height="10" x="70" y="180" fill="#a86f60" shape-rendering="crispEdges" /><rect width="160" height="10" x="80" y="180" fill="#cd916d" shape-rendering="crispEdges" /><rect width="10" height="10" x="240" y="180" fill="#a86f60" shape-rendering="crispEdges" /><rect width="10" height="10" x="250" y="180" fill="#cd916d" shape-rendering="crispEdges" /><rect width="10" height="10" x="70" y="190" fill="#cd916d" shape-rendering="crispEdges" /><rect width="160" height="10" x="80" y="190" fill="#a86f60" shape-rendering="crispEdges" /><rect width="10" height="10" x="240" y="190" fill="#cd916d" shape-rendering="crispEdges" /><rect width="160" height="10" x="80" y="200" fill="#cd916d" shape-rendering="crispEdges" /></svg>