<svg width="320" height="320" viewBox="0 0 320 320" xmlns="http://www.w3.org/2000/svg" shape-rendering="crispEdges"><rect width="100%" height="100%" fill="none" /><rect width="20" height="10" x="110" y="30" fill="#ffc110" shape-rendering="crispEdges" /><rect width="10" height="10" x="130" y="30" fill="#db8323" shape-rendering="crispEdges" /><rect width="20" height="10" x="140" y="30" fill="#ffc110" shape-rendering="crispEdges" /><rect width="20" height="10" x="160" y="30" fill="#fff671" shape-rendering="crispEdges" /><rect width="50" height="10" x="110" y="40" fill="#ffc110" shape-rendering="crispEdges" /><rect width="20" height="10" x="160" y="40" fill="#fff671" shape-rendering="crispEdges" /><rect width="50" height="10" x="110" y="50" fill="#ffc110" shape-rendering="crispEdges" /><rect width="30" height="10" x="160" y="50" fill="#fff671" shape-rendering="crispEdges" /><rect width="20" height="10" x="100" y="60" fill="#ffc110" shape-rendering="crispEdges" /><rect width="10" height="10" x="120" y="60" fill="#fff671" shape-rendering="crispEdges" /><rect width="20" height="10" x="130" y="60" fill="#ffc110" shape-rendering="crispEdges" /><rect width="20" height="10" x="150" y="60" fill="#fff671" shape-rendering="crispEdges" /><rect width="10" height="10" x="170" y="60" fill="#db8323" shape-rendering="crispEdges" /><rect width="10" height="10" x="180" y="60" fill="#fff671" shape-rendering="crispEdges" /><rect width="10" height="10" x="100" y="70" fill="#ffc110" shape-rendering="crispEdges" /><rect width="10" height="10" x="110" y="70" fill="#fff671" shape-rendering="crispEdges" /><rect width="20" height="10" x="120" y="70" fill="#db8323" shape-rendering="crispEdges" /><rect width="10" height="10" x="140" y="70" fill="#ffc110" shape-rendering="crispEdges" /><rect width="10" height="10" x="150" y="70" fill="#fff671" shape-rendering="crispEdges" /><rect width="10" height="10" x="160" y="70" fill="#db8323" shape-rendering="crispEdges" /><rect width="30" height="10" x="170" y="70" fill="#fff671" shape-rendering="crispEdges" /><rect width="10" height="10" x="100" y="80" fill="#ffc110" shape-rendering="crispEdges" /><rect width="10" height="10" x="110" y="80" fill="#fff671" shape-rendering="crispEdges" /><rect width="20" height="10" x="120" y="80" fill="#db8323" shape-rendering="crispEdges" /><rect width="10" height="10" x="140" y="80" fill="#ffc110" shape-rendering="crispEdges" /><rect width="10" height="10" x="150" y="80" fill="#fff671" shape-rendering="crispEdges" /><rect width="10" height="10" x="160" y="80" fill="#ffc110" shape-rendering="crispEdges" /><rect width="30" height="10" x="170" y="80" fill="#fff671" shape-rendering="crispEdges" /><rect width="50" height="10" x="90" y="90" fill="#ffc110" shape-rendering="crispEdges" /><rect width="30" height="10" x="140" y="90" fill="#fff671" shape-rendering="crispEdges" /><rect width="20" height="10" x="170" y="90" fill="#ffc110" shape-rendering="crispEdges" /><rect width="20" height="10" x="190" y="90" fill="#fff671" shape-rendering="crispEdges" /><rect width="50" height="10" x="90" y="100" fill="#ffc110" shape-rendering="crispEdges" /><rect width="70" height="10" x="140" y="100" fill="#fff671" shape-rendering="crispEdges" /><rect width="50" height="10" x="90" y="110" fill="#ffc110" shape-rendering="crispEdges" /><rect width="80" height="10" x="140" y="110" fill="#fff671" shape-rendering="crispEdges" /><rect width="50" height="10" x="80" y="120" fill="#ffc110" shape-rendering="crispEdges" /><rect width="90" height="10" x="130" y="120" fill="#fff671" shape-rendering="crispEdges" /><rect width="50" height="10" x="80" y="130" fill="#ffc110" shape-rendering="crispEdges" /><rect width="100" height="10" x="130" y="130" fill="#fff671" shape-rendering="crispEdges" /><rect width="50" height="10" x="80" y="140" fill="#ffc110" shape-rendering="crispEdges" /><rect width="100" height="10" x="130" y="140" fill="#fff671" shape-rendering="crispEdges" /><rect width="50" height="10" x="70" y="150" fill="#ffc110" shape-rendering="crispEdges" /><rect width="120" height="10" x="120" y="150" fill="#fff671" shape-rendering="crispEdges" /><rect width="50" height="10" x="70" y="160" fill="#ffc110" shape-rendering="crispEdges" /><rect width="120" height="10" x="120" y="160" fill="#fff671" shape-rendering="crispEdges" /><rect width="10" height="10" x="70" y="170" fill="#ffc110" shape-rendering="crispEdges" /><rect width="10" height="10" x="80" y="170" fill="#fff671" shape-rendering="crispEdges" /><rect width="30" height="10" x="90" y="170" fill="#ffc110" shape-rendering="crispEdges" /><rect width="130" height="10" x="120" y="170" fill="#fff671" shape-rendering="crispEdges" /><rect width="10" height="10" x="60" y="180" fill="#ffc110" shape-rendering="crispEdges" /><rect width="10" height="10" x="70" y="180" fill="#fff671" shape-rendering="crispEdges" /><rect width="10" height="10" x="80" y="180" fill="#db8323" shape-rendering="crispEdges" /><rect width="20" height="10" x="90" y="180" fill="#ffc110" shape-rendering="crispEdges" /><rect width="40" height="10" x="110" y="180" fill="#fff671" shape-rendering="crispEdges" /><rect width="10" height="10" x="150" y="180" fill="#db8323" shape-rendering="crispEdges" /><rect width="10" height="10" x="160" y="180" fill="#fff671" shape-rendering="crispEdges" /><rect width="30" height="10" x="170" y="180" fill="#000000" shape-rendering="crispEdges" /><rect width="50" height="10" x="200" y="180" fill="#fff671" shape-rendering="crispEdges" /><rect width="10" height="10" x="60" y="190" fill="#ffc110" shape-rendering="crispEdges" /><rect width="10" height="10" x="70" y="190" fill="#fff671" shape-rendering="crispEdges" /><rect width="10" height="10" x="80" y="190" fill="#db8323" shape-rendering="crispEdges" /><rect width="20" height="10" x="90" y="190" fill="#ffc110" shape-rendering="crispEdges" /><rect width="20" height="10" x="110" y="190" fill="#fff671" shape-rendering="crispEdges" /><rect width="20" height="10" x="130" y="190" fill="#ffc110" shape-rendering="crispEdges" /><rect width="70" height="10" x="150" y="190" fill="#fff671" shape-rendering="crispEdges" /><rect width="10" height="10" x="220" y="190" fill="#ffc110" shape-rendering="crispEdges" /><rect width="30" height="10" x="230" y="190" fill="#fff671" shape-rendering="crispEdges" /><rect width="50" height="10" x="60" y="200" fill="#ffc110" shape-rendering="crispEdges" /><rect width="150" height="10" x="110" y="200" fill="#fff671" shape-rendering="crispEdges" /></svg>