<svg width="320" height="320" viewBox="0 0 320 320" xmlns="http://www.w3.org/2000/svg" shape-rendering="crispEdges"><rect width="100%" height="100%" fill="none" /><rect width="60" height="10" x="100" y="110" fill="#4bea69" shape-rendering="crispEdges" /><rect width="60" height="10" x="170" y="110" fill="#4bea69" shape-rendering="crispEdges" /><rect width="10" height="10" x="100" y="120" fill="#4bea69" shape-rendering="crispEdges" /><rect width="20" height="10" x="110" y="120" fill="#ffffff" shape-rendering="crispEdges" /><rect width="20" height="10" x="130" y="120" fill="#000000" shape-rendering="crispEdges" /><rect width="10" height="10" x="150" y="120" fill="#4bea69" shape-rendering="crispEdges" /><rect width="10" height="10" x="170" y="120" fill="#4bea69" shape-rendering="crispEdges" /><rect width="20" height="10" x="180" y="120" fill="#ffffff" shape-rendering="crispEdges" /><rect width="20" height="10" x="200" y="120" fill="#000000" shape-rendering="crispEdges" /><rect width="10" height="10" x="220" y="120" fill="#4bea69" shape-rendering="crispEdges" /><rect width="40" height="10" x="70" y="130" fill="#4bea69" shape-rendering="crispEdges" /><rect width="20" height="10" x="110" y="130" fill="#ffffff" shape-rendering="crispEdges" /><rect width="20" height="10" x="130" y="130" fill="#000000" shape-rendering="crispEdges" /><rect width="30" height="10" x="150" y="130" fill="#4bea69" shape-rendering="crispEdges" /><rect width="20" height="10" x="180" y="130" fill="#ffffff" shape-rendering="crispEdges" /><rect width="20" height="10" x="200" y="130" fill="#000000" shape-rendering="crispEdges" /><rect width="10" height="10" x="220" y="130" fill="#4bea69" shape-rendering="crispEdges" /><rect width="10" height="10" x="70" y="140" fill="#4bea69" shape-rendering="crispEdges" /><rect width="10" height="10" x="100" y="140" fill="#4bea69" shape-rendering="crispEdges" /><rect width="20" height="10" x="110" y="140" fill="#ffffff" shape-rendering="crispEdges" /><rect width="20" height="10" x="130" y="140" fill="#000000" shape-rendering="crispEdges" /><rect width="10" height="10" x="150" y="140" fill="#4bea69" shape-rendering="crispEdges" /><rect width="10" height="10" x="170" y="140" fill="#4bea69" shape-rendering="crispEdges" /><rect width="20" height="10" x="180" y="140" fill="#ffffff" shape-rendering="crispEdges" /><rect width="20" height="10" x="200" y="140" fill="#000000" shape-rendering="crispEdges" /><rect width="10" height="10" x="220" y="140" fill="#4bea69" shape-rendering="crispEdges" /><rect width="10" height="10" x="70" y="150" fill="#4bea69" shape-rendering="crispEdges" /><rect width="10" height="10" x="100" y="150" fill="#4bea69" shape-rendering="crispEdges" /><rect width="20" height="10" x="110" y="150" fill="#ffffff" shape-rendering="crispEdges" /><rect width="20" height="10" x="130" y="150" fill="#000000" shape-rendering="crispEdges" /><rect width="10" height="10" x="150" y="150" fill="#4bea69" shape-rendering="crispEdges" /><rect width="10" height="10" x="170" y="150" fill="#4bea69" shape-rendering="crispEdges" /><rect width="20" height="10" x="180" y="150" fill="#ffffff" shape-rendering="crispEdges" /><rect width="20" height="10" x="200" y="150" fill="#000000" shape-rendering="crispEdges" /><rect width="10" height="10" x="220" y="150" fill="#4bea69" shape-rendering="crispEdges" /><rect width="60" height="10" x="100" y="160" fill="#4bea69" shape-rendering="crispEdges" /><rect width="60" height="10" x="170" y="160" fill="#4bea69" shape-rendering="crispEdges" /></svg>